<svg width="31" height="27" viewBox="0 0 31 27" fill="none" xmlns="http://www.w3.org/2000/svg">
<path fill-rule="evenodd" clip-rule="evenodd" d="M29.2485 0.84284C29.1934 0.863352 28.7428 1.10265 28.2472 1.37456C20.9761 5.36366 15.3781 10.5033 12.3633 15.9579L11.9221 16.756L9.73106 14.2723C8.52595 12.9063 7.46675 11.7557 7.37724 11.7155C7.26503 11.6652 6.19235 11.6426 3.9187 11.6426H0.622771L0.422319 11.8087C0.193967 11.998 0.110261 12.2664 0.203912 12.509C0.239156 12.6004 0.849054 13.2933 1.55914 14.0489C2.26923 14.8045 5.23382 17.9618 8.14707 21.065C11.0603 24.1682 13.5133 26.7383 13.598 26.7763C13.8017 26.8677 14.1818 26.7928 14.3294 26.6322C14.3944 26.5615 14.5802 26.0221 14.7423 25.4337C17.0936 16.9015 22.4326 8.4736 29.2601 2.5167C29.8501 2.00194 30.1187 1.72273 30.1473 1.59408C30.2566 1.1041 29.7294 0.663496 29.2485 0.84284Z" fill="#FFC700"/>
</svg>
