<svg width="9" height="9" viewBox="0 0 9 9" fill="none" xmlns="http://www.w3.org/2000/svg">
<path fill-rule="evenodd" clip-rule="evenodd" d="M0.0219931 5.01987C0.258814 6.86566 1.62198 8.42077 3.39115 8.86345C5.60149 9.41652 7.8739 8.24655 8.69791 6.13117C8.88631 5.6475 8.97752 5.19925 8.99675 4.66246C9.03183 3.68277 8.78343 2.8032 8.24329 1.99443C7.2242 0.468518 5.40762 -0.274373 3.59248 0.0924902C2.84175 0.244228 2.0839 0.618575 1.52127 1.11562C0.686078 1.85343 0.139843 2.90564 0.020111 4.00727C-0.00749193 4.26129 -0.00650612 4.79784 0.0219931 5.01987ZM2.94125 3.69333C2.97995 3.62046 4.28867 2.31485 4.35837 2.27958C4.41709 2.24987 4.56649 2.24718 4.63846 2.27454C4.70654 2.30044 6.00059 3.5622 6.05143 3.6523C6.12657 3.78542 6.07697 3.97776 5.94173 4.07773C5.87718 4.12546 5.73959 4.14932 5.65358 4.12775C5.62121 4.11961 5.43659 3.96288 5.24335 3.77946L4.89197 3.44596L4.88077 4.96221C4.86983 6.44094 4.86842 6.48042 4.82354 6.55683C4.75118 6.68004 4.64988 6.73615 4.49988 6.73615C4.33989 6.73615 4.24036 6.6756 4.16941 6.53516L4.119 6.43536V4.95007C4.119 4.13317 4.11183 3.46478 4.10307 3.46478C4.09431 3.46478 3.93048 3.62021 3.73898 3.81018C3.4565 4.09046 3.37566 4.1584 3.31044 4.1705C3.224 4.18654 3.09083 4.1435 3.01331 4.07451C2.9158 3.9877 2.88145 3.80596 2.94125 3.69333Z" fill="#1ABC00"/>
</svg>
