<svg width="21" height="28" viewBox="0 0 21 28" fill="none" xmlns="http://www.w3.org/2000/svg">
<path fill-rule="evenodd" clip-rule="evenodd" d="M9.55853 0.0157638C9.51269 0.0265972 9.25015 0.064131 8.97512 0.099148C5.70282 0.516288 2.63404 2.70907 1.08368 5.73793C0.16495 7.53288 -0.207708 9.81462 0.113332 11.68C0.226958 12.3403 0.521884 13.4175 0.758413 14.0363C0.9186 14.4553 1.46628 15.5382 1.79427 16.0842C2.29489 16.9177 9.35161 27.4008 9.54197 27.5938C10.0764 28.1356 10.9301 28.1354 11.4648 27.5932C11.6623 27.3929 18.833 16.7327 19.267 15.9941C20.0143 14.7225 20.5335 13.4211 20.8167 12.1094C21.0117 11.2065 21.0569 9.89396 20.9243 8.98154C20.5836 6.63579 19.5941 4.67352 17.9214 3.02624C16.3592 1.4879 14.4186 0.495169 12.2413 0.120487C11.8017 0.044817 9.77116 -0.0344638 9.55853 0.0157638ZM11.8789 1.33295C14.0651 1.67333 15.9811 2.7008 17.4237 4.30644C19.3614 6.46311 20.1523 9.3861 19.5276 12.0821C19.2126 13.4419 18.5882 14.7678 17.4559 16.4813C14.6747 20.6903 10.5733 26.7443 10.5031 26.7443C10.4329 26.7443 6.33151 20.6903 3.55027 16.4813C1.92395 14.0201 1.27203 12.2356 1.27353 10.2492C1.27653 6.23785 4.03905 2.67438 8.00277 1.56866C9.12803 1.25482 10.7452 1.15644 11.8789 1.33295ZM9.39184 4.96843C8.77998 5.09909 8.34671 5.25168 7.89848 5.49434C6.35251 6.33114 5.37844 7.63771 5.02684 9.34621C4.8981 9.97209 4.94061 11.1631 5.11285 11.7538C5.39061 12.7063 5.91168 13.5675 6.62299 14.2496C7.57883 15.1663 8.73481 15.6944 10.0038 15.7943C11.6891 15.9268 13.1841 15.3996 14.3832 14.2496C15.0945 13.5675 15.6156 12.7063 15.8933 11.7538C16.0656 11.1631 16.1081 9.97209 15.9793 9.34621C15.6276 7.63695 14.6538 6.33119 13.106 5.49341C12.0484 4.92094 10.5834 4.71384 9.39184 4.96843ZM11.536 6.22893C12.8474 6.55919 13.855 7.38515 14.4152 8.58914C14.902 9.6351 14.9231 10.9226 14.4709 11.9858C14.013 13.0625 12.9727 14.0112 11.8735 14.355C10.308 14.8446 8.72453 14.4984 7.55344 13.4105C6.66894 12.5888 6.21577 11.5556 6.21483 10.3586C6.21321 8.38056 7.50449 6.73258 9.44857 6.23139C10.0294 6.08164 10.9469 6.08055 11.536 6.22893Z" fill="#FFC700"/>
</svg>
