<svg width="28" height="28" viewBox="0 0 28 28" fill="none" xmlns="http://www.w3.org/2000/svg">
<path fill-rule="evenodd" clip-rule="evenodd" d="M4.48629 0.127999C3.82572 0.381516 3.39062 1.05104 3.39062 1.81388V2.19452H1.85516H0.319703L0.159852 2.35432L0 2.51413V15.0973V27.6804L0.159852 27.8402L0.319703 28H14H27.6803L27.8401 27.8402L28 27.6804V15.0973V2.51413L27.8401 2.35432L27.6803 2.19452H26.1448H24.6094V1.81388C24.6094 1.27853 24.45 0.879912 24.0934 0.523446C22.9691 -0.600514 21.1094 0.20372 21.1094 1.81388V2.19452H19.9062H18.7031V1.81388C18.7031 1.27853 18.5438 0.879912 18.1871 0.523446C17.0629 -0.600514 15.2031 0.20372 15.2031 1.81388V2.19452H14H12.7969V1.81388C12.7969 1.27853 12.6375 0.879912 12.2809 0.523446C11.1566 -0.600514 9.29688 0.20372 9.29688 1.81388V2.19452H8.09375H6.89062V1.81388C6.89062 0.524102 5.67503 -0.328244 4.48629 0.127999ZM5.51146 1.24277C5.7756 1.41581 5.8036 1.59973 5.78588 3.04276C5.77052 4.2934 5.76264 4.38301 5.65518 4.52789C5.59234 4.61274 5.44261 4.71684 5.32252 4.75932C5.12433 4.82935 5.0843 4.82684 4.88994 4.73198C4.51095 4.54702 4.48454 4.43156 4.48454 2.95993C4.48454 1.84614 4.49728 1.64965 4.58019 1.48377C4.75617 1.13152 5.17579 1.02294 5.51146 1.24277ZM11.4177 1.24277C11.6819 1.41581 11.7099 1.59973 11.6921 3.04276C11.6768 4.2934 11.6689 4.38301 11.5614 4.52789C11.4986 4.61274 11.3489 4.71684 11.2288 4.75932C11.0306 4.82935 10.9905 4.82684 10.7962 4.73198C10.4172 4.54702 10.3908 4.43156 10.3908 2.95993C10.3908 1.84614 10.4035 1.64965 10.4864 1.48377C10.6624 1.13152 11.082 1.02294 11.4177 1.24277ZM17.324 1.24277C17.5881 1.41581 17.6161 1.59973 17.5984 3.04276C17.583 4.2934 17.5751 4.38301 17.4677 4.52789C17.4048 4.61274 17.2551 4.71684 17.135 4.75932C16.9368 4.82935 16.8968 4.82684 16.7024 4.73198C16.3235 4.54702 16.297 4.43156 16.297 2.95993C16.297 1.84614 16.3098 1.64965 16.3927 1.48377C16.5687 1.13152 16.9883 1.02294 17.324 1.24277ZM23.2302 1.24277C23.4944 1.41581 23.5224 1.59973 23.5046 3.04276C23.4893 4.2934 23.4814 4.38301 23.3739 4.52789C23.3111 4.61274 23.1614 4.71684 23.0413 4.75932C22.8431 4.82935 22.803 4.82684 22.6087 4.73198C22.2297 4.54702 22.2033 4.43156 22.2033 2.95993C22.2033 1.84614 22.216 1.64965 22.2989 1.48377C22.4749 1.13152 22.8945 1.02294 23.2302 1.24277ZM3.39062 3.88729C3.39062 4.66014 3.50514 4.99512 3.9066 5.39642C4.59944 6.08912 5.68181 6.08912 6.37465 5.39642C6.77611 4.99512 6.89062 4.66014 6.89062 3.88729V3.28797H8.09375H9.29688V3.88729C9.29688 4.66014 9.41139 4.99512 9.81285 5.39642C10.5057 6.08912 11.5881 6.08912 12.2809 5.39642C12.6824 4.99512 12.7969 4.66014 12.7969 3.88729V3.28797H14H15.2031V3.88729C15.2031 4.36704 15.2266 4.54948 15.3209 4.80136C15.4798 5.22606 15.8895 5.63561 16.3143 5.79449C16.9824 6.0444 17.6893 5.89416 18.1871 5.39642C18.5886 4.99512 18.7031 4.66014 18.7031 3.88729V3.28797H19.9062H21.1094V3.88729C21.1094 4.66014 21.2239 4.99512 21.6254 5.39642C22.3182 6.08912 23.4006 6.08912 24.0934 5.39642C24.4949 4.99512 24.6094 4.66014 24.6094 3.88729V3.28797H25.7578H26.9062V5.80291V8.31785H21.57H16.2338H11.7662H6.42999H1.09375V5.80291V3.28797H2.24219H3.39062V3.88729ZM21.57 9.4113H16.2338H11.7662H6.42999H1.09375V18.1589V26.9065H14H26.9062V18.1589V9.4113H21.57Z" fill="#FFC700"/>
<path fill-rule="evenodd" clip-rule="evenodd" d="M3.22235 11.5393L3.0625 11.6991V18.1589V24.6187L3.22235 24.7785L3.3822 24.9383H14H24.6178L24.7776 24.7785L24.9375 24.6187V18.1589V11.6991L24.7776 11.5393L24.6178 11.3795H14H3.3822L3.22235 11.5393ZM8.25781 15.5346V14.0038V12.473H6.20703H4.15625V14.0038V15.5346H6.20703H8.25781ZM13.4531 15.5346V14.0038V12.473H11.4023H9.35156V14.0038V15.5346H11.4023H13.4531ZM18.6484 15.5346V14.0038V12.473H16.5977H14.5469V14.0038V15.5346H16.5977H18.6484ZM23.8438 15.5346V14.0038V12.473H21.793H19.7422V14.0038V15.5346H21.793H23.8438ZM8.25781 19.6898V18.1589V16.6281H6.20703H4.15625V18.1589V19.6898H6.20703H8.25781ZM13.4531 19.6898V18.1589V16.6281H11.4023H9.35156V18.1589V19.6898H11.4023H13.4531ZM18.6484 19.6898V18.1589V16.6281H16.5977H14.5469V18.1589V19.6898H16.5977H18.6484ZM23.8438 19.6898V18.1589V16.6281H21.793H19.7422V18.1589V19.6898H21.793H23.8438ZM8.25781 23.8449V22.314V20.7832H6.20703H4.15625V22.314V23.8449H6.20703H8.25781ZM13.4531 23.8449V22.314V20.7832H11.4023H9.35156V22.314V23.8449H11.4023H13.4531ZM18.6484 23.8449V22.314V20.7832H16.5977H14.5469V22.314V23.8449H16.5977H18.6484ZM23.8438 23.8449V22.314V20.7832H21.793H19.7422V22.314V23.8449H21.793H23.8438Z" fill="#FFC700"/>
</svg>
