<svg width="30" height="28" viewBox="0 0 30 28" fill="none" xmlns="http://www.w3.org/2000/svg">
<path fill-rule="evenodd" clip-rule="evenodd" d="M13.0922 0.071305C10.6498 0.394594 8.61917 1.11162 6.62933 2.35348C4.90045 3.43244 3.62933 4.62785 2.43116 6.30158C1.54399 7.54087 0.826986 9.04298 0.429654 10.4949C0.0585336 11.851 0 12.3296 0 14.0084C0 15.6873 0.0585336 16.1658 0.429654 17.5219C0.970265 19.4972 2.08173 21.4959 3.53145 23.0995C5.43165 25.2014 8.13299 26.812 10.9776 27.539C12.4896 27.9255 13.1217 27.9985 14.9694 28C16.8034 28.0015 17.304 27.9487 18.7664 27.6005C20.7858 27.1195 22.8466 26.1478 24.5074 24.8934C26.9341 23.0606 28.7968 20.3485 29.5703 17.5219C29.9415 16.1658 30 15.6873 30 14.0084C30 12.3296 29.9415 11.851 29.5703 10.4949C29.306 9.52911 29.0206 8.81579 28.499 7.81799C27.3381 5.59675 25.5415 3.69497 23.2798 2.29329C21.5499 1.22111 19.6304 0.511268 17.4973 0.154863C16.5301 -0.00672443 14.0388 -0.0539753 13.0922 0.071305ZM14.389 3.93983V6.69566L13.9155 6.67405C12.9488 6.62999 11.8306 6.53264 11.0591 6.42543C9.86902 6.26008 9.80652 6.24749 9.80652 6.17367C9.80652 6.0566 10.1069 5.40125 10.4773 4.71004C11.4175 2.95572 12.6204 1.75016 13.8591 1.32069C14.0665 1.24876 14.2707 1.18862 14.3126 1.18697C14.3727 1.18464 14.389 1.77159 14.389 3.93983ZM16.1426 1.32878C17.1337 1.67675 17.9704 2.38016 18.8245 3.58354C19.3549 4.33061 20.1935 5.91502 20.1935 6.16986C20.1935 6.29559 18.1785 6.56907 16.8185 6.62789C16.4064 6.64567 15.9662 6.6724 15.8401 6.68716L15.611 6.71412V3.94907C15.611 2.18676 15.6326 1.18401 15.6707 1.18401C15.7036 1.18401 15.9159 1.24916 16.1426 1.32878ZM10.8983 1.99622C10.118 2.855 9.31039 4.15785 8.79446 5.39013C8.51902 6.04799 8.6389 6.00946 7.69857 5.74203C7.07481 5.5646 6.15251 5.24809 5.62454 5.03031L5.26802 4.8832L5.4446 4.70753C6.23468 3.92131 7.98965 2.81225 9.31851 2.25938C9.74701 2.08115 11.0498 1.62893 11.2581 1.58624C11.2667 1.58441 11.1048 1.76897 10.8983 1.99622ZM19.9 1.95456C21.4816 2.50692 23.6073 3.76417 24.5564 4.7085L24.7341 4.88525L24.4342 5.00694C23.8014 5.26388 23.0096 5.53844 22.3931 5.71484C21.3463 6.01425 21.4824 6.05147 21.2055 5.39013C20.6912 4.16161 19.8818 2.85472 19.1079 2.00306L18.7386 1.59667L19.0961 1.69767C19.2928 1.75324 19.6546 1.86883 19.9 1.95456ZM5.63804 6.28089C6.30299 6.53327 7.78075 6.997 7.92507 6.9986C8.15224 7.00111 8.16263 7.08124 8.00664 7.62887C7.56293 9.18661 7.17923 11.7277 7.17923 13.1079V13.4384H4.18014H1.181L1.22151 12.9967C1.4532 10.4704 2.47521 8.02045 4.10951 6.07387L4.38269 5.74853L4.68275 5.89034C4.84778 5.96837 5.27768 6.14415 5.63804 6.28089ZM26.2368 6.516C27.686 8.39595 28.5346 10.568 28.7797 13.0252L28.821 13.4384H25.8208H22.8208V13.1047C22.8208 11.7463 22.4253 9.1254 21.9945 7.62905C21.8366 7.08084 21.847 7.00111 22.0761 6.9986C22.3595 6.99552 24.7187 6.18365 25.3564 5.86971L25.6008 5.74939L25.742 5.90334C25.8197 5.98798 26.0423 6.26373 26.2368 6.516ZM10.4481 7.50895C11.1879 7.62716 12.6352 7.7688 13.7016 7.8274L14.389 7.86519V10.6518V13.4384H11.3951H8.40122L8.40177 13.2532C8.40422 12.3957 8.63414 10.4464 8.86729 9.30614C9.01149 8.60068 9.29982 7.48028 9.36373 7.37672C9.38016 7.35004 9.47963 7.34474 9.58479 7.36492C9.68994 7.38504 10.0784 7.4499 10.4481 7.50895ZM20.7536 7.73871C20.9346 8.33228 21.2785 9.98594 21.3819 10.7596C21.4683 11.4063 21.5956 12.8927 21.5979 13.2817L21.5988 13.4384H18.6049H15.611V10.6524V7.86633L16.2678 7.82939C17.4435 7.76322 18.863 7.61941 19.6741 7.48433C20.111 7.4116 20.5072 7.35569 20.5546 7.36013C20.6055 7.36492 20.6868 7.51944 20.7536 7.73871ZM7.17923 14.909C7.17923 16.2892 7.56293 18.8302 8.00664 20.388C8.16263 20.9356 8.15224 21.0157 7.92507 21.0182C7.65018 21.0213 5.37733 21.7981 4.68275 22.1265L4.38269 22.2683L4.10951 21.943C2.46214 19.9808 1.48198 17.6227 1.22016 14.9916L1.17904 14.5784H4.17917H7.17923V14.909ZM14.389 17.3651V20.1517L13.7016 20.1893C12.5889 20.2503 11.2364 20.385 10.4175 20.5164C9.29792 20.696 9.38102 20.7129 9.24611 20.2781C8.84505 18.9855 8.40568 16.116 8.40177 14.7636L8.40122 14.5784H11.3951H14.389V17.3651ZM21.5979 14.7351C21.593 15.5764 21.3699 17.5427 21.163 18.5682C21.013 19.3118 20.6865 20.5777 20.6307 20.6322C20.6079 20.6545 20.2046 20.6115 19.7345 20.5364C18.8324 20.3926 17.4443 20.2524 16.2984 20.1894L15.611 20.1517V17.3651V14.5784H18.6049H21.5988L21.5979 14.7351ZM28.7797 14.9916C28.516 17.6351 27.5517 19.9543 25.8893 21.943L25.6173 22.2683L25.3173 22.1265C24.6227 21.7981 22.3498 21.0213 22.0749 21.0182C21.8471 21.0157 21.8368 20.9354 21.9945 20.3878C22.4253 18.8914 22.8208 16.2705 22.8208 14.9121V14.5784H25.8208H28.821L28.7797 14.9916ZM14.389 24.0685C14.389 25.8303 14.3674 26.8328 14.3293 26.8328C14.1872 26.8328 13.4195 26.528 13.1395 26.3603C12.1605 25.7744 11.2241 24.7003 10.4773 23.3068C10.109 22.6196 9.80652 21.9604 9.80652 21.845C9.80652 21.7199 11.8301 21.4492 13.3834 21.3664C13.8525 21.3414 14.2707 21.3172 14.3126 21.3125C14.3728 21.3059 14.389 21.8905 14.389 24.0685ZM16.8185 21.389C18.1785 21.4478 20.1935 21.7213 20.1935 21.847C20.1935 22.1018 19.3549 23.6862 18.8245 24.4333C17.9704 25.6367 17.1337 26.3401 16.1426 26.6881C15.9159 26.7677 15.7036 26.8328 15.6707 26.8328C15.6326 26.8328 15.611 25.8301 15.611 24.0678V21.3027L15.8401 21.3297C15.9662 21.3444 16.4064 21.3712 16.8185 21.389ZM8.79446 22.6245C9.30532 23.8494 10.1165 25.1603 10.8912 26.0127L11.2595 26.418L10.8843 26.3102C9.73393 25.9798 8.50051 25.435 7.45418 24.7949C6.74004 24.3581 5.80081 23.6638 5.4446 23.3093L5.26802 23.1336L5.62454 22.9865C6.36446 22.6813 8.28507 22.0603 8.52342 22.0492C8.54022 22.0484 8.66218 22.3073 8.79446 22.6245ZM22.1981 22.2452C22.7519 22.3934 23.4879 22.6328 23.9206 22.8055C24.0382 22.8524 24.2693 22.9449 24.4342 23.0112L24.7341 23.1316L24.5564 23.3083C24.1988 23.6642 23.2604 24.3578 22.5458 24.7946C21.4948 25.437 20.3392 25.9508 19.1748 26.2934L18.7367 26.4223L19.1069 26.0148C19.883 25.1608 20.6932 23.8522 21.2055 22.6252C21.3803 22.2065 21.471 22.0552 21.5377 22.071C21.5881 22.0831 21.8853 22.1614 22.1981 22.2452Z" fill="#FFC700"/>
</svg>
