<svg width="548" height="232" viewBox="0 0 548 232" fill="none" xmlns="http://www.w3.org/2000/svg">
<g opacity="0.3">
<line x1="37" y1="6.50005" x2="548" y2="6.5" stroke="#FFB11B" stroke-dasharray="2 2"/>
<line x1="37" y1="32.5001" x2="548" y2="32.5001" stroke="#FFB11B" stroke-dasharray="2 2"/>
<line x1="37" y1="58.5002" x2="548" y2="58.5001" stroke="#FFB11B" stroke-dasharray="2 2"/>
<line x1="37" y1="84.5" x2="548" y2="84.5" stroke="#FFB11B" stroke-dasharray="2 2"/>
<line x1="37" y1="110.5" x2="548" y2="110.5" stroke="#FFB11B" stroke-dasharray="2 2"/>
<line x1="37" y1="136.5" x2="548" y2="136.5" stroke="#FFB11B" stroke-dasharray="2 2"/>
<line x1="37" y1="162.5" x2="548" y2="162.5" stroke="#FFB11B" stroke-dasharray="2 2"/>
<line x1="37" y1="188.5" x2="548" y2="188.5" stroke="#FFB11B" stroke-dasharray="2 2"/>
<line x1="37" y1="214.5" x2="548" y2="214.5" stroke="#FFB11B" stroke-dasharray="2 2"/>
<line x1="37.5" y1="6" x2="37.5" y2="215" stroke="#FFB11B" stroke-dasharray="2 2"/>
<line x1="88.5" y1="6" x2="88.5" y2="215" stroke="#FFB11B" stroke-dasharray="2 2"/>
<line x1="139.5" y1="6" x2="139.5" y2="215" stroke="#FFB11B" stroke-dasharray="2 2"/>
<line x1="190.5" y1="6" x2="190.5" y2="215" stroke="#FFB11B" stroke-dasharray="2 2"/>
<line x1="241.5" y1="6" x2="241.5" y2="215" stroke="#FFB11B" stroke-dasharray="2 2"/>
<line x1="292.5" y1="6" x2="292.5" y2="215" stroke="#FFB11B" stroke-dasharray="2 2"/>
<line x1="343.5" y1="6" x2="343.5" y2="215" stroke="#FFB11B" stroke-dasharray="2 2"/>
<line x1="394.5" y1="6" x2="394.5" y2="215" stroke="#FFB11B" stroke-dasharray="2 2"/>
<line x1="445.5" y1="6" x2="445.5" y2="215" stroke="#FFB11B" stroke-dasharray="2 2"/>
<line x1="496.5" y1="6" x2="496.5" y2="215" stroke="#FFB11B" stroke-dasharray="2 2"/>
<line x1="547.5" y1="6" x2="547.5" y2="215" stroke="#FFB11B" stroke-dasharray="2 2"/>
</g>
<path d="M8.20581 209.238H9.26781C9.86181 209.238 10.3598 209.412 10.7618 209.76C11.1758 210.102 11.3828 210.573 11.3828 211.173C11.3828 211.767 11.1758 212.241 10.7618 212.595C10.3598 212.937 9.86181 213.108 9.26781 213.108C8.78181 213.108 8.35281 212.991 7.98081 212.757C7.61481 212.517 7.36881 212.187 7.24281 211.767L7.77381 211.461C7.86381 211.791 8.04081 212.046 8.30481 212.226C8.56881 212.406 8.88981 212.496 9.26781 212.496C9.71181 212.496 10.0688 212.379 10.3388 212.145C10.6148 211.905 10.7528 211.581 10.7528 211.173C10.7528 210.765 10.6148 210.444 10.3388 210.21C10.0688 209.97 9.71181 209.85 9.26781 209.85H7.55781L7.78281 206.7H11.1578V207.294H8.34081L8.20581 209.238ZM18.5832 212.226C18.1692 212.814 17.5842 213.108 16.8282 213.108C16.0782 213.108 15.4902 212.814 15.0642 212.226C14.6502 211.632 14.4432 210.84 14.4432 209.85C14.4432 208.854 14.6502 208.065 15.0642 207.483C15.4902 206.889 16.0782 206.592 16.8282 206.592C17.5842 206.592 18.1692 206.889 18.5832 207.483C19.0032 208.065 19.2132 208.854 19.2132 209.85C19.2132 210.846 19.0032 211.638 18.5832 212.226ZM15.5322 211.803C15.8502 212.265 16.2822 212.496 16.8282 212.496C17.3802 212.496 17.8092 212.265 18.1152 211.803C18.4272 211.347 18.5832 210.696 18.5832 209.85C18.5832 209.004 18.4272 208.353 18.1152 207.897C17.8092 207.435 17.3802 207.204 16.8282 207.204C16.2822 207.204 15.8502 207.435 15.5322 207.897C15.2262 208.359 15.0732 209.01 15.0732 209.85C15.0732 210.69 15.2262 211.341 15.5322 211.803ZM24.2521 212.226C23.8381 212.814 23.2531 213.108 22.4971 213.108C21.7471 213.108 21.1591 212.814 20.7331 212.226C20.3191 211.632 20.1121 210.84 20.1121 209.85C20.1121 208.854 20.3191 208.065 20.7331 207.483C21.1591 206.889 21.7471 206.592 22.4971 206.592C23.2531 206.592 23.8381 206.889 24.2521 207.483C24.6721 208.065 24.8821 208.854 24.8821 209.85C24.8821 210.846 24.6721 211.638 24.2521 212.226ZM21.2011 211.803C21.5191 212.265 21.9511 212.496 22.4971 212.496C23.0491 212.496 23.4781 212.265 23.7841 211.803C24.0961 211.347 24.2521 210.696 24.2521 209.85C24.2521 209.004 24.0961 208.353 23.7841 207.897C23.4781 207.435 23.0491 207.204 22.4971 207.204C21.9511 207.204 21.5191 207.435 21.2011 207.897C20.8951 208.359 20.7421 209.01 20.7421 209.85C20.7421 210.69 20.8951 211.341 21.2011 211.803ZM29.9211 212.226C29.5071 212.814 28.9221 213.108 28.1661 213.108C27.4161 213.108 26.8281 212.814 26.4021 212.226C25.9881 211.632 25.7811 210.84 25.7811 209.85C25.7811 208.854 25.9881 208.065 26.4021 207.483C26.8281 206.889 27.4161 206.592 28.1661 206.592C28.9221 206.592 29.5071 206.889 29.9211 207.483C30.3411 208.065 30.5511 208.854 30.5511 209.85C30.5511 210.846 30.3411 211.638 29.9211 212.226ZM26.8701 211.803C27.1881 212.265 27.6201 212.496 28.1661 212.496C28.7181 212.496 29.1471 212.265 29.4531 211.803C29.7651 211.347 29.9211 210.696 29.9211 209.85C29.9211 209.004 29.7651 208.353 29.4531 207.897C29.1471 207.435 28.7181 207.204 28.1661 207.204C27.6201 207.204 27.1881 207.435 26.8701 207.897C26.5641 208.359 26.4111 209.01 26.4111 209.85C26.4111 210.69 26.5641 211.341 26.8701 211.803Z" fill="#E3E3E3"/>
<path d="M3.15063 181.276L4.81563 180.7H5.35563V187H4.72563V181.393L3.31262 181.816L3.15063 181.276ZM10.6642 186.226C10.2502 186.814 9.66522 187.108 8.90922 187.108C8.15922 187.108 7.57122 186.814 7.14522 186.226C6.73122 185.632 6.52422 184.84 6.52422 183.85C6.52422 182.854 6.73122 182.065 7.14522 181.483C7.57122 180.889 8.15922 180.592 8.90922 180.592C9.66522 180.592 10.2502 180.889 10.6642 181.483C11.0842 182.065 11.2942 182.854 11.2942 183.85C11.2942 184.846 11.0842 185.638 10.6642 186.226ZM7.61322 185.803C7.93122 186.265 8.36322 186.496 8.90922 186.496C9.46122 186.496 9.89022 186.265 10.1962 185.803C10.5082 185.347 10.6642 184.696 10.6642 183.85C10.6642 183.004 10.5082 182.353 10.1962 181.897C9.89022 181.435 9.46122 181.204 8.90922 181.204C8.36322 181.204 7.93122 181.435 7.61322 181.897C7.30722 182.359 7.15422 183.01 7.15422 183.85C7.15422 184.69 7.30722 185.341 7.61322 185.803ZM18.5832 186.226C18.1692 186.814 17.5842 187.108 16.8282 187.108C16.0782 187.108 15.4902 186.814 15.0642 186.226C14.6502 185.632 14.4432 184.84 14.4432 183.85C14.4432 182.854 14.6502 182.065 15.0642 181.483C15.4902 180.889 16.0782 180.592 16.8282 180.592C17.5842 180.592 18.1692 180.889 18.5832 181.483C19.0032 182.065 19.2132 182.854 19.2132 183.85C19.2132 184.846 19.0032 185.638 18.5832 186.226ZM15.5322 185.803C15.8502 186.265 16.2822 186.496 16.8282 186.496C17.3802 186.496 17.8092 186.265 18.1152 185.803C18.4272 185.347 18.5832 184.696 18.5832 183.85C18.5832 183.004 18.4272 182.353 18.1152 181.897C17.8092 181.435 17.3802 181.204 16.8282 181.204C16.2822 181.204 15.8502 181.435 15.5322 181.897C15.2262 182.359 15.0732 183.01 15.0732 183.85C15.0732 184.69 15.2262 185.341 15.5322 185.803ZM24.2521 186.226C23.8381 186.814 23.2531 187.108 22.4971 187.108C21.7471 187.108 21.1591 186.814 20.7331 186.226C20.3191 185.632 20.1121 184.84 20.1121 183.85C20.1121 182.854 20.3191 182.065 20.7331 181.483C21.1591 180.889 21.7471 180.592 22.4971 180.592C23.2531 180.592 23.8381 180.889 24.2521 181.483C24.6721 182.065 24.8821 182.854 24.8821 183.85C24.8821 184.846 24.6721 185.638 24.2521 186.226ZM21.2011 185.803C21.5191 186.265 21.9511 186.496 22.4971 186.496C23.0491 186.496 23.4781 186.265 23.7841 185.803C24.0961 185.347 24.2521 184.696 24.2521 183.85C24.2521 183.004 24.0961 182.353 23.7841 181.897C23.4781 181.435 23.0491 181.204 22.4971 181.204C21.9511 181.204 21.5191 181.435 21.2011 181.897C20.8951 182.359 20.7421 183.01 20.7421 183.85C20.7421 184.69 20.8951 185.341 21.2011 185.803ZM29.9211 186.226C29.5071 186.814 28.9221 187.108 28.1661 187.108C27.4161 187.108 26.8281 186.814 26.4021 186.226C25.9881 185.632 25.7811 184.84 25.7811 183.85C25.7811 182.854 25.9881 182.065 26.4021 181.483C26.8281 180.889 27.4161 180.592 28.1661 180.592C28.9221 180.592 29.5071 180.889 29.9211 181.483C30.3411 182.065 30.5511 182.854 30.5511 183.85C30.5511 184.846 30.3411 185.638 29.9211 186.226ZM26.8701 185.803C27.1881 186.265 27.6201 186.496 28.1661 186.496C28.7181 186.496 29.1471 186.265 29.4531 185.803C29.7651 185.347 29.9211 184.696 29.9211 183.85C29.9211 183.004 29.7651 182.353 29.4531 181.897C29.1471 181.435 28.7181 181.204 28.1661 181.204C27.6201 181.204 27.1881 181.435 26.8701 181.897C26.5641 182.359 26.4111 183.01 26.4111 183.85C26.4111 184.69 26.5641 185.341 26.8701 185.803Z" fill="#E3E3E3"/>
<path d="M3.95922 155.276L5.62422 154.7H6.16422V161H5.53422V155.393L4.12122 155.816L3.95922 155.276ZM8.20581 157.238H9.26781C9.86181 157.238 10.3598 157.412 10.7618 157.76C11.1758 158.102 11.3828 158.573 11.3828 159.173C11.3828 159.767 11.1758 160.241 10.7618 160.595C10.3598 160.937 9.86181 161.108 9.26781 161.108C8.78181 161.108 8.35281 160.991 7.98081 160.757C7.61481 160.517 7.36881 160.187 7.24281 159.767L7.77381 159.461C7.86381 159.791 8.04081 160.046 8.30481 160.226C8.56881 160.406 8.88981 160.496 9.26781 160.496C9.71181 160.496 10.0688 160.379 10.3388 160.145C10.6148 159.905 10.7528 159.581 10.7528 159.173C10.7528 158.765 10.6148 158.444 10.3388 158.21C10.0688 157.97 9.71181 157.85 9.26781 157.85H7.55781L7.78281 154.7H11.1578V155.294H8.34081L8.20581 157.238ZM18.5832 160.226C18.1692 160.814 17.5842 161.108 16.8282 161.108C16.0782 161.108 15.4902 160.814 15.0642 160.226C14.6502 159.632 14.4432 158.84 14.4432 157.85C14.4432 156.854 14.6502 156.065 15.0642 155.483C15.4902 154.889 16.0782 154.592 16.8282 154.592C17.5842 154.592 18.1692 154.889 18.5832 155.483C19.0032 156.065 19.2132 156.854 19.2132 157.85C19.2132 158.846 19.0032 159.638 18.5832 160.226ZM15.5322 159.803C15.8502 160.265 16.2822 160.496 16.8282 160.496C17.3802 160.496 17.8092 160.265 18.1152 159.803C18.4272 159.347 18.5832 158.696 18.5832 157.85C18.5832 157.004 18.4272 156.353 18.1152 155.897C17.8092 155.435 17.3802 155.204 16.8282 155.204C16.2822 155.204 15.8502 155.435 15.5322 155.897C15.2262 156.359 15.0732 157.01 15.0732 157.85C15.0732 158.69 15.2262 159.341 15.5322 159.803ZM24.2521 160.226C23.8381 160.814 23.2531 161.108 22.4971 161.108C21.7471 161.108 21.1591 160.814 20.7331 160.226C20.3191 159.632 20.1121 158.84 20.1121 157.85C20.1121 156.854 20.3191 156.065 20.7331 155.483C21.1591 154.889 21.7471 154.592 22.4971 154.592C23.2531 154.592 23.8381 154.889 24.2521 155.483C24.6721 156.065 24.8821 156.854 24.8821 157.85C24.8821 158.846 24.6721 159.638 24.2521 160.226ZM21.2011 159.803C21.5191 160.265 21.9511 160.496 22.4971 160.496C23.0491 160.496 23.4781 160.265 23.7841 159.803C24.0961 159.347 24.2521 158.696 24.2521 157.85C24.2521 157.004 24.0961 156.353 23.7841 155.897C23.4781 155.435 23.0491 155.204 22.4971 155.204C21.9511 155.204 21.5191 155.435 21.2011 155.897C20.8951 156.359 20.7421 157.01 20.7421 157.85C20.7421 158.69 20.8951 159.341 21.2011 159.803ZM29.9211 160.226C29.5071 160.814 28.9221 161.108 28.1661 161.108C27.4161 161.108 26.8281 160.814 26.4021 160.226C25.9881 159.632 25.7811 158.84 25.7811 157.85C25.7811 156.854 25.9881 156.065 26.4021 155.483C26.8281 154.889 27.4161 154.592 28.1661 154.592C28.9221 154.592 29.5071 154.889 29.9211 155.483C30.3411 156.065 30.5511 156.854 30.5511 157.85C30.5511 158.846 30.3411 159.638 29.9211 160.226ZM26.8701 159.803C27.1881 160.265 27.6201 160.496 28.1661 160.496C28.7181 160.496 29.1471 160.265 29.4531 159.803C29.7651 159.347 29.9211 158.696 29.9211 157.85C29.9211 157.004 29.7651 156.353 29.4531 155.897C29.1471 155.435 28.7181 155.204 28.1661 155.204C27.6201 155.204 27.1881 155.435 26.8701 155.897C26.5641 156.359 26.4111 157.01 26.4111 157.85C26.4111 158.69 26.5641 159.341 26.8701 159.803Z" fill="#E3E3E3"/>
<path d="M5.79859 137H1.79359V136.433L4.06159 134.147C4.70959 133.499 5.03359 132.944 5.03359 132.482C5.03359 132.092 4.91059 131.783 4.66459 131.555C4.42459 131.321 4.12459 131.204 3.76459 131.204C3.12259 131.204 2.65159 131.501 2.35159 132.095L1.82059 131.78C2.01259 131.396 2.27959 131.102 2.62159 130.898C2.96359 130.694 3.34459 130.592 3.76459 130.592C4.26859 130.592 4.70959 130.763 5.08759 131.105C5.47159 131.435 5.66359 131.894 5.66359 132.482C5.66359 132.83 5.56759 133.172 5.37559 133.508C5.18359 133.838 4.88959 134.201 4.49359 134.597L2.69359 136.388H5.79859V137ZM10.6642 136.226C10.2502 136.814 9.66522 137.108 8.90922 137.108C8.15922 137.108 7.57122 136.814 7.14522 136.226C6.73122 135.632 6.52422 134.84 6.52422 133.85C6.52422 132.854 6.73122 132.065 7.14522 131.483C7.57122 130.889 8.15922 130.592 8.90922 130.592C9.66522 130.592 10.2502 130.889 10.6642 131.483C11.0842 132.065 11.2942 132.854 11.2942 133.85C11.2942 134.846 11.0842 135.638 10.6642 136.226ZM7.61322 135.803C7.93122 136.265 8.36322 136.496 8.90922 136.496C9.46122 136.496 9.89022 136.265 10.1962 135.803C10.5082 135.347 10.6642 134.696 10.6642 133.85C10.6642 133.004 10.5082 132.353 10.1962 131.897C9.89022 131.435 9.46122 131.204 8.90922 131.204C8.36322 131.204 7.93122 131.435 7.61322 131.897C7.30722 132.359 7.15422 133.01 7.15422 133.85C7.15422 134.69 7.30722 135.341 7.61322 135.803ZM18.5832 136.226C18.1692 136.814 17.5842 137.108 16.8282 137.108C16.0782 137.108 15.4902 136.814 15.0642 136.226C14.6502 135.632 14.4432 134.84 14.4432 133.85C14.4432 132.854 14.6502 132.065 15.0642 131.483C15.4902 130.889 16.0782 130.592 16.8282 130.592C17.5842 130.592 18.1692 130.889 18.5832 131.483C19.0032 132.065 19.2132 132.854 19.2132 133.85C19.2132 134.846 19.0032 135.638 18.5832 136.226ZM15.5322 135.803C15.8502 136.265 16.2822 136.496 16.8282 136.496C17.3802 136.496 17.8092 136.265 18.1152 135.803C18.4272 135.347 18.5832 134.696 18.5832 133.85C18.5832 133.004 18.4272 132.353 18.1152 131.897C17.8092 131.435 17.3802 131.204 16.8282 131.204C16.2822 131.204 15.8502 131.435 15.5322 131.897C15.2262 132.359 15.0732 133.01 15.0732 133.85C15.0732 134.69 15.2262 135.341 15.5322 135.803ZM24.2521 136.226C23.8381 136.814 23.2531 137.108 22.4971 137.108C21.7471 137.108 21.1591 136.814 20.7331 136.226C20.3191 135.632 20.1121 134.84 20.1121 133.85C20.1121 132.854 20.3191 132.065 20.7331 131.483C21.1591 130.889 21.7471 130.592 22.4971 130.592C23.2531 130.592 23.8381 130.889 24.2521 131.483C24.6721 132.065 24.8821 132.854 24.8821 133.85C24.8821 134.846 24.6721 135.638 24.2521 136.226ZM21.2011 135.803C21.5191 136.265 21.9511 136.496 22.4971 136.496C23.0491 136.496 23.4781 136.265 23.7841 135.803C24.0961 135.347 24.2521 134.696 24.2521 133.85C24.2521 133.004 24.0961 132.353 23.7841 131.897C23.4781 131.435 23.0491 131.204 22.4971 131.204C21.9511 131.204 21.5191 131.435 21.2011 131.897C20.8951 132.359 20.7421 133.01 20.7421 133.85C20.7421 134.69 20.8951 135.341 21.2011 135.803ZM29.9211 136.226C29.5071 136.814 28.9221 137.108 28.1661 137.108C27.4161 137.108 26.8281 136.814 26.4021 136.226C25.9881 135.632 25.7811 134.84 25.7811 133.85C25.7811 132.854 25.9881 132.065 26.4021 131.483C26.8281 130.889 27.4161 130.592 28.1661 130.592C28.9221 130.592 29.5071 130.889 29.9211 131.483C30.3411 132.065 30.5511 132.854 30.5511 133.85C30.5511 134.846 30.3411 135.638 29.9211 136.226ZM26.8701 135.803C27.1881 136.265 27.6201 136.496 28.1661 136.496C28.7181 136.496 29.1471 136.265 29.4531 135.803C29.7651 135.347 29.9211 134.696 29.9211 133.85C29.9211 133.004 29.7651 132.353 29.4531 131.897C29.1471 131.435 28.7181 131.204 28.1661 131.204C27.6201 131.204 27.1881 131.435 26.8701 131.897C26.5641 132.359 26.4111 133.01 26.4111 133.85C26.4111 134.69 26.5641 135.341 26.8701 135.803Z" fill="#E3E3E3"/>
<path d="M6.56324 109H2.55824V108.433L4.82624 106.147C5.47424 105.499 5.79824 104.944 5.79824 104.482C5.79824 104.092 5.67524 103.783 5.42924 103.555C5.18924 103.321 4.88924 103.204 4.52924 103.204C3.88724 103.204 3.41624 103.501 3.11624 104.095L2.58524 103.78C2.77724 103.396 3.04424 103.102 3.38624 102.898C3.72824 102.694 4.10924 102.592 4.52924 102.592C5.03324 102.592 5.47424 102.763 5.85224 103.105C6.23624 103.435 6.42824 103.894 6.42824 104.482C6.42824 104.83 6.33224 105.172 6.14024 105.508C5.94824 105.838 5.65424 106.201 5.25824 106.597L3.45824 108.388H6.56324V109ZM8.20581 105.238H9.26781C9.86181 105.238 10.3598 105.412 10.7618 105.76C11.1758 106.102 11.3828 106.573 11.3828 107.173C11.3828 107.767 11.1758 108.241 10.7618 108.595C10.3598 108.937 9.86181 109.108 9.26781 109.108C8.78181 109.108 8.35281 108.991 7.98081 108.757C7.61481 108.517 7.36881 108.187 7.24281 107.767L7.77381 107.461C7.86381 107.791 8.04081 108.046 8.30481 108.226C8.56881 108.406 8.88981 108.496 9.26781 108.496C9.71181 108.496 10.0688 108.379 10.3388 108.145C10.6148 107.905 10.7528 107.581 10.7528 107.173C10.7528 106.765 10.6148 106.444 10.3388 106.21C10.0688 105.97 9.71181 105.85 9.26781 105.85H7.55781L7.78281 102.7H11.1578V103.294H8.34081L8.20581 105.238ZM18.5832 108.226C18.1692 108.814 17.5842 109.108 16.8282 109.108C16.0782 109.108 15.4902 108.814 15.0642 108.226C14.6502 107.632 14.4432 106.84 14.4432 105.85C14.4432 104.854 14.6502 104.065 15.0642 103.483C15.4902 102.889 16.0782 102.592 16.8282 102.592C17.5842 102.592 18.1692 102.889 18.5832 103.483C19.0032 104.065 19.2132 104.854 19.2132 105.85C19.2132 106.846 19.0032 107.638 18.5832 108.226ZM15.5322 107.803C15.8502 108.265 16.2822 108.496 16.8282 108.496C17.3802 108.496 17.8092 108.265 18.1152 107.803C18.4272 107.347 18.5832 106.696 18.5832 105.85C18.5832 105.004 18.4272 104.353 18.1152 103.897C17.8092 103.435 17.3802 103.204 16.8282 103.204C16.2822 103.204 15.8502 103.435 15.5322 103.897C15.2262 104.359 15.0732 105.01 15.0732 105.85C15.0732 106.69 15.2262 107.341 15.5322 107.803ZM24.2521 108.226C23.8381 108.814 23.2531 109.108 22.4971 109.108C21.7471 109.108 21.1591 108.814 20.7331 108.226C20.3191 107.632 20.1121 106.84 20.1121 105.85C20.1121 104.854 20.3191 104.065 20.7331 103.483C21.1591 102.889 21.7471 102.592 22.4971 102.592C23.2531 102.592 23.8381 102.889 24.2521 103.483C24.6721 104.065 24.8821 104.854 24.8821 105.85C24.8821 106.846 24.6721 107.638 24.2521 108.226ZM21.2011 107.803C21.5191 108.265 21.9511 108.496 22.4971 108.496C23.0491 108.496 23.4781 108.265 23.7841 107.803C24.0961 107.347 24.2521 106.696 24.2521 105.85C24.2521 105.004 24.0961 104.353 23.7841 103.897C23.4781 103.435 23.0491 103.204 22.4971 103.204C21.9511 103.204 21.5191 103.435 21.2011 103.897C20.8951 104.359 20.7421 105.01 20.7421 105.85C20.7421 106.69 20.8951 107.341 21.2011 107.803ZM29.9211 108.226C29.5071 108.814 28.9221 109.108 28.1661 109.108C27.4161 109.108 26.8281 108.814 26.4021 108.226C25.9881 107.632 25.7811 106.84 25.7811 105.85C25.7811 104.854 25.9881 104.065 26.4021 103.483C26.8281 102.889 27.4161 102.592 28.1661 102.592C28.9221 102.592 29.5071 102.889 29.9211 103.483C30.3411 104.065 30.5511 104.854 30.5511 105.85C30.5511 106.846 30.3411 107.638 29.9211 108.226ZM26.8701 107.803C27.1881 108.265 27.6201 108.496 28.1661 108.496C28.7181 108.496 29.1471 108.265 29.4531 107.803C29.7651 107.347 29.9211 106.696 29.9211 105.85C29.9211 105.004 29.7651 104.353 29.4531 103.897C29.1471 103.435 28.7181 103.204 28.1661 103.204C27.6201 103.204 27.1881 103.435 26.8701 103.897C26.5641 104.359 26.4111 105.01 26.4111 105.85C26.4111 106.69 26.5641 107.341 26.8701 107.803Z" fill="#E3E3E3"/>
<path d="M5.44176 77.294L3.97476 79.319C4.47276 79.379 4.88676 79.574 5.21676 79.904C5.54676 80.216 5.71176 80.639 5.71176 81.173C5.71176 81.767 5.50476 82.241 5.09076 82.595C4.68876 82.937 4.19076 83.108 3.59676 83.108C3.12276 83.108 2.70276 83 2.33676 82.784C1.97076 82.562 1.71576 82.253 1.57176 81.857L2.09376 81.551C2.19576 81.857 2.37576 82.091 2.63376 82.253C2.89776 82.415 3.21876 82.496 3.59676 82.496C4.04076 82.496 4.39776 82.379 4.66776 82.145C4.94376 81.905 5.08176 81.581 5.08176 81.173C5.08176 80.765 4.94376 80.444 4.66776 80.21C4.39776 79.97 4.04076 79.85 3.59676 79.85V79.841L3.58776 79.85H3.41676L3.14676 79.436L4.71276 77.294H1.75176V76.7H5.44176V77.294ZM10.6642 82.226C10.2502 82.814 9.66522 83.108 8.90922 83.108C8.15922 83.108 7.57122 82.814 7.14522 82.226C6.73122 81.632 6.52422 80.84 6.52422 79.85C6.52422 78.854 6.73122 78.065 7.14522 77.483C7.57122 76.889 8.15922 76.592 8.90922 76.592C9.66522 76.592 10.2502 76.889 10.6642 77.483C11.0842 78.065 11.2942 78.854 11.2942 79.85C11.2942 80.846 11.0842 81.638 10.6642 82.226ZM7.61322 81.803C7.93122 82.265 8.36322 82.496 8.90922 82.496C9.46122 82.496 9.89022 82.265 10.1962 81.803C10.5082 81.347 10.6642 80.696 10.6642 79.85C10.6642 79.004 10.5082 78.353 10.1962 77.897C9.89022 77.435 9.46122 77.204 8.90922 77.204C8.36322 77.204 7.93122 77.435 7.61322 77.897C7.30722 78.359 7.15422 79.01 7.15422 79.85C7.15422 80.69 7.30722 81.341 7.61322 81.803ZM18.5832 82.226C18.1692 82.814 17.5842 83.108 16.8282 83.108C16.0782 83.108 15.4902 82.814 15.0642 82.226C14.6502 81.632 14.4432 80.84 14.4432 79.85C14.4432 78.854 14.6502 78.065 15.0642 77.483C15.4902 76.889 16.0782 76.592 16.8282 76.592C17.5842 76.592 18.1692 76.889 18.5832 77.483C19.0032 78.065 19.2132 78.854 19.2132 79.85C19.2132 80.846 19.0032 81.638 18.5832 82.226ZM15.5322 81.803C15.8502 82.265 16.2822 82.496 16.8282 82.496C17.3802 82.496 17.8092 82.265 18.1152 81.803C18.4272 81.347 18.5832 80.696 18.5832 79.85C18.5832 79.004 18.4272 78.353 18.1152 77.897C17.8092 77.435 17.3802 77.204 16.8282 77.204C16.2822 77.204 15.8502 77.435 15.5322 77.897C15.2262 78.359 15.0732 79.01 15.0732 79.85C15.0732 80.69 15.2262 81.341 15.5322 81.803ZM24.2521 82.226C23.8381 82.814 23.2531 83.108 22.4971 83.108C21.7471 83.108 21.1591 82.814 20.7331 82.226C20.3191 81.632 20.1121 80.84 20.1121 79.85C20.1121 78.854 20.3191 78.065 20.7331 77.483C21.1591 76.889 21.7471 76.592 22.4971 76.592C23.2531 76.592 23.8381 76.889 24.2521 77.483C24.6721 78.065 24.8821 78.854 24.8821 79.85C24.8821 80.846 24.6721 81.638 24.2521 82.226ZM21.2011 81.803C21.5191 82.265 21.9511 82.496 22.4971 82.496C23.0491 82.496 23.4781 82.265 23.7841 81.803C24.0961 81.347 24.2521 80.696 24.2521 79.85C24.2521 79.004 24.0961 78.353 23.7841 77.897C23.4781 77.435 23.0491 77.204 22.4971 77.204C21.9511 77.204 21.5191 77.435 21.2011 77.897C20.8951 78.359 20.7421 79.01 20.7421 79.85C20.7421 80.69 20.8951 81.341 21.2011 81.803ZM29.9211 82.226C29.5071 82.814 28.9221 83.108 28.1661 83.108C27.4161 83.108 26.8281 82.814 26.4021 82.226C25.9881 81.632 25.7811 80.84 25.7811 79.85C25.7811 78.854 25.9881 78.065 26.4021 77.483C26.8281 76.889 27.4161 76.592 28.1661 76.592C28.9221 76.592 29.5071 76.889 29.9211 77.483C30.3411 78.065 30.5511 78.854 30.5511 79.85C30.5511 80.846 30.3411 81.638 29.9211 82.226ZM26.8701 81.803C27.1881 82.265 27.6201 82.496 28.1661 82.496C28.7181 82.496 29.1471 82.265 29.4531 81.803C29.7651 81.347 29.9211 80.696 29.9211 79.85C29.9211 79.004 29.7651 78.353 29.4531 77.897C29.1471 77.435 28.7181 77.204 28.1661 77.204C27.6201 77.204 27.1881 77.435 26.8701 77.897C26.5641 78.359 26.4111 79.01 26.4111 79.85C26.4111 80.69 26.5641 81.341 26.8701 81.803Z" fill="#E3E3E3"/>
<path d="M6.33824 53.294L4.87124 55.319C5.36924 55.379 5.78324 55.574 6.11324 55.904C6.44324 56.216 6.60824 56.639 6.60824 57.173C6.60824 57.767 6.40124 58.241 5.98724 58.595C5.58524 58.937 5.08724 59.108 4.49324 59.108C4.01924 59.108 3.59924 59 3.23324 58.784C2.86724 58.562 2.61224 58.253 2.46824 57.857L2.99024 57.551C3.09224 57.857 3.27224 58.091 3.53024 58.253C3.79424 58.415 4.11524 58.496 4.49324 58.496C4.93724 58.496 5.29424 58.379 5.56424 58.145C5.84024 57.905 5.97824 57.581 5.97824 57.173C5.97824 56.765 5.84024 56.444 5.56424 56.21C5.29424 55.97 4.93724 55.85 4.49324 55.85V55.841L4.48424 55.85H4.31324L4.04324 55.436L5.60924 53.294H2.64824V52.7H6.33824V53.294ZM8.20581 55.238H9.26781C9.86181 55.238 10.3598 55.412 10.7618 55.76C11.1758 56.102 11.3828 56.573 11.3828 57.173C11.3828 57.767 11.1758 58.241 10.7618 58.595C10.3598 58.937 9.86181 59.108 9.26781 59.108C8.78181 59.108 8.35281 58.991 7.98081 58.757C7.61481 58.517 7.36881 58.187 7.24281 57.767L7.77381 57.461C7.86381 57.791 8.04081 58.046 8.30481 58.226C8.56881 58.406 8.88981 58.496 9.26781 58.496C9.71181 58.496 10.0688 58.379 10.3388 58.145C10.6148 57.905 10.7528 57.581 10.7528 57.173C10.7528 56.765 10.6148 56.444 10.3388 56.21C10.0688 55.97 9.71181 55.85 9.26781 55.85H7.55781L7.78281 52.7H11.1578V53.294H8.34081L8.20581 55.238ZM18.5832 58.226C18.1692 58.814 17.5842 59.108 16.8282 59.108C16.0782 59.108 15.4902 58.814 15.0642 58.226C14.6502 57.632 14.4432 56.84 14.4432 55.85C14.4432 54.854 14.6502 54.065 15.0642 53.483C15.4902 52.889 16.0782 52.592 16.8282 52.592C17.5842 52.592 18.1692 52.889 18.5832 53.483C19.0032 54.065 19.2132 54.854 19.2132 55.85C19.2132 56.846 19.0032 57.638 18.5832 58.226ZM15.5322 57.803C15.8502 58.265 16.2822 58.496 16.8282 58.496C17.3802 58.496 17.8092 58.265 18.1152 57.803C18.4272 57.347 18.5832 56.696 18.5832 55.85C18.5832 55.004 18.4272 54.353 18.1152 53.897C17.8092 53.435 17.3802 53.204 16.8282 53.204C16.2822 53.204 15.8502 53.435 15.5322 53.897C15.2262 54.359 15.0732 55.01 15.0732 55.85C15.0732 56.69 15.2262 57.341 15.5322 57.803ZM24.2521 58.226C23.8381 58.814 23.2531 59.108 22.4971 59.108C21.7471 59.108 21.1591 58.814 20.7331 58.226C20.3191 57.632 20.1121 56.84 20.1121 55.85C20.1121 54.854 20.3191 54.065 20.7331 53.483C21.1591 52.889 21.7471 52.592 22.4971 52.592C23.2531 52.592 23.8381 52.889 24.2521 53.483C24.6721 54.065 24.8821 54.854 24.8821 55.85C24.8821 56.846 24.6721 57.638 24.2521 58.226ZM21.2011 57.803C21.5191 58.265 21.9511 58.496 22.4971 58.496C23.0491 58.496 23.4781 58.265 23.7841 57.803C24.0961 57.347 24.2521 56.696 24.2521 55.85C24.2521 55.004 24.0961 54.353 23.7841 53.897C23.4781 53.435 23.0491 53.204 22.4971 53.204C21.9511 53.204 21.5191 53.435 21.2011 53.897C20.8951 54.359 20.7421 55.01 20.7421 55.85C20.7421 56.69 20.8951 57.341 21.2011 57.803ZM29.9211 58.226C29.5071 58.814 28.9221 59.108 28.1661 59.108C27.4161 59.108 26.8281 58.814 26.4021 58.226C25.9881 57.632 25.7811 56.84 25.7811 55.85C25.7811 54.854 25.9881 54.065 26.4021 53.483C26.8281 52.889 27.4161 52.592 28.1661 52.592C28.9221 52.592 29.5071 52.889 29.9211 53.483C30.3411 54.065 30.5511 54.854 30.5511 55.85C30.5511 56.846 30.3411 57.638 29.9211 58.226ZM26.8701 57.803C27.1881 58.265 27.6201 58.496 28.1661 58.496C28.7181 58.496 29.1471 58.265 29.4531 57.803C29.7651 57.347 29.9211 56.696 29.9211 55.85C29.9211 55.004 29.7651 54.353 29.4531 53.897C29.1471 53.435 28.7181 53.204 28.1661 53.204C27.6201 53.204 27.1881 53.435 26.8701 53.897C26.5641 54.359 26.4111 55.01 26.4111 55.85C26.4111 56.69 26.5641 57.341 26.8701 57.803Z" fill="#E3E3E3"/>
<path d="M5.03852 31.146H5.84852V31.74H5.03852V33H4.40852V31.74H1.07852V31.146L3.41852 26.7H4.11152L1.77152 31.146H4.40852V29.22H5.03852V31.146ZM10.6642 32.226C10.2502 32.814 9.66522 33.108 8.90922 33.108C8.15922 33.108 7.57122 32.814 7.14522 32.226C6.73122 31.632 6.52422 30.84 6.52422 29.85C6.52422 28.854 6.73122 28.065 7.14522 27.483C7.57122 26.889 8.15922 26.592 8.90922 26.592C9.66522 26.592 10.2502 26.889 10.6642 27.483C11.0842 28.065 11.2942 28.854 11.2942 29.85C11.2942 30.846 11.0842 31.638 10.6642 32.226ZM7.61322 31.803C7.93122 32.265 8.36322 32.496 8.90922 32.496C9.46122 32.496 9.89022 32.265 10.1962 31.803C10.5082 31.347 10.6642 30.696 10.6642 29.85C10.6642 29.004 10.5082 28.353 10.1962 27.897C9.89022 27.435 9.46122 27.204 8.90922 27.204C8.36322 27.204 7.93122 27.435 7.61322 27.897C7.30722 28.359 7.15422 29.01 7.15422 29.85C7.15422 30.69 7.30722 31.341 7.61322 31.803ZM18.5832 32.226C18.1692 32.814 17.5842 33.108 16.8282 33.108C16.0782 33.108 15.4902 32.814 15.0642 32.226C14.6502 31.632 14.4432 30.84 14.4432 29.85C14.4432 28.854 14.6502 28.065 15.0642 27.483C15.4902 26.889 16.0782 26.592 16.8282 26.592C17.5842 26.592 18.1692 26.889 18.5832 27.483C19.0032 28.065 19.2132 28.854 19.2132 29.85C19.2132 30.846 19.0032 31.638 18.5832 32.226ZM15.5322 31.803C15.8502 32.265 16.2822 32.496 16.8282 32.496C17.3802 32.496 17.8092 32.265 18.1152 31.803C18.4272 31.347 18.5832 30.696 18.5832 29.85C18.5832 29.004 18.4272 28.353 18.1152 27.897C17.8092 27.435 17.3802 27.204 16.8282 27.204C16.2822 27.204 15.8502 27.435 15.5322 27.897C15.2262 28.359 15.0732 29.01 15.0732 29.85C15.0732 30.69 15.2262 31.341 15.5322 31.803ZM24.2521 32.226C23.8381 32.814 23.2531 33.108 22.4971 33.108C21.7471 33.108 21.1591 32.814 20.7331 32.226C20.3191 31.632 20.1121 30.84 20.1121 29.85C20.1121 28.854 20.3191 28.065 20.7331 27.483C21.1591 26.889 21.7471 26.592 22.4971 26.592C23.2531 26.592 23.8381 26.889 24.2521 27.483C24.6721 28.065 24.8821 28.854 24.8821 29.85C24.8821 30.846 24.6721 31.638 24.2521 32.226ZM21.2011 31.803C21.5191 32.265 21.9511 32.496 22.4971 32.496C23.0491 32.496 23.4781 32.265 23.7841 31.803C24.0961 31.347 24.2521 30.696 24.2521 29.85C24.2521 29.004 24.0961 28.353 23.7841 27.897C23.4781 27.435 23.0491 27.204 22.4971 27.204C21.9511 27.204 21.5191 27.435 21.2011 27.897C20.8951 28.359 20.7421 29.01 20.7421 29.85C20.7421 30.69 20.8951 31.341 21.2011 31.803ZM29.9211 32.226C29.5071 32.814 28.9221 33.108 28.1661 33.108C27.4161 33.108 26.8281 32.814 26.4021 32.226C25.9881 31.632 25.7811 30.84 25.7811 29.85C25.7811 28.854 25.9881 28.065 26.4021 27.483C26.8281 26.889 27.4161 26.592 28.1661 26.592C28.9221 26.592 29.5071 26.889 29.9211 27.483C30.3411 28.065 30.5511 28.854 30.5511 29.85C30.5511 30.846 30.3411 31.638 29.9211 32.226ZM26.8701 31.803C27.1881 32.265 27.6201 32.496 28.1661 32.496C28.7181 32.496 29.1471 32.265 29.4531 31.803C29.7651 31.347 29.9211 30.696 29.9211 29.85C29.9211 29.004 29.7651 28.353 29.4531 27.897C29.1471 27.435 28.7181 27.204 28.1661 27.204C27.6201 27.204 27.1881 27.435 26.8701 27.897C26.5641 28.359 26.4111 29.01 26.4111 29.85C26.4111 30.69 26.5641 31.341 26.8701 31.803Z" fill="#E3E3E3"/>
<path d="M5.76864 3.733C6.08064 3.865 6.32664 4.066 6.50664 4.336C6.68664 4.606 6.77664 4.909 6.77664 5.245C6.77664 5.731 6.60564 6.145 6.26364 6.487C5.92164 6.829 5.50764 7 5.02164 7H2.27664V0.7H4.81464C5.27664 0.7 5.67564 0.868 6.01164 1.204C6.34164 1.534 6.50664 1.93 6.50664 2.392C6.50664 2.98 6.26064 3.427 5.76864 3.733ZM4.81464 1.294H2.90664V3.49H4.81464C5.10264 3.49 5.35164 3.385 5.56164 3.175C5.77164 2.953 5.87664 2.692 5.87664 2.392C5.87664 2.098 5.77164 1.84 5.56164 1.618C5.35164 1.402 5.10264 1.294 4.81464 1.294ZM2.90664 6.406H5.02164C5.33364 6.406 5.59764 6.295 5.81364 6.073C6.03564 5.851 6.14664 5.575 6.14664 5.245C6.14664 4.921 6.03564 4.648 5.81364 4.426C5.59764 4.198 5.33364 4.084 5.02164 4.084H2.90664V6.406ZM8.3617 5.965L11.0437 2.5H11.5477V7H10.9537V3.535L8.2717 7H7.7677V2.5H8.3617V5.965ZM15.1258 4.687C15.6478 4.885 15.9088 5.245 15.9088 5.767C15.9088 6.145 15.7618 6.463 15.4678 6.721C15.1858 6.979 14.7718 7.108 14.2258 7.108C13.3138 7.108 12.7198 6.748 12.4438 6.028L12.9478 5.731C13.1398 6.265 13.5658 6.532 14.2258 6.532C14.5678 6.532 14.8348 6.46 15.0268 6.316C15.2188 6.166 15.3148 5.971 15.3148 5.731C15.3148 5.515 15.2368 5.344 15.0808 5.218C14.9248 5.086 14.7148 5.02 14.4508 5.02H13.7938V4.444H14.2708C14.5288 4.444 14.7298 4.381 14.8738 4.255C15.0238 4.123 15.0988 3.943 15.0988 3.715C15.0988 3.499 15.0088 3.322 14.8288 3.184C14.6548 3.04 14.4238 2.968 14.1358 2.968C13.5778 2.968 13.2028 3.193 13.0108 3.643L12.5158 3.355C12.8158 2.713 13.3558 2.392 14.1358 2.392C14.6158 2.392 14.9938 2.518 15.2698 2.77C15.5518 3.016 15.6928 3.319 15.6928 3.679C15.6928 4.141 15.5038 4.477 15.1258 4.687ZM17.4056 5.965L20.0876 2.5H20.5916V7H19.9976V3.535L17.3156 7H16.8116V2.5H17.4056V5.965ZM21.3078 2.5H25.0878V3.076H23.4948V7H22.9008V3.076H21.3078V2.5ZM26.4056 4.21H27.6386C28.0526 4.21 28.4066 4.342 28.7006 4.606C28.9946 4.864 29.1416 5.197 29.1416 5.605C29.1416 6.019 28.9946 6.355 28.7006 6.613C28.4186 6.871 28.0646 7 27.6386 7H25.8116V2.5H26.4056V4.21ZM29.7716 7V2.5H30.3656V7H29.7716ZM26.4056 6.424H27.6386C27.8966 6.424 28.1126 6.349 28.2866 6.199C28.4606 6.043 28.5476 5.845 28.5476 5.605C28.5476 5.365 28.4606 5.17 28.2866 5.02C28.1126 4.864 27.8966 4.786 27.6386 4.786H26.4056V6.424Z" fill="#E3E3E3"/>
<path d="M42.931 229.163C42.301 229.793 41.53 230.108 40.618 230.108C39.706 230.108 38.935 229.793 38.305 229.163C37.675 228.521 37.36 227.75 37.36 226.85C37.36 225.944 37.675 225.176 38.305 224.546C38.935 223.91 39.706 223.592 40.618 223.592C41.53 223.592 42.301 223.91 42.931 224.546C43.561 225.176 43.876 225.944 43.876 226.85C43.876 227.75 43.561 228.521 42.931 229.163ZM37.99 226.85C37.99 227.594 38.242 228.221 38.746 228.731C39.25 229.241 39.874 229.496 40.618 229.496C41.362 229.496 41.986 229.241 42.49 228.731C42.994 228.221 43.246 227.594 43.246 226.85C43.246 226.112 42.994 225.488 42.49 224.978C41.986 224.462 41.362 224.204 40.618 224.204C39.874 224.204 39.25 224.462 38.746 224.978C38.242 225.488 37.99 226.112 37.99 226.85ZM46.0874 227.66L48.4994 230H47.7074L45.4574 227.831V230H44.8634V225.5H45.4574V227.489L47.5994 225.5H48.4094L46.0874 227.66ZM48.7707 225.5H52.5507V226.076H50.9577V230H50.3637V226.076H48.7707V225.5ZM55.0295 224.276L56.6945 223.7H57.2345V230H56.6045V224.393L55.1915 224.816L55.0295 224.276ZM61.4811 226.751C61.8051 226.901 62.0601 227.111 62.2461 227.381C62.4321 227.651 62.5251 227.954 62.5251 228.29C62.5251 228.86 62.3241 229.307 61.9221 229.631C61.5141 229.949 61.0131 230.108 60.4191 230.108C59.8251 230.108 59.3241 229.949 58.9161 229.631C58.5141 229.307 58.3131 228.86 58.3131 228.29C58.3131 227.954 58.4061 227.651 58.5921 227.381C58.7781 227.111 59.0331 226.901 59.3571 226.751C58.7991 226.433 58.5201 225.962 58.5201 225.338C58.5201 224.774 58.7061 224.342 59.0781 224.042C59.4621 223.742 59.9091 223.592 60.4191 223.592C60.9351 223.592 61.3791 223.742 61.7511 224.042C62.1291 224.342 62.3181 224.774 62.3181 225.338C62.3181 225.962 62.0391 226.433 61.4811 226.751ZM59.1501 225.338C59.1501 225.686 59.2701 225.962 59.5101 226.166C59.7561 226.37 60.0591 226.472 60.4191 226.472C60.7791 226.472 61.0791 226.37 61.3191 226.166C61.5651 225.962 61.6881 225.686 61.6881 225.338C61.6881 224.972 61.5711 224.693 61.3371 224.501C61.1031 224.303 60.7971 224.204 60.4191 224.204C60.0411 224.204 59.7351 224.303 59.5011 224.501C59.2671 224.693 59.1501 224.972 59.1501 225.338ZM59.3481 229.19C59.6121 229.394 59.9691 229.496 60.4191 229.496C60.8691 229.496 61.2261 229.394 61.4901 229.19C61.7601 228.98 61.8951 228.68 61.8951 228.29C61.8951 227.906 61.7601 227.609 61.4901 227.399C61.2141 227.189 60.8571 227.084 60.4191 227.084C59.9811 227.084 59.6241 227.189 59.3481 227.399C59.0781 227.609 58.9431 227.906 58.9431 228.29C58.9431 228.686 59.0781 228.986 59.3481 229.19Z" fill="#E3E3E3"/>
<path d="M93.697 223.7H94.48V230H93.85V224.654L91.645 228.344H91.555L89.35 224.654V230H88.72V223.7H89.503L91.6 227.21L93.697 223.7ZM99.6982 226.382V225.5H100.292V230H99.6982V229.118C99.2842 229.778 98.6782 230.108 97.8802 230.108C97.2382 230.108 96.6892 229.88 96.2332 229.424C95.7832 228.968 95.5582 228.41 95.5582 227.75C95.5582 227.09 95.7832 226.532 96.2332 226.076C96.6892 225.62 97.2382 225.392 97.8802 225.392C98.6782 225.392 99.2842 225.722 99.6982 226.382ZM96.6652 229.019C97.0072 229.361 97.4272 229.532 97.9252 229.532C98.4232 229.532 98.8432 229.361 99.1852 229.019C99.5272 228.665 99.6982 228.242 99.6982 227.75C99.6982 227.252 99.5272 226.832 99.1852 226.49C98.8432 226.142 98.4232 225.968 97.9252 225.968C97.4272 225.968 97.0072 226.142 96.6652 226.49C96.3232 226.832 96.1522 227.252 96.1522 227.75C96.1522 228.242 96.3232 228.665 96.6652 229.019ZM103.962 225.392C104.604 225.392 105.15 225.62 105.6 226.076C106.056 226.532 106.284 227.09 106.284 227.75C106.284 228.41 106.056 228.968 105.6 229.424C105.15 229.88 104.604 230.108 103.962 230.108C103.164 230.108 102.558 229.778 102.144 229.118V231.8H101.55V225.5H102.144V226.382C102.558 225.722 103.164 225.392 103.962 225.392ZM102.657 229.019C102.999 229.361 103.419 229.532 103.917 229.532C104.415 229.532 104.835 229.361 105.177 229.019C105.519 228.665 105.69 228.242 105.69 227.75C105.69 227.252 105.519 226.832 105.177 226.49C104.835 226.142 104.415 225.968 103.917 225.968C103.419 225.968 102.999 226.142 102.657 226.49C102.315 226.832 102.144 227.252 102.144 227.75C102.144 228.242 102.315 228.665 102.657 229.019ZM106.556 225.5H110.336V226.076H108.743V230H108.149V226.076H106.556V225.5ZM112.815 224.276L114.48 223.7H115.02V230H114.39V224.393L112.977 224.816L112.815 224.276ZM120.238 225.671C120.238 226.145 120.109 226.565 119.851 226.931L117.79 230H117.079L118.627 227.696C118.465 227.732 118.297 227.75 118.123 227.75C117.499 227.75 116.992 227.558 116.602 227.174C116.206 226.79 116.008 226.289 116.008 225.671C116.008 225.065 116.206 224.567 116.602 224.177C117.004 223.787 117.511 223.592 118.123 223.592C118.735 223.592 119.242 223.787 119.644 224.177C120.04 224.567 120.238 225.065 120.238 225.671ZM117.043 224.609C116.773 224.879 116.638 225.233 116.638 225.671C116.638 226.109 116.773 226.463 117.043 226.733C117.325 227.003 117.685 227.138 118.123 227.138C118.567 227.138 118.924 227.003 119.194 226.733C119.47 226.463 119.608 226.109 119.608 225.671C119.608 225.233 119.47 224.879 119.194 224.609C118.924 224.339 118.567 224.204 118.123 224.204C117.685 224.204 117.325 224.339 117.043 224.609Z" fill="#E3E3E3"/>
<path d="M144.58 230H143.914L143.329 228.452H140.341L139.756 230H139.09L141.511 223.7H142.159L144.58 230ZM141.835 224.483L140.566 227.858H143.104L141.835 224.483ZM148.161 227.687C148.653 227.867 148.899 228.218 148.899 228.74C148.899 229.112 148.773 229.415 148.521 229.649C148.275 229.883 147.93 230 147.486 230H145.299V225.5H147.306C147.738 225.5 148.074 225.611 148.314 225.833C148.56 226.055 148.683 226.346 148.683 226.706C148.683 227.156 148.509 227.483 148.161 227.687ZM147.306 226.076H145.893V227.444H147.306C147.828 227.444 148.089 227.21 148.089 226.742C148.089 226.532 148.02 226.37 147.882 226.256C147.75 226.136 147.558 226.076 147.306 226.076ZM145.893 229.424H147.486C147.75 229.424 147.951 229.361 148.089 229.235C148.233 229.109 148.305 228.932 148.305 228.704C148.305 228.488 148.233 228.32 148.089 228.2C147.951 228.08 147.75 228.02 147.486 228.02H145.893V229.424ZM149.799 225.5H152.679V226.076H150.393V230H149.799V225.5ZM155.157 224.276L156.822 223.7H157.362V230H156.732V224.393L155.319 224.816L155.157 224.276ZM162.581 225.671C162.581 226.145 162.452 226.565 162.194 226.931L160.133 230H159.422L160.97 227.696C160.808 227.732 160.64 227.75 160.466 227.75C159.842 227.75 159.335 227.558 158.945 227.174C158.549 226.79 158.351 226.289 158.351 225.671C158.351 225.065 158.549 224.567 158.945 224.177C159.347 223.787 159.854 223.592 160.466 223.592C161.078 223.592 161.585 223.787 161.987 224.177C162.383 224.567 162.581 225.065 162.581 225.671ZM159.386 224.609C159.116 224.879 158.981 225.233 158.981 225.671C158.981 226.109 159.116 226.463 159.386 226.733C159.668 227.003 160.028 227.138 160.466 227.138C160.91 227.138 161.267 227.003 161.537 226.733C161.813 226.463 161.951 226.109 161.951 225.671C161.951 225.233 161.813 224.879 161.537 224.609C161.267 224.339 160.91 224.204 160.466 224.204C160.028 224.204 159.668 224.339 159.386 224.609Z" fill="#E3E3E3"/>
<path d="M192.34 223.7H194.86V230H194.23V227.48H192.718L190.99 230H190.27L192.025 227.453C191.563 227.369 191.188 227.156 190.9 226.814C190.6 226.46 190.45 226.052 190.45 225.59C190.45 225.068 190.633 224.624 190.999 224.258C191.371 223.886 191.818 223.7 192.34 223.7ZM192.34 226.886H194.23V224.294H192.34C191.992 224.294 191.695 224.42 191.449 224.672C191.203 224.93 191.08 225.236 191.08 225.59C191.08 225.938 191.203 226.244 191.449 226.508C191.695 226.76 191.992 226.886 192.34 226.886ZM199.397 227.462V225.5H199.991V230H199.397V228.038H196.805V230H196.211V225.5H196.805V227.462H199.397ZM204.109 227.687C204.601 227.867 204.847 228.218 204.847 228.74C204.847 229.112 204.721 229.415 204.469 229.649C204.223 229.883 203.878 230 203.434 230H201.247V225.5H203.254C203.686 225.5 204.022 225.611 204.262 225.833C204.508 226.055 204.631 226.346 204.631 226.706C204.631 227.156 204.457 227.483 204.109 227.687ZM203.254 226.076H201.841V227.444H203.254C203.776 227.444 204.037 227.21 204.037 226.742C204.037 226.532 203.968 226.37 203.83 226.256C203.698 226.136 203.506 226.076 203.254 226.076ZM201.841 229.424H203.434C203.698 229.424 203.899 229.361 204.037 229.235C204.181 229.109 204.253 228.932 204.253 228.704C204.253 228.488 204.181 228.32 204.037 228.2C203.899 228.08 203.698 228.02 203.434 228.02H201.841V229.424ZM211.732 230H207.727V229.433L209.995 227.147C210.643 226.499 210.967 225.944 210.967 225.482C210.967 225.092 210.844 224.783 210.598 224.555C210.358 224.321 210.058 224.204 209.698 224.204C209.056 224.204 208.585 224.501 208.285 225.095L207.754 224.78C207.946 224.396 208.213 224.102 208.555 223.898C208.897 223.694 209.278 223.592 209.698 223.592C210.202 223.592 210.643 223.763 211.021 224.105C211.405 224.435 211.597 224.894 211.597 225.482C211.597 225.83 211.501 226.172 211.309 226.508C211.117 226.838 210.823 227.201 210.427 227.597L208.627 229.388H211.732V230ZM216.598 229.226C216.184 229.814 215.599 230.108 214.843 230.108C214.093 230.108 213.505 229.814 213.079 229.226C212.665 228.632 212.458 227.84 212.458 226.85C212.458 225.854 212.665 225.065 213.079 224.483C213.505 223.889 214.093 223.592 214.843 223.592C215.599 223.592 216.184 223.889 216.598 224.483C217.018 225.065 217.228 225.854 217.228 226.85C217.228 227.846 217.018 228.638 216.598 229.226ZM213.547 228.803C213.865 229.265 214.297 229.496 214.843 229.496C215.395 229.496 215.824 229.265 216.13 228.803C216.442 228.347 216.598 227.696 216.598 226.85C216.598 226.004 216.442 225.353 216.13 224.897C215.824 224.435 215.395 224.204 214.843 224.204C214.297 224.204 213.865 224.435 213.547 224.897C213.241 225.359 213.088 226.01 213.088 226.85C213.088 227.69 213.241 228.341 213.547 228.803Z" fill="#E3E3E3"/>
<path d="M246.4 230H245.77V224.87L242.26 230H241.72V223.7H242.35V228.83L245.86 223.7H246.4V230ZM251.59 225.392C252.25 225.392 252.808 225.62 253.264 226.076C253.726 226.526 253.957 227.084 253.957 227.75C253.957 228.41 253.726 228.971 253.264 229.433C252.802 229.883 252.244 230.108 251.59 230.108C250.99 230.108 250.468 229.913 250.024 229.523C249.586 229.121 249.337 228.626 249.277 228.038H248.341V230H247.747V225.5H248.341V227.462H249.277C249.343 226.868 249.592 226.376 250.024 225.986C250.462 225.59 250.984 225.392 251.59 225.392ZM250.33 229.019C250.672 229.361 251.092 229.532 251.59 229.532C252.088 229.532 252.508 229.361 252.85 229.019C253.192 228.665 253.363 228.242 253.363 227.75C253.363 227.252 253.192 226.832 252.85 226.49C252.508 226.142 252.088 225.968 251.59 225.968C251.092 225.968 250.672 226.142 250.33 226.49C249.988 226.832 249.817 227.252 249.817 227.75C249.817 228.242 249.988 228.665 250.33 229.019ZM258.131 227.462V225.5H258.725V230H258.131V228.038H255.539V230H254.945V225.5H255.539V227.462H258.131ZM265.967 230H261.962V229.433L264.23 227.147C264.878 226.499 265.202 225.944 265.202 225.482C265.202 225.092 265.079 224.783 264.833 224.555C264.593 224.321 264.293 224.204 263.933 224.204C263.291 224.204 262.82 224.501 262.52 225.095L261.989 224.78C262.181 224.396 262.448 224.102 262.79 223.898C263.132 223.694 263.513 223.592 263.933 223.592C264.437 223.592 264.878 223.763 265.256 224.105C265.64 224.435 265.832 224.894 265.832 225.482C265.832 225.83 265.736 226.172 265.544 226.508C265.352 226.838 265.058 227.201 264.662 227.597L262.862 229.388H265.967V230ZM270.832 229.226C270.418 229.814 269.833 230.108 269.077 230.108C268.327 230.108 267.739 229.814 267.313 229.226C266.899 228.632 266.692 227.84 266.692 226.85C266.692 225.854 266.899 225.065 267.313 224.483C267.739 223.889 268.327 223.592 269.077 223.592C269.833 223.592 270.418 223.889 270.832 224.483C271.252 225.065 271.462 225.854 271.462 226.85C271.462 227.846 271.252 228.638 270.832 229.226ZM267.781 228.803C268.099 229.265 268.531 229.496 269.077 229.496C269.629 229.496 270.058 229.265 270.364 228.803C270.676 228.347 270.832 227.696 270.832 226.85C270.832 226.004 270.676 225.353 270.364 224.897C270.058 224.435 269.629 224.204 269.077 224.204C268.531 224.204 268.099 224.435 267.781 224.897C267.475 225.359 267.322 226.01 267.322 226.85C267.322 227.69 267.475 228.341 267.781 228.803Z" fill="#E3E3E3"/>
<path d="M296.77 226.463V223.7H297.4V230H296.77V227.057H293.35V230H292.72V223.7H293.35V226.463H296.77ZM302.518 229.433C302.056 229.883 301.498 230.108 300.844 230.108C300.178 230.108 299.617 229.883 299.161 229.433C298.705 228.977 298.477 228.416 298.477 227.75C298.477 227.084 298.705 226.526 299.161 226.076C299.617 225.62 300.178 225.392 300.844 225.392C301.504 225.392 302.062 225.62 302.518 226.076C302.98 226.526 303.211 227.084 303.211 227.75C303.211 228.41 302.98 228.971 302.518 229.433ZM299.584 229.019C299.926 229.361 300.346 229.532 300.844 229.532C301.342 229.532 301.762 229.361 302.104 229.019C302.446 228.665 302.617 228.242 302.617 227.75C302.617 227.252 302.446 226.832 302.104 226.49C301.762 226.142 301.342 225.968 300.844 225.968C300.346 225.968 299.926 226.142 299.584 226.49C299.242 226.832 299.071 227.252 299.071 227.75C299.071 228.242 299.242 228.665 299.584 229.019ZM305.442 225.5H307.269V230H306.675V228.272H305.901L304.515 230H303.759L305.181 228.254C304.815 228.2 304.515 228.05 304.281 227.804C304.053 227.552 303.939 227.249 303.939 226.895C303.939 226.493 304.083 226.16 304.371 225.896C304.671 225.632 305.028 225.5 305.442 225.5ZM305.442 227.714H306.675V226.076H305.442C305.184 226.076 304.968 226.154 304.794 226.31C304.62 226.46 304.533 226.655 304.533 226.895C304.533 227.135 304.62 227.333 304.794 227.489C304.968 227.639 305.184 227.714 305.442 227.714ZM314.514 230H310.509V229.433L312.777 227.147C313.425 226.499 313.749 225.944 313.749 225.482C313.749 225.092 313.626 224.783 313.38 224.555C313.14 224.321 312.84 224.204 312.48 224.204C311.838 224.204 311.367 224.501 311.067 225.095L310.536 224.78C310.728 224.396 310.995 224.102 311.337 223.898C311.679 223.694 312.06 223.592 312.48 223.592C312.984 223.592 313.425 223.763 313.803 224.105C314.187 224.435 314.379 224.894 314.379 225.482C314.379 225.83 314.283 226.172 314.091 226.508C313.899 226.838 313.605 227.201 313.209 227.597L311.409 229.388H314.514V230ZM319.38 229.226C318.966 229.814 318.381 230.108 317.625 230.108C316.875 230.108 316.287 229.814 315.861 229.226C315.447 228.632 315.24 227.84 315.24 226.85C315.24 225.854 315.447 225.065 315.861 224.483C316.287 223.889 316.875 223.592 317.625 223.592C318.381 223.592 318.966 223.889 319.38 224.483C319.8 225.065 320.01 225.854 320.01 226.85C320.01 227.846 319.8 228.638 319.38 229.226ZM316.329 228.803C316.647 229.265 317.079 229.496 317.625 229.496C318.177 229.496 318.606 229.265 318.912 228.803C319.224 228.347 319.38 227.696 319.38 226.85C319.38 226.004 319.224 225.353 318.912 224.897C318.606 224.435 318.177 224.204 317.625 224.204C317.079 224.204 316.647 224.435 316.329 224.897C316.023 225.359 315.87 226.01 315.87 226.85C315.87 227.69 316.023 228.341 316.329 228.803Z" fill="#E3E3E3"/>
<path d="M348.58 230H347.914L347.329 228.452H344.341L343.756 230H343.09L345.511 223.7H346.159L348.58 230ZM345.835 224.483L344.566 227.858H347.104L345.835 224.483ZM349.299 225.5H353.079V230H352.485V226.076H349.893V230H349.299V225.5ZM356.747 225.392C357.389 225.392 357.935 225.62 358.385 226.076C358.841 226.532 359.069 227.09 359.069 227.75C359.069 228.41 358.841 228.968 358.385 229.424C357.935 229.88 357.389 230.108 356.747 230.108C355.949 230.108 355.343 229.778 354.929 229.118V231.8H354.335V225.5H354.929V226.382C355.343 225.722 355.949 225.392 356.747 225.392ZM355.442 229.019C355.784 229.361 356.204 229.532 356.702 229.532C357.2 229.532 357.62 229.361 357.962 229.019C358.304 228.665 358.475 228.242 358.475 227.75C358.475 227.252 358.304 226.832 357.962 226.49C357.62 226.142 357.2 225.968 356.702 225.968C356.204 225.968 355.784 226.142 355.442 226.49C355.1 226.832 354.929 227.252 354.929 227.75C354.929 228.242 355.1 228.665 355.442 229.019ZM366.042 230H362.037V229.433L364.305 227.147C364.953 226.499 365.277 225.944 365.277 225.482C365.277 225.092 365.154 224.783 364.908 224.555C364.668 224.321 364.368 224.204 364.008 224.204C363.366 224.204 362.895 224.501 362.595 225.095L362.064 224.78C362.256 224.396 362.523 224.102 362.865 223.898C363.207 223.694 363.588 223.592 364.008 223.592C364.512 223.592 364.953 223.763 365.331 224.105C365.715 224.435 365.907 224.894 365.907 225.482C365.907 225.83 365.811 226.172 365.619 226.508C365.427 226.838 365.133 227.201 364.737 227.597L362.937 229.388H366.042V230ZM366.54 224.276L368.205 223.7H368.745V230H368.115V224.393L366.702 224.816L366.54 224.276Z" fill="#E3E3E3"/>
<path d="M397.663 230.108C396.703 230.108 395.914 229.793 395.296 229.163C394.672 228.527 394.36 227.756 394.36 226.85C394.36 225.944 394.672 225.173 395.296 224.537C395.914 223.907 396.703 223.592 397.663 223.592C398.239 223.592 398.77 223.733 399.256 224.015C399.742 224.291 400.12 224.666 400.39 225.14L399.832 225.464C399.634 225.08 399.34 224.774 398.95 224.546C398.56 224.318 398.131 224.204 397.663 224.204C396.871 224.204 396.229 224.459 395.737 224.969C395.239 225.485 394.99 226.112 394.99 226.85C394.99 227.588 395.239 228.215 395.737 228.731C396.229 229.241 396.871 229.496 397.663 229.496C398.131 229.496 398.56 229.382 398.95 229.154C399.34 228.926 399.634 228.62 399.832 228.236L400.39 228.551C400.132 229.025 399.757 229.403 399.265 229.685C398.773 229.967 398.239 230.108 397.663 230.108ZM403.371 225.392C404.043 225.392 404.58 225.629 404.982 226.103C405.396 226.571 405.603 227.126 405.603 227.768C405.603 227.798 405.597 227.891 405.585 228.047H401.634C401.694 228.497 401.886 228.857 402.21 229.127C402.534 229.397 402.939 229.532 403.425 229.532C404.109 229.532 404.592 229.277 404.874 228.767L405.396 229.073C405.198 229.397 404.925 229.652 404.577 229.838C404.235 230.018 403.848 230.108 403.416 230.108C402.708 230.108 402.132 229.886 401.688 229.442C401.244 228.998 401.022 228.434 401.022 227.75C401.022 227.072 401.241 226.511 401.679 226.067C402.117 225.617 402.681 225.392 403.371 225.392ZM403.371 225.968C402.903 225.968 402.51 226.106 402.192 226.382C401.88 226.658 401.694 227.021 401.634 227.471H404.991C404.925 226.991 404.742 226.622 404.442 226.364C404.13 226.1 403.773 225.968 403.371 225.968ZM409.734 227.462V225.5H410.328V230H409.734V228.038H407.142V230H406.548V225.5H407.142V227.462H409.734ZM417.569 230H413.564V229.433L415.832 227.147C416.48 226.499 416.804 225.944 416.804 225.482C416.804 225.092 416.681 224.783 416.435 224.555C416.195 224.321 415.895 224.204 415.535 224.204C414.893 224.204 414.422 224.501 414.122 225.095L413.591 224.78C413.783 224.396 414.05 224.102 414.392 223.898C414.734 223.694 415.115 223.592 415.535 223.592C416.039 223.592 416.48 223.763 416.858 224.105C417.242 224.435 417.434 224.894 417.434 225.482C417.434 225.83 417.338 226.172 417.146 226.508C416.954 226.838 416.66 227.201 416.264 227.597L414.464 229.388H417.569V230ZM418.068 224.276L419.733 223.7H420.273V230H419.643V224.393L418.23 224.816L418.068 224.276Z" fill="#E3E3E3"/>
<path d="M448.933 229.289V230H448.303V229.289C447.385 229.241 446.65 229.01 446.098 228.596C445.546 228.17 445.27 227.588 445.27 226.85C445.27 226.112 445.546 225.53 446.098 225.104C446.65 224.69 447.385 224.459 448.303 224.411V223.7H448.933V224.411C449.857 224.459 450.589 224.69 451.129 225.104C451.687 225.53 451.966 226.112 451.966 226.85C451.966 227.594 451.687 228.176 451.129 228.596C450.589 229.01 449.857 229.241 448.933 229.289ZM448.303 228.713V224.987C447.553 225.023 446.965 225.203 446.539 225.527C446.113 225.845 445.9 226.286 445.9 226.85C445.9 227.414 446.113 227.858 446.539 228.182C446.965 228.5 447.553 228.677 448.303 228.713ZM448.933 224.987V228.713C449.683 228.677 450.271 228.5 450.697 228.182C451.123 227.858 451.336 227.414 451.336 226.85C451.336 226.286 451.123 225.845 450.697 225.527C450.271 225.203 449.683 225.023 448.933 224.987ZM454.942 225.392C455.614 225.392 456.151 225.629 456.553 226.103C456.967 226.571 457.174 227.126 457.174 227.768C457.174 227.798 457.168 227.891 457.156 228.047H453.205C453.265 228.497 453.457 228.857 453.781 229.127C454.105 229.397 454.51 229.532 454.996 229.532C455.68 229.532 456.163 229.277 456.445 228.767L456.967 229.073C456.769 229.397 456.496 229.652 456.148 229.838C455.806 230.018 455.419 230.108 454.987 230.108C454.279 230.108 453.703 229.886 453.259 229.442C452.815 228.998 452.593 228.434 452.593 227.75C452.593 227.072 452.812 226.511 453.25 226.067C453.688 225.617 454.252 225.392 454.942 225.392ZM454.942 225.968C454.474 225.968 454.081 226.106 453.763 226.382C453.451 226.658 453.265 227.021 453.205 227.471H456.562C456.496 226.991 456.313 226.622 456.013 226.364C455.701 226.1 455.344 225.968 454.942 225.968ZM460.981 227.687C461.473 227.867 461.719 228.218 461.719 228.74C461.719 229.112 461.593 229.415 461.341 229.649C461.095 229.883 460.75 230 460.306 230H458.119V225.5H460.126C460.558 225.5 460.894 225.611 461.134 225.833C461.38 226.055 461.503 226.346 461.503 226.706C461.503 227.156 461.329 227.483 460.981 227.687ZM460.126 226.076H458.713V227.444H460.126C460.648 227.444 460.909 227.21 460.909 226.742C460.909 226.532 460.84 226.37 460.702 226.256C460.57 226.136 460.378 226.076 460.126 226.076ZM458.713 229.424H460.306C460.57 229.424 460.771 229.361 460.909 229.235C461.053 229.109 461.125 228.932 461.125 228.704C461.125 228.488 461.053 228.32 460.909 228.2C460.771 228.08 460.57 228.02 460.306 228.02H458.713V229.424ZM468.604 230H464.599V229.433L466.867 227.147C467.515 226.499 467.839 225.944 467.839 225.482C467.839 225.092 467.716 224.783 467.47 224.555C467.23 224.321 466.93 224.204 466.57 224.204C465.928 224.204 465.457 224.501 465.157 225.095L464.626 224.78C464.818 224.396 465.085 224.102 465.427 223.898C465.769 223.694 466.15 223.592 466.57 223.592C467.074 223.592 467.515 223.763 467.893 224.105C468.277 224.435 468.469 224.894 468.469 225.482C468.469 225.83 468.373 226.172 468.181 226.508C467.989 226.838 467.695 227.201 467.299 227.597L465.499 229.388H468.604V230ZM473.333 230H469.328V229.433L471.596 227.147C472.244 226.499 472.568 225.944 472.568 225.482C472.568 225.092 472.445 224.783 472.199 224.555C471.959 224.321 471.659 224.204 471.299 224.204C470.657 224.204 470.186 224.501 469.886 225.095L469.355 224.78C469.547 224.396 469.814 224.102 470.156 223.898C470.498 223.694 470.879 223.592 471.299 223.592C471.803 223.592 472.244 223.763 472.622 224.105C473.006 224.435 473.198 224.894 473.198 225.482C473.198 225.83 473.102 226.172 472.91 226.508C472.718 226.838 472.424 227.201 472.028 227.597L470.228 229.388H473.333V230Z" fill="#E3E3E3"/>
<path d="M501.4 230H500.77V224.87L497.26 230H496.72V223.7H497.35V228.83L500.86 223.7H501.4V230ZM506.59 225.392C507.25 225.392 507.808 225.62 508.264 226.076C508.726 226.526 508.957 227.084 508.957 227.75C508.957 228.41 508.726 228.971 508.264 229.433C507.802 229.883 507.244 230.108 506.59 230.108C505.99 230.108 505.468 229.913 505.024 229.523C504.586 229.121 504.337 228.626 504.277 228.038H503.341V230H502.747V225.5H503.341V227.462H504.277C504.343 226.868 504.592 226.376 505.024 225.986C505.462 225.59 505.984 225.392 506.59 225.392ZM505.33 229.019C505.672 229.361 506.092 229.532 506.59 229.532C507.088 229.532 507.508 229.361 507.85 229.019C508.192 228.665 508.363 228.242 508.363 227.75C508.363 227.252 508.192 226.832 507.85 226.49C507.508 226.142 507.088 225.968 506.59 225.968C506.092 225.968 505.672 226.142 505.33 226.49C504.988 226.832 504.817 227.252 504.817 227.75C504.817 228.242 504.988 228.665 505.33 229.019ZM510.238 225.5H513.46V230H512.866V226.076H510.832V228.083C510.832 228.833 510.688 229.349 510.4 229.631C510.118 229.913 509.728 230.036 509.23 230V229.442C509.578 229.478 509.833 229.394 509.995 229.19C510.157 228.986 510.238 228.617 510.238 228.083V225.5ZM520.703 230H516.698V229.433L518.966 227.147C519.614 226.499 519.938 225.944 519.938 225.482C519.938 225.092 519.815 224.783 519.569 224.555C519.329 224.321 519.029 224.204 518.669 224.204C518.027 224.204 517.556 224.501 517.256 225.095L516.725 224.78C516.917 224.396 517.184 224.102 517.526 223.898C517.868 223.694 518.249 223.592 518.669 223.592C519.173 223.592 519.614 223.763 519.992 224.105C520.376 224.435 520.568 224.894 520.568 225.482C520.568 225.83 520.472 226.172 520.28 226.508C520.088 226.838 519.794 227.201 519.398 227.597L517.598 229.388H520.703V230ZM525.431 230H521.426V229.433L523.694 227.147C524.342 226.499 524.666 225.944 524.666 225.482C524.666 225.092 524.543 224.783 524.297 224.555C524.057 224.321 523.757 224.204 523.397 224.204C522.755 224.204 522.284 224.501 521.984 225.095L521.453 224.78C521.645 224.396 521.912 224.102 522.254 223.898C522.596 223.694 522.977 223.592 523.397 223.592C523.901 223.592 524.342 223.763 524.72 224.105C525.104 224.435 525.296 224.894 525.296 225.482C525.296 225.83 525.2 226.172 525.008 226.508C524.816 226.838 524.522 227.201 524.126 227.597L522.326 229.388H525.431V230Z" fill="#E3E3E3"/>
<path d="M64.5 166.5C54.5 180.1 43 186.833 38.5 188.5H37.5V214.5H547.5V6.5H546C531.167 10.5 499.3 22 490.5 36C443 110 414 19 375.5 96C337 173 298 156.5 266 137.5C234 118.5 221.5 108 186.5 146.5C151.5 185 134 160 114 149.5C94 139 77 149.5 64.5 166.5Z" fill="url(#paint0_linear_186_713)"/>
<path d="M64.5 166.5C54.5 180.1 43 186.833 38.5 188.5H37.5V214.5H547.5V6.5H546C531.167 10.5 499.3 22 490.5 36C443 110 414 19 375.5 96C337 173 298 156.5 266 137.5C234 118.5 221.5 108 186.5 146.5C151.5 185 134 160 114 149.5C94 139 77 149.5 64.5 166.5Z" stroke="#FFB11B"/>
<defs>
<linearGradient id="paint0_linear_186_713" x1="292.5" y1="34.5392" x2="292.5" y2="214.5" gradientUnits="userSpaceOnUse">
<stop stop-color="#FFC700" stop-opacity="0.5"/>
<stop offset="1" stop-color="#FFC700" stop-opacity="0.2"/>
</linearGradient>
</defs>
</svg>
