<svg width="559" height="235" viewBox="0 0 559 235" fill="none" xmlns="http://www.w3.org/2000/svg">
<g opacity="0.3">
<line x1="46" y1="9.5" x2="557" y2="9.49996" stroke="#FFB11B" stroke-dasharray="2 2"/>
<line x1="46" y1="24.5" x2="557" y2="24.5" stroke="#FFB11B" stroke-dasharray="2 2"/>
<line x1="46" y1="39.5" x2="557" y2="39.5" stroke="#FFB11B" stroke-dasharray="2 2"/>
<line x1="46" y1="54.5" x2="557" y2="54.5" stroke="#FFB11B" stroke-dasharray="2 2"/>
<line x1="46" y1="69.5" x2="557" y2="69.5" stroke="#FFB11B" stroke-dasharray="2 2"/>
<line x1="46" y1="84.5" x2="557" y2="84.5" stroke="#FFB11B" stroke-dasharray="2 2"/>
<line x1="46" y1="99.5" x2="557" y2="99.5" stroke="#FFB11B" stroke-dasharray="2 2"/>
<line x1="46" y1="114.5" x2="557" y2="114.5" stroke="#FFB11B" stroke-dasharray="2 2"/>
<line x1="46" y1="129.5" x2="557" y2="129.5" stroke="#FFB11B" stroke-dasharray="2 2"/>
<line x1="46" y1="144.5" x2="557" y2="144.5" stroke="#FFB11B" stroke-dasharray="2 2"/>
<line x1="46" y1="159.5" x2="557" y2="159.5" stroke="#FFB11B" stroke-dasharray="2 2"/>
<line x1="46" y1="174.5" x2="557" y2="174.5" stroke="#FFB11B" stroke-dasharray="2 2"/>
<line x1="46" y1="189.5" x2="557" y2="189.5" stroke="#FFB11B" stroke-dasharray="2 2"/>
<line x1="46" y1="204.5" x2="557" y2="204.5" stroke="#FFB11B" stroke-dasharray="2 2"/>
<line x1="46" y1="219.5" x2="557" y2="219.5" stroke="#FFB11B" stroke-dasharray="2 2"/>
<line x1="46.5" y1="9" x2="46.5" y2="220" stroke="#00F0FF" stroke-dasharray="2 2"/>
<line x1="131.5" y1="9" x2="131.5" y2="220" stroke="#FFB11B" stroke-dasharray="2 2"/>
<line x1="216.5" y1="9" x2="216.5" y2="220" stroke="#FFB11B" stroke-dasharray="2 2"/>
<line x1="301.5" y1="9" x2="301.5" y2="220" stroke="#FFB11B" stroke-dasharray="2 2"/>
<line x1="386.5" y1="9" x2="386.5" y2="220" stroke="#FFB11B" stroke-dasharray="2 2"/>
<line x1="471.5" y1="9" x2="471.5" y2="220" stroke="#FFB11B" stroke-dasharray="2 2"/>
<line x1="556.5" y1="9" x2="556.5" y2="220" stroke="#FFB11B" stroke-dasharray="2 2"/>
</g>
<path d="M8.56961 213.82H9.74961C10.4096 213.82 10.9629 214.013 11.4096 214.4C11.8696 214.78 12.0996 215.303 12.0996 215.97C12.0996 216.63 11.8696 217.157 11.4096 217.55C10.9629 217.93 10.4096 218.12 9.74961 218.12C9.20961 218.12 8.73294 217.99 8.31961 217.73C7.91294 217.463 7.63961 217.097 7.49961 216.63L8.08961 216.29C8.18961 216.657 8.38628 216.94 8.67961 217.14C8.97294 217.34 9.32961 217.44 9.74961 217.44C10.2429 217.44 10.6396 217.31 10.9396 217.05C11.2463 216.783 11.3996 216.423 11.3996 215.97C11.3996 215.517 11.2463 215.16 10.9396 214.9C10.6396 214.633 10.2429 214.5 9.74961 214.5H7.84961L8.09961 211H11.8496V211.66H8.71961L8.56961 213.82ZM17.4047 217.14C16.9447 217.793 16.2947 218.12 15.4547 218.12C14.6214 218.12 13.968 217.793 13.4947 217.14C13.0347 216.48 12.8047 215.6 12.8047 214.5C12.8047 213.393 13.0347 212.517 13.4947 211.87C13.968 211.21 14.6214 210.88 15.4547 210.88C16.2947 210.88 16.9447 211.21 17.4047 211.87C17.8714 212.517 18.1047 213.393 18.1047 214.5C18.1047 215.607 17.8714 216.487 17.4047 217.14ZM14.0147 216.67C14.368 217.183 14.848 217.44 15.4547 217.44C16.068 217.44 16.5447 217.183 16.8847 216.67C17.2314 216.163 17.4047 215.44 17.4047 214.5C17.4047 213.56 17.2314 212.837 16.8847 212.33C16.5447 211.817 16.068 211.56 15.4547 211.56C14.848 211.56 14.368 211.817 14.0147 212.33C13.6747 212.843 13.5047 213.567 13.5047 214.5C13.5047 215.433 13.6747 216.157 14.0147 216.67ZM26.2035 217.14C25.7435 217.793 25.0935 218.12 24.2535 218.12C23.4202 218.12 22.7668 217.793 22.2935 217.14C21.8335 216.48 21.6035 215.6 21.6035 214.5C21.6035 213.393 21.8335 212.517 22.2935 211.87C22.7668 211.21 23.4202 210.88 24.2535 210.88C25.0935 210.88 25.7435 211.21 26.2035 211.87C26.6702 212.517 26.9035 213.393 26.9035 214.5C26.9035 215.607 26.6702 216.487 26.2035 217.14ZM22.8135 216.67C23.1668 217.183 23.6468 217.44 24.2535 217.44C24.8668 217.44 25.3435 217.183 25.6835 216.67C26.0302 216.163 26.2035 215.44 26.2035 214.5C26.2035 213.56 26.0302 212.837 25.6835 212.33C25.3435 211.817 24.8668 211.56 24.2535 211.56C23.6468 211.56 23.1668 211.817 22.8135 212.33C22.4735 212.843 22.3035 213.567 22.3035 214.5C22.3035 215.433 22.4735 216.157 22.8135 216.67ZM32.5023 217.14C32.0423 217.793 31.3923 218.12 30.5523 218.12C29.719 218.12 29.0657 217.793 28.5923 217.14C28.1323 216.48 27.9023 215.6 27.9023 214.5C27.9023 213.393 28.1323 212.517 28.5923 211.87C29.0657 211.21 29.719 210.88 30.5523 210.88C31.3923 210.88 32.0423 211.21 32.5023 211.87C32.969 212.517 33.2023 213.393 33.2023 214.5C33.2023 215.607 32.969 216.487 32.5023 217.14ZM29.1123 216.67C29.4657 217.183 29.9457 217.44 30.5523 217.44C31.1657 217.44 31.6423 217.183 31.9823 216.67C32.329 216.163 32.5023 215.44 32.5023 214.5C32.5023 213.56 32.329 212.837 31.9823 212.33C31.6423 211.817 31.1657 211.56 30.5523 211.56C29.9457 211.56 29.4657 211.817 29.1123 212.33C28.7723 212.843 28.6023 213.567 28.6023 214.5C28.6023 215.433 28.7723 216.157 29.1123 216.67ZM38.8012 217.14C38.3412 217.793 37.6912 218.12 36.8512 218.12C36.0178 218.12 35.3645 217.793 34.8912 217.14C34.4312 216.48 34.2012 215.6 34.2012 214.5C34.2012 213.393 34.4312 212.517 34.8912 211.87C35.3645 211.21 36.0178 210.88 36.8512 210.88C37.6912 210.88 38.3412 211.21 38.8012 211.87C39.2678 212.517 39.5012 213.393 39.5012 214.5C39.5012 215.607 39.2678 216.487 38.8012 217.14ZM35.4112 216.67C35.7645 217.183 36.2445 217.44 36.8512 217.44C37.4645 217.44 37.9412 217.183 38.2812 216.67C38.6278 216.163 38.8012 215.44 38.8012 214.5C38.8012 213.56 38.6278 212.837 38.2812 212.33C37.9412 211.817 37.4645 211.56 36.8512 211.56C36.2445 211.56 35.7645 211.817 35.4112 212.33C35.0712 212.843 34.9012 213.567 34.9012 214.5C34.9012 215.433 35.0712 216.157 35.4112 216.67Z" fill="#E3E3E3"/>
<path d="M9.10625 196.66V196H13.4063V196.66L10.7663 203H10.0363L12.6763 196.66H9.10625ZM14.6731 198.82H15.8531C16.5131 198.82 17.0665 199.013 17.5131 199.4C17.9731 199.78 18.2031 200.303 18.2031 200.97C18.2031 201.63 17.9731 202.157 17.5131 202.55C17.0665 202.93 16.5131 203.12 15.8531 203.12C15.3131 203.12 14.8365 202.99 14.4231 202.73C14.0165 202.463 13.7431 202.097 13.6031 201.63L14.1931 201.29C14.2931 201.657 14.4898 201.94 14.7831 202.14C15.0765 202.34 15.4331 202.44 15.8531 202.44C16.3465 202.44 16.7431 202.31 17.0431 202.05C17.3498 201.783 17.5031 201.423 17.5031 200.97C17.5031 200.517 17.3498 200.16 17.0431 199.9C16.7431 199.633 16.3465 199.5 15.8531 199.5H13.9531L14.2031 196H17.9531V196.66H14.8231L14.6731 198.82ZM26.2035 202.14C25.7435 202.793 25.0935 203.12 24.2535 203.12C23.4202 203.12 22.7668 202.793 22.2935 202.14C21.8335 201.48 21.6035 200.6 21.6035 199.5C21.6035 198.393 21.8335 197.517 22.2935 196.87C22.7668 196.21 23.4202 195.88 24.2535 195.88C25.0935 195.88 25.7435 196.21 26.2035 196.87C26.6702 197.517 26.9035 198.393 26.9035 199.5C26.9035 200.607 26.6702 201.487 26.2035 202.14ZM22.8135 201.67C23.1668 202.183 23.6468 202.44 24.2535 202.44C24.8668 202.44 25.3435 202.183 25.6835 201.67C26.0302 201.163 26.2035 200.44 26.2035 199.5C26.2035 198.56 26.0302 197.837 25.6835 197.33C25.3435 196.817 24.8668 196.56 24.2535 196.56C23.6468 196.56 23.1668 196.817 22.8135 197.33C22.4735 197.843 22.3035 198.567 22.3035 199.5C22.3035 200.433 22.4735 201.157 22.8135 201.67ZM32.5023 202.14C32.0423 202.793 31.3923 203.12 30.5523 203.12C29.719 203.12 29.0657 202.793 28.5923 202.14C28.1323 201.48 27.9023 200.6 27.9023 199.5C27.9023 198.393 28.1323 197.517 28.5923 196.87C29.0657 196.21 29.719 195.88 30.5523 195.88C31.3923 195.88 32.0423 196.21 32.5023 196.87C32.969 197.517 33.2023 198.393 33.2023 199.5C33.2023 200.607 32.969 201.487 32.5023 202.14ZM29.1123 201.67C29.4657 202.183 29.9457 202.44 30.5523 202.44C31.1657 202.44 31.6423 202.183 31.9823 201.67C32.329 201.163 32.5023 200.44 32.5023 199.5C32.5023 198.56 32.329 197.837 31.9823 197.33C31.6423 196.817 31.1657 196.56 30.5523 196.56C29.9457 196.56 29.4657 196.817 29.1123 197.33C28.7723 197.843 28.6023 198.567 28.6023 199.5C28.6023 200.433 28.7723 201.157 29.1123 201.67ZM38.8012 202.14C38.3412 202.793 37.6912 203.12 36.8512 203.12C36.0178 203.12 35.3645 202.793 34.8912 202.14C34.4312 201.48 34.2012 200.6 34.2012 199.5C34.2012 198.393 34.4312 197.517 34.8912 196.87C35.3645 196.21 36.0178 195.88 36.8512 195.88C37.6912 195.88 38.3412 196.21 38.8012 196.87C39.2678 197.517 39.5012 198.393 39.5012 199.5C39.5012 200.607 39.2678 201.487 38.8012 202.14ZM35.4112 201.67C35.7645 202.183 36.2445 202.44 36.8512 202.44C37.4645 202.44 37.9412 202.183 38.2812 201.67C38.6278 201.163 38.8012 200.44 38.8012 199.5C38.8012 198.56 38.6278 197.837 38.2812 197.33C37.9412 196.817 37.4645 196.56 36.8512 196.56C36.2445 196.56 35.7645 196.817 35.4112 197.33C35.0712 197.843 34.9012 198.567 34.9012 199.5C34.9012 200.433 35.0712 201.157 35.4112 201.67Z" fill="#E3E3E3"/>
<path d="M2.75742 181.64L4.60742 181H5.20742V188H4.50742V181.77L2.93742 182.24L2.75742 181.64ZM11.1059 187.14C10.6459 187.793 9.99586 188.12 9.15586 188.12C8.32253 188.12 7.66919 187.793 7.19586 187.14C6.73586 186.48 6.50586 185.6 6.50586 184.5C6.50586 183.393 6.73586 182.517 7.19586 181.87C7.66919 181.21 8.32253 180.88 9.15586 180.88C9.99586 180.88 10.6459 181.21 11.1059 181.87C11.5725 182.517 11.8059 183.393 11.8059 184.5C11.8059 185.607 11.5725 186.487 11.1059 187.14ZM7.71586 186.67C8.06919 187.183 8.54919 187.44 9.15586 187.44C9.76919 187.44 10.2459 187.183 10.5859 186.67C10.9325 186.163 11.1059 185.44 11.1059 184.5C11.1059 183.56 10.9325 182.837 10.5859 182.33C10.2459 181.817 9.76919 181.56 9.15586 181.56C8.54919 181.56 8.06919 181.817 7.71586 182.33C7.37586 182.843 7.20586 183.567 7.20586 184.5C7.20586 185.433 7.37586 186.157 7.71586 186.67ZM17.4047 187.14C16.9447 187.793 16.2947 188.12 15.4547 188.12C14.6214 188.12 13.968 187.793 13.4947 187.14C13.0347 186.48 12.8047 185.6 12.8047 184.5C12.8047 183.393 13.0347 182.517 13.4947 181.87C13.968 181.21 14.6214 180.88 15.4547 180.88C16.2947 180.88 16.9447 181.21 17.4047 181.87C17.8714 182.517 18.1047 183.393 18.1047 184.5C18.1047 185.607 17.8714 186.487 17.4047 187.14ZM14.0147 186.67C14.368 187.183 14.848 187.44 15.4547 187.44C16.068 187.44 16.5447 187.183 16.8847 186.67C17.2314 186.163 17.4047 185.44 17.4047 184.5C17.4047 183.56 17.2314 182.837 16.8847 182.33C16.5447 181.817 16.068 181.56 15.4547 181.56C14.848 181.56 14.368 181.817 14.0147 182.33C13.6747 182.843 13.5047 183.567 13.5047 184.5C13.5047 185.433 13.6747 186.157 14.0147 186.67ZM26.2035 187.14C25.7435 187.793 25.0935 188.12 24.2535 188.12C23.4202 188.12 22.7668 187.793 22.2935 187.14C21.8335 186.48 21.6035 185.6 21.6035 184.5C21.6035 183.393 21.8335 182.517 22.2935 181.87C22.7668 181.21 23.4202 180.88 24.2535 180.88C25.0935 180.88 25.7435 181.21 26.2035 181.87C26.6702 182.517 26.9035 183.393 26.9035 184.5C26.9035 185.607 26.6702 186.487 26.2035 187.14ZM22.8135 186.67C23.1668 187.183 23.6468 187.44 24.2535 187.44C24.8668 187.44 25.3435 187.183 25.6835 186.67C26.0302 186.163 26.2035 185.44 26.2035 184.5C26.2035 183.56 26.0302 182.837 25.6835 182.33C25.3435 181.817 24.8668 181.56 24.2535 181.56C23.6468 181.56 23.1668 181.817 22.8135 182.33C22.4735 182.843 22.3035 183.567 22.3035 184.5C22.3035 185.433 22.4735 186.157 22.8135 186.67ZM32.5023 187.14C32.0423 187.793 31.3923 188.12 30.5523 188.12C29.719 188.12 29.0657 187.793 28.5923 187.14C28.1323 186.48 27.9023 185.6 27.9023 184.5C27.9023 183.393 28.1323 182.517 28.5923 181.87C29.0657 181.21 29.719 180.88 30.5523 180.88C31.3923 180.88 32.0423 181.21 32.5023 181.87C32.969 182.517 33.2023 183.393 33.2023 184.5C33.2023 185.607 32.969 186.487 32.5023 187.14ZM29.1123 186.67C29.4657 187.183 29.9457 187.44 30.5523 187.44C31.1657 187.44 31.6423 187.183 31.9823 186.67C32.329 186.163 32.5023 185.44 32.5023 184.5C32.5023 183.56 32.329 182.837 31.9823 182.33C31.6423 181.817 31.1657 181.56 30.5523 181.56C29.9457 181.56 29.4657 181.817 29.1123 182.33C28.7723 182.843 28.6023 183.567 28.6023 184.5C28.6023 185.433 28.7723 186.157 29.1123 186.67ZM38.8012 187.14C38.3412 187.793 37.6912 188.12 36.8512 188.12C36.0178 188.12 35.3645 187.793 34.8912 187.14C34.4312 186.48 34.2012 185.6 34.2012 184.5C34.2012 183.393 34.4312 182.517 34.8912 181.87C35.3645 181.21 36.0178 180.88 36.8512 180.88C37.6912 180.88 38.3412 181.21 38.8012 181.87C39.2678 182.517 39.5012 183.393 39.5012 184.5C39.5012 185.607 39.2678 186.487 38.8012 187.14ZM35.4112 186.67C35.7645 187.183 36.2445 187.44 36.8512 187.44C37.4645 187.44 37.9412 187.183 38.2812 186.67C38.6278 186.163 38.8012 185.44 38.8012 184.5C38.8012 183.56 38.6278 182.837 38.2812 182.33C37.9412 181.817 37.4645 181.56 36.8512 181.56C36.2445 181.56 35.7645 181.817 35.4112 182.33C35.0712 182.843 34.9012 183.567 34.9012 184.5C34.9012 185.433 35.0712 186.157 35.4112 186.67Z" fill="#E3E3E3"/>
<path d="M4.74961 166.64L6.59961 166H7.19961V173H6.49961V166.77L4.92961 167.24L4.74961 166.64ZM12.848 173H8.39805V172.37L10.918 169.83C11.638 169.11 11.998 168.493 11.998 167.98C11.998 167.547 11.8614 167.203 11.588 166.95C11.3214 166.69 10.988 166.56 10.588 166.56C9.87471 166.56 9.35138 166.89 9.01805 167.55L8.42805 167.2C8.64138 166.773 8.93805 166.447 9.31805 166.22C9.69805 165.993 10.1214 165.88 10.588 165.88C11.148 165.88 11.638 166.07 12.058 166.45C12.4847 166.817 12.698 167.327 12.698 167.98C12.698 168.367 12.5914 168.747 12.378 169.12C12.1647 169.487 11.838 169.89 11.398 170.33L9.39805 172.32H12.848V173ZM14.6731 168.82H15.8531C16.5131 168.82 17.0665 169.013 17.5131 169.4C17.9731 169.78 18.2031 170.303 18.2031 170.97C18.2031 171.63 17.9731 172.157 17.5131 172.55C17.0665 172.93 16.5131 173.12 15.8531 173.12C15.3131 173.12 14.8365 172.99 14.4231 172.73C14.0165 172.463 13.7431 172.097 13.6031 171.63L14.1931 171.29C14.2931 171.657 14.4898 171.94 14.7831 172.14C15.0765 172.34 15.4331 172.44 15.8531 172.44C16.3465 172.44 16.7431 172.31 17.0431 172.05C17.3498 171.783 17.5031 171.423 17.5031 170.97C17.5031 170.517 17.3498 170.16 17.0431 169.9C16.7431 169.633 16.3465 169.5 15.8531 169.5H13.9531L14.2031 166H17.9531V166.66H14.8231L14.6731 168.82ZM26.2035 172.14C25.7435 172.793 25.0935 173.12 24.2535 173.12C23.4202 173.12 22.7668 172.793 22.2935 172.14C21.8335 171.48 21.6035 170.6 21.6035 169.5C21.6035 168.393 21.8335 167.517 22.2935 166.87C22.7668 166.21 23.4202 165.88 24.2535 165.88C25.0935 165.88 25.7435 166.21 26.2035 166.87C26.6702 167.517 26.9035 168.393 26.9035 169.5C26.9035 170.607 26.6702 171.487 26.2035 172.14ZM22.8135 171.67C23.1668 172.183 23.6468 172.44 24.2535 172.44C24.8668 172.44 25.3435 172.183 25.6835 171.67C26.0302 171.163 26.2035 170.44 26.2035 169.5C26.2035 168.56 26.0302 167.837 25.6835 167.33C25.3435 166.817 24.8668 166.56 24.2535 166.56C23.6468 166.56 23.1668 166.817 22.8135 167.33C22.4735 167.843 22.3035 168.567 22.3035 169.5C22.3035 170.433 22.4735 171.157 22.8135 171.67ZM32.5023 172.14C32.0423 172.793 31.3923 173.12 30.5523 173.12C29.719 173.12 29.0657 172.793 28.5923 172.14C28.1323 171.48 27.9023 170.6 27.9023 169.5C27.9023 168.393 28.1323 167.517 28.5923 166.87C29.0657 166.21 29.719 165.88 30.5523 165.88C31.3923 165.88 32.0423 166.21 32.5023 166.87C32.969 167.517 33.2023 168.393 33.2023 169.5C33.2023 170.607 32.969 171.487 32.5023 172.14ZM29.1123 171.67C29.4657 172.183 29.9457 172.44 30.5523 172.44C31.1657 172.44 31.6423 172.183 31.9823 171.67C32.329 171.163 32.5023 170.44 32.5023 169.5C32.5023 168.56 32.329 167.837 31.9823 167.33C31.6423 166.817 31.1657 166.56 30.5523 166.56C29.9457 166.56 29.4657 166.817 29.1123 167.33C28.7723 167.843 28.6023 168.567 28.6023 169.5C28.6023 170.433 28.7723 171.157 29.1123 171.67ZM38.8012 172.14C38.3412 172.793 37.6912 173.12 36.8512 173.12C36.0178 173.12 35.3645 172.793 34.8912 172.14C34.4312 171.48 34.2012 170.6 34.2012 169.5C34.2012 168.393 34.4312 167.517 34.8912 166.87C35.3645 166.21 36.0178 165.88 36.8512 165.88C37.6912 165.88 38.3412 166.21 38.8012 166.87C39.2678 167.517 39.5012 168.393 39.5012 169.5C39.5012 170.607 39.2678 171.487 38.8012 172.14ZM35.4112 171.67C35.7645 172.183 36.2445 172.44 36.8512 172.44C37.4645 172.44 37.9412 172.183 38.2812 171.67C38.6278 171.163 38.8012 170.44 38.8012 169.5C38.8012 168.56 38.6278 167.837 38.2812 167.33C37.9412 166.817 37.4645 166.56 36.8512 166.56C36.2445 166.56 35.7645 166.817 35.4112 167.33C35.0712 167.843 34.9012 168.567 34.9012 169.5C34.9012 170.433 35.0712 171.157 35.4112 171.67Z" fill="#E3E3E3"/>
<path d="M3.85117 151.64L5.70117 151H6.30117V158H5.60117V151.77L4.03117 152.24L3.85117 151.64ZM8.56961 153.82H9.74961C10.4096 153.82 10.9629 154.013 11.4096 154.4C11.8696 154.78 12.0996 155.303 12.0996 155.97C12.0996 156.63 11.8696 157.157 11.4096 157.55C10.9629 157.93 10.4096 158.12 9.74961 158.12C9.20961 158.12 8.73294 157.99 8.31961 157.73C7.91294 157.463 7.63961 157.097 7.49961 156.63L8.08961 156.29C8.18961 156.657 8.38628 156.94 8.67961 157.14C8.97294 157.34 9.32961 157.44 9.74961 157.44C10.2429 157.44 10.6396 157.31 10.9396 157.05C11.2463 156.783 11.3996 156.423 11.3996 155.97C11.3996 155.517 11.2463 155.16 10.9396 154.9C10.6396 154.633 10.2429 154.5 9.74961 154.5H7.84961L8.09961 151H11.8496V151.66H8.71961L8.56961 153.82ZM17.4047 157.14C16.9447 157.793 16.2947 158.12 15.4547 158.12C14.6214 158.12 13.968 157.793 13.4947 157.14C13.0347 156.48 12.8047 155.6 12.8047 154.5C12.8047 153.393 13.0347 152.517 13.4947 151.87C13.968 151.21 14.6214 150.88 15.4547 150.88C16.2947 150.88 16.9447 151.21 17.4047 151.87C17.8714 152.517 18.1047 153.393 18.1047 154.5C18.1047 155.607 17.8714 156.487 17.4047 157.14ZM14.0147 156.67C14.368 157.183 14.848 157.44 15.4547 157.44C16.068 157.44 16.5447 157.183 16.8847 156.67C17.2314 156.163 17.4047 155.44 17.4047 154.5C17.4047 153.56 17.2314 152.837 16.8847 152.33C16.5447 151.817 16.068 151.56 15.4547 151.56C14.848 151.56 14.368 151.817 14.0147 152.33C13.6747 152.843 13.5047 153.567 13.5047 154.5C13.5047 155.433 13.6747 156.157 14.0147 156.67ZM26.2035 157.14C25.7435 157.793 25.0935 158.12 24.2535 158.12C23.4202 158.12 22.7668 157.793 22.2935 157.14C21.8335 156.48 21.6035 155.6 21.6035 154.5C21.6035 153.393 21.8335 152.517 22.2935 151.87C22.7668 151.21 23.4202 150.88 24.2535 150.88C25.0935 150.88 25.7435 151.21 26.2035 151.87C26.6702 152.517 26.9035 153.393 26.9035 154.5C26.9035 155.607 26.6702 156.487 26.2035 157.14ZM22.8135 156.67C23.1668 157.183 23.6468 157.44 24.2535 157.44C24.8668 157.44 25.3435 157.183 25.6835 156.67C26.0302 156.163 26.2035 155.44 26.2035 154.5C26.2035 153.56 26.0302 152.837 25.6835 152.33C25.3435 151.817 24.8668 151.56 24.2535 151.56C23.6468 151.56 23.1668 151.817 22.8135 152.33C22.4735 152.843 22.3035 153.567 22.3035 154.5C22.3035 155.433 22.4735 156.157 22.8135 156.67ZM32.5023 157.14C32.0423 157.793 31.3923 158.12 30.5523 158.12C29.719 158.12 29.0657 157.793 28.5923 157.14C28.1323 156.48 27.9023 155.6 27.9023 154.5C27.9023 153.393 28.1323 152.517 28.5923 151.87C29.0657 151.21 29.719 150.88 30.5523 150.88C31.3923 150.88 32.0423 151.21 32.5023 151.87C32.969 152.517 33.2023 153.393 33.2023 154.5C33.2023 155.607 32.969 156.487 32.5023 157.14ZM29.1123 156.67C29.4657 157.183 29.9457 157.44 30.5523 157.44C31.1657 157.44 31.6423 157.183 31.9823 156.67C32.329 156.163 32.5023 155.44 32.5023 154.5C32.5023 153.56 32.329 152.837 31.9823 152.33C31.6423 151.817 31.1657 151.56 30.5523 151.56C29.9457 151.56 29.4657 151.817 29.1123 152.33C28.7723 152.843 28.6023 153.567 28.6023 154.5C28.6023 155.433 28.7723 156.157 29.1123 156.67ZM38.8012 157.14C38.3412 157.793 37.6912 158.12 36.8512 158.12C36.0178 158.12 35.3645 157.793 34.8912 157.14C34.4312 156.48 34.2012 155.6 34.2012 154.5C34.2012 153.393 34.4312 152.517 34.8912 151.87C35.3645 151.21 36.0178 150.88 36.8512 150.88C37.6912 150.88 38.3412 151.21 38.8012 151.87C39.2678 152.517 39.5012 153.393 39.5012 154.5C39.5012 155.607 39.2678 156.487 38.8012 157.14ZM35.4112 156.67C35.7645 157.183 36.2445 157.44 36.8512 157.44C37.4645 157.44 37.9412 157.183 38.2812 156.67C38.6278 156.163 38.8012 155.44 38.8012 154.5C38.8012 153.56 38.6278 152.837 38.2812 152.33C37.9412 151.817 37.4645 151.56 36.8512 151.56C36.2445 151.56 35.7645 151.817 35.4112 152.33C35.0712 152.843 34.9012 153.567 34.9012 154.5C34.9012 155.433 35.0712 156.157 35.4112 156.67Z" fill="#E3E3E3"/>
<path d="M5.65781 136.64L7.50781 136H8.10781V143H7.40781V136.77L5.83781 137.24L5.65781 136.64ZM9.10625 136.66V136H13.4063V136.66L10.7663 143H10.0363L12.6763 136.66H9.10625ZM14.6731 138.82H15.8531C16.5131 138.82 17.0665 139.013 17.5131 139.4C17.9731 139.78 18.2031 140.303 18.2031 140.97C18.2031 141.63 17.9731 142.157 17.5131 142.55C17.0665 142.93 16.5131 143.12 15.8531 143.12C15.3131 143.12 14.8365 142.99 14.4231 142.73C14.0165 142.463 13.7431 142.097 13.6031 141.63L14.1931 141.29C14.2931 141.657 14.4898 141.94 14.7831 142.14C15.0765 142.34 15.4331 142.44 15.8531 142.44C16.3465 142.44 16.7431 142.31 17.0431 142.05C17.3498 141.783 17.5031 141.423 17.5031 140.97C17.5031 140.517 17.3498 140.16 17.0431 139.9C16.7431 139.633 16.3465 139.5 15.8531 139.5H13.9531L14.2031 136H17.9531V136.66H14.8231L14.6731 138.82ZM26.2035 142.14C25.7435 142.793 25.0935 143.12 24.2535 143.12C23.4202 143.12 22.7668 142.793 22.2935 142.14C21.8335 141.48 21.6035 140.6 21.6035 139.5C21.6035 138.393 21.8335 137.517 22.2935 136.87C22.7668 136.21 23.4202 135.88 24.2535 135.88C25.0935 135.88 25.7435 136.21 26.2035 136.87C26.6702 137.517 26.9035 138.393 26.9035 139.5C26.9035 140.607 26.6702 141.487 26.2035 142.14ZM22.8135 141.67C23.1668 142.183 23.6468 142.44 24.2535 142.44C24.8668 142.44 25.3435 142.183 25.6835 141.67C26.0302 141.163 26.2035 140.44 26.2035 139.5C26.2035 138.56 26.0302 137.837 25.6835 137.33C25.3435 136.817 24.8668 136.56 24.2535 136.56C23.6468 136.56 23.1668 136.817 22.8135 137.33C22.4735 137.843 22.3035 138.567 22.3035 139.5C22.3035 140.433 22.4735 141.157 22.8135 141.67ZM32.5023 142.14C32.0423 142.793 31.3923 143.12 30.5523 143.12C29.719 143.12 29.0657 142.793 28.5923 142.14C28.1323 141.48 27.9023 140.6 27.9023 139.5C27.9023 138.393 28.1323 137.517 28.5923 136.87C29.0657 136.21 29.719 135.88 30.5523 135.88C31.3923 135.88 32.0423 136.21 32.5023 136.87C32.969 137.517 33.2023 138.393 33.2023 139.5C33.2023 140.607 32.969 141.487 32.5023 142.14ZM29.1123 141.67C29.4657 142.183 29.9457 142.44 30.5523 142.44C31.1657 142.44 31.6423 142.183 31.9823 141.67C32.329 141.163 32.5023 140.44 32.5023 139.5C32.5023 138.56 32.329 137.837 31.9823 137.33C31.6423 136.817 31.1657 136.56 30.5523 136.56C29.9457 136.56 29.4657 136.817 29.1123 137.33C28.7723 137.843 28.6023 138.567 28.6023 139.5C28.6023 140.433 28.7723 141.157 29.1123 141.67ZM38.8012 142.14C38.3412 142.793 37.6912 143.12 36.8512 143.12C36.0178 143.12 35.3645 142.793 34.8912 142.14C34.4312 141.48 34.2012 140.6 34.2012 139.5C34.2012 138.393 34.4312 137.517 34.8912 136.87C35.3645 136.21 36.0178 135.88 36.8512 135.88C37.6912 135.88 38.3412 136.21 38.8012 136.87C39.2678 137.517 39.5012 138.393 39.5012 139.5C39.5012 140.607 39.2678 141.487 38.8012 142.14ZM35.4112 141.67C35.7645 142.183 36.2445 142.44 36.8512 142.44C37.4645 142.44 37.9412 142.183 38.2812 141.67C38.6278 141.163 38.8012 140.44 38.8012 139.5C38.8012 138.56 38.6278 137.837 38.2812 137.33C37.9412 136.817 37.4645 136.56 36.8512 136.56C36.2445 136.56 35.7645 136.817 35.4112 137.33C35.0712 137.843 34.9012 138.567 34.9012 139.5C34.9012 140.433 35.0712 141.157 35.4112 141.67Z" fill="#E3E3E3"/>
<path d="M5.69961 128H1.24961V127.37L3.76961 124.83C4.48961 124.11 4.84961 123.493 4.84961 122.98C4.84961 122.547 4.71294 122.203 4.43961 121.95C4.17294 121.69 3.83961 121.56 3.43961 121.56C2.72628 121.56 2.20294 121.89 1.86961 122.55L1.27961 122.2C1.49294 121.773 1.78961 121.447 2.16961 121.22C2.54961 120.993 2.97294 120.88 3.43961 120.88C3.99961 120.88 4.48961 121.07 4.90961 121.45C5.33628 121.817 5.54961 122.327 5.54961 122.98C5.54961 123.367 5.44294 123.747 5.22961 124.12C5.01628 124.487 4.68961 124.89 4.24961 125.33L2.24961 127.32H5.69961V128ZM11.1059 127.14C10.6459 127.793 9.99586 128.12 9.15586 128.12C8.32253 128.12 7.66919 127.793 7.19586 127.14C6.73586 126.48 6.50586 125.6 6.50586 124.5C6.50586 123.393 6.73586 122.517 7.19586 121.87C7.66919 121.21 8.32253 120.88 9.15586 120.88C9.99586 120.88 10.6459 121.21 11.1059 121.87C11.5725 122.517 11.8059 123.393 11.8059 124.5C11.8059 125.607 11.5725 126.487 11.1059 127.14ZM7.71586 126.67C8.06919 127.183 8.54919 127.44 9.15586 127.44C9.76919 127.44 10.2459 127.183 10.5859 126.67C10.9325 126.163 11.1059 125.44 11.1059 124.5C11.1059 123.56 10.9325 122.837 10.5859 122.33C10.2459 121.817 9.76919 121.56 9.15586 121.56C8.54919 121.56 8.06919 121.817 7.71586 122.33C7.37586 122.843 7.20586 123.567 7.20586 124.5C7.20586 125.433 7.37586 126.157 7.71586 126.67ZM17.4047 127.14C16.9447 127.793 16.2947 128.12 15.4547 128.12C14.6214 128.12 13.968 127.793 13.4947 127.14C13.0347 126.48 12.8047 125.6 12.8047 124.5C12.8047 123.393 13.0347 122.517 13.4947 121.87C13.968 121.21 14.6214 120.88 15.4547 120.88C16.2947 120.88 16.9447 121.21 17.4047 121.87C17.8714 122.517 18.1047 123.393 18.1047 124.5C18.1047 125.607 17.8714 126.487 17.4047 127.14ZM14.0147 126.67C14.368 127.183 14.848 127.44 15.4547 127.44C16.068 127.44 16.5447 127.183 16.8847 126.67C17.2314 126.163 17.4047 125.44 17.4047 124.5C17.4047 123.56 17.2314 122.837 16.8847 122.33C16.5447 121.817 16.068 121.56 15.4547 121.56C14.848 121.56 14.368 121.817 14.0147 122.33C13.6747 122.843 13.5047 123.567 13.5047 124.5C13.5047 125.433 13.6747 126.157 14.0147 126.67ZM26.2035 127.14C25.7435 127.793 25.0935 128.12 24.2535 128.12C23.4202 128.12 22.7668 127.793 22.2935 127.14C21.8335 126.48 21.6035 125.6 21.6035 124.5C21.6035 123.393 21.8335 122.517 22.2935 121.87C22.7668 121.21 23.4202 120.88 24.2535 120.88C25.0935 120.88 25.7435 121.21 26.2035 121.87C26.6702 122.517 26.9035 123.393 26.9035 124.5C26.9035 125.607 26.6702 126.487 26.2035 127.14ZM22.8135 126.67C23.1668 127.183 23.6468 127.44 24.2535 127.44C24.8668 127.44 25.3435 127.183 25.6835 126.67C26.0302 126.163 26.2035 125.44 26.2035 124.5C26.2035 123.56 26.0302 122.837 25.6835 122.33C25.3435 121.817 24.8668 121.56 24.2535 121.56C23.6468 121.56 23.1668 121.817 22.8135 122.33C22.4735 122.843 22.3035 123.567 22.3035 124.5C22.3035 125.433 22.4735 126.157 22.8135 126.67ZM32.5023 127.14C32.0423 127.793 31.3923 128.12 30.5523 128.12C29.719 128.12 29.0657 127.793 28.5923 127.14C28.1323 126.48 27.9023 125.6 27.9023 124.5C27.9023 123.393 28.1323 122.517 28.5923 121.87C29.0657 121.21 29.719 120.88 30.5523 120.88C31.3923 120.88 32.0423 121.21 32.5023 121.87C32.969 122.517 33.2023 123.393 33.2023 124.5C33.2023 125.607 32.969 126.487 32.5023 127.14ZM29.1123 126.67C29.4657 127.183 29.9457 127.44 30.5523 127.44C31.1657 127.44 31.6423 127.183 31.9823 126.67C32.329 126.163 32.5023 125.44 32.5023 124.5C32.5023 123.56 32.329 122.837 31.9823 122.33C31.6423 121.817 31.1657 121.56 30.5523 121.56C29.9457 121.56 29.4657 121.817 29.1123 122.33C28.7723 122.843 28.6023 123.567 28.6023 124.5C28.6023 125.433 28.7723 126.157 29.1123 126.67ZM38.8012 127.14C38.3412 127.793 37.6912 128.12 36.8512 128.12C36.0178 128.12 35.3645 127.793 34.8912 127.14C34.4312 126.48 34.2012 125.6 34.2012 124.5C34.2012 123.393 34.4312 122.517 34.8912 121.87C35.3645 121.21 36.0178 120.88 36.8512 120.88C37.6912 120.88 38.3412 121.21 38.8012 121.87C39.2678 122.517 39.5012 123.393 39.5012 124.5C39.5012 125.607 39.2678 126.487 38.8012 127.14ZM35.4112 126.67C35.7645 127.183 36.2445 127.44 36.8512 127.44C37.4645 127.44 37.9412 127.183 38.2812 126.67C38.6278 126.163 38.8012 125.44 38.8012 124.5C38.8012 123.56 38.6278 122.837 38.2812 122.33C37.9412 121.817 37.4645 121.56 36.8512 121.56C36.2445 121.56 35.7645 121.817 35.4112 122.33C35.0712 122.843 34.9012 123.567 34.9012 124.5C34.9012 125.433 35.0712 126.157 35.4112 126.67Z" fill="#E3E3E3"/>
<path d="M7.59414 113H3.14414V112.37L5.66414 109.83C6.38414 109.11 6.74414 108.493 6.74414 107.98C6.74414 107.547 6.60747 107.203 6.33414 106.95C6.06747 106.69 5.73414 106.56 5.33414 106.56C4.62081 106.56 4.09747 106.89 3.76414 107.55L3.17414 107.2C3.38747 106.773 3.68414 106.447 4.06414 106.22C4.44414 105.993 4.86747 105.88 5.33414 105.88C5.89414 105.88 6.38414 106.07 6.80414 106.45C7.23081 106.817 7.44414 107.327 7.44414 107.98C7.44414 108.367 7.33747 108.747 7.12414 109.12C6.91081 109.487 6.58414 109.89 6.14414 110.33L4.14414 112.32H7.59414V113ZM12.848 113H8.39805V112.37L10.918 109.83C11.638 109.11 11.998 108.493 11.998 107.98C11.998 107.547 11.8614 107.203 11.588 106.95C11.3214 106.69 10.988 106.56 10.588 106.56C9.87471 106.56 9.35138 106.89 9.01805 107.55L8.42805 107.2C8.64138 106.773 8.93805 106.447 9.31805 106.22C9.69805 105.993 10.1214 105.88 10.588 105.88C11.148 105.88 11.638 106.07 12.058 106.45C12.4847 106.817 12.698 107.327 12.698 107.98C12.698 108.367 12.5914 108.747 12.378 109.12C12.1647 109.487 11.838 109.89 11.398 110.33L9.39805 112.32H12.848V113ZM14.6731 108.82H15.8531C16.5131 108.82 17.0665 109.013 17.5131 109.4C17.9731 109.78 18.2031 110.303 18.2031 110.97C18.2031 111.63 17.9731 112.157 17.5131 112.55C17.0665 112.93 16.5131 113.12 15.8531 113.12C15.3131 113.12 14.8365 112.99 14.4231 112.73C14.0165 112.463 13.7431 112.097 13.6031 111.63L14.1931 111.29C14.2931 111.657 14.4898 111.94 14.7831 112.14C15.0765 112.34 15.4331 112.44 15.8531 112.44C16.3465 112.44 16.7431 112.31 17.0431 112.05C17.3498 111.783 17.5031 111.423 17.5031 110.97C17.5031 110.517 17.3498 110.16 17.0431 109.9C16.7431 109.633 16.3465 109.5 15.8531 109.5H13.9531L14.2031 106H17.9531V106.66H14.8231L14.6731 108.82ZM26.2035 112.14C25.7435 112.793 25.0935 113.12 24.2535 113.12C23.4202 113.12 22.7668 112.793 22.2935 112.14C21.8335 111.48 21.6035 110.6 21.6035 109.5C21.6035 108.393 21.8335 107.517 22.2935 106.87C22.7668 106.21 23.4202 105.88 24.2535 105.88C25.0935 105.88 25.7435 106.21 26.2035 106.87C26.6702 107.517 26.9035 108.393 26.9035 109.5C26.9035 110.607 26.6702 111.487 26.2035 112.14ZM22.8135 111.67C23.1668 112.183 23.6468 112.44 24.2535 112.44C24.8668 112.44 25.3435 112.183 25.6835 111.67C26.0302 111.163 26.2035 110.44 26.2035 109.5C26.2035 108.56 26.0302 107.837 25.6835 107.33C25.3435 106.817 24.8668 106.56 24.2535 106.56C23.6468 106.56 23.1668 106.817 22.8135 107.33C22.4735 107.843 22.3035 108.567 22.3035 109.5C22.3035 110.433 22.4735 111.157 22.8135 111.67ZM32.5023 112.14C32.0423 112.793 31.3923 113.12 30.5523 113.12C29.719 113.12 29.0657 112.793 28.5923 112.14C28.1323 111.48 27.9023 110.6 27.9023 109.5C27.9023 108.393 28.1323 107.517 28.5923 106.87C29.0657 106.21 29.719 105.88 30.5523 105.88C31.3923 105.88 32.0423 106.21 32.5023 106.87C32.969 107.517 33.2023 108.393 33.2023 109.5C33.2023 110.607 32.969 111.487 32.5023 112.14ZM29.1123 111.67C29.4657 112.183 29.9457 112.44 30.5523 112.44C31.1657 112.44 31.6423 112.183 31.9823 111.67C32.329 111.163 32.5023 110.44 32.5023 109.5C32.5023 108.56 32.329 107.837 31.9823 107.33C31.6423 106.817 31.1657 106.56 30.5523 106.56C29.9457 106.56 29.4657 106.817 29.1123 107.33C28.7723 107.843 28.6023 108.567 28.6023 109.5C28.6023 110.433 28.7723 111.157 29.1123 111.67ZM38.8012 112.14C38.3412 112.793 37.6912 113.12 36.8512 113.12C36.0178 113.12 35.3645 112.793 34.8912 112.14C34.4312 111.48 34.2012 110.6 34.2012 109.5C34.2012 108.393 34.4312 107.517 34.8912 106.87C35.3645 106.21 36.0178 105.88 36.8512 105.88C37.6912 105.88 38.3412 106.21 38.8012 106.87C39.2678 107.517 39.5012 108.393 39.5012 109.5C39.5012 110.607 39.2678 111.487 38.8012 112.14ZM35.4112 111.67C35.7645 112.183 36.2445 112.44 36.8512 112.44C37.4645 112.44 37.9412 112.183 38.2812 111.67C38.6278 111.163 38.8012 110.44 38.8012 109.5C38.8012 108.56 38.6278 107.837 38.2812 107.33C37.9412 106.817 37.4645 106.56 36.8512 106.56C36.2445 106.56 35.7645 106.817 35.4112 107.33C35.0712 107.843 34.9012 108.567 34.9012 109.5C34.9012 110.433 35.0712 111.157 35.4112 111.67Z" fill="#E3E3E3"/>
<path d="M6.74453 98H2.29453V97.37L4.81453 94.83C5.53453 94.11 5.89453 93.4933 5.89453 92.98C5.89453 92.5467 5.75786 92.2033 5.48453 91.95C5.21786 91.69 4.88453 91.56 4.48453 91.56C3.7712 91.56 3.24786 91.89 2.91453 92.55L2.32453 92.2C2.53786 91.7733 2.83453 91.4467 3.21453 91.22C3.59453 90.9933 4.01786 90.88 4.48453 90.88C5.04453 90.88 5.53453 91.07 5.95453 91.45C6.3812 91.8167 6.59453 92.3267 6.59453 92.98C6.59453 93.3667 6.48786 93.7467 6.27453 94.12C6.0612 94.4867 5.73453 94.89 5.29453 95.33L3.29453 97.32H6.74453V98ZM8.56961 93.82H9.74961C10.4096 93.82 10.9629 94.0133 11.4096 94.4C11.8696 94.78 12.0996 95.3033 12.0996 95.97C12.0996 96.63 11.8696 97.1567 11.4096 97.55C10.9629 97.93 10.4096 98.12 9.74961 98.12C9.20961 98.12 8.73294 97.99 8.31961 97.73C7.91294 97.4633 7.63961 97.0967 7.49961 96.63L8.08961 96.29C8.18961 96.6567 8.38628 96.94 8.67961 97.14C8.97294 97.34 9.32961 97.44 9.74961 97.44C10.2429 97.44 10.6396 97.31 10.9396 97.05C11.2463 96.7833 11.3996 96.4233 11.3996 95.97C11.3996 95.5167 11.2463 95.16 10.9396 94.9C10.6396 94.6333 10.2429 94.5 9.74961 94.5H7.84961L8.09961 91H11.8496V91.66H8.71961L8.56961 93.82ZM17.4047 97.14C16.9447 97.7933 16.2947 98.12 15.4547 98.12C14.6214 98.12 13.968 97.7933 13.4947 97.14C13.0347 96.48 12.8047 95.6 12.8047 94.5C12.8047 93.3933 13.0347 92.5167 13.4947 91.87C13.968 91.21 14.6214 90.88 15.4547 90.88C16.2947 90.88 16.9447 91.21 17.4047 91.87C17.8714 92.5167 18.1047 93.3933 18.1047 94.5C18.1047 95.6067 17.8714 96.4867 17.4047 97.14ZM14.0147 96.67C14.368 97.1833 14.848 97.44 15.4547 97.44C16.068 97.44 16.5447 97.1833 16.8847 96.67C17.2314 96.1633 17.4047 95.44 17.4047 94.5C17.4047 93.56 17.2314 92.8367 16.8847 92.33C16.5447 91.8167 16.068 91.56 15.4547 91.56C14.848 91.56 14.368 91.8167 14.0147 92.33C13.6747 92.8433 13.5047 93.5667 13.5047 94.5C13.5047 95.4333 13.6747 96.1567 14.0147 96.67ZM26.2035 97.14C25.7435 97.7933 25.0935 98.12 24.2535 98.12C23.4202 98.12 22.7668 97.7933 22.2935 97.14C21.8335 96.48 21.6035 95.6 21.6035 94.5C21.6035 93.3933 21.8335 92.5167 22.2935 91.87C22.7668 91.21 23.4202 90.88 24.2535 90.88C25.0935 90.88 25.7435 91.21 26.2035 91.87C26.6702 92.5167 26.9035 93.3933 26.9035 94.5C26.9035 95.6067 26.6702 96.4867 26.2035 97.14ZM22.8135 96.67C23.1668 97.1833 23.6468 97.44 24.2535 97.44C24.8668 97.44 25.3435 97.1833 25.6835 96.67C26.0302 96.1633 26.2035 95.44 26.2035 94.5C26.2035 93.56 26.0302 92.8367 25.6835 92.33C25.3435 91.8167 24.8668 91.56 24.2535 91.56C23.6468 91.56 23.1668 91.8167 22.8135 92.33C22.4735 92.8433 22.3035 93.5667 22.3035 94.5C22.3035 95.4333 22.4735 96.1567 22.8135 96.67ZM32.5023 97.14C32.0423 97.7933 31.3923 98.12 30.5523 98.12C29.719 98.12 29.0657 97.7933 28.5923 97.14C28.1323 96.48 27.9023 95.6 27.9023 94.5C27.9023 93.3933 28.1323 92.5167 28.5923 91.87C29.0657 91.21 29.719 90.88 30.5523 90.88C31.3923 90.88 32.0423 91.21 32.5023 91.87C32.969 92.5167 33.2023 93.3933 33.2023 94.5C33.2023 95.6067 32.969 96.4867 32.5023 97.14ZM29.1123 96.67C29.4657 97.1833 29.9457 97.44 30.5523 97.44C31.1657 97.44 31.6423 97.1833 31.9823 96.67C32.329 96.1633 32.5023 95.44 32.5023 94.5C32.5023 93.56 32.329 92.8367 31.9823 92.33C31.6423 91.8167 31.1657 91.56 30.5523 91.56C29.9457 91.56 29.4657 91.8167 29.1123 92.33C28.7723 92.8433 28.6023 93.5667 28.6023 94.5C28.6023 95.4333 28.7723 96.1567 29.1123 96.67ZM38.8012 97.14C38.3412 97.7933 37.6912 98.12 36.8512 98.12C36.0178 98.12 35.3645 97.7933 34.8912 97.14C34.4312 96.48 34.2012 95.6 34.2012 94.5C34.2012 93.3933 34.4312 92.5167 34.8912 91.87C35.3645 91.21 36.0178 90.88 36.8512 90.88C37.6912 90.88 38.3412 91.21 38.8012 91.87C39.2678 92.5167 39.5012 93.3933 39.5012 94.5C39.5012 95.6067 39.2678 96.4867 38.8012 97.14ZM35.4112 96.67C35.7645 97.1833 36.2445 97.44 36.8512 97.44C37.4645 97.44 37.9412 97.1833 38.2812 96.67C38.6278 96.1633 38.8012 95.44 38.8012 94.5C38.8012 93.56 38.6278 92.8367 38.2812 92.33C37.9412 91.8167 37.4645 91.56 36.8512 91.56C36.2445 91.56 35.7645 91.8167 35.4112 92.33C35.0712 92.8433 34.9012 93.5667 34.9012 94.5C34.9012 95.4333 35.0712 96.1567 35.4112 96.67Z" fill="#E3E3E3"/>
<path d="M8.69766 83H4.24766V82.37L6.76766 79.83C7.48766 79.11 7.84766 78.4933 7.84766 77.98C7.84766 77.5467 7.71099 77.2033 7.43766 76.95C7.17099 76.69 6.83766 76.56 6.43766 76.56C5.72432 76.56 5.20099 76.89 4.86766 77.55L4.27766 77.2C4.49099 76.7733 4.78766 76.4467 5.16766 76.22C5.54766 75.9933 5.97099 75.88 6.43766 75.88C6.99766 75.88 7.48766 76.07 7.90766 76.45C8.33432 76.8167 8.54766 77.3267 8.54766 77.98C8.54766 78.3667 8.44099 78.7467 8.22766 79.12C8.01432 79.4867 7.68766 79.89 7.24766 80.33L5.24766 82.32H8.69766V83ZM9.10625 76.66V76H13.4063V76.66L10.7663 83H10.0363L12.6763 76.66H9.10625ZM14.6731 78.82H15.8531C16.5131 78.82 17.0665 79.0133 17.5131 79.4C17.9731 79.78 18.2031 80.3033 18.2031 80.97C18.2031 81.63 17.9731 82.1567 17.5131 82.55C17.0665 82.93 16.5131 83.12 15.8531 83.12C15.3131 83.12 14.8365 82.99 14.4231 82.73C14.0165 82.4633 13.7431 82.0967 13.6031 81.63L14.1931 81.29C14.2931 81.6567 14.4898 81.94 14.7831 82.14C15.0765 82.34 15.4331 82.44 15.8531 82.44C16.3465 82.44 16.7431 82.31 17.0431 82.05C17.3498 81.7833 17.5031 81.4233 17.5031 80.97C17.5031 80.5167 17.3498 80.16 17.0431 79.9C16.7431 79.6333 16.3465 79.5 15.8531 79.5H13.9531L14.2031 76H17.9531V76.66H14.8231L14.6731 78.82ZM26.2035 82.14C25.7435 82.7933 25.0935 83.12 24.2535 83.12C23.4202 83.12 22.7668 82.7933 22.2935 82.14C21.8335 81.48 21.6035 80.6 21.6035 79.5C21.6035 78.3933 21.8335 77.5167 22.2935 76.87C22.7668 76.21 23.4202 75.88 24.2535 75.88C25.0935 75.88 25.7435 76.21 26.2035 76.87C26.6702 77.5167 26.9035 78.3933 26.9035 79.5C26.9035 80.6067 26.6702 81.4867 26.2035 82.14ZM22.8135 81.67C23.1668 82.1833 23.6468 82.44 24.2535 82.44C24.8668 82.44 25.3435 82.1833 25.6835 81.67C26.0302 81.1633 26.2035 80.44 26.2035 79.5C26.2035 78.56 26.0302 77.8367 25.6835 77.33C25.3435 76.8167 24.8668 76.56 24.2535 76.56C23.6468 76.56 23.1668 76.8167 22.8135 77.33C22.4735 77.8433 22.3035 78.5667 22.3035 79.5C22.3035 80.4333 22.4735 81.1567 22.8135 81.67ZM32.5023 82.14C32.0423 82.7933 31.3923 83.12 30.5523 83.12C29.719 83.12 29.0657 82.7933 28.5923 82.14C28.1323 81.48 27.9023 80.6 27.9023 79.5C27.9023 78.3933 28.1323 77.5167 28.5923 76.87C29.0657 76.21 29.719 75.88 30.5523 75.88C31.3923 75.88 32.0423 76.21 32.5023 76.87C32.969 77.5167 33.2023 78.3933 33.2023 79.5C33.2023 80.6067 32.969 81.4867 32.5023 82.14ZM29.1123 81.67C29.4657 82.1833 29.9457 82.44 30.5523 82.44C31.1657 82.44 31.6423 82.1833 31.9823 81.67C32.329 81.1633 32.5023 80.44 32.5023 79.5C32.5023 78.56 32.329 77.8367 31.9823 77.33C31.6423 76.8167 31.1657 76.56 30.5523 76.56C29.9457 76.56 29.4657 76.8167 29.1123 77.33C28.7723 77.8433 28.6023 78.5667 28.6023 79.5C28.6023 80.4333 28.7723 81.1567 29.1123 81.67ZM38.8012 82.14C38.3412 82.7933 37.6912 83.12 36.8512 83.12C36.0178 83.12 35.3645 82.7933 34.8912 82.14C34.4312 81.48 34.2012 80.6 34.2012 79.5C34.2012 78.3933 34.4312 77.5167 34.8912 76.87C35.3645 76.21 36.0178 75.88 36.8512 75.88C37.6912 75.88 38.3412 76.21 38.8012 76.87C39.2678 77.5167 39.5012 78.3933 39.5012 79.5C39.5012 80.6067 39.2678 81.4867 38.8012 82.14ZM35.4112 81.67C35.7645 82.1833 36.2445 82.44 36.8512 82.44C37.4645 82.44 37.9412 82.1833 38.2812 81.67C38.6278 81.1633 38.8012 80.44 38.8012 79.5C38.8012 78.56 38.6278 77.8367 38.2812 77.33C37.9412 76.8167 37.4645 76.56 36.8512 76.56C36.2445 76.56 35.7645 76.8167 35.4112 77.33C35.0712 77.8433 34.9012 78.5667 34.9012 79.5C34.9012 80.4333 35.0712 81.1567 35.4112 81.67Z" fill="#E3E3E3"/>
<path d="M5.30313 61.66L3.67313 63.91C4.22646 63.9767 4.68646 64.1933 5.05313 64.56C5.41979 64.9067 5.60313 65.3767 5.60313 65.97C5.60313 66.63 5.37313 67.1567 4.91313 67.55C4.46646 67.93 3.91313 68.12 3.25313 68.12C2.72646 68.12 2.25979 68 1.85313 67.76C1.44646 67.5133 1.16313 67.17 1.00313 66.73L1.58313 66.39C1.69646 66.73 1.89646 66.99 2.18313 67.17C2.47646 67.35 2.83313 67.44 3.25313 67.44C3.74646 67.44 4.14313 67.31 4.44313 67.05C4.74979 66.7833 4.90313 66.4233 4.90313 65.97C4.90313 65.5167 4.74979 65.16 4.44313 64.9C4.14313 64.6333 3.74646 64.5 3.25313 64.5V64.49L3.24313 64.5H3.05313L2.75313 64.04L4.49313 61.66H1.20313V61H5.30313V61.66ZM11.1059 67.14C10.6459 67.7933 9.99586 68.12 9.15586 68.12C8.32253 68.12 7.66919 67.7933 7.19586 67.14C6.73586 66.48 6.50586 65.6 6.50586 64.5C6.50586 63.3933 6.73586 62.5167 7.19586 61.87C7.66919 61.21 8.32253 60.88 9.15586 60.88C9.99586 60.88 10.6459 61.21 11.1059 61.87C11.5725 62.5167 11.8059 63.3933 11.8059 64.5C11.8059 65.6067 11.5725 66.4867 11.1059 67.14ZM7.71586 66.67C8.06919 67.1833 8.54919 67.44 9.15586 67.44C9.76919 67.44 10.2459 67.1833 10.5859 66.67C10.9325 66.1633 11.1059 65.44 11.1059 64.5C11.1059 63.56 10.9325 62.8367 10.5859 62.33C10.2459 61.8167 9.76919 61.56 9.15586 61.56C8.54919 61.56 8.06919 61.8167 7.71586 62.33C7.37586 62.8433 7.20586 63.5667 7.20586 64.5C7.20586 65.4333 7.37586 66.1567 7.71586 66.67ZM17.4047 67.14C16.9447 67.7933 16.2947 68.12 15.4547 68.12C14.6214 68.12 13.968 67.7933 13.4947 67.14C13.0347 66.48 12.8047 65.6 12.8047 64.5C12.8047 63.3933 13.0347 62.5167 13.4947 61.87C13.968 61.21 14.6214 60.88 15.4547 60.88C16.2947 60.88 16.9447 61.21 17.4047 61.87C17.8714 62.5167 18.1047 63.3933 18.1047 64.5C18.1047 65.6067 17.8714 66.4867 17.4047 67.14ZM14.0147 66.67C14.368 67.1833 14.848 67.44 15.4547 67.44C16.068 67.44 16.5447 67.1833 16.8847 66.67C17.2314 66.1633 17.4047 65.44 17.4047 64.5C17.4047 63.56 17.2314 62.8367 16.8847 62.33C16.5447 61.8167 16.068 61.56 15.4547 61.56C14.848 61.56 14.368 61.8167 14.0147 62.33C13.6747 62.8433 13.5047 63.5667 13.5047 64.5C13.5047 65.4333 13.6747 66.1567 14.0147 66.67ZM26.2035 67.14C25.7435 67.7933 25.0935 68.12 24.2535 68.12C23.4202 68.12 22.7668 67.7933 22.2935 67.14C21.8335 66.48 21.6035 65.6 21.6035 64.5C21.6035 63.3933 21.8335 62.5167 22.2935 61.87C22.7668 61.21 23.4202 60.88 24.2535 60.88C25.0935 60.88 25.7435 61.21 26.2035 61.87C26.6702 62.5167 26.9035 63.3933 26.9035 64.5C26.9035 65.6067 26.6702 66.4867 26.2035 67.14ZM22.8135 66.67C23.1668 67.1833 23.6468 67.44 24.2535 67.44C24.8668 67.44 25.3435 67.1833 25.6835 66.67C26.0302 66.1633 26.2035 65.44 26.2035 64.5C26.2035 63.56 26.0302 62.8367 25.6835 62.33C25.3435 61.8167 24.8668 61.56 24.2535 61.56C23.6468 61.56 23.1668 61.8167 22.8135 62.33C22.4735 62.8433 22.3035 63.5667 22.3035 64.5C22.3035 65.4333 22.4735 66.1567 22.8135 66.67ZM32.5023 67.14C32.0423 67.7933 31.3923 68.12 30.5523 68.12C29.719 68.12 29.0657 67.7933 28.5923 67.14C28.1323 66.48 27.9023 65.6 27.9023 64.5C27.9023 63.3933 28.1323 62.5167 28.5923 61.87C29.0657 61.21 29.719 60.88 30.5523 60.88C31.3923 60.88 32.0423 61.21 32.5023 61.87C32.969 62.5167 33.2023 63.3933 33.2023 64.5C33.2023 65.6067 32.969 66.4867 32.5023 67.14ZM29.1123 66.67C29.4657 67.1833 29.9457 67.44 30.5523 67.44C31.1657 67.44 31.6423 67.1833 31.9823 66.67C32.329 66.1633 32.5023 65.44 32.5023 64.5C32.5023 63.56 32.329 62.8367 31.9823 62.33C31.6423 61.8167 31.1657 61.56 30.5523 61.56C29.9457 61.56 29.4657 61.8167 29.1123 62.33C28.7723 62.8433 28.6023 63.5667 28.6023 64.5C28.6023 65.4333 28.7723 66.1567 29.1123 66.67ZM38.8012 67.14C38.3412 67.7933 37.6912 68.12 36.8512 68.12C36.0178 68.12 35.3645 67.7933 34.8912 67.14C34.4312 66.48 34.2012 65.6 34.2012 64.5C34.2012 63.3933 34.4312 62.5167 34.8912 61.87C35.3645 61.21 36.0178 60.88 36.8512 60.88C37.6912 60.88 38.3412 61.21 38.8012 61.87C39.2678 62.5167 39.5012 63.3933 39.5012 64.5C39.5012 65.6067 39.2678 66.4867 38.8012 67.14ZM35.4112 66.67C35.7645 67.1833 36.2445 67.44 36.8512 67.44C37.4645 67.44 37.9412 67.1833 38.2812 66.67C38.6278 66.1633 38.8012 65.44 38.8012 64.5C38.8012 63.56 38.6278 62.8367 38.2812 62.33C37.9412 61.8167 37.4645 61.56 36.8512 61.56C36.2445 61.56 35.7645 61.8167 35.4112 62.33C35.0712 62.8433 34.9012 63.5667 34.9012 64.5C34.9012 65.4333 35.0712 66.1567 35.4112 66.67Z" fill="#E3E3E3"/>
<path d="M7.29531 46.66L5.66531 48.91C6.21865 48.9767 6.67865 49.1933 7.04531 49.56C7.41198 49.9067 7.59531 50.3767 7.59531 50.97C7.59531 51.63 7.36531 52.1567 6.90531 52.55C6.45865 52.93 5.90531 53.12 5.24531 53.12C4.71865 53.12 4.25198 53 3.84531 52.76C3.43865 52.5133 3.15531 52.17 2.99531 51.73L3.57531 51.39C3.68865 51.73 3.88865 51.99 4.17531 52.17C4.46865 52.35 4.82531 52.44 5.24531 52.44C5.73865 52.44 6.13531 52.31 6.43531 52.05C6.74198 51.7833 6.89531 51.4233 6.89531 50.97C6.89531 50.5167 6.74198 50.16 6.43531 49.9C6.13531 49.6333 5.73865 49.5 5.24531 49.5V49.49L5.23531 49.5H5.04531L4.74531 49.04L6.48531 46.66H3.19531V46H7.29531V46.66ZM12.848 53H8.39805V52.37L10.918 49.83C11.638 49.11 11.998 48.4933 11.998 47.98C11.998 47.5467 11.8614 47.2033 11.588 46.95C11.3214 46.69 10.988 46.56 10.588 46.56C9.87471 46.56 9.35138 46.89 9.01805 47.55L8.42805 47.2C8.64138 46.7733 8.93805 46.4467 9.31805 46.22C9.69805 45.9933 10.1214 45.88 10.588 45.88C11.148 45.88 11.638 46.07 12.058 46.45C12.4847 46.8167 12.698 47.3267 12.698 47.98C12.698 48.3667 12.5914 48.7467 12.378 49.12C12.1647 49.4867 11.838 49.89 11.398 50.33L9.39805 52.32H12.848V53ZM14.6731 48.82H15.8531C16.5131 48.82 17.0665 49.0133 17.5131 49.4C17.9731 49.78 18.2031 50.3033 18.2031 50.97C18.2031 51.63 17.9731 52.1567 17.5131 52.55C17.0665 52.93 16.5131 53.12 15.8531 53.12C15.3131 53.12 14.8365 52.99 14.4231 52.73C14.0165 52.4633 13.7431 52.0967 13.6031 51.63L14.1931 51.29C14.2931 51.6567 14.4898 51.94 14.7831 52.14C15.0765 52.34 15.4331 52.44 15.8531 52.44C16.3465 52.44 16.7431 52.31 17.0431 52.05C17.3498 51.7833 17.5031 51.4233 17.5031 50.97C17.5031 50.5167 17.3498 50.16 17.0431 49.9C16.7431 49.6333 16.3465 49.5 15.8531 49.5H13.9531L14.2031 46H17.9531V46.66H14.8231L14.6731 48.82ZM26.2035 52.14C25.7435 52.7933 25.0935 53.12 24.2535 53.12C23.4202 53.12 22.7668 52.7933 22.2935 52.14C21.8335 51.48 21.6035 50.6 21.6035 49.5C21.6035 48.3933 21.8335 47.5167 22.2935 46.87C22.7668 46.21 23.4202 45.88 24.2535 45.88C25.0935 45.88 25.7435 46.21 26.2035 46.87C26.6702 47.5167 26.9035 48.3933 26.9035 49.5C26.9035 50.6067 26.6702 51.4867 26.2035 52.14ZM22.8135 51.67C23.1668 52.1833 23.6468 52.44 24.2535 52.44C24.8668 52.44 25.3435 52.1833 25.6835 51.67C26.0302 51.1633 26.2035 50.44 26.2035 49.5C26.2035 48.56 26.0302 47.8367 25.6835 47.33C25.3435 46.8167 24.8668 46.56 24.2535 46.56C23.6468 46.56 23.1668 46.8167 22.8135 47.33C22.4735 47.8433 22.3035 48.5667 22.3035 49.5C22.3035 50.4333 22.4735 51.1567 22.8135 51.67ZM32.5023 52.14C32.0423 52.7933 31.3923 53.12 30.5523 53.12C29.719 53.12 29.0657 52.7933 28.5923 52.14C28.1323 51.48 27.9023 50.6 27.9023 49.5C27.9023 48.3933 28.1323 47.5167 28.5923 46.87C29.0657 46.21 29.719 45.88 30.5523 45.88C31.3923 45.88 32.0423 46.21 32.5023 46.87C32.969 47.5167 33.2023 48.3933 33.2023 49.5C33.2023 50.6067 32.969 51.4867 32.5023 52.14ZM29.1123 51.67C29.4657 52.1833 29.9457 52.44 30.5523 52.44C31.1657 52.44 31.6423 52.1833 31.9823 51.67C32.329 51.1633 32.5023 50.44 32.5023 49.5C32.5023 48.56 32.329 47.8367 31.9823 47.33C31.6423 46.8167 31.1657 46.56 30.5523 46.56C29.9457 46.56 29.4657 46.8167 29.1123 47.33C28.7723 47.8433 28.6023 48.5667 28.6023 49.5C28.6023 50.4333 28.7723 51.1567 29.1123 51.67ZM38.8012 52.14C38.3412 52.7933 37.6912 53.12 36.8512 53.12C36.0178 53.12 35.3645 52.7933 34.8912 52.14C34.4312 51.48 34.2012 50.6 34.2012 49.5C34.2012 48.3933 34.4312 47.5167 34.8912 46.87C35.3645 46.21 36.0178 45.88 36.8512 45.88C37.6912 45.88 38.3412 46.21 38.8012 46.87C39.2678 47.5167 39.5012 48.3933 39.5012 49.5C39.5012 50.6067 39.2678 51.4867 38.8012 52.14ZM35.4112 51.67C35.7645 52.1833 36.2445 52.44 36.8512 52.44C37.4645 52.44 37.9412 52.1833 38.2812 51.67C38.6278 51.1633 38.8012 50.44 38.8012 49.5C38.8012 48.56 38.6278 47.8367 38.2812 47.33C37.9412 46.8167 37.4645 46.56 36.8512 46.56C36.2445 46.56 35.7645 46.8167 35.4112 47.33C35.0712 47.8433 34.9012 48.5667 34.9012 49.5C34.9012 50.4333 35.0712 51.1567 35.4112 51.67Z" fill="#E3E3E3"/>
<path d="M6.49453 31.66L4.86453 33.91C5.41786 33.9767 5.87786 34.1933 6.24453 34.56C6.6112 34.9067 6.79453 35.3767 6.79453 35.97C6.79453 36.63 6.56453 37.1567 6.10453 37.55C5.65786 37.93 5.10453 38.12 4.44453 38.12C3.91786 38.12 3.4512 38 3.04453 37.76C2.63786 37.5133 2.35453 37.17 2.19453 36.73L2.77453 36.39C2.88786 36.73 3.08786 36.99 3.37453 37.17C3.66786 37.35 4.02453 37.44 4.44453 37.44C4.93786 37.44 5.33453 37.31 5.63453 37.05C5.9412 36.7833 6.09453 36.4233 6.09453 35.97C6.09453 35.5167 5.9412 35.16 5.63453 34.9C5.33453 34.6333 4.93786 34.5 4.44453 34.5V34.49L4.43453 34.5H4.24453L3.94453 34.04L5.68453 31.66H2.39453V31H6.49453V31.66ZM8.56961 33.82H9.74961C10.4096 33.82 10.9629 34.0133 11.4096 34.4C11.8696 34.78 12.0996 35.3033 12.0996 35.97C12.0996 36.63 11.8696 37.1567 11.4096 37.55C10.9629 37.93 10.4096 38.12 9.74961 38.12C9.20961 38.12 8.73294 37.99 8.31961 37.73C7.91294 37.4633 7.63961 37.0967 7.49961 36.63L8.08961 36.29C8.18961 36.6567 8.38628 36.94 8.67961 37.14C8.97294 37.34 9.32961 37.44 9.74961 37.44C10.2429 37.44 10.6396 37.31 10.9396 37.05C11.2463 36.7833 11.3996 36.4233 11.3996 35.97C11.3996 35.5167 11.2463 35.16 10.9396 34.9C10.6396 34.6333 10.2429 34.5 9.74961 34.5H7.84961L8.09961 31H11.8496V31.66H8.71961L8.56961 33.82ZM17.4047 37.14C16.9447 37.7933 16.2947 38.12 15.4547 38.12C14.6214 38.12 13.968 37.7933 13.4947 37.14C13.0347 36.48 12.8047 35.6 12.8047 34.5C12.8047 33.3933 13.0347 32.5167 13.4947 31.87C13.968 31.21 14.6214 30.88 15.4547 30.88C16.2947 30.88 16.9447 31.21 17.4047 31.87C17.8714 32.5167 18.1047 33.3933 18.1047 34.5C18.1047 35.6067 17.8714 36.4867 17.4047 37.14ZM14.0147 36.67C14.368 37.1833 14.848 37.44 15.4547 37.44C16.068 37.44 16.5447 37.1833 16.8847 36.67C17.2314 36.1633 17.4047 35.44 17.4047 34.5C17.4047 33.56 17.2314 32.8367 16.8847 32.33C16.5447 31.8167 16.068 31.56 15.4547 31.56C14.848 31.56 14.368 31.8167 14.0147 32.33C13.6747 32.8433 13.5047 33.5667 13.5047 34.5C13.5047 35.4333 13.6747 36.1567 14.0147 36.67ZM26.2035 37.14C25.7435 37.7933 25.0935 38.12 24.2535 38.12C23.4202 38.12 22.7668 37.7933 22.2935 37.14C21.8335 36.48 21.6035 35.6 21.6035 34.5C21.6035 33.3933 21.8335 32.5167 22.2935 31.87C22.7668 31.21 23.4202 30.88 24.2535 30.88C25.0935 30.88 25.7435 31.21 26.2035 31.87C26.6702 32.5167 26.9035 33.3933 26.9035 34.5C26.9035 35.6067 26.6702 36.4867 26.2035 37.14ZM22.8135 36.67C23.1668 37.1833 23.6468 37.44 24.2535 37.44C24.8668 37.44 25.3435 37.1833 25.6835 36.67C26.0302 36.1633 26.2035 35.44 26.2035 34.5C26.2035 33.56 26.0302 32.8367 25.6835 32.33C25.3435 31.8167 24.8668 31.56 24.2535 31.56C23.6468 31.56 23.1668 31.8167 22.8135 32.33C22.4735 32.8433 22.3035 33.5667 22.3035 34.5C22.3035 35.4333 22.4735 36.1567 22.8135 36.67ZM32.5023 37.14C32.0423 37.7933 31.3923 38.12 30.5523 38.12C29.719 38.12 29.0657 37.7933 28.5923 37.14C28.1323 36.48 27.9023 35.6 27.9023 34.5C27.9023 33.3933 28.1323 32.5167 28.5923 31.87C29.0657 31.21 29.719 30.88 30.5523 30.88C31.3923 30.88 32.0423 31.21 32.5023 31.87C32.969 32.5167 33.2023 33.3933 33.2023 34.5C33.2023 35.6067 32.969 36.4867 32.5023 37.14ZM29.1123 36.67C29.4657 37.1833 29.9457 37.44 30.5523 37.44C31.1657 37.44 31.6423 37.1833 31.9823 36.67C32.329 36.1633 32.5023 35.44 32.5023 34.5C32.5023 33.56 32.329 32.8367 31.9823 32.33C31.6423 31.8167 31.1657 31.56 30.5523 31.56C29.9457 31.56 29.4657 31.8167 29.1123 32.33C28.7723 32.8433 28.6023 33.5667 28.6023 34.5C28.6023 35.4333 28.7723 36.1567 29.1123 36.67ZM38.8012 37.14C38.3412 37.7933 37.6912 38.12 36.8512 38.12C36.0178 38.12 35.3645 37.7933 34.8912 37.14C34.4312 36.48 34.2012 35.6 34.2012 34.5C34.2012 33.3933 34.4312 32.5167 34.8912 31.87C35.3645 31.21 36.0178 30.88 36.8512 30.88C37.6912 30.88 38.3412 31.21 38.8012 31.87C39.2678 32.5167 39.5012 33.3933 39.5012 34.5C39.5012 35.6067 39.2678 36.4867 38.8012 37.14ZM35.4112 36.67C35.7645 37.1833 36.2445 37.44 36.8512 37.44C37.4645 37.44 37.9412 37.1833 38.2812 36.67C38.6278 36.1633 38.8012 35.44 38.8012 34.5C38.8012 33.56 38.6278 32.8367 38.2812 32.33C37.9412 31.8167 37.4645 31.56 36.8512 31.56C36.2445 31.56 35.7645 31.8167 35.4112 32.33C35.0712 32.8433 34.9012 33.5667 34.9012 34.5C34.9012 35.4333 35.0712 36.1567 35.4112 36.67Z" fill="#E3E3E3"/>
<path d="M8.20352 16.66L6.57352 18.91C7.12685 18.9767 7.58685 19.1933 7.95352 19.56C8.32018 19.9067 8.50352 20.3767 8.50352 20.97C8.50352 21.63 8.27352 22.1567 7.81352 22.55C7.36685 22.93 6.81352 23.12 6.15352 23.12C5.62685 23.12 5.16018 23 4.75352 22.76C4.34685 22.5133 4.06352 22.17 3.90352 21.73L4.48352 21.39C4.59685 21.73 4.79685 21.99 5.08352 22.17C5.37685 22.35 5.73352 22.44 6.15352 22.44C6.64685 22.44 7.04352 22.31 7.34352 22.05C7.65018 21.7833 7.80352 21.4233 7.80352 20.97C7.80352 20.5167 7.65018 20.16 7.34352 19.9C7.04352 19.6333 6.64685 19.5 6.15352 19.5V19.49L6.14352 19.5H5.95352L5.65352 19.04L7.39352 16.66H4.10352V16H8.20352V16.66ZM9.10625 16.66V16H13.4063V16.66L10.7663 23H10.0363L12.6763 16.66H9.10625ZM14.6731 18.82H15.8531C16.5131 18.82 17.0665 19.0133 17.5131 19.4C17.9731 19.78 18.2031 20.3033 18.2031 20.97C18.2031 21.63 17.9731 22.1567 17.5131 22.55C17.0665 22.93 16.5131 23.12 15.8531 23.12C15.3131 23.12 14.8365 22.99 14.4231 22.73C14.0165 22.4633 13.7431 22.0967 13.6031 21.63L14.1931 21.29C14.2931 21.6567 14.4898 21.94 14.7831 22.14C15.0765 22.34 15.4331 22.44 15.8531 22.44C16.3465 22.44 16.7431 22.31 17.0431 22.05C17.3498 21.7833 17.5031 21.4233 17.5031 20.97C17.5031 20.5167 17.3498 20.16 17.0431 19.9C16.7431 19.6333 16.3465 19.5 15.8531 19.5H13.9531L14.2031 16H17.9531V16.66H14.8231L14.6731 18.82ZM26.2035 22.14C25.7435 22.7933 25.0935 23.12 24.2535 23.12C23.4202 23.12 22.7668 22.7933 22.2935 22.14C21.8335 21.48 21.6035 20.6 21.6035 19.5C21.6035 18.3933 21.8335 17.5167 22.2935 16.87C22.7668 16.21 23.4202 15.88 24.2535 15.88C25.0935 15.88 25.7435 16.21 26.2035 16.87C26.6702 17.5167 26.9035 18.3933 26.9035 19.5C26.9035 20.6067 26.6702 21.4867 26.2035 22.14ZM22.8135 21.67C23.1668 22.1833 23.6468 22.44 24.2535 22.44C24.8668 22.44 25.3435 22.1833 25.6835 21.67C26.0302 21.1633 26.2035 20.44 26.2035 19.5C26.2035 18.56 26.0302 17.8367 25.6835 17.33C25.3435 16.8167 24.8668 16.56 24.2535 16.56C23.6468 16.56 23.1668 16.8167 22.8135 17.33C22.4735 17.8433 22.3035 18.5667 22.3035 19.5C22.3035 20.4333 22.4735 21.1567 22.8135 21.67ZM32.5023 22.14C32.0423 22.7933 31.3923 23.12 30.5523 23.12C29.719 23.12 29.0657 22.7933 28.5923 22.14C28.1323 21.48 27.9023 20.6 27.9023 19.5C27.9023 18.3933 28.1323 17.5167 28.5923 16.87C29.0657 16.21 29.719 15.88 30.5523 15.88C31.3923 15.88 32.0423 16.21 32.5023 16.87C32.969 17.5167 33.2023 18.3933 33.2023 19.5C33.2023 20.6067 32.969 21.4867 32.5023 22.14ZM29.1123 21.67C29.4657 22.1833 29.9457 22.44 30.5523 22.44C31.1657 22.44 31.6423 22.1833 31.9823 21.67C32.329 21.1633 32.5023 20.44 32.5023 19.5C32.5023 18.56 32.329 17.8367 31.9823 17.33C31.6423 16.8167 31.1657 16.56 30.5523 16.56C29.9457 16.56 29.4657 16.8167 29.1123 17.33C28.7723 17.8433 28.6023 18.5667 28.6023 19.5C28.6023 20.4333 28.7723 21.1567 29.1123 21.67ZM38.8012 22.14C38.3412 22.7933 37.6912 23.12 36.8512 23.12C36.0178 23.12 35.3645 22.7933 34.8912 22.14C34.4312 21.48 34.2012 20.6 34.2012 19.5C34.2012 18.3933 34.4312 17.5167 34.8912 16.87C35.3645 16.21 36.0178 15.88 36.8512 15.88C37.6912 15.88 38.3412 16.21 38.8012 16.87C39.2678 17.5167 39.5012 18.3933 39.5012 19.5C39.5012 20.6067 39.2678 21.4867 38.8012 22.14ZM35.4112 21.67C35.7645 22.1833 36.2445 22.44 36.8512 22.44C37.4645 22.44 37.9412 22.1833 38.2812 21.67C38.6278 21.1633 38.8012 20.44 38.8012 19.5C38.8012 18.56 38.6278 17.8367 38.2812 17.33C37.9412 16.8167 37.4645 16.56 36.8512 16.56C36.2445 16.56 35.7645 16.8167 35.4112 17.33C35.0712 17.8433 34.9012 18.5667 34.9012 19.5C34.9012 20.4333 35.0712 21.1567 35.4112 21.67Z" fill="#E3E3E3"/>
<path d="M4.85508 5.94H5.75508V6.6H4.85508V8H4.15508V6.6H0.455078V5.94L3.05508 1H3.82508L1.22508 5.94H4.15508V3.8H4.85508V5.94ZM11.1059 7.14C10.6459 7.79333 9.99586 8.12 9.15586 8.12C8.32253 8.12 7.66919 7.79333 7.19586 7.14C6.73586 6.48 6.50586 5.6 6.50586 4.5C6.50586 3.39333 6.73586 2.51667 7.19586 1.87C7.66919 1.21 8.32253 0.88 9.15586 0.88C9.99586 0.88 10.6459 1.21 11.1059 1.87C11.5725 2.51667 11.8059 3.39333 11.8059 4.5C11.8059 5.60667 11.5725 6.48667 11.1059 7.14ZM7.71586 6.67C8.06919 7.18333 8.54919 7.44 9.15586 7.44C9.76919 7.44 10.2459 7.18333 10.5859 6.67C10.9325 6.16333 11.1059 5.44 11.1059 4.5C11.1059 3.56 10.9325 2.83667 10.5859 2.33C10.2459 1.81667 9.76919 1.56 9.15586 1.56C8.54919 1.56 8.06919 1.81667 7.71586 2.33C7.37586 2.84333 7.20586 3.56667 7.20586 4.5C7.20586 5.43333 7.37586 6.15667 7.71586 6.67ZM17.4047 7.14C16.9447 7.79333 16.2947 8.12 15.4547 8.12C14.6214 8.12 13.968 7.79333 13.4947 7.14C13.0347 6.48 12.8047 5.6 12.8047 4.5C12.8047 3.39333 13.0347 2.51667 13.4947 1.87C13.968 1.21 14.6214 0.88 15.4547 0.88C16.2947 0.88 16.9447 1.21 17.4047 1.87C17.8714 2.51667 18.1047 3.39333 18.1047 4.5C18.1047 5.60667 17.8714 6.48667 17.4047 7.14ZM14.0147 6.67C14.368 7.18333 14.848 7.44 15.4547 7.44C16.068 7.44 16.5447 7.18333 16.8847 6.67C17.2314 6.16333 17.4047 5.44 17.4047 4.5C17.4047 3.56 17.2314 2.83667 16.8847 2.33C16.5447 1.81667 16.068 1.56 15.4547 1.56C14.848 1.56 14.368 1.81667 14.0147 2.33C13.6747 2.84333 13.5047 3.56667 13.5047 4.5C13.5047 5.43333 13.6747 6.15667 14.0147 6.67ZM26.2035 7.14C25.7435 7.79333 25.0935 8.12 24.2535 8.12C23.4202 8.12 22.7668 7.79333 22.2935 7.14C21.8335 6.48 21.6035 5.6 21.6035 4.5C21.6035 3.39333 21.8335 2.51667 22.2935 1.87C22.7668 1.21 23.4202 0.88 24.2535 0.88C25.0935 0.88 25.7435 1.21 26.2035 1.87C26.6702 2.51667 26.9035 3.39333 26.9035 4.5C26.9035 5.60667 26.6702 6.48667 26.2035 7.14ZM22.8135 6.67C23.1668 7.18333 23.6468 7.44 24.2535 7.44C24.8668 7.44 25.3435 7.18333 25.6835 6.67C26.0302 6.16333 26.2035 5.44 26.2035 4.5C26.2035 3.56 26.0302 2.83667 25.6835 2.33C25.3435 1.81667 24.8668 1.56 24.2535 1.56C23.6468 1.56 23.1668 1.81667 22.8135 2.33C22.4735 2.84333 22.3035 3.56667 22.3035 4.5C22.3035 5.43333 22.4735 6.15667 22.8135 6.67ZM32.5023 7.14C32.0423 7.79333 31.3923 8.12 30.5523 8.12C29.719 8.12 29.0657 7.79333 28.5923 7.14C28.1323 6.48 27.9023 5.6 27.9023 4.5C27.9023 3.39333 28.1323 2.51667 28.5923 1.87C29.0657 1.21 29.719 0.88 30.5523 0.88C31.3923 0.88 32.0423 1.21 32.5023 1.87C32.969 2.51667 33.2023 3.39333 33.2023 4.5C33.2023 5.60667 32.969 6.48667 32.5023 7.14ZM29.1123 6.67C29.4657 7.18333 29.9457 7.44 30.5523 7.44C31.1657 7.44 31.6423 7.18333 31.9823 6.67C32.329 6.16333 32.5023 5.44 32.5023 4.5C32.5023 3.56 32.329 2.83667 31.9823 2.33C31.6423 1.81667 31.1657 1.56 30.5523 1.56C29.9457 1.56 29.4657 1.81667 29.1123 2.33C28.7723 2.84333 28.6023 3.56667 28.6023 4.5C28.6023 5.43333 28.7723 6.15667 29.1123 6.67ZM38.8012 7.14C38.3412 7.79333 37.6912 8.12 36.8512 8.12C36.0178 8.12 35.3645 7.79333 34.8912 7.14C34.4312 6.48 34.2012 5.6 34.2012 4.5C34.2012 3.39333 34.4312 2.51667 34.8912 1.87C35.3645 1.21 36.0178 0.88 36.8512 0.88C37.6912 0.88 38.3412 1.21 38.8012 1.87C39.2678 2.51667 39.5012 3.39333 39.5012 4.5C39.5012 5.60667 39.2678 6.48667 38.8012 7.14ZM35.4112 6.67C35.7645 7.18333 36.2445 7.44 36.8512 7.44C37.4645 7.44 37.9412 7.18333 38.2812 6.67C38.6278 6.16333 38.8012 5.44 38.8012 4.5C38.8012 3.56 38.6278 2.83667 38.2812 2.33C37.9412 1.81667 37.4645 1.56 36.8512 1.56C36.2445 1.56 35.7645 1.81667 35.4112 2.33C35.0712 2.84333 34.9012 3.56667 34.9012 4.5C34.9012 5.43333 35.0712 6.15667 35.4112 6.67Z" fill="#E3E3E3"/>
<path d="M51.8 226V232.34H52.55V234.34H51.85V233H46.85V234.34H46.15V232.34H46.72C47.18 231.8 47.41 230.967 47.41 229.84V226H51.8ZM47.55 232.34H51.1V226.66H48.11V229.86C48.11 230.96 47.9233 231.787 47.55 232.34ZM55.719 227.88C56.4657 227.88 57.0623 228.143 57.509 228.67C57.969 229.19 58.199 229.807 58.199 230.52C58.199 230.553 58.1923 230.657 58.179 230.83H53.789C53.8557 231.33 54.069 231.73 54.429 232.03C54.789 232.33 55.239 232.48 55.779 232.48C56.539 232.48 57.0757 232.197 57.389 231.63L57.969 231.97C57.749 232.33 57.4457 232.613 57.059 232.82C56.679 233.02 56.249 233.12 55.769 233.12C54.9823 233.12 54.3423 232.873 53.849 232.38C53.3557 231.887 53.109 231.26 53.109 230.5C53.109 229.747 53.3523 229.123 53.839 228.63C54.3257 228.13 54.9523 227.88 55.719 227.88ZM55.719 228.52C55.199 228.52 54.7623 228.673 54.409 228.98C54.0623 229.287 53.8557 229.69 53.789 230.19H57.519C57.4457 229.657 57.2423 229.247 56.909 228.96C56.5623 228.667 56.1657 228.52 55.719 228.52ZM60.6088 230.4L63.2888 233H62.4088L59.9088 230.59V233H59.2488V228H59.9088V230.21L62.2888 228H63.1888L60.6088 230.4ZM66.1402 226.64L67.9902 226H68.5902V233H67.8902V226.77L66.3202 227.24L66.1402 226.64ZM69.5887 226.66V226H73.8887V226.66L71.2487 233H70.5187L73.1587 226.66H69.5887Z" fill="#E3E3E3"/>
<path d="M137.33 226H138.2V233H137.5V227.06L135.05 231.16H134.95L132.5 227.06V233H131.8V226H132.67L135 229.9L137.33 226ZM143.998 228.98V228H144.658V233H143.998V232.02C143.538 232.753 142.865 233.12 141.978 233.12C141.265 233.12 140.655 232.867 140.148 232.36C139.648 231.853 139.398 231.233 139.398 230.5C139.398 229.767 139.648 229.147 140.148 228.64C140.655 228.133 141.265 227.88 141.978 227.88C142.865 227.88 143.538 228.247 143.998 228.98ZM140.628 231.91C141.008 232.29 141.475 232.48 142.028 232.48C142.581 232.48 143.048 232.29 143.428 231.91C143.808 231.517 143.998 231.047 143.998 230.5C143.998 229.947 143.808 229.48 143.428 229.1C143.048 228.713 142.581 228.52 142.028 228.52C141.475 228.52 141.008 228.713 140.628 229.1C140.248 229.48 140.058 229.947 140.058 230.5C140.058 231.047 140.248 231.517 140.628 231.91ZM148.735 227.88C149.449 227.88 150.055 228.133 150.555 228.64C151.062 229.147 151.315 229.767 151.315 230.5C151.315 231.233 151.062 231.853 150.555 232.36C150.055 232.867 149.449 233.12 148.735 233.12C147.849 233.12 147.175 232.753 146.715 232.02V235H146.055V228H146.715V228.98C147.175 228.247 147.849 227.88 148.735 227.88ZM147.285 231.91C147.665 232.29 148.132 232.48 148.685 232.48C149.239 232.48 149.705 232.29 150.085 231.91C150.465 231.517 150.655 231.047 150.655 230.5C150.655 229.947 150.465 229.48 150.085 229.1C149.705 228.713 149.239 228.52 148.685 228.52C148.132 228.52 147.665 228.713 147.285 229.1C146.905 229.48 146.715 229.947 146.715 230.5C146.715 231.047 146.905 231.517 147.285 231.91ZM151.618 228H155.818V228.64H154.048V233H153.388V228.64H151.618V228ZM158.572 226.64L160.422 226H161.022V233H160.322V226.77L158.752 227.24L158.572 226.64ZM165.74 229.39C166.1 229.557 166.384 229.79 166.59 230.09C166.797 230.39 166.9 230.727 166.9 231.1C166.9 231.733 166.677 232.23 166.23 232.59C165.777 232.943 165.22 233.12 164.56 233.12C163.9 233.12 163.344 232.943 162.89 232.59C162.444 232.23 162.22 231.733 162.22 231.1C162.22 230.727 162.324 230.39 162.53 230.09C162.737 229.79 163.02 229.557 163.38 229.39C162.76 229.037 162.45 228.513 162.45 227.82C162.45 227.193 162.657 226.713 163.07 226.38C163.497 226.047 163.994 225.88 164.56 225.88C165.134 225.88 165.627 226.047 166.04 226.38C166.46 226.713 166.67 227.193 166.67 227.82C166.67 228.513 166.36 229.037 165.74 229.39ZM163.15 227.82C163.15 228.207 163.284 228.513 163.55 228.74C163.824 228.967 164.16 229.08 164.56 229.08C164.96 229.08 165.294 228.967 165.56 228.74C165.834 228.513 165.97 228.207 165.97 227.82C165.97 227.413 165.84 227.103 165.58 226.89C165.32 226.67 164.98 226.56 164.56 226.56C164.14 226.56 163.8 226.67 163.54 226.89C163.28 227.103 163.15 227.413 163.15 227.82ZM163.37 232.1C163.664 232.327 164.06 232.44 164.56 232.44C165.06 232.44 165.457 232.327 165.75 232.1C166.05 231.867 166.2 231.533 166.2 231.1C166.2 230.673 166.05 230.343 165.75 230.11C165.444 229.877 165.047 229.76 164.56 229.76C164.074 229.76 163.677 229.877 163.37 230.11C163.07 230.343 162.92 230.673 162.92 231.1C162.92 231.54 163.07 231.873 163.37 232.1Z" fill="#E3E3E3"/>
<path d="M220.37 232.21V233H219.67V232.21C218.65 232.157 217.833 231.9 217.22 231.44C216.607 230.967 216.3 230.32 216.3 229.5C216.3 228.68 216.607 228.033 217.22 227.56C217.833 227.1 218.65 226.843 219.67 226.79V226H220.37V226.79C221.397 226.843 222.21 227.1 222.81 227.56C223.43 228.033 223.74 228.68 223.74 229.5C223.74 230.327 223.43 230.973 222.81 231.44C222.21 231.9 221.397 232.157 220.37 232.21ZM219.67 231.57V227.43C218.837 227.47 218.183 227.67 217.71 228.03C217.237 228.383 217 228.873 217 229.5C217 230.127 217.237 230.62 217.71 230.98C218.183 231.333 218.837 231.53 219.67 231.57ZM220.37 227.43V231.57C221.203 231.53 221.857 231.333 222.33 230.98C222.803 230.62 223.04 230.127 223.04 229.5C223.04 228.873 222.803 228.383 222.33 228.03C221.857 227.67 221.203 227.47 220.37 227.43ZM227.047 227.88C227.794 227.88 228.39 228.143 228.837 228.67C229.297 229.19 229.527 229.807 229.527 230.52C229.527 230.553 229.52 230.657 229.507 230.83H225.117C225.184 231.33 225.397 231.73 225.757 232.03C226.117 232.33 226.567 232.48 227.107 232.48C227.867 232.48 228.404 232.197 228.717 231.63L229.297 231.97C229.077 232.33 228.774 232.613 228.387 232.82C228.007 233.02 227.577 233.12 227.097 233.12C226.31 233.12 225.67 232.873 225.177 232.38C224.684 231.887 224.437 231.26 224.437 230.5C224.437 229.747 224.68 229.123 225.167 228.63C225.654 228.13 226.28 227.88 227.047 227.88ZM227.047 228.52C226.527 228.52 226.09 228.673 225.737 228.98C225.39 229.287 225.184 229.69 225.117 230.19H228.847C228.774 229.657 228.57 229.247 228.237 228.96C227.89 228.667 227.494 228.52 227.047 228.52ZM233.757 230.43C234.304 230.63 234.577 231.02 234.577 231.6C234.577 232.013 234.437 232.35 234.157 232.61C233.884 232.87 233.5 233 233.007 233H230.577V228H232.807C233.287 228 233.66 228.123 233.927 228.37C234.2 228.617 234.337 228.94 234.337 229.34C234.337 229.84 234.144 230.203 233.757 230.43ZM232.807 228.64H231.237V230.16H232.807C233.387 230.16 233.677 229.9 233.677 229.38C233.677 229.147 233.6 228.967 233.447 228.84C233.3 228.707 233.087 228.64 232.807 228.64ZM231.237 232.36H233.007C233.3 232.36 233.524 232.29 233.677 232.15C233.837 232.01 233.917 231.813 233.917 231.56C233.917 231.32 233.837 231.133 233.677 231C233.524 230.867 233.3 230.8 233.007 230.8H231.237V232.36ZM237.527 226.64L239.377 226H239.977V233H239.277V226.77L237.707 227.24L237.527 226.64ZM245.775 228.19C245.775 228.717 245.632 229.183 245.345 229.59L243.055 233H242.265L243.985 230.44C243.805 230.48 243.619 230.5 243.425 230.5C242.732 230.5 242.169 230.287 241.735 229.86C241.295 229.433 241.075 228.877 241.075 228.19C241.075 227.517 241.295 226.963 241.735 226.53C242.182 226.097 242.745 225.88 243.425 225.88C244.105 225.88 244.669 226.097 245.115 226.53C245.555 226.963 245.775 227.517 245.775 228.19ZM242.225 227.01C241.925 227.31 241.775 227.703 241.775 228.19C241.775 228.677 241.925 229.07 242.225 229.37C242.539 229.67 242.939 229.82 243.425 229.82C243.919 229.82 244.315 229.67 244.615 229.37C244.922 229.07 245.075 228.677 245.075 228.19C245.075 227.703 244.922 227.31 244.615 227.01C244.315 226.71 243.919 226.56 243.425 226.56C242.939 226.56 242.539 226.71 242.225 227.01Z" fill="#E3E3E3"/>
<path d="M306.3 229.07V226H307V233H306.3V229.73H302.5V233H301.8V226H302.5V229.07H306.3ZM312.687 232.37C312.174 232.87 311.554 233.12 310.827 233.12C310.087 233.12 309.464 232.87 308.957 232.37C308.45 231.863 308.197 231.24 308.197 230.5C308.197 229.76 308.45 229.14 308.957 228.64C309.464 228.133 310.087 227.88 310.827 227.88C311.56 227.88 312.18 228.133 312.687 228.64C313.2 229.14 313.457 229.76 313.457 230.5C313.457 231.233 313.2 231.857 312.687 232.37ZM309.427 231.91C309.807 232.29 310.274 232.48 310.827 232.48C311.38 232.48 311.847 232.29 312.227 231.91C312.607 231.517 312.797 231.047 312.797 230.5C312.797 229.947 312.607 229.48 312.227 229.1C311.847 228.713 311.38 228.52 310.827 228.52C310.274 228.52 309.807 228.713 309.427 229.1C309.047 229.48 308.857 229.947 308.857 230.5C308.857 231.047 309.047 231.517 309.427 231.91ZM315.936 228H317.966V233H317.306V231.08H316.446L314.906 233H314.066L315.646 231.06C315.239 231 314.906 230.833 314.646 230.56C314.393 230.28 314.266 229.943 314.266 229.55C314.266 229.103 314.426 228.733 314.746 228.44C315.079 228.147 315.476 228 315.936 228ZM315.936 230.46H317.306V228.64H315.936C315.649 228.64 315.409 228.727 315.216 228.9C315.023 229.067 314.926 229.283 314.926 229.55C314.926 229.817 315.023 230.037 315.216 230.21C315.409 230.377 315.649 230.46 315.936 230.46ZM321.316 226.64L323.166 226H323.766V233H323.066V226.77L321.496 227.24L321.316 226.64ZM329.564 228.19C329.564 228.717 329.421 229.183 329.134 229.59L326.844 233H326.054L327.774 230.44C327.594 230.48 327.408 230.5 327.214 230.5C326.521 230.5 325.958 230.287 325.524 229.86C325.084 229.433 324.864 228.877 324.864 228.19C324.864 227.517 325.084 226.963 325.524 226.53C325.971 226.097 326.534 225.88 327.214 225.88C327.894 225.88 328.458 226.097 328.904 226.53C329.344 226.963 329.564 227.517 329.564 228.19ZM326.014 227.01C325.714 227.31 325.564 227.703 325.564 228.19C325.564 228.677 325.714 229.07 326.014 229.37C326.328 229.67 326.728 229.82 327.214 229.82C327.708 229.82 328.104 229.67 328.404 229.37C328.711 229.07 328.864 228.677 328.864 228.19C328.864 227.703 328.711 227.31 328.404 227.01C328.104 226.71 327.708 226.56 327.214 226.56C326.728 226.56 326.328 226.71 326.014 227.01Z" fill="#E3E3E3"/>
<path d="M390.07 233.12C389.003 233.12 388.127 232.77 387.44 232.07C386.747 231.363 386.4 230.507 386.4 229.5C386.4 228.493 386.747 227.637 387.44 226.93C388.127 226.23 389.003 225.88 390.07 225.88C390.71 225.88 391.3 226.037 391.84 226.35C392.38 226.657 392.8 227.073 393.1 227.6L392.48 227.96C392.26 227.533 391.933 227.193 391.5 226.94C391.067 226.687 390.59 226.56 390.07 226.56C389.19 226.56 388.477 226.843 387.93 227.41C387.377 227.983 387.1 228.68 387.1 229.5C387.1 230.32 387.377 231.017 387.93 231.59C388.477 232.157 389.19 232.44 390.07 232.44C390.59 232.44 391.067 232.313 391.5 232.06C391.933 231.807 392.26 231.467 392.48 231.04L393.1 231.39C392.813 231.917 392.397 232.337 391.85 232.65C391.303 232.963 390.71 233.12 390.07 233.12ZM396.412 227.88C397.159 227.88 397.756 228.143 398.202 228.67C398.662 229.19 398.892 229.807 398.892 230.52C398.892 230.553 398.886 230.657 398.872 230.83H394.482C394.549 231.33 394.762 231.73 395.122 232.03C395.482 232.33 395.932 232.48 396.472 232.48C397.232 232.48 397.769 232.197 398.082 231.63L398.662 231.97C398.442 232.33 398.139 232.613 397.752 232.82C397.372 233.02 396.942 233.12 396.462 233.12C395.676 233.12 395.036 232.873 394.542 232.38C394.049 231.887 393.802 231.26 393.802 230.5C393.802 229.747 394.046 229.123 394.532 228.63C395.019 228.13 395.646 227.88 396.412 227.88ZM396.412 228.52C395.892 228.52 395.456 228.673 395.102 228.98C394.756 229.287 394.549 229.69 394.482 230.19H398.212C398.139 229.657 397.936 229.247 397.602 228.96C397.256 228.667 396.859 228.52 396.412 228.52ZM403.482 230.18V228H404.142V233H403.482V230.82H400.602V233H399.942V228H400.602V230.18H403.482ZM404.938 228H409.138V228.64H407.368V233H406.708V228.64H404.938V228ZM416.592 233H412.142V232.37L414.662 229.83C415.382 229.11 415.742 228.493 415.742 227.98C415.742 227.547 415.606 227.203 415.332 226.95C415.066 226.69 414.732 226.56 414.332 226.56C413.619 226.56 413.096 226.89 412.762 227.55L412.172 227.2C412.386 226.773 412.682 226.447 413.062 226.22C413.442 225.993 413.866 225.88 414.332 225.88C414.892 225.88 415.382 226.07 415.802 226.45C416.229 226.817 416.442 227.327 416.442 227.98C416.442 228.367 416.336 228.747 416.122 229.12C415.909 229.487 415.582 229.89 415.142 230.33L413.142 232.32H416.592V233ZM421.998 232.14C421.538 232.793 420.888 233.12 420.048 233.12C419.215 233.12 418.562 232.793 418.088 232.14C417.628 231.48 417.398 230.6 417.398 229.5C417.398 228.393 417.628 227.517 418.088 226.87C418.562 226.21 419.215 225.88 420.048 225.88C420.888 225.88 421.538 226.21 421.998 226.87C422.465 227.517 422.698 228.393 422.698 229.5C422.698 230.607 422.465 231.487 421.998 232.14ZM418.608 231.67C418.962 232.183 419.442 232.44 420.048 232.44C420.662 232.44 421.138 232.183 421.478 231.67C421.825 231.163 421.998 230.44 421.998 229.5C421.998 228.56 421.825 227.837 421.478 227.33C421.138 226.817 420.662 226.56 420.048 226.56C419.442 226.56 418.962 226.817 418.608 227.33C418.268 227.843 418.098 228.567 418.098 229.5C418.098 230.433 418.268 231.157 418.608 231.67Z" fill="#E3E3E3"/>
<path d="M475.37 232.21V233H474.67V232.21C473.65 232.157 472.833 231.9 472.22 231.44C471.607 230.967 471.3 230.32 471.3 229.5C471.3 228.68 471.607 228.033 472.22 227.56C472.833 227.1 473.65 226.843 474.67 226.79V226H475.37V226.79C476.397 226.843 477.21 227.1 477.81 227.56C478.43 228.033 478.74 228.68 478.74 229.5C478.74 230.327 478.43 230.973 477.81 231.44C477.21 231.9 476.397 232.157 475.37 232.21ZM474.67 231.57V227.43C473.837 227.47 473.183 227.67 472.71 228.03C472.237 228.383 472 228.873 472 229.5C472 230.127 472.237 230.62 472.71 230.98C473.183 231.333 473.837 231.53 474.67 231.57ZM475.37 227.43V231.57C476.203 231.53 476.857 231.333 477.33 230.98C477.803 230.62 478.04 230.127 478.04 229.5C478.04 228.873 477.803 228.383 477.33 228.03C476.857 227.67 476.203 227.47 475.37 227.43ZM482.047 227.88C482.794 227.88 483.39 228.143 483.837 228.67C484.297 229.19 484.527 229.807 484.527 230.52C484.527 230.553 484.52 230.657 484.507 230.83H480.117C480.184 231.33 480.397 231.73 480.757 232.03C481.117 232.33 481.567 232.48 482.107 232.48C482.867 232.48 483.404 232.197 483.717 231.63L484.297 231.97C484.077 232.33 483.774 232.613 483.387 232.82C483.007 233.02 482.577 233.12 482.097 233.12C481.31 233.12 480.67 232.873 480.177 232.38C479.684 231.887 479.437 231.26 479.437 230.5C479.437 229.747 479.68 229.123 480.167 228.63C480.654 228.13 481.28 227.88 482.047 227.88ZM482.047 228.52C481.527 228.52 481.09 228.673 480.737 228.98C480.39 229.287 480.184 229.69 480.117 230.19H483.847C483.774 229.657 483.57 229.247 483.237 228.96C482.89 228.667 482.494 228.52 482.047 228.52ZM488.757 230.43C489.304 230.63 489.577 231.02 489.577 231.6C489.577 232.013 489.437 232.35 489.157 232.61C488.884 232.87 488.5 233 488.007 233H485.577V228H487.807C488.287 228 488.66 228.123 488.927 228.37C489.2 228.617 489.337 228.94 489.337 229.34C489.337 229.84 489.144 230.203 488.757 230.43ZM487.807 228.64H486.237V230.16H487.807C488.387 230.16 488.677 229.9 488.677 229.38C488.677 229.147 488.6 228.967 488.447 228.84C488.3 228.707 488.087 228.64 487.807 228.64ZM486.237 232.36H488.007C488.3 232.36 488.524 232.29 488.677 232.15C488.837 232.01 488.917 231.813 488.917 231.56C488.917 231.32 488.837 231.133 488.677 231C488.524 230.867 488.3 230.8 488.007 230.8H486.237V232.36ZM497.227 233H492.777V232.37L495.297 229.83C496.017 229.11 496.377 228.493 496.377 227.98C496.377 227.547 496.24 227.203 495.967 226.95C495.7 226.69 495.367 226.56 494.967 226.56C494.254 226.56 493.73 226.89 493.397 227.55L492.807 227.2C493.02 226.773 493.317 226.447 493.697 226.22C494.077 225.993 494.5 225.88 494.967 225.88C495.527 225.88 496.017 226.07 496.437 226.45C496.864 226.817 497.077 227.327 497.077 227.98C497.077 228.367 496.97 228.747 496.757 229.12C496.544 229.487 496.217 229.89 495.777 230.33L493.777 232.32H497.227V233ZM497.781 226.64L499.631 226H500.231V233H499.531V226.77L497.961 227.24L497.781 226.64Z" fill="#E3E3E3"/>
<circle cx="46" cy="220" r="3" fill="#00F0FF"/>
<circle cx="131" cy="196" r="3" fill="#FFB11B"/>
<circle cx="216" cy="160" r="3" fill="#FFB11B"/>
<circle cx="301" cy="175" r="3" fill="#FFB11B"/>
<circle cx="386" cy="106" r="3" fill="#FFB11B"/>
<circle cx="471" cy="118" r="3" fill="#FFB11B"/>
<circle cx="556" cy="16" r="3" fill="#FFB11B"/>
<path d="M556 220V16C522.5 24.5 489.5 108 471 118C452.5 128 415 100 386 106C357 112 318.5 171 301 175C283.5 179 233.5 157.5 216 160C198.5 162.5 154.5 184 131 196C107.5 208 46 220 46 220H556Z" fill="url(#paint0_linear_18_1341)"/>
<path d="M556 220V16C522.5 24.5 489.5 108 471 118C452.5 128 415 100 386 106C357 112 318.5 171 301 175C283.5 179 233.5 157.5 216 160C198.5 162.5 154.5 184 131 196C107.5 208 46 220 46 220H556Z" stroke="#FFB11B"/>
<defs>
<linearGradient id="paint0_linear_18_1341" x1="301" y1="43.5" x2="301" y2="220" gradientUnits="userSpaceOnUse">
<stop stop-color="#FFC700" stop-opacity="0.5"/>
<stop offset="1" stop-color="#FFC700" stop-opacity="0.2"/>
</linearGradient>
</defs>
</svg>
