<svg width="549" height="232" viewBox="0 0 549 232" fill="none" xmlns="http://www.w3.org/2000/svg">
<g opacity="0.3">
<line x1="36" y1="6.50006" x2="547" y2="6.50002" stroke="#FFB11B" stroke-dasharray="2 2"/>
<line x1="36" y1="32.5001" x2="547" y2="32.5001" stroke="#FFB11B" stroke-dasharray="2 2"/>
<line x1="36" y1="58.5002" x2="547" y2="58.5001" stroke="#FFB11B" stroke-dasharray="2 2"/>
<line x1="36" y1="84.5" x2="547" y2="84.5" stroke="#FFB11B" stroke-dasharray="2 2"/>
<line x1="36" y1="110.5" x2="547" y2="110.5" stroke="#FFB11B" stroke-dasharray="2 2"/>
<line x1="36" y1="136.5" x2="547" y2="136.5" stroke="#FFB11B" stroke-dasharray="2 2"/>
<line x1="36" y1="162.5" x2="547" y2="162.5" stroke="#FFB11B" stroke-dasharray="2 2"/>
<line x1="36" y1="188.5" x2="547" y2="188.5" stroke="#FFB11B" stroke-dasharray="2 2"/>
<line x1="36" y1="214.5" x2="547" y2="214.5" stroke="#FFB11B" stroke-dasharray="2 2"/>
<line x1="36.5" y1="6" x2="36.5" y2="215" stroke="#FFB11B" stroke-dasharray="2 2"/>
<line x1="100.5" y1="6" x2="100.5" y2="215" stroke="#FFB11B" stroke-dasharray="2 2"/>
<line x1="164.5" y1="6" x2="164.5" y2="215" stroke="#FFB11B" stroke-dasharray="2 2"/>
<line x1="228.5" y1="6" x2="228.5" y2="215" stroke="#FFB11B" stroke-dasharray="2 2"/>
<line x1="292.5" y1="6" x2="292.5" y2="215" stroke="#FFB11B" stroke-dasharray="2 2"/>
<line x1="356.5" y1="6" x2="356.5" y2="215" stroke="#FFB11B" stroke-dasharray="2 2"/>
<line x1="420.5" y1="6" x2="420.5" y2="215" stroke="#FFB11B" stroke-dasharray="2 2"/>
<line x1="484.5" y1="6" x2="484.5" y2="215" stroke="#FFB11B" stroke-dasharray="2 2"/>
<line x1="548.5" y1="6" x2="548.5" y2="215" stroke="#FFB11B" stroke-dasharray="2 2"/>
</g>
<path d="M28.9211 212.226C28.5071 212.814 27.9221 213.108 27.1661 213.108C26.4161 213.108 25.8281 212.814 25.4021 212.226C24.9881 211.632 24.7811 210.84 24.7811 209.85C24.7811 208.854 24.9881 208.065 25.4021 207.483C25.8281 206.889 26.4161 206.592 27.1661 206.592C27.9221 206.592 28.5071 206.889 28.9211 207.483C29.3411 208.065 29.5511 208.854 29.5511 209.85C29.5511 210.846 29.3411 211.638 28.9211 212.226ZM25.8701 211.803C26.1881 212.265 26.6201 212.496 27.1661 212.496C27.7181 212.496 28.1471 212.265 28.4531 211.803C28.7651 211.347 28.9211 210.696 28.9211 209.85C28.9211 209.004 28.7651 208.353 28.4531 207.897C28.1471 207.435 27.7181 207.204 27.1661 207.204C26.6201 207.204 26.1881 207.435 25.8701 207.897C25.5641 208.359 25.4111 209.01 25.4111 209.85C25.4111 210.69 25.5641 211.341 25.8701 211.803Z" fill="#E3E3E3"/>
<path d="M11.364 187H7.35902V186.433L9.62702 184.147C10.275 183.499 10.599 182.944 10.599 182.482C10.599 182.092 10.476 181.783 10.23 181.555C9.99002 181.321 9.69002 181.204 9.33002 181.204C8.68802 181.204 8.21702 181.501 7.91702 182.095L7.38602 181.78C7.57802 181.396 7.84502 181.102 8.18702 180.898C8.52902 180.694 8.91002 180.592 9.33002 180.592C9.83402 180.592 10.275 180.763 10.653 181.105C11.037 181.435 11.229 181.894 11.229 182.482C11.229 182.83 11.133 183.172 10.941 183.508C10.749 183.838 10.455 184.201 10.059 184.597L8.25902 186.388H11.364V187ZM15.3005 183.238H16.3625C16.9565 183.238 17.4545 183.412 17.8565 183.76C18.2705 184.102 18.4775 184.573 18.4775 185.173C18.4775 185.767 18.2705 186.241 17.8565 186.595C17.4545 186.937 16.9565 187.108 16.3625 187.108C15.8765 187.108 15.4475 186.991 15.0755 186.757C14.7095 186.517 14.4635 186.187 14.3375 185.767L14.8685 185.461C14.9585 185.791 15.1355 186.046 15.3995 186.226C15.6635 186.406 15.9845 186.496 16.3625 186.496C16.8065 186.496 17.1635 186.379 17.4335 186.145C17.7095 185.905 17.8475 185.581 17.8475 185.173C17.8475 184.765 17.7095 184.444 17.4335 184.21C17.1635 183.97 16.8065 183.85 16.3625 183.85H14.6525L14.8775 180.7H18.2525V181.294H15.4355L15.3005 183.238ZM23.2521 186.226C22.8381 186.814 22.2531 187.108 21.4971 187.108C20.7471 187.108 20.1591 186.814 19.7331 186.226C19.3191 185.632 19.1121 184.84 19.1121 183.85C19.1121 182.854 19.3191 182.065 19.7331 181.483C20.1591 180.889 20.7471 180.592 21.4971 180.592C22.2531 180.592 22.8381 180.889 23.2521 181.483C23.6721 182.065 23.8821 182.854 23.8821 183.85C23.8821 184.846 23.6721 185.638 23.2521 186.226ZM20.2011 185.803C20.5191 186.265 20.9511 186.496 21.4971 186.496C22.0491 186.496 22.4781 186.265 22.7841 185.803C23.0961 185.347 23.2521 184.696 23.2521 183.85C23.2521 183.004 23.0961 182.353 22.7841 181.897C22.4781 181.435 22.0491 181.204 21.4971 181.204C20.9511 181.204 20.5191 181.435 20.2011 181.897C19.8951 182.359 19.7421 183.01 19.7421 183.85C19.7421 184.69 19.8951 185.341 20.2011 185.803ZM28.9211 186.226C28.5071 186.814 27.9221 187.108 27.1661 187.108C26.4161 187.108 25.8281 186.814 25.4021 186.226C24.9881 185.632 24.7811 184.84 24.7811 183.85C24.7811 182.854 24.9881 182.065 25.4021 181.483C25.8281 180.889 26.4161 180.592 27.1661 180.592C27.9221 180.592 28.5071 180.889 28.9211 181.483C29.3411 182.065 29.5511 182.854 29.5511 183.85C29.5511 184.846 29.3411 185.638 28.9211 186.226ZM25.8701 185.803C26.1881 186.265 26.6201 186.496 27.1661 186.496C27.7181 186.496 28.1471 186.265 28.4531 185.803C28.7651 185.347 28.9211 184.696 28.9211 183.85C28.9211 183.004 28.7651 182.353 28.4531 181.897C28.1471 181.435 27.7181 181.204 27.1661 181.204C26.6201 181.204 26.1881 181.435 25.8701 181.897C25.5641 182.359 25.4111 183.01 25.4111 183.85C25.4111 184.69 25.5641 185.341 25.8701 185.803Z" fill="#E3E3E3"/>
<path d="M7.20581 157.238H8.26781C8.86181 157.238 9.35981 157.412 9.76181 157.76C10.1758 158.102 10.3828 158.573 10.3828 159.173C10.3828 159.767 10.1758 160.241 9.76181 160.595C9.35981 160.937 8.86181 161.108 8.26781 161.108C7.78181 161.108 7.35281 160.991 6.98081 160.757C6.61481 160.517 6.36881 160.187 6.24281 159.767L6.77381 159.461C6.86381 159.791 7.04081 160.046 7.30481 160.226C7.56881 160.406 7.88981 160.496 8.26781 160.496C8.71181 160.496 9.06881 160.379 9.33881 160.145C9.61481 159.905 9.75281 159.581 9.75281 159.173C9.75281 158.765 9.61481 158.444 9.33881 158.21C9.06881 157.97 8.71181 157.85 8.26781 157.85H6.55781L6.78281 154.7H10.1578V155.294H7.34081L7.20581 157.238ZM17.5832 160.226C17.1692 160.814 16.5842 161.108 15.8282 161.108C15.0782 161.108 14.4902 160.814 14.0642 160.226C13.6502 159.632 13.4432 158.84 13.4432 157.85C13.4432 156.854 13.6502 156.065 14.0642 155.483C14.4902 154.889 15.0782 154.592 15.8282 154.592C16.5842 154.592 17.1692 154.889 17.5832 155.483C18.0032 156.065 18.2132 156.854 18.2132 157.85C18.2132 158.846 18.0032 159.638 17.5832 160.226ZM14.5322 159.803C14.8502 160.265 15.2822 160.496 15.8282 160.496C16.3802 160.496 16.8092 160.265 17.1152 159.803C17.4272 159.347 17.5832 158.696 17.5832 157.85C17.5832 157.004 17.4272 156.353 17.1152 155.897C16.8092 155.435 16.3802 155.204 15.8282 155.204C15.2822 155.204 14.8502 155.435 14.5322 155.897C14.2262 156.359 14.0732 157.01 14.0732 157.85C14.0732 158.69 14.2262 159.341 14.5322 159.803ZM23.2521 160.226C22.8381 160.814 22.2531 161.108 21.4971 161.108C20.7471 161.108 20.1591 160.814 19.7331 160.226C19.3191 159.632 19.1121 158.84 19.1121 157.85C19.1121 156.854 19.3191 156.065 19.7331 155.483C20.1591 154.889 20.7471 154.592 21.4971 154.592C22.2531 154.592 22.8381 154.889 23.2521 155.483C23.6721 156.065 23.8821 156.854 23.8821 157.85C23.8821 158.846 23.6721 159.638 23.2521 160.226ZM20.2011 159.803C20.5191 160.265 20.9511 160.496 21.4971 160.496C22.0491 160.496 22.4781 160.265 22.7841 159.803C23.0961 159.347 23.2521 158.696 23.2521 157.85C23.2521 157.004 23.0961 156.353 22.7841 155.897C22.4781 155.435 22.0491 155.204 21.4971 155.204C20.9511 155.204 20.5191 155.435 20.2011 155.897C19.8951 156.359 19.7421 157.01 19.7421 157.85C19.7421 158.69 19.8951 159.341 20.2011 159.803ZM28.9211 160.226C28.5071 160.814 27.9221 161.108 27.1661 161.108C26.4161 161.108 25.8281 160.814 25.4021 160.226C24.9881 159.632 24.7811 158.84 24.7811 157.85C24.7811 156.854 24.9881 156.065 25.4021 155.483C25.8281 154.889 26.4161 154.592 27.1661 154.592C27.9221 154.592 28.5071 154.889 28.9211 155.483C29.3411 156.065 29.5511 156.854 29.5511 157.85C29.5511 158.846 29.3411 159.638 28.9211 160.226ZM25.8701 159.803C26.1881 160.265 26.6201 160.496 27.1661 160.496C27.7181 160.496 28.1471 160.265 28.4531 159.803C28.7651 159.347 28.9211 158.696 28.9211 157.85C28.9211 157.004 28.7651 156.353 28.4531 155.897C28.1471 155.435 27.7181 155.204 27.1661 155.204C26.6201 155.204 26.1881 155.435 25.8701 155.897C25.5641 156.359 25.4111 157.01 25.4111 157.85C25.4111 158.69 25.5641 159.341 25.8701 159.803Z" fill="#E3E3E3"/>
<path d="M7.49543 131.294V130.7H11.3654V131.294L8.98943 137H8.33243L10.7084 131.294H7.49543ZM15.3005 133.238H16.3625C16.9565 133.238 17.4545 133.412 17.8565 133.76C18.2705 134.102 18.4775 134.573 18.4775 135.173C18.4775 135.767 18.2705 136.241 17.8565 136.595C17.4545 136.937 16.9565 137.108 16.3625 137.108C15.8765 137.108 15.4475 136.991 15.0755 136.757C14.7095 136.517 14.4635 136.187 14.3375 135.767L14.8685 135.461C14.9585 135.791 15.1355 136.046 15.3995 136.226C15.6635 136.406 15.9845 136.496 16.3625 136.496C16.8065 136.496 17.1635 136.379 17.4335 136.145C17.7095 135.905 17.8475 135.581 17.8475 135.173C17.8475 134.765 17.7095 134.444 17.4335 134.21C17.1635 133.97 16.8065 133.85 16.3625 133.85H14.6525L14.8775 130.7H18.2525V131.294H15.4355L15.3005 133.238ZM23.2521 136.226C22.8381 136.814 22.2531 137.108 21.4971 137.108C20.7471 137.108 20.1591 136.814 19.7331 136.226C19.3191 135.632 19.1121 134.84 19.1121 133.85C19.1121 132.854 19.3191 132.065 19.7331 131.483C20.1591 130.889 20.7471 130.592 21.4971 130.592C22.2531 130.592 22.8381 130.889 23.2521 131.483C23.6721 132.065 23.8821 132.854 23.8821 133.85C23.8821 134.846 23.6721 135.638 23.2521 136.226ZM20.2011 135.803C20.5191 136.265 20.9511 136.496 21.4971 136.496C22.0491 136.496 22.4781 136.265 22.7841 135.803C23.0961 135.347 23.2521 134.696 23.2521 133.85C23.2521 133.004 23.0961 132.353 22.7841 131.897C22.4781 131.435 22.0491 131.204 21.4971 131.204C20.9511 131.204 20.5191 131.435 20.2011 131.897C19.8951 132.359 19.7421 133.01 19.7421 133.85C19.7421 134.69 19.8951 135.341 20.2011 135.803ZM28.9211 136.226C28.5071 136.814 27.9221 137.108 27.1661 137.108C26.4161 137.108 25.8281 136.814 25.4021 136.226C24.9881 135.632 24.7811 134.84 24.7811 133.85C24.7811 132.854 24.9881 132.065 25.4021 131.483C25.8281 130.889 26.4161 130.592 27.1661 130.592C27.9221 130.592 28.5071 130.889 28.9211 131.483C29.3411 132.065 29.5511 132.854 29.5511 133.85C29.5511 134.846 29.3411 135.638 28.9211 136.226ZM25.8701 135.803C26.1881 136.265 26.6201 136.496 27.1661 136.496C27.7181 136.496 28.1471 136.265 28.4531 135.803C28.7651 135.347 28.9211 134.696 28.9211 133.85C28.9211 133.004 28.7651 132.353 28.4531 131.897C28.1471 131.435 27.7181 131.204 27.1661 131.204C26.6201 131.204 26.1881 131.435 25.8701 131.897C25.5641 132.359 25.4111 133.01 25.4111 133.85C25.4111 134.69 25.5641 135.341 25.8701 135.803Z" fill="#E3E3E3"/>
<path d="M2.15063 103.276L3.81563 102.7H4.35563V109H3.72563V103.393L2.31262 103.816L2.15063 103.276ZM9.66422 108.226C9.25022 108.814 8.66522 109.108 7.90922 109.108C7.15922 109.108 6.57122 108.814 6.14522 108.226C5.73122 107.632 5.52422 106.84 5.52422 105.85C5.52422 104.854 5.73122 104.065 6.14522 103.483C6.57122 102.889 7.15922 102.592 7.90922 102.592C8.66522 102.592 9.25022 102.889 9.66422 103.483C10.0842 104.065 10.2942 104.854 10.2942 105.85C10.2942 106.846 10.0842 107.638 9.66422 108.226ZM6.61322 107.803C6.93122 108.265 7.36322 108.496 7.90922 108.496C8.46122 108.496 8.89022 108.265 9.19622 107.803C9.50822 107.347 9.66422 106.696 9.66422 105.85C9.66422 105.004 9.50822 104.353 9.19622 103.897C8.89022 103.435 8.46122 103.204 7.90922 103.204C7.36322 103.204 6.93122 103.435 6.61322 103.897C6.30722 104.359 6.15422 105.01 6.15422 105.85C6.15422 106.69 6.30722 107.341 6.61322 107.803ZM17.5832 108.226C17.1692 108.814 16.5842 109.108 15.8282 109.108C15.0782 109.108 14.4902 108.814 14.0642 108.226C13.6502 107.632 13.4432 106.84 13.4432 105.85C13.4432 104.854 13.6502 104.065 14.0642 103.483C14.4902 102.889 15.0782 102.592 15.8282 102.592C16.5842 102.592 17.1692 102.889 17.5832 103.483C18.0032 104.065 18.2132 104.854 18.2132 105.85C18.2132 106.846 18.0032 107.638 17.5832 108.226ZM14.5322 107.803C14.8502 108.265 15.2822 108.496 15.8282 108.496C16.3802 108.496 16.8092 108.265 17.1152 107.803C17.4272 107.347 17.5832 106.696 17.5832 105.85C17.5832 105.004 17.4272 104.353 17.1152 103.897C16.8092 103.435 16.3802 103.204 15.8282 103.204C15.2822 103.204 14.8502 103.435 14.5322 103.897C14.2262 104.359 14.0732 105.01 14.0732 105.85C14.0732 106.69 14.2262 107.341 14.5322 107.803ZM23.2521 108.226C22.8381 108.814 22.2531 109.108 21.4971 109.108C20.7471 109.108 20.1591 108.814 19.7331 108.226C19.3191 107.632 19.1121 106.84 19.1121 105.85C19.1121 104.854 19.3191 104.065 19.7331 103.483C20.1591 102.889 20.7471 102.592 21.4971 102.592C22.2531 102.592 22.8381 102.889 23.2521 103.483C23.6721 104.065 23.8821 104.854 23.8821 105.85C23.8821 106.846 23.6721 107.638 23.2521 108.226ZM20.2011 107.803C20.5191 108.265 20.9511 108.496 21.4971 108.496C22.0491 108.496 22.4781 108.265 22.7841 107.803C23.0961 107.347 23.2521 106.696 23.2521 105.85C23.2521 105.004 23.0961 104.353 22.7841 103.897C22.4781 103.435 22.0491 103.204 21.4971 103.204C20.9511 103.204 20.5191 103.435 20.2011 103.897C19.8951 104.359 19.7421 105.01 19.7421 105.85C19.7421 106.69 19.8951 107.341 20.2011 107.803ZM28.9211 108.226C28.5071 108.814 27.9221 109.108 27.1661 109.108C26.4161 109.108 25.8281 108.814 25.4021 108.226C24.9881 107.632 24.7811 106.84 24.7811 105.85C24.7811 104.854 24.9881 104.065 25.4021 103.483C25.8281 102.889 26.4161 102.592 27.1661 102.592C27.9221 102.592 28.5071 102.889 28.9211 103.483C29.3411 104.065 29.5511 104.854 29.5511 105.85C29.5511 106.846 29.3411 107.638 28.9211 108.226ZM25.8701 107.803C26.1881 108.265 26.6201 108.496 27.1661 108.496C27.7181 108.496 28.1471 108.265 28.4531 107.803C28.7651 107.347 28.9211 106.696 28.9211 105.85C28.9211 105.004 28.7651 104.353 28.4531 103.897C28.1471 103.435 27.7181 103.204 27.1661 103.204C26.6201 103.204 26.1881 103.435 25.8701 103.897C25.5641 104.359 25.4111 105.01 25.4111 105.85C25.4111 106.69 25.5641 107.341 25.8701 107.803Z" fill="#E3E3E3"/>
<path d="M4.07543 77.276L5.74043 76.7H6.28043V83H5.65043V77.393L4.23743 77.816L4.07543 77.276ZM11.364 83H7.35902V82.433L9.62702 80.147C10.275 79.499 10.599 78.944 10.599 78.482C10.599 78.092 10.476 77.783 10.23 77.555C9.99002 77.321 9.69002 77.204 9.33002 77.204C8.68802 77.204 8.21702 77.501 7.91702 78.095L7.38602 77.78C7.57802 77.396 7.84502 77.102 8.18702 76.898C8.52902 76.694 8.91002 76.592 9.33002 76.592C9.83402 76.592 10.275 76.763 10.653 77.105C11.037 77.435 11.229 77.894 11.229 78.482C11.229 78.83 11.133 79.172 10.941 79.508C10.749 79.838 10.455 80.201 10.059 80.597L8.25902 82.388H11.364V83ZM15.3005 79.238H16.3625C16.9565 79.238 17.4545 79.412 17.8565 79.76C18.2705 80.102 18.4775 80.573 18.4775 81.173C18.4775 81.767 18.2705 82.241 17.8565 82.595C17.4545 82.937 16.9565 83.108 16.3625 83.108C15.8765 83.108 15.4475 82.991 15.0755 82.757C14.7095 82.517 14.4635 82.187 14.3375 81.767L14.8685 81.461C14.9585 81.791 15.1355 82.046 15.3995 82.226C15.6635 82.406 15.9845 82.496 16.3625 82.496C16.8065 82.496 17.1635 82.379 17.4335 82.145C17.7095 81.905 17.8475 81.581 17.8475 81.173C17.8475 80.765 17.7095 80.444 17.4335 80.21C17.1635 79.97 16.8065 79.85 16.3625 79.85H14.6525L14.8775 76.7H18.2525V77.294H15.4355L15.3005 79.238ZM23.2521 82.226C22.8381 82.814 22.2531 83.108 21.4971 83.108C20.7471 83.108 20.1591 82.814 19.7331 82.226C19.3191 81.632 19.1121 80.84 19.1121 79.85C19.1121 78.854 19.3191 78.065 19.7331 77.483C20.1591 76.889 20.7471 76.592 21.4971 76.592C22.2531 76.592 22.8381 76.889 23.2521 77.483C23.6721 78.065 23.8821 78.854 23.8821 79.85C23.8821 80.846 23.6721 81.638 23.2521 82.226ZM20.2011 81.803C20.5191 82.265 20.9511 82.496 21.4971 82.496C22.0491 82.496 22.4781 82.265 22.7841 81.803C23.0961 81.347 23.2521 80.696 23.2521 79.85C23.2521 79.004 23.0961 78.353 22.7841 77.897C22.4781 77.435 22.0491 77.204 21.4971 77.204C20.9511 77.204 20.5191 77.435 20.2011 77.897C19.8951 78.359 19.7421 79.01 19.7421 79.85C19.7421 80.69 19.8951 81.341 20.2011 81.803ZM28.9211 82.226C28.5071 82.814 27.9221 83.108 27.1661 83.108C26.4161 83.108 25.8281 82.814 25.4021 82.226C24.9881 81.632 24.7811 80.84 24.7811 79.85C24.7811 78.854 24.9881 78.065 25.4021 77.483C25.8281 76.889 26.4161 76.592 27.1661 76.592C27.9221 76.592 28.5071 76.889 28.9211 77.483C29.3411 78.065 29.5511 78.854 29.5511 79.85C29.5511 80.846 29.3411 81.638 28.9211 82.226ZM25.8701 81.803C26.1881 82.265 26.6201 82.496 27.1661 82.496C27.7181 82.496 28.1471 82.265 28.4531 81.803C28.7651 81.347 28.9211 80.696 28.9211 79.85C28.9211 79.004 28.7651 78.353 28.4531 77.897C28.1471 77.435 27.7181 77.204 27.1661 77.204C26.6201 77.204 26.1881 77.435 25.8701 77.897C25.5641 78.359 25.4111 79.01 25.4111 79.85C25.4111 80.69 25.5641 81.341 25.8701 81.803Z" fill="#E3E3E3"/>
<path d="M2.95922 53.276L4.62422 52.7H5.16422V59H4.53422V53.393L3.12122 53.816L2.95922 53.276ZM7.20581 55.238H8.26781C8.86181 55.238 9.35981 55.412 9.76181 55.76C10.1758 56.102 10.3828 56.573 10.3828 57.173C10.3828 57.767 10.1758 58.241 9.76181 58.595C9.35981 58.937 8.86181 59.108 8.26781 59.108C7.78181 59.108 7.35281 58.991 6.98081 58.757C6.61481 58.517 6.36881 58.187 6.24281 57.767L6.77381 57.461C6.86381 57.791 7.04081 58.046 7.30481 58.226C7.56881 58.406 7.88981 58.496 8.26781 58.496C8.71181 58.496 9.06881 58.379 9.33881 58.145C9.61481 57.905 9.75281 57.581 9.75281 57.173C9.75281 56.765 9.61481 56.444 9.33881 56.21C9.06881 55.97 8.71181 55.85 8.26781 55.85H6.55781L6.78281 52.7H10.1578V53.294H7.34081L7.20581 55.238ZM17.5832 58.226C17.1692 58.814 16.5842 59.108 15.8282 59.108C15.0782 59.108 14.4902 58.814 14.0642 58.226C13.6502 57.632 13.4432 56.84 13.4432 55.85C13.4432 54.854 13.6502 54.065 14.0642 53.483C14.4902 52.889 15.0782 52.592 15.8282 52.592C16.5842 52.592 17.1692 52.889 17.5832 53.483C18.0032 54.065 18.2132 54.854 18.2132 55.85C18.2132 56.846 18.0032 57.638 17.5832 58.226ZM14.5322 57.803C14.8502 58.265 15.2822 58.496 15.8282 58.496C16.3802 58.496 16.8092 58.265 17.1152 57.803C17.4272 57.347 17.5832 56.696 17.5832 55.85C17.5832 55.004 17.4272 54.353 17.1152 53.897C16.8092 53.435 16.3802 53.204 15.8282 53.204C15.2822 53.204 14.8502 53.435 14.5322 53.897C14.2262 54.359 14.0732 55.01 14.0732 55.85C14.0732 56.69 14.2262 57.341 14.5322 57.803ZM23.2521 58.226C22.8381 58.814 22.2531 59.108 21.4971 59.108C20.7471 59.108 20.1591 58.814 19.7331 58.226C19.3191 57.632 19.1121 56.84 19.1121 55.85C19.1121 54.854 19.3191 54.065 19.7331 53.483C20.1591 52.889 20.7471 52.592 21.4971 52.592C22.2531 52.592 22.8381 52.889 23.2521 53.483C23.6721 54.065 23.8821 54.854 23.8821 55.85C23.8821 56.846 23.6721 57.638 23.2521 58.226ZM20.2011 57.803C20.5191 58.265 20.9511 58.496 21.4971 58.496C22.0491 58.496 22.4781 58.265 22.7841 57.803C23.0961 57.347 23.2521 56.696 23.2521 55.85C23.2521 55.004 23.0961 54.353 22.7841 53.897C22.4781 53.435 22.0491 53.204 21.4971 53.204C20.9511 53.204 20.5191 53.435 20.2011 53.897C19.8951 54.359 19.7421 55.01 19.7421 55.85C19.7421 56.69 19.8951 57.341 20.2011 57.803ZM28.9211 58.226C28.5071 58.814 27.9221 59.108 27.1661 59.108C26.4161 59.108 25.8281 58.814 25.4021 58.226C24.9881 57.632 24.7811 56.84 24.7811 55.85C24.7811 54.854 24.9881 54.065 25.4021 53.483C25.8281 52.889 26.4161 52.592 27.1661 52.592C27.9221 52.592 28.5071 52.889 28.9211 53.483C29.3411 54.065 29.5511 54.854 29.5511 55.85C29.5511 56.846 29.3411 57.638 28.9211 58.226ZM25.8701 57.803C26.1881 58.265 26.6201 58.496 27.1661 58.496C27.7181 58.496 28.1471 58.265 28.4531 57.803C28.7651 57.347 28.9211 56.696 28.9211 55.85C28.9211 55.004 28.7651 54.353 28.4531 53.897C28.1471 53.435 27.7181 53.204 27.1661 53.204C26.6201 53.204 26.1881 53.435 25.8701 53.897C25.5641 54.359 25.4111 55.01 25.4111 55.85C25.4111 56.69 25.5641 57.341 25.8701 57.803Z" fill="#E3E3E3"/>
<path d="M4.39184 27.276L6.05684 26.7H6.59684V33H5.96684V27.393L4.55384 27.816L4.39184 27.276ZM7.49543 27.294V26.7H11.3654V27.294L8.98943 33H8.33243L10.7084 27.294H7.49543ZM15.3005 29.238H16.3625C16.9565 29.238 17.4545 29.412 17.8565 29.76C18.2705 30.102 18.4775 30.573 18.4775 31.173C18.4775 31.767 18.2705 32.241 17.8565 32.595C17.4545 32.937 16.9565 33.108 16.3625 33.108C15.8765 33.108 15.4475 32.991 15.0755 32.757C14.7095 32.517 14.4635 32.187 14.3375 31.767L14.8685 31.461C14.9585 31.791 15.1355 32.046 15.3995 32.226C15.6635 32.406 15.9845 32.496 16.3625 32.496C16.8065 32.496 17.1635 32.379 17.4335 32.145C17.7095 31.905 17.8475 31.581 17.8475 31.173C17.8475 30.765 17.7095 30.444 17.4335 30.21C17.1635 29.97 16.8065 29.85 16.3625 29.85H14.6525L14.8775 26.7H18.2525V27.294H15.4355L15.3005 29.238ZM23.2521 32.226C22.8381 32.814 22.2531 33.108 21.4971 33.108C20.7471 33.108 20.1591 32.814 19.7331 32.226C19.3191 31.632 19.1121 30.84 19.1121 29.85C19.1121 28.854 19.3191 28.065 19.7331 27.483C20.1591 26.889 20.7471 26.592 21.4971 26.592C22.2531 26.592 22.8381 26.889 23.2521 27.483C23.6721 28.065 23.8821 28.854 23.8821 29.85C23.8821 30.846 23.6721 31.638 23.2521 32.226ZM20.2011 31.803C20.5191 32.265 20.9511 32.496 21.4971 32.496C22.0491 32.496 22.4781 32.265 22.7841 31.803C23.0961 31.347 23.2521 30.696 23.2521 29.85C23.2521 29.004 23.0961 28.353 22.7841 27.897C22.4781 27.435 22.0491 27.204 21.4971 27.204C20.9511 27.204 20.5191 27.435 20.2011 27.897C19.8951 28.359 19.7421 29.01 19.7421 29.85C19.7421 30.69 19.8951 31.341 20.2011 31.803ZM28.9211 32.226C28.5071 32.814 27.9221 33.108 27.1661 33.108C26.4161 33.108 25.8281 32.814 25.4021 32.226C24.9881 31.632 24.7811 30.84 24.7811 29.85C24.7811 28.854 24.9881 28.065 25.4021 27.483C25.8281 26.889 26.4161 26.592 27.1661 26.592C27.9221 26.592 28.5071 26.889 28.9211 27.483C29.3411 28.065 29.5511 28.854 29.5511 29.85C29.5511 30.846 29.3411 31.638 28.9211 32.226ZM25.8701 31.803C26.1881 32.265 26.6201 32.496 27.1661 32.496C27.7181 32.496 28.1471 32.265 28.4531 31.803C28.7651 31.347 28.9211 30.696 28.9211 29.85C28.9211 29.004 28.7651 28.353 28.4531 27.897C28.1471 27.435 27.7181 27.204 27.1661 27.204C26.6201 27.204 26.1881 27.435 25.8701 27.897C25.5641 28.359 25.4111 29.01 25.4111 29.85C25.4111 30.69 25.5641 31.341 25.8701 31.803Z" fill="#E3E3E3"/>
<path d="M4.76864 3.733C5.08064 3.865 5.32664 4.066 5.50664 4.336C5.68664 4.606 5.77664 4.909 5.77664 5.245C5.77664 5.731 5.60564 6.145 5.26364 6.487C4.92164 6.829 4.50764 7 4.02164 7H1.27664V0.7H3.81464C4.27664 0.7 4.67564 0.868 5.01164 1.204C5.34164 1.534 5.50664 1.93 5.50664 2.392C5.50664 2.98 5.26064 3.427 4.76864 3.733ZM3.81464 1.294H1.90664V3.49H3.81464C4.10264 3.49 4.35164 3.385 4.56164 3.175C4.77164 2.953 4.87664 2.692 4.87664 2.392C4.87664 2.098 4.77164 1.84 4.56164 1.618C4.35164 1.402 4.10264 1.294 3.81464 1.294ZM1.90664 6.406H4.02164C4.33364 6.406 4.59764 6.295 4.81364 6.073C5.03564 5.851 5.14664 5.575 5.14664 5.245C5.14664 4.921 5.03564 4.648 4.81364 4.426C4.59764 4.198 4.33364 4.084 4.02164 4.084H1.90664V6.406ZM7.3617 5.965L10.0437 2.5H10.5477V7H9.9537V3.535L7.2717 7H6.7677V2.5H7.3617V5.965ZM14.1258 4.687C14.6478 4.885 14.9088 5.245 14.9088 5.767C14.9088 6.145 14.7618 6.463 14.4678 6.721C14.1858 6.979 13.7718 7.108 13.2258 7.108C12.3138 7.108 11.7198 6.748 11.4438 6.028L11.9478 5.731C12.1398 6.265 12.5658 6.532 13.2258 6.532C13.5678 6.532 13.8348 6.46 14.0268 6.316C14.2188 6.166 14.3148 5.971 14.3148 5.731C14.3148 5.515 14.2368 5.344 14.0808 5.218C13.9248 5.086 13.7148 5.02 13.4508 5.02H12.7938V4.444H13.2708C13.5288 4.444 13.7298 4.381 13.8738 4.255C14.0238 4.123 14.0988 3.943 14.0988 3.715C14.0988 3.499 14.0088 3.322 13.8288 3.184C13.6548 3.04 13.4238 2.968 13.1358 2.968C12.5778 2.968 12.2028 3.193 12.0108 3.643L11.5158 3.355C11.8158 2.713 12.3558 2.392 13.1358 2.392C13.6158 2.392 13.9938 2.518 14.2698 2.77C14.5518 3.016 14.6928 3.319 14.6928 3.679C14.6928 4.141 14.5038 4.477 14.1258 4.687ZM16.4056 5.965L19.0876 2.5H19.5916V7H18.9976V3.535L16.3156 7H15.8116V2.5H16.4056V5.965ZM20.3078 2.5H24.0878V3.076H22.4948V7H21.9008V3.076H20.3078V2.5ZM25.4056 4.21H26.6386C27.0526 4.21 27.4066 4.342 27.7006 4.606C27.9946 4.864 28.1416 5.197 28.1416 5.605C28.1416 6.019 27.9946 6.355 27.7006 6.613C27.4186 6.871 27.0646 7 26.6386 7H24.8116V2.5H25.4056V4.21ZM28.7716 7V2.5H29.3656V7H28.7716ZM25.4056 6.424H26.6386C26.8966 6.424 27.1126 6.349 27.2866 6.199C27.4606 6.043 27.5476 5.845 27.5476 5.605C27.5476 5.365 27.4606 5.17 27.2866 5.02C27.1126 4.864 26.8966 4.786 26.6386 4.786H25.4056V6.424Z" fill="#E3E3E3"/>
<path d="M41.931 229.163C41.301 229.793 40.53 230.108 39.618 230.108C38.706 230.108 37.935 229.793 37.305 229.163C36.675 228.521 36.36 227.75 36.36 226.85C36.36 225.944 36.675 225.176 37.305 224.546C37.935 223.91 38.706 223.592 39.618 223.592C40.53 223.592 41.301 223.91 41.931 224.546C42.561 225.176 42.876 225.944 42.876 226.85C42.876 227.75 42.561 228.521 41.931 229.163ZM36.99 226.85C36.99 227.594 37.242 228.221 37.746 228.731C38.25 229.241 38.874 229.496 39.618 229.496C40.362 229.496 40.986 229.241 41.49 228.731C41.994 228.221 42.246 227.594 42.246 226.85C42.246 226.112 41.994 225.488 41.49 224.978C40.986 224.462 40.362 224.204 39.618 224.204C38.874 224.204 38.25 224.462 37.746 224.978C37.242 225.488 36.99 226.112 36.99 226.85ZM45.0874 227.66L47.4994 230H46.7074L44.4574 227.831V230H43.8634V225.5H44.4574V227.489L46.5994 225.5H47.4094L45.0874 227.66ZM47.7707 225.5H51.5507V226.076H49.9577V230H49.3637V226.076H47.7707V225.5ZM54.0295 224.276L55.6945 223.7H56.2345V230H55.6045V224.393L54.1915 224.816L54.0295 224.276ZM61.4531 225.671C61.4531 226.145 61.3241 226.565 61.0661 226.931L59.0051 230H58.2941L59.8421 227.696C59.6801 227.732 59.5121 227.75 59.3381 227.75C58.7141 227.75 58.2071 227.558 57.8171 227.174C57.4211 226.79 57.2231 226.289 57.2231 225.671C57.2231 225.065 57.4211 224.567 57.8171 224.177C58.2191 223.787 58.7261 223.592 59.3381 223.592C59.9501 223.592 60.4571 223.787 60.8591 224.177C61.2551 224.567 61.4531 225.065 61.4531 225.671ZM58.2581 224.609C57.9881 224.879 57.8531 225.233 57.8531 225.671C57.8531 226.109 57.9881 226.463 58.2581 226.733C58.5401 227.003 58.9001 227.138 59.3381 227.138C59.7821 227.138 60.1391 227.003 60.4091 226.733C60.6851 226.463 60.8231 226.109 60.8231 225.671C60.8231 225.233 60.6851 224.879 60.4091 224.609C60.1391 224.339 59.7821 224.204 59.3381 224.204C58.9001 224.204 58.5401 224.339 58.2581 224.609Z" fill="#E3E3E3"/>
<path d="M105.697 223.7H106.48V230H105.85V224.654L103.645 228.344H103.555L101.35 224.654V230H100.72V223.7H101.503L103.6 227.21L105.697 223.7ZM111.698 226.382V225.5H112.292V230H111.698V229.118C111.284 229.778 110.678 230.108 109.88 230.108C109.238 230.108 108.689 229.88 108.233 229.424C107.783 228.968 107.558 228.41 107.558 227.75C107.558 227.09 107.783 226.532 108.233 226.076C108.689 225.62 109.238 225.392 109.88 225.392C110.678 225.392 111.284 225.722 111.698 226.382ZM108.665 229.019C109.007 229.361 109.427 229.532 109.925 229.532C110.423 229.532 110.843 229.361 111.185 229.019C111.527 228.665 111.698 228.242 111.698 227.75C111.698 227.252 111.527 226.832 111.185 226.49C110.843 226.142 110.423 225.968 109.925 225.968C109.427 225.968 109.007 226.142 108.665 226.49C108.323 226.832 108.152 227.252 108.152 227.75C108.152 228.242 108.323 228.665 108.665 229.019ZM115.962 225.392C116.604 225.392 117.15 225.62 117.6 226.076C118.056 226.532 118.284 227.09 118.284 227.75C118.284 228.41 118.056 228.968 117.6 229.424C117.15 229.88 116.604 230.108 115.962 230.108C115.164 230.108 114.558 229.778 114.144 229.118V231.8H113.55V225.5H114.144V226.382C114.558 225.722 115.164 225.392 115.962 225.392ZM114.657 229.019C114.999 229.361 115.419 229.532 115.917 229.532C116.415 229.532 116.835 229.361 117.177 229.019C117.519 228.665 117.69 228.242 117.69 227.75C117.69 227.252 117.519 226.832 117.177 226.49C116.835 226.142 116.415 225.968 115.917 225.968C115.419 225.968 114.999 226.142 114.657 226.49C114.315 226.832 114.144 227.252 114.144 227.75C114.144 228.242 114.315 228.665 114.657 229.019ZM125.257 230H121.252V229.433L123.52 227.147C124.168 226.499 124.492 225.944 124.492 225.482C124.492 225.092 124.369 224.783 124.123 224.555C123.883 224.321 123.583 224.204 123.223 224.204C122.581 224.204 122.11 224.501 121.81 225.095L121.279 224.78C121.471 224.396 121.738 224.102 122.08 223.898C122.422 223.694 122.803 223.592 123.223 223.592C123.727 223.592 124.168 223.763 124.546 224.105C124.93 224.435 125.122 224.894 125.122 225.482C125.122 225.83 125.026 226.172 124.834 226.508C124.642 226.838 124.348 227.201 123.952 227.597L122.152 229.388H125.257V230ZM130.122 229.226C129.708 229.814 129.123 230.108 128.367 230.108C127.617 230.108 127.029 229.814 126.603 229.226C126.189 228.632 125.982 227.84 125.982 226.85C125.982 225.854 126.189 225.065 126.603 224.483C127.029 223.889 127.617 223.592 128.367 223.592C129.123 223.592 129.708 223.889 130.122 224.483C130.542 225.065 130.752 225.854 130.752 226.85C130.752 227.846 130.542 228.638 130.122 229.226ZM127.071 228.803C127.389 229.265 127.821 229.496 128.367 229.496C128.919 229.496 129.348 229.265 129.654 228.803C129.966 228.347 130.122 227.696 130.122 226.85C130.122 226.004 129.966 225.353 129.654 224.897C129.348 224.435 128.919 224.204 128.367 224.204C127.821 224.204 127.389 224.435 127.071 224.897C126.765 225.359 126.612 226.01 126.612 226.85C126.612 227.69 126.765 228.341 127.071 228.803Z" fill="#E3E3E3"/>
<path d="M169.58 230H168.914L168.329 228.452H165.341L164.756 230H164.09L166.511 223.7H167.159L169.58 230ZM166.835 224.483L165.566 227.858H168.104L166.835 224.483ZM173.161 227.687C173.653 227.867 173.899 228.218 173.899 228.74C173.899 229.112 173.773 229.415 173.521 229.649C173.275 229.883 172.93 230 172.486 230H170.299V225.5H172.306C172.738 225.5 173.074 225.611 173.314 225.833C173.56 226.055 173.683 226.346 173.683 226.706C173.683 227.156 173.509 227.483 173.161 227.687ZM172.306 226.076H170.893V227.444H172.306C172.828 227.444 173.089 227.21 173.089 226.742C173.089 226.532 173.02 226.37 172.882 226.256C172.75 226.136 172.558 226.076 172.306 226.076ZM170.893 229.424H172.486C172.75 229.424 172.951 229.361 173.089 229.235C173.233 229.109 173.305 228.932 173.305 228.704C173.305 228.488 173.233 228.32 173.089 228.2C172.951 228.08 172.75 228.02 172.486 228.02H170.893V229.424ZM174.799 225.5H177.679V226.076H175.393V230H174.799V225.5ZM184.387 230H180.382V229.433L182.65 227.147C183.298 226.499 183.622 225.944 183.622 225.482C183.622 225.092 183.499 224.783 183.253 224.555C183.013 224.321 182.713 224.204 182.353 224.204C181.711 224.204 181.24 224.501 180.94 225.095L180.409 224.78C180.601 224.396 180.868 224.102 181.21 223.898C181.552 223.694 181.933 223.592 182.353 223.592C182.857 223.592 183.298 223.763 183.676 224.105C184.06 224.435 184.252 224.894 184.252 225.482C184.252 225.83 184.156 226.172 183.964 226.508C183.772 226.838 183.478 227.201 183.082 227.597L181.282 229.388H184.387V230ZM189.253 229.226C188.839 229.814 188.254 230.108 187.498 230.108C186.748 230.108 186.16 229.814 185.734 229.226C185.32 228.632 185.113 227.84 185.113 226.85C185.113 225.854 185.32 225.065 185.734 224.483C186.16 223.889 186.748 223.592 187.498 223.592C188.254 223.592 188.839 223.889 189.253 224.483C189.673 225.065 189.883 225.854 189.883 226.85C189.883 227.846 189.673 228.638 189.253 229.226ZM186.202 228.803C186.52 229.265 186.952 229.496 187.498 229.496C188.05 229.496 188.479 229.265 188.785 228.803C189.097 228.347 189.253 227.696 189.253 226.85C189.253 226.004 189.097 225.353 188.785 224.897C188.479 224.435 188.05 224.204 187.498 224.204C186.952 224.204 186.52 224.435 186.202 224.897C185.896 225.359 185.743 226.01 185.743 226.85C185.743 227.69 185.896 228.341 186.202 228.803Z" fill="#E3E3E3"/>
<path d="M230.34 223.7H232.86V230H232.23V227.48H230.718L228.99 230H228.27L230.025 227.453C229.563 227.369 229.188 227.156 228.9 226.814C228.6 226.46 228.45 226.052 228.45 225.59C228.45 225.068 228.633 224.624 228.999 224.258C229.371 223.886 229.818 223.7 230.34 223.7ZM230.34 226.886H232.23V224.294H230.34C229.992 224.294 229.695 224.42 229.449 224.672C229.203 224.93 229.08 225.236 229.08 225.59C229.08 225.938 229.203 226.244 229.449 226.508C229.695 226.76 229.992 226.886 230.34 226.886ZM237.397 227.462V225.5H237.991V230H237.397V228.038H234.805V230H234.211V225.5H234.805V227.462H237.397ZM242.109 227.687C242.601 227.867 242.847 228.218 242.847 228.74C242.847 229.112 242.721 229.415 242.469 229.649C242.223 229.883 241.878 230 241.434 230H239.247V225.5H241.254C241.686 225.5 242.022 225.611 242.262 225.833C242.508 226.055 242.631 226.346 242.631 226.706C242.631 227.156 242.457 227.483 242.109 227.687ZM241.254 226.076H239.841V227.444H241.254C241.776 227.444 242.037 227.21 242.037 226.742C242.037 226.532 241.968 226.37 241.83 226.256C241.698 226.136 241.506 226.076 241.254 226.076ZM239.841 229.424H241.434C241.698 229.424 241.899 229.361 242.037 229.235C242.181 229.109 242.253 228.932 242.253 228.704C242.253 228.488 242.181 228.32 242.037 228.2C241.899 228.08 241.698 228.02 241.434 228.02H239.841V229.424ZM249.732 230H245.727V229.433L247.995 227.147C248.643 226.499 248.967 225.944 248.967 225.482C248.967 225.092 248.844 224.783 248.598 224.555C248.358 224.321 248.058 224.204 247.698 224.204C247.056 224.204 246.585 224.501 246.285 225.095L245.754 224.78C245.946 224.396 246.213 224.102 246.555 223.898C246.897 223.694 247.278 223.592 247.698 223.592C248.202 223.592 248.643 223.763 249.021 224.105C249.405 224.435 249.597 224.894 249.597 225.482C249.597 225.83 249.501 226.172 249.309 226.508C249.117 226.838 248.823 227.201 248.427 227.597L246.627 229.388H249.732V230ZM250.231 224.276L251.896 223.7H252.436V230H251.806V224.393L250.393 224.816L250.231 224.276Z" fill="#E3E3E3"/>
<path d="M297.4 230H296.77V224.87L293.26 230H292.72V223.7H293.35V228.83L296.86 223.7H297.4V230ZM302.59 225.392C303.25 225.392 303.808 225.62 304.264 226.076C304.726 226.526 304.957 227.084 304.957 227.75C304.957 228.41 304.726 228.971 304.264 229.433C303.802 229.883 303.244 230.108 302.59 230.108C301.99 230.108 301.468 229.913 301.024 229.523C300.586 229.121 300.337 228.626 300.277 228.038H299.341V230H298.747V225.5H299.341V227.462H300.277C300.343 226.868 300.592 226.376 301.024 225.986C301.462 225.59 301.984 225.392 302.59 225.392ZM301.33 229.019C301.672 229.361 302.092 229.532 302.59 229.532C303.088 229.532 303.508 229.361 303.85 229.019C304.192 228.665 304.363 228.242 304.363 227.75C304.363 227.252 304.192 226.832 303.85 226.49C303.508 226.142 303.088 225.968 302.59 225.968C302.092 225.968 301.672 226.142 301.33 226.49C300.988 226.832 300.817 227.252 300.817 227.75C300.817 228.242 300.988 228.665 301.33 229.019ZM309.131 227.462V225.5H309.725V230H309.131V228.038H306.539V230H305.945V225.5H306.539V227.462H309.131ZM316.967 230H312.962V229.433L315.23 227.147C315.878 226.499 316.202 225.944 316.202 225.482C316.202 225.092 316.079 224.783 315.833 224.555C315.593 224.321 315.293 224.204 314.933 224.204C314.291 224.204 313.82 224.501 313.52 225.095L312.989 224.78C313.181 224.396 313.448 224.102 313.79 223.898C314.132 223.694 314.513 223.592 314.933 223.592C315.437 223.592 315.878 223.763 316.256 224.105C316.64 224.435 316.832 224.894 316.832 225.482C316.832 225.83 316.736 226.172 316.544 226.508C316.352 226.838 316.058 227.201 315.662 227.597L313.862 229.388H316.967V230ZM317.465 224.276L319.13 223.7H319.67V230H319.04V224.393L317.627 224.816L317.465 224.276Z" fill="#E3E3E3"/>
<path d="M360.77 226.463V223.7H361.4V230H360.77V227.057H357.35V230H356.72V223.7H357.35V226.463H360.77ZM366.518 229.433C366.056 229.883 365.498 230.108 364.844 230.108C364.178 230.108 363.617 229.883 363.161 229.433C362.705 228.977 362.477 228.416 362.477 227.75C362.477 227.084 362.705 226.526 363.161 226.076C363.617 225.62 364.178 225.392 364.844 225.392C365.504 225.392 366.062 225.62 366.518 226.076C366.98 226.526 367.211 227.084 367.211 227.75C367.211 228.41 366.98 228.971 366.518 229.433ZM363.584 229.019C363.926 229.361 364.346 229.532 364.844 229.532C365.342 229.532 365.762 229.361 366.104 229.019C366.446 228.665 366.617 228.242 366.617 227.75C366.617 227.252 366.446 226.832 366.104 226.49C365.762 226.142 365.342 225.968 364.844 225.968C364.346 225.968 363.926 226.142 363.584 226.49C363.242 226.832 363.071 227.252 363.071 227.75C363.071 228.242 363.242 228.665 363.584 229.019ZM369.442 225.5H371.269V230H370.675V228.272H369.901L368.515 230H367.759L369.181 228.254C368.815 228.2 368.515 228.05 368.281 227.804C368.053 227.552 367.939 227.249 367.939 226.895C367.939 226.493 368.083 226.16 368.371 225.896C368.671 225.632 369.028 225.5 369.442 225.5ZM369.442 227.714H370.675V226.076H369.442C369.184 226.076 368.968 226.154 368.794 226.31C368.62 226.46 368.533 226.655 368.533 226.895C368.533 227.135 368.62 227.333 368.794 227.489C368.968 227.639 369.184 227.714 369.442 227.714ZM378.514 230H374.509V229.433L376.777 227.147C377.425 226.499 377.749 225.944 377.749 225.482C377.749 225.092 377.626 224.783 377.38 224.555C377.14 224.321 376.84 224.204 376.48 224.204C375.838 224.204 375.367 224.501 375.067 225.095L374.536 224.78C374.728 224.396 374.995 224.102 375.337 223.898C375.679 223.694 376.06 223.592 376.48 223.592C376.984 223.592 377.425 223.763 377.803 224.105C378.187 224.435 378.379 224.894 378.379 225.482C378.379 225.83 378.283 226.172 378.091 226.508C377.899 226.838 377.605 227.201 377.209 227.597L375.409 229.388H378.514V230ZM379.013 224.276L380.678 223.7H381.218V230H380.588V224.393L379.175 224.816L379.013 224.276Z" fill="#E3E3E3"/>
<path d="M425.58 230H424.914L424.329 228.452H421.341L420.756 230H420.09L422.511 223.7H423.159L425.58 230ZM422.835 224.483L421.566 227.858H424.104L422.835 224.483ZM426.299 225.5H430.079V230H429.485V226.076H426.893V230H426.299V225.5ZM433.747 225.392C434.389 225.392 434.935 225.62 435.385 226.076C435.841 226.532 436.069 227.09 436.069 227.75C436.069 228.41 435.841 228.968 435.385 229.424C434.935 229.88 434.389 230.108 433.747 230.108C432.949 230.108 432.343 229.778 431.929 229.118V231.8H431.335V225.5H431.929V226.382C432.343 225.722 432.949 225.392 433.747 225.392ZM432.442 229.019C432.784 229.361 433.204 229.532 433.702 229.532C434.2 229.532 434.62 229.361 434.962 229.019C435.304 228.665 435.475 228.242 435.475 227.75C435.475 227.252 435.304 226.832 434.962 226.49C434.62 226.142 434.2 225.968 433.702 225.968C433.204 225.968 432.784 226.142 432.442 226.49C432.1 226.832 431.929 227.252 431.929 227.75C431.929 228.242 432.1 228.665 432.442 229.019ZM443.042 230H439.037V229.433L441.305 227.147C441.953 226.499 442.277 225.944 442.277 225.482C442.277 225.092 442.154 224.783 441.908 224.555C441.668 224.321 441.368 224.204 441.008 224.204C440.366 224.204 439.895 224.501 439.595 225.095L439.064 224.78C439.256 224.396 439.523 224.102 439.865 223.898C440.207 223.694 440.588 223.592 441.008 223.592C441.512 223.592 441.953 223.763 442.331 224.105C442.715 224.435 442.907 224.894 442.907 225.482C442.907 225.83 442.811 226.172 442.619 226.508C442.427 226.838 442.133 227.201 441.737 227.597L439.937 229.388H443.042V230ZM447.77 230H443.765V229.433L446.033 227.147C446.681 226.499 447.005 225.944 447.005 225.482C447.005 225.092 446.882 224.783 446.636 224.555C446.396 224.321 446.096 224.204 445.736 224.204C445.094 224.204 444.623 224.501 444.323 225.095L443.792 224.78C443.984 224.396 444.251 224.102 444.593 223.898C444.935 223.694 445.316 223.592 445.736 223.592C446.24 223.592 446.681 223.763 447.059 224.105C447.443 224.435 447.635 224.894 447.635 225.482C447.635 225.83 447.539 226.172 447.347 226.508C447.155 226.838 446.861 227.201 446.465 227.597L444.665 229.388H447.77V230Z" fill="#E3E3E3"/>
<path d="M487.663 230.108C486.703 230.108 485.914 229.793 485.296 229.163C484.672 228.527 484.36 227.756 484.36 226.85C484.36 225.944 484.672 225.173 485.296 224.537C485.914 223.907 486.703 223.592 487.663 223.592C488.239 223.592 488.77 223.733 489.256 224.015C489.742 224.291 490.12 224.666 490.39 225.14L489.832 225.464C489.634 225.08 489.34 224.774 488.95 224.546C488.56 224.318 488.131 224.204 487.663 224.204C486.871 224.204 486.229 224.459 485.737 224.969C485.239 225.485 484.99 226.112 484.99 226.85C484.99 227.588 485.239 228.215 485.737 228.731C486.229 229.241 486.871 229.496 487.663 229.496C488.131 229.496 488.56 229.382 488.95 229.154C489.34 228.926 489.634 228.62 489.832 228.236L490.39 228.551C490.132 229.025 489.757 229.403 489.265 229.685C488.773 229.967 488.239 230.108 487.663 230.108ZM493.371 225.392C494.043 225.392 494.58 225.629 494.982 226.103C495.396 226.571 495.603 227.126 495.603 227.768C495.603 227.798 495.597 227.891 495.585 228.047H491.634C491.694 228.497 491.886 228.857 492.21 229.127C492.534 229.397 492.939 229.532 493.425 229.532C494.109 229.532 494.592 229.277 494.874 228.767L495.396 229.073C495.198 229.397 494.925 229.652 494.577 229.838C494.235 230.018 493.848 230.108 493.416 230.108C492.708 230.108 492.132 229.886 491.688 229.442C491.244 228.998 491.022 228.434 491.022 227.75C491.022 227.072 491.241 226.511 491.679 226.067C492.117 225.617 492.681 225.392 493.371 225.392ZM493.371 225.968C492.903 225.968 492.51 226.106 492.192 226.382C491.88 226.658 491.694 227.021 491.634 227.471H494.991C494.925 226.991 494.742 226.622 494.442 226.364C494.13 226.1 493.773 225.968 493.371 225.968ZM499.734 227.462V225.5H500.328V230H499.734V228.038H497.142V230H496.548V225.5H497.142V227.462H499.734ZM507.569 230H503.564V229.433L505.832 227.147C506.48 226.499 506.804 225.944 506.804 225.482C506.804 225.092 506.681 224.783 506.435 224.555C506.195 224.321 505.895 224.204 505.535 224.204C504.893 224.204 504.422 224.501 504.122 225.095L503.591 224.78C503.783 224.396 504.05 224.102 504.392 223.898C504.734 223.694 505.115 223.592 505.535 223.592C506.039 223.592 506.48 223.763 506.858 224.105C507.242 224.435 507.434 224.894 507.434 225.482C507.434 225.83 507.338 226.172 507.146 226.508C506.954 226.838 506.66 227.201 506.264 227.597L504.464 229.388H507.569V230ZM512.298 230H508.293V229.433L510.561 227.147C511.209 226.499 511.533 225.944 511.533 225.482C511.533 225.092 511.41 224.783 511.164 224.555C510.924 224.321 510.624 224.204 510.264 224.204C509.622 224.204 509.151 224.501 508.851 225.095L508.32 224.78C508.512 224.396 508.779 224.102 509.121 223.898C509.463 223.694 509.844 223.592 510.264 223.592C510.768 223.592 511.209 223.763 511.587 224.105C511.971 224.435 512.163 224.894 512.163 225.482C512.163 225.83 512.067 226.172 511.875 226.508C511.683 226.838 511.389 227.201 510.993 227.597L509.193 229.388H512.298V230Z" fill="#E3E3E3"/>
<path d="M80 158.5C74.1667 155.667 62.2 154.5 61 172.5C59.8 190.5 44.1667 208 36.5 214.5L548.5 214.5V39C542 78.5 505 106.5 481 95C461.8 85.8 446.667 108.5 441.5 121C429 141 399.5 90 379 110C359.5 129.024 336 144 324.5 112.5C313 81 295 91.5 285 106.5C275 121.5 260.5 130.5 246 121C234.4 113.4 216.5 112.167 209 112.5C153 112.5 172.5 85 148.5 85C119 85 102.5 136.5 97 150C92.6 160.8 83.8333 160.167 80 158.5Z" fill="url(#paint0_linear_186_915)"/>
<path d="M80 158.5C74.1667 155.667 62.2 154.5 61 172.5C59.8 190.5 44.1667 208 36.5 214.5L548.5 214.5V39C542 78.5 505 106.5 481 95C461.8 85.8 446.667 108.5 441.5 121C429 141 399.5 90 379 110C359.5 129.024 336 144 324.5 112.5C313 81 295 91.5 285 106.5C275 121.5 260.5 130.5 246 121C234.4 113.4 216.5 112.167 209 112.5C153 112.5 172.5 85 148.5 85C119 85 102.5 136.5 97 150C92.6 160.8 83.8333 160.167 80 158.5Z" stroke="#FFB11B"/>
<defs>
<linearGradient id="paint0_linear_186_915" x1="292.5" y1="62.6581" x2="292.5" y2="214.5" gradientUnits="userSpaceOnUse">
<stop stop-color="#FFC700" stop-opacity="0.5"/>
<stop offset="1" stop-color="#FFC700" stop-opacity="0.2"/>
</linearGradient>
</defs>
</svg>
