<svg width="548" height="232" viewBox="0 0 548 232" fill="none" xmlns="http://www.w3.org/2000/svg">
<g opacity="0.3">
<line x1="36" y1="6.50006" x2="547" y2="6.50002" stroke="#FFB11B" stroke-dasharray="2 2"/>
<line x1="36" y1="32.5001" x2="547" y2="32.5001" stroke="#FFB11B" stroke-dasharray="2 2"/>
<line x1="36" y1="58.5002" x2="547" y2="58.5001" stroke="#FFB11B" stroke-dasharray="2 2"/>
<line x1="36" y1="84.5" x2="547" y2="84.5" stroke="#FFB11B" stroke-dasharray="2 2"/>
<line x1="36" y1="110.5" x2="547" y2="110.5" stroke="#FFB11B" stroke-dasharray="2 2"/>
<line x1="36" y1="136.5" x2="547" y2="136.5" stroke="#FFB11B" stroke-dasharray="2 2"/>
<line x1="36" y1="162.5" x2="547" y2="162.5" stroke="#FFB11B" stroke-dasharray="2 2"/>
<line x1="36" y1="188.5" x2="547" y2="188.5" stroke="#FFB11B" stroke-dasharray="2 2"/>
<line x1="36" y1="214.5" x2="547" y2="214.5" stroke="#FFB11B" stroke-dasharray="2 2"/>
<line x1="36.5" y1="6" x2="36.5" y2="215" stroke="#FFB11B" stroke-dasharray="2 2"/>
<line x1="87.5" y1="6" x2="87.5" y2="215" stroke="#FFB11B" stroke-dasharray="2 2"/>
<line x1="163.5" y1="6" x2="163.5" y2="215" stroke="#FFB11B" stroke-dasharray="2 2"/>
<line x1="239.5" y1="6" x2="239.5" y2="215" stroke="#FFB11B" stroke-dasharray="2 2"/>
<line x1="315.5" y1="6" x2="315.5" y2="215" stroke="#FFB11B" stroke-dasharray="2 2"/>
<line x1="391.5" y1="6" x2="391.5" y2="215" stroke="#FFB11B" stroke-dasharray="2 2"/>
<line x1="467.5" y1="6" x2="467.5" y2="215" stroke="#FFB11B" stroke-dasharray="2 2"/>
<line x1="547.5" y1="6" x2="547.5" y2="215" stroke="#FFB11B" stroke-dasharray="2 2"/>
</g>
<path d="M28.9211 212.226C28.5071 212.814 27.9221 213.108 27.1661 213.108C26.4161 213.108 25.8281 212.814 25.4021 212.226C24.9881 211.632 24.7811 210.84 24.7811 209.85C24.7811 208.854 24.9881 208.065 25.4021 207.483C25.8281 206.889 26.4161 206.592 27.1661 206.592C27.9221 206.592 28.5071 206.889 28.9211 207.483C29.3411 208.065 29.5511 208.854 29.5511 209.85C29.5511 210.846 29.3411 211.638 28.9211 212.226ZM25.8701 211.803C26.1881 212.265 26.6201 212.496 27.1661 212.496C27.7181 212.496 28.1471 212.265 28.4531 211.803C28.7651 211.347 28.9211 210.696 28.9211 209.85C28.9211 209.004 28.7651 208.353 28.4531 207.897C28.1471 207.435 27.7181 207.204 27.1661 207.204C26.6201 207.204 26.1881 207.435 25.8701 207.897C25.5641 208.359 25.4111 209.01 25.4111 209.85C25.4111 210.69 25.5641 211.341 25.8701 211.803Z" fill="#E3E3E3"/>
<path d="M18.3865 187H14.3815V186.433L16.6495 184.147C17.2975 183.499 17.6215 182.944 17.6215 182.482C17.6215 182.092 17.4985 181.783 17.2525 181.555C17.0125 181.321 16.7125 181.204 16.3525 181.204C15.7105 181.204 15.2395 181.501 14.9395 182.095L14.4085 181.78C14.6005 181.396 14.8675 181.102 15.2095 180.898C15.5515 180.694 15.9325 180.592 16.3525 180.592C16.8565 180.592 17.2975 180.763 17.6755 181.105C18.0595 181.435 18.2515 181.894 18.2515 182.482C18.2515 182.83 18.1555 183.172 17.9635 183.508C17.7715 183.838 17.4775 184.201 17.0815 184.597L15.2815 186.388H18.3865V187ZM23.2521 186.226C22.8381 186.814 22.2531 187.108 21.4971 187.108C20.7471 187.108 20.1591 186.814 19.7331 186.226C19.3191 185.632 19.1121 184.84 19.1121 183.85C19.1121 182.854 19.3191 182.065 19.7331 181.483C20.1591 180.889 20.7471 180.592 21.4971 180.592C22.2531 180.592 22.8381 180.889 23.2521 181.483C23.6721 182.065 23.8821 182.854 23.8821 183.85C23.8821 184.846 23.6721 185.638 23.2521 186.226ZM20.2011 185.803C20.5191 186.265 20.9511 186.496 21.4971 186.496C22.0491 186.496 22.4781 186.265 22.7841 185.803C23.0961 185.347 23.2521 184.696 23.2521 183.85C23.2521 183.004 23.0961 182.353 22.7841 181.897C22.4781 181.435 22.0491 181.204 21.4971 181.204C20.9511 181.204 20.5191 181.435 20.2011 181.897C19.8951 182.359 19.7421 183.01 19.7421 183.85C19.7421 184.69 19.8951 185.341 20.2011 185.803ZM28.9211 186.226C28.5071 186.814 27.9221 187.108 27.1661 187.108C26.4161 187.108 25.8281 186.814 25.4021 186.226C24.9881 185.632 24.7811 184.84 24.7811 183.85C24.7811 182.854 24.9881 182.065 25.4021 181.483C25.8281 180.889 26.4161 180.592 27.1661 180.592C27.9221 180.592 28.5071 180.889 28.9211 181.483C29.3411 182.065 29.5511 182.854 29.5511 183.85C29.5511 184.846 29.3411 185.638 28.9211 186.226ZM25.8701 185.803C26.1881 186.265 26.6201 186.496 27.1661 186.496C27.7181 186.496 28.1471 186.265 28.4531 185.803C28.7651 185.347 28.9211 184.696 28.9211 183.85C28.9211 183.004 28.7651 182.353 28.4531 181.897C28.1471 181.435 27.7181 181.204 27.1661 181.204C26.6201 181.204 26.1881 181.435 25.8701 181.897C25.5641 182.359 25.4111 183.01 25.4111 183.85C25.4111 184.69 25.5641 185.341 25.8701 185.803Z" fill="#E3E3E3"/>
<path d="M17.6264 159.146H18.4364V159.74H17.6264V161H16.9964V159.74H13.6664V159.146L16.0064 154.7H16.6994L14.3594 159.146H16.9964V157.22H17.6264V159.146ZM23.2521 160.226C22.8381 160.814 22.2531 161.108 21.4971 161.108C20.7471 161.108 20.1591 160.814 19.7331 160.226C19.3191 159.632 19.1121 158.84 19.1121 157.85C19.1121 156.854 19.3191 156.065 19.7331 155.483C20.1591 154.889 20.7471 154.592 21.4971 154.592C22.2531 154.592 22.8381 154.889 23.2521 155.483C23.6721 156.065 23.8821 156.854 23.8821 157.85C23.8821 158.846 23.6721 159.638 23.2521 160.226ZM20.2011 159.803C20.5191 160.265 20.9511 160.496 21.4971 160.496C22.0491 160.496 22.4781 160.265 22.7841 159.803C23.0961 159.347 23.2521 158.696 23.2521 157.85C23.2521 157.004 23.0961 156.353 22.7841 155.897C22.4781 155.435 22.0491 155.204 21.4971 155.204C20.9511 155.204 20.5191 155.435 20.2011 155.897C19.8951 156.359 19.7421 157.01 19.7421 157.85C19.7421 158.69 19.8951 159.341 20.2011 159.803ZM28.9211 160.226C28.5071 160.814 27.9221 161.108 27.1661 161.108C26.4161 161.108 25.8281 160.814 25.4021 160.226C24.9881 159.632 24.7811 158.84 24.7811 157.85C24.7811 156.854 24.9881 156.065 25.4021 155.483C25.8281 154.889 26.4161 154.592 27.1661 154.592C27.9221 154.592 28.5071 154.889 28.9211 155.483C29.3411 156.065 29.5511 156.854 29.5511 157.85C29.5511 158.846 29.3411 159.638 28.9211 160.226ZM25.8701 159.803C26.1881 160.265 26.6201 160.496 27.1661 160.496C27.7181 160.496 28.1471 160.265 28.4531 159.803C28.7651 159.347 28.9211 158.696 28.9211 157.85C28.9211 157.004 28.7651 156.353 28.4531 155.897C28.1471 155.435 27.7181 155.204 27.1661 155.204C26.6201 155.204 26.1881 155.435 25.8701 155.897C25.5641 156.359 25.4111 157.01 25.4111 157.85C25.4111 158.69 25.5641 159.341 25.8701 159.803Z" fill="#E3E3E3"/>
<path d="M16.2746 132.95C16.8866 132.95 17.3936 133.145 17.7956 133.535C18.1916 133.925 18.3896 134.423 18.3896 135.029C18.3896 135.647 18.1916 136.148 17.7956 136.532C17.4056 136.916 16.8986 137.108 16.2746 137.108C15.6506 137.108 15.1436 136.916 14.7536 136.532C14.3576 136.148 14.1596 135.647 14.1596 135.029C14.1596 134.555 14.2886 134.135 14.5466 133.769L16.6076 130.7H17.3186L15.7706 133.004C15.9326 132.968 16.1006 132.95 16.2746 132.95ZM15.1946 136.091C15.4766 136.361 15.8366 136.496 16.2746 136.496C16.7186 136.496 17.0756 136.361 17.3456 136.091C17.6216 135.821 17.7596 135.467 17.7596 135.029C17.7596 134.591 17.6216 134.237 17.3456 133.967C17.0756 133.697 16.7186 133.562 16.2746 133.562C15.8366 133.562 15.4766 133.697 15.1946 133.967C14.9246 134.237 14.7896 134.591 14.7896 135.029C14.7896 135.467 14.9246 135.821 15.1946 136.091ZM23.2521 136.226C22.8381 136.814 22.2531 137.108 21.4971 137.108C20.7471 137.108 20.1591 136.814 19.7331 136.226C19.3191 135.632 19.1121 134.84 19.1121 133.85C19.1121 132.854 19.3191 132.065 19.7331 131.483C20.1591 130.889 20.7471 130.592 21.4971 130.592C22.2531 130.592 22.8381 130.889 23.2521 131.483C23.6721 132.065 23.8821 132.854 23.8821 133.85C23.8821 134.846 23.6721 135.638 23.2521 136.226ZM20.2011 135.803C20.5191 136.265 20.9511 136.496 21.4971 136.496C22.0491 136.496 22.4781 136.265 22.7841 135.803C23.0961 135.347 23.2521 134.696 23.2521 133.85C23.2521 133.004 23.0961 132.353 22.7841 131.897C22.4781 131.435 22.0491 131.204 21.4971 131.204C20.9511 131.204 20.5191 131.435 20.2011 131.897C19.8951 132.359 19.7421 133.01 19.7421 133.85C19.7421 134.69 19.8951 135.341 20.2011 135.803ZM28.9211 136.226C28.5071 136.814 27.9221 137.108 27.1661 137.108C26.4161 137.108 25.8281 136.814 25.4021 136.226C24.9881 135.632 24.7811 134.84 24.7811 133.85C24.7811 132.854 24.9881 132.065 25.4021 131.483C25.8281 130.889 26.4161 130.592 27.1661 130.592C27.9221 130.592 28.5071 130.889 28.9211 131.483C29.3411 132.065 29.5511 132.854 29.5511 133.85C29.5511 134.846 29.3411 135.638 28.9211 136.226ZM25.8701 135.803C26.1881 136.265 26.6201 136.496 27.1661 136.496C27.7181 136.496 28.1471 136.265 28.4531 135.803C28.7651 135.347 28.9211 134.696 28.9211 133.85C28.9211 133.004 28.7651 132.353 28.4531 131.897C28.1471 131.435 27.7181 131.204 27.1661 131.204C26.6201 131.204 26.1881 131.435 25.8701 131.897C25.5641 132.359 25.4111 133.01 25.4111 133.85C25.4111 134.69 25.5641 135.341 25.8701 135.803Z" fill="#E3E3E3"/>
<path d="M17.2594 105.751C17.5834 105.901 17.8384 106.111 18.0244 106.381C18.2104 106.651 18.3034 106.954 18.3034 107.29C18.3034 107.86 18.1024 108.307 17.7004 108.631C17.2924 108.949 16.7914 109.108 16.1974 109.108C15.6034 109.108 15.1024 108.949 14.6944 108.631C14.2924 108.307 14.0914 107.86 14.0914 107.29C14.0914 106.954 14.1844 106.651 14.3704 106.381C14.5564 106.111 14.8114 105.901 15.1354 105.751C14.5774 105.433 14.2984 104.962 14.2984 104.338C14.2984 103.774 14.4844 103.342 14.8564 103.042C15.2404 102.742 15.6874 102.592 16.1974 102.592C16.7134 102.592 17.1574 102.742 17.5294 103.042C17.9074 103.342 18.0964 103.774 18.0964 104.338C18.0964 104.962 17.8174 105.433 17.2594 105.751ZM14.9284 104.338C14.9284 104.686 15.0484 104.962 15.2884 105.166C15.5344 105.37 15.8374 105.472 16.1974 105.472C16.5574 105.472 16.8574 105.37 17.0974 105.166C17.3434 104.962 17.4664 104.686 17.4664 104.338C17.4664 103.972 17.3494 103.693 17.1154 103.501C16.8814 103.303 16.5754 103.204 16.1974 103.204C15.8194 103.204 15.5134 103.303 15.2794 103.501C15.0454 103.693 14.9284 103.972 14.9284 104.338ZM15.1264 108.19C15.3904 108.394 15.7474 108.496 16.1974 108.496C16.6474 108.496 17.0044 108.394 17.2684 108.19C17.5384 107.98 17.6734 107.68 17.6734 107.29C17.6734 106.906 17.5384 106.609 17.2684 106.399C16.9924 106.189 16.6354 106.084 16.1974 106.084C15.7594 106.084 15.4024 106.189 15.1264 106.399C14.8564 106.609 14.7214 106.906 14.7214 107.29C14.7214 107.686 14.8564 107.986 15.1264 108.19ZM23.2521 108.226C22.8381 108.814 22.2531 109.108 21.4971 109.108C20.7471 109.108 20.1591 108.814 19.7331 108.226C19.3191 107.632 19.1121 106.84 19.1121 105.85C19.1121 104.854 19.3191 104.065 19.7331 103.483C20.1591 102.889 20.7471 102.592 21.4971 102.592C22.2531 102.592 22.8381 102.889 23.2521 103.483C23.6721 104.065 23.8821 104.854 23.8821 105.85C23.8821 106.846 23.6721 107.638 23.2521 108.226ZM20.2011 107.803C20.5191 108.265 20.9511 108.496 21.4971 108.496C22.0491 108.496 22.4781 108.265 22.7841 107.803C23.0961 107.347 23.2521 106.696 23.2521 105.85C23.2521 105.004 23.0961 104.353 22.7841 103.897C22.4781 103.435 22.0491 103.204 21.4971 103.204C20.9511 103.204 20.5191 103.435 20.2011 103.897C19.8951 104.359 19.7421 105.01 19.7421 105.85C19.7421 106.69 19.8951 107.341 20.2011 107.803ZM28.9211 108.226C28.5071 108.814 27.9221 109.108 27.1661 109.108C26.4161 109.108 25.8281 108.814 25.4021 108.226C24.9881 107.632 24.7811 106.84 24.7811 105.85C24.7811 104.854 24.9881 104.065 25.4021 103.483C25.8281 102.889 26.4161 102.592 27.1661 102.592C27.9221 102.592 28.5071 102.889 28.9211 103.483C29.3411 104.065 29.5511 104.854 29.5511 105.85C29.5511 106.846 29.3411 107.638 28.9211 108.226ZM25.8701 107.803C26.1881 108.265 26.6201 108.496 27.1661 108.496C27.7181 108.496 28.1471 108.265 28.4531 107.803C28.7651 107.347 28.9211 106.696 28.9211 105.85C28.9211 105.004 28.7651 104.353 28.4531 103.897C28.1471 103.435 27.7181 103.204 27.1661 103.204C26.6201 103.204 26.1881 103.435 25.8701 103.897C25.5641 104.359 25.4111 105.01 25.4111 105.85C25.4111 106.69 25.5641 107.341 25.8701 107.803Z" fill="#E3E3E3"/>
<path d="M7.81957 77.276L9.48457 76.7H10.0246V83H9.39457V77.393L7.98157 77.816L7.81957 77.276ZM17.5832 82.226C17.1692 82.814 16.5842 83.108 15.8282 83.108C15.0782 83.108 14.4902 82.814 14.0642 82.226C13.6502 81.632 13.4432 80.84 13.4432 79.85C13.4432 78.854 13.6502 78.065 14.0642 77.483C14.4902 76.889 15.0782 76.592 15.8282 76.592C16.5842 76.592 17.1692 76.889 17.5832 77.483C18.0032 78.065 18.2132 78.854 18.2132 79.85C18.2132 80.846 18.0032 81.638 17.5832 82.226ZM14.5322 81.803C14.8502 82.265 15.2822 82.496 15.8282 82.496C16.3802 82.496 16.8092 82.265 17.1152 81.803C17.4272 81.347 17.5832 80.696 17.5832 79.85C17.5832 79.004 17.4272 78.353 17.1152 77.897C16.8092 77.435 16.3802 77.204 15.8282 77.204C15.2822 77.204 14.8502 77.435 14.5322 77.897C14.2262 78.359 14.0732 79.01 14.0732 79.85C14.0732 80.69 14.2262 81.341 14.5322 81.803ZM23.2521 82.226C22.8381 82.814 22.2531 83.108 21.4971 83.108C20.7471 83.108 20.1591 82.814 19.7331 82.226C19.3191 81.632 19.1121 80.84 19.1121 79.85C19.1121 78.854 19.3191 78.065 19.7331 77.483C20.1591 76.889 20.7471 76.592 21.4971 76.592C22.2531 76.592 22.8381 76.889 23.2521 77.483C23.6721 78.065 23.8821 78.854 23.8821 79.85C23.8821 80.846 23.6721 81.638 23.2521 82.226ZM20.2011 81.803C20.5191 82.265 20.9511 82.496 21.4971 82.496C22.0491 82.496 22.4781 82.265 22.7841 81.803C23.0961 81.347 23.2521 80.696 23.2521 79.85C23.2521 79.004 23.0961 78.353 22.7841 77.897C22.4781 77.435 22.0491 77.204 21.4971 77.204C20.9511 77.204 20.5191 77.435 20.2011 77.897C19.8951 78.359 19.7421 79.01 19.7421 79.85C19.7421 80.69 19.8951 81.341 20.2011 81.803ZM28.9211 82.226C28.5071 82.814 27.9221 83.108 27.1661 83.108C26.4161 83.108 25.8281 82.814 25.4021 82.226C24.9881 81.632 24.7811 80.84 24.7811 79.85C24.7811 78.854 24.9881 78.065 25.4021 77.483C25.8281 76.889 26.4161 76.592 27.1661 76.592C27.9221 76.592 28.5071 76.889 28.9211 77.483C29.3411 78.065 29.5511 78.854 29.5511 79.85C29.5511 80.846 29.3411 81.638 28.9211 82.226ZM25.8701 81.803C26.1881 82.265 26.6201 82.496 27.1661 82.496C27.7181 82.496 28.1471 82.265 28.4531 81.803C28.7651 81.347 28.9211 80.696 28.9211 79.85C28.9211 79.004 28.7651 78.353 28.4531 77.897C28.1471 77.435 27.7181 77.204 27.1661 77.204C26.6201 77.204 26.1881 77.435 25.8701 77.897C25.5641 78.359 25.4111 79.01 25.4111 79.85C25.4111 80.69 25.5641 81.341 25.8701 81.803Z" fill="#E3E3E3"/>
<path d="M8.84789 53.276L10.5129 52.7H11.0529V59H10.4229V53.393L9.00989 53.816L8.84789 53.276ZM18.3865 59H14.3815V58.433L16.6495 56.147C17.2975 55.499 17.6215 54.944 17.6215 54.482C17.6215 54.092 17.4985 53.783 17.2525 53.555C17.0125 53.321 16.7125 53.204 16.3525 53.204C15.7105 53.204 15.2395 53.501 14.9395 54.095L14.4085 53.78C14.6005 53.396 14.8675 53.102 15.2095 52.898C15.5515 52.694 15.9325 52.592 16.3525 52.592C16.8565 52.592 17.2975 52.763 17.6755 53.105C18.0595 53.435 18.2515 53.894 18.2515 54.482C18.2515 54.83 18.1555 55.172 17.9635 55.508C17.7715 55.838 17.4775 56.201 17.0815 56.597L15.2815 58.388H18.3865V59ZM23.2521 58.226C22.8381 58.814 22.2531 59.108 21.4971 59.108C20.7471 59.108 20.1591 58.814 19.7331 58.226C19.3191 57.632 19.1121 56.84 19.1121 55.85C19.1121 54.854 19.3191 54.065 19.7331 53.483C20.1591 52.889 20.7471 52.592 21.4971 52.592C22.2531 52.592 22.8381 52.889 23.2521 53.483C23.6721 54.065 23.8821 54.854 23.8821 55.85C23.8821 56.846 23.6721 57.638 23.2521 58.226ZM20.2011 57.803C20.5191 58.265 20.9511 58.496 21.4971 58.496C22.0491 58.496 22.4781 58.265 22.7841 57.803C23.0961 57.347 23.2521 56.696 23.2521 55.85C23.2521 55.004 23.0961 54.353 22.7841 53.897C22.4781 53.435 22.0491 53.204 21.4971 53.204C20.9511 53.204 20.5191 53.435 20.2011 53.897C19.8951 54.359 19.7421 55.01 19.7421 55.85C19.7421 56.69 19.8951 57.341 20.2011 57.803ZM28.9211 58.226C28.5071 58.814 27.9221 59.108 27.1661 59.108C26.4161 59.108 25.8281 58.814 25.4021 58.226C24.9881 57.632 24.7811 56.84 24.7811 55.85C24.7811 54.854 24.9881 54.065 25.4021 53.483C25.8281 52.889 26.4161 52.592 27.1661 52.592C27.9221 52.592 28.5071 52.889 28.9211 53.483C29.3411 54.065 29.5511 54.854 29.5511 55.85C29.5511 56.846 29.3411 57.638 28.9211 58.226ZM25.8701 57.803C26.1881 58.265 26.6201 58.496 27.1661 58.496C27.7181 58.496 28.1471 58.265 28.4531 57.803C28.7651 57.347 28.9211 56.696 28.9211 55.85C28.9211 55.004 28.7651 54.353 28.4531 53.897C28.1471 53.435 27.7181 53.204 27.1661 53.204C26.6201 53.204 26.1881 53.435 25.8701 53.897C25.5641 54.359 25.4111 55.01 25.4111 55.85C25.4111 56.69 25.5641 57.341 25.8701 57.803Z" fill="#E3E3E3"/>
<path d="M8.26781 27.276L9.93281 26.7H10.4728V33H9.84281V27.393L8.42981 27.816L8.26781 27.276ZM17.6264 31.146H18.4364V31.74H17.6264V33H16.9964V31.74H13.6664V31.146L16.0064 26.7H16.6994L14.3594 31.146H16.9964V29.22H17.6264V31.146ZM23.2521 32.226C22.8381 32.814 22.2531 33.108 21.4971 33.108C20.7471 33.108 20.1591 32.814 19.7331 32.226C19.3191 31.632 19.1121 30.84 19.1121 29.85C19.1121 28.854 19.3191 28.065 19.7331 27.483C20.1591 26.889 20.7471 26.592 21.4971 26.592C22.2531 26.592 22.8381 26.889 23.2521 27.483C23.6721 28.065 23.8821 28.854 23.8821 29.85C23.8821 30.846 23.6721 31.638 23.2521 32.226ZM20.2011 31.803C20.5191 32.265 20.9511 32.496 21.4971 32.496C22.0491 32.496 22.4781 32.265 22.7841 31.803C23.0961 31.347 23.2521 30.696 23.2521 29.85C23.2521 29.004 23.0961 28.353 22.7841 27.897C22.4781 27.435 22.0491 27.204 21.4971 27.204C20.9511 27.204 20.5191 27.435 20.2011 27.897C19.8951 28.359 19.7421 29.01 19.7421 29.85C19.7421 30.69 19.8951 31.341 20.2011 31.803ZM28.9211 32.226C28.5071 32.814 27.9221 33.108 27.1661 33.108C26.4161 33.108 25.8281 32.814 25.4021 32.226C24.9881 31.632 24.7811 30.84 24.7811 29.85C24.7811 28.854 24.9881 28.065 25.4021 27.483C25.8281 26.889 26.4161 26.592 27.1661 26.592C27.9221 26.592 28.5071 26.889 28.9211 27.483C29.3411 28.065 29.5511 28.854 29.5511 29.85C29.5511 30.846 29.3411 31.638 28.9211 32.226ZM25.8701 31.803C26.1881 32.265 26.6201 32.496 27.1661 32.496C27.7181 32.496 28.1471 32.265 28.4531 31.803C28.7651 31.347 28.9211 30.696 28.9211 29.85C28.9211 29.004 28.7651 28.353 28.4531 27.897C28.1471 27.435 27.7181 27.204 27.1661 27.204C26.6201 27.204 26.1881 27.435 25.8701 27.897C25.5641 28.359 25.4111 29.01 25.4111 29.85C25.4111 30.69 25.5641 31.341 25.8701 31.803Z" fill="#E3E3E3"/>
<path d="M4.76864 3.733C5.08064 3.865 5.32664 4.066 5.50664 4.336C5.68664 4.606 5.77664 4.909 5.77664 5.245C5.77664 5.731 5.60564 6.145 5.26364 6.487C4.92164 6.829 4.50764 7 4.02164 7H1.27664V0.7H3.81464C4.27664 0.7 4.67564 0.868 5.01164 1.204C5.34164 1.534 5.50664 1.93 5.50664 2.392C5.50664 2.98 5.26064 3.427 4.76864 3.733ZM3.81464 1.294H1.90664V3.49H3.81464C4.10264 3.49 4.35164 3.385 4.56164 3.175C4.77164 2.953 4.87664 2.692 4.87664 2.392C4.87664 2.098 4.77164 1.84 4.56164 1.618C4.35164 1.402 4.10264 1.294 3.81464 1.294ZM1.90664 6.406H4.02164C4.33364 6.406 4.59764 6.295 4.81364 6.073C5.03564 5.851 5.14664 5.575 5.14664 5.245C5.14664 4.921 5.03564 4.648 4.81364 4.426C4.59764 4.198 4.33364 4.084 4.02164 4.084H1.90664V6.406ZM7.3617 5.965L10.0437 2.5H10.5477V7H9.9537V3.535L7.2717 7H6.7677V2.5H7.3617V5.965ZM14.1258 4.687C14.6478 4.885 14.9088 5.245 14.9088 5.767C14.9088 6.145 14.7618 6.463 14.4678 6.721C14.1858 6.979 13.7718 7.108 13.2258 7.108C12.3138 7.108 11.7198 6.748 11.4438 6.028L11.9478 5.731C12.1398 6.265 12.5658 6.532 13.2258 6.532C13.5678 6.532 13.8348 6.46 14.0268 6.316C14.2188 6.166 14.3148 5.971 14.3148 5.731C14.3148 5.515 14.2368 5.344 14.0808 5.218C13.9248 5.086 13.7148 5.02 13.4508 5.02H12.7938V4.444H13.2708C13.5288 4.444 13.7298 4.381 13.8738 4.255C14.0238 4.123 14.0988 3.943 14.0988 3.715C14.0988 3.499 14.0088 3.322 13.8288 3.184C13.6548 3.04 13.4238 2.968 13.1358 2.968C12.5778 2.968 12.2028 3.193 12.0108 3.643L11.5158 3.355C11.8158 2.713 12.3558 2.392 13.1358 2.392C13.6158 2.392 13.9938 2.518 14.2698 2.77C14.5518 3.016 14.6928 3.319 14.6928 3.679C14.6928 4.141 14.5038 4.477 14.1258 4.687ZM16.4056 5.965L19.0876 2.5H19.5916V7H18.9976V3.535L16.3156 7H15.8116V2.5H16.4056V5.965ZM20.3078 2.5H24.0878V3.076H22.4948V7H21.9008V3.076H20.3078V2.5ZM25.4056 4.21H26.6386C27.0526 4.21 27.4066 4.342 27.7006 4.606C27.9946 4.864 28.1416 5.197 28.1416 5.605C28.1416 6.019 27.9946 6.355 27.7006 6.613C27.4186 6.871 27.0646 7 26.6386 7H24.8116V2.5H25.4056V4.21ZM28.7716 7V2.5H29.3656V7H28.7716ZM25.4056 6.424H26.6386C26.8966 6.424 27.1126 6.349 27.2866 6.199C27.4606 6.043 27.5476 5.845 27.5476 5.605C27.5476 5.365 27.4606 5.17 27.2866 5.02C27.1126 4.864 26.8966 4.786 26.6386 4.786H25.4056V6.424Z" fill="#E3E3E3"/>
<path d="M41.931 229.163C41.301 229.793 40.53 230.108 39.618 230.108C38.706 230.108 37.935 229.793 37.305 229.163C36.675 228.521 36.36 227.75 36.36 226.85C36.36 225.944 36.675 225.176 37.305 224.546C37.935 223.91 38.706 223.592 39.618 223.592C40.53 223.592 41.301 223.91 41.931 224.546C42.561 225.176 42.876 225.944 42.876 226.85C42.876 227.75 42.561 228.521 41.931 229.163ZM36.99 226.85C36.99 227.594 37.242 228.221 37.746 228.731C38.25 229.241 38.874 229.496 39.618 229.496C40.362 229.496 40.986 229.241 41.49 228.731C41.994 228.221 42.246 227.594 42.246 226.85C42.246 226.112 41.994 225.488 41.49 224.978C40.986 224.462 40.362 224.204 39.618 224.204C38.874 224.204 38.25 224.462 37.746 224.978C37.242 225.488 36.99 226.112 36.99 226.85ZM45.0874 227.66L47.4994 230H46.7074L44.4574 227.831V230H43.8634V225.5H44.4574V227.489L46.5994 225.5H47.4094L45.0874 227.66ZM47.7707 225.5H51.5507V226.076H49.9577V230H49.3637V226.076H47.7707V225.5ZM54.0295 224.276L55.6945 223.7H56.2345V230H55.6045V224.393L54.1915 224.816L54.0295 224.276ZM58.2761 226.238H59.3381C59.9321 226.238 60.4301 226.412 60.8321 226.76C61.2461 227.102 61.4531 227.573 61.4531 228.173C61.4531 228.767 61.2461 229.241 60.8321 229.595C60.4301 229.937 59.9321 230.108 59.3381 230.108C58.8521 230.108 58.4231 229.991 58.0511 229.757C57.6851 229.517 57.4391 229.187 57.3131 228.767L57.8441 228.461C57.9341 228.791 58.1111 229.046 58.3751 229.226C58.6391 229.406 58.9601 229.496 59.3381 229.496C59.7821 229.496 60.1391 229.379 60.4091 229.145C60.6851 228.905 60.8231 228.581 60.8231 228.173C60.8231 227.765 60.6851 227.444 60.4091 227.21C60.1391 226.97 59.7821 226.85 59.3381 226.85H57.6281L57.8531 223.7H61.2281V224.294H58.4111L58.2761 226.238Z" fill="#E3E3E3"/>
<path d="M92.58 230H91.914L91.329 228.452H88.341L87.756 230H87.09L89.511 223.7H90.159L92.58 230ZM89.835 224.483L88.566 227.858H91.104L89.835 224.483ZM96.1609 227.687C96.6529 227.867 96.8989 228.218 96.8989 228.74C96.8989 229.112 96.7729 229.415 96.5209 229.649C96.2749 229.883 95.9299 230 95.4859 230H93.2989V225.5H95.3059C95.7379 225.5 96.0739 225.611 96.3139 225.833C96.5599 226.055 96.6829 226.346 96.6829 226.706C96.6829 227.156 96.5089 227.483 96.1609 227.687ZM95.3059 226.076H93.8929V227.444H95.3059C95.8279 227.444 96.0889 227.21 96.0889 226.742C96.0889 226.532 96.0199 226.37 95.8819 226.256C95.7499 226.136 95.5579 226.076 95.3059 226.076ZM93.8929 229.424H95.4859C95.7499 229.424 95.9509 229.361 96.0889 229.235C96.2329 229.109 96.3049 228.932 96.3049 228.704C96.3049 228.488 96.2329 228.32 96.0889 228.2C95.9509 228.08 95.7499 228.02 95.4859 228.02H93.8929V229.424ZM97.7989 225.5H100.679V226.076H98.3929V230H97.7989V225.5ZM103.157 224.276L104.822 223.7H105.362V230H104.732V224.393L103.319 224.816L103.157 224.276ZM108.466 225.95C109.078 225.95 109.585 226.145 109.987 226.535C110.383 226.925 110.581 227.423 110.581 228.029C110.581 228.647 110.383 229.148 109.987 229.532C109.597 229.916 109.09 230.108 108.466 230.108C107.842 230.108 107.335 229.916 106.945 229.532C106.549 229.148 106.351 228.647 106.351 228.029C106.351 227.555 106.48 227.135 106.738 226.769L108.799 223.7H109.51L107.962 226.004C108.124 225.968 108.292 225.95 108.466 225.95ZM107.386 229.091C107.668 229.361 108.028 229.496 108.466 229.496C108.91 229.496 109.267 229.361 109.537 229.091C109.813 228.821 109.951 228.467 109.951 228.029C109.951 227.591 109.813 227.237 109.537 226.967C109.267 226.697 108.91 226.562 108.466 226.562C108.028 226.562 107.668 226.697 107.386 226.967C107.116 227.237 106.981 227.591 106.981 228.029C106.981 228.467 107.116 228.821 107.386 229.091Z" fill="#E3E3E3"/>
<path d="M168.4 230H167.77V224.87L164.26 230H163.72V223.7H164.35V228.83L167.86 223.7H168.4V230ZM173.59 225.392C174.25 225.392 174.808 225.62 175.264 226.076C175.726 226.526 175.957 227.084 175.957 227.75C175.957 228.41 175.726 228.971 175.264 229.433C174.802 229.883 174.244 230.108 173.59 230.108C172.99 230.108 172.468 229.913 172.024 229.523C171.586 229.121 171.337 228.626 171.277 228.038H170.341V230H169.747V225.5H170.341V227.462H171.277C171.343 226.868 171.592 226.376 172.024 225.986C172.462 225.59 172.984 225.392 173.59 225.392ZM172.33 229.019C172.672 229.361 173.092 229.532 173.59 229.532C174.088 229.532 174.508 229.361 174.85 229.019C175.192 228.665 175.363 228.242 175.363 227.75C175.363 227.252 175.192 226.832 174.85 226.49C174.508 226.142 174.088 225.968 173.59 225.968C173.092 225.968 172.672 226.142 172.33 226.49C171.988 226.832 171.817 227.252 171.817 227.75C171.817 228.242 171.988 228.665 172.33 229.019ZM180.131 227.462V225.5H180.725V230H180.131V228.038H177.539V230H176.945V225.5H177.539V227.462H180.131ZM183.737 224.276L185.402 223.7H185.942V230H185.312V224.393L183.899 224.816L183.737 224.276ZM186.84 224.294V223.7H190.71V224.294L188.334 230H187.677L190.053 224.294H186.84Z" fill="#E3E3E3"/>
<path d="M244.58 230H243.914L243.329 228.452H240.341L239.756 230H239.09L241.511 223.7H242.159L244.58 230ZM241.835 224.483L240.566 227.858H243.104L241.835 224.483ZM245.299 225.5H249.079V230H248.485V226.076H245.893V230H245.299V225.5ZM252.747 225.392C253.389 225.392 253.935 225.62 254.385 226.076C254.841 226.532 255.069 227.09 255.069 227.75C255.069 228.41 254.841 228.968 254.385 229.424C253.935 229.88 253.389 230.108 252.747 230.108C251.949 230.108 251.343 229.778 250.929 229.118V231.8H250.335V225.5H250.929V226.382C251.343 225.722 251.949 225.392 252.747 225.392ZM251.442 229.019C251.784 229.361 252.204 229.532 252.702 229.532C253.2 229.532 253.62 229.361 253.962 229.019C254.304 228.665 254.475 228.242 254.475 227.75C254.475 227.252 254.304 226.832 253.962 226.49C253.62 226.142 253.2 225.968 252.702 225.968C252.204 225.968 251.784 226.142 251.442 226.49C251.1 226.832 250.929 227.252 250.929 227.75C250.929 228.242 251.1 228.665 251.442 229.019ZM257.812 224.276L259.477 223.7H260.017V230H259.387V224.393L257.974 224.816L257.812 224.276ZM264.263 226.751C264.587 226.901 264.842 227.111 265.028 227.381C265.214 227.651 265.307 227.954 265.307 228.29C265.307 228.86 265.106 229.307 264.704 229.631C264.296 229.949 263.795 230.108 263.201 230.108C262.607 230.108 262.106 229.949 261.698 229.631C261.296 229.307 261.095 228.86 261.095 228.29C261.095 227.954 261.188 227.651 261.374 227.381C261.56 227.111 261.815 226.901 262.139 226.751C261.581 226.433 261.302 225.962 261.302 225.338C261.302 224.774 261.488 224.342 261.86 224.042C262.244 223.742 262.691 223.592 263.201 223.592C263.717 223.592 264.161 223.742 264.533 224.042C264.911 224.342 265.1 224.774 265.1 225.338C265.1 225.962 264.821 226.433 264.263 226.751ZM261.932 225.338C261.932 225.686 262.052 225.962 262.292 226.166C262.538 226.37 262.841 226.472 263.201 226.472C263.561 226.472 263.861 226.37 264.101 226.166C264.347 225.962 264.47 225.686 264.47 225.338C264.47 224.972 264.353 224.693 264.119 224.501C263.885 224.303 263.579 224.204 263.201 224.204C262.823 224.204 262.517 224.303 262.283 224.501C262.049 224.693 261.932 224.972 261.932 225.338ZM262.13 229.19C262.394 229.394 262.751 229.496 263.201 229.496C263.651 229.496 264.008 229.394 264.272 229.19C264.542 228.98 264.677 228.68 264.677 228.29C264.677 227.906 264.542 227.609 264.272 227.399C263.996 227.189 263.639 227.084 263.201 227.084C262.763 227.084 262.406 227.189 262.13 227.399C261.86 227.609 261.725 227.906 261.725 228.29C261.725 228.686 261.86 228.986 262.13 229.19Z" fill="#E3E3E3"/>
<path d="M318.933 229.289V230H318.303V229.289C317.385 229.241 316.65 229.01 316.098 228.596C315.546 228.17 315.27 227.588 315.27 226.85C315.27 226.112 315.546 225.53 316.098 225.104C316.65 224.69 317.385 224.459 318.303 224.411V223.7H318.933V224.411C319.857 224.459 320.589 224.69 321.129 225.104C321.687 225.53 321.966 226.112 321.966 226.85C321.966 227.594 321.687 228.176 321.129 228.596C320.589 229.01 319.857 229.241 318.933 229.289ZM318.303 228.713V224.987C317.553 225.023 316.965 225.203 316.539 225.527C316.113 225.845 315.9 226.286 315.9 226.85C315.9 227.414 316.113 227.858 316.539 228.182C316.965 228.5 317.553 228.677 318.303 228.713ZM318.933 224.987V228.713C319.683 228.677 320.271 228.5 320.697 228.182C321.123 227.858 321.336 227.414 321.336 226.85C321.336 226.286 321.123 225.845 320.697 225.527C320.271 225.203 319.683 225.023 318.933 224.987ZM324.942 225.392C325.614 225.392 326.151 225.629 326.553 226.103C326.967 226.571 327.174 227.126 327.174 227.768C327.174 227.798 327.168 227.891 327.156 228.047H323.205C323.265 228.497 323.457 228.857 323.781 229.127C324.105 229.397 324.51 229.532 324.996 229.532C325.68 229.532 326.163 229.277 326.445 228.767L326.967 229.073C326.769 229.397 326.496 229.652 326.148 229.838C325.806 230.018 325.419 230.108 324.987 230.108C324.279 230.108 323.703 229.886 323.259 229.442C322.815 228.998 322.593 228.434 322.593 227.75C322.593 227.072 322.812 226.511 323.25 226.067C323.688 225.617 324.252 225.392 324.942 225.392ZM324.942 225.968C324.474 225.968 324.081 226.106 323.763 226.382C323.451 226.658 323.265 227.021 323.205 227.471H326.562C326.496 226.991 326.313 226.622 326.013 226.364C325.701 226.1 325.344 225.968 324.942 225.968ZM330.981 227.687C331.473 227.867 331.719 228.218 331.719 228.74C331.719 229.112 331.593 229.415 331.341 229.649C331.095 229.883 330.75 230 330.306 230H328.119V225.5H330.126C330.558 225.5 330.894 225.611 331.134 225.833C331.38 226.055 331.503 226.346 331.503 226.706C331.503 227.156 331.329 227.483 330.981 227.687ZM330.126 226.076H328.713V227.444H330.126C330.648 227.444 330.909 227.21 330.909 226.742C330.909 226.532 330.84 226.37 330.702 226.256C330.57 226.136 330.378 226.076 330.126 226.076ZM328.713 229.424H330.306C330.57 229.424 330.771 229.361 330.909 229.235C331.053 229.109 331.125 228.932 331.125 228.704C331.125 228.488 331.053 228.32 330.909 228.2C330.771 228.08 330.57 228.02 330.306 228.02H328.713V229.424ZM334.374 224.276L336.039 223.7H336.579V230H335.949V224.393L334.536 224.816L334.374 224.276ZM341.798 225.671C341.798 226.145 341.669 226.565 341.411 226.931L339.35 230H338.639L340.187 227.696C340.025 227.732 339.857 227.75 339.683 227.75C339.059 227.75 338.552 227.558 338.162 227.174C337.766 226.79 337.568 226.289 337.568 225.671C337.568 225.065 337.766 224.567 338.162 224.177C338.564 223.787 339.071 223.592 339.683 223.592C340.295 223.592 340.802 223.787 341.204 224.177C341.6 224.567 341.798 225.065 341.798 225.671ZM338.603 224.609C338.333 224.879 338.198 225.233 338.198 225.671C338.198 226.109 338.333 226.463 338.603 226.733C338.885 227.003 339.245 227.138 339.683 227.138C340.127 227.138 340.484 227.003 340.754 226.733C341.03 226.463 341.168 226.109 341.168 225.671C341.168 225.233 341.03 224.879 340.754 224.609C340.484 224.339 340.127 224.204 339.683 224.204C339.245 224.204 338.885 224.339 338.603 224.609Z" fill="#E3E3E3"/>
<path d="M396.22 223.7V229.406H396.895V231.206H396.265V230H391.765V231.206H391.135V229.406H391.648C392.062 228.92 392.269 228.17 392.269 227.156V223.7H396.22ZM392.395 229.406H395.59V224.294H392.899V227.174C392.899 228.164 392.731 228.908 392.395 229.406ZM399.747 225.392C400.419 225.392 400.956 225.629 401.358 226.103C401.772 226.571 401.979 227.126 401.979 227.768C401.979 227.798 401.973 227.891 401.961 228.047H398.01C398.07 228.497 398.262 228.857 398.586 229.127C398.91 229.397 399.315 229.532 399.801 229.532C400.485 229.532 400.968 229.277 401.25 228.767L401.772 229.073C401.574 229.397 401.301 229.652 400.953 229.838C400.611 230.018 400.224 230.108 399.792 230.108C399.084 230.108 398.508 229.886 398.064 229.442C397.62 228.998 397.398 228.434 397.398 227.75C397.398 227.072 397.617 226.511 398.055 226.067C398.493 225.617 399.057 225.392 399.747 225.392ZM399.747 225.968C399.279 225.968 398.886 226.106 398.568 226.382C398.256 226.658 398.07 227.021 398.01 227.471H401.367C401.301 226.991 401.118 226.622 400.818 226.364C400.506 226.1 400.149 225.968 399.747 225.968ZM404.148 227.66L406.56 230H405.768L403.518 227.831V230H402.924V225.5H403.518V227.489L405.66 225.5H406.47L404.148 227.66ZM409.126 224.276L410.791 223.7H411.331V230H410.701V224.393L409.288 224.816L409.126 224.276ZM416.55 225.671C416.55 226.145 416.421 226.565 416.163 226.931L414.102 230H413.391L414.939 227.696C414.777 227.732 414.609 227.75 414.435 227.75C413.811 227.75 413.304 227.558 412.914 227.174C412.518 226.79 412.32 226.289 412.32 225.671C412.32 225.065 412.518 224.567 412.914 224.177C413.316 223.787 413.823 223.592 414.435 223.592C415.047 223.592 415.554 223.787 415.956 224.177C416.352 224.567 416.55 225.065 416.55 225.671ZM413.355 224.609C413.085 224.879 412.95 225.233 412.95 225.671C412.95 226.109 413.085 226.463 413.355 226.733C413.637 227.003 413.997 227.138 414.435 227.138C414.879 227.138 415.236 227.003 415.506 226.733C415.782 226.463 415.92 226.109 415.92 225.671C415.92 225.233 415.782 224.879 415.506 224.609C415.236 224.339 414.879 224.204 414.435 224.204C413.997 224.204 413.637 224.339 413.355 224.609Z" fill="#E3E3E3"/>
<path d="M472.931 229.163C472.301 229.793 471.53 230.108 470.618 230.108C469.706 230.108 468.935 229.793 468.305 229.163C467.675 228.521 467.36 227.75 467.36 226.85C467.36 225.944 467.675 225.176 468.305 224.546C468.935 223.91 469.706 223.592 470.618 223.592C471.53 223.592 472.301 223.91 472.931 224.546C473.561 225.176 473.876 225.944 473.876 226.85C473.876 227.75 473.561 228.521 472.931 229.163ZM467.99 226.85C467.99 227.594 468.242 228.221 468.746 228.731C469.25 229.241 469.874 229.496 470.618 229.496C471.362 229.496 471.986 229.241 472.49 228.731C472.994 228.221 473.246 227.594 473.246 226.85C473.246 226.112 472.994 225.488 472.49 224.978C471.986 224.462 471.362 224.204 470.618 224.204C469.874 224.204 469.25 224.462 468.746 224.978C468.242 225.488 467.99 226.112 467.99 226.85ZM476.087 227.66L478.499 230H477.707L475.457 227.831V230H474.863V225.5H475.457V227.489L477.599 225.5H478.409L476.087 227.66ZM478.771 225.5H482.551V226.076H480.958V230H480.364V226.076H478.771V225.5ZM489.26 230H485.255V229.433L487.523 227.147C488.171 226.499 488.495 225.944 488.495 225.482C488.495 225.092 488.372 224.783 488.126 224.555C487.886 224.321 487.586 224.204 487.226 224.204C486.584 224.204 486.113 224.501 485.813 225.095L485.282 224.78C485.474 224.396 485.741 224.102 486.083 223.898C486.425 223.694 486.806 223.592 487.226 223.592C487.73 223.592 488.171 223.763 488.549 224.105C488.933 224.435 489.125 224.894 489.125 225.482C489.125 225.83 489.029 226.172 488.837 226.508C488.645 226.838 488.351 227.201 487.955 227.597L486.155 229.388H489.26V230ZM494.125 229.226C493.711 229.814 493.126 230.108 492.37 230.108C491.62 230.108 491.032 229.814 490.606 229.226C490.192 228.632 489.985 227.84 489.985 226.85C489.985 225.854 490.192 225.065 490.606 224.483C491.032 223.889 491.62 223.592 492.37 223.592C493.126 223.592 493.711 223.889 494.125 224.483C494.545 225.065 494.755 225.854 494.755 226.85C494.755 227.846 494.545 228.638 494.125 229.226ZM491.074 228.803C491.392 229.265 491.824 229.496 492.37 229.496C492.922 229.496 493.351 229.265 493.657 228.803C493.969 228.347 494.125 227.696 494.125 226.85C494.125 226.004 493.969 225.353 493.657 224.897C493.351 224.435 492.922 224.204 492.37 224.204C491.824 224.204 491.392 224.435 491.074 224.897C490.768 225.359 490.615 226.01 490.615 226.85C490.615 227.69 490.768 228.341 491.074 228.803Z" fill="#E3E3E3"/>
<path d="M528.58 230H527.914L527.329 228.452H524.341L523.756 230H523.09L525.511 223.7H526.159L528.58 230ZM525.835 224.483L524.566 227.858H527.104L525.835 224.483ZM532.161 227.687C532.653 227.867 532.899 228.218 532.899 228.74C532.899 229.112 532.773 229.415 532.521 229.649C532.275 229.883 531.93 230 531.486 230H529.299V225.5H531.306C531.738 225.5 532.074 225.611 532.314 225.833C532.56 226.055 532.683 226.346 532.683 226.706C532.683 227.156 532.509 227.483 532.161 227.687ZM531.306 226.076H529.893V227.444H531.306C531.828 227.444 532.089 227.21 532.089 226.742C532.089 226.532 532.02 226.37 531.882 226.256C531.75 226.136 531.558 226.076 531.306 226.076ZM529.893 229.424H531.486C531.75 229.424 531.951 229.361 532.089 229.235C532.233 229.109 532.305 228.932 532.305 228.704C532.305 228.488 532.233 228.32 532.089 228.2C531.951 228.08 531.75 228.02 531.486 228.02H529.893V229.424ZM533.799 225.5H536.679V226.076H534.393V230H533.799V225.5ZM543.387 230H539.382V229.433L541.65 227.147C542.298 226.499 542.622 225.944 542.622 225.482C542.622 225.092 542.499 224.783 542.253 224.555C542.013 224.321 541.713 224.204 541.353 224.204C540.711 224.204 540.24 224.501 539.94 225.095L539.409 224.78C539.601 224.396 539.868 224.102 540.21 223.898C540.552 223.694 540.933 223.592 541.353 223.592C541.857 223.592 542.298 223.763 542.676 224.105C543.06 224.435 543.252 224.894 543.252 225.482C543.252 225.83 543.156 226.172 542.964 226.508C542.772 226.838 542.478 227.201 542.082 227.597L540.282 229.388H543.387V230ZM543.886 224.276L545.551 223.7H546.091V230H545.461V224.393L544.048 224.816L543.886 224.276Z" fill="#E3E3E3"/>
<path d="M70 147C58.8 154.6 43 160.5 36.5 162.5V214.5H547V31C537.333 31.6667 511.7 42.8 486.5 82C455 131 391.5 92 355 60.5C318.5 29 341.5 77.5 320 87.5C302.8 95.5 291.833 88.5 288.5 84C286.667 81.8334 282.3 78.6 279.5 83C276.7 87.4 274.333 84.8334 273.5 83C270.5 77.5002 256 53.6 240 80C220 113 212 110 205 105.5C172.5 83.9999 155.5 108.5 137 127C122.2 141.8 106.5 142.5 100.5 141C95 139.833 81.2 139.4 70 147Z" fill="url(#paint0_linear_186_862)"/>
<path d="M70 147C58.8 154.6 43 160.5 36.5 162.5V214.5H547V31C537.333 31.6667 511.7 42.8 486.5 82C455 131 391.5 92 355 60.5C318.5 29 341.5 77.5 320 87.5C302.8 95.5 291.833 88.5 288.5 84C286.667 81.8334 282.3 78.6 279.5 83C276.7 87.4 274.333 84.8334 273.5 83C270.5 77.5002 256 53.6 240 80C220 113 212 110 205 105.5C172.5 83.9999 155.5 108.5 137 127C122.2 141.8 106.5 142.5 100.5 141C95 139.833 81.2 139.4 70 147Z" stroke="#FFB11B"/>
<defs>
<linearGradient id="paint0_linear_186_862" x1="291.75" y1="55.7365" x2="291.75" y2="214.5" gradientUnits="userSpaceOnUse">
<stop stop-color="#FFC700" stop-opacity="0.5"/>
<stop offset="1" stop-color="#FFC700" stop-opacity="0.2"/>
</linearGradient>
</defs>
</svg>
