<svg width="570" height="232" viewBox="0 0 570 232" fill="none" xmlns="http://www.w3.org/2000/svg">
<g opacity="0.3">
<line x1="36" y1="6.5" x2="556" y2="6.49995" stroke="#FFB11B" stroke-dasharray="2 2"/>
<line x1="36" y1="32.5001" x2="556" y2="32.5001" stroke="#FFB11B" stroke-dasharray="2 2"/>
<line x1="36" y1="58.5002" x2="556" y2="58.5002" stroke="#FFB11B" stroke-dasharray="2 2"/>
<line x1="36" y1="84.5" x2="556" y2="84.5" stroke="#FFB11B" stroke-dasharray="2 2"/>
<line x1="36" y1="110.5" x2="556" y2="110.5" stroke="#FFB11B" stroke-dasharray="2 2"/>
<line x1="36" y1="136.5" x2="556" y2="136.5" stroke="#FFB11B" stroke-dasharray="2 2"/>
<line x1="36" y1="162.5" x2="556" y2="162.5" stroke="#FFB11B" stroke-dasharray="2 2"/>
<line x1="36" y1="188.5" x2="556" y2="188.5" stroke="#FFB11B" stroke-dasharray="2 2"/>
<line x1="36" y1="214.5" x2="556" y2="214.5" stroke="#FFB11B" stroke-dasharray="2 2"/>
<line x1="36.5" y1="6" x2="36.5" y2="215" stroke="#FFB11B" stroke-dasharray="2 2"/>
<line x1="76.5" y1="6" x2="76.5" y2="215" stroke="#FFB11B" stroke-dasharray="2 2"/>
<line x1="116.5" y1="6" x2="116.5" y2="215" stroke="#FFB11B" stroke-dasharray="2 2"/>
<line x1="156.5" y1="6" x2="156.5" y2="215" stroke="#FFB11B" stroke-dasharray="2 2"/>
<line x1="196.5" y1="6" x2="196.5" y2="215" stroke="#FFB11B" stroke-dasharray="2 2"/>
<line x1="236.5" y1="6" x2="236.5" y2="215" stroke="#FFB11B" stroke-dasharray="2 2"/>
<line x1="276.5" y1="6" x2="276.5" y2="215" stroke="#FFB11B" stroke-dasharray="2 2"/>
<line x1="316.5" y1="6" x2="316.5" y2="215" stroke="#FFB11B" stroke-dasharray="2 2"/>
<line x1="356.5" y1="6" x2="356.5" y2="215" stroke="#FFB11B" stroke-dasharray="2 2"/>
<line x1="396.5" y1="6" x2="396.5" y2="215" stroke="#FFB11B" stroke-dasharray="2 2"/>
<line x1="436.5" y1="6" x2="436.5" y2="215" stroke="#FFB11B" stroke-dasharray="2 2"/>
<line x1="476.5" y1="6" x2="476.5" y2="215" stroke="#FFB11B" stroke-dasharray="2 2"/>
<line x1="516.5" y1="6" x2="516.5" y2="215" stroke="#FFB11B" stroke-dasharray="2 2"/>
<line x1="556.5" y1="6" x2="556.5" y2="215" stroke="#FFB11B" stroke-dasharray="2 2"/>
</g>
<path d="M28.9211 212.226C28.5071 212.814 27.9221 213.108 27.1661 213.108C26.4161 213.108 25.8281 212.814 25.4021 212.226C24.9881 211.632 24.7811 210.84 24.7811 209.85C24.7811 208.854 24.9881 208.065 25.4021 207.483C25.8281 206.889 26.4161 206.592 27.1661 206.592C27.9221 206.592 28.5071 206.889 28.9211 207.483C29.3411 208.065 29.5511 208.854 29.5511 209.85C29.5511 210.846 29.3411 211.638 28.9211 212.226ZM25.8701 211.803C26.1881 212.265 26.6201 212.496 27.1661 212.496C27.7181 212.496 28.1471 212.265 28.4531 211.803C28.7651 211.347 28.9211 210.696 28.9211 209.85C28.9211 209.004 28.7651 208.353 28.4531 207.897C28.1471 207.435 27.7181 207.204 27.1661 207.204C26.6201 207.204 26.1881 207.435 25.8701 207.897C25.5641 208.359 25.4111 209.01 25.4111 209.85C25.4111 210.69 25.5641 211.341 25.8701 211.803Z" fill="#E3E3E3"/>
<path d="M15.3005 183.238H16.3625C16.9565 183.238 17.4545 183.412 17.8565 183.76C18.2705 184.102 18.4775 184.573 18.4775 185.173C18.4775 185.767 18.2705 186.241 17.8565 186.595C17.4545 186.937 16.9565 187.108 16.3625 187.108C15.8765 187.108 15.4475 186.991 15.0755 186.757C14.7095 186.517 14.4635 186.187 14.3375 185.767L14.8685 185.461C14.9585 185.791 15.1355 186.046 15.3995 186.226C15.6635 186.406 15.9845 186.496 16.3625 186.496C16.8065 186.496 17.1635 186.379 17.4335 186.145C17.7095 185.905 17.8475 185.581 17.8475 185.173C17.8475 184.765 17.7095 184.444 17.4335 184.21C17.1635 183.97 16.8065 183.85 16.3625 183.85H14.6525L14.8775 180.7H18.2525V181.294H15.4355L15.3005 183.238ZM23.2521 186.226C22.8381 186.814 22.2531 187.108 21.4971 187.108C20.7471 187.108 20.1591 186.814 19.7331 186.226C19.3191 185.632 19.1121 184.84 19.1121 183.85C19.1121 182.854 19.3191 182.065 19.7331 181.483C20.1591 180.889 20.7471 180.592 21.4971 180.592C22.2531 180.592 22.8381 180.889 23.2521 181.483C23.6721 182.065 23.8821 182.854 23.8821 183.85C23.8821 184.846 23.6721 185.638 23.2521 186.226ZM20.2011 185.803C20.5191 186.265 20.9511 186.496 21.4971 186.496C22.0491 186.496 22.4781 186.265 22.7841 185.803C23.0961 185.347 23.2521 184.696 23.2521 183.85C23.2521 183.004 23.0961 182.353 22.7841 181.897C22.4781 181.435 22.0491 181.204 21.4971 181.204C20.9511 181.204 20.5191 181.435 20.2011 181.897C19.8951 182.359 19.7421 183.01 19.7421 183.85C19.7421 184.69 19.8951 185.341 20.2011 185.803ZM28.9211 186.226C28.5071 186.814 27.9221 187.108 27.1661 187.108C26.4161 187.108 25.8281 186.814 25.4021 186.226C24.9881 185.632 24.7811 184.84 24.7811 183.85C24.7811 182.854 24.9881 182.065 25.4021 181.483C25.8281 180.889 26.4161 180.592 27.1661 180.592C27.9221 180.592 28.5071 180.889 28.9211 181.483C29.3411 182.065 29.5511 182.854 29.5511 183.85C29.5511 184.846 29.3411 185.638 28.9211 186.226ZM25.8701 185.803C26.1881 186.265 26.6201 186.496 27.1661 186.496C27.7181 186.496 28.1471 186.265 28.4531 185.803C28.7651 185.347 28.9211 184.696 28.9211 183.85C28.9211 183.004 28.7651 182.353 28.4531 181.897C28.1471 181.435 27.7181 181.204 27.1661 181.204C26.6201 181.204 26.1881 181.435 25.8701 181.897C25.5641 182.359 25.4111 183.01 25.4111 183.85C25.4111 184.69 25.5641 185.341 25.8701 185.803Z" fill="#E3E3E3"/>
<path d="M7.81957 155.276L9.48457 154.7H10.0246V161H9.39457V155.393L7.98157 155.816L7.81957 155.276ZM17.5832 160.226C17.1692 160.814 16.5842 161.108 15.8282 161.108C15.0782 161.108 14.4902 160.814 14.0642 160.226C13.6502 159.632 13.4432 158.84 13.4432 157.85C13.4432 156.854 13.6502 156.065 14.0642 155.483C14.4902 154.889 15.0782 154.592 15.8282 154.592C16.5842 154.592 17.1692 154.889 17.5832 155.483C18.0032 156.065 18.2132 156.854 18.2132 157.85C18.2132 158.846 18.0032 159.638 17.5832 160.226ZM14.5322 159.803C14.8502 160.265 15.2822 160.496 15.8282 160.496C16.3802 160.496 16.8092 160.265 17.1152 159.803C17.4272 159.347 17.5832 158.696 17.5832 157.85C17.5832 157.004 17.4272 156.353 17.1152 155.897C16.8092 155.435 16.3802 155.204 15.8282 155.204C15.2822 155.204 14.8502 155.435 14.5322 155.897C14.2262 156.359 14.0732 157.01 14.0732 157.85C14.0732 158.69 14.2262 159.341 14.5322 159.803ZM23.2521 160.226C22.8381 160.814 22.2531 161.108 21.4971 161.108C20.7471 161.108 20.1591 160.814 19.7331 160.226C19.3191 159.632 19.1121 158.84 19.1121 157.85C19.1121 156.854 19.3191 156.065 19.7331 155.483C20.1591 154.889 20.7471 154.592 21.4971 154.592C22.2531 154.592 22.8381 154.889 23.2521 155.483C23.6721 156.065 23.8821 156.854 23.8821 157.85C23.8821 158.846 23.6721 159.638 23.2521 160.226ZM20.2011 159.803C20.5191 160.265 20.9511 160.496 21.4971 160.496C22.0491 160.496 22.4781 160.265 22.7841 159.803C23.0961 159.347 23.2521 158.696 23.2521 157.85C23.2521 157.004 23.0961 156.353 22.7841 155.897C22.4781 155.435 22.0491 155.204 21.4971 155.204C20.9511 155.204 20.5191 155.435 20.2011 155.897C19.8951 156.359 19.7421 157.01 19.7421 157.85C19.7421 158.69 19.8951 159.341 20.2011 159.803ZM28.9211 160.226C28.5071 160.814 27.9221 161.108 27.1661 161.108C26.4161 161.108 25.8281 160.814 25.4021 160.226C24.9881 159.632 24.7811 158.84 24.7811 157.85C24.7811 156.854 24.9881 156.065 25.4021 155.483C25.8281 154.889 26.4161 154.592 27.1661 154.592C27.9221 154.592 28.5071 154.889 28.9211 155.483C29.3411 156.065 29.5511 156.854 29.5511 157.85C29.5511 158.846 29.3411 159.638 28.9211 160.226ZM25.8701 159.803C26.1881 160.265 26.6201 160.496 27.1661 160.496C27.7181 160.496 28.1471 160.265 28.4531 159.803C28.7651 159.347 28.9211 158.696 28.9211 157.85C28.9211 157.004 28.7651 156.353 28.4531 155.897C28.1471 155.435 27.7181 155.204 27.1661 155.204C26.6201 155.204 26.1881 155.435 25.8701 155.897C25.5641 156.359 25.4111 157.01 25.4111 157.85C25.4111 158.69 25.5641 159.341 25.8701 159.803Z" fill="#E3E3E3"/>
<path d="M8.80395 131.276L10.4689 130.7H11.0089V137H10.3789V131.393L8.96595 131.816L8.80395 131.276ZM15.3005 133.238H16.3625C16.9565 133.238 17.4545 133.412 17.8565 133.76C18.2705 134.102 18.4775 134.573 18.4775 135.173C18.4775 135.767 18.2705 136.241 17.8565 136.595C17.4545 136.937 16.9565 137.108 16.3625 137.108C15.8765 137.108 15.4475 136.991 15.0755 136.757C14.7095 136.517 14.4635 136.187 14.3375 135.767L14.8685 135.461C14.9585 135.791 15.1355 136.046 15.3995 136.226C15.6635 136.406 15.9845 136.496 16.3625 136.496C16.8065 136.496 17.1635 136.379 17.4335 136.145C17.7095 135.905 17.8475 135.581 17.8475 135.173C17.8475 134.765 17.7095 134.444 17.4335 134.21C17.1635 133.97 16.8065 133.85 16.3625 133.85H14.6525L14.8775 130.7H18.2525V131.294H15.4355L15.3005 133.238ZM23.2521 136.226C22.8381 136.814 22.2531 137.108 21.4971 137.108C20.7471 137.108 20.1591 136.814 19.7331 136.226C19.3191 135.632 19.1121 134.84 19.1121 133.85C19.1121 132.854 19.3191 132.065 19.7331 131.483C20.1591 130.889 20.7471 130.592 21.4971 130.592C22.2531 130.592 22.8381 130.889 23.2521 131.483C23.6721 132.065 23.8821 132.854 23.8821 133.85C23.8821 134.846 23.6721 135.638 23.2521 136.226ZM20.2011 135.803C20.5191 136.265 20.9511 136.496 21.4971 136.496C22.0491 136.496 22.4781 136.265 22.7841 135.803C23.0961 135.347 23.2521 134.696 23.2521 133.85C23.2521 133.004 23.0961 132.353 22.7841 131.897C22.4781 131.435 22.0491 131.204 21.4971 131.204C20.9511 131.204 20.5191 131.435 20.2011 131.897C19.8951 132.359 19.7421 133.01 19.7421 133.85C19.7421 134.69 19.8951 135.341 20.2011 135.803ZM28.9211 136.226C28.5071 136.814 27.9221 137.108 27.1661 137.108C26.4161 137.108 25.8281 136.814 25.4021 136.226C24.9881 135.632 24.7811 134.84 24.7811 133.85C24.7811 132.854 24.9881 132.065 25.4021 131.483C25.8281 130.889 26.4161 130.592 27.1661 130.592C27.9221 130.592 28.5071 130.889 28.9211 131.483C29.3411 132.065 29.5511 132.854 29.5511 133.85C29.5511 134.846 29.3411 135.638 28.9211 136.226ZM25.8701 135.803C26.1881 136.265 26.6201 136.496 27.1661 136.496C27.7181 136.496 28.1471 136.265 28.4531 135.803C28.7651 135.347 28.9211 134.696 28.9211 133.85C28.9211 133.004 28.7651 132.353 28.4531 131.897C28.1471 131.435 27.7181 131.204 27.1661 131.204C26.6201 131.204 26.1881 131.435 25.8701 131.897C25.5641 132.359 25.4111 133.01 25.4111 133.85C25.4111 134.69 25.5641 135.341 25.8701 135.803Z" fill="#E3E3E3"/>
<path d="M10.3796 109H6.37465V108.433L8.64265 106.147C9.29065 105.499 9.61465 104.944 9.61465 104.482C9.61465 104.092 9.49165 103.783 9.24565 103.555C9.00565 103.321 8.70565 103.204 8.34565 103.204C7.70365 103.204 7.23265 103.501 6.93265 104.095L6.40165 103.78C6.59365 103.396 6.86065 103.102 7.20265 102.898C7.54465 102.694 7.92565 102.592 8.34565 102.592C8.84965 102.592 9.29065 102.763 9.66865 103.105C10.0526 103.435 10.2446 103.894 10.2446 104.482C10.2446 104.83 10.1486 105.172 9.95665 105.508C9.76465 105.838 9.47065 106.201 9.07465 106.597L7.27465 108.388H10.3796V109ZM17.5832 108.226C17.1692 108.814 16.5842 109.108 15.8282 109.108C15.0782 109.108 14.4902 108.814 14.0642 108.226C13.6502 107.632 13.4432 106.84 13.4432 105.85C13.4432 104.854 13.6502 104.065 14.0642 103.483C14.4902 102.889 15.0782 102.592 15.8282 102.592C16.5842 102.592 17.1692 102.889 17.5832 103.483C18.0032 104.065 18.2132 104.854 18.2132 105.85C18.2132 106.846 18.0032 107.638 17.5832 108.226ZM14.5322 107.803C14.8502 108.265 15.2822 108.496 15.8282 108.496C16.3802 108.496 16.8092 108.265 17.1152 107.803C17.4272 107.347 17.5832 106.696 17.5832 105.85C17.5832 105.004 17.4272 104.353 17.1152 103.897C16.8092 103.435 16.3802 103.204 15.8282 103.204C15.2822 103.204 14.8502 103.435 14.5322 103.897C14.2262 104.359 14.0732 105.01 14.0732 105.85C14.0732 106.69 14.2262 107.341 14.5322 107.803ZM23.2521 108.226C22.8381 108.814 22.2531 109.108 21.4971 109.108C20.7471 109.108 20.1591 108.814 19.7331 108.226C19.3191 107.632 19.1121 106.84 19.1121 105.85C19.1121 104.854 19.3191 104.065 19.7331 103.483C20.1591 102.889 20.7471 102.592 21.4971 102.592C22.2531 102.592 22.8381 102.889 23.2521 103.483C23.6721 104.065 23.8821 104.854 23.8821 105.85C23.8821 106.846 23.6721 107.638 23.2521 108.226ZM20.2011 107.803C20.5191 108.265 20.9511 108.496 21.4971 108.496C22.0491 108.496 22.4781 108.265 22.7841 107.803C23.0961 107.347 23.2521 106.696 23.2521 105.85C23.2521 105.004 23.0961 104.353 22.7841 103.897C22.4781 103.435 22.0491 103.204 21.4971 103.204C20.9511 103.204 20.5191 103.435 20.2011 103.897C19.8951 104.359 19.7421 105.01 19.7421 105.85C19.7421 106.69 19.8951 107.341 20.2011 107.803ZM28.9211 108.226C28.5071 108.814 27.9221 109.108 27.1661 109.108C26.4161 109.108 25.8281 108.814 25.4021 108.226C24.9881 107.632 24.7811 106.84 24.7811 105.85C24.7811 104.854 24.9881 104.065 25.4021 103.483C25.8281 102.889 26.4161 102.592 27.1661 102.592C27.9221 102.592 28.5071 102.889 28.9211 103.483C29.3411 104.065 29.5511 104.854 29.5511 105.85C29.5511 106.846 29.3411 107.638 28.9211 108.226ZM25.8701 107.803C26.1881 108.265 26.6201 108.496 27.1661 108.496C27.7181 108.496 28.1471 108.265 28.4531 107.803C28.7651 107.347 28.9211 106.696 28.9211 105.85C28.9211 105.004 28.7651 104.353 28.4531 103.897C28.1471 103.435 27.7181 103.204 27.1661 103.204C26.6201 103.204 26.1881 103.435 25.8701 103.897C25.5641 104.359 25.4111 105.01 25.4111 105.85C25.4111 106.69 25.5641 107.341 25.8701 107.803Z" fill="#E3E3E3"/>
<path d="M11.364 83H7.35902V82.433L9.62702 80.147C10.275 79.499 10.599 78.944 10.599 78.482C10.599 78.092 10.476 77.783 10.23 77.555C9.99002 77.321 9.69002 77.204 9.33002 77.204C8.68802 77.204 8.21702 77.501 7.91702 78.095L7.38602 77.78C7.57802 77.396 7.84502 77.102 8.18702 76.898C8.52902 76.694 8.91002 76.592 9.33002 76.592C9.83402 76.592 10.275 76.763 10.653 77.105C11.037 77.435 11.229 77.894 11.229 78.482C11.229 78.83 11.133 79.172 10.941 79.508C10.749 79.838 10.455 80.201 10.059 80.597L8.25902 82.388H11.364V83ZM15.3005 79.238H16.3625C16.9565 79.238 17.4545 79.412 17.8565 79.76C18.2705 80.102 18.4775 80.573 18.4775 81.173C18.4775 81.767 18.2705 82.241 17.8565 82.595C17.4545 82.937 16.9565 83.108 16.3625 83.108C15.8765 83.108 15.4475 82.991 15.0755 82.757C14.7095 82.517 14.4635 82.187 14.3375 81.767L14.8685 81.461C14.9585 81.791 15.1355 82.046 15.3995 82.226C15.6635 82.406 15.9845 82.496 16.3625 82.496C16.8065 82.496 17.1635 82.379 17.4335 82.145C17.7095 81.905 17.8475 81.581 17.8475 81.173C17.8475 80.765 17.7095 80.444 17.4335 80.21C17.1635 79.97 16.8065 79.85 16.3625 79.85H14.6525L14.8775 76.7H18.2525V77.294H15.4355L15.3005 79.238ZM23.2521 82.226C22.8381 82.814 22.2531 83.108 21.4971 83.108C20.7471 83.108 20.1591 82.814 19.7331 82.226C19.3191 81.632 19.1121 80.84 19.1121 79.85C19.1121 78.854 19.3191 78.065 19.7331 77.483C20.1591 76.889 20.7471 76.592 21.4971 76.592C22.2531 76.592 22.8381 76.889 23.2521 77.483C23.6721 78.065 23.8821 78.854 23.8821 79.85C23.8821 80.846 23.6721 81.638 23.2521 82.226ZM20.2011 81.803C20.5191 82.265 20.9511 82.496 21.4971 82.496C22.0491 82.496 22.4781 82.265 22.7841 81.803C23.0961 81.347 23.2521 80.696 23.2521 79.85C23.2521 79.004 23.0961 78.353 22.7841 77.897C22.4781 77.435 22.0491 77.204 21.4971 77.204C20.9511 77.204 20.5191 77.435 20.2011 77.897C19.8951 78.359 19.7421 79.01 19.7421 79.85C19.7421 80.69 19.8951 81.341 20.2011 81.803ZM28.9211 82.226C28.5071 82.814 27.9221 83.108 27.1661 83.108C26.4161 83.108 25.8281 82.814 25.4021 82.226C24.9881 81.632 24.7811 80.84 24.7811 79.85C24.7811 78.854 24.9881 78.065 25.4021 77.483C25.8281 76.889 26.4161 76.592 27.1661 76.592C27.9221 76.592 28.5071 76.889 28.9211 77.483C29.3411 78.065 29.5511 78.854 29.5511 79.85C29.5511 80.846 29.3411 81.638 28.9211 82.226ZM25.8701 81.803C26.1881 82.265 26.6201 82.496 27.1661 82.496C27.7181 82.496 28.1471 82.265 28.4531 81.803C28.7651 81.347 28.9211 80.696 28.9211 79.85C28.9211 79.004 28.7651 78.353 28.4531 77.897C28.1471 77.435 27.7181 77.204 27.1661 77.204C26.6201 77.204 26.1881 77.435 25.8701 77.897C25.5641 78.359 25.4111 79.01 25.4111 79.85C25.4111 80.69 25.5641 81.341 25.8701 81.803Z" fill="#E3E3E3"/>
<path d="M10.1107 53.294L8.6437 55.319C9.1417 55.379 9.5557 55.574 9.8857 55.904C10.2157 56.216 10.3807 56.639 10.3807 57.173C10.3807 57.767 10.1737 58.241 9.7597 58.595C9.3577 58.937 8.8597 59.108 8.2657 59.108C7.7917 59.108 7.3717 59 7.0057 58.784C6.6397 58.562 6.3847 58.253 6.2407 57.857L6.7627 57.551C6.8647 57.857 7.0447 58.091 7.3027 58.253C7.5667 58.415 7.8877 58.496 8.2657 58.496C8.7097 58.496 9.0667 58.379 9.3367 58.145C9.6127 57.905 9.7507 57.581 9.7507 57.173C9.7507 56.765 9.6127 56.444 9.3367 56.21C9.0667 55.97 8.7097 55.85 8.2657 55.85V55.841L8.2567 55.85H8.0857L7.8157 55.436L9.3817 53.294H6.4207V52.7H10.1107V53.294ZM17.5832 58.226C17.1692 58.814 16.5842 59.108 15.8282 59.108C15.0782 59.108 14.4902 58.814 14.0642 58.226C13.6502 57.632 13.4432 56.84 13.4432 55.85C13.4432 54.854 13.6502 54.065 14.0642 53.483C14.4902 52.889 15.0782 52.592 15.8282 52.592C16.5842 52.592 17.1692 52.889 17.5832 53.483C18.0032 54.065 18.2132 54.854 18.2132 55.85C18.2132 56.846 18.0032 57.638 17.5832 58.226ZM14.5322 57.803C14.8502 58.265 15.2822 58.496 15.8282 58.496C16.3802 58.496 16.8092 58.265 17.1152 57.803C17.4272 57.347 17.5832 56.696 17.5832 55.85C17.5832 55.004 17.4272 54.353 17.1152 53.897C16.8092 53.435 16.3802 53.204 15.8282 53.204C15.2822 53.204 14.8502 53.435 14.5322 53.897C14.2262 54.359 14.0732 55.01 14.0732 55.85C14.0732 56.69 14.2262 57.341 14.5322 57.803ZM23.2521 58.226C22.8381 58.814 22.2531 59.108 21.4971 59.108C20.7471 59.108 20.1591 58.814 19.7331 58.226C19.3191 57.632 19.1121 56.84 19.1121 55.85C19.1121 54.854 19.3191 54.065 19.7331 53.483C20.1591 52.889 20.7471 52.592 21.4971 52.592C22.2531 52.592 22.8381 52.889 23.2521 53.483C23.6721 54.065 23.8821 54.854 23.8821 55.85C23.8821 56.846 23.6721 57.638 23.2521 58.226ZM20.2011 57.803C20.5191 58.265 20.9511 58.496 21.4971 58.496C22.0491 58.496 22.4781 58.265 22.7841 57.803C23.0961 57.347 23.2521 56.696 23.2521 55.85C23.2521 55.004 23.0961 54.353 22.7841 53.897C22.4781 53.435 22.0491 53.204 21.4971 53.204C20.9511 53.204 20.5191 53.435 20.2011 53.897C19.8951 54.359 19.7421 55.01 19.7421 55.85C19.7421 56.69 19.8951 57.341 20.2011 57.803ZM28.9211 58.226C28.5071 58.814 27.9221 59.108 27.1661 59.108C26.4161 59.108 25.8281 58.814 25.4021 58.226C24.9881 57.632 24.7811 56.84 24.7811 55.85C24.7811 54.854 24.9881 54.065 25.4021 53.483C25.8281 52.889 26.4161 52.592 27.1661 52.592C27.9221 52.592 28.5071 52.889 28.9211 53.483C29.3411 54.065 29.5511 54.854 29.5511 55.85C29.5511 56.846 29.3411 57.638 28.9211 58.226ZM25.8701 57.803C26.1881 58.265 26.6201 58.496 27.1661 58.496C27.7181 58.496 28.1471 58.265 28.4531 57.803C28.7651 57.347 28.9211 56.696 28.9211 55.85C28.9211 55.004 28.7651 54.353 28.4531 53.897C28.1471 53.435 27.7181 53.204 27.1661 53.204C26.6201 53.204 26.1881 53.435 25.8701 53.897C25.5641 54.359 25.4111 55.01 25.4111 55.85C25.4111 56.69 25.5641 57.341 25.8701 57.803Z" fill="#E3E3E3"/>
<path d="M11.0951 27.294L9.62808 29.319C10.1261 29.379 10.5401 29.574 10.8701 29.904C11.2001 30.216 11.3651 30.639 11.3651 31.173C11.3651 31.767 11.1581 32.241 10.7441 32.595C10.3421 32.937 9.84408 33.108 9.25008 33.108C8.77608 33.108 8.35608 33 7.99008 32.784C7.62408 32.562 7.36908 32.253 7.22508 31.857L7.74708 31.551C7.84908 31.857 8.02908 32.091 8.28708 32.253C8.55108 32.415 8.87208 32.496 9.25008 32.496C9.69408 32.496 10.0511 32.379 10.3211 32.145C10.5971 31.905 10.7351 31.581 10.7351 31.173C10.7351 30.765 10.5971 30.444 10.3211 30.21C10.0511 29.97 9.69408 29.85 9.25008 29.85V29.841L9.24108 29.85H9.07008L8.80008 29.436L10.3661 27.294H7.40508V26.7H11.0951V27.294ZM15.3005 29.238H16.3625C16.9565 29.238 17.4545 29.412 17.8565 29.76C18.2705 30.102 18.4775 30.573 18.4775 31.173C18.4775 31.767 18.2705 32.241 17.8565 32.595C17.4545 32.937 16.9565 33.108 16.3625 33.108C15.8765 33.108 15.4475 32.991 15.0755 32.757C14.7095 32.517 14.4635 32.187 14.3375 31.767L14.8685 31.461C14.9585 31.791 15.1355 32.046 15.3995 32.226C15.6635 32.406 15.9845 32.496 16.3625 32.496C16.8065 32.496 17.1635 32.379 17.4335 32.145C17.7095 31.905 17.8475 31.581 17.8475 31.173C17.8475 30.765 17.7095 30.444 17.4335 30.21C17.1635 29.97 16.8065 29.85 16.3625 29.85H14.6525L14.8775 26.7H18.2525V27.294H15.4355L15.3005 29.238ZM23.2521 32.226C22.8381 32.814 22.2531 33.108 21.4971 33.108C20.7471 33.108 20.1591 32.814 19.7331 32.226C19.3191 31.632 19.1121 30.84 19.1121 29.85C19.1121 28.854 19.3191 28.065 19.7331 27.483C20.1591 26.889 20.7471 26.592 21.4971 26.592C22.2531 26.592 22.8381 26.889 23.2521 27.483C23.6721 28.065 23.8821 28.854 23.8821 29.85C23.8821 30.846 23.6721 31.638 23.2521 32.226ZM20.2011 31.803C20.5191 32.265 20.9511 32.496 21.4971 32.496C22.0491 32.496 22.4781 32.265 22.7841 31.803C23.0961 31.347 23.2521 30.696 23.2521 29.85C23.2521 29.004 23.0961 28.353 22.7841 27.897C22.4781 27.435 22.0491 27.204 21.4971 27.204C20.9511 27.204 20.5191 27.435 20.2011 27.897C19.8951 28.359 19.7421 29.01 19.7421 29.85C19.7421 30.69 19.8951 31.341 20.2011 31.803ZM28.9211 32.226C28.5071 32.814 27.9221 33.108 27.1661 33.108C26.4161 33.108 25.8281 32.814 25.4021 32.226C24.9881 31.632 24.7811 30.84 24.7811 29.85C24.7811 28.854 24.9881 28.065 25.4021 27.483C25.8281 26.889 26.4161 26.592 27.1661 26.592C27.9221 26.592 28.5071 26.889 28.9211 27.483C29.3411 28.065 29.5511 28.854 29.5511 29.85C29.5511 30.846 29.3411 31.638 28.9211 32.226ZM25.8701 31.803C26.1881 32.265 26.6201 32.496 27.1661 32.496C27.7181 32.496 28.1471 32.265 28.4531 31.803C28.7651 31.347 28.9211 30.696 28.9211 29.85C28.9211 29.004 28.7651 28.353 28.4531 27.897C28.1471 27.435 27.7181 27.204 27.1661 27.204C26.6201 27.204 26.1881 27.435 25.8701 27.897C25.5641 28.359 25.4111 29.01 25.4111 29.85C25.4111 30.69 25.5641 31.341 25.8701 31.803Z" fill="#E3E3E3"/>
<path d="M4.76864 3.733C5.08064 3.865 5.32664 4.066 5.50664 4.336C5.68664 4.606 5.77664 4.909 5.77664 5.245C5.77664 5.731 5.60564 6.145 5.26364 6.487C4.92164 6.829 4.50764 7 4.02164 7H1.27664V0.7H3.81464C4.27664 0.7 4.67564 0.868 5.01164 1.204C5.34164 1.534 5.50664 1.93 5.50664 2.392C5.50664 2.98 5.26064 3.427 4.76864 3.733ZM3.81464 1.294H1.90664V3.49H3.81464C4.10264 3.49 4.35164 3.385 4.56164 3.175C4.77164 2.953 4.87664 2.692 4.87664 2.392C4.87664 2.098 4.77164 1.84 4.56164 1.618C4.35164 1.402 4.10264 1.294 3.81464 1.294ZM1.90664 6.406H4.02164C4.33364 6.406 4.59764 6.295 4.81364 6.073C5.03564 5.851 5.14664 5.575 5.14664 5.245C5.14664 4.921 5.03564 4.648 4.81364 4.426C4.59764 4.198 4.33364 4.084 4.02164 4.084H1.90664V6.406ZM7.3617 5.965L10.0437 2.5H10.5477V7H9.9537V3.535L7.2717 7H6.7677V2.5H7.3617V5.965ZM14.1258 4.687C14.6478 4.885 14.9088 5.245 14.9088 5.767C14.9088 6.145 14.7618 6.463 14.4678 6.721C14.1858 6.979 13.7718 7.108 13.2258 7.108C12.3138 7.108 11.7198 6.748 11.4438 6.028L11.9478 5.731C12.1398 6.265 12.5658 6.532 13.2258 6.532C13.5678 6.532 13.8348 6.46 14.0268 6.316C14.2188 6.166 14.3148 5.971 14.3148 5.731C14.3148 5.515 14.2368 5.344 14.0808 5.218C13.9248 5.086 13.7148 5.02 13.4508 5.02H12.7938V4.444H13.2708C13.5288 4.444 13.7298 4.381 13.8738 4.255C14.0238 4.123 14.0988 3.943 14.0988 3.715C14.0988 3.499 14.0088 3.322 13.8288 3.184C13.6548 3.04 13.4238 2.968 13.1358 2.968C12.5778 2.968 12.2028 3.193 12.0108 3.643L11.5158 3.355C11.8158 2.713 12.3558 2.392 13.1358 2.392C13.6158 2.392 13.9938 2.518 14.2698 2.77C14.5518 3.016 14.6928 3.319 14.6928 3.679C14.6928 4.141 14.5038 4.477 14.1258 4.687ZM16.4056 5.965L19.0876 2.5H19.5916V7H18.9976V3.535L16.3156 7H15.8116V2.5H16.4056V5.965ZM20.3078 2.5H24.0878V3.076H22.4948V7H21.9008V3.076H20.3078V2.5ZM25.4056 4.21H26.6386C27.0526 4.21 27.4066 4.342 27.7006 4.606C27.9946 4.864 28.1416 5.197 28.1416 5.605C28.1416 6.019 27.9946 6.355 27.7006 6.613C27.4186 6.871 27.0646 7 26.6386 7H24.8116V2.5H25.4056V4.21ZM28.7716 7V2.5H29.3656V7H28.7716ZM25.4056 6.424H26.6386C26.8966 6.424 27.1126 6.349 27.2866 6.199C27.4606 6.043 27.5476 5.845 27.5476 5.605C27.5476 5.365 27.4606 5.17 27.2866 5.02C27.1126 4.864 26.8966 4.786 26.6386 4.786H25.4056V6.424Z" fill="#E3E3E3"/>
<path d="M41.58 230H40.914L40.329 228.452H37.341L36.756 230H36.09L38.511 223.7H39.159L41.58 230ZM38.835 224.483L37.566 227.858H40.104L38.835 224.483ZM45.1609 227.687C45.6529 227.867 45.8989 228.218 45.8989 228.74C45.8989 229.112 45.7729 229.415 45.5209 229.649C45.2749 229.883 44.9299 230 44.4859 230H42.2989V225.5H44.3059C44.7379 225.5 45.0739 225.611 45.3139 225.833C45.5599 226.055 45.6829 226.346 45.6829 226.706C45.6829 227.156 45.5089 227.483 45.1609 227.687ZM44.3059 226.076H42.8929V227.444H44.3059C44.8279 227.444 45.0889 227.21 45.0889 226.742C45.0889 226.532 45.0199 226.37 44.8819 226.256C44.7499 226.136 44.5579 226.076 44.3059 226.076ZM42.8929 229.424H44.4859C44.7499 229.424 44.9509 229.361 45.0889 229.235C45.2329 229.109 45.3049 228.932 45.3049 228.704C45.3049 228.488 45.2329 228.32 45.0889 228.2C44.9509 228.08 44.7499 228.02 44.4859 228.02H42.8929V229.424ZM46.7989 225.5H49.6789V226.076H47.3929V230H46.7989V225.5ZM56.3875 230H52.3825V229.433L54.6505 227.147C55.2985 226.499 55.6225 225.944 55.6225 225.482C55.6225 225.092 55.4995 224.783 55.2535 224.555C55.0135 224.321 54.7135 224.204 54.3535 224.204C53.7115 224.204 53.2405 224.501 52.9405 225.095L52.4095 224.78C52.6015 224.396 52.8685 224.102 53.2105 223.898C53.5525 223.694 53.9335 223.592 54.3535 223.592C54.8575 223.592 55.2985 223.763 55.6765 224.105C56.0605 224.435 56.2525 224.894 56.2525 225.482C56.2525 225.83 56.1565 226.172 55.9645 226.508C55.7725 226.838 55.4785 227.201 55.0825 227.597L53.2825 229.388H56.3875V230ZM56.886 224.276L58.551 223.7H59.091V230H58.461V224.393L57.048 224.816L56.886 224.276Z" fill="#E3E3E3"/>
<path d="M74.663 230.108C73.703 230.108 72.914 229.793 72.296 229.163C71.672 228.527 71.36 227.756 71.36 226.85C71.36 225.944 71.672 225.173 72.296 224.537C72.914 223.907 73.703 223.592 74.663 223.592C75.239 223.592 75.77 223.733 76.256 224.015C76.742 224.291 77.12 224.666 77.39 225.14L76.832 225.464C76.634 225.08 76.34 224.774 75.95 224.546C75.56 224.318 75.131 224.204 74.663 224.204C73.871 224.204 73.229 224.459 72.737 224.969C72.239 225.485 71.99 226.112 71.99 226.85C71.99 227.588 72.239 228.215 72.737 228.731C73.229 229.241 73.871 229.496 74.663 229.496C75.131 229.496 75.56 229.382 75.95 229.154C76.34 228.926 76.634 228.62 76.832 228.236L77.39 228.551C77.132 229.025 76.757 229.403 76.265 229.685C75.773 229.967 75.239 230.108 74.663 230.108ZM80.3711 225.392C81.0431 225.392 81.5801 225.629 81.9821 226.103C82.3961 226.571 82.6031 227.126 82.6031 227.768C82.6031 227.798 82.5971 227.891 82.5851 228.047H78.6341C78.6941 228.497 78.8861 228.857 79.2101 229.127C79.5341 229.397 79.9391 229.532 80.4251 229.532C81.1091 229.532 81.5921 229.277 81.8741 228.767L82.3961 229.073C82.1981 229.397 81.9251 229.652 81.5771 229.838C81.2351 230.018 80.8481 230.108 80.4161 230.108C79.7081 230.108 79.1321 229.886 78.6881 229.442C78.2441 228.998 78.0221 228.434 78.0221 227.75C78.0221 227.072 78.2411 226.511 78.6791 226.067C79.1171 225.617 79.6811 225.392 80.3711 225.392ZM80.3711 225.968C79.9031 225.968 79.5101 226.106 79.1921 226.382C78.8801 226.658 78.6941 227.021 78.6341 227.471H81.9911C81.9251 226.991 81.7421 226.622 81.4421 226.364C81.1301 226.1 80.7731 225.968 80.3711 225.968ZM86.734 227.462V225.5H87.328V230H86.734V228.038H84.142V230H83.548V225.5H84.142V227.462H86.734ZM94.5691 230H90.5641V229.433L92.8321 227.147C93.4801 226.499 93.8041 225.944 93.8041 225.482C93.8041 225.092 93.6811 224.783 93.4351 224.555C93.1951 224.321 92.8951 224.204 92.5351 224.204C91.8931 224.204 91.4221 224.501 91.1221 225.095L90.5911 224.78C90.7831 224.396 91.0501 224.102 91.3921 223.898C91.7341 223.694 92.1151 223.592 92.5351 223.592C93.0391 223.592 93.4801 223.763 93.8581 224.105C94.2421 224.435 94.4341 224.894 94.4341 225.482C94.4341 225.83 94.3381 226.172 94.1461 226.508C93.9541 226.838 93.6601 227.201 93.2641 227.597L91.4641 229.388H94.5691V230ZM95.0676 224.276L96.7326 223.7H97.2726V230H96.6426V224.393L95.2296 224.816L95.0676 224.276Z" fill="#E3E3E3"/>
<path d="M114.931 229.163C114.301 229.793 113.53 230.108 112.618 230.108C111.706 230.108 110.935 229.793 110.305 229.163C109.675 228.521 109.36 227.75 109.36 226.85C109.36 225.944 109.675 225.176 110.305 224.546C110.935 223.91 111.706 223.592 112.618 223.592C113.53 223.592 114.301 223.91 114.931 224.546C115.561 225.176 115.876 225.944 115.876 226.85C115.876 227.75 115.561 228.521 114.931 229.163ZM109.99 226.85C109.99 227.594 110.242 228.221 110.746 228.731C111.25 229.241 111.874 229.496 112.618 229.496C113.362 229.496 113.986 229.241 114.49 228.731C114.994 228.221 115.246 227.594 115.246 226.85C115.246 226.112 114.994 225.488 114.49 224.978C113.986 224.462 113.362 224.204 112.618 224.204C111.874 224.204 111.25 224.462 110.746 224.978C110.242 225.488 109.99 226.112 109.99 226.85ZM118.087 227.66L120.499 230H119.707L117.457 227.831V230H116.863V225.5H117.457V227.489L119.599 225.5H120.409L118.087 227.66ZM120.771 225.5H124.551V226.076H122.958V230H122.364V226.076H120.771V225.5ZM131.26 230H127.255V229.433L129.523 227.147C130.171 226.499 130.495 225.944 130.495 225.482C130.495 225.092 130.372 224.783 130.126 224.555C129.886 224.321 129.586 224.204 129.226 224.204C128.584 224.204 128.113 224.501 127.813 225.095L127.282 224.78C127.474 224.396 127.741 224.102 128.083 223.898C128.425 223.694 128.806 223.592 129.226 223.592C129.73 223.592 130.171 223.763 130.549 224.105C130.933 224.435 131.125 224.894 131.125 225.482C131.125 225.83 131.029 226.172 130.837 226.508C130.645 226.838 130.351 227.201 129.955 227.597L128.155 229.388H131.26V230ZM131.758 224.276L133.423 223.7H133.963V230H133.333V224.393L131.92 224.816L131.758 224.276Z" fill="#E3E3E3"/>
<path d="M150.77 226.463V223.7H151.4V230H150.77V227.057H147.35V230H146.72V223.7H147.35V226.463H150.77ZM156.518 229.433C156.056 229.883 155.498 230.108 154.844 230.108C154.178 230.108 153.617 229.883 153.161 229.433C152.705 228.977 152.477 228.416 152.477 227.75C152.477 227.084 152.705 226.526 153.161 226.076C153.617 225.62 154.178 225.392 154.844 225.392C155.504 225.392 156.062 225.62 156.518 226.076C156.98 226.526 157.211 227.084 157.211 227.75C157.211 228.41 156.98 228.971 156.518 229.433ZM153.584 229.019C153.926 229.361 154.346 229.532 154.844 229.532C155.342 229.532 155.762 229.361 156.104 229.019C156.446 228.665 156.617 228.242 156.617 227.75C156.617 227.252 156.446 226.832 156.104 226.49C155.762 226.142 155.342 225.968 154.844 225.968C154.346 225.968 153.926 226.142 153.584 226.49C153.242 226.832 153.071 227.252 153.071 227.75C153.071 228.242 153.242 228.665 153.584 229.019ZM159.442 225.5H161.269V230H160.675V228.272H159.901L158.515 230H157.759L159.181 228.254C158.815 228.2 158.515 228.05 158.281 227.804C158.053 227.552 157.939 227.249 157.939 226.895C157.939 226.493 158.083 226.16 158.371 225.896C158.671 225.632 159.028 225.5 159.442 225.5ZM159.442 227.714H160.675V226.076H159.442C159.184 226.076 158.968 226.154 158.794 226.31C158.62 226.46 158.533 226.655 158.533 226.895C158.533 227.135 158.62 227.333 158.794 227.489C158.968 227.639 159.184 227.714 159.442 227.714ZM168.514 230H164.509V229.433L166.777 227.147C167.425 226.499 167.749 225.944 167.749 225.482C167.749 225.092 167.626 224.783 167.38 224.555C167.14 224.321 166.84 224.204 166.48 224.204C165.838 224.204 165.367 224.501 165.067 225.095L164.536 224.78C164.728 224.396 164.995 224.102 165.337 223.898C165.679 223.694 166.06 223.592 166.48 223.592C166.984 223.592 167.425 223.763 167.803 224.105C168.187 224.435 168.379 224.894 168.379 225.482C168.379 225.83 168.283 226.172 168.091 226.508C167.899 226.838 167.605 227.201 167.209 227.597L165.409 229.388H168.514V230ZM169.013 224.276L170.678 223.7H171.218V230H170.588V224.393L169.175 224.816L169.013 224.276Z" fill="#E3E3E3"/>
<path d="M188.22 223.7V229.406H188.895V231.206H188.265V230H183.765V231.206H183.135V229.406H183.648C184.062 228.92 184.269 228.17 184.269 227.156V223.7H188.22ZM184.395 229.406H187.59V224.294H184.899V227.174C184.899 228.164 184.731 228.908 184.395 229.406ZM191.747 225.392C192.419 225.392 192.956 225.629 193.358 226.103C193.772 226.571 193.979 227.126 193.979 227.768C193.979 227.798 193.973 227.891 193.961 228.047H190.01C190.07 228.497 190.262 228.857 190.586 229.127C190.91 229.397 191.315 229.532 191.801 229.532C192.485 229.532 192.968 229.277 193.25 228.767L193.772 229.073C193.574 229.397 193.301 229.652 192.953 229.838C192.611 230.018 192.224 230.108 191.792 230.108C191.084 230.108 190.508 229.886 190.064 229.442C189.62 228.998 189.398 228.434 189.398 227.75C189.398 227.072 189.617 226.511 190.055 226.067C190.493 225.617 191.057 225.392 191.747 225.392ZM191.747 225.968C191.279 225.968 190.886 226.106 190.568 226.382C190.256 226.658 190.07 227.021 190.01 227.471H193.367C193.301 226.991 193.118 226.622 192.818 226.364C192.506 226.1 192.149 225.968 191.747 225.968ZM196.148 227.66L198.56 230H197.768L195.518 227.831V230H194.924V225.5H195.518V227.489L197.66 225.5H198.47L196.148 227.66ZM205.356 230H201.351V229.433L203.619 227.147C204.267 226.499 204.591 225.944 204.591 225.482C204.591 225.092 204.468 224.783 204.222 224.555C203.982 224.321 203.682 224.204 203.322 224.204C202.68 224.204 202.209 224.501 201.909 225.095L201.378 224.78C201.57 224.396 201.837 224.102 202.179 223.898C202.521 223.694 202.902 223.592 203.322 223.592C203.826 223.592 204.267 223.763 204.645 224.105C205.029 224.435 205.221 224.894 205.221 225.482C205.221 225.83 205.125 226.172 204.933 226.508C204.741 226.838 204.447 227.201 204.051 227.597L202.251 229.388H205.356V230ZM205.855 224.276L207.52 223.7H208.06V230H207.43V224.393L206.017 224.816L205.855 224.276Z" fill="#E3E3E3"/>
<path d="M222.34 223.7H224.86V230H224.23V227.48H222.718L220.99 230H220.27L222.025 227.453C221.563 227.369 221.188 227.156 220.9 226.814C220.6 226.46 220.45 226.052 220.45 225.59C220.45 225.068 220.633 224.624 220.999 224.258C221.371 223.886 221.818 223.7 222.34 223.7ZM222.34 226.886H224.23V224.294H222.34C221.992 224.294 221.695 224.42 221.449 224.672C221.203 224.93 221.08 225.236 221.08 225.59C221.08 225.938 221.203 226.244 221.449 226.508C221.695 226.76 221.992 226.886 222.34 226.886ZM229.397 227.462V225.5H229.991V230H229.397V228.038H226.805V230H226.211V225.5H226.805V227.462H229.397ZM234.109 227.687C234.601 227.867 234.847 228.218 234.847 228.74C234.847 229.112 234.721 229.415 234.469 229.649C234.223 229.883 233.878 230 233.434 230H231.247V225.5H233.254C233.686 225.5 234.022 225.611 234.262 225.833C234.508 226.055 234.631 226.346 234.631 226.706C234.631 227.156 234.457 227.483 234.109 227.687ZM233.254 226.076H231.841V227.444H233.254C233.776 227.444 234.037 227.21 234.037 226.742C234.037 226.532 233.968 226.37 233.83 226.256C233.698 226.136 233.506 226.076 233.254 226.076ZM231.841 229.424H233.434C233.698 229.424 233.899 229.361 234.037 229.235C234.181 229.109 234.253 228.932 234.253 228.704C234.253 228.488 234.181 228.32 234.037 228.2C233.899 228.08 233.698 228.02 233.434 228.02H231.841V229.424ZM241.732 230H237.727V229.433L239.995 227.147C240.643 226.499 240.967 225.944 240.967 225.482C240.967 225.092 240.844 224.783 240.598 224.555C240.358 224.321 240.058 224.204 239.698 224.204C239.056 224.204 238.585 224.501 238.285 225.095L237.754 224.78C237.946 224.396 238.213 224.102 238.555 223.898C238.897 223.694 239.278 223.592 239.698 223.592C240.202 223.592 240.643 223.763 241.021 224.105C241.405 224.435 241.597 224.894 241.597 225.482C241.597 225.83 241.501 226.172 241.309 226.508C241.117 226.838 240.823 227.201 240.427 227.597L238.627 229.388H241.732V230ZM246.461 230H242.456V229.433L244.724 227.147C245.372 226.499 245.696 225.944 245.696 225.482C245.696 225.092 245.573 224.783 245.327 224.555C245.087 224.321 244.787 224.204 244.427 224.204C243.785 224.204 243.314 224.501 243.014 225.095L242.483 224.78C242.675 224.396 242.942 224.102 243.284 223.898C243.626 223.694 244.007 223.592 244.427 223.592C244.931 223.592 245.372 223.763 245.75 224.105C246.134 224.435 246.326 224.894 246.326 225.482C246.326 225.83 246.23 226.172 246.038 226.508C245.846 226.838 245.552 227.201 245.156 227.597L243.356 229.388H246.461V230Z" fill="#E3E3E3"/>
<path d="M261.933 229.289V230H261.303V229.289C260.385 229.241 259.65 229.01 259.098 228.596C258.546 228.17 258.27 227.588 258.27 226.85C258.27 226.112 258.546 225.53 259.098 225.104C259.65 224.69 260.385 224.459 261.303 224.411V223.7H261.933V224.411C262.857 224.459 263.589 224.69 264.129 225.104C264.687 225.53 264.966 226.112 264.966 226.85C264.966 227.594 264.687 228.176 264.129 228.596C263.589 229.01 262.857 229.241 261.933 229.289ZM261.303 228.713V224.987C260.553 225.023 259.965 225.203 259.539 225.527C259.113 225.845 258.9 226.286 258.9 226.85C258.9 227.414 259.113 227.858 259.539 228.182C259.965 228.5 260.553 228.677 261.303 228.713ZM261.933 224.987V228.713C262.683 228.677 263.271 228.5 263.697 228.182C264.123 227.858 264.336 227.414 264.336 226.85C264.336 226.286 264.123 225.845 263.697 225.527C263.271 225.203 262.683 225.023 261.933 224.987ZM267.942 225.392C268.614 225.392 269.151 225.629 269.553 226.103C269.967 226.571 270.174 227.126 270.174 227.768C270.174 227.798 270.168 227.891 270.156 228.047H266.205C266.265 228.497 266.457 228.857 266.781 229.127C267.105 229.397 267.51 229.532 267.996 229.532C268.68 229.532 269.163 229.277 269.445 228.767L269.967 229.073C269.769 229.397 269.496 229.652 269.148 229.838C268.806 230.018 268.419 230.108 267.987 230.108C267.279 230.108 266.703 229.886 266.259 229.442C265.815 228.998 265.593 228.434 265.593 227.75C265.593 227.072 265.812 226.511 266.25 226.067C266.688 225.617 267.252 225.392 267.942 225.392ZM267.942 225.968C267.474 225.968 267.081 226.106 266.763 226.382C266.451 226.658 266.265 227.021 266.205 227.471H269.562C269.496 226.991 269.313 226.622 269.013 226.364C268.701 226.1 268.344 225.968 267.942 225.968ZM273.981 227.687C274.473 227.867 274.719 228.218 274.719 228.74C274.719 229.112 274.593 229.415 274.341 229.649C274.095 229.883 273.75 230 273.306 230H271.119V225.5H273.126C273.558 225.5 273.894 225.611 274.134 225.833C274.38 226.055 274.503 226.346 274.503 226.706C274.503 227.156 274.329 227.483 273.981 227.687ZM273.126 226.076H271.713V227.444H273.126C273.648 227.444 273.909 227.21 273.909 226.742C273.909 226.532 273.84 226.37 273.702 226.256C273.57 226.136 273.378 226.076 273.126 226.076ZM271.713 229.424H273.306C273.57 229.424 273.771 229.361 273.909 229.235C274.053 229.109 274.125 228.932 274.125 228.704C274.125 228.488 274.053 228.32 273.909 228.2C273.771 228.08 273.57 228.02 273.306 228.02H271.713V229.424ZM281.604 230H277.599V229.433L279.867 227.147C280.515 226.499 280.839 225.944 280.839 225.482C280.839 225.092 280.716 224.783 280.47 224.555C280.23 224.321 279.93 224.204 279.57 224.204C278.928 224.204 278.457 224.501 278.157 225.095L277.626 224.78C277.818 224.396 278.085 224.102 278.427 223.898C278.769 223.694 279.15 223.592 279.57 223.592C280.074 223.592 280.515 223.763 280.893 224.105C281.277 224.435 281.469 224.894 281.469 225.482C281.469 225.83 281.373 226.172 281.181 226.508C280.989 226.838 280.695 227.201 280.299 227.597L278.499 229.388H281.604V230ZM286.333 230H282.328V229.433L284.596 227.147C285.244 226.499 285.568 225.944 285.568 225.482C285.568 225.092 285.445 224.783 285.199 224.555C284.959 224.321 284.659 224.204 284.299 224.204C283.657 224.204 283.186 224.501 282.886 225.095L282.355 224.78C282.547 224.396 282.814 224.102 283.156 223.898C283.498 223.694 283.879 223.592 284.299 223.592C284.803 223.592 285.244 223.763 285.622 224.105C286.006 224.435 286.198 224.894 286.198 225.482C286.198 225.83 286.102 226.172 285.91 226.508C285.718 226.838 285.424 227.201 285.028 227.597L283.228 229.388H286.333V230Z" fill="#E3E3E3"/>
<path d="M303.697 223.7H304.48V230H303.85V224.654L301.645 228.344H301.555L299.35 224.654V230H298.72V223.7H299.503L301.6 227.21L303.697 223.7ZM309.698 226.382V225.5H310.292V230H309.698V229.118C309.284 229.778 308.678 230.108 307.88 230.108C307.238 230.108 306.689 229.88 306.233 229.424C305.783 228.968 305.558 228.41 305.558 227.75C305.558 227.09 305.783 226.532 306.233 226.076C306.689 225.62 307.238 225.392 307.88 225.392C308.678 225.392 309.284 225.722 309.698 226.382ZM306.665 229.019C307.007 229.361 307.427 229.532 307.925 229.532C308.423 229.532 308.843 229.361 309.185 229.019C309.527 228.665 309.698 228.242 309.698 227.75C309.698 227.252 309.527 226.832 309.185 226.49C308.843 226.142 308.423 225.968 307.925 225.968C307.427 225.968 307.007 226.142 306.665 226.49C306.323 226.832 306.152 227.252 306.152 227.75C306.152 228.242 306.323 228.665 306.665 229.019ZM313.962 225.392C314.604 225.392 315.15 225.62 315.6 226.076C316.056 226.532 316.284 227.09 316.284 227.75C316.284 228.41 316.056 228.968 315.6 229.424C315.15 229.88 314.604 230.108 313.962 230.108C313.164 230.108 312.558 229.778 312.144 229.118V231.8H311.55V225.5H312.144V226.382C312.558 225.722 313.164 225.392 313.962 225.392ZM312.657 229.019C312.999 229.361 313.419 229.532 313.917 229.532C314.415 229.532 314.835 229.361 315.177 229.019C315.519 228.665 315.69 228.242 315.69 227.75C315.69 227.252 315.519 226.832 315.177 226.49C314.835 226.142 314.415 225.968 313.917 225.968C313.419 225.968 312.999 226.142 312.657 226.49C312.315 226.832 312.144 227.252 312.144 227.75C312.144 228.242 312.315 228.665 312.657 229.019ZM323.257 230H319.252V229.433L321.52 227.147C322.168 226.499 322.492 225.944 322.492 225.482C322.492 225.092 322.369 224.783 322.123 224.555C321.883 224.321 321.583 224.204 321.223 224.204C320.581 224.204 320.11 224.501 319.81 225.095L319.279 224.78C319.471 224.396 319.738 224.102 320.08 223.898C320.422 223.694 320.803 223.592 321.223 223.592C321.727 223.592 322.168 223.763 322.546 224.105C322.93 224.435 323.122 224.894 323.122 225.482C323.122 225.83 323.026 226.172 322.834 226.508C322.642 226.838 322.348 227.201 321.952 227.597L320.152 229.388H323.257V230ZM327.985 230H323.98V229.433L326.248 227.147C326.896 226.499 327.22 225.944 327.22 225.482C327.22 225.092 327.097 224.783 326.851 224.555C326.611 224.321 326.311 224.204 325.951 224.204C325.309 224.204 324.838 224.501 324.538 225.095L324.007 224.78C324.199 224.396 324.466 224.102 324.808 223.898C325.15 223.694 325.531 223.592 325.951 223.592C326.455 223.592 326.896 223.763 327.274 224.105C327.658 224.435 327.85 224.894 327.85 225.482C327.85 225.83 327.754 226.172 327.562 226.508C327.37 226.838 327.076 227.201 326.68 227.597L324.88 229.388H327.985V230Z" fill="#E3E3E3"/>
<path d="M345.58 230H344.914L344.329 228.452H341.341L340.756 230H340.09L342.511 223.7H343.159L345.58 230ZM342.835 224.483L341.566 227.858H344.104L342.835 224.483ZM346.299 225.5H350.079V230H349.485V226.076H346.893V230H346.299V225.5ZM353.747 225.392C354.389 225.392 354.935 225.62 355.385 226.076C355.841 226.532 356.069 227.09 356.069 227.75C356.069 228.41 355.841 228.968 355.385 229.424C354.935 229.88 354.389 230.108 353.747 230.108C352.949 230.108 352.343 229.778 351.929 229.118V231.8H351.335V225.5H351.929V226.382C352.343 225.722 352.949 225.392 353.747 225.392ZM352.442 229.019C352.784 229.361 353.204 229.532 353.702 229.532C354.2 229.532 354.62 229.361 354.962 229.019C355.304 228.665 355.475 228.242 355.475 227.75C355.475 227.252 355.304 226.832 354.962 226.49C354.62 226.142 354.2 225.968 353.702 225.968C353.204 225.968 352.784 226.142 352.442 226.49C352.1 226.832 351.929 227.252 351.929 227.75C351.929 228.242 352.1 228.665 352.442 229.019ZM363.042 230H359.037V229.433L361.305 227.147C361.953 226.499 362.277 225.944 362.277 225.482C362.277 225.092 362.154 224.783 361.908 224.555C361.668 224.321 361.368 224.204 361.008 224.204C360.366 224.204 359.895 224.501 359.595 225.095L359.064 224.78C359.256 224.396 359.523 224.102 359.865 223.898C360.207 223.694 360.588 223.592 361.008 223.592C361.512 223.592 361.953 223.763 362.331 224.105C362.715 224.435 362.907 224.894 362.907 225.482C362.907 225.83 362.811 226.172 362.619 226.508C362.427 226.838 362.133 227.201 361.737 227.597L359.937 229.388H363.042V230ZM367.77 230H363.765V229.433L366.033 227.147C366.681 226.499 367.005 225.944 367.005 225.482C367.005 225.092 366.882 224.783 366.636 224.555C366.396 224.321 366.096 224.204 365.736 224.204C365.094 224.204 364.623 224.501 364.323 225.095L363.792 224.78C363.984 224.396 364.251 224.102 364.593 223.898C364.935 223.694 365.316 223.592 365.736 223.592C366.24 223.592 366.681 223.763 367.059 224.105C367.443 224.435 367.635 224.894 367.635 225.482C367.635 225.83 367.539 226.172 367.347 226.508C367.155 226.838 366.861 227.201 366.465 227.597L364.665 229.388H367.77V230Z" fill="#E3E3E3"/>
<path d="M385.697 223.7H386.48V230H385.85V224.654L383.645 228.344H383.555L381.35 224.654V230H380.72V223.7H381.503L383.6 227.21L385.697 223.7ZM391.698 226.382V225.5H392.292V230H391.698V229.118C391.284 229.778 390.678 230.108 389.88 230.108C389.238 230.108 388.689 229.88 388.233 229.424C387.783 228.968 387.558 228.41 387.558 227.75C387.558 227.09 387.783 226.532 388.233 226.076C388.689 225.62 389.238 225.392 389.88 225.392C390.678 225.392 391.284 225.722 391.698 226.382ZM388.665 229.019C389.007 229.361 389.427 229.532 389.925 229.532C390.423 229.532 390.843 229.361 391.185 229.019C391.527 228.665 391.698 228.242 391.698 227.75C391.698 227.252 391.527 226.832 391.185 226.49C390.843 226.142 390.423 225.968 389.925 225.968C389.427 225.968 389.007 226.142 388.665 226.49C388.323 226.832 388.152 227.252 388.152 227.75C388.152 228.242 388.323 228.665 388.665 229.019ZM396.61 224.78H394.27V224.258H396.61V224.78ZM394.144 228.965L396.826 225.5H397.33V230H396.736V226.535L394.054 230H393.55V225.5H394.144V228.965ZM404.571 230H400.566V229.433L402.834 227.147C403.482 226.499 403.806 225.944 403.806 225.482C403.806 225.092 403.683 224.783 403.437 224.555C403.197 224.321 402.897 224.204 402.537 224.204C401.895 224.204 401.424 224.501 401.124 225.095L400.593 224.78C400.785 224.396 401.052 224.102 401.394 223.898C401.736 223.694 402.117 223.592 402.537 223.592C403.041 223.592 403.482 223.763 403.86 224.105C404.244 224.435 404.436 224.894 404.436 225.482C404.436 225.83 404.34 226.172 404.148 226.508C403.956 226.838 403.662 227.201 403.266 227.597L401.466 229.388H404.571V230ZM409.3 230H405.295V229.433L407.563 227.147C408.211 226.499 408.535 225.944 408.535 225.482C408.535 225.092 408.412 224.783 408.166 224.555C407.926 224.321 407.626 224.204 407.266 224.204C406.624 224.204 406.153 224.501 405.853 225.095L405.322 224.78C405.514 224.396 405.781 224.102 406.123 223.898C406.465 223.694 406.846 223.592 407.266 223.592C407.77 223.592 408.211 223.763 408.589 224.105C408.973 224.435 409.165 224.894 409.165 225.482C409.165 225.83 409.069 226.172 408.877 226.508C408.685 226.838 408.391 227.201 407.995 227.597L406.195 229.388H409.3V230Z" fill="#E3E3E3"/>
<path d="M426.4 230H425.77V224.87L422.26 230H421.72V223.7H422.35V228.83L425.86 223.7H426.4V230ZM431.59 225.392C432.25 225.392 432.808 225.62 433.264 226.076C433.726 226.526 433.957 227.084 433.957 227.75C433.957 228.41 433.726 228.971 433.264 229.433C432.802 229.883 432.244 230.108 431.59 230.108C430.99 230.108 430.468 229.913 430.024 229.523C429.586 229.121 429.337 228.626 429.277 228.038H428.341V230H427.747V225.5H428.341V227.462H429.277C429.343 226.868 429.592 226.376 430.024 225.986C430.462 225.59 430.984 225.392 431.59 225.392ZM430.33 229.019C430.672 229.361 431.092 229.532 431.59 229.532C432.088 229.532 432.508 229.361 432.85 229.019C433.192 228.665 433.363 228.242 433.363 227.75C433.363 227.252 433.192 226.832 432.85 226.49C432.508 226.142 432.088 225.968 431.59 225.968C431.092 225.968 430.672 226.142 430.33 226.49C429.988 226.832 429.817 227.252 429.817 227.75C429.817 228.242 429.988 228.665 430.33 229.019ZM438.131 227.462V225.5H438.725V230H438.131V228.038H435.539V230H434.945V225.5H435.539V227.462H438.131ZM445.967 230H441.962V229.433L444.23 227.147C444.878 226.499 445.202 225.944 445.202 225.482C445.202 225.092 445.079 224.783 444.833 224.555C444.593 224.321 444.293 224.204 443.933 224.204C443.291 224.204 442.82 224.501 442.52 225.095L441.989 224.78C442.181 224.396 442.448 224.102 442.79 223.898C443.132 223.694 443.513 223.592 443.933 223.592C444.437 223.592 444.878 223.763 445.256 224.105C445.64 224.435 445.832 224.894 445.832 225.482C445.832 225.83 445.736 226.172 445.544 226.508C445.352 226.838 445.058 227.201 444.662 227.597L442.862 229.388H445.967V230ZM450.695 230H446.69V229.433L448.958 227.147C449.606 226.499 449.93 225.944 449.93 225.482C449.93 225.092 449.807 224.783 449.561 224.555C449.321 224.321 449.021 224.204 448.661 224.204C448.019 224.204 447.548 224.501 447.248 225.095L446.717 224.78C446.909 224.396 447.176 224.102 447.518 223.898C447.86 223.694 448.241 223.592 448.661 223.592C449.165 223.592 449.606 223.763 449.984 224.105C450.368 224.435 450.56 224.894 450.56 225.482C450.56 225.83 450.464 226.172 450.272 226.508C450.08 226.838 449.786 227.201 449.39 227.597L447.59 229.388H450.695V230Z" fill="#E3E3E3"/>
<path d="M468.4 230H467.77V224.87L464.26 230H463.72V223.7H464.35V228.83L467.86 223.7H468.4V230ZM473.59 225.392C474.25 225.392 474.808 225.62 475.264 226.076C475.726 226.526 475.957 227.084 475.957 227.75C475.957 228.41 475.726 228.971 475.264 229.433C474.802 229.883 474.244 230.108 473.59 230.108C472.99 230.108 472.468 229.913 472.024 229.523C471.586 229.121 471.337 228.626 471.277 228.038H470.341V230H469.747V225.5H470.341V227.462H471.277C471.343 226.868 471.592 226.376 472.024 225.986C472.462 225.59 472.984 225.392 473.59 225.392ZM472.33 229.019C472.672 229.361 473.092 229.532 473.59 229.532C474.088 229.532 474.508 229.361 474.85 229.019C475.192 228.665 475.363 228.242 475.363 227.75C475.363 227.252 475.192 226.832 474.85 226.49C474.508 226.142 474.088 225.968 473.59 225.968C473.092 225.968 472.672 226.142 472.33 226.49C471.988 226.832 471.817 227.252 471.817 227.75C471.817 228.242 471.988 228.665 472.33 229.019ZM477.238 225.5H480.46V230H479.866V226.076H477.832V228.083C477.832 228.833 477.688 229.349 477.4 229.631C477.118 229.913 476.728 230.036 476.23 230V229.442C476.578 229.478 476.833 229.394 476.995 229.19C477.157 228.986 477.238 228.617 477.238 228.083V225.5ZM487.703 230H483.698V229.433L485.966 227.147C486.614 226.499 486.938 225.944 486.938 225.482C486.938 225.092 486.815 224.783 486.569 224.555C486.329 224.321 486.029 224.204 485.669 224.204C485.027 224.204 484.556 224.501 484.256 225.095L483.725 224.78C483.917 224.396 484.184 224.102 484.526 223.898C484.868 223.694 485.249 223.592 485.669 223.592C486.173 223.592 486.614 223.763 486.992 224.105C487.376 224.435 487.568 224.894 487.568 225.482C487.568 225.83 487.472 226.172 487.28 226.508C487.088 226.838 486.794 227.201 486.398 227.597L484.598 229.388H487.703V230ZM492.431 230H488.426V229.433L490.694 227.147C491.342 226.499 491.666 225.944 491.666 225.482C491.666 225.092 491.543 224.783 491.297 224.555C491.057 224.321 490.757 224.204 490.397 224.204C489.755 224.204 489.284 224.501 488.984 225.095L488.453 224.78C488.645 224.396 488.912 224.102 489.254 223.898C489.596 223.694 489.977 223.592 490.397 223.592C490.901 223.592 491.342 223.763 491.72 224.105C492.104 224.435 492.296 224.894 492.296 225.482C492.296 225.83 492.2 226.172 492.008 226.508C491.816 226.838 491.522 227.201 491.126 227.597L489.326 229.388H492.431V230Z" fill="#E3E3E3"/>
<path d="M509.58 230H508.914L508.329 228.452H505.341L504.756 230H504.09L506.511 223.7H507.159L509.58 230ZM506.835 224.483L505.566 227.858H508.104L506.835 224.483ZM513.161 227.687C513.653 227.867 513.899 228.218 513.899 228.74C513.899 229.112 513.773 229.415 513.521 229.649C513.275 229.883 512.93 230 512.486 230H510.299V225.5H512.306C512.738 225.5 513.074 225.611 513.314 225.833C513.56 226.055 513.683 226.346 513.683 226.706C513.683 227.156 513.509 227.483 513.161 227.687ZM512.306 226.076H510.893V227.444H512.306C512.828 227.444 513.089 227.21 513.089 226.742C513.089 226.532 513.02 226.37 512.882 226.256C512.75 226.136 512.558 226.076 512.306 226.076ZM510.893 229.424H512.486C512.75 229.424 512.951 229.361 513.089 229.235C513.233 229.109 513.305 228.932 513.305 228.704C513.305 228.488 513.233 228.32 513.089 228.2C512.951 228.08 512.75 228.02 512.486 228.02H510.893V229.424ZM514.799 225.5H517.679V226.076H515.393V230H514.799V225.5ZM524.387 230H520.382V229.433L522.65 227.147C523.298 226.499 523.622 225.944 523.622 225.482C523.622 225.092 523.499 224.783 523.253 224.555C523.013 224.321 522.713 224.204 522.353 224.204C521.711 224.204 521.24 224.501 520.94 225.095L520.409 224.78C520.601 224.396 520.868 224.102 521.21 223.898C521.552 223.694 521.933 223.592 522.353 223.592C522.857 223.592 523.298 223.763 523.676 224.105C524.06 224.435 524.252 224.894 524.252 225.482C524.252 225.83 524.156 226.172 523.964 226.508C523.772 226.838 523.478 227.201 523.082 227.597L521.282 229.388H524.387V230ZM529.116 230H525.111V229.433L527.379 227.147C528.027 226.499 528.351 225.944 528.351 225.482C528.351 225.092 528.228 224.783 527.982 224.555C527.742 224.321 527.442 224.204 527.082 224.204C526.44 224.204 525.969 224.501 525.669 225.095L525.138 224.78C525.33 224.396 525.597 224.102 525.939 223.898C526.281 223.694 526.662 223.592 527.082 223.592C527.586 223.592 528.027 223.763 528.405 224.105C528.789 224.435 528.981 224.894 528.981 225.482C528.981 225.83 528.885 226.172 528.693 226.508C528.501 226.838 528.207 227.201 527.811 227.597L526.011 229.388H529.116V230Z" fill="#E3E3E3"/>
<path d="M544.663 230.108C543.703 230.108 542.914 229.793 542.296 229.163C541.672 228.527 541.36 227.756 541.36 226.85C541.36 225.944 541.672 225.173 542.296 224.537C542.914 223.907 543.703 223.592 544.663 223.592C545.239 223.592 545.77 223.733 546.256 224.015C546.742 224.291 547.12 224.666 547.39 225.14L546.832 225.464C546.634 225.08 546.34 224.774 545.95 224.546C545.56 224.318 545.131 224.204 544.663 224.204C543.871 224.204 543.229 224.459 542.737 224.969C542.239 225.485 541.99 226.112 541.99 226.85C541.99 227.588 542.239 228.215 542.737 228.731C543.229 229.241 543.871 229.496 544.663 229.496C545.131 229.496 545.56 229.382 545.95 229.154C546.34 228.926 546.634 228.62 546.832 228.236L547.39 228.551C547.132 229.025 546.757 229.403 546.265 229.685C545.773 229.967 545.239 230.108 544.663 230.108ZM550.371 225.392C551.043 225.392 551.58 225.629 551.982 226.103C552.396 226.571 552.603 227.126 552.603 227.768C552.603 227.798 552.597 227.891 552.585 228.047H548.634C548.694 228.497 548.886 228.857 549.21 229.127C549.534 229.397 549.939 229.532 550.425 229.532C551.109 229.532 551.592 229.277 551.874 228.767L552.396 229.073C552.198 229.397 551.925 229.652 551.577 229.838C551.235 230.018 550.848 230.108 550.416 230.108C549.708 230.108 549.132 229.886 548.688 229.442C548.244 228.998 548.022 228.434 548.022 227.75C548.022 227.072 548.241 226.511 548.679 226.067C549.117 225.617 549.681 225.392 550.371 225.392ZM550.371 225.968C549.903 225.968 549.51 226.106 549.192 226.382C548.88 226.658 548.694 227.021 548.634 227.471H551.991C551.925 226.991 551.742 226.622 551.442 226.364C551.13 226.1 550.773 225.968 550.371 225.968ZM556.734 227.462V225.5H557.328V230H556.734V228.038H554.142V230H553.548V225.5H554.142V227.462H556.734ZM564.569 230H560.564V229.433L562.832 227.147C563.48 226.499 563.804 225.944 563.804 225.482C563.804 225.092 563.681 224.783 563.435 224.555C563.195 224.321 562.895 224.204 562.535 224.204C561.893 224.204 561.422 224.501 561.122 225.095L560.591 224.78C560.783 224.396 561.05 224.102 561.392 223.898C561.734 223.694 562.115 223.592 562.535 223.592C563.039 223.592 563.48 223.763 563.858 224.105C564.242 224.435 564.434 224.894 564.434 225.482C564.434 225.83 564.338 226.172 564.146 226.508C563.954 226.838 563.66 227.201 563.264 227.597L561.464 229.388H564.569V230ZM569.298 230H565.293V229.433L567.561 227.147C568.209 226.499 568.533 225.944 568.533 225.482C568.533 225.092 568.41 224.783 568.164 224.555C567.924 224.321 567.624 224.204 567.264 224.204C566.622 224.204 566.151 224.501 565.851 225.095L565.32 224.78C565.512 224.396 565.779 224.102 566.121 223.898C566.463 223.694 566.844 223.592 567.264 223.592C567.768 223.592 568.209 223.763 568.587 224.105C568.971 224.435 569.163 224.894 569.163 225.482C569.163 225.83 569.067 226.172 568.875 226.508C568.683 226.838 568.389 227.201 567.993 227.597L566.193 229.388H569.298V230Z" fill="#E3E3E3"/>
<path d="M81.5002 185.5C75.9002 203.5 49.3333 206 36.5 205V214.5H556.5V43.5C544.5 71 485.5 131 424.5 78.5C375.7 36.5 341.167 76.6666 330 102C321.5 123.5 300 164.1 282 154.5C264 144.9 249.167 150.5 244 154.5C236.667 159.833 211.2 158.8 168 112C114 53.4999 88.5002 163 81.5002 185.5Z" fill="url(#paint0_linear_186_969)"/>
<path d="M81.5002 185.5C75.9002 203.5 49.3333 206 36.5 205V214.5H556.5V43.5C544.5 71 485.5 131 424.5 78.5C375.7 36.5 341.167 76.6666 330 102C321.5 123.5 300 164.1 282 154.5C264 144.9 249.167 150.5 244 154.5C236.667 159.833 211.2 158.8 168 112C114 53.4999 88.5002 163 81.5002 185.5Z" stroke="#FFB11B"/>
<defs>
<linearGradient id="paint0_linear_186_969" x1="296.5" y1="66.5515" x2="296.5" y2="214.5" gradientUnits="userSpaceOnUse">
<stop stop-color="#FFC700" stop-opacity="0.5"/>
<stop offset="1" stop-color="#FFC700" stop-opacity="0.2"/>
</linearGradient>
</defs>
</svg>
