<svg width="560" height="232" viewBox="0 0 560 232" fill="none" xmlns="http://www.w3.org/2000/svg">
<g opacity="0.3">
<line x1="36" y1="6.50003" x2="547" y2="6.49999" stroke="#FFB11B" stroke-dasharray="2 2"/>
<line x1="36" y1="32.5001" x2="547" y2="32.5001" stroke="#FFB11B" stroke-dasharray="2 2"/>
<line x1="36" y1="58.5002" x2="547" y2="58.5001" stroke="#FFB11B" stroke-dasharray="2 2"/>
<line x1="36" y1="84.5" x2="547" y2="84.5" stroke="#FFB11B" stroke-dasharray="2 2"/>
<line x1="36" y1="110.5" x2="547" y2="110.5" stroke="#FFB11B" stroke-dasharray="2 2"/>
<line x1="36" y1="136.5" x2="547" y2="136.5" stroke="#FFB11B" stroke-dasharray="2 2"/>
<line x1="36" y1="162.5" x2="547" y2="162.5" stroke="#FFB11B" stroke-dasharray="2 2"/>
<line x1="36" y1="188.5" x2="547" y2="188.5" stroke="#FFB11B" stroke-dasharray="2 2"/>
<line x1="36" y1="214.5" x2="547" y2="214.5" stroke="#FFB11B" stroke-dasharray="2 2"/>
<line x1="36.5" y1="6" x2="36.5" y2="215" stroke="#FFB11B" stroke-dasharray="2 2"/>
<line x1="87.5" y1="6" x2="87.5" y2="215" stroke="#FFB11B" stroke-dasharray="2 2"/>
<line x1="138.5" y1="6" x2="138.5" y2="215" stroke="#FFB11B" stroke-dasharray="2 2"/>
<line x1="189.5" y1="6" x2="189.5" y2="215" stroke="#FFB11B" stroke-dasharray="2 2"/>
<line x1="240.5" y1="6" x2="240.5" y2="215" stroke="#FFB11B" stroke-dasharray="2 2"/>
<line x1="291.5" y1="6" x2="291.5" y2="215" stroke="#FFB11B" stroke-dasharray="2 2"/>
<line x1="342.5" y1="6" x2="342.5" y2="215" stroke="#FFB11B" stroke-dasharray="2 2"/>
<line x1="393.5" y1="6" x2="393.5" y2="215" stroke="#FFB11B" stroke-dasharray="2 2"/>
<line x1="444.5" y1="6" x2="444.5" y2="215" stroke="#FFB11B" stroke-dasharray="2 2"/>
<line x1="495.5" y1="6" x2="495.5" y2="215" stroke="#FFB11B" stroke-dasharray="2 2"/>
<line x1="546.5" y1="6" x2="546.5" y2="215" stroke="#FFB11B" stroke-dasharray="2 2"/>
</g>
<path d="M28.9211 212.226C28.5071 212.814 27.9221 213.108 27.1661 213.108C26.4161 213.108 25.8281 212.814 25.4021 212.226C24.9881 211.632 24.7811 210.84 24.7811 209.85C24.7811 208.854 24.9881 208.065 25.4021 207.483C25.8281 206.889 26.4161 206.592 27.1661 206.592C27.9221 206.592 28.5071 206.889 28.9211 207.483C29.3411 208.065 29.5511 208.854 29.5511 209.85C29.5511 210.846 29.3411 211.638 28.9211 212.226ZM25.8701 211.803C26.1881 212.265 26.6201 212.496 27.1661 212.496C27.7181 212.496 28.1471 212.265 28.4531 211.803C28.7651 211.347 28.9211 210.696 28.9211 209.85C28.9211 209.004 28.7651 208.353 28.4531 207.897C28.1471 207.435 27.7181 207.204 27.1661 207.204C26.6201 207.204 26.1881 207.435 25.8701 207.897C25.5641 208.359 25.4111 209.01 25.4111 209.85C25.4111 210.69 25.5641 211.341 25.8701 211.803Z" fill="#E3E3E3"/>
<path d="M15.7385 181.276L17.4035 180.7H17.9435V187H17.3135V181.393L15.9005 181.816L15.7385 181.276ZM23.2521 186.226C22.8381 186.814 22.2531 187.108 21.4971 187.108C20.7471 187.108 20.1591 186.814 19.7331 186.226C19.3191 185.632 19.1121 184.84 19.1121 183.85C19.1121 182.854 19.3191 182.065 19.7331 181.483C20.1591 180.889 20.7471 180.592 21.4971 180.592C22.2531 180.592 22.8381 180.889 23.2521 181.483C23.6721 182.065 23.8821 182.854 23.8821 183.85C23.8821 184.846 23.6721 185.638 23.2521 186.226ZM20.2011 185.803C20.5191 186.265 20.9511 186.496 21.4971 186.496C22.0491 186.496 22.4781 186.265 22.7841 185.803C23.0961 185.347 23.2521 184.696 23.2521 183.85C23.2521 183.004 23.0961 182.353 22.7841 181.897C22.4781 181.435 22.0491 181.204 21.4971 181.204C20.9511 181.204 20.5191 181.435 20.2011 181.897C19.8951 182.359 19.7421 183.01 19.7421 183.85C19.7421 184.69 19.8951 185.341 20.2011 185.803ZM28.9211 186.226C28.5071 186.814 27.9221 187.108 27.1661 187.108C26.4161 187.108 25.8281 186.814 25.4021 186.226C24.9881 185.632 24.7811 184.84 24.7811 183.85C24.7811 182.854 24.9881 182.065 25.4021 181.483C25.8281 180.889 26.4161 180.592 27.1661 180.592C27.9221 180.592 28.5071 180.889 28.9211 181.483C29.3411 182.065 29.5511 182.854 29.5511 183.85C29.5511 184.846 29.3411 185.638 28.9211 186.226ZM25.8701 185.803C26.1881 186.265 26.6201 186.496 27.1661 186.496C27.7181 186.496 28.1471 186.265 28.4531 185.803C28.7651 185.347 28.9211 184.696 28.9211 183.85C28.9211 183.004 28.7651 182.353 28.4531 181.897C28.1471 181.435 27.7181 181.204 27.1661 181.204C26.6201 181.204 26.1881 181.435 25.8701 181.897C25.5641 182.359 25.4111 183.01 25.4111 183.85C25.4111 184.69 25.5641 185.341 25.8701 185.803Z" fill="#E3E3E3"/>
<path d="M18.3865 161H14.3815V160.433L16.6495 158.147C17.2975 157.499 17.6215 156.944 17.6215 156.482C17.6215 156.092 17.4985 155.783 17.2525 155.555C17.0125 155.321 16.7125 155.204 16.3525 155.204C15.7105 155.204 15.2395 155.501 14.9395 156.095L14.4085 155.78C14.6005 155.396 14.8675 155.102 15.2095 154.898C15.5515 154.694 15.9325 154.592 16.3525 154.592C16.8565 154.592 17.2975 154.763 17.6755 155.105C18.0595 155.435 18.2515 155.894 18.2515 156.482C18.2515 156.83 18.1555 157.172 17.9635 157.508C17.7715 157.838 17.4775 158.201 17.0815 158.597L15.2815 160.388H18.3865V161ZM23.2521 160.226C22.8381 160.814 22.2531 161.108 21.4971 161.108C20.7471 161.108 20.1591 160.814 19.7331 160.226C19.3191 159.632 19.1121 158.84 19.1121 157.85C19.1121 156.854 19.3191 156.065 19.7331 155.483C20.1591 154.889 20.7471 154.592 21.4971 154.592C22.2531 154.592 22.8381 154.889 23.2521 155.483C23.6721 156.065 23.8821 156.854 23.8821 157.85C23.8821 158.846 23.6721 159.638 23.2521 160.226ZM20.2011 159.803C20.5191 160.265 20.9511 160.496 21.4971 160.496C22.0491 160.496 22.4781 160.265 22.7841 159.803C23.0961 159.347 23.2521 158.696 23.2521 157.85C23.2521 157.004 23.0961 156.353 22.7841 155.897C22.4781 155.435 22.0491 155.204 21.4971 155.204C20.9511 155.204 20.5191 155.435 20.2011 155.897C19.8951 156.359 19.7421 157.01 19.7421 157.85C19.7421 158.69 19.8951 159.341 20.2011 159.803ZM28.9211 160.226C28.5071 160.814 27.9221 161.108 27.1661 161.108C26.4161 161.108 25.8281 160.814 25.4021 160.226C24.9881 159.632 24.7811 158.84 24.7811 157.85C24.7811 156.854 24.9881 156.065 25.4021 155.483C25.8281 154.889 26.4161 154.592 27.1661 154.592C27.9221 154.592 28.5071 154.889 28.9211 155.483C29.3411 156.065 29.5511 156.854 29.5511 157.85C29.5511 158.846 29.3411 159.638 28.9211 160.226ZM25.8701 159.803C26.1881 160.265 26.6201 160.496 27.1661 160.496C27.7181 160.496 28.1471 160.265 28.4531 159.803C28.7651 159.347 28.9211 158.696 28.9211 157.85C28.9211 157.004 28.7651 156.353 28.4531 155.897C28.1471 155.435 27.7181 155.204 27.1661 155.204C26.6201 155.204 26.1881 155.435 25.8701 155.897C25.5641 156.359 25.4111 157.01 25.4111 157.85C25.4111 158.69 25.5641 159.341 25.8701 159.803Z" fill="#E3E3E3"/>
<path d="M18.0296 131.294L16.5626 133.319C17.0606 133.379 17.4746 133.574 17.8046 133.904C18.1346 134.216 18.2996 134.639 18.2996 135.173C18.2996 135.767 18.0926 136.241 17.6786 136.595C17.2766 136.937 16.7786 137.108 16.1846 137.108C15.7106 137.108 15.2906 137 14.9246 136.784C14.5586 136.562 14.3036 136.253 14.1596 135.857L14.6816 135.551C14.7836 135.857 14.9636 136.091 15.2216 136.253C15.4856 136.415 15.8066 136.496 16.1846 136.496C16.6286 136.496 16.9856 136.379 17.2556 136.145C17.5316 135.905 17.6696 135.581 17.6696 135.173C17.6696 134.765 17.5316 134.444 17.2556 134.21C16.9856 133.97 16.6286 133.85 16.1846 133.85V133.841L16.1756 133.85H16.0046L15.7346 133.436L17.3006 131.294H14.3396V130.7H18.0296V131.294ZM23.2521 136.226C22.8381 136.814 22.2531 137.108 21.4971 137.108C20.7471 137.108 20.1591 136.814 19.7331 136.226C19.3191 135.632 19.1121 134.84 19.1121 133.85C19.1121 132.854 19.3191 132.065 19.7331 131.483C20.1591 130.889 20.7471 130.592 21.4971 130.592C22.2531 130.592 22.8381 130.889 23.2521 131.483C23.6721 132.065 23.8821 132.854 23.8821 133.85C23.8821 134.846 23.6721 135.638 23.2521 136.226ZM20.2011 135.803C20.5191 136.265 20.9511 136.496 21.4971 136.496C22.0491 136.496 22.4781 136.265 22.7841 135.803C23.0961 135.347 23.2521 134.696 23.2521 133.85C23.2521 133.004 23.0961 132.353 22.7841 131.897C22.4781 131.435 22.0491 131.204 21.4971 131.204C20.9511 131.204 20.5191 131.435 20.2011 131.897C19.8951 132.359 19.7421 133.01 19.7421 133.85C19.7421 134.69 19.8951 135.341 20.2011 135.803ZM28.9211 136.226C28.5071 136.814 27.9221 137.108 27.1661 137.108C26.4161 137.108 25.8281 136.814 25.4021 136.226C24.9881 135.632 24.7811 134.84 24.7811 133.85C24.7811 132.854 24.9881 132.065 25.4021 131.483C25.8281 130.889 26.4161 130.592 27.1661 130.592C27.9221 130.592 28.5071 130.889 28.9211 131.483C29.3411 132.065 29.5511 132.854 29.5511 133.85C29.5511 134.846 29.3411 135.638 28.9211 136.226ZM25.8701 135.803C26.1881 136.265 26.6201 136.496 27.1661 136.496C27.7181 136.496 28.1471 136.265 28.4531 135.803C28.7651 135.347 28.9211 134.696 28.9211 133.85C28.9211 133.004 28.7651 132.353 28.4531 131.897C28.1471 131.435 27.7181 131.204 27.1661 131.204C26.6201 131.204 26.1881 131.435 25.8701 131.897C25.5641 132.359 25.4111 133.01 25.4111 133.85C25.4111 134.69 25.5641 135.341 25.8701 135.803Z" fill="#E3E3E3"/>
<path d="M17.6264 107.146H18.4364V107.74H17.6264V109H16.9964V107.74H13.6664V107.146L16.0064 102.7H16.6994L14.3594 107.146H16.9964V105.22H17.6264V107.146ZM23.2521 108.226C22.8381 108.814 22.2531 109.108 21.4971 109.108C20.7471 109.108 20.1591 108.814 19.7331 108.226C19.3191 107.632 19.1121 106.84 19.1121 105.85C19.1121 104.854 19.3191 104.065 19.7331 103.483C20.1591 102.889 20.7471 102.592 21.4971 102.592C22.2531 102.592 22.8381 102.889 23.2521 103.483C23.6721 104.065 23.8821 104.854 23.8821 105.85C23.8821 106.846 23.6721 107.638 23.2521 108.226ZM20.2011 107.803C20.5191 108.265 20.9511 108.496 21.4971 108.496C22.0491 108.496 22.4781 108.265 22.7841 107.803C23.0961 107.347 23.2521 106.696 23.2521 105.85C23.2521 105.004 23.0961 104.353 22.7841 103.897C22.4781 103.435 22.0491 103.204 21.4971 103.204C20.9511 103.204 20.5191 103.435 20.2011 103.897C19.8951 104.359 19.7421 105.01 19.7421 105.85C19.7421 106.69 19.8951 107.341 20.2011 107.803ZM28.9211 108.226C28.5071 108.814 27.9221 109.108 27.1661 109.108C26.4161 109.108 25.8281 108.814 25.4021 108.226C24.9881 107.632 24.7811 106.84 24.7811 105.85C24.7811 104.854 24.9881 104.065 25.4021 103.483C25.8281 102.889 26.4161 102.592 27.1661 102.592C27.9221 102.592 28.5071 102.889 28.9211 103.483C29.3411 104.065 29.5511 104.854 29.5511 105.85C29.5511 106.846 29.3411 107.638 28.9211 108.226ZM25.8701 107.803C26.1881 108.265 26.6201 108.496 27.1661 108.496C27.7181 108.496 28.1471 108.265 28.4531 107.803C28.7651 107.347 28.9211 106.696 28.9211 105.85C28.9211 105.004 28.7651 104.353 28.4531 103.897C28.1471 103.435 27.7181 103.204 27.1661 103.204C26.6201 103.204 26.1881 103.435 25.8701 103.897C25.5641 104.359 25.4111 105.01 25.4111 105.85C25.4111 106.69 25.5641 107.341 25.8701 107.803Z" fill="#E3E3E3"/>
<path d="M15.3005 79.238H16.3625C16.9565 79.238 17.4545 79.412 17.8565 79.76C18.2705 80.102 18.4775 80.573 18.4775 81.173C18.4775 81.767 18.2705 82.241 17.8565 82.595C17.4545 82.937 16.9565 83.108 16.3625 83.108C15.8765 83.108 15.4475 82.991 15.0755 82.757C14.7095 82.517 14.4635 82.187 14.3375 81.767L14.8685 81.461C14.9585 81.791 15.1355 82.046 15.3995 82.226C15.6635 82.406 15.9845 82.496 16.3625 82.496C16.8065 82.496 17.1635 82.379 17.4335 82.145C17.7095 81.905 17.8475 81.581 17.8475 81.173C17.8475 80.765 17.7095 80.444 17.4335 80.21C17.1635 79.97 16.8065 79.85 16.3625 79.85H14.6525L14.8775 76.7H18.2525V77.294H15.4355L15.3005 79.238ZM23.2521 82.226C22.8381 82.814 22.2531 83.108 21.4971 83.108C20.7471 83.108 20.1591 82.814 19.7331 82.226C19.3191 81.632 19.1121 80.84 19.1121 79.85C19.1121 78.854 19.3191 78.065 19.7331 77.483C20.1591 76.889 20.7471 76.592 21.4971 76.592C22.2531 76.592 22.8381 76.889 23.2521 77.483C23.6721 78.065 23.8821 78.854 23.8821 79.85C23.8821 80.846 23.6721 81.638 23.2521 82.226ZM20.2011 81.803C20.5191 82.265 20.9511 82.496 21.4971 82.496C22.0491 82.496 22.4781 82.265 22.7841 81.803C23.0961 81.347 23.2521 80.696 23.2521 79.85C23.2521 79.004 23.0961 78.353 22.7841 77.897C22.4781 77.435 22.0491 77.204 21.4971 77.204C20.9511 77.204 20.5191 77.435 20.2011 77.897C19.8951 78.359 19.7421 79.01 19.7421 79.85C19.7421 80.69 19.8951 81.341 20.2011 81.803ZM28.9211 82.226C28.5071 82.814 27.9221 83.108 27.1661 83.108C26.4161 83.108 25.8281 82.814 25.4021 82.226C24.9881 81.632 24.7811 80.84 24.7811 79.85C24.7811 78.854 24.9881 78.065 25.4021 77.483C25.8281 76.889 26.4161 76.592 27.1661 76.592C27.9221 76.592 28.5071 76.889 28.9211 77.483C29.3411 78.065 29.5511 78.854 29.5511 79.85C29.5511 80.846 29.3411 81.638 28.9211 82.226ZM25.8701 81.803C26.1881 82.265 26.6201 82.496 27.1661 82.496C27.7181 82.496 28.1471 82.265 28.4531 81.803C28.7651 81.347 28.9211 80.696 28.9211 79.85C28.9211 79.004 28.7651 78.353 28.4531 77.897C28.1471 77.435 27.7181 77.204 27.1661 77.204C26.6201 77.204 26.1881 77.435 25.8701 77.897C25.5641 78.359 25.4111 79.01 25.4111 79.85C25.4111 80.69 25.5641 81.341 25.8701 81.803Z" fill="#E3E3E3"/>
<path d="M16.2746 54.95C16.8866 54.95 17.3936 55.145 17.7956 55.535C18.1916 55.925 18.3896 56.423 18.3896 57.029C18.3896 57.647 18.1916 58.148 17.7956 58.532C17.4056 58.916 16.8986 59.108 16.2746 59.108C15.6506 59.108 15.1436 58.916 14.7536 58.532C14.3576 58.148 14.1596 57.647 14.1596 57.029C14.1596 56.555 14.2886 56.135 14.5466 55.769L16.6076 52.7H17.3186L15.7706 55.004C15.9326 54.968 16.1006 54.95 16.2746 54.95ZM15.1946 58.091C15.4766 58.361 15.8366 58.496 16.2746 58.496C16.7186 58.496 17.0756 58.361 17.3456 58.091C17.6216 57.821 17.7596 57.467 17.7596 57.029C17.7596 56.591 17.6216 56.237 17.3456 55.967C17.0756 55.697 16.7186 55.562 16.2746 55.562C15.8366 55.562 15.4766 55.697 15.1946 55.967C14.9246 56.237 14.7896 56.591 14.7896 57.029C14.7896 57.467 14.9246 57.821 15.1946 58.091ZM23.2521 58.226C22.8381 58.814 22.2531 59.108 21.4971 59.108C20.7471 59.108 20.1591 58.814 19.7331 58.226C19.3191 57.632 19.1121 56.84 19.1121 55.85C19.1121 54.854 19.3191 54.065 19.7331 53.483C20.1591 52.889 20.7471 52.592 21.4971 52.592C22.2531 52.592 22.8381 52.889 23.2521 53.483C23.6721 54.065 23.8821 54.854 23.8821 55.85C23.8821 56.846 23.6721 57.638 23.2521 58.226ZM20.2011 57.803C20.5191 58.265 20.9511 58.496 21.4971 58.496C22.0491 58.496 22.4781 58.265 22.7841 57.803C23.0961 57.347 23.2521 56.696 23.2521 55.85C23.2521 55.004 23.0961 54.353 22.7841 53.897C22.4781 53.435 22.0491 53.204 21.4971 53.204C20.9511 53.204 20.5191 53.435 20.2011 53.897C19.8951 54.359 19.7421 55.01 19.7421 55.85C19.7421 56.69 19.8951 57.341 20.2011 57.803ZM28.9211 58.226C28.5071 58.814 27.9221 59.108 27.1661 59.108C26.4161 59.108 25.8281 58.814 25.4021 58.226C24.9881 57.632 24.7811 56.84 24.7811 55.85C24.7811 54.854 24.9881 54.065 25.4021 53.483C25.8281 52.889 26.4161 52.592 27.1661 52.592C27.9221 52.592 28.5071 52.889 28.9211 53.483C29.3411 54.065 29.5511 54.854 29.5511 55.85C29.5511 56.846 29.3411 57.638 28.9211 58.226ZM25.8701 57.803C26.1881 58.265 26.6201 58.496 27.1661 58.496C27.7181 58.496 28.1471 58.265 28.4531 57.803C28.7651 57.347 28.9211 56.696 28.9211 55.85C28.9211 55.004 28.7651 54.353 28.4531 53.897C28.1471 53.435 27.7181 53.204 27.1661 53.204C26.6201 53.204 26.1881 53.435 25.8701 53.897C25.5641 54.359 25.4111 55.01 25.4111 55.85C25.4111 56.69 25.5641 57.341 25.8701 57.803Z" fill="#E3E3E3"/>
<path d="M14.7816 27.294V26.7H18.6516V27.294L16.2756 33H15.6186L17.9946 27.294H14.7816ZM23.2521 32.226C22.8381 32.814 22.2531 33.108 21.4971 33.108C20.7471 33.108 20.1591 32.814 19.7331 32.226C19.3191 31.632 19.1121 30.84 19.1121 29.85C19.1121 28.854 19.3191 28.065 19.7331 27.483C20.1591 26.889 20.7471 26.592 21.4971 26.592C22.2531 26.592 22.8381 26.889 23.2521 27.483C23.6721 28.065 23.8821 28.854 23.8821 29.85C23.8821 30.846 23.6721 31.638 23.2521 32.226ZM20.2011 31.803C20.5191 32.265 20.9511 32.496 21.4971 32.496C22.0491 32.496 22.4781 32.265 22.7841 31.803C23.0961 31.347 23.2521 30.696 23.2521 29.85C23.2521 29.004 23.0961 28.353 22.7841 27.897C22.4781 27.435 22.0491 27.204 21.4971 27.204C20.9511 27.204 20.5191 27.435 20.2011 27.897C19.8951 28.359 19.7421 29.01 19.7421 29.85C19.7421 30.69 19.8951 31.341 20.2011 31.803ZM28.9211 32.226C28.5071 32.814 27.9221 33.108 27.1661 33.108C26.4161 33.108 25.8281 32.814 25.4021 32.226C24.9881 31.632 24.7811 30.84 24.7811 29.85C24.7811 28.854 24.9881 28.065 25.4021 27.483C25.8281 26.889 26.4161 26.592 27.1661 26.592C27.9221 26.592 28.5071 26.889 28.9211 27.483C29.3411 28.065 29.5511 28.854 29.5511 29.85C29.5511 30.846 29.3411 31.638 28.9211 32.226ZM25.8701 31.803C26.1881 32.265 26.6201 32.496 27.1661 32.496C27.7181 32.496 28.1471 32.265 28.4531 31.803C28.7651 31.347 28.9211 30.696 28.9211 29.85C28.9211 29.004 28.7651 28.353 28.4531 27.897C28.1471 27.435 27.7181 27.204 27.1661 27.204C26.6201 27.204 26.1881 27.435 25.8701 27.897C25.5641 28.359 25.4111 29.01 25.4111 29.85C25.4111 30.69 25.5641 31.341 25.8701 31.803Z" fill="#E3E3E3"/>
<path d="M4.76864 3.733C5.08064 3.865 5.32664 4.066 5.50664 4.336C5.68664 4.606 5.77664 4.909 5.77664 5.245C5.77664 5.731 5.60564 6.145 5.26364 6.487C4.92164 6.829 4.50764 7 4.02164 7H1.27664V0.7H3.81464C4.27664 0.7 4.67564 0.868 5.01164 1.204C5.34164 1.534 5.50664 1.93 5.50664 2.392C5.50664 2.98 5.26064 3.427 4.76864 3.733ZM3.81464 1.294H1.90664V3.49H3.81464C4.10264 3.49 4.35164 3.385 4.56164 3.175C4.77164 2.953 4.87664 2.692 4.87664 2.392C4.87664 2.098 4.77164 1.84 4.56164 1.618C4.35164 1.402 4.10264 1.294 3.81464 1.294ZM1.90664 6.406H4.02164C4.33364 6.406 4.59764 6.295 4.81364 6.073C5.03564 5.851 5.14664 5.575 5.14664 5.245C5.14664 4.921 5.03564 4.648 4.81364 4.426C4.59764 4.198 4.33364 4.084 4.02164 4.084H1.90664V6.406ZM7.3617 5.965L10.0437 2.5H10.5477V7H9.9537V3.535L7.2717 7H6.7677V2.5H7.3617V5.965ZM14.1258 4.687C14.6478 4.885 14.9088 5.245 14.9088 5.767C14.9088 6.145 14.7618 6.463 14.4678 6.721C14.1858 6.979 13.7718 7.108 13.2258 7.108C12.3138 7.108 11.7198 6.748 11.4438 6.028L11.9478 5.731C12.1398 6.265 12.5658 6.532 13.2258 6.532C13.5678 6.532 13.8348 6.46 14.0268 6.316C14.2188 6.166 14.3148 5.971 14.3148 5.731C14.3148 5.515 14.2368 5.344 14.0808 5.218C13.9248 5.086 13.7148 5.02 13.4508 5.02H12.7938V4.444H13.2708C13.5288 4.444 13.7298 4.381 13.8738 4.255C14.0238 4.123 14.0988 3.943 14.0988 3.715C14.0988 3.499 14.0088 3.322 13.8288 3.184C13.6548 3.04 13.4238 2.968 13.1358 2.968C12.5778 2.968 12.2028 3.193 12.0108 3.643L11.5158 3.355C11.8158 2.713 12.3558 2.392 13.1358 2.392C13.6158 2.392 13.9938 2.518 14.2698 2.77C14.5518 3.016 14.6928 3.319 14.6928 3.679C14.6928 4.141 14.5038 4.477 14.1258 4.687ZM16.4056 5.965L19.0876 2.5H19.5916V7H18.9976V3.535L16.3156 7H15.8116V2.5H16.4056V5.965ZM20.3078 2.5H24.0878V3.076H22.4948V7H21.9008V3.076H20.3078V2.5ZM25.4056 4.21H26.6386C27.0526 4.21 27.4066 4.342 27.7006 4.606C27.9946 4.864 28.1416 5.197 28.1416 5.605C28.1416 6.019 27.9946 6.355 27.7006 6.613C27.4186 6.871 27.0646 7 26.6386 7H24.8116V2.5H25.4056V4.21ZM28.7716 7V2.5H29.3656V7H28.7716ZM25.4056 6.424H26.6386C26.8966 6.424 27.1126 6.349 27.2866 6.199C27.4606 6.043 27.5476 5.845 27.5476 5.605C27.5476 5.365 27.4606 5.17 27.2866 5.02C27.1126 4.864 26.8966 4.786 26.6386 4.786H25.4056V6.424Z" fill="#E3E3E3"/>
<path d="M39.933 229.289V230H39.303V229.289C38.385 229.241 37.65 229.01 37.098 228.596C36.546 228.17 36.27 227.588 36.27 226.85C36.27 226.112 36.546 225.53 37.098 225.104C37.65 224.69 38.385 224.459 39.303 224.411V223.7H39.933V224.411C40.857 224.459 41.589 224.69 42.129 225.104C42.687 225.53 42.966 226.112 42.966 226.85C42.966 227.594 42.687 228.176 42.129 228.596C41.589 229.01 40.857 229.241 39.933 229.289ZM39.303 228.713V224.987C38.553 225.023 37.965 225.203 37.539 225.527C37.113 225.845 36.9 226.286 36.9 226.85C36.9 227.414 37.113 227.858 37.539 228.182C37.965 228.5 38.553 228.677 39.303 228.713ZM39.933 224.987V228.713C40.683 228.677 41.271 228.5 41.697 228.182C42.123 227.858 42.336 227.414 42.336 226.85C42.336 226.286 42.123 225.845 41.697 225.527C41.271 225.203 40.683 225.023 39.933 224.987ZM45.9424 225.392C46.6144 225.392 47.1514 225.629 47.5534 226.103C47.9674 226.571 48.1744 227.126 48.1744 227.768C48.1744 227.798 48.1684 227.891 48.1564 228.047H44.2054C44.2654 228.497 44.4574 228.857 44.7814 229.127C45.1054 229.397 45.5104 229.532 45.9964 229.532C46.6804 229.532 47.1634 229.277 47.4454 228.767L47.9674 229.073C47.7694 229.397 47.4964 229.652 47.1484 229.838C46.8064 230.018 46.4194 230.108 45.9874 230.108C45.2794 230.108 44.7034 229.886 44.2594 229.442C43.8154 228.998 43.5934 228.434 43.5934 227.75C43.5934 227.072 43.8124 226.511 44.2504 226.067C44.6884 225.617 45.2524 225.392 45.9424 225.392ZM45.9424 225.968C45.4744 225.968 45.0814 226.106 44.7634 226.382C44.4514 226.658 44.2654 227.021 44.2054 227.471H47.5624C47.4964 226.991 47.3134 226.622 47.0134 226.364C46.7014 226.1 46.3444 225.968 45.9424 225.968ZM51.9813 227.687C52.4733 227.867 52.7193 228.218 52.7193 228.74C52.7193 229.112 52.5933 229.415 52.3413 229.649C52.0953 229.883 51.7503 230 51.3063 230H49.1193V225.5H51.1263C51.5583 225.5 51.8943 225.611 52.1343 225.833C52.3803 226.055 52.5033 226.346 52.5033 226.706C52.5033 227.156 52.3293 227.483 51.9813 227.687ZM51.1263 226.076H49.7133V227.444H51.1263C51.6483 227.444 51.9093 227.21 51.9093 226.742C51.9093 226.532 51.8403 226.37 51.7023 226.256C51.5703 226.136 51.3783 226.076 51.1263 226.076ZM49.7133 229.424H51.3063C51.5703 229.424 51.7713 229.361 51.9093 229.235C52.0533 229.109 52.1253 228.932 52.1253 228.704C52.1253 228.488 52.0533 228.32 51.9093 228.2C51.7713 228.08 51.5703 228.02 51.3063 228.02H49.7133V229.424ZM59.6043 230H55.5993V229.433L57.8673 227.147C58.5153 226.499 58.8393 225.944 58.8393 225.482C58.8393 225.092 58.7163 224.783 58.4703 224.555C58.2303 224.321 57.9303 224.204 57.5703 224.204C56.9283 224.204 56.4573 224.501 56.1573 225.095L55.6263 224.78C55.8183 224.396 56.0853 224.102 56.4273 223.898C56.7693 223.694 57.1503 223.592 57.5703 223.592C58.0743 223.592 58.5153 223.763 58.8933 224.105C59.2773 224.435 59.4693 224.894 59.4693 225.482C59.4693 225.83 59.3733 226.172 59.1813 226.508C58.9893 226.838 58.6953 227.201 58.2993 227.597L56.4993 229.388H59.6043V230ZM64.4699 229.226C64.0559 229.814 63.4709 230.108 62.7149 230.108C61.9649 230.108 61.3769 229.814 60.9509 229.226C60.5369 228.632 60.3299 227.84 60.3299 226.85C60.3299 225.854 60.5369 225.065 60.9509 224.483C61.3769 223.889 61.9649 223.592 62.7149 223.592C63.4709 223.592 64.0559 223.889 64.4699 224.483C64.8899 225.065 65.0999 225.854 65.0999 226.85C65.0999 227.846 64.8899 228.638 64.4699 229.226ZM61.4189 228.803C61.7369 229.265 62.1689 229.496 62.7149 229.496C63.2669 229.496 63.6959 229.265 64.0019 228.803C64.3139 228.347 64.4699 227.696 64.4699 226.85C64.4699 226.004 64.3139 225.353 64.0019 224.897C63.6959 224.435 63.2669 224.204 62.7149 224.204C62.1689 224.204 61.7369 224.435 61.4189 224.897C61.1129 225.359 60.9599 226.01 60.9599 226.85C60.9599 227.69 61.1129 228.341 61.4189 228.803Z" fill="#E3E3E3"/>
<path d="M92.58 230H91.914L91.329 228.452H88.341L87.756 230H87.09L89.511 223.7H90.159L92.58 230ZM89.835 224.483L88.566 227.858H91.104L89.835 224.483ZM93.2989 225.5H97.0789V230H96.4849V226.076H93.8929V230H93.2989V225.5ZM100.747 225.392C101.389 225.392 101.935 225.62 102.385 226.076C102.841 226.532 103.069 227.09 103.069 227.75C103.069 228.41 102.841 228.968 102.385 229.424C101.935 229.88 101.389 230.108 100.747 230.108C99.9491 230.108 99.3431 229.778 98.9291 229.118V231.8H98.3351V225.5H98.9291V226.382C99.3431 225.722 99.9491 225.392 100.747 225.392ZM99.4421 229.019C99.7841 229.361 100.204 229.532 100.702 229.532C101.2 229.532 101.62 229.361 101.962 229.019C102.304 228.665 102.475 228.242 102.475 227.75C102.475 227.252 102.304 226.832 101.962 226.49C101.62 226.142 101.2 225.968 100.702 225.968C100.204 225.968 99.7841 226.142 99.4421 226.49C99.1001 226.832 98.9291 227.252 98.9291 227.75C98.9291 228.242 99.1001 228.665 99.4421 229.019ZM110.042 230H106.037V229.433L108.305 227.147C108.953 226.499 109.277 225.944 109.277 225.482C109.277 225.092 109.154 224.783 108.908 224.555C108.668 224.321 108.368 224.204 108.008 224.204C107.366 224.204 106.895 224.501 106.595 225.095L106.064 224.78C106.256 224.396 106.523 224.102 106.865 223.898C107.207 223.694 107.588 223.592 108.008 223.592C108.512 223.592 108.953 223.763 109.331 224.105C109.715 224.435 109.907 224.894 109.907 225.482C109.907 225.83 109.811 226.172 109.619 226.508C109.427 226.838 109.133 227.201 108.737 227.597L106.937 229.388H110.042V230ZM114.907 229.226C114.493 229.814 113.908 230.108 113.152 230.108C112.402 230.108 111.814 229.814 111.388 229.226C110.974 228.632 110.767 227.84 110.767 226.85C110.767 225.854 110.974 225.065 111.388 224.483C111.814 223.889 112.402 223.592 113.152 223.592C113.908 223.592 114.493 223.889 114.907 224.483C115.327 225.065 115.537 225.854 115.537 226.85C115.537 227.846 115.327 228.638 114.907 229.226ZM111.856 228.803C112.174 229.265 112.606 229.496 113.152 229.496C113.704 229.496 114.133 229.265 114.439 228.803C114.751 228.347 114.907 227.696 114.907 226.85C114.907 226.004 114.751 225.353 114.439 224.897C114.133 224.435 113.704 224.204 113.152 224.204C112.606 224.204 112.174 224.435 111.856 224.897C111.55 225.359 111.397 226.01 111.397 226.85C111.397 227.69 111.55 228.341 111.856 228.803Z" fill="#E3E3E3"/>
<path d="M143.4 230H142.77V224.87L139.26 230H138.72V223.7H139.35V228.83L142.86 223.7H143.4V230ZM148.59 225.392C149.25 225.392 149.808 225.62 150.264 226.076C150.726 226.526 150.957 227.084 150.957 227.75C150.957 228.41 150.726 228.971 150.264 229.433C149.802 229.883 149.244 230.108 148.59 230.108C147.99 230.108 147.468 229.913 147.024 229.523C146.586 229.121 146.337 228.626 146.277 228.038H145.341V230H144.747V225.5H145.341V227.462H146.277C146.343 226.868 146.592 226.376 147.024 225.986C147.462 225.59 147.984 225.392 148.59 225.392ZM147.33 229.019C147.672 229.361 148.092 229.532 148.59 229.532C149.088 229.532 149.508 229.361 149.85 229.019C150.192 228.665 150.363 228.242 150.363 227.75C150.363 227.252 150.192 226.832 149.85 226.49C149.508 226.142 149.088 225.968 148.59 225.968C148.092 225.968 147.672 226.142 147.33 226.49C146.988 226.832 146.817 227.252 146.817 227.75C146.817 228.242 146.988 228.665 147.33 229.019ZM155.131 227.462V225.5H155.725V230H155.131V228.038H152.539V230H151.945V225.5H152.539V227.462H155.131ZM162.967 230H158.962V229.433L161.23 227.147C161.878 226.499 162.202 225.944 162.202 225.482C162.202 225.092 162.079 224.783 161.833 224.555C161.593 224.321 161.293 224.204 160.933 224.204C160.291 224.204 159.82 224.501 159.52 225.095L158.989 224.78C159.181 224.396 159.448 224.102 159.79 223.898C160.132 223.694 160.513 223.592 160.933 223.592C161.437 223.592 161.878 223.763 162.256 224.105C162.64 224.435 162.832 224.894 162.832 225.482C162.832 225.83 162.736 226.172 162.544 226.508C162.352 226.838 162.058 227.201 161.662 227.597L159.862 229.388H162.967V230ZM167.832 229.226C167.418 229.814 166.833 230.108 166.077 230.108C165.327 230.108 164.739 229.814 164.313 229.226C163.899 228.632 163.692 227.84 163.692 226.85C163.692 225.854 163.899 225.065 164.313 224.483C164.739 223.889 165.327 223.592 166.077 223.592C166.833 223.592 167.418 223.889 167.832 224.483C168.252 225.065 168.462 225.854 168.462 226.85C168.462 227.846 168.252 228.638 167.832 229.226ZM164.781 228.803C165.099 229.265 165.531 229.496 166.077 229.496C166.629 229.496 167.058 229.265 167.364 228.803C167.676 228.347 167.832 227.696 167.832 226.85C167.832 226.004 167.676 225.353 167.364 224.897C167.058 224.435 166.629 224.204 166.077 224.204C165.531 224.204 165.099 224.435 164.781 224.897C164.475 225.359 164.322 226.01 164.322 226.85C164.322 227.69 164.475 228.341 164.781 228.803Z" fill="#E3E3E3"/>
<path d="M194.58 230H193.914L193.329 228.452H190.341L189.756 230H189.09L191.511 223.7H192.159L194.58 230ZM191.835 224.483L190.566 227.858H193.104L191.835 224.483ZM198.161 227.687C198.653 227.867 198.899 228.218 198.899 228.74C198.899 229.112 198.773 229.415 198.521 229.649C198.275 229.883 197.93 230 197.486 230H195.299V225.5H197.306C197.738 225.5 198.074 225.611 198.314 225.833C198.56 226.055 198.683 226.346 198.683 226.706C198.683 227.156 198.509 227.483 198.161 227.687ZM197.306 226.076H195.893V227.444H197.306C197.828 227.444 198.089 227.21 198.089 226.742C198.089 226.532 198.02 226.37 197.882 226.256C197.75 226.136 197.558 226.076 197.306 226.076ZM195.893 229.424H197.486C197.75 229.424 197.951 229.361 198.089 229.235C198.233 229.109 198.305 228.932 198.305 228.704C198.305 228.488 198.233 228.32 198.089 228.2C197.951 228.08 197.75 228.02 197.486 228.02H195.893V229.424ZM199.799 225.5H202.679V226.076H200.393V230H199.799V225.5ZM209.387 230H205.382V229.433L207.65 227.147C208.298 226.499 208.622 225.944 208.622 225.482C208.622 225.092 208.499 224.783 208.253 224.555C208.013 224.321 207.713 224.204 207.353 224.204C206.711 224.204 206.24 224.501 205.94 225.095L205.409 224.78C205.601 224.396 205.868 224.102 206.21 223.898C206.552 223.694 206.933 223.592 207.353 223.592C207.857 223.592 208.298 223.763 208.676 224.105C209.06 224.435 209.252 224.894 209.252 225.482C209.252 225.83 209.156 226.172 208.964 226.508C208.772 226.838 208.478 227.201 208.082 227.597L206.282 229.388H209.387V230ZM214.253 229.226C213.839 229.814 213.254 230.108 212.498 230.108C211.748 230.108 211.16 229.814 210.734 229.226C210.32 228.632 210.113 227.84 210.113 226.85C210.113 225.854 210.32 225.065 210.734 224.483C211.16 223.889 211.748 223.592 212.498 223.592C213.254 223.592 213.839 223.889 214.253 224.483C214.673 225.065 214.883 225.854 214.883 226.85C214.883 227.846 214.673 228.638 214.253 229.226ZM211.202 228.803C211.52 229.265 211.952 229.496 212.498 229.496C213.05 229.496 213.479 229.265 213.785 228.803C214.097 228.347 214.253 227.696 214.253 226.85C214.253 226.004 214.097 225.353 213.785 224.897C213.479 224.435 213.05 224.204 212.498 224.204C211.952 224.204 211.52 224.435 211.202 224.897C210.896 225.359 210.743 226.01 210.743 226.85C210.743 227.69 210.896 228.341 211.202 228.803Z" fill="#E3E3E3"/>
<path d="M245.931 229.163C245.301 229.793 244.53 230.108 243.618 230.108C242.706 230.108 241.935 229.793 241.305 229.163C240.675 228.521 240.36 227.75 240.36 226.85C240.36 225.944 240.675 225.176 241.305 224.546C241.935 223.91 242.706 223.592 243.618 223.592C244.53 223.592 245.301 223.91 245.931 224.546C246.561 225.176 246.876 225.944 246.876 226.85C246.876 227.75 246.561 228.521 245.931 229.163ZM240.99 226.85C240.99 227.594 241.242 228.221 241.746 228.731C242.25 229.241 242.874 229.496 243.618 229.496C244.362 229.496 244.986 229.241 245.49 228.731C245.994 228.221 246.246 227.594 246.246 226.85C246.246 226.112 245.994 225.488 245.49 224.978C244.986 224.462 244.362 224.204 243.618 224.204C242.874 224.204 242.25 224.462 241.746 224.978C241.242 225.488 240.99 226.112 240.99 226.85ZM249.087 227.66L251.499 230H250.707L248.457 227.831V230H247.863V225.5H248.457V227.489L250.599 225.5H251.409L249.087 227.66ZM251.771 225.5H255.551V226.076H253.958V230H253.364V226.076H251.771V225.5ZM262.26 230H258.255V229.433L260.523 227.147C261.171 226.499 261.495 225.944 261.495 225.482C261.495 225.092 261.372 224.783 261.126 224.555C260.886 224.321 260.586 224.204 260.226 224.204C259.584 224.204 259.113 224.501 258.813 225.095L258.282 224.78C258.474 224.396 258.741 224.102 259.083 223.898C259.425 223.694 259.806 223.592 260.226 223.592C260.73 223.592 261.171 223.763 261.549 224.105C261.933 224.435 262.125 224.894 262.125 225.482C262.125 225.83 262.029 226.172 261.837 226.508C261.645 226.838 261.351 227.201 260.955 227.597L259.155 229.388H262.26V230ZM267.125 229.226C266.711 229.814 266.126 230.108 265.37 230.108C264.62 230.108 264.032 229.814 263.606 229.226C263.192 228.632 262.985 227.84 262.985 226.85C262.985 225.854 263.192 225.065 263.606 224.483C264.032 223.889 264.62 223.592 265.37 223.592C266.126 223.592 266.711 223.889 267.125 224.483C267.545 225.065 267.755 225.854 267.755 226.85C267.755 227.846 267.545 228.638 267.125 229.226ZM264.074 228.803C264.392 229.265 264.824 229.496 265.37 229.496C265.922 229.496 266.351 229.265 266.657 228.803C266.969 228.347 267.125 227.696 267.125 226.85C267.125 226.004 266.969 225.353 266.657 224.897C266.351 224.435 265.922 224.204 265.37 224.204C264.824 224.204 264.392 224.435 264.074 224.897C263.768 225.359 263.615 226.01 263.615 226.85C263.615 227.69 263.768 228.341 264.074 228.803Z" fill="#E3E3E3"/>
<path d="M296.22 223.7V229.406H296.895V231.206H296.265V230H291.765V231.206H291.135V229.406H291.648C292.062 228.92 292.269 228.17 292.269 227.156V223.7H296.22ZM292.395 229.406H295.59V224.294H292.899V227.174C292.899 228.164 292.731 228.908 292.395 229.406ZM299.747 225.392C300.419 225.392 300.956 225.629 301.358 226.103C301.772 226.571 301.979 227.126 301.979 227.768C301.979 227.798 301.973 227.891 301.961 228.047H298.01C298.07 228.497 298.262 228.857 298.586 229.127C298.91 229.397 299.315 229.532 299.801 229.532C300.485 229.532 300.968 229.277 301.25 228.767L301.772 229.073C301.574 229.397 301.301 229.652 300.953 229.838C300.611 230.018 300.224 230.108 299.792 230.108C299.084 230.108 298.508 229.886 298.064 229.442C297.62 228.998 297.398 228.434 297.398 227.75C297.398 227.072 297.617 226.511 298.055 226.067C298.493 225.617 299.057 225.392 299.747 225.392ZM299.747 225.968C299.279 225.968 298.886 226.106 298.568 226.382C298.256 226.658 298.07 227.021 298.01 227.471H301.367C301.301 226.991 301.118 226.622 300.818 226.364C300.506 226.1 300.149 225.968 299.747 225.968ZM304.148 227.66L306.56 230H305.768L303.518 227.831V230H302.924V225.5H303.518V227.489L305.66 225.5H306.47L304.148 227.66ZM313.356 230H309.351V229.433L311.619 227.147C312.267 226.499 312.591 225.944 312.591 225.482C312.591 225.092 312.468 224.783 312.222 224.555C311.982 224.321 311.682 224.204 311.322 224.204C310.68 224.204 310.209 224.501 309.909 225.095L309.378 224.78C309.57 224.396 309.837 224.102 310.179 223.898C310.521 223.694 310.902 223.592 311.322 223.592C311.826 223.592 312.267 223.763 312.645 224.105C313.029 224.435 313.221 224.894 313.221 225.482C313.221 225.83 313.125 226.172 312.933 226.508C312.741 226.838 312.447 227.201 312.051 227.597L310.251 229.388H313.356V230ZM318.222 229.226C317.808 229.814 317.223 230.108 316.467 230.108C315.717 230.108 315.129 229.814 314.703 229.226C314.289 228.632 314.082 227.84 314.082 226.85C314.082 225.854 314.289 225.065 314.703 224.483C315.129 223.889 315.717 223.592 316.467 223.592C317.223 223.592 317.808 223.889 318.222 224.483C318.642 225.065 318.852 225.854 318.852 226.85C318.852 227.846 318.642 228.638 318.222 229.226ZM315.171 228.803C315.489 229.265 315.921 229.496 316.467 229.496C317.019 229.496 317.448 229.265 317.754 228.803C318.066 228.347 318.222 227.696 318.222 226.85C318.222 226.004 318.066 225.353 317.754 224.897C317.448 224.435 317.019 224.204 316.467 224.204C315.921 224.204 315.489 224.435 315.171 224.897C314.865 225.359 314.712 226.01 314.712 226.85C314.712 227.69 314.865 228.341 315.171 228.803Z" fill="#E3E3E3"/>
<path d="M345.933 229.289V230H345.303V229.289C344.385 229.241 343.65 229.01 343.098 228.596C342.546 228.17 342.27 227.588 342.27 226.85C342.27 226.112 342.546 225.53 343.098 225.104C343.65 224.69 344.385 224.459 345.303 224.411V223.7H345.933V224.411C346.857 224.459 347.589 224.69 348.129 225.104C348.687 225.53 348.966 226.112 348.966 226.85C348.966 227.594 348.687 228.176 348.129 228.596C347.589 229.01 346.857 229.241 345.933 229.289ZM345.303 228.713V224.987C344.553 225.023 343.965 225.203 343.539 225.527C343.113 225.845 342.9 226.286 342.9 226.85C342.9 227.414 343.113 227.858 343.539 228.182C343.965 228.5 344.553 228.677 345.303 228.713ZM345.933 224.987V228.713C346.683 228.677 347.271 228.5 347.697 228.182C348.123 227.858 348.336 227.414 348.336 226.85C348.336 226.286 348.123 225.845 347.697 225.527C347.271 225.203 346.683 225.023 345.933 224.987ZM351.942 225.392C352.614 225.392 353.151 225.629 353.553 226.103C353.967 226.571 354.174 227.126 354.174 227.768C354.174 227.798 354.168 227.891 354.156 228.047H350.205C350.265 228.497 350.457 228.857 350.781 229.127C351.105 229.397 351.51 229.532 351.996 229.532C352.68 229.532 353.163 229.277 353.445 228.767L353.967 229.073C353.769 229.397 353.496 229.652 353.148 229.838C352.806 230.018 352.419 230.108 351.987 230.108C351.279 230.108 350.703 229.886 350.259 229.442C349.815 228.998 349.593 228.434 349.593 227.75C349.593 227.072 349.812 226.511 350.25 226.067C350.688 225.617 351.252 225.392 351.942 225.392ZM351.942 225.968C351.474 225.968 351.081 226.106 350.763 226.382C350.451 226.658 350.265 227.021 350.205 227.471H353.562C353.496 226.991 353.313 226.622 353.013 226.364C352.701 226.1 352.344 225.968 351.942 225.968ZM357.981 227.687C358.473 227.867 358.719 228.218 358.719 228.74C358.719 229.112 358.593 229.415 358.341 229.649C358.095 229.883 357.75 230 357.306 230H355.119V225.5H357.126C357.558 225.5 357.894 225.611 358.134 225.833C358.38 226.055 358.503 226.346 358.503 226.706C358.503 227.156 358.329 227.483 357.981 227.687ZM357.126 226.076H355.713V227.444H357.126C357.648 227.444 357.909 227.21 357.909 226.742C357.909 226.532 357.84 226.37 357.702 226.256C357.57 226.136 357.378 226.076 357.126 226.076ZM355.713 229.424H357.306C357.57 229.424 357.771 229.361 357.909 229.235C358.053 229.109 358.125 228.932 358.125 228.704C358.125 228.488 358.053 228.32 357.909 228.2C357.771 228.08 357.57 228.02 357.306 228.02H355.713V229.424ZM365.604 230H361.599V229.433L363.867 227.147C364.515 226.499 364.839 225.944 364.839 225.482C364.839 225.092 364.716 224.783 364.47 224.555C364.23 224.321 363.93 224.204 363.57 224.204C362.928 224.204 362.457 224.501 362.157 225.095L361.626 224.78C361.818 224.396 362.085 224.102 362.427 223.898C362.769 223.694 363.15 223.592 363.57 223.592C364.074 223.592 364.515 223.763 364.893 224.105C365.277 224.435 365.469 224.894 365.469 225.482C365.469 225.83 365.373 226.172 365.181 226.508C364.989 226.838 364.695 227.201 364.299 227.597L362.499 229.388H365.604V230ZM366.103 224.276L367.768 223.7H368.308V230H367.678V224.393L366.265 224.816L366.103 224.276Z" fill="#E3E3E3"/>
<path d="M398.58 230H397.914L397.329 228.452H394.341L393.756 230H393.09L395.511 223.7H396.159L398.58 230ZM395.835 224.483L394.566 227.858H397.104L395.835 224.483ZM399.299 225.5H403.079V230H402.485V226.076H399.893V230H399.299V225.5ZM406.747 225.392C407.389 225.392 407.935 225.62 408.385 226.076C408.841 226.532 409.069 227.09 409.069 227.75C409.069 228.41 408.841 228.968 408.385 229.424C407.935 229.88 407.389 230.108 406.747 230.108C405.949 230.108 405.343 229.778 404.929 229.118V231.8H404.335V225.5H404.929V226.382C405.343 225.722 405.949 225.392 406.747 225.392ZM405.442 229.019C405.784 229.361 406.204 229.532 406.702 229.532C407.2 229.532 407.62 229.361 407.962 229.019C408.304 228.665 408.475 228.242 408.475 227.75C408.475 227.252 408.304 226.832 407.962 226.49C407.62 226.142 407.2 225.968 406.702 225.968C406.204 225.968 405.784 226.142 405.442 226.49C405.1 226.832 404.929 227.252 404.929 227.75C404.929 228.242 405.1 228.665 405.442 229.019ZM416.042 230H412.037V229.433L414.305 227.147C414.953 226.499 415.277 225.944 415.277 225.482C415.277 225.092 415.154 224.783 414.908 224.555C414.668 224.321 414.368 224.204 414.008 224.204C413.366 224.204 412.895 224.501 412.595 225.095L412.064 224.78C412.256 224.396 412.523 224.102 412.865 223.898C413.207 223.694 413.588 223.592 414.008 223.592C414.512 223.592 414.953 223.763 415.331 224.105C415.715 224.435 415.907 224.894 415.907 225.482C415.907 225.83 415.811 226.172 415.619 226.508C415.427 226.838 415.133 227.201 414.737 227.597L412.937 229.388H416.042V230ZM416.54 224.276L418.205 223.7H418.745V230H418.115V224.393L416.702 224.816L416.54 224.276Z" fill="#E3E3E3"/>
<path d="M449.4 230H448.77V224.87L445.26 230H444.72V223.7H445.35V228.83L448.86 223.7H449.4V230ZM454.59 225.392C455.25 225.392 455.808 225.62 456.264 226.076C456.726 226.526 456.957 227.084 456.957 227.75C456.957 228.41 456.726 228.971 456.264 229.433C455.802 229.883 455.244 230.108 454.59 230.108C453.99 230.108 453.468 229.913 453.024 229.523C452.586 229.121 452.337 228.626 452.277 228.038H451.341V230H450.747V225.5H451.341V227.462H452.277C452.343 226.868 452.592 226.376 453.024 225.986C453.462 225.59 453.984 225.392 454.59 225.392ZM453.33 229.019C453.672 229.361 454.092 229.532 454.59 229.532C455.088 229.532 455.508 229.361 455.85 229.019C456.192 228.665 456.363 228.242 456.363 227.75C456.363 227.252 456.192 226.832 455.85 226.49C455.508 226.142 455.088 225.968 454.59 225.968C454.092 225.968 453.672 226.142 453.33 226.49C452.988 226.832 452.817 227.252 452.817 227.75C452.817 228.242 452.988 228.665 453.33 229.019ZM461.131 227.462V225.5H461.725V230H461.131V228.038H458.539V230H457.945V225.5H458.539V227.462H461.131ZM468.967 230H464.962V229.433L467.23 227.147C467.878 226.499 468.202 225.944 468.202 225.482C468.202 225.092 468.079 224.783 467.833 224.555C467.593 224.321 467.293 224.204 466.933 224.204C466.291 224.204 465.82 224.501 465.52 225.095L464.989 224.78C465.181 224.396 465.448 224.102 465.79 223.898C466.132 223.694 466.513 223.592 466.933 223.592C467.437 223.592 467.878 223.763 468.256 224.105C468.64 224.435 468.832 224.894 468.832 225.482C468.832 225.83 468.736 226.172 468.544 226.508C468.352 226.838 468.058 227.201 467.662 227.597L465.862 229.388H468.967V230ZM469.465 224.276L471.13 223.7H471.67V230H471.04V224.393L469.627 224.816L469.465 224.276Z" fill="#E3E3E3"/>
<path d="M500.58 230H499.914L499.329 228.452H496.341L495.756 230H495.09L497.511 223.7H498.159L500.58 230ZM497.835 224.483L496.566 227.858H499.104L497.835 224.483ZM504.161 227.687C504.653 227.867 504.899 228.218 504.899 228.74C504.899 229.112 504.773 229.415 504.521 229.649C504.275 229.883 503.93 230 503.486 230H501.299V225.5H503.306C503.738 225.5 504.074 225.611 504.314 225.833C504.56 226.055 504.683 226.346 504.683 226.706C504.683 227.156 504.509 227.483 504.161 227.687ZM503.306 226.076H501.893V227.444H503.306C503.828 227.444 504.089 227.21 504.089 226.742C504.089 226.532 504.02 226.37 503.882 226.256C503.75 226.136 503.558 226.076 503.306 226.076ZM501.893 229.424H503.486C503.75 229.424 503.951 229.361 504.089 229.235C504.233 229.109 504.305 228.932 504.305 228.704C504.305 228.488 504.233 228.32 504.089 228.2C503.951 228.08 503.75 228.02 503.486 228.02H501.893V229.424ZM505.799 225.5H508.679V226.076H506.393V230H505.799V225.5ZM515.387 230H511.382V229.433L513.65 227.147C514.298 226.499 514.622 225.944 514.622 225.482C514.622 225.092 514.499 224.783 514.253 224.555C514.013 224.321 513.713 224.204 513.353 224.204C512.711 224.204 512.24 224.501 511.94 225.095L511.409 224.78C511.601 224.396 511.868 224.102 512.21 223.898C512.552 223.694 512.933 223.592 513.353 223.592C513.857 223.592 514.298 223.763 514.676 224.105C515.06 224.435 515.252 224.894 515.252 225.482C515.252 225.83 515.156 226.172 514.964 226.508C514.772 226.838 514.478 227.201 514.082 227.597L512.282 229.388H515.387V230ZM515.886 224.276L517.551 223.7H518.091V230H517.461V224.393L516.048 224.816L515.886 224.276Z" fill="#E3E3E3"/>
<path d="M539.931 229.163C539.301 229.793 538.53 230.108 537.618 230.108C536.706 230.108 535.935 229.793 535.305 229.163C534.675 228.521 534.36 227.75 534.36 226.85C534.36 225.944 534.675 225.176 535.305 224.546C535.935 223.91 536.706 223.592 537.618 223.592C538.53 223.592 539.301 223.91 539.931 224.546C540.561 225.176 540.876 225.944 540.876 226.85C540.876 227.75 540.561 228.521 539.931 229.163ZM534.99 226.85C534.99 227.594 535.242 228.221 535.746 228.731C536.25 229.241 536.874 229.496 537.618 229.496C538.362 229.496 538.986 229.241 539.49 228.731C539.994 228.221 540.246 227.594 540.246 226.85C540.246 226.112 539.994 225.488 539.49 224.978C538.986 224.462 538.362 224.204 537.618 224.204C536.874 224.204 536.25 224.462 535.746 224.978C535.242 225.488 534.99 226.112 534.99 226.85ZM543.087 227.66L545.499 230H544.707L542.457 227.831V230H541.863V225.5H542.457V227.489L544.599 225.5H545.409L543.087 227.66ZM545.771 225.5H549.551V226.076H547.958V230H547.364V226.076H545.771V225.5ZM556.26 230H552.255V229.433L554.523 227.147C555.171 226.499 555.495 225.944 555.495 225.482C555.495 225.092 555.372 224.783 555.126 224.555C554.886 224.321 554.586 224.204 554.226 224.204C553.584 224.204 553.113 224.501 552.813 225.095L552.282 224.78C552.474 224.396 552.741 224.102 553.083 223.898C553.425 223.694 553.806 223.592 554.226 223.592C554.73 223.592 555.171 223.763 555.549 224.105C555.933 224.435 556.125 224.894 556.125 225.482C556.125 225.83 556.029 226.172 555.837 226.508C555.645 226.838 555.351 227.201 554.955 227.597L553.155 229.388H556.26V230ZM556.758 224.276L558.423 223.7H558.963V230H558.333V224.393L556.92 224.816L556.758 224.276Z" fill="#E3E3E3"/>
<path d="M59.5 196C55.5 202 42.1667 202.5 36 202V214.5H546.5V7C536 9.33333 513.7 15.9 508.5 23.5C502 33 496.5 38 492 41C459.5 61 445 22 397.5 73.5C350 125 313 95.5 281.5 69.5C250 43.5 241 58 224 75C207 92 185.5 91 177.5 91C126.5 91 123.5 123.5 123.5 136.5C123.5 149.5 118.5 159 112 169C105.5 179 93.5 184.5 88 185C82.5 185.5 64.5 188.5 59.5 196Z" fill="url(#paint0_linear_186_781)"/>
<path d="M59.5 196C55.5 202 42.1667 202.5 36 202V214.5H546.5V7C536 9.33333 513.7 15.9 508.5 23.5C502 33 496.5 38 492 41C459.5 61 445 22 397.5 73.5C350 125 313 95.5 281.5 69.5C250 43.5 241 58 224 75C207 92 185.5 91 177.5 91C126.5 91 123.5 123.5 123.5 136.5C123.5 149.5 118.5 159 112 169C105.5 179 93.5 184.5 88 185C82.5 185.5 64.5 188.5 59.5 196Z" stroke="#FFB11B"/>
<defs>
<linearGradient id="paint0_linear_186_781" x1="291.25" y1="34.9718" x2="291.25" y2="214.5" gradientUnits="userSpaceOnUse">
<stop stop-color="#FFC700" stop-opacity="0.5"/>
<stop offset="1" stop-color="#FFC700" stop-opacity="0.2"/>
</linearGradient>
</defs>
</svg>
