<svg width="56" height="54" viewBox="0 0 56 54" fill="none" xmlns="http://www.w3.org/2000/svg">
<path fill-rule="evenodd" clip-rule="evenodd" d="M24.4387 0.137517C19.8797 0.761003 16.0891 2.14384 12.3747 4.53886C9.1475 6.61971 6.77475 8.92514 4.53817 12.153C2.88212 14.5431 1.54371 17.44 0.80202 20.2402C0.109263 22.8555 0 23.7784 0 27.0162C0 30.254 0.109263 31.177 0.80202 33.7923C1.81116 37.6018 3.8859 41.4565 6.59203 44.549C10.1391 48.6027 15.1816 51.7088 20.4916 53.111C23.3139 53.8563 24.4939 53.9971 27.943 53.9999C31.3663 54.0028 32.3008 53.9011 35.0306 53.2295C38.8001 52.302 42.647 50.4279 45.7472 48.0087C50.2769 44.474 53.7541 39.2435 55.198 33.7923C55.8907 31.177 56 30.254 56 27.0162C56 23.7784 55.8907 22.8555 55.198 20.2402C54.7046 18.3776 54.1717 17.0019 53.1982 15.0776C51.0311 10.7937 47.6774 7.12602 43.4557 4.42278C40.2265 2.355 36.6434 0.986017 32.6616 0.298665C30.8562 -0.0129685 26.2057 -0.104095 24.4387 0.137517ZM26.8595 7.59825V12.9131L25.9756 12.8714C24.171 12.7864 22.0837 12.5987 20.6436 12.3919C18.4222 12.073 18.3055 12.0487 18.3055 11.9064C18.3055 11.6806 18.8662 10.4167 19.5576 9.08364C21.3126 5.70031 23.5581 3.37531 25.8703 2.54704C26.2575 2.40832 26.6385 2.29235 26.7169 2.28916C26.829 2.28465 26.8595 3.41665 26.8595 7.59825ZM30.1329 2.56265C31.9828 3.23373 33.5447 4.5903 35.1391 6.91112C36.1291 8.35188 37.6945 11.4075 37.6945 11.899C37.6945 12.1415 33.9333 12.6689 31.3946 12.7824C30.6253 12.8166 29.8035 12.8682 29.5682 12.8967L29.1405 12.9487V7.61606C29.1405 4.21733 29.1809 2.28344 29.252 2.28344C29.3133 2.28344 29.7097 2.40909 30.1329 2.56265ZM20.3435 3.84985C18.8869 5.50607 17.3794 8.01871 16.4163 10.3953C15.9022 11.664 16.1259 11.5897 14.3707 11.0739C13.2063 10.7317 11.4847 10.1213 10.4991 9.70131L9.83365 9.41759L10.1633 9.07881C11.6381 7.56252 14.914 5.42363 17.3946 4.35737C18.1944 4.01364 20.6264 3.14151 21.0151 3.05917C21.0311 3.05566 20.7289 3.41159 20.3435 3.84985ZM37.1466 3.7695C40.099 4.83477 44.067 7.25946 45.8387 9.08068L46.1702 9.42155L45.6106 9.65624C44.4293 10.1518 42.9513 10.6813 41.8004 11.0215C39.8465 11.5989 40.1006 11.6707 39.5837 10.3953C38.6236 8.02596 37.1127 5.50552 35.668 3.86305L34.9787 3.07929L35.6461 3.27408C36.0132 3.38125 36.6886 3.60418 37.1466 3.7695ZM10.5244 12.1131C11.7656 12.5999 14.5241 13.4942 14.7935 13.4973C15.2175 13.5021 15.2369 13.6567 14.9457 14.7128C14.1175 17.717 13.4012 22.6177 13.4012 25.2794V25.917H7.80293H2.20453L2.28015 25.0651C2.71264 20.193 4.6204 15.468 7.67109 11.7139L8.18102 11.0865L8.74113 11.3599C9.04919 11.5104 9.85167 11.8494 10.5244 12.1131ZM48.9754 12.5666C51.6806 16.1922 53.2646 20.3811 53.7221 25.1201L53.7991 25.917H48.1989H42.5988V25.2734C42.5988 22.6536 41.8605 17.599 41.0563 14.7132C40.7617 13.6559 40.781 13.5021 41.2087 13.4973C41.7378 13.4914 46.1415 11.9256 47.332 11.3201L47.7882 11.0881L48.0518 11.385C48.1967 11.5482 48.6123 12.0801 48.9754 12.5666ZM19.5031 14.4815C20.8841 14.7095 23.5857 14.9827 25.5764 15.0957L26.8595 15.1686V20.5427V25.917H21.2709H15.6823L15.6833 25.5598C15.6879 23.906 16.1171 20.1466 16.5523 17.9475C16.8214 16.587 17.3597 14.4263 17.479 14.2265C17.5096 14.1751 17.6953 14.1649 17.8916 14.2038C18.0879 14.2426 18.813 14.3677 19.5031 14.4815ZM38.7401 14.9247C39.0779 16.0694 39.7199 19.2586 39.9128 20.7506C40.0742 21.9978 40.3118 24.8645 40.316 25.6147L40.3177 25.917H34.7291H29.1405V20.5438V15.1708L30.3666 15.0995C32.5612 14.9719 35.2109 14.6946 36.7251 14.4341C37.5405 14.2938 38.28 14.186 38.3686 14.1945C38.4637 14.2038 38.6154 14.5018 38.7401 14.9247ZM13.4012 28.753C13.4012 31.4148 14.1175 36.3154 14.9457 39.3197C15.2369 40.3758 15.2175 40.5303 14.7935 40.5352C14.2803 40.541 10.0377 42.0393 8.74113 42.6725L8.18102 42.946L7.67109 42.3186C4.59599 38.5344 2.76635 33.9866 2.27764 28.9124L2.20088 28.1155H7.80111H13.4012V28.753ZM26.8595 33.4897V38.8639L25.5764 38.9366C23.4994 39.0542 20.9747 39.3139 19.446 39.5673C17.3561 39.9137 17.5112 39.9462 17.2594 39.1078C16.5108 36.6149 15.6906 31.0808 15.6833 28.4727L15.6823 28.1155H21.2709H26.8595V33.4897ZM40.316 28.4178C40.307 30.0401 39.8905 33.8324 39.5042 35.8101C39.2242 37.2442 38.6148 39.6856 38.5107 39.7907C38.468 39.8337 37.7153 39.7507 36.8377 39.606C35.1539 39.3286 32.5627 39.0583 30.4236 38.9368L29.1405 38.8639V33.4897V28.1155H34.7291H40.3177L40.316 28.4178ZM53.7221 28.9124C53.2299 34.0106 51.4298 38.4834 48.3267 42.3186L47.819 42.946L47.2589 42.6725C45.9623 42.0393 41.7197 40.541 41.2065 40.5352C40.7812 40.5303 40.7621 40.3754 41.0563 39.3193C41.8605 36.4335 42.5988 31.3789 42.5988 28.7591V28.1155H48.1989H53.7991L53.7221 28.9124ZM26.8595 46.4177C26.8595 49.8156 26.8191 51.749 26.748 51.749C26.4828 51.749 25.0497 51.1611 24.527 50.8378C22.6996 49.7078 20.9516 47.6362 19.5576 44.9488C18.8702 43.6236 18.3055 42.3522 18.3055 42.1296C18.3055 41.8885 22.0829 41.3663 24.9824 41.2067C25.858 41.1585 26.6385 41.1117 26.7169 41.1027C26.8292 41.0899 26.8595 42.2173 26.8595 46.4177ZM31.3946 41.2501C33.9333 41.3636 37.6945 41.891 37.6945 42.1335C37.6945 42.6249 36.1291 45.6806 35.1391 47.1214C33.5447 49.4422 31.9828 50.7987 30.1329 51.4698C29.7097 51.6234 29.3133 51.749 29.252 51.749C29.1809 51.749 29.1405 49.8152 29.1405 46.4164V41.0838L29.5682 41.1358C29.8035 41.1643 30.6253 41.2158 31.3946 41.2501ZM16.4163 43.6329C17.3699 45.9952 18.8842 48.5234 20.3302 50.1673L21.0177 50.949L20.3174 50.7411C18.17 50.1039 15.8676 49.0532 13.9145 47.8188C12.5814 46.9764 10.8282 45.6373 10.1633 44.9537L9.83365 44.6149L10.4991 44.3312C11.8803 43.7424 15.4655 42.5448 15.9104 42.5235C15.9418 42.5219 16.1694 43.0212 16.4163 43.6329ZM41.4365 42.9014C42.4702 43.1873 43.844 43.649 44.6517 43.9819C44.8713 44.0724 45.3027 44.2509 45.6106 44.3787L46.1702 44.6109L45.8387 44.9518C45.171 45.6381 43.4194 46.9758 42.0855 47.8182C40.1236 49.0571 37.9665 50.048 35.793 50.7086L34.9751 50.9573L35.6663 50.1714C37.1149 48.5244 38.6272 46.0007 39.5837 43.6343C39.91 42.8268 40.0792 42.535 40.2037 42.5656C40.2978 42.5888 40.8525 42.7399 41.4365 42.9014Z" fill="#FFC700"/>
</svg>