<svg width="68" height="67" viewBox="0 0 68 67" fill="none" xmlns="http://www.w3.org/2000/svg">
<path fill-rule="evenodd" clip-rule="evenodd" d="M17.5384 0.155673C16.6588 0.467449 15.9496 1.14952 15.5675 2.0512C15.3994 2.44784 15.3656 3.5817 15.3656 8.80784V15.088L11.9046 15.1303L8.44358 15.1724L7.54249 15.6072C6.44278 16.1378 5.35501 17.2266 4.83812 18.3141L4.46858 19.0916L4.42691 23.0872L4.38538 27.0829L3.94717 27.3367C3.7062 27.4763 3.17794 27.898 2.77318 28.2738C-0.924392 31.7071 -0.924392 37.424 2.77318 40.8573C3.17794 41.2331 3.70689 41.655 3.94854 41.795L4.38785 42.0496L4.42828 47.1256L4.46858 52.2018L4.83812 52.9793C5.35501 54.0668 6.44278 55.1556 7.54249 55.6862L8.44358 56.1209L15.7425 56.1592L23.0414 56.1976V58.3392V60.4808L21.7735 60.5382C20.1439 60.612 19.0463 61.0929 17.9866 62.1975C16.9464 63.2821 16.5572 64.2036 16.4865 65.7499L16.4293 67H34.0069H51.5845L51.5284 65.7361C51.4803 64.653 51.4097 64.347 51.0346 63.5956C50.497 62.5189 49.3858 61.4457 48.2968 60.9514C47.6752 60.6693 47.2398 60.5816 46.2403 60.5372L44.9724 60.4808V58.3392V56.1976L52.2713 56.1592L59.5703 56.1209L60.3588 55.7566C61.4577 55.2489 62.561 54.1787 63.102 53.0956L63.5453 52.2084L63.5864 47.7115L63.6275 43.2147H65.8137H68V33.4844V23.754H65.8183H63.6364L63.5909 21.4193C63.5455 19.1008 63.5421 19.0782 63.102 18.1975C62.561 17.1147 61.4574 16.0444 60.3588 15.5368C59.5773 15.1757 59.5398 15.172 56.1093 15.1303L52.6483 15.088L52.6453 8.77851C52.642 1.7601 52.6577 1.89092 51.695 0.941668C50.699 -0.0402856 52.194 0.0395842 34.2125 0.00728483C21.156 -0.016095 17.942 0.0125555 17.5384 0.155673ZM50.1244 2.57785L50.4552 2.95706V9.63275C50.4552 14.2374 50.408 16.4106 50.303 16.6378C50.2193 16.8189 50.0005 17.0346 49.8169 17.1171C49.5892 17.2194 47.6672 17.2672 43.7788 17.2672H38.075L34.9786 19.2716C31.0908 21.7887 31.3098 21.6731 30.98 21.3789C30.7443 21.1686 30.7173 20.9448 30.7173 19.2058V17.2672H24.6241C20.4505 17.2672 18.4258 17.2199 18.197 17.1171C18.0133 17.0346 17.7946 16.8189 17.7108 16.6378C17.6059 16.4106 17.5587 14.2402 17.5587 9.64343C17.5587 3.16113 17.5662 2.96882 17.8355 2.63137C17.9878 2.44041 18.2499 2.25756 18.4181 2.22499C18.5861 2.19229 25.7145 2.1731 34.2587 2.18215L49.7937 2.19864L50.1244 2.57785ZM21.9246 4.475C20.0826 5.14707 19.2404 7.19152 20.0762 8.96136C20.4035 9.65438 21.0307 10.2823 21.663 10.5496C21.8558 10.6311 22.8375 10.7332 23.8448 10.7766C25.6332 10.8535 25.6837 10.8642 26.0036 11.2308C26.3699 11.6507 26.3997 11.8352 26.1789 12.3132C25.9533 12.8012 25.4949 12.9426 24.138 12.9426C22.7396 12.9426 22.3044 12.7963 22.0745 12.2493C21.9146 11.8686 21.8915 11.8614 20.8317 11.8614H19.7518L19.7531 12.2331C19.7566 13.1991 20.7186 14.4731 21.7726 14.9071C22.4443 15.1839 25.8316 15.1839 26.5034 14.9071C28.6442 14.0252 29.2101 11.207 27.5709 9.59086C26.7846 8.81567 26.4219 8.69999 24.6177 8.64972C22.7759 8.59823 22.3245 8.48079 22.0997 7.99427C21.8766 7.51154 21.9051 7.3272 22.2664 6.91312C22.5589 6.5777 22.6915 6.53932 23.7399 6.48621C25.2207 6.41107 25.7743 6.55351 26.1255 7.09989C26.394 7.51762 26.4215 7.52654 27.4619 7.53154L28.5242 7.53681L28.5211 7.16517C28.5143 6.31741 27.6545 5.10896 26.6935 4.59609C26.1152 4.28755 22.6778 4.20025 21.9246 4.475ZM32.8901 4.48135C32.0119 4.79069 31.3017 5.47344 30.9192 6.37579C30.7626 6.74541 30.7175 7.49843 30.7186 9.72857C30.7199 12.4616 30.7359 12.6386 31.0417 13.286C31.2187 13.6606 31.5648 14.1343 31.8108 14.3383C32.6206 15.0101 33.0463 15.1049 35.2573 15.1049H37.2966V14.0237V12.9426H35.5897C34.6306 12.9426 33.7363 12.8769 33.5487 12.7925C33.1195 12.5997 32.9104 12.1376 32.9104 11.3821V10.7803H35.1035H37.2966V9.69911V8.61796H35.1035H32.9104V7.94981C32.9104 7.43843 32.9879 7.1926 33.2411 6.90245C33.5687 6.52675 33.5889 6.52283 35.4342 6.4762L37.2966 6.42917V5.36127V4.29336L35.3433 4.29931C34.1003 4.30309 33.2084 4.36932 32.8901 4.48135ZM41.6625 4.475C40.7767 4.79826 40.0724 5.47763 39.6916 6.37579C39.535 6.74541 39.49 7.49843 39.491 9.72857C39.4923 12.4616 39.5083 12.6386 39.8141 13.286C40.1649 14.0286 40.7611 14.5985 41.5105 14.9071C42.1823 15.1839 45.5695 15.1839 46.2413 14.9071C46.9906 14.5985 47.5869 14.0286 47.9376 13.286C48.2441 12.6371 48.2593 12.4663 48.2577 9.69911C48.2559 6.46566 48.1838 6.12902 47.3088 5.26626C46.4877 4.45675 46.1881 4.36972 44.0815 4.32945C42.7272 4.3035 42.0153 4.34634 41.6625 4.475ZM45.7443 6.90947C46.059 7.27004 46.069 7.3545 46.069 9.63275C46.069 12.1407 45.9878 12.5421 45.4306 12.7925C44.9978 12.987 42.754 12.987 42.3211 12.7925C41.7643 12.5424 41.6828 12.1403 41.6828 9.64343C41.6828 7.49992 41.7061 7.27382 41.9597 6.95596C42.3077 6.51972 42.5451 6.4708 44.1337 6.50756C45.3496 6.53567 45.4374 6.55756 45.7443 6.90947ZM15.8819 17.9337C16.171 18.3922 16.5304 18.7293 17.0331 19.0136L17.7643 19.4269L23.1442 19.4282L28.5242 19.4294V20.557C28.5242 21.9258 28.8542 22.6618 29.7459 23.281C30.2636 23.6405 30.4413 23.6865 31.3153 23.6865H32.301L35.5642 21.558L38.8272 19.4294L44.5385 19.4282L50.2496 19.4269L50.9807 19.0136C51.4872 18.7271 51.8427 18.3924 52.1385 17.9233L52.5654 17.2463L55.7936 17.2908C58.8051 17.3323 59.0597 17.3551 59.5833 17.6311C60.9847 18.3698 61.4207 19.4117 61.4207 22.0218V23.754H57.0345H52.6483V28.6192V33.4844H49.3586H46.069V30.7815V28.0786H42.7793H39.4897V34.5655V41.0524H38.3931H37.2966V33.4844V25.9163H34.0069H30.7173V33.4844V41.0524H29.6207H28.5242V35.6467V30.2409H25.2345H21.9449V31.8627V33.4844H19.7475C18.1052 33.4844 17.5385 33.4417 17.5045 33.3155C17.4794 33.2226 17.388 32.8425 17.3011 32.4708C17.2142 32.0992 16.8947 31.294 16.5911 30.6815C15.4767 28.4338 13.271 26.6919 10.8165 26.1215C9.85731 25.8985 7.9075 25.8573 7.0966 26.0428L6.57204 26.1628L6.61686 22.8975C6.66566 19.3473 6.69664 19.1919 7.53399 18.3025C8.38724 17.3962 8.86506 17.298 12.501 17.2809L15.4616 17.2672L15.8819 17.9337ZM65.8069 33.4844V41.0524H60.3241H54.8414V33.4844V25.9163H60.3241H65.8069V33.4844ZM10.9574 28.503C13.193 29.2271 14.8566 31.2484 15.2519 33.7209C15.7195 36.645 13.7927 39.6937 10.8624 40.6665C7.50562 41.7807 3.73293 39.9355 2.60321 36.6266C1.31476 32.853 3.87124 28.7657 7.8953 28.1655C8.62835 28.0562 10.0674 28.2147 10.9574 28.503ZM35.1035 34.5655V41.0524H34.0069H32.9104V34.5655V28.0786H34.0069H35.1035V34.5655ZM57.0345 29.1598V30.2409H60.3241H63.6138V29.1598V28.0786H60.3241H57.0345V29.1598ZM7.14622 30.5385C6.12108 30.9265 5.08402 31.9625 4.69529 32.9869C3.60518 35.8595 5.70535 38.8901 8.78625 38.8901C11.205 38.8901 13.1725 36.9503 13.1725 34.5655C13.1725 31.5206 10.0551 29.4375 7.14622 30.5385ZM43.8759 35.6467V41.0524H42.7793H41.6828V35.6467V30.2409H42.7793H43.8759V35.6467ZM9.69735 32.6831C11.3241 33.4595 11.3041 35.681 9.66322 36.4642C8.94539 36.8069 8.34927 36.7661 7.62528 36.325C7.12827 36.0221 6.59315 35.1026 6.59315 34.5515C6.59315 33.8958 7.16856 33.0319 7.82156 32.7073C8.579 32.3307 8.94895 32.3259 9.69735 32.6831ZM26.3311 36.7278V41.0524H25.2345H24.138V36.7278V32.4032H25.2345H26.3311V36.7278ZM57.0345 33.4844V34.5655H60.3241H63.6138V33.4844V32.4032H60.3241H57.0345V33.4844ZM21.9449 38.3496V41.0524H20.8483H19.7518V42.1336V43.2147H34.0069H48.2621V42.1336V41.0524H47.1655H46.069V38.3496V35.6467H49.3586H52.6483V39.4307V43.2147H57.0345H61.4207V44.2959V45.377H34.0069H6.59315V44.1788V42.9808L7.17569 43.0919C8.10159 43.2684 9.8754 43.2284 10.8165 43.0096C13.271 42.4391 15.4767 40.6973 16.5911 38.4496C16.8947 37.8371 17.2142 37.0319 17.3011 36.6603C17.388 36.2886 17.4794 35.9086 17.5045 35.8156C17.5385 35.6894 18.1052 35.6467 19.7475 35.6467H21.9449V38.3496ZM57.0345 37.809V38.8901H60.3241H63.6138V37.809V36.7278H60.3241H57.0345V37.809ZM61.4207 49.2716C61.4207 51.4543 61.2085 52.2438 60.4108 53.0305C59.3227 54.1032 61.3637 54.0262 34.0069 54.0262C7.15253 54.0262 8.7757 54.078 7.74823 53.1886C6.83055 52.3941 6.68005 51.9161 6.61851 49.6003L6.56382 47.5393H33.9923H61.4207V49.2716ZM28.8607 50.0334C28.1807 50.7037 28.6625 51.8639 29.6207 51.8639C30.1842 51.8639 30.7173 51.3383 30.7173 50.7828C30.7173 50.2272 30.1842 49.7016 29.6207 49.7016C29.3537 49.7016 29.0727 49.8242 28.8607 50.0334ZM33.2469 50.0334C32.5669 50.7037 33.0487 51.8639 34.0069 51.8639C34.2739 51.8639 34.5549 51.7413 34.767 51.5321C34.9791 51.3231 35.1035 51.046 35.1035 50.7828C35.1035 50.5195 34.9791 50.2425 34.767 50.0334C34.5549 49.8242 34.2739 49.7016 34.0069 49.7016C33.7399 49.7016 33.4589 49.8242 33.2469 50.0334ZM37.6331 50.0334C37.4209 50.2425 37.2966 50.5195 37.2966 50.7828C37.2966 51.046 37.4209 51.3231 37.6331 51.5321C37.8451 51.7413 38.1261 51.8639 38.3931 51.8639C38.6601 51.8639 38.9411 51.7413 39.1532 51.5321C39.3654 51.3231 39.4897 51.046 39.4897 50.7828C39.4897 50.5195 39.3654 50.2425 39.1532 50.0334C38.9411 49.8242 38.6601 49.7016 38.3931 49.7016C38.1261 49.7016 37.8451 49.8242 37.6331 50.0334ZM42.7793 58.3508V60.5131H34.0069H25.2345V58.3508V56.1885H34.0069H42.7793V58.3508ZM47.5072 63.0808C48.1262 63.3865 49.0845 64.3781 49.0845 64.7131C49.0845 64.7884 43.1199 64.8377 34.0069 64.8377C24.8939 64.8377 18.9293 64.7884 18.9293 64.7131C18.9293 64.6444 19.1307 64.3281 19.3769 64.0099C19.8599 63.3856 20.4814 62.9672 21.1691 62.8034C21.4073 62.7468 27.2768 62.7099 34.2125 62.7216L46.8229 62.743L47.5072 63.0808Z" fill="#FFC700"/>
</svg>
