<svg width="67" height="66" viewBox="0 0 67 66" fill="none" xmlns="http://www.w3.org/2000/svg">
<path fill-rule="evenodd" clip-rule="evenodd" d="M42.0132 0.339654C41.7468 0.67312 41.7419 0.798154 41.7419 7.21845C41.7419 7.82215 41.7409 8.37572 41.7401 8.88328V8.88458V8.88579V8.8869V8.88793C41.7332 12.9056 41.7312 14.0384 42.2404 14.3434C42.4404 14.4631 42.7191 14.4553 43.1073 14.4443C43.2325 14.4408 43.3692 14.4369 43.5182 14.4369H44.7519V15.9765C44.7519 17.4052 44.774 17.5415 45.0584 17.8671C45.6307 18.5225 45.9008 18.4096 48.7431 16.3275L51.3236 14.4369H58.8772H66.4308L66.7155 14.1386L67 13.8402V7.2004V0.56059L66.6972 0.280231L66.3942 0H54.3393H42.2843L42.0132 0.339654ZM65.0369 7.21845V12.5034H57.7958H50.5547L48.733 13.8494L46.9113 15.1954L46.8418 14.0926C46.7483 12.6093 46.6211 12.5034 44.9337 12.5034H43.7049V7.21845V1.93351H54.3709H65.0369V7.21845ZM46.4952 4.27809C46.3385 4.35273 46.1365 4.58874 46.0466 4.80259C45.9117 5.12355 45.9164 5.24988 46.074 5.52637L46.0887 5.5523C46.1353 5.63438 46.1759 5.70587 46.228 5.76808C46.5795 6.1883 47.4534 6.18462 54.2304 6.15609L54.5459 6.15476L62.1805 6.12279L62.4963 5.7611C62.8995 5.29924 62.8977 4.8419 62.4908 4.44128L62.1697 4.12483L54.475 4.13359C49.371 4.13939 46.6844 4.18799 46.4952 4.27809ZM46.588 8.4122C46.4103 8.50204 46.1789 8.72633 46.074 8.91053C45.8302 9.33835 46.0546 9.95141 46.5337 10.1664C46.7566 10.2664 48.4104 10.3121 51.8178 10.3121H56.7774L57.1325 10.0113C57.5714 9.63934 57.5974 8.98568 57.1894 8.58351C56.9228 8.32081 56.7909 8.31333 51.9136 8.28137C48.0764 8.25636 46.836 8.28678 46.588 8.4122ZM52.3652 23.7582C52.083 24.0542 52.0807 24.0989 52.0807 29.1136V34.1705L52.402 34.4868C52.5787 34.6608 52.8502 34.8032 53.0054 34.8032C53.3761 34.8032 61.874 30.1109 62.2559 29.6954C62.609 29.3113 62.6334 28.8694 62.3214 28.5085C61.9336 28.0598 53.4743 23.46 53.037 23.46C52.8015 23.46 52.5383 23.5769 52.3652 23.7582ZM56.7627 27.5992C58.1824 28.3869 59.3629 29.0485 59.3859 29.0692C59.4091 29.0898 58.4079 29.6713 57.1611 30.3614C55.9144 31.0515 54.7031 31.7288 54.4691 31.8666L54.0438 32.1173V29.1422C54.0438 27.5058 54.0748 26.1669 54.1126 26.1669C54.1506 26.1669 55.343 26.8114 56.7627 27.5992Z" fill="#FFC700"/>
<path fill-rule="evenodd" clip-rule="evenodd" d="M20.0281 4.71275C19.4749 4.94915 16.9769 7.33459 16.4665 8.1138C16.1879 8.53904 16.0911 8.84428 16.0911 9.29775C16.0911 10.1051 16.2405 10.4555 16.8722 11.1305L17.3987 11.6931L17.4258 13.9995C17.4501 16.0665 17.4239 16.3863 17.1741 17.0794C17.0207 17.5047 14.7464 21.788 12.1201 26.5977L7.34502 35.3426L4.79906 37.8784C2.48761 40.1809 2.24131 40.4688 2.12497 41.0061C2.05456 41.3316 2.02485 41.7858 2.05914 42.0156C2.11541 42.3932 2.03179 42.5229 1.19552 43.3556C0.686302 43.8625 0.207576 44.4408 0.131801 44.6403C-0.0799483 45.1978 -0.032573 45.9774 0.245266 46.5062C0.383466 46.7691 2.31224 48.7623 4.53129 50.9353C8.67598 54.9939 8.90331 55.1738 9.87476 55.166C10.3973 55.1618 11.2011 54.6649 12.0218 53.8389C12.8572 52.9982 12.8624 52.9954 13.4634 53.0655C14.2316 53.1551 14.8408 52.9103 15.6279 52.1958C15.9577 51.8965 16.246 51.6746 16.2687 51.7027C16.2915 51.7308 16.7335 52.3427 17.2508 53.0623L20.7648 57.812C21.0278 58.2295 21.481 58.8939 21.9905 59.602C23.277 61.3898 23.4307 61.66 23.3542 62.0024C23.1841 62.7654 23.4017 63.1741 24.6471 64.4298C25.3038 65.0919 26 65.7155 26.1944 65.8155C26.7817 66.1176 27.5032 66.0448 28.0789 65.6254C28.9233 65.0101 33.338 60.5464 33.4882 60.1561C33.6803 59.657 33.6631 59.0902 33.4433 58.6757C33.3418 58.4843 32.7072 57.7962 32.0329 57.1465C31.0867 56.2348 30.6977 55.9453 30.3269 55.8767C30.0628 55.8279 29.7706 55.8129 29.6775 55.8435C29.5754 55.877 28.8999 55.0282 27.9728 53.7015L26.4373 51.5039L27.6769 50.2612C28.675 49.2605 28.9156 48.9459 28.9117 48.6459C28.9088 48.4143 28.4674 47.542 27.7449 46.3399C27.1059 45.2764 26.5928 44.3995 26.6047 44.3911C26.9207 44.168 37.7278 38.5167 38.2738 38.2888C39.0228 37.9764 39.1746 37.9613 41.5609 37.9613H44.0629L44.6475 38.4921C45.3695 39.1477 46.0076 39.3712 46.8165 39.2517C47.3345 39.1752 47.5563 39.0339 48.3544 38.2718C48.8672 37.782 49.3177 37.3813 49.3556 37.3813C49.3935 37.3813 49.8258 37.6409 50.3163 37.9582C52.0533 39.082 54.114 39.7015 56.1145 39.7015C57.3819 39.7015 57.839 39.4426 57.839 38.7253C57.839 37.9921 57.5401 37.8213 56.0929 37.7277C53.5051 37.5603 51.7509 36.8065 50.047 35.1297C48.2267 33.3384 47.4221 31.2949 47.5331 28.7449C47.6914 25.1085 49.9293 22.1343 53.4158 20.9267C54.7143 20.4769 56.7423 20.3724 58.157 20.6824C61.2919 21.3693 63.8715 23.8308 64.7177 26.9425C65.0204 28.0555 65.0279 30.0857 64.7334 31.194C64.2334 33.0758 62.9794 34.9231 61.4871 35.9765C60.4253 36.7259 60.1947 36.9766 60.1947 37.3813C60.1947 37.7845 60.6 38.2494 61.048 38.3601C61.6183 38.5011 63.2508 37.3272 64.5513 35.841C65.2853 35.002 66.3801 32.9027 66.7058 31.7096C67.0589 30.4161 67.0229 27.5805 66.6364 26.2572C65.022 20.7283 59.2916 17.4119 53.6853 18.762C52.3928 19.0733 50.5799 19.9604 49.5063 20.8069C47.7109 22.2225 46.3713 24.29 45.7629 26.5844L45.4641 27.7109L44.1266 26.389L42.7891 25.0671L43.3869 23.9091C43.9198 22.8764 43.9845 22.6579 43.9838 21.8914C43.9824 20.3404 43.8823 20.2066 39.5426 15.9563C35.9686 12.456 35.5997 12.132 34.9512 11.9238C33.8982 11.5857 33.0239 11.7082 31.6313 12.3885L30.4854 12.9484L29.1425 11.6302L24.8255 7.47625C24.0268 6.52582 22.3453 4.88351 21.8864 4.68954C21.3455 4.46087 20.5955 4.47028 20.0281 4.71275ZM17.6612 50.2123L18.7006 51.6387L22.373 56.775C22.6649 57.1352 23.0715 57.6707 23.4882 58.2493C24.2065 59.2466 24.8244 60.0637 24.8616 60.0651C24.8988 60.0667 25.5985 59.4067 26.4166 58.5986L27.9041 57.1294L24.4829 52.2278L21.0618 47.3261L20.5067 47.6334C20.2015 47.8022 19.4365 48.4517 18.8066 49.0764L17.6612 50.2123ZM45.5152 30.4851L35.9725 21.0732C31.8545 17.0116 29.4406 14.6401 28.0717 13.2123L22.5038 7.7985C21.7279 7.0541 21.0489 6.44504 20.9949 6.44504C20.855 6.44504 18.3208 8.90937 18.1596 9.20211C18.0424 9.41479 19.8071 11.2003 32.141 23.349C39.9046 30.9958 46.3471 37.2524 46.4579 37.2524C46.694 37.2524 47.9457 36.0398 47.8751 35.8793C47.8487 35.8192 47.5474 35.3538 47.2055 34.845C46.4956 33.7885 45.8945 32.3851 45.6696 31.2585L45.5152 30.4851ZM42.004 35.8989L30.7819 24.8456C24.6098 18.7664 19.5522 13.7924 19.5429 13.7924C19.5337 13.7924 19.4969 14.4739 19.4612 15.307C19.4167 16.3473 19.3102 17.0839 19.1211 17.6594C18.9696 18.1202 17.0712 21.7456 14.9022 25.7157C12.7332 29.6859 10.597 33.6135 10.155 34.4437L9.35128 35.9534L14.4037 40.9344L19.456 45.9155L28.1452 41.3016C32.9242 38.7641 37.1876 36.5603 37.6194 36.4043C38.6493 36.0323 40.1722 35.7975 41.1887 35.8538L42.004 35.8989ZM41.8169 21.1655C41.7141 20.9741 40.0186 19.2369 38.0488 17.3049L34.4675 13.7924L33.8187 13.7981C33.2794 13.8028 32.3846 14.1064 32.0632 14.3937C31.9911 14.4582 41.1107 23.46 41.2482 23.46C41.4129 23.46 42.0036 22.1981 42.0036 21.8466C42.0036 21.6635 41.9196 21.3571 41.8169 21.1655ZM17.7925 47.1111C17.7925 47.0407 15.6279 44.8517 12.9823 42.2466C10.3367 39.6415 8.14229 37.5102 8.10578 37.5102C7.97883 37.5102 4.051 41.4455 4.051 41.5727C4.051 41.7824 13.5232 51.0448 13.7378 51.0448C13.9528 51.0448 17.7925 47.3196 17.7925 47.1111ZM11.309 51.6856L7.38638 47.8204C5.22897 45.6946 3.42766 43.9552 3.38369 43.9552C3.26656 43.9552 1.95706 45.3391 1.95706 45.4628C1.95706 45.6179 9.59116 53.1072 9.74913 53.1072C9.8232 53.1072 10.2044 52.7874 10.5964 52.3964L11.309 51.6856ZM26.5608 48.4265C26.5608 48.3637 26.1657 47.6509 25.6828 46.8427C25.2 46.0344 24.773 45.3769 24.734 45.3815C24.6951 45.3861 24.3098 45.5884 23.878 45.831C23.4461 46.0737 23.0371 46.2911 22.9691 46.3143C22.8797 46.3449 24.7066 49.1431 25.2109 49.748C25.2761 49.8261 26.5608 48.5684 26.5608 48.4265ZM31.5316 59.4929L30.7843 58.7492C30.3734 58.34 30.0052 58.0054 29.9661 58.0054C29.9271 58.0054 28.8958 58.9908 27.6745 60.1954L25.4539 62.3855L26.2336 63.1614L27.0134 63.9375L29.2725 61.7152L31.5316 59.4929Z" fill="#FFC700"/>
</svg>
