<svg width="61" height="60" viewBox="0 0 61 60" fill="none" xmlns="http://www.w3.org/2000/svg">
<path fill-rule="evenodd" clip-rule="evenodd" d="M26.879 0.163076C21.1726 0.841143 15.8034 3.06568 11.2796 6.62606C9.97817 7.65043 7.74258 9.84647 6.69975 11.1249C3.90138 14.5558 1.82922 18.6739 0.78365 22.8823C0.131571 25.5075 -0.00130364 26.7145 9.59428e-06 30.0057C0.00120344 33.4123 0.137063 34.5454 0.893006 37.4524C1.84581 41.1174 3.46861 44.546 5.65144 47.5065L6.45776 48.6001L6.09304 49.359C5.75805 50.0558 5.7282 50.219 5.7282 51.3553C5.7282 52.5474 5.74444 52.6251 6.17303 53.4767C6.71683 54.5576 7.51097 55.3234 8.6265 55.8425C9.37015 56.1885 9.52129 56.216 10.6827 56.216C11.8402 56.216 11.9967 56.1878 12.7269 55.848C15.0607 54.7618 16.2153 52.305 15.5064 49.934C14.7183 47.2985 11.7623 45.7874 9.11096 46.6649C8.71031 46.7974 8.31706 46.8812 8.23707 46.8511C7.96869 46.75 6.21529 44.0346 5.42425 42.4952C2.74693 37.2851 1.82337 31.6842 2.68795 25.9011C4.01169 17.0464 9.833 9.2132 18.0248 5.26359C20.0167 4.30313 21.5309 3.74105 23.428 3.25765C27.1998 2.29661 31.2997 2.12011 35.1637 2.75244C35.8091 2.85811 36.479 2.90947 36.6525 2.86679C37.544 2.64702 37.8572 1.56342 37.2125 0.930153C36.8482 0.572238 35.8413 0.343792 33.5793 0.105964C32.0278 -0.0572783 28.4788 -0.0270222 26.879 0.163076ZM40.639 2.43769C39.9008 3.16278 40.4472 4.44034 41.4955 4.44034C41.8357 4.44034 42.4102 4.12582 42.5548 3.86043C42.6225 3.73636 42.6777 3.44259 42.6777 3.2077C42.6777 2.19798 41.3815 1.70837 40.639 2.43769ZM48.9454 3.89456C46.7107 4.62153 45.3042 6.45344 45.3042 8.63716C45.3042 10.4321 46.22 12.0126 47.8113 12.9637C48.8899 13.6083 50.6107 13.7698 51.89 13.3465C52.2907 13.2139 52.6831 13.1297 52.762 13.1595C53.0022 13.2501 54.6746 15.7904 55.4425 17.2312C57.7732 21.6044 58.9377 26.9955 58.5739 31.7276C58.2648 35.7477 57.4423 38.7501 55.6884 42.2606C52.1447 49.3535 45.364 54.7889 37.6327 56.7342C33.7469 57.7119 29.4984 57.9058 25.9042 57.2693C24.5916 57.0368 24.3646 57.0511 23.9523 57.3919C23.3297 57.9065 23.3488 58.8389 23.9903 59.2519C25.0995 59.9659 31.6491 60.2534 35.0371 59.7371C40.3766 58.9231 45.5021 56.7061 49.7214 53.3853C51.0228 52.3609 53.2584 50.1649 54.3013 48.8865C57.0996 45.4556 59.1718 41.3374 60.2174 37.129C60.8723 34.4926 61.0036 33.2971 60.9999 30.0057C60.9961 26.5961 60.8581 25.4437 60.108 22.5589C59.1255 18.7796 57.5546 15.4773 55.2819 12.4133L54.5415 11.415L54.9071 10.6542C55.2427 9.95612 55.2728 9.79217 55.2728 8.66214C55.2728 7.52132 55.2449 7.37285 54.8926 6.64236C54.366 5.55032 53.584 4.76624 52.4943 4.23711C51.6939 3.84859 51.4943 3.80168 50.5135 3.77213C49.839 3.75172 49.2408 3.79851 48.9454 3.89456ZM51.4247 6.38706C52.5468 6.9441 53.0764 8.04775 52.8091 9.27207C52.6258 10.112 51.8147 10.9129 50.9384 11.1193C49.0508 11.5643 47.3859 9.95565 47.8095 8.0963C47.9261 7.58417 48.0702 7.34119 48.5173 6.902C49.3456 6.08837 50.4345 5.89545 51.4247 6.38706ZM26.1107 8.84403C25.6611 9.15351 25.5526 9.49677 25.4885 10.8138L25.4267 12.086L24.5421 12.361C24.0558 12.5122 23.0754 12.9123 22.3635 13.2499L21.0694 13.8639L20.069 12.9048C18.5213 11.4208 18.8064 11.3063 15.1645 14.8757L12.175 17.8055V18.3324C12.175 18.8337 12.2208 18.9046 13.1216 19.7947L14.0682 20.73L13.4578 21.9962C13.122 22.6927 12.7127 23.6583 12.5479 24.1421L12.2485 25.0216L10.8552 25.0843C9.46804 25.1467 9.46028 25.1487 9.11717 25.526L8.77251 25.9049V30.0166V34.1283L9.12147 34.471C9.46673 34.8102 9.48524 34.8138 10.8428 34.8138H12.2151L12.5366 35.7813C12.7135 36.3135 13.1296 37.3169 13.4613 38.0111L14.0645 39.2736L13.0898 40.2543C11.5812 41.7726 11.4648 41.4933 15.098 45.0703L18.0806 48.0069H18.617C19.1273 48.0069 19.1994 47.9619 20.1051 47.0776L21.0568 46.1482L22.271 46.7092C22.9388 47.0177 23.9221 47.4141 24.4559 47.5902L25.4267 47.9102L25.4926 49.1899C25.6094 51.4584 25.3562 51.3492 30.5005 51.3492C35.6448 51.3492 35.3916 51.4584 35.5084 49.1899L35.5743 47.9102L36.5891 47.5767C37.1472 47.3933 38.1297 46.9961 38.7723 46.6938L39.9406 46.1447L40.8941 47.0758C41.8005 47.9609 41.8742 48.0069 42.3818 48.0069H42.9159L45.8497 45.1251C49.5069 41.5326 49.4089 41.7616 47.9267 40.27L46.9365 39.2736L47.5397 38.0111C47.8714 37.3169 48.2875 36.3135 48.4644 35.7813L48.7859 34.8138H50.1583C51.5158 34.8138 51.5343 34.8102 51.8795 34.471L52.2285 34.1283V30.0166V25.9049L51.8838 25.526C51.5405 25.1485 51.5338 25.1468 50.14 25.0843L48.7409 25.0216L48.4124 24.0586C48.2316 23.5288 47.8243 22.5638 47.507 21.914L46.9302 20.7326L47.8781 19.796C48.7803 18.9045 48.826 18.8339 48.826 18.3324V17.8055L45.8365 14.8757C42.1946 11.3063 42.4797 11.4208 40.932 12.9048L39.9316 13.8639L38.6375 13.2499C37.9256 12.9123 36.9452 12.5122 36.4589 12.361L35.5743 12.0859L35.5084 10.8138C35.3913 8.55413 35.6429 8.66214 30.5005 8.66214C26.9661 8.66214 26.3373 8.68817 26.1107 8.84403ZM33.0081 12.151C33.0085 13.5778 33.203 13.9787 33.987 14.1696C34.2691 14.2383 35.0103 14.4539 35.634 14.6484C36.637 14.9614 37.2247 15.2253 39.4669 16.3691C40.215 16.7509 40.5062 16.6547 41.5332 15.6872L42.3793 14.89L44.1365 16.6085L45.8937 18.3269L45.0691 19.1622C44.6156 19.6217 44.2073 20.1432 44.1618 20.3212C44.0948 20.5836 44.2497 20.9717 44.9785 22.3683C45.7742 23.8933 46.0764 24.6739 46.6091 26.5811C46.8246 27.3526 47.2319 27.542 48.6768 27.5425L49.8408 27.543V30.0057V32.4684H48.6034C47.0815 32.4684 46.836 32.6062 46.5524 33.6195C46.1373 35.102 45.6116 36.4548 45.0402 37.5111C44.7088 38.1238 44.3597 38.7707 44.2647 38.9487C43.9782 39.4849 44.1721 39.9404 45.0776 40.8577L45.8937 41.6844L44.1339 43.4102L42.374 45.136L41.6603 44.4224C40.8299 43.592 40.3793 43.3272 39.9453 43.4147C39.7737 43.4492 39.2047 43.7183 38.6807 44.0128C37.4597 44.6987 36.3525 45.1491 34.8021 45.5907C33.1129 46.0715 33.0772 46.1143 33.0269 47.7167L32.9865 49.0038H30.5005H28.0146L27.9741 47.7167C27.9238 46.1143 27.8881 46.0715 26.199 45.5907C24.6485 45.1491 23.5413 44.6987 22.3203 44.0128C21.7963 43.7183 21.2273 43.4492 21.0558 43.4147C20.6217 43.3272 20.1711 43.592 19.3407 44.4224L18.627 45.136L16.8671 43.4102L15.1073 41.6844L15.9234 40.8577C16.8289 39.9404 17.0228 39.4849 16.7363 38.9487C16.6413 38.7707 16.2922 38.1238 15.9608 37.5111C15.3894 36.4548 14.8637 35.102 14.4486 33.6195C14.165 32.6062 13.9195 32.4684 12.3976 32.4684H11.1602V30.0057V27.543L12.3242 27.5425C13.7691 27.542 14.1765 27.3526 14.3919 26.5811C14.9246 24.6739 15.2268 23.8933 16.0225 22.3683C16.7513 20.9717 16.9062 20.5836 16.8392 20.3212C16.7937 20.1432 16.3854 19.6217 15.9319 19.1622L15.1073 18.3269L16.867 16.6012L18.6266 14.8756L19.3959 15.6381C20.3939 16.6271 20.7715 16.7578 21.524 16.3741C23.8035 15.2121 24.3623 14.9615 25.367 14.6512C25.9908 14.4585 26.7319 14.2432 27.014 14.1728C27.7984 13.9769 27.9925 13.5761 27.993 12.151L27.9934 11.0076H30.5005H33.0076L33.0081 12.151ZM28.7694 20.438C25.5608 21.0558 22.9495 23.0242 21.5994 25.8425C20.8601 27.386 20.6623 28.2648 20.6623 30.0057C20.6623 31.7633 20.8633 32.6479 21.6116 34.182C22.8759 36.7738 25.3236 38.7428 28.1725 39.4596C29.2965 39.7424 31.6684 39.7448 32.8285 39.4643C35.6185 38.7897 38.1744 36.7305 39.4016 34.1688C40.1409 32.6253 40.3387 31.7466 40.3387 30.0057C40.3387 28.2648 40.1409 27.386 39.4016 25.8425C38.1779 23.288 35.6204 21.2176 32.8841 20.5665C31.7841 20.3048 29.7854 20.2423 28.7694 20.438ZM32.2777 22.9148C34.8364 23.5073 37.116 25.7465 37.7191 28.26C37.9478 29.213 37.9495 30.7914 37.7228 31.7359C37.3827 33.1528 36.3991 34.6865 35.213 35.6493C33.9069 36.7094 32.2712 37.273 30.5005 37.273C27.6131 37.273 25.1486 35.7691 23.8305 33.2025C22.8465 31.2869 22.8465 28.7245 23.8305 26.8088C24.8222 24.8777 26.6692 23.3967 28.6837 22.9169C29.5994 22.6988 31.3406 22.6979 32.2777 22.9148ZM11.4816 48.9452C12.7462 49.3142 13.5029 50.6532 13.1841 51.9583C12.8692 53.2481 11.3852 54.1556 10.133 53.8245C9.1463 53.5634 8.42856 52.8584 8.16281 51.8891C7.76992 50.4556 9.03742 48.8595 10.6311 48.7813C10.7669 48.7747 11.1497 48.8485 11.4816 48.9452ZM19.0993 55.6818C18.0799 56.0917 18.1498 57.5699 19.2049 57.912C20.1082 58.2048 21.0045 57.3243 20.7064 56.437C20.485 55.7779 19.736 55.4259 19.0993 55.6818Z" fill="#FFC700"/>
</svg>
