<svg width="793" height="364" viewBox="0 0 793 364" fill="none" xmlns="http://www.w3.org/2000/svg">
<path opacity="0.1" fill-rule="evenodd" clip-rule="evenodd" d="M526.215 0.560602C523.335 1.08661 519.565 1.52182 517.837 1.52808C512.641 1.54583 500.405 4.76345 499.826 6.26529C499.53 7.03551 497.948 7.66588 496.31 7.66588C494.672 7.66588 492.956 8.25347 492.495 8.97046C491.698 10.2114 490.088 10.7019 485.374 11.1382C484.222 11.2457 482.708 11.6986 482.008 12.1463C481.256 12.6296 479.871 12.0962 478.605 10.8344C477.432 9.66554 476.041 8.70955 475.512 8.70955C469.582 8.70955 467.455 15.8837 472.692 18.2194C474.64 19.0878 474.592 19.1285 472.284 18.5586C466.94 17.2384 457.318 16.7646 457.994 17.8562C458.371 18.4647 457.646 18.9208 456.307 18.9145C448.375 18.8811 439.816 20.0396 436.758 21.5602C432.325 23.7644 429.972 23.8406 430.776 21.7554C431.215 20.6136 430.648 20.1899 428.679 20.1899C426.404 20.1899 426.074 20.5583 426.571 22.5381C427.066 24.5065 426.713 24.9125 424.387 25.0492C422.86 25.1389 421.062 25.9614 420.391 26.8756C419.719 27.7909 417.898 28.5392 416.344 28.5392C414.561 28.5392 413.78 28.9619 414.227 29.6831C415.692 32.0459 411.227 30.0348 409.61 27.6041L407.947 25.1024L412.706 25.8142C418.108 26.621 420.972 25.881 420.972 23.6778C420.972 21.6646 414.71 19.165 406.335 17.8364C402.578 17.2405 398.74 16.0987 397.806 15.2993C395.923 13.6889 381.544 13.5386 380.564 15.1187C380.258 15.6124 378.712 16.0152 377.128 16.0152C375.544 16.0152 373.334 16.7051 372.215 17.5473C371.098 18.3906 369.138 19.0951 367.859 19.1128C366.287 19.1358 365.721 19.6263 366.108 20.6314C366.432 21.4715 365.775 22.5997 364.598 23.228C363.453 23.8385 361.493 25.9874 360.243 28.0038C358.993 30.0202 357.154 31.6702 356.157 31.6702C355.16 31.6702 352.371 32.621 349.959 33.7815C345.907 35.7332 345.574 36.207 345.574 40.0195C345.574 43.258 346.132 44.5104 348.165 45.838C350.592 47.4233 350.976 47.393 354.269 45.3652L357.783 43.2006L360.056 46.2638C362.882 50.0742 362.931 51.4999 360.235 51.4999C358.839 51.4999 358.14 50.8037 358.14 49.4125C358.14 46.914 357.266 46.7992 354.252 48.9022C352.424 50.1786 352.105 51.1753 352.586 54.1205C353.17 57.7139 353.129 57.7619 349.413 57.7619C346.749 57.7619 345.327 58.3588 344.553 59.8001C343.064 62.5742 332.799 69.2422 330.019 69.2422C328.783 69.2422 327.772 69.7118 327.772 70.2859C327.772 70.8599 326.386 71.3295 324.692 71.3295C320.76 71.3295 319.582 73.1413 322.735 74.3426C324.064 74.8498 326.065 76.2723 327.177 77.5039C328.802 79.3 329.001 80.3019 328.189 82.5802C327.204 85.348 326.968 85.419 318.836 85.419C309.307 85.419 307.442 86.1673 308.316 89.6354C308.651 90.9682 308.434 93.3467 307.833 94.9206C306.155 99.3196 307.503 103.683 310.539 103.683C311.977 103.683 313.519 104.582 314.174 105.799C315.341 107.975 315.288 108.045 306.53 115.994C305.503 116.927 304.403 118.883 304.087 120.341C303.041 125.155 302.704 125.662 299.342 127.465C295.713 129.412 289.025 135.669 289.025 137.118C289.025 137.614 287.612 140.107 285.884 142.659C282.784 147.235 282.078 149.639 283.437 150.992C284.897 152.448 284.83 158.651 283.311 162.65C280.864 169.093 281.889 173.478 286.888 177.942C289.236 180.038 291.665 183.207 292.288 184.987C292.91 186.765 293.759 188.22 294.174 188.22C294.59 188.22 297.49 190.128 300.617 192.46C305.141 195.832 306.839 196.549 308.922 195.962C310.362 195.557 314.603 195.11 318.347 194.972C322.132 194.83 327.902 193.708 331.348 192.443C338.475 189.825 341.46 190.2 343.48 193.963C344.68 196.196 345.57 196.592 348.928 196.395C355.302 196.021 356.424 197.889 354.936 206.405L353.706 213.439L356.86 216.746C361.378 221.482 365.082 229.543 365.933 236.491C366.561 241.61 366.36 242.884 364.568 245.154C363.412 246.618 362.156 250.286 361.778 253.303C361.162 258.216 361.447 259.44 364.495 264.991C366.531 268.702 368.452 274.295 369.277 278.925C370.036 283.179 371.513 287.641 372.558 288.84C375.179 291.847 378.037 298.408 378.037 301.418C378.037 305.091 380.891 307.503 384.209 306.633C385.71 306.24 390.135 305.554 394.043 305.11C402.269 304.174 408.174 300.73 412.357 294.431C413.792 292.268 415.3 290.499 415.706 290.499C416.758 290.499 418.877 285.571 418.877 283.128C418.877 281.793 420.207 280.441 422.67 279.27L426.463 277.467L425.873 271.161L425.281 264.855L430.078 260.978C432.716 258.846 435.482 257.102 436.224 257.102C436.968 257.102 438.552 255.864 439.745 254.352C442.339 251.067 442.761 240.931 440.492 236.438C437.96 231.427 437.597 224.388 439.666 220.456C442.504 215.061 448.47 208.524 457.741 200.646C460.844 198.009 463.929 194.721 464.597 193.34C471.64 178.762 472.358 176.509 470.344 175.269C469.852 174.966 468.085 175.145 466.417 175.667C459.031 177.977 452.114 178.856 450.679 177.669C447.959 175.42 449.271 173.986 456.315 171.512C460.202 170.147 464.561 168.419 466.001 167.672C467.441 166.926 469.14 166.314 469.775 166.309C470.411 166.306 472.203 165.129 473.756 163.694C475.31 162.259 477.314 161.085 478.209 161.085C480.122 161.085 487.992 155.103 487.992 153.648C487.992 153.098 488.935 151.64 490.087 150.408C491.238 149.176 492.181 147.389 492.181 146.438C492.181 144.288 488.931 141.255 486.628 141.255C485.68 141.255 484.162 139.824 483.255 138.075L481.604 134.895L478.434 137.553C474.256 141.058 470.449 141.079 469.573 137.602C469.212 136.167 468.511 134.993 468.017 134.993C466.222 134.993 459.609 127.456 459.933 125.78C460.517 122.757 463.785 123.133 465.69 126.441C468.213 130.822 475.257 134.453 479.567 133.594C482.277 133.054 483.321 133.37 484.787 135.175C486.461 137.235 487.647 137.437 498.478 137.52C506.748 137.582 510.462 137.991 510.756 138.87C510.989 139.564 512.795 141.128 514.77 142.345C516.745 143.561 518.361 145.212 518.361 146.013C518.361 146.814 519.541 148.239 520.984 149.182C523.118 150.576 523.904 150.65 525.198 149.579C527.178 147.942 527.147 147.895 528.663 154.717C529.955 160.535 540.582 183.115 542.949 185.072C543.947 185.897 545.111 185.238 547.554 182.465C550.734 178.856 551.449 176.043 550.921 169.22C550.743 166.924 552.475 164.634 560.201 156.957C568.308 148.901 570.205 147.517 573.143 147.517C575.036 147.517 577.11 146.993 577.752 146.353C578.611 145.498 579.35 145.981 580.547 148.18C581.443 149.825 583.603 152.54 585.349 154.214C587.434 156.213 588.523 158.285 588.523 160.248C588.523 163.943 590.843 164.992 594.187 162.809C596.673 161.185 596.712 161.219 599.112 167.114C600.584 170.727 601.562 175.361 601.609 178.94C601.675 184.02 602.146 185.347 605.053 188.646C606.904 190.748 608.419 193.61 608.419 195.005C608.419 197.601 614.758 204.919 617.006 204.919C617.659 204.919 617.947 205.165 617.645 205.465C616.772 206.335 608.337 201.188 604.278 197.307C600.717 193.904 593.759 191.35 593.759 193.446C593.759 193.996 595.909 196.682 598.536 199.415C601.164 202.148 603.874 205.351 604.557 206.531C605.242 207.712 606.744 210.295 607.896 212.271C611.53 218.508 618.488 224.95 621.179 224.568C622.618 224.363 623.716 223.39 623.916 222.139C624.662 217.475 625.091 217.043 627.139 218.891C629.589 221.102 632.505 220.031 632.505 216.921C632.505 214.091 629.722 212.716 627.58 214.487C626.388 215.473 625.877 215.444 625.201 214.354C624.726 213.59 623.591 213.249 622.678 213.599C620.458 214.448 618.421 210.759 618.174 205.441C617.785 197.08 616.625 193.479 613.459 190.825C611.752 189.392 609.949 188.22 609.457 188.22C608.964 188.22 608.237 187.164 607.842 185.872C607.448 184.58 606.507 182.819 605.753 181.958C604.669 180.721 604.631 179.461 605.569 175.957C606.223 173.518 607.042 171.521 607.389 171.521C608.628 171.521 619.421 181.201 619.753 182.61C620.229 184.623 621.386 184.4 623.701 181.852C624.796 180.644 626.99 178.989 628.576 178.172C631.069 176.887 631.458 176.056 631.458 172.016C631.458 167.735 630.973 166.867 625.628 161.583C619.089 155.118 618.648 152.724 623.353 149.236C626.072 147.221 626.35 147.198 628.021 148.862C629.408 150.245 629.52 150.909 628.533 151.893C626.318 154.101 627.013 156.91 629.775 156.91C632.753 156.91 633.98 154.44 632.434 151.559C631.457 149.74 631.805 149.3 635.317 147.919C651.655 141.496 650.646 142.147 653.677 136.037C656.516 130.311 657.529 123.513 655.543 123.513C654.967 123.513 654.496 122.487 654.496 121.233C654.496 119.863 652.397 116.939 649.235 113.901L643.975 108.847L646.839 106.203C649.212 104.011 649.44 103.389 648.172 102.578C647.331 102.04 645.385 101.862 643.85 102.183C642.315 102.504 639.959 102.151 638.614 101.399C637.27 100.646 636.008 99.9468 635.809 99.8435C635.61 99.7412 637.019 98.2571 638.941 96.5455C642.674 93.2204 644.024 93.1922 644.024 96.4391C644.024 98.7665 644.427 98.8813 647.274 97.3638C650.108 95.8515 653.375 97.0924 654.53 100.12C655.058 101.506 656.331 102.64 657.356 102.64C659.046 102.64 660.319 104.638 662.222 110.278C662.922 112.351 666.354 111.926 668.989 109.441C671.022 107.523 668.148 102.435 663.368 99.4908C660.014 97.4243 659.782 97.0058 661.153 95.4758C661.994 94.5365 662.843 92.5994 663.04 91.1696C663.265 89.5269 664.168 88.4561 665.491 88.2588C671.613 87.3467 672.231 86.9292 673.202 83.0603C675.467 74.0201 675.4 71.5623 672.781 67.7163C669.092 62.2976 672.137 63.1827 676.348 68.7527C678.287 71.318 680.289 73.4169 680.798 73.4169C681.307 73.4169 681.723 74.0639 681.723 74.855C681.723 76.7357 684.498 79.0266 685.27 77.7815C685.595 77.2565 684.93 75.9864 683.792 74.9604C682.654 73.9335 681.723 71.962 681.723 70.5791C681.723 66.8866 671.567 57.5949 668.329 58.3254C667.011 58.6229 664.902 58.147 663.642 57.2672C662.153 56.2277 660.195 55.8854 658.044 56.2872C656.118 56.6472 654.441 56.4301 654.031 55.7685C653.642 55.1423 652.447 54.6309 651.373 54.6309C649.595 54.6309 649.548 54.3741 650.846 51.7608C651.631 50.1828 652.762 47.5986 653.359 46.0206C654.398 43.2695 654.761 43.1453 662.062 43.0274C666.252 42.9585 670.151 43.0149 670.727 43.1505C671.303 43.2873 673.778 43.639 676.225 43.9322C680.672 44.4655 681.749 43.5941 679.463 41.3158C678.546 40.4015 678.576 39.7179 679.592 38.4979C681.106 36.6798 684.411 36.3573 685.388 37.9322C686.466 39.6699 691.148 39.1752 691.148 37.3238C691.148 36.4147 691.737 35.8783 692.457 36.1319C694.04 36.6902 693.754 42.6631 691.981 46.078C690.978 48.0109 691.039 48.9878 692.294 51.049C694.186 54.156 707.921 65.2355 709.308 64.7742C710.409 64.409 710.682 54.9659 709.623 53.9107C709.253 53.5413 708.95 52.5477 708.95 51.7023C708.95 49.9813 706.476 47.75 702.929 46.2721C701.585 45.7117 700.572 44.381 700.572 43.1766C700.572 41.034 703.061 40.4161 709.973 40.8399C711.485 40.9327 713.715 39.9037 715.319 38.3726C716.831 36.9282 719.434 35.3658 721.102 34.9014L724.134 34.056L720.207 32.1482C712.884 28.5893 716.624 26.3047 725.772 28.7479C733.323 30.7643 735.436 29.7926 731.666 26.0354C729.805 24.1809 727.818 23.3209 725.396 23.3209C723.446 23.3209 718.123 22.3294 713.568 21.1167C709.012 19.9039 701.75 18.5023 697.431 18.0013C693.111 17.5003 687.338 16.8011 684.603 16.4473C681.059 15.9902 679.629 16.1676 679.629 17.0651C679.629 17.8489 678.936 18.0483 677.796 17.5922C676.789 17.1893 672.065 16.9232 667.299 17.0004C661.007 17.1038 658.005 16.7019 656.333 15.5351C654.809 14.4716 651.539 13.9122 646.67 13.882C642.623 13.8569 637.191 13.3528 634.599 12.7611C632.007 12.1693 625.471 11.229 620.074 10.6716C611.509 9.78766 610.018 9.87636 608.358 11.374C606.929 12.6619 605.422 12.9155 602.307 12.3906C599.654 11.9449 597.403 12.162 596.067 12.9938C594.268 14.1136 593.509 13.9049 590.644 11.5024C586.496 8.02385 583.651 7.28807 577.289 8.05203C574.541 8.38183 571.82 8.69075 571.244 8.73772C570.668 8.78468 566.427 8.50395 561.819 8.11361C554.913 7.52916 552.948 6.9468 550.633 4.79894C548.544 2.86085 546.128 1.99772 541.208 1.43205C537.569 1.01354 533.885 0.431189 533.021 0.137919C532.158 -0.155351 529.094 0.0345946 526.215 0.560602ZM126.194 8.43298C123.319 10.0204 121.101 11.7884 121.266 12.3624C121.43 12.9364 123.922 13.2725 126.802 13.1096L132.037 12.8133L130.35 16.0643C129.097 18.4793 128.21 19.1201 126.901 18.5555C125.932 18.138 122.077 17.5807 118.333 17.3177C114.589 17.0547 111.167 16.5078 110.728 16.1018C110.289 15.6958 105.577 15.9975 100.256 16.7708C90.2597 18.2257 86.2793 17.9679 64.4024 14.4476C55.1023 12.951 50.3868 13.4217 35.081 17.3741C26.5045 19.5887 25.6541 20.0354 25.6353 22.3273C25.6164 24.6349 25.1641 24.8624 20.2328 25.0398C10.6897 25.3832 6.98373 29.5609 15.266 30.6391C19.2589 31.1588 19.1846 31.2068 12.5663 32.3695C4.3846 33.8066 0 35.394 0 36.9209C0 37.5419 2.2389 39.0719 4.97417 40.3201C9.12734 42.2164 11.7998 42.5828 21.1743 42.5421C28.5077 42.5108 33.3144 42.0056 35.0401 41.0851C37.1104 39.9809 38.2592 39.9392 40.3578 40.892C41.8291 41.56 44.3916 42.1069 46.0514 42.1069C50.6883 42.1069 52.5147 44.5981 51.8591 50.0356C51.3805 54.0151 51.5669 54.6309 53.2498 54.6309C54.9619 54.6309 55.1326 55.2842 54.6803 60.1101C54.3975 63.1232 53.7598 65.7459 53.2634 65.9369C51.8664 66.4744 52.1942 68.8498 53.854 70.2222C56.0301 72.0225 54.1629 76.5259 48.7395 82.55C46.2859 85.276 43.957 88.5208 43.5653 89.7607C43.1747 91.0005 42.1652 92.5838 41.3233 93.2799C40.2855 94.1378 39.8269 96.437 39.8981 100.419C40.0373 108.301 40.8856 110.822 43.9025 112.33C45.8357 113.295 46.7896 115.093 47.8986 119.86C48.6997 123.304 49.328 127.618 49.2935 129.445C49.2474 131.882 49.7878 132.945 51.3188 133.43C52.5932 133.833 53.4069 135.009 53.4069 136.447C53.4069 139.001 58.159 144.172 59.3842 142.951C59.7968 142.54 59.5633 141.293 58.8648 140.178C58.1664 139.064 57.5956 137.5 57.5956 136.703C57.5956 135.905 56.4175 132.598 54.9777 129.353C51.8633 122.336 51.6622 120.088 54.1923 120.599C55.3997 120.842 55.9714 121.848 55.8699 123.545C55.7819 124.994 57.0438 127.809 58.7496 129.974C60.4189 132.094 61.7844 134.478 61.7844 135.272C61.7844 136.066 63.0222 137.855 64.5354 139.247C68.3 142.708 70.2604 147.471 68.9357 149.937C67.39 152.817 70.3379 155.454 80.4831 160.269C87.9108 163.792 89.8942 164.321 93.6097 163.766C97.5199 163.182 98.3032 163.441 100.966 166.211C102.785 168.104 105.968 169.828 109.138 170.638C114.345 171.967 119.38 176.29 119.38 179.429C119.38 180.247 119.854 180.914 120.435 180.914C121.014 180.914 122.512 182.089 123.765 183.524C125.016 184.959 126.67 186.133 127.437 186.133C128.205 186.133 129.765 186.713 130.904 187.422C132.678 188.526 133.21 188.377 134.615 186.378C136.811 183.253 137.77 183.434 139.724 187.337C142.608 193.098 141.9 198.217 137.613 202.618C132.616 207.745 130.522 212.694 132.21 215.389C133.188 216.949 133.182 217.672 132.182 218.669C130.132 220.713 130.69 224.416 133.506 227.444C135.84 229.954 139.955 236.546 146.085 247.587C147.495 250.13 150.108 252.384 154.091 254.493C161.866 258.61 164.25 260.88 164.931 264.812C165.661 269.033 167.61 296.85 167.973 308.242C168.129 313.121 168.809 319.226 169.483 321.809C170.157 324.393 170.95 327.562 171.244 328.854C171.882 331.65 173.487 331.938 174.16 329.376C174.454 328.252 174.685 328.654 174.76 330.42C174.827 331.998 174.465 333.29 173.956 333.29C172.655 333.29 173.282 339.419 174.732 340.864C175.39 341.52 175.928 343.372 175.928 344.979C175.928 347.138 177.444 349.4 181.725 353.632C188.645 360.474 195.493 363.885 202.538 363.997C208.808 364.096 210.085 362.073 205.08 359.97C203.158 359.162 200.087 356.938 198.257 355.027L194.93 351.554L196.948 347.453C199.588 342.093 199.529 341.726 195.825 340.439C192.307 339.217 191.957 338.321 194.254 336.421C195.118 335.706 195.825 334.268 195.825 333.224C195.825 332.179 196.296 331.035 196.872 330.681C198.708 329.55 198 327.297 195.563 326.514C193.34 325.8 193.384 325.72 196.349 325.083C198.789 324.559 199.565 323.768 199.821 321.543C200.079 319.318 200.707 318.678 202.633 318.678C210.99 318.678 213.521 313.503 207.903 307.905C206.536 306.542 206.846 306.427 210.538 306.92C215.364 307.565 217.874 305.89 220.012 300.6C220.749 298.776 222.554 295.684 224.022 293.73C225.749 291.429 226.88 288.3 227.227 284.858C227.746 279.732 227.953 279.439 233.001 276.695C235.88 275.13 239.224 273.838 240.43 273.825C245.259 273.772 249.313 265.559 249.862 254.714C250.293 246.246 250.999 244.634 257.871 236.453C259.455 234.568 260.751 231.898 260.751 230.52C260.751 226.417 258.86 222.661 256.795 222.661C255.741 222.661 253.021 221.306 250.747 219.65C247.721 217.446 244.841 216.438 239.994 215.887C236.289 215.465 233.151 214.558 232.871 213.828C232.594 213.109 230.39 211.937 227.972 211.221C220.571 209.031 218.829 208.141 218.197 206.233C214.819 196.027 209.872 191.351 202.452 191.351C199.116 191.351 197.653 190.655 194.778 187.698C192.824 185.689 190.621 184.045 189.88 184.045C189.14 184.045 188.237 182.863 187.873 181.418C187.509 179.972 186.676 178.872 186.02 178.973C185.366 179.073 183.973 178.785 182.927 178.331C181.814 177.849 180.02 178.041 178.607 178.795C176.733 179.795 175.67 179.806 173.875 178.849C172.602 178.17 171.293 177.881 170.966 178.207C170.639 178.533 168.759 177.806 166.79 176.594C164.134 174.957 162.905 174.691 162.029 175.564C160.389 177.198 159.173 177.032 159.173 175.174C159.173 173.227 158.186 173.235 155.57 175.208C154.452 176.05 152.495 176.74 151.223 176.74C149.675 176.74 148.172 177.985 146.686 180.495C144.966 183.398 144.053 184.06 142.655 183.413C141.661 182.954 138.1 182.555 134.742 182.529C126.012 182.459 124.125 179.49 126.915 170.212C128.037 166.476 127.958 165.899 126.142 164.576C124.993 163.739 122.199 163.2 119.675 163.331C117.231 163.457 114.953 163.283 114.612 162.943C114.271 162.603 115.229 159.631 116.741 156.337C118.252 153.043 119.244 149.712 118.943 148.933C117.62 145.493 109.289 148.987 107.735 153.634C107.107 155.513 98.8111 157.184 96.4266 155.911C93.1227 154.15 90.8849 146.992 92.1604 142.271C92.7635 140.038 93.7154 137.93 94.2757 137.585C94.8359 137.24 95.2946 135.834 95.2946 134.463C95.2946 132.864 96.5156 131.06 98.698 129.437C105.107 124.67 106.614 124.229 111.67 125.64C115.747 126.778 116.521 126.712 118.342 125.07C120.044 123.536 121.51 123.328 126.787 123.878C134.641 124.696 135.088 124.961 135.088 128.819C135.088 131.204 135.723 132.154 137.852 132.961C139.371 133.537 140.902 133.721 141.254 133.371C141.605 133.021 141.734 130.01 141.543 126.679C141.207 120.872 141.335 120.515 144.685 117.974C146.606 116.516 151.005 113.744 154.461 111.814C159.877 108.79 160.789 107.842 161.072 104.95C161.253 103.105 161.815 101.596 162.323 101.596C162.83 101.596 165.022 99.974 167.192 97.9921C169.363 96.0112 173.159 93.7944 175.628 93.068C178.579 92.1997 180.117 91.154 180.117 90.0153C180.117 89.0635 180.707 87.7986 181.426 87.2047C182.413 86.3917 193.454 81.7693 194.418 81.7672C194.508 81.7662 194.315 82.7848 193.988 84.0299C193.487 85.9409 193.706 86.1611 195.395 85.4472C196.495 84.9817 199.937 83.7304 203.042 82.6658C209.889 80.3207 212.059 78.7416 210.53 77.2179C209.773 76.4633 209.054 76.5134 208.182 77.3828C207.491 78.0716 205.606 78.6352 203.993 78.6352C200.624 78.6352 200.186 76.7618 202.67 72.9848C204.126 70.768 204.118 70.4768 202.575 69.8872C201.638 69.5282 200.443 69.5 199.92 69.8225C199.395 70.145 198.967 69.9435 198.967 69.3737C198.967 68.8049 199.843 68.0618 200.913 67.7237C203.143 67.0181 206.297 67.9731 206.297 69.3539C206.297 69.8663 206.989 70.2859 207.835 70.2859C208.772 70.2859 209.137 69.6743 208.771 68.7204C208.294 67.4836 209.082 67.1549 212.521 67.1549C214.914 67.1549 218.263 66.4379 219.963 65.5622C224.096 63.4321 223.864 64.9172 219.387 69.2422C217.371 71.1897 215.722 73.0964 215.722 73.4795C215.722 73.8635 217.913 74.4762 220.59 74.8415C223.268 75.2078 226.074 76.0166 226.827 76.6387C228.898 78.3513 230.173 76.958 230.173 72.9848C230.173 70.098 229.698 69.2975 227.685 68.7934L225.198 68.1714L227.266 64.5008C230.076 59.5163 229.902 58.387 225.805 54.968C223.032 52.6542 222.118 50.9446 221.543 47.0038C221.137 44.2213 220.156 41.7343 219.34 41.4233C218.531 41.1133 216.196 41.8908 214.151 43.1505C209.488 46.0227 206.951 45.2974 207.769 41.3252C208.538 37.5899 205.478 35.3178 198.659 34.5612C193.82 34.0237 193.545 34.1395 191.067 37.7757C189.652 39.8505 188.495 43.0566 188.495 44.8997C188.495 49.5461 184.672 53.6874 179.627 54.5046C176.235 55.0535 175.404 55.7079 174.427 58.5999C173.149 62.3822 171.121 64.122 168.955 63.2933C167.146 62.6013 167.19 61.0859 169.128 57.382C171.151 53.5152 171.177 53.5893 167.813 53.5747C166.229 53.5674 162.883 52.3932 160.376 50.9655C157.869 49.5378 154.978 48.3689 153.953 48.3689C151.482 48.3689 150.438 43.2205 152.455 40.9808C153.27 40.0738 156.412 38.2704 159.436 36.972C162.459 35.6737 166.267 33.9506 167.898 33.1407C169.528 32.3319 171.554 31.6702 172.4 31.6702C173.246 31.6702 175.446 30.8927 177.29 29.9429C180.436 28.3221 180.551 28.3253 179.166 29.9878C177.066 32.5124 179.093 34.3775 182.16 32.741C183.418 32.071 185.802 31.832 187.509 32.2056C191.446 33.0677 191.762 30.5608 187.971 28.5392C186.531 27.7711 185.353 26.7253 185.353 26.2139C185.353 25.7025 185.815 25.5689 186.378 25.9165C187.577 26.6554 195.825 24.3781 195.825 23.3084C195.825 22.9086 196.981 21.3389 198.393 19.8204C201.797 16.1592 207.418 16.057 211.619 19.5793L214.624 22.1008L210.723 24.5336C208.577 25.8716 204.972 27.2033 202.714 27.4914C200.454 27.7805 198.391 28.6676 198.128 29.4628C197.753 30.5994 198.466 30.757 201.455 30.1976C204.641 29.6017 205.643 29.8907 207.611 31.9729C209.678 34.1583 215.433 36.8885 217.972 36.8885C218.462 36.8885 218.863 36.1527 218.863 35.2531C218.863 34.1333 219.478 33.8108 220.81 34.2324C223.907 35.2124 225.792 32.2119 224.082 29.0266C222.291 25.6921 223.495 24.5399 226.211 26.9883C228.216 28.798 228.535 28.8085 231.976 27.173C236.581 24.9845 236.576 23.6131 231.953 21.6886C228.471 20.2379 227.816 19.2871 228.214 16.2605C228.309 15.5341 226.356 14.0719 223.872 13.0105C221.389 11.9501 218.717 10.3137 217.935 9.37436C215.84 6.85808 197.804 6.94471 192.684 9.49438C188.777 11.4387 186.888 16.0152 189.992 16.0152C190.897 16.0152 191.636 16.6445 191.636 17.4127C191.636 18.5993 189.956 19.7849 184.981 22.106C184.489 22.3357 184.385 21.5873 184.749 20.4424C185.234 18.9218 184.856 18.2163 183.348 17.8239C181.658 17.3824 181.425 16.7604 182.064 14.3808C182.661 12.1578 183.793 11.2112 186.895 10.3439C191.578 9.03412 192.746 7.15449 189.415 6.2872C186.847 5.61716 183.979 6.8226 180.237 10.1446L177.739 12.3624L178.891 10.1508C179.525 8.93498 179.755 7.65231 179.401 7.30059C178.198 6.10142 167.551 9.43803 167.551 11.015C167.551 12.2758 171.708 14.0698 172.913 13.3288C173.698 12.8445 173.735 13.2286 173.033 14.5843C172.477 15.6583 172.252 17.1789 172.532 17.9627C172.813 18.7465 172.395 19.7954 171.606 20.2942C169.477 21.6385 167.989 21.4235 169.436 19.9811C171.387 18.0368 170.933 17.0589 168.083 17.0589C166.608 17.0589 164.906 17.9658 164.166 19.1462C163.131 20.7983 161.724 21.2335 157.412 21.2335C154.417 21.2335 151.633 20.695 151.225 20.0375C150.703 19.1953 151.307 19.0481 153.266 19.5376C154.993 19.9697 157.237 19.6221 159.177 18.6223C161.96 17.1883 162.16 16.7781 161 14.8797C159.879 13.047 160.027 12.4782 162.053 10.823C163.35 9.76364 164.409 8.58221 164.409 8.19814C164.409 7.32668 157.99 8.64171 156.521 9.81374C155.368 10.7332 146.9 9.18964 145.077 7.72746C144.479 7.24738 141.162 6.56063 137.706 6.20057C132.118 5.61924 130.845 5.86556 126.194 8.43298ZM488.39 22.75C487.398 25.3247 485.079 24.6902 485.597 21.9871C485.887 20.4738 485.263 18.8978 483.881 17.6506C482.686 16.5736 481.709 15.2794 481.709 14.7753C481.709 14.2712 483.352 15.4955 485.361 17.4972C487.642 19.7724 488.779 21.7408 488.39 22.75ZM435.109 18.1025C434.753 18.6766 435.224 19.1462 436.156 19.1462C437.088 19.1462 437.559 18.6766 437.203 18.1025C436.847 17.5285 436.376 17.0589 436.156 17.0589C435.936 17.0589 435.465 17.5285 435.109 18.1025ZM141.284 20.8557C141.524 21.0634 139.258 21.2335 136.248 21.2335C133.239 21.2335 131.039 20.8088 131.361 20.289C131.886 19.4437 140.202 19.9185 141.284 20.8557ZM205.948 20.886C204.519 22.3096 205.322 23.4555 207.524 23.133C210.402 22.7103 211.369 20.1899 208.653 20.1899C207.55 20.1899 206.332 20.503 205.948 20.886ZM114.668 25.4082C115.024 25.9822 114.875 26.4519 114.337 26.4519C113.799 26.4519 111.886 26.7451 110.086 27.1042C108.081 27.5039 106.814 27.3317 106.814 26.6585C106.814 24.7423 113.586 23.6632 114.668 25.4082ZM387.462 28.5121C387.462 29.0715 386.048 30.2581 384.32 31.1484C381.924 32.383 381.178 33.4862 381.178 35.7969C381.178 39.1502 383.518 42.0891 386.227 42.1403C387.838 42.1705 387.831 42.2906 386.153 43.5596C383.847 45.3047 383.796 46.4663 386.044 46.0665C386.992 45.8975 387.941 46.2481 388.153 46.8451C388.364 47.4431 387.234 47.9128 385.643 47.8888C383.334 47.8554 382.678 48.3741 382.398 50.4562C381.905 54.1299 380.883 54.8709 375.746 55.2769C373.262 55.4731 370.288 55.7257 369.136 55.8394C367.984 55.9532 364.921 55.9208 362.329 55.7664L357.617 55.4867L361.282 54.5046C369.018 52.4319 372.801 50.2349 372.801 47.8157C372.801 46.5383 373.861 44.7818 375.157 43.9135L377.513 42.3344L375.063 39.7054L372.612 37.0764L374.864 35.156C376.102 34.0999 378.382 31.9624 379.932 30.4063C382.665 27.6604 387.462 26.455 387.462 28.5121ZM181.164 34.8012C181.164 35.3752 181.871 35.8449 182.735 35.8449C183.599 35.8449 184.306 35.3752 184.306 34.8012C184.306 34.2272 183.599 33.7575 182.735 33.7575C181.871 33.7575 181.164 34.2272 181.164 34.8012ZM114.668 36.8885C114.312 37.4626 113.314 37.9322 112.45 37.9322C111.586 37.9322 111.17 37.4626 111.526 36.8885C111.882 36.3145 112.88 35.8449 113.744 35.8449C114.608 35.8449 115.024 36.3145 114.668 36.8885ZM397.41 41.0632C397.806 41.7009 396.303 42.0787 393.545 42.0338C390.063 41.9764 389.511 41.7552 391.127 41.0632C394.024 39.8223 396.64 39.8223 397.41 41.0632ZM321.722 45.8192C318.334 48.1831 318.765 51.9017 322.788 55.0389C325.997 57.5427 326.076 57.7629 324.244 59.0988C323.178 59.8753 322.124 62.0638 321.902 63.9623C321.509 67.3271 321.581 67.397 324.766 66.7624C326.563 66.4045 329.544 66.1112 331.391 66.1112C333.826 66.1112 335.103 65.4495 336.042 63.7014C337.218 61.5107 336.906 60.824 332.616 56.1671C328.89 52.1229 328.147 50.7401 329.093 49.6056C330.019 48.4931 329.882 47.9389 328.486 47.1603C327.493 46.6061 326.954 45.7127 327.288 45.1742C328.271 43.5878 324.251 44.0533 321.722 45.8192ZM311.795 55.5086C310.119 56.5136 309.139 57.8433 309.457 58.6772C309.759 59.4672 309.473 60.753 308.823 61.5347C307.073 63.6356 310.134 64.4758 314.411 63.0689C316.832 62.2726 318.27 60.9252 319.133 58.6469C319.816 56.8434 320.127 54.968 319.822 54.4774C318.963 53.0904 314.975 53.6029 311.795 55.5086ZM589.57 57.1743C589.57 57.9309 588.775 59.1948 587.803 59.9828C586.248 61.2435 586.123 61.1861 586.756 59.5027C587.152 58.4517 587.476 56.8977 587.476 56.0492C587.476 55.2017 587.947 54.7978 588.523 55.1527C589.099 55.5075 589.57 56.4166 589.57 57.1743ZM48.7395 57.6898C48.0243 58.8431 49.6757 60.0892 50.6433 59.1249C51.6382 58.1324 51.4528 56.7182 50.3271 56.7182C49.7846 56.7182 49.0704 57.1555 48.7395 57.6898ZM130.217 60.4044C129.894 61.2467 129.207 61.9365 128.693 61.9365C127.618 61.9365 127.429 59.4808 128.427 58.4862C129.544 57.3726 130.848 58.769 130.217 60.4044ZM60.7372 70.2859C60.7372 70.8599 60.5299 71.3295 60.2754 71.3295C60.0209 71.3295 59.5225 70.8599 59.1664 70.2859C58.8104 69.7118 59.0188 69.2422 59.6282 69.2422C60.2377 69.2422 60.7372 69.7118 60.7372 70.2859ZM149.539 72.5819C150.23 73.2707 150.796 74.3937 150.796 75.0784C150.796 76.8484 145.644 77.9161 143.932 76.5009C143.06 75.7797 141.162 75.6065 139.058 76.0552C134.643 76.9987 136.051 75.5209 141.702 73.2822C147.198 71.1051 147.986 71.0342 149.539 72.5819ZM426.208 77.3828C426.208 77.842 425.642 78.7813 424.951 79.4701C423.336 81.0795 424.506 82.2859 431.143 85.8626C437.349 89.2065 438.256 91.9127 433.339 92.4157C431.433 92.6109 427.554 92.1308 424.72 91.3491C421.886 90.5685 417.998 90.2053 416.08 90.5445C414.163 90.8826 410.941 91.4462 408.92 91.7958C406.899 92.1465 404.985 92.851 404.669 93.3613C404.352 93.8727 403.556 94.2902 402.898 94.2902C402.011 94.2902 402.008 93.9865 402.885 93.1129C403.714 92.2863 403.743 91.418 402.983 90.2063C401.327 87.5638 406.301 79.2583 409.795 78.8335C411.624 78.6112 412.813 79.18 413.608 80.6599C414.796 82.8735 418.309 83.4674 420.822 81.881C421.813 81.2548 421.891 80.7674 421.084 80.2696C419.363 79.2102 419.678 77.8086 421.757 77.2669C424.818 76.4696 426.208 76.5061 426.208 77.3828ZM462.845 78.0956C463.914 79.3793 463.667 79.8218 461.403 80.6797C458.829 81.6545 457.367 85.9408 459.608 85.9408C460.123 85.9408 461.655 87.1066 463.011 88.5323C464.367 89.9569 466.303 91.131 467.31 91.1414C468.317 91.1508 469.143 91.6288 469.143 92.2028C469.143 92.7769 468.436 93.2465 467.572 93.2465C465.429 93.2465 465.6 94.5438 468.172 97.8032C472.555 103.357 468.897 106.346 461.685 103.104C457.536 101.239 456.854 99.76 458.626 96.461C459.411 94.9978 458.939 93.9416 456.438 91.5725C452.689 88.0209 449.935 83.1574 450.639 81.3299C451.227 79.801 457.415 76.6052 459.852 76.5719C460.789 76.5583 462.136 77.245 462.845 78.0956ZM159.173 80.8405C159.173 81.3498 158.471 81.7662 157.611 81.7662C156.752 81.7662 155.461 82.7055 154.742 83.8535C154.022 85.0015 153.126 85.9408 152.75 85.9408C151.518 85.9408 151.055 83.3755 151.885 81.1504C152.532 79.4169 153.364 79.0662 155.937 79.4419C157.717 79.7029 159.173 80.3322 159.173 80.8405ZM145.211 81.8163C143.712 82.9915 141.881 85.1873 141.143 86.6965C139.822 89.3954 137.182 91.1738 137.182 89.3641C137.182 87.1139 143.791 79.6789 145.791 79.6789C147.764 79.6789 147.718 79.85 145.211 81.8163ZM368.675 83.7471C370.7 85.4107 374.106 87.5001 376.244 88.3903C378.812 89.459 380.131 90.6885 380.131 92.0087C380.131 93.1087 381.007 95.1282 382.078 96.4975C383.148 97.8668 384.809 100.514 385.769 102.379C387.8 106.323 388.783 106.541 391.65 103.683C394.156 101.186 394.257 100.187 392.174 98.4648C389.977 96.6468 390.199 95.8525 393.3 94.4446C396.655 92.9209 397.497 93.4177 398.295 97.3951C398.642 99.1265 399.663 101.665 400.564 103.034C402.406 105.836 407.998 107.407 410.059 105.702C411.027 104.901 412.053 104.923 413.653 105.777C415.015 106.503 417.562 106.69 420.153 106.254L424.412 105.537L423.858 110.089C423.553 112.593 422.779 115.962 422.139 117.575C421.04 120.345 420.716 120.472 416.355 119.819C413.814 119.44 410.954 119.565 410 120.097C408.326 121.031 393.764 117.618 392.024 115.885C391.131 114.994 387.157 114.945 384.929 115.797C384.018 116.146 383.273 117.569 383.273 118.96C383.273 121.809 380.608 123.361 378.804 121.564C378.152 120.914 376.719 120.382 375.622 120.382C374.525 120.382 372.227 119.208 370.516 117.773C368.805 116.338 366.117 115.164 364.543 115.164C360.725 115.164 357.531 112.81 358.739 110.887C360.872 107.492 358.149 102.378 354.617 103.146C353.387 103.414 348.115 103.84 342.902 104.092C335.679 104.443 332.517 105.085 329.612 106.793C327.085 108.279 324.484 108.924 321.893 108.707C317.368 108.327 315.607 105.771 319.873 105.771C321.383 105.771 324.485 104.822 326.766 103.662C330.573 101.726 331.451 100.566 330.994 98.0735C330.742 96.7094 334.185 93.2329 337.456 91.5474C339.04 90.7302 340.338 89.3328 340.338 88.4415C340.338 87.2486 341.234 86.9 343.741 87.1191C345.614 87.283 348.92 86.5243 351.088 85.4336L355.032 83.4507L357.895 86.8488C359.47 88.718 363.11 91.5099 365.985 93.0514C370.01 95.2117 371.333 96.5518 371.744 98.8886C372.223 101.612 372.423 101.746 373.704 100.207C374.488 99.2633 374.856 97.7812 374.521 96.9129C374.093 95.8004 374.601 95.3224 376.237 95.2963C378.423 95.2608 378.374 95.1063 375.419 92.6923C373.691 91.2813 371.712 90.1239 371.022 90.1207C369.406 90.1145 363.388 83.7387 363.381 82.0271C363.374 80.0274 364.654 80.4439 368.675 83.7471ZM482.56 82.7451C482.822 83.5279 482.429 83.9193 481.644 83.6584C480.888 83.4068 480.063 82.5844 479.811 81.8319C479.55 81.0492 479.942 80.6578 480.728 80.9187C481.483 81.1692 482.308 81.9916 482.56 82.7451ZM686.406 85.6434C686.429 89.5279 686.834 90.6854 688.268 90.9609C689.275 91.154 690.1 90.7762 690.1 90.1218C690.1 89.3923 690.941 89.1971 692.27 89.6177C694.321 90.2658 698.478 87.7788 698.478 85.9033C698.478 85.4858 696.475 84.4515 694.027 83.6051C691.58 82.7577 688.856 81.7526 687.977 81.3717C686.667 80.8029 686.382 81.5752 686.406 85.6434ZM165.738 85.5818C165.029 85.8678 163.616 85.8855 162.597 85.6204C161.578 85.3553 162.158 85.1216 163.886 85.1007C165.614 85.0798 166.447 85.2959 165.738 85.5818ZM353.473 88.9998C352.758 90.1531 354.409 91.3992 355.377 90.4349C356.371 89.4423 356.186 88.0282 355.06 88.0282C354.518 88.0282 353.804 88.4655 353.473 88.9998ZM153.414 90.1155C152.262 90.6092 150.613 91.0381 149.749 91.0694C148.353 91.1206 148.353 91.0152 149.749 90.1155C150.613 89.5592 152.262 89.1292 153.414 89.1616L155.508 89.219L153.414 90.1155ZM352.555 92.899C352.171 93.281 351.857 94.6899 351.857 96.03C351.857 97.7687 352.455 98.4648 353.951 98.4648C355.581 98.4648 356.046 97.7687 356.046 95.3338C356.046 92.3897 354.293 91.1665 352.555 92.899ZM689.053 93.7068C689.053 94.5344 689.524 95.5008 690.1 95.8557C694.038 98.2812 687.422 107.858 681.808 107.858C679.058 107.858 673.303 112.529 673.38 114.699C673.433 116.198 677.193 120.382 678.487 120.382C679.115 120.382 679.629 119.732 679.629 118.936C679.629 116.969 684.867 113.675 687.64 113.899C688.878 113.998 690.16 113.384 690.487 112.535C690.815 111.684 691.773 110.989 692.618 110.989C693.462 110.989 695.335 110.541 696.779 109.993C699.203 109.075 699.322 108.731 698.31 105.558C697.708 103.665 697.265 100.976 697.327 99.5805C697.388 98.1841 696.412 95.9538 695.158 94.6231C692.615 91.9242 689.053 91.3898 689.053 93.7068ZM363.932 101.544C363.239 102.661 366.57 104.727 369.067 104.727C370.008 104.727 370.706 103.838 370.706 102.64C370.706 101.025 370.008 100.552 367.627 100.552C365.932 100.552 364.27 100.998 363.932 101.544ZM415.736 109.945C415.736 110.519 416.414 110.989 417.245 110.989C418.075 110.989 419.045 110.519 419.401 109.945C419.757 109.371 419.077 108.902 417.892 108.902C416.707 108.902 415.736 109.371 415.736 109.945ZM426.638 132.986C428.129 134.752 429.349 136.562 429.349 137.008C429.349 137.454 430.527 139.086 431.967 140.634C433.407 142.183 434.585 144.327 434.585 145.4C434.585 146.471 436.94 150.087 439.818 153.434C442.716 156.804 444.807 160.168 444.505 160.975C444.205 161.776 444.641 163.185 445.474 164.106C446.307 165.028 447.324 167.19 447.736 168.912L448.483 172.043L445.461 169.301C443.8 167.792 441.362 166.006 440.045 165.33C438.725 164.653 437.381 162.757 437.049 161.102C436.718 159.45 435.321 157.046 433.945 155.758C432.504 154.408 431.444 152.219 431.444 150.594C431.444 149.042 430.741 147.192 429.883 146.482C427.789 144.749 420.923 131.216 421.729 130.411C422.911 129.233 423.914 129.759 426.638 132.986ZM550.679 183.74C549.758 190.535 551.935 193.607 555.696 190.817C557.572 189.425 557.567 189.263 555.536 185.479C552.911 180.589 551.19 179.972 550.679 183.74ZM651.928 190.149C650.865 193.488 640.382 201.276 634.337 203.221C632.268 203.886 631.704 210.564 633.617 211.742C634.229 212.119 635.149 213.53 635.663 214.878C636.34 216.652 637.699 217.509 640.573 217.975C642.759 218.329 645.635 219.062 646.963 219.601C650.208 220.92 653.449 219.104 653.449 215.968C653.449 214.624 654.156 212.939 655.019 212.224C655.883 211.51 656.59 210.432 656.59 209.83C656.59 209.228 657.38 207.866 658.345 206.803C659.692 205.321 659.814 204.583 658.869 203.641C657.304 202.082 657.285 198.147 658.828 195.684C659.796 194.141 659.564 193.262 657.592 191.002C654.751 187.746 652.788 187.45 651.928 190.149ZM663.87 206.545C662.802 207.828 663.564 208.05 669.029 208.05C673.664 208.05 675.44 207.666 675.44 206.663C675.44 204.659 665.525 204.559 663.87 206.545ZM423.499 208.947C423.804 209.44 423.479 211.081 422.775 212.592C421.112 216.161 417.83 216.298 417.83 212.798C417.83 209.58 422.094 206.683 423.499 208.947ZM696.035 209.79C693.626 212.189 698.151 219.064 702.81 220.083C710.213 221.704 715.69 227.228 712.092 229.445C711.516 229.8 711.044 230.819 711.044 231.71C711.044 232.984 711.797 233.19 714.565 232.672C717.067 232.204 718.467 232.473 719.405 233.6C721.373 235.963 726.229 235.587 727.996 232.935C729.154 231.196 730.12 230.841 732.243 231.372C733.754 231.749 735.289 232.998 735.654 234.145C736.421 236.552 738.448 237.759 743.246 238.665C747.959 239.555 747.641 237.678 742.274 232.933C738.624 229.707 738.114 228.804 739.199 227.501C740.274 226.211 740.086 225.716 738.121 224.668C736.812 223.97 735.014 222.537 734.126 221.483C732.448 219.492 716.229 213.283 712.682 213.273C711.568 213.27 709.6 214.256 708.309 215.465C705.764 217.848 703.714 217.378 703.714 214.412C703.714 210.996 698.171 207.659 696.035 209.79ZM660.719 213.971C660.094 215.857 659.97 217.998 660.443 218.727C660.916 219.456 661.303 220.949 661.303 222.047C661.303 223.144 661.892 224.24 662.612 224.482C663.429 224.758 663.921 223.934 663.921 222.287C663.921 220.839 664.392 219.363 664.968 219.008C665.544 218.653 666.015 218.772 666.015 219.271C666.015 219.771 667.012 221.247 668.232 222.552C671.601 226.155 673.009 223.867 670.804 218.372C669.202 214.381 669.187 213.856 670.662 213.033C673.609 211.39 672.387 210.539 667.077 210.539C662.103 210.539 661.802 210.701 660.719 213.971ZM411.215 224.945C410.881 225.776 410.633 225.529 410.583 224.313C410.538 223.213 410.785 222.597 411.132 222.944C411.48 223.29 411.518 224.191 411.215 224.945ZM745.278 223.415C741.467 223.986 742.207 226.314 746.199 226.314C748.261 226.314 749.352 225.726 749.592 224.488C749.785 223.484 749.556 222.731 749.082 222.818C748.607 222.903 746.896 223.172 745.278 223.415ZM623.615 226.176C621.734 227.548 621.757 227.66 624.201 228.987C628.871 231.524 649.26 234.122 649.26 232.179C649.26 231.536 648.587 231.01 647.763 231.01C646.941 231.01 645.497 230.242 644.556 229.304C643.498 228.25 640.767 227.504 637.412 227.352C634.425 227.218 630.654 226.577 629.033 225.928C625.438 224.49 625.963 224.466 623.615 226.176ZM654.234 231.766C649.873 232.412 650.787 234.315 655.281 233.943C657.442 233.766 659.126 233.161 659.025 232.602C658.802 231.361 657.959 231.215 654.234 231.766ZM662.35 233.098C662.706 233.672 663.676 234.141 664.506 234.141C665.336 234.141 666.015 233.672 666.015 233.098C666.015 232.524 665.044 232.054 663.859 232.054C662.673 232.054 661.994 232.524 662.35 233.098ZM674.603 234.161C669.763 237.102 671.41 238.744 676.531 236.084C678.816 234.897 680.947 233.504 681.266 232.989C682.322 231.287 678.115 232.027 674.603 234.161ZM660.255 236.229C660.611 236.803 661.609 237.272 662.473 237.272C663.337 237.272 663.753 236.803 663.397 236.229C663.041 235.655 662.043 235.185 661.179 235.185C660.315 235.185 659.899 235.655 660.255 236.229ZM722.135 241.678C721.166 243.151 720.093 246.169 719.75 248.381C718.998 253.237 716.652 258.146 715.084 258.146C714.457 258.146 711.584 256.42 708.701 254.311C704.243 251.049 703.702 250.298 705.088 249.289C705.984 248.636 707.035 246.84 707.423 245.296C708.074 242.709 707.881 242.491 704.924 242.491C703.161 242.491 700.437 241.909 698.872 241.199C696.61 240.171 695.937 240.171 695.594 241.199C695.08 242.737 692.195 242.948 692.195 241.447C692.195 240.873 691.673 240.403 691.036 240.403C690.398 240.403 690.111 241.012 690.397 241.756C690.684 242.5 689.581 244.732 687.947 246.713C685.311 249.913 684.737 250.172 682.84 249.014C679.536 246.995 677.867 247.415 673.484 251.362C671.252 253.371 668.665 255.015 667.735 255.015C666.791 255.015 665.366 256.629 664.512 258.666C662.934 262.43 661.497 263.31 653.449 265.435C642.105 268.43 635.859 274.048 637.389 279.879C637.683 280.999 637.46 282.2 636.894 282.549C636.281 282.926 636.191 284.626 636.672 286.747C638.006 292.645 637.185 300.753 635.01 303.149C633.102 305.249 633.104 305.334 635.075 306.77C637.684 308.672 639.196 308.625 643.29 306.515C645.133 305.565 648.669 304.819 651.15 304.856C654.091 304.9 657.188 304.052 660.052 302.421C662.467 301.044 665.669 299.912 667.168 299.905C668.665 299.898 671.42 299.361 673.287 298.713C678.713 296.827 684.402 298.99 686.064 303.569C687.523 307.596 688.185 307.933 690.1 305.633C692.014 303.335 693.242 303.72 693.242 306.615C693.242 308.016 693.715 309.453 694.293 309.809C694.871 310.165 695.058 311.595 694.707 312.986C694.181 315.075 694.592 315.721 697.059 316.685C701.638 318.477 709.824 318.645 712.965 317.012C714.5 316.213 716.488 315.558 717.381 315.554C719.44 315.545 736.838 298.66 740.508 293.109C744.418 287.193 745.205 280.772 742.483 276.964C741.319 275.334 740.366 273.543 740.366 272.985C740.366 272.426 739.659 271.385 738.795 270.67C737.931 269.955 737.224 268.505 737.224 267.448C737.224 266.39 736.163 264.968 734.868 264.288C731.644 262.596 731.247 261.792 730.434 255.311C730.01 251.928 729.131 249.44 728.239 249.098C727.421 248.785 726.752 247.26 726.752 245.709C726.752 244.159 726.109 242.014 725.325 240.944C723.958 239.082 723.821 239.113 722.135 241.678ZM424.807 243.795C424.516 244.513 424.279 243.926 424.279 242.491C424.279 241.056 424.516 240.469 424.807 241.186C425.098 241.904 425.098 243.078 424.807 243.795ZM461.833 247.348C460.406 249.437 457.578 251.835 455.55 252.676C450.911 254.601 450.329 255.531 450.309 261.052C450.301 263.512 449.572 266.623 448.689 267.966C447.55 269.698 447.284 271.649 447.773 274.693C448.617 279.957 450.313 281.497 454.305 280.623C457.549 279.914 459.623 275.978 465.049 260.233C466.335 256.502 467.746 253.04 468.183 252.539C468.621 252.039 468.819 251.1 468.624 250.452C468.43 249.805 467.987 247.983 467.639 246.405C466.783 242.509 464.936 242.809 461.833 247.348ZM785.065 307.874C784.691 308.247 784.661 309.644 784.997 310.979C785.456 312.797 784.778 314.236 782.302 316.704C780.483 318.517 779.22 320.584 779.495 321.299C779.771 322.014 779.474 323.118 778.839 323.752C778.202 324.386 777.993 325.217 778.376 325.598C778.757 325.979 782.407 324.059 786.486 321.331C793.597 316.576 794.636 315.067 790.818 315.039C789.662 315.03 788.728 313.687 788.091 311.112C787.14 307.278 786.428 306.517 785.065 307.874ZM768.003 325.904C765.761 327.535 760.307 330.364 755.884 332.191C746.687 335.989 744.79 337.581 747.146 339.53C749.138 341.178 753.48 340.151 757.644 337.048C759.372 335.761 762.907 333.691 765.498 332.446C768.09 331.202 771.598 329.07 773.294 327.708C776.298 325.294 776.322 325.201 774.228 324.085C772.452 323.137 771.37 323.453 768.003 325.904ZM700.224 324.593C699.839 324.975 699.525 326.619 699.525 328.246C699.525 330.465 700.027 331.202 701.534 331.202C704.962 331.202 706.873 330.021 708.492 326.901L710.051 323.897H705.486C702.976 323.897 700.607 324.21 700.224 324.593Z" fill="#E3E3E3"/>
</svg>
