<svg width="509" height="511" viewBox="0 0 509 511" fill="none" xmlns="http://www.w3.org/2000/svg">
<path opacity="0.2" d="M104.495 393.92C104.495 396.652 106.504 399.671 110.522 401.971L167.63 456.601C174.804 460.77 185.852 461.201 192.022 457.607L295.907 397.083C298.92 395.358 300.355 392.914 300.068 390.47C300.068 390.614 300.068 390.758 300.068 390.901C300.068 391.045 300.068 398.665 300.068 398.808C300.068 401.109 298.633 403.265 295.907 404.846L192.022 465.37C185.709 468.964 174.804 468.533 167.63 464.364L110.522 409.734C106.504 407.434 104.495 404.415 104.495 401.684C104.495 400.965 104.495 395.789 104.495 393.92Z" fill="url(#paint0_linear_210_19)"/>
<g opacity="0.2">
<path opacity="0.090909" d="M174.661 335.409L105.644 375.95C105.644 375.95 104.783 376.382 104.783 376.525C99.3302 379.688 96.8909 384.72 97.1779 390.183C97.4649 395.646 101.626 401.827 107.652 405.278L163.756 458.901C169.065 462.064 175.952 463.501 182.553 463.214C187.718 463.214 193.458 461.489 197.188 459.332L300.068 399.527C305.377 396.508 308.247 391.764 308.247 386.445C308.247 380.694 304.66 375.231 298.346 371.637L207.806 336.703C205.941 335.697 203.358 334.547 201.206 333.828C197.619 332.678 193.744 331.959 189.727 331.959C183.844 331.959 178.678 333.109 174.661 335.409Z" fill="black"/>
<path opacity="0.1818" d="M174.947 336.128L105.787 376.669C105.787 376.669 104.926 377.1 104.926 377.244C99.4734 380.551 97.7516 385.582 98.3255 390.902C98.8995 395.789 103.491 402.546 108.8 405.565L163.899 458.182C169.495 461.345 176.669 462.783 183.27 462.208C188.005 462.208 194.318 459.907 197.618 458.039L299.351 398.808C304.373 395.933 307.242 391.333 307.099 386.301C307.099 380.838 303.655 375.663 297.629 372.212L207.519 337.566C205.797 336.559 202.927 335.409 200.919 334.834C197.331 333.684 193.457 332.822 189.583 332.822C184.131 332.678 178.965 333.828 174.947 336.128Z" fill="black"/>
<path opacity="0.2727" d="M175.378 336.847L106.218 377.532C106.074 377.532 105.5 377.963 105.357 378.107C99.9044 381.413 97.8956 386.589 99.7609 391.764C99.7609 396.221 105.644 403.265 110.379 405.997L164.33 457.607C170.069 460.914 177.674 462.208 184.131 461.201C188.292 461.201 195.323 458.47 198.193 456.745L298.921 398.233C303.799 395.502 306.382 391.189 306.238 386.445C306.095 381.269 302.938 376.525 297.055 373.075L207.519 338.572C206.085 337.71 202.641 336.416 201.063 335.841C197.619 334.691 193.745 333.828 189.871 333.684C184.562 333.397 179.396 334.547 175.378 336.847Z" fill="black"/>
<path opacity="0.3636" d="M175.809 337.566L106.505 378.25C106.362 378.25 105.788 378.682 105.644 378.825C100.192 382.132 98.6134 387.451 101.196 392.483C101.196 396.364 107.653 403.84 111.958 406.284L164.904 456.888C170.787 460.339 178.966 461.489 185.279 460.195C188.867 460.195 196.471 456.888 199.054 455.451L298.634 397.515C303.226 394.783 305.665 390.758 305.665 386.301C305.521 381.557 302.365 376.957 296.912 373.794L207.95 339.578C206.659 338.86 202.928 337.422 201.493 336.847C198.05 335.553 194.319 334.691 190.445 334.547C184.992 334.115 179.683 335.266 175.809 337.566Z" fill="black"/>
<path opacity="0.4545" d="M176.24 338.141L106.935 378.826C106.792 378.969 106.218 379.257 106.075 379.401C100.622 382.851 99.4741 388.17 102.631 393.058C102.631 396.364 109.805 404.415 113.392 406.428L165.335 456.17C171.505 459.764 179.97 460.77 186.284 459.189C189.44 459.189 197.619 455.307 199.771 454.013L298.203 396.652C302.651 394.064 304.947 390.326 304.804 386.157C304.66 381.701 301.647 377.388 296.481 374.369L208.094 340.297C206.946 339.722 202.928 338.141 201.637 337.566C198.193 336.272 194.462 335.266 190.588 335.122C185.279 334.978 180.114 335.984 176.24 338.141Z" fill="black"/>
<path opacity="0.5455" d="M176.527 338.86L107.079 379.688C106.936 379.832 106.362 380.119 106.218 380.263C100.909 383.713 100.048 389.176 103.779 393.921C103.779 396.652 111.671 405.134 114.684 406.859L165.622 455.594C171.935 459.189 180.831 460.195 187.145 458.182C189.728 458.182 198.624 453.869 200.489 452.719L297.917 396.077C302.078 393.633 304.23 390.039 304.087 386.157C303.943 381.988 301.073 377.963 296.195 375.088L208.381 341.16C207.52 340.585 203.072 338.86 201.924 338.572C198.624 337.278 194.893 336.272 191.019 335.984C185.71 335.697 180.401 336.703 176.527 338.86Z" fill="black"/>
<path opacity="0.6364" d="M176.957 339.578L107.509 380.407C107.366 380.551 106.792 380.838 106.648 380.982C101.339 384.432 100.765 390.039 105.213 394.639C105.213 396.796 113.822 405.853 116.262 407.147L166.195 454.876C172.652 458.614 181.979 459.476 188.292 457.176C190.301 457.176 199.771 452.288 201.349 451.425L297.629 395.358C301.647 393.058 303.655 389.751 303.369 386.014C303.225 382.132 300.499 378.394 295.764 375.663L208.524 342.022C207.806 341.591 202.928 339.722 202.067 339.435C198.767 338.141 195.036 336.991 191.305 336.703C185.996 336.416 180.831 337.422 176.957 339.578Z" fill="black"/>
<path opacity="0.7273" d="M177.388 340.297L107.797 381.126C107.51 381.269 107.079 381.557 106.936 381.701C101.627 385.295 101.483 390.901 106.506 395.358C106.506 397.083 115.832 406.428 117.554 407.434L166.483 454.157C173.083 458.038 182.841 458.757 189.154 456.17C190.732 456.17 200.776 450.85 201.924 450.132L297.199 394.639C300.93 392.483 302.795 389.32 302.652 386.014C302.508 382.42 299.926 378.969 295.478 376.382L208.812 343.029C208.238 342.741 203.072 340.728 202.498 340.441C199.198 339.147 195.611 337.853 191.88 337.566C186.428 337.278 181.119 338.141 177.388 340.297Z" fill="black"/>
<path opacity="0.8182" d="M177.818 341.016L108.083 381.845C107.796 381.988 107.509 382.276 107.222 382.42C101.913 386.014 102.2 391.764 107.796 396.077C107.796 397.227 117.697 407.147 118.988 407.722L166.769 453.438C173.657 457.463 183.701 458.038 190.014 455.163C191.019 455.163 201.637 449.269 202.498 448.838L296.625 394.064C300.212 392.052 301.791 389.176 301.647 386.014C301.36 382.851 299.064 379.544 294.903 377.1L208.811 343.891C208.381 343.748 202.928 341.591 202.498 341.447C199.197 340.154 195.61 338.86 191.88 338.428C186.714 337.997 181.549 338.86 177.818 341.016Z" fill="black"/>
<path opacity="0.9091" d="M178.104 341.591L108.37 382.563C108.083 382.707 107.796 382.995 107.509 383.138C102.2 386.732 102.917 392.627 109.087 396.796C109.087 397.371 119.705 407.722 120.279 408.009L167.056 452.719C174.087 456.745 184.561 457.32 190.875 454.013C191.449 454.013 202.641 447.688 203.071 447.4L296.194 393.202C299.494 391.333 301.073 388.601 300.786 385.87C300.499 382.995 298.346 379.976 294.472 377.819L208.954 344.898C208.811 344.754 202.784 342.454 202.641 342.454C199.484 341.016 195.897 339.722 192.166 339.291C187.144 338.716 181.835 339.435 178.104 341.591Z" fill="black"/>
<path d="M192.023 453.007L295.908 392.627C302.221 389.033 301.36 382.707 294.186 378.538L203.072 343.46C195.897 339.291 184.849 338.86 178.679 342.454L108.801 383.426C102.487 387.02 103.348 393.345 110.523 397.515L167.63 452.144C174.805 456.17 185.71 456.745 192.023 453.007Z" fill="black"/>
</g>
<path d="M192.022 452.863L295.906 392.339C298.633 390.758 300.068 388.601 300.068 386.301C300.068 386.157 300.068 378.538 300.068 378.394C300.068 375.663 298.059 380.407 294.041 378.107L202.927 343.029C195.753 338.86 184.704 338.428 178.534 342.022L108.656 382.995C106.504 384.145 105.069 379.113 104.495 380.694C104.352 381.269 104.495 388.458 104.352 389.033C104.352 391.908 106.36 394.783 110.378 397.083L167.486 451.713C174.804 456.026 185.709 456.601 192.022 452.863Z" fill="url(#paint1_linear_210_19)"/>
<path d="M192.023 445.244L295.907 384.72C302.221 381.126 301.36 374.8 294.185 370.631L203.071 335.553C195.897 331.384 184.849 330.953 178.679 334.547L108.801 375.519C102.487 379.113 103.348 385.439 110.522 389.608L167.63 444.237C174.804 448.406 185.709 448.838 192.023 445.244Z" fill="url(#paint2_linear_210_19)"/>
<path opacity="0.8182" d="M108.801 375.519L178.679 334.547C184.992 330.953 195.897 331.384 203.072 335.553L248.988 353.236C248.557 353.523 248.127 353.955 247.553 354.242L143.668 414.766C142.233 415.629 140.512 416.204 138.646 416.635L110.523 389.751C103.205 385.439 102.488 379.113 108.801 375.519Z" fill="url(#paint3_linear_210_19)"/>
<path d="M110.522 388.314L167.63 442.943C174.805 447.113 185.853 447.544 192.023 443.95L295.907 383.426C298.49 381.988 299.925 379.976 300.068 377.819C300.355 380.407 299.064 382.851 295.907 384.72L192.023 445.244C185.71 448.838 174.805 448.406 167.63 444.237L110.522 389.608C106.361 387.164 104.353 384.001 104.639 380.982C104.926 383.57 106.935 386.157 110.522 388.314Z" fill="url(#paint4_radial_210_19)"/>
<path d="M56.2848 445.531L311.404 297.744C324.462 290.268 335.08 269.998 335.08 252.459V56.942C335.08 39.5468 324.462 31.4961 311.404 39.1155L56.2848 186.903C43.2275 194.379 32.6095 214.649 32.6095 232.188V427.705C32.6095 445.1 43.2275 453.007 56.2848 445.531Z" fill="url(#paint5_linear_210_19)"/>
<path opacity="0.7" d="M53.2707 431.874L304.803 286.243C315.278 279.63 321.735 266.26 321.735 252.602V55.7919C321.735 52.4854 318.147 50.4727 315.421 52.1979C315.134 52.3416 314.847 52.4854 314.704 52.6292L62.8843 198.404C50.401 205.592 45.9529 218.387 45.9529 232.044V428.28C45.9529 431.73 49.6835 433.886 52.6968 432.161C52.9837 432.161 53.1272 432.017 53.2707 431.874Z" fill="#2D2D2D"/>
<path d="M45.9529 232.044V428.28C45.9529 431.73 49.6835 433.886 52.6968 432.161C52.9837 432.017 53.1272 431.874 53.2707 431.874L304.803 286.243C315.278 279.63 321.735 266.26 321.735 252.602V55.7919C321.735 52.4854 318.147 50.4727 315.421 52.1979C315.134 52.3416 314.847 52.4854 314.704 52.6292L62.8843 198.404C50.401 205.592 45.9529 218.387 45.9529 232.044ZM48.5356 232.044C48.5356 221.837 51.2619 208.18 64.1757 200.704L316.712 54.4981C316.999 54.3543 317.286 54.2105 317.43 54.2105C318.147 54.2105 319.008 54.7856 319.008 55.7919V252.602C319.008 265.685 312.838 277.904 303.368 283.942L51.4054 429.861C51.1184 430.005 50.8314 430.149 50.5445 430.149C49.6835 430.149 48.6791 429.43 48.6791 428.28V232.044H48.5356Z" fill="#414141"/>
<path d="M49.5403 183.309L304.803 35.6652C309.969 32.6462 314.704 32.0711 318.578 33.6525C319.009 33.7963 325.609 37.3903 326.183 37.6779C322.165 35.6652 317 36.0965 311.547 39.2593L56.2842 186.903C43.2269 194.379 32.6089 214.649 32.6089 232.188V427.705C32.6089 438.631 36.77 445.819 42.9399 447.831C42.366 447.831 41.792 447.688 40.9311 447.112C40.6441 446.969 33.4698 442.943 33.1828 442.656C28.7347 439.493 25.865 433.024 25.865 424.111V228.594C26.0085 211.055 36.483 190.928 49.5403 183.309Z" fill="url(#paint6_linear_210_19)"/>
<path d="M55.1355 186.328L310.255 38.5405C315.564 35.3777 320.586 34.9464 324.46 36.6715C321.017 36.0965 317.142 36.9591 313.125 39.403L58.0053 187.191C44.948 194.666 34.3299 214.937 34.3299 232.476V427.992C34.3299 438.343 38.0606 445.244 43.6566 447.688C36.3388 446.537 31.4602 439.062 31.4602 427.13V231.613C31.4602 214.074 42.0782 193.804 55.1355 186.328Z" fill="url(#paint7_radial_210_19)"/>
<path d="M0.324463 407.865H1.75933V212.349C1.75933 195.241 12.2339 175.115 25.0042 167.783L280.124 19.9951L279.406 18.845L24.2868 166.633C11.086 174.252 0.324463 194.81 0.324463 212.349V407.865Z" fill="url(#paint8_radial_210_19)"/>
<path d="M181.405 480.034C185.566 480.034 189.44 479.171 192.31 477.446L296.195 416.922L295.477 415.772L191.593 476.296C185.566 479.747 174.948 479.315 167.917 475.29L110.81 420.804L109.805 421.81L167.057 476.584C171.361 478.884 176.527 480.034 181.405 480.034Z" fill="url(#paint9_radial_210_19)"/>
<mask id="mask0_210_19" style="mask-type:alpha" maskUnits="userSpaceOnUse" x="87" y="14" width="307" height="415">
<path d="M87.1172 217.512V428.411L393.748 239.076V14.8075L87.1172 217.512Z" fill="url(#paint10_linear_210_19)"/>
</mask>
<g mask="url(#mask0_210_19)">
<path opacity="0.7" d="M99.3137 337.554C98.5962 338.272 99.1702 335.397 100.031 334.966C116.532 326.053 123.993 309.951 131.168 294.569C137.051 282.061 142.503 270.273 152.404 264.379C163.165 257.909 170.627 256.903 176.51 256.04C182.393 255.178 186.554 254.603 192.006 249.284C196.024 245.402 197.172 234.045 198.463 222.113C200.759 200.836 203.485 176.54 221.708 172.802C236.057 169.927 243.661 153.538 251.123 137.58C256.719 125.504 262.028 114.147 270.206 109.978C271.273 109.437 273.265 108.778 273.265 108.778C273.265 108.778 273.265 245.157 273.265 301.616L97.8788 402.965C98.1658 402.965 99.6006 337.41 99.3137 337.554Z" fill="url(#paint11_linear_210_19)"/>
<path opacity="0.62" d="M103.762 338.56C103.044 338.56 102.47 338.129 102.04 337.553C101.466 336.691 101.897 335.397 102.757 334.966C119.115 326.053 126.433 310.239 133.607 295C139.347 282.636 144.799 270.992 154.7 265.097C165.461 258.772 172.636 257.622 178.518 256.759C184.258 255.897 188.419 255.322 193.872 250.146C197.746 246.265 199.037 235.051 200.328 223.263C202.624 202.13 205.207 178.265 223.43 174.527C237.635 171.652 245.24 155.407 252.558 139.737C258.154 127.805 263.463 116.591 271.354 112.422C272.185 111.995 273.761 111.407 273.761 111.407L275.249 114.848C275.249 114.848 273.745 115.322 272.933 115.729C266.045 119.179 261.023 129.961 255.858 141.174C248.54 156.988 240.074 174.815 224.004 178.121C208.651 181.284 206.068 203.711 203.916 223.55C202.481 236.632 201.189 247.99 196.311 252.878C189.997 258.916 184.832 259.634 178.949 260.641C173.066 261.503 166.609 262.51 156.422 268.404C147.525 273.579 142.36 284.793 136.907 296.581C129.876 311.676 121.985 328.784 104.479 338.272C104.336 338.56 104.049 338.56 103.762 338.56Z" fill="#FFD600"/>
</g>
<mask id="mask1_210_19" style="mask-type:alpha" maskUnits="userSpaceOnUse" x="44" y="0" width="402" height="410">
<path d="M445.26 0H44.6447V409.147H445.26V0Z" fill="url(#paint12_linear_210_19)"/>
</mask>
<g mask="url(#mask1_210_19)">
<path d="M192.436 316.852C192.006 316.852 191.719 316.564 191.719 316.133V313.258C191.719 312.826 192.006 312.539 192.436 312.539C192.867 312.539 193.154 312.826 193.154 313.258V316.133C193.154 316.564 192.867 316.852 192.436 316.852ZM192.436 309.664C192.006 309.664 191.719 309.376 191.719 308.945V306.07C191.719 305.638 192.006 305.351 192.436 305.351C192.867 305.351 193.154 305.638 193.154 306.07V308.945C193.154 309.376 192.867 309.664 192.436 309.664ZM192.436 302.476C192.006 302.476 191.719 302.188 191.719 301.757V298.882C191.719 298.45 192.006 298.163 192.436 298.163C192.867 298.163 193.154 298.45 193.154 298.882V301.757C193.154 302.188 192.867 302.476 192.436 302.476ZM192.436 295.287C192.006 295.287 191.719 295 191.719 294.569V291.693C191.719 291.262 192.006 290.975 192.436 290.975C192.867 290.975 193.154 291.262 193.154 291.693V294.569C193.154 295 192.867 295.287 192.436 295.287ZM192.436 288.099C192.006 288.099 191.719 287.812 191.719 287.381V284.505C191.719 284.074 192.006 283.786 192.436 283.786C192.867 283.786 193.154 284.074 193.154 284.505V287.381C193.154 287.812 192.867 288.099 192.436 288.099ZM192.436 280.911C192.006 280.911 191.719 280.624 191.719 280.192V277.317C191.719 276.886 192.006 276.598 192.436 276.598C192.867 276.598 193.154 276.886 193.154 277.317V280.192C193.154 280.624 192.867 280.911 192.436 280.911ZM192.436 273.723C192.006 273.723 191.719 273.436 191.719 273.004V270.129C191.719 269.698 192.006 269.41 192.436 269.41C192.867 269.41 193.154 269.698 193.154 270.129V273.004C193.154 273.436 192.867 273.723 192.436 273.723ZM192.436 266.535C192.006 266.535 191.719 266.248 191.719 265.816V262.941C191.719 262.51 192.006 262.222 192.436 262.222C192.867 262.222 193.154 262.51 193.154 262.941V265.816C193.154 266.248 192.867 266.535 192.436 266.535ZM192.436 259.347C192.006 259.347 191.719 259.059 191.719 258.628V255.753C191.719 255.322 192.006 255.034 192.436 255.034C192.867 255.034 193.154 255.322 193.154 255.753V258.628C193.154 259.059 192.867 259.347 192.436 259.347Z" fill="#FFC700"/>
<path d="M113.52 362.568C113.089 362.568 112.802 362.281 112.802 361.849V358.974C112.802 358.543 113.089 358.255 113.52 358.255C113.95 358.255 114.237 358.543 114.237 358.974V361.849C114.237 362.281 113.95 362.568 113.52 362.568ZM113.52 355.38C113.089 355.38 112.802 355.092 112.802 354.661V351.786C112.802 351.355 113.089 351.067 113.52 351.067C113.95 351.067 114.237 351.355 114.237 351.786V354.661C114.237 355.092 113.95 355.38 113.52 355.38ZM113.52 348.192C113.089 348.192 112.802 347.904 112.802 347.473V344.598C112.802 344.167 113.089 343.879 113.52 343.879C113.95 343.879 114.237 344.167 114.237 344.598V347.473C114.237 347.904 113.95 348.192 113.52 348.192Z" fill="#FFC700"/>
<path d="M152.834 338.847C152.404 338.847 152.117 338.56 152.117 338.129V335.253C152.117 334.822 152.404 334.535 152.834 334.535C153.265 334.535 153.552 334.822 153.552 335.253V338.129C153.552 338.56 153.265 338.847 152.834 338.847ZM152.834 331.659C152.404 331.659 152.117 331.372 152.117 330.94V328.065C152.117 327.634 152.404 327.346 152.834 327.346C153.265 327.346 153.552 327.634 153.552 328.065V330.94C153.552 331.372 153.265 331.659 152.834 331.659ZM152.834 324.471C152.404 324.471 152.117 324.184 152.117 323.752V320.877C152.117 320.446 152.404 320.158 152.834 320.158C153.265 320.158 153.552 320.446 153.552 320.877V323.752C153.552 324.184 153.265 324.471 152.834 324.471ZM152.834 317.283C152.404 317.283 152.117 316.996 152.117 316.564V313.689C152.117 313.258 152.404 312.97 152.834 312.97C153.265 312.97 153.552 313.258 153.552 313.689V316.564C153.552 316.996 153.265 317.283 152.834 317.283ZM152.834 310.095C152.404 310.095 152.117 309.807 152.117 309.376V306.501C152.117 306.07 152.404 305.782 152.834 305.782C153.265 305.782 153.552 306.07 153.552 306.501V309.376C153.552 309.807 153.265 310.095 152.834 310.095ZM152.834 302.907C152.404 302.907 152.117 302.619 152.117 302.188V299.313C152.117 298.882 152.404 298.594 152.834 298.594C153.265 298.594 153.552 298.882 153.552 299.313V302.188C153.552 302.619 153.265 302.907 152.834 302.907ZM152.834 295.719C152.404 295.719 152.117 295.431 152.117 295V292.125C152.117 291.693 152.404 291.406 152.834 291.406C153.265 291.406 153.552 291.693 153.552 292.125V295C153.552 295.431 153.265 295.719 152.834 295.719ZM152.834 288.531C152.404 288.531 152.117 288.243 152.117 287.812V284.937C152.117 284.505 152.404 284.218 152.834 284.218C153.265 284.218 153.552 284.505 153.552 284.937V287.812C153.552 288.243 153.265 288.531 152.834 288.531Z" fill="#FFC700"/>
<path d="M231.751 294.425C231.321 294.425 231.034 294.137 231.034 293.706V290.831C231.034 290.4 231.321 290.112 231.751 290.112C232.182 290.112 232.469 290.4 232.469 290.831V293.706C232.469 294.137 232.182 294.425 231.751 294.425ZM231.751 287.237C231.321 287.237 231.034 286.949 231.034 286.518V283.643C231.034 283.211 231.321 282.924 231.751 282.924C232.182 282.924 232.469 283.211 232.469 283.643V286.518C232.469 286.949 232.182 287.237 231.751 287.237ZM231.751 280.049C231.321 280.049 231.034 279.761 231.034 279.33V276.455C231.034 276.023 231.321 275.736 231.751 275.736C232.182 275.736 232.469 276.023 232.469 276.455V279.33C232.469 279.761 232.182 280.049 231.751 280.049ZM231.751 272.861C231.321 272.861 231.034 272.573 231.034 272.142V269.267C231.034 268.835 231.321 268.548 231.751 268.548C232.182 268.548 232.469 268.835 232.469 269.267V272.142C232.469 272.573 232.182 272.861 231.751 272.861ZM231.751 265.672C231.321 265.672 231.034 265.385 231.034 264.954V262.078C231.034 261.647 231.321 261.36 231.751 261.36C232.182 261.36 232.469 261.647 232.469 262.078V264.954C232.469 265.385 232.182 265.672 231.751 265.672ZM231.751 258.484C231.321 258.484 231.034 258.197 231.034 257.766V254.89C231.034 254.459 231.321 254.171 231.751 254.171C232.182 254.171 232.469 254.459 232.469 254.89V257.766C232.469 258.197 232.182 258.484 231.751 258.484ZM231.751 251.296C231.321 251.296 231.034 251.009 231.034 250.577V247.702C231.034 247.271 231.321 246.983 231.751 246.983C232.182 246.983 232.469 247.271 232.469 247.702V250.577C232.469 251.009 232.182 251.296 231.751 251.296ZM231.751 244.108C231.321 244.108 231.034 243.821 231.034 243.389V240.514C231.034 240.083 231.321 239.795 231.751 239.795C232.182 239.795 232.469 240.083 232.469 240.514V243.389C232.469 243.821 232.182 244.108 231.751 244.108ZM231.751 236.92C231.321 236.92 231.034 236.632 231.034 236.201V233.326C231.034 232.895 231.321 232.607 231.751 232.607C232.182 232.607 232.469 232.895 232.469 233.326V236.201C232.469 236.632 232.182 236.92 231.751 236.92ZM231.751 229.732C231.321 229.732 231.034 229.444 231.034 229.013V226.138C231.034 225.707 231.321 225.419 231.751 225.419C232.182 225.419 232.469 225.707 232.469 226.138V229.013C232.469 229.444 232.182 229.732 231.751 229.732ZM231.751 222.544C231.321 222.544 231.034 222.256 231.034 221.825V218.95C231.034 218.518 231.321 218.231 231.751 218.231C232.182 218.231 232.469 218.518 232.469 218.95V221.825C232.469 222.256 232.182 222.544 231.751 222.544ZM231.751 215.356C231.321 215.356 231.034 215.068 231.034 214.637V211.762C231.034 211.33 231.321 211.043 231.751 211.043C232.182 211.043 232.469 211.33 232.469 211.762V214.637C232.469 215.068 232.182 215.356 231.751 215.356ZM231.751 208.168C231.321 208.168 231.034 207.88 231.034 207.449V204.574C231.034 204.142 231.321 203.855 231.751 203.855C232.182 203.855 232.469 204.142 232.469 204.574V207.449C232.469 207.88 232.182 208.168 231.751 208.168ZM231.751 200.979C231.321 200.979 231.034 200.692 231.034 200.261V197.385C231.034 196.954 231.321 196.667 231.751 196.667C232.182 196.667 232.469 196.954 232.469 197.385V200.261C232.469 200.692 232.182 200.979 231.751 200.979ZM231.751 193.791C231.321 193.791 231.034 193.504 231.034 193.073V190.197C231.034 189.766 231.321 189.479 231.751 189.479C232.182 189.479 232.469 189.766 232.469 190.197V193.073C232.469 193.504 232.182 193.791 231.751 193.791ZM231.751 186.603C231.321 186.603 231.034 186.316 231.034 185.884V183.009C231.034 182.578 231.321 182.29 231.751 182.29C232.182 182.29 232.469 182.578 232.469 183.009V185.884C232.469 186.316 232.182 186.603 231.751 186.603ZM231.751 179.415C231.321 179.415 231.034 179.128 231.034 178.696V175.821C231.034 175.39 231.321 175.102 231.751 175.102C232.182 175.102 232.469 175.39 232.469 175.821V178.696C232.469 179.128 232.182 179.415 231.751 179.415Z" fill="#FFC700"/>
<path d="M271.068 271.567C270.638 271.567 270.351 271.279 270.351 270.848V267.973C270.351 267.541 270.638 267.254 271.068 267.254C271.499 267.254 271.786 267.541 271.786 267.973V270.848C271.786 271.279 271.499 271.567 271.068 271.567ZM271.068 264.379C270.638 264.379 270.351 264.091 270.351 263.66V260.785C270.351 260.353 270.638 260.066 271.068 260.066C271.499 260.066 271.786 260.353 271.786 260.785V263.66C271.786 264.091 271.499 264.379 271.068 264.379ZM271.068 257.191C270.638 257.191 270.351 256.903 270.351 256.472V253.596C270.351 253.165 270.638 252.878 271.068 252.878C271.499 252.878 271.786 253.165 271.786 253.596V256.472C271.786 256.903 271.499 257.191 271.068 257.191ZM271.068 250.002C270.638 250.002 270.351 249.715 270.351 249.284V246.408C270.351 245.977 270.638 245.69 271.068 245.69C271.499 245.69 271.786 245.977 271.786 246.408V249.284C271.786 249.715 271.499 250.002 271.068 250.002ZM271.068 242.814C270.638 242.814 270.351 242.527 270.351 242.095V239.22C270.351 238.789 270.638 238.501 271.068 238.501C271.499 238.501 271.786 238.789 271.786 239.22V242.095C271.786 242.527 271.499 242.814 271.068 242.814ZM271.068 235.626C270.638 235.626 270.351 235.339 270.351 234.907V232.032C270.351 231.601 270.638 231.313 271.068 231.313C271.499 231.313 271.786 231.601 271.786 232.032V234.907C271.786 235.339 271.499 235.626 271.068 235.626ZM271.068 228.438C270.638 228.438 270.351 228.151 270.351 227.719V224.844C270.351 224.413 270.638 224.125 271.068 224.125C271.499 224.125 271.786 224.413 271.786 224.844V227.719C271.786 228.151 271.499 228.438 271.068 228.438ZM271.068 221.25C270.638 221.25 270.351 220.962 270.351 220.531V217.656C270.351 217.225 270.638 216.937 271.068 216.937C271.499 216.937 271.786 217.225 271.786 217.656V220.531C271.786 220.962 271.499 221.25 271.068 221.25ZM271.068 214.062C270.638 214.062 270.351 213.774 270.351 213.343V210.468C270.351 210.037 270.638 209.749 271.068 209.749C271.499 209.749 271.786 210.037 271.786 210.468V213.343C271.786 213.774 271.499 214.062 271.068 214.062ZM271.068 206.874C270.638 206.874 270.351 206.586 270.351 206.155V203.28C270.351 202.848 270.638 202.561 271.068 202.561C271.499 202.561 271.786 202.848 271.786 203.28V206.155C271.786 206.586 271.499 206.874 271.068 206.874ZM271.068 199.686C270.638 199.686 270.351 199.398 270.351 198.967V196.092C270.351 195.66 270.638 195.373 271.068 195.373C271.499 195.373 271.786 195.66 271.786 196.092V198.967C271.786 199.398 271.499 199.686 271.068 199.686ZM271.068 192.498C270.638 192.498 270.351 192.21 270.351 191.779V188.903C270.351 188.472 270.638 188.185 271.068 188.185C271.499 188.185 271.786 188.472 271.786 188.903V191.779C271.786 192.21 271.499 192.498 271.068 192.498ZM271.068 185.309C270.638 185.309 270.351 185.022 270.351 184.591V181.715C270.351 181.284 270.638 180.997 271.068 180.997C271.499 180.997 271.786 181.284 271.786 181.715V184.591C271.786 185.022 271.499 185.309 271.068 185.309ZM271.068 178.121C270.638 178.121 270.351 177.834 270.351 177.403V174.527C270.351 174.096 270.638 173.808 271.068 173.808C271.499 173.808 271.786 174.096 271.786 174.527V177.403C271.786 177.834 271.499 178.121 271.068 178.121ZM271.068 170.933C270.638 170.933 270.351 170.646 270.351 170.214V167.339C270.351 166.908 270.638 166.62 271.068 166.62C271.499 166.62 271.786 166.908 271.786 167.339V170.214C271.786 170.646 271.499 170.933 271.068 170.933ZM271.068 163.745C270.638 163.745 270.351 163.458 270.351 163.026V160.151C270.351 159.72 270.638 159.432 271.068 159.432C271.499 159.432 271.786 159.72 271.786 160.151V163.026C271.786 163.458 271.499 163.745 271.068 163.745ZM271.068 156.557C270.638 156.557 270.351 156.269 270.351 155.838V152.963C270.351 152.532 270.638 152.244 271.068 152.244C271.499 152.244 271.786 152.532 271.786 152.963V155.838C271.786 156.269 271.499 156.557 271.068 156.557ZM271.068 149.369C270.638 149.369 270.351 149.081 270.351 148.65V145.775C270.351 145.344 270.638 145.056 271.068 145.056C271.499 145.056 271.786 145.344 271.786 145.775V148.65C271.786 149.081 271.499 149.369 271.068 149.369ZM271.068 142.181C270.638 142.181 270.351 141.893 270.351 141.462V138.587C270.351 138.155 270.638 137.868 271.068 137.868C271.499 137.868 271.786 138.155 271.786 138.587V141.462C271.786 141.893 271.499 142.181 271.068 142.181ZM271.068 134.993C270.638 134.993 270.351 134.705 270.351 134.274V131.399C270.351 130.967 270.638 130.68 271.068 130.68C271.499 130.68 271.786 130.967 271.786 131.399V134.274C271.786 134.705 271.499 134.993 271.068 134.993ZM271.068 127.805C270.638 127.805 270.351 127.517 270.351 127.086V124.211C270.351 123.779 270.638 123.492 271.068 123.492C271.499 123.492 271.786 123.779 271.786 124.211V127.086C271.786 127.517 271.499 127.805 271.068 127.805Z" fill="#FFC700"/>
<path d="M118.255 374.213C118.255 376.082 117.968 377.663 117.394 378.957C116.82 380.251 116.102 381.114 114.954 381.689C113.95 382.264 113.089 382.264 112.515 381.689C111.941 381.114 111.654 379.82 111.654 377.951C111.654 376.082 111.941 374.501 112.515 373.207C113.089 371.913 113.807 371.05 114.954 370.475C115.959 369.9 116.82 369.9 117.394 370.475C117.968 371.194 118.255 372.344 118.255 374.213ZM113.233 377.088C113.233 378.526 113.376 379.532 113.663 380.107C113.95 380.539 114.381 380.682 114.954 380.395C115.528 380.107 115.959 379.532 116.246 378.67C116.533 377.807 116.676 376.657 116.676 375.219C116.676 373.782 116.533 372.775 116.246 372.344C115.959 371.913 115.528 371.769 114.954 372.057C114.381 372.344 113.95 372.919 113.663 373.782C113.376 374.357 113.233 375.507 113.233 377.088Z" fill="#FFC700"/>
<path d="M155.131 358.255L153.552 359.118V352.074C153.552 351.211 153.552 350.492 153.552 350.061C153.409 350.205 153.265 350.492 153.122 350.636C152.978 350.923 152.548 351.642 151.687 352.792L150.969 352.074L153.696 347.904L154.987 347.186V358.255H155.131Z" fill="#FFC700"/>
<path d="M165.031 347.186C165.031 349.055 164.744 350.636 164.17 351.93C163.596 353.224 162.879 354.086 161.731 354.661C160.727 355.236 159.866 355.236 159.292 354.661C158.718 354.086 158.431 352.792 158.431 350.923C158.431 349.055 158.718 347.473 159.292 346.179C159.866 344.885 160.583 344.023 161.731 343.448C162.735 342.873 163.596 342.873 164.17 343.448C164.744 344.023 165.031 345.317 165.031 347.186ZM160.153 349.917C160.153 351.355 160.296 352.361 160.583 352.936C160.87 353.367 161.301 353.511 161.874 353.224C162.448 352.936 162.879 352.361 163.166 351.498C163.453 350.636 163.596 349.486 163.596 348.048C163.596 346.611 163.453 345.604 163.166 345.029C162.879 344.598 162.448 344.454 161.874 344.742C161.301 345.029 160.87 345.604 160.583 346.467C160.296 347.329 160.153 348.48 160.153 349.917Z" fill="#FFC700"/>
<path d="M195.307 335.11L188.85 338.847V337.554L191.29 333.241C192.007 331.947 192.438 331.084 192.725 330.653C193.012 330.222 193.155 329.79 193.299 329.359C193.442 328.928 193.442 328.64 193.442 328.209C193.442 327.778 193.299 327.346 193.012 327.203C192.725 327.059 192.438 327.203 192.007 327.347C191.577 327.49 191.29 327.778 191.003 328.209C190.716 328.497 190.285 329.072 189.855 329.79L188.994 329.072C189.568 328.209 189.998 327.634 190.572 327.059C191.003 326.628 191.577 326.196 192.151 325.765C193.012 325.19 193.729 325.046 194.303 325.334C194.877 325.621 195.164 326.053 195.164 327.059C195.164 327.49 195.02 328.065 194.877 328.64C194.733 329.215 194.446 329.79 194.159 330.366C193.872 331.084 193.299 331.947 192.581 333.241L190.859 335.972V336.116L195.307 333.528V335.11V335.11Z" fill="#FFC700"/>
<path d="M203.199 325.046C203.199 326.915 202.912 328.497 202.338 329.791C201.764 331.084 201.047 331.947 199.899 332.522C198.894 333.097 198.033 333.097 197.459 332.522C196.885 331.947 196.599 330.653 196.599 328.784C196.599 326.915 196.885 325.334 197.459 324.04C198.033 322.746 198.751 321.884 199.899 321.309C200.903 320.733 201.764 320.733 202.338 321.309C202.912 321.884 203.199 323.177 203.199 325.046ZM198.32 327.922C198.32 329.359 198.464 330.366 198.751 330.941C199.038 331.372 199.468 331.516 200.042 331.228C200.616 330.941 201.047 330.366 201.334 329.503C201.621 328.64 201.764 327.49 201.764 326.053C201.764 324.615 201.621 323.609 201.334 323.177C201.047 322.746 200.616 322.602 200.042 322.89C199.468 323.177 199.038 323.753 198.751 324.615C198.464 325.19 198.32 326.34 198.32 327.922Z" fill="#FFC700"/>
<path d="M233.475 304.632C233.475 305.351 233.332 306.07 232.901 306.645C232.614 307.364 232.04 307.939 231.466 308.37C232.184 308.082 232.758 307.939 233.188 308.226C233.618 308.514 233.762 308.945 233.762 309.664C233.762 310.67 233.475 311.676 232.758 312.683C232.04 313.689 231.179 314.408 230.031 315.127C229.027 315.702 228.022 315.989 227.305 316.133V314.552C227.736 314.552 228.166 314.408 228.596 314.408C229.027 314.264 229.457 314.12 229.888 313.833C230.605 313.402 231.179 312.97 231.61 312.395C232.04 311.82 232.184 311.245 232.184 310.67C232.184 310.095 232.04 309.808 231.61 309.664C231.179 309.664 230.605 309.808 229.744 310.383L228.883 310.814V309.376L229.744 308.945C231.323 308.082 232.04 307.076 232.04 305.782C232.04 305.351 231.897 305.063 231.61 304.92C231.323 304.776 230.892 304.92 230.462 305.207C230.031 305.351 229.744 305.638 229.457 305.926C229.17 306.214 228.74 306.645 228.309 307.364L227.592 306.501C228.453 305.207 229.457 304.345 230.605 303.626C231.61 303.051 232.327 302.907 232.901 303.051C233.188 303.195 233.475 303.77 233.475 304.632Z" fill="#FFC700"/>
<path d="M241.797 302.763C241.797 304.632 241.51 306.213 240.936 307.507C240.363 308.801 239.645 309.664 238.497 310.239C237.493 310.814 236.632 310.814 236.058 310.239C235.484 309.664 235.197 308.37 235.197 306.501C235.197 304.632 235.484 303.051 236.058 301.757C236.632 300.607 237.349 299.6 238.497 299.025C239.502 298.45 240.363 298.45 240.936 299.025C241.51 299.6 241.797 300.894 241.797 302.763ZM236.919 305.638C236.919 307.076 237.062 308.082 237.349 308.657C237.636 309.089 238.067 309.232 238.641 308.945C239.215 308.657 239.645 308.082 239.932 307.22C240.219 306.357 240.363 305.207 240.363 303.769C240.363 302.332 240.219 301.326 239.932 300.751C239.645 300.319 239.215 300.175 238.641 300.463C238.067 300.75 237.636 301.326 237.349 302.188C237.062 302.907 236.919 304.057 236.919 305.638Z" fill="#FFC700"/>
<path d="M272.79 287.956L271.499 288.674V291.118L270.064 291.981V289.537L265.76 291.981V290.687L270.064 280.911L271.499 280.049V287.237L272.79 286.518V287.956ZM269.921 288.099V285.368C269.921 284.362 269.921 283.643 269.921 282.924C269.777 283.355 269.634 283.787 269.347 284.505L267.051 289.825L269.921 288.099Z" fill="#FFC700"/>
<path d="M280.252 280.48C280.252 282.349 279.965 283.93 279.391 285.224C278.817 286.518 278.1 287.381 276.952 287.956C275.948 288.531 275.087 288.531 274.513 287.956C273.939 287.381 273.652 286.087 273.652 284.218C273.652 282.349 273.939 280.768 274.513 279.474C275.087 278.18 275.804 277.317 276.952 276.742C277.956 276.167 278.817 276.167 279.391 276.742C280.109 277.317 280.252 278.611 280.252 280.48ZM275.374 283.211C275.374 284.649 275.517 285.655 275.804 286.231C276.091 286.662 276.521 286.806 277.095 286.518C277.669 286.231 278.1 285.655 278.387 284.793C278.674 283.93 278.817 282.78 278.817 281.343C278.817 279.905 278.674 278.899 278.387 278.467C278.1 278.036 277.669 277.892 277.095 278.18C276.521 278.467 276.091 279.042 275.804 279.905C275.517 280.624 275.374 281.774 275.374 283.211Z" fill="#FFC700"/>
<path d="M101.036 338.56C100.319 338.56 99.7448 338.129 99.3143 337.554C98.7404 336.547 99.1708 335.397 100.032 334.966C116.533 326.053 123.994 309.951 131.168 294.569C137.051 282.061 142.504 270.273 152.404 264.378C163.166 257.909 170.627 256.903 176.51 256.04C182.393 255.178 186.554 254.603 192.007 249.283C196.024 245.402 197.172 234.045 198.464 222.112C200.759 200.835 203.486 176.54 221.709 172.802C236.057 169.927 243.662 153.538 251.123 137.58C256.719 125.504 262.028 114.147 270.207 109.978C272.881 108.622 275.632 103.545 278.225 105.912C280.995 108.439 272.072 113.285 272.072 113.285C265.185 116.879 260.163 127.661 254.71 139.018C247.249 154.975 238.783 173.089 222.569 176.396C206.929 179.559 204.49 202.273 202.338 222.256C200.903 235.482 199.612 246.984 194.59 251.871C188.276 258.053 183.111 258.772 176.941 259.634C171.058 260.497 164.457 261.503 154.27 267.541C145.374 272.861 140.065 284.074 134.469 296.006C127.438 311.245 119.259 328.64 101.61 338.128C101.61 338.56 101.323 338.56 101.036 338.56Z" fill="#FEC704"/>
<path d="M268.915 273.148L268.485 216.075V214.062L268.054 121.335C268.054 120.473 268.341 118.029 269.059 117.454C269.489 116.735 270.35 116.16 271.355 116.16C272.359 116.16 273.22 116.735 273.65 117.454C274.224 117.885 274.511 120.185 274.511 121.048L274.081 214.062V216.362L273.794 269.41L268.915 273.148Z" fill="url(#paint13_linear_210_19)"/>
<path d="M272.072 264.666L271.068 212.193L270.063 122.054C270.063 121.191 270.781 120.473 271.642 120.473C272.503 120.473 273.22 121.191 273.22 122.054L272.646 212.193L272.072 264.666Z" fill="url(#paint14_linear_210_19)"/>
<path d="M278.244 102.58C280.317 107.479 279.459 115.023 276.163 119.384C272.867 123.745 268.591 123.214 266.462 118.183C264.388 113.284 265.246 105.74 268.542 101.379C271.894 97.1502 276.17 97.6819 278.244 102.58Z" fill="#FDFFBC"/>
<path d="M273.324 122.615C270.285 123.902 267.295 122.357 265.669 118.518C263.484 113.355 264.494 105.434 267.922 101.017C268.907 99.6633 270.06 98.7069 271.25 98.2035C274.289 96.9171 277.28 98.4612 278.905 102.301C281.09 107.464 280.08 115.385 276.652 119.802C275.667 121.155 274.646 122.056 273.324 122.615ZM271.942 99.4715C271.017 99.863 269.996 100.764 269.163 101.741C266.076 105.857 265.106 113.137 267.123 117.903C268.412 120.948 270.65 122.186 272.896 121.235C273.821 120.844 274.842 119.943 275.675 118.966C278.763 114.849 279.733 107.57 277.715 102.804C276.351 99.9472 274.189 98.5207 271.942 99.4715Z" fill="#FFCE00"/>
</g>
<path opacity="0.07" d="M349.285 207.461L318.722 241.533L288.447 295.443L258.171 321.896L211.825 390.902V450.275C211.825 452.144 212.399 454.157 213.69 454.157C214.12 454.157 214.694 454.013 215.268 453.582L351.125 374.976C351.125 316.398 349.285 265.318 349.285 207.461Z" fill="#FFC700"/>
<path opacity="0.7" d="M218.138 397.371L217.995 394.927L262.762 327.071L293.038 300.619L323.314 246.708L349.715 217.381L351.15 218.674L324.892 248.002L294.616 302.057L294.329 302.2L264.341 328.509L218.138 397.371Z" fill="url(#paint15_linear_210_19)"/>
<path d="M360.476 388.457C360.333 388.457 360.189 388.457 360.046 388.314L358.754 387.595C358.467 387.451 358.324 387.02 358.467 386.589C358.611 386.301 359.041 386.157 359.472 386.301L360.763 387.02C361.05 387.164 361.194 387.595 361.05 388.026C361.05 388.314 360.763 388.457 360.476 388.457Z" fill="#E6E6E6"/>
<path d="M373.246 395.933C373.103 395.933 372.959 395.933 372.816 395.789L370.233 394.208C369.946 394.064 369.803 393.633 369.946 393.202C370.09 392.914 370.52 392.77 370.951 392.914L373.533 394.495C373.82 394.639 373.964 395.07 373.82 395.502C373.82 395.789 373.533 395.933 373.246 395.933ZM366.933 392.195C366.79 392.195 366.646 392.195 366.503 392.051L363.92 390.47C363.633 390.326 363.489 389.895 363.633 389.464C363.776 389.176 364.207 389.032 364.637 389.176L367.22 390.758C367.507 390.901 367.65 391.333 367.507 391.764C367.363 392.051 367.22 392.195 366.933 392.195Z" fill="#E6E6E6"/>
<path d="M378.268 398.952C378.125 398.952 377.981 398.952 377.838 398.808L376.547 398.09C376.26 397.946 376.116 397.515 376.26 397.083C376.403 396.796 376.833 396.652 377.264 396.796L378.555 397.514C378.842 397.658 378.986 398.09 378.842 398.521C378.842 398.808 378.555 398.952 378.268 398.952Z" fill="#E6E6E6"/>
<path d="M329.772 406.14C329.628 406.14 329.485 406.14 329.341 405.996L328.05 405.278C327.763 405.134 327.62 404.703 327.763 404.271C327.907 403.984 328.337 403.84 328.767 403.984L330.059 404.703C330.346 404.846 330.489 405.278 330.346 405.709C330.202 405.997 330.059 406.14 329.772 406.14Z" fill="#E6E6E6"/>
<path d="M342.543 413.76C342.399 413.76 342.256 413.76 342.112 413.616L339.53 412.035C339.243 411.891 339.099 411.459 339.243 411.028C339.386 410.741 339.817 410.597 340.247 410.741L342.83 412.322C343.117 412.466 343.26 412.897 343.117 413.328C342.973 413.616 342.686 413.76 342.543 413.76ZM336.086 409.878C335.942 409.878 335.799 409.878 335.655 409.734L333.073 408.153C332.786 408.009 332.642 407.578 332.786 407.147C332.929 406.859 333.36 406.715 333.79 406.859L336.373 408.44C336.66 408.584 336.803 409.016 336.66 409.447C336.66 409.734 336.373 409.878 336.086 409.878Z" fill="#E6E6E6"/>
<path d="M347.564 416.779C347.421 416.779 347.277 416.779 347.134 416.635L345.842 415.916C345.555 415.772 345.412 415.341 345.555 414.91C345.699 414.622 346.129 414.478 346.56 414.622L347.851 415.341C348.138 415.485 348.282 415.916 348.138 416.347C347.995 416.635 347.851 416.779 347.564 416.779Z" fill="#E6E6E6"/>
<path d="M298.922 423.823C298.778 423.823 298.635 423.823 298.491 423.679L297.2 422.96C296.913 422.817 296.769 422.385 296.913 421.954C297.056 421.667 297.487 421.523 297.917 421.667L299.209 422.385C299.496 422.529 299.639 422.96 299.496 423.392C299.496 423.679 299.209 423.823 298.922 423.823Z" fill="#E6E6E6"/>
<path d="M311.692 431.442C311.548 431.442 311.405 431.442 311.261 431.299L308.679 429.717C308.392 429.573 308.248 429.142 308.392 428.711C308.535 428.423 308.965 428.28 309.396 428.423L311.979 430.005C312.266 430.149 312.409 430.58 312.266 431.011C312.266 431.299 311.979 431.442 311.692 431.442ZM305.378 427.705C305.235 427.705 305.091 427.705 304.948 427.561L302.365 425.979C302.078 425.836 301.935 425.404 302.078 424.973C302.222 424.686 302.652 424.542 303.083 424.686L305.665 426.267C305.952 426.411 306.096 426.842 305.952 427.273C305.809 427.561 305.665 427.705 305.378 427.705Z" fill="#E6E6E6"/>
<path d="M316.714 434.461C316.57 434.461 316.427 434.461 316.283 434.318L314.992 433.599C314.705 433.455 314.562 433.024 314.705 432.592C314.849 432.305 315.279 432.161 315.709 432.305L317.001 433.024C317.288 433.167 317.431 433.599 317.288 434.03C317.288 434.318 317.001 434.461 316.714 434.461Z" fill="#E6E6E6"/>
<path d="M268.216 441.506C268.072 441.506 267.929 441.506 267.785 441.362L266.494 440.643C266.207 440.499 266.064 440.068 266.207 439.637C266.351 439.349 266.781 439.206 267.211 439.349L268.503 440.068C268.79 440.212 268.933 440.643 268.79 441.074C268.646 441.506 268.503 441.506 268.216 441.506Z" fill="#E6E6E6"/>
<path d="M280.985 449.125C280.842 449.125 280.698 449.125 280.555 448.981L277.972 447.4C277.685 447.256 277.542 446.825 277.685 446.394C277.829 446.106 278.259 445.962 278.69 446.106L281.272 447.687C281.559 447.831 281.703 448.263 281.559 448.694C281.416 448.981 281.129 449.125 280.985 449.125ZM274.528 445.387C274.385 445.387 274.242 445.387 274.098 445.244L271.515 443.662C271.228 443.518 271.085 443.087 271.228 442.656C271.372 442.368 271.802 442.225 272.233 442.368L274.815 443.95C275.102 444.093 275.246 444.525 275.102 444.956C275.102 445.244 274.815 445.387 274.528 445.387Z" fill="#E6E6E6"/>
<path d="M286.008 452.144C285.864 452.144 285.721 452.144 285.577 452L284.286 451.282C283.999 451.138 283.855 450.707 283.999 450.275C284.142 449.988 284.573 449.844 285.003 449.988L286.295 450.707C286.582 450.85 286.725 451.282 286.582 451.713C286.438 452 286.295 452.144 286.008 452.144Z" fill="#E6E6E6"/>
<path d="M237.366 459.332C237.222 459.332 237.079 459.332 236.935 459.188L235.644 458.47C235.357 458.326 235.213 457.895 235.357 457.463C235.5 457.176 235.931 457.032 236.361 457.176L237.652 457.895C237.939 458.038 238.083 458.47 237.939 458.901C237.939 459.188 237.652 459.332 237.366 459.332Z" fill="#E6E6E6"/>
<path d="M250.137 466.808C249.993 466.808 249.85 466.808 249.706 466.664L247.124 465.083C246.837 464.939 246.693 464.508 246.837 464.076C246.98 463.789 247.411 463.645 247.841 463.789L250.424 465.37C250.711 465.514 250.854 465.945 250.711 466.376C250.711 466.664 250.424 466.808 250.137 466.808ZM243.823 463.07C243.68 463.07 243.536 463.07 243.393 462.926L240.81 461.345C240.523 461.201 240.38 460.77 240.523 460.339C240.667 460.051 241.097 459.907 241.528 460.051L244.11 461.632C244.397 461.776 244.541 462.207 244.397 462.639C244.254 462.926 244.11 463.07 243.823 463.07Z" fill="#E6E6E6"/>
<path d="M255.158 469.827C255.014 469.827 254.871 469.827 254.727 469.683L253.436 468.964C253.149 468.821 253.005 468.389 253.149 467.958C253.292 467.67 253.723 467.527 254.153 467.67L255.444 468.389C255.731 468.533 255.875 468.964 255.731 469.396C255.731 469.683 255.445 469.827 255.158 469.827Z" fill="#E6E6E6"/>
<path d="M359.615 421.667C359.184 421.954 358.61 422.098 358.036 422.098C357.462 422.098 356.888 421.954 356.314 421.81C356.745 422.242 357.032 422.529 357.032 422.817C357.032 423.104 356.745 423.392 356.314 423.679C355.597 424.111 354.879 424.254 354.019 424.111C353.158 424.111 352.297 423.679 351.436 423.248C350.575 422.817 350.144 422.385 349.857 421.81L350.862 421.235C351.005 421.523 351.292 421.81 351.436 421.954C351.723 422.242 352.01 422.385 352.297 422.529C352.871 422.817 353.301 422.96 353.875 423.104C354.305 423.104 354.736 423.104 355.166 422.817C355.597 422.529 355.74 422.385 355.597 422.098C355.453 421.81 355.023 421.523 354.449 421.092L353.875 420.66L354.736 420.085L355.31 420.517C356.458 421.235 357.462 421.235 358.18 420.804C358.467 420.66 358.61 420.373 358.61 420.229C358.61 420.085 358.323 419.798 358.036 419.51C357.749 419.366 357.462 419.223 357.175 419.079C356.888 418.935 356.458 418.935 355.884 418.791L356.171 418.073C357.319 418.216 358.323 418.504 359.184 418.935C359.901 419.366 360.332 419.798 360.475 420.229C360.332 421.092 360.045 421.379 359.615 421.667Z" fill="#EFEFEF"/>
<path d="M363.919 426.411C362.627 427.13 361.623 427.561 360.619 427.705C359.614 427.848 358.753 427.705 357.892 427.13C357.031 426.698 356.744 426.123 357.031 425.548C357.175 424.973 357.892 424.254 359.184 423.679C360.475 422.96 361.623 422.529 362.484 422.385C363.488 422.242 364.349 422.385 365.21 422.96C366.071 423.392 366.358 423.967 366.071 424.542C365.784 425.117 365.067 425.692 363.919 426.411ZM360.188 424.254C359.184 424.829 358.61 425.261 358.466 425.692C358.323 425.979 358.323 426.411 358.753 426.555C359.184 426.842 359.758 426.842 360.332 426.698C360.906 426.555 361.767 426.267 362.771 425.692C363.775 425.117 364.349 424.686 364.493 424.254C364.78 423.823 364.636 423.536 364.206 423.392C363.775 423.104 363.201 423.104 362.627 423.248C361.91 423.392 361.193 423.679 360.188 424.254Z" fill="#EFEFEF"/>
<path d="M323.744 442.8L318.865 440.068L319.726 439.637H323.457C324.604 439.637 325.322 439.637 325.752 439.637C326.183 439.637 326.47 439.493 326.757 439.493C327.044 439.493 327.331 439.349 327.474 439.206C327.761 439.062 327.905 438.774 327.905 438.631C327.905 438.343 327.761 438.199 327.331 438.056C327.044 437.912 326.757 437.768 326.326 437.624C326.039 437.48 325.465 437.48 324.891 437.48L325.035 436.618C325.752 436.618 326.326 436.762 326.9 436.905C327.474 437.049 327.905 437.193 328.335 437.48C329.053 437.912 329.34 438.343 329.483 438.631C329.483 439.062 329.34 439.493 328.622 439.781C328.335 439.924 327.905 440.068 327.474 440.212C327.044 440.356 326.613 440.356 326.039 440.356C325.465 440.356 324.748 440.356 323.6 440.356H321.161L324.604 442.368L323.744 442.8Z" fill="#EFEFEF"/>
<path d="M333.213 444.094C331.922 444.812 330.917 445.244 329.913 445.387C328.909 445.531 328.048 445.387 327.187 444.812C326.326 444.381 326.039 443.806 326.326 443.231C326.469 442.656 327.187 441.937 328.478 441.362C329.77 440.643 330.917 440.212 331.778 440.068C332.783 439.924 333.644 440.068 334.505 440.643C335.366 441.075 335.653 441.65 335.366 442.225C335.079 442.8 334.361 443.518 333.213 444.094ZM329.483 442.081C328.478 442.656 327.904 443.087 327.761 443.518C327.617 443.806 327.617 444.237 328.048 444.381C328.478 444.669 329.052 444.669 329.626 444.525C330.2 444.381 331.061 444.094 332.065 443.518C333.07 442.943 333.644 442.512 333.787 442.081C334.074 441.65 333.931 441.362 333.5 441.218C333.07 440.931 332.496 440.931 331.922 441.075C331.204 441.075 330.487 441.506 329.483 442.081Z" fill="#EFEFEF"/>
<path d="M291.459 459.62L290.311 458.901L294.903 456.313C295.477 456.026 295.907 455.738 296.194 455.594C296.051 455.594 295.907 455.594 295.62 455.594C295.477 455.594 294.759 455.594 293.611 455.451L293.755 454.732L297.486 455.019L298.49 455.594L291.459 459.62Z" fill="#EFEFEF"/>
<path d="M302.508 461.92C301.216 462.639 300.212 463.07 299.207 463.214C298.203 463.358 297.342 463.214 296.481 462.639C295.62 462.208 295.333 461.633 295.62 461.057C295.764 460.482 296.481 459.764 297.773 459.189C299.064 458.47 300.212 458.038 301.073 457.895C302.077 457.751 302.938 457.895 303.799 458.47C304.66 458.901 304.947 459.476 304.66 460.051C304.373 460.626 303.656 461.201 302.508 461.92ZM298.777 459.764C297.773 460.339 297.199 460.77 297.055 461.201C296.912 461.489 296.912 461.92 297.342 462.064C297.773 462.351 298.347 462.351 298.921 462.208C299.494 462.064 300.355 461.776 301.36 461.201C302.364 460.626 302.938 460.195 303.082 459.764C303.369 459.332 303.225 459.045 302.795 458.901C302.364 458.614 301.79 458.614 301.216 458.757C300.642 458.901 299.781 459.189 298.777 459.764Z" fill="#EFEFEF"/>
<path d="M271.801 479.603C270.51 480.322 269.505 480.753 268.501 480.897C267.497 481.04 266.636 480.897 265.775 480.322C264.914 479.89 264.627 479.315 264.914 478.74C265.057 478.165 265.775 477.446 267.066 476.871C268.357 476.152 269.505 475.721 270.366 475.577C271.371 475.434 272.232 475.577 273.093 476.152C273.953 476.584 274.24 477.159 273.953 477.734C273.666 478.309 272.949 479.028 271.801 479.603ZM268.07 477.59C267.066 478.165 266.492 478.596 266.349 479.028C266.062 479.315 266.205 479.746 266.636 479.89C267.066 480.178 267.64 480.178 268.214 480.034C268.788 479.89 269.649 479.603 270.51 479.028C271.514 478.453 272.088 478.021 272.232 477.59C272.519 477.159 272.375 476.871 271.945 476.727C271.514 476.44 270.94 476.44 270.366 476.584C269.936 476.584 269.075 477.015 268.07 477.59Z" fill="#EFEFEF"/>
<path opacity="0.7" d="M355.886 214.074L325.323 248.146L295.047 302.056L264.772 328.509L218.425 397.515V456.888C218.425 458.757 218.999 460.77 220.291 460.77C220.721 460.77 221.295 460.626 221.869 460.195L357.516 381.86C357.516 381.86 355.886 251.432 355.886 214.074Z" fill="url(#paint16_linear_210_19)"/>
<path d="M218.999 397.946L217.852 397.227L264.341 328.077L294.473 301.625L324.893 247.571L355.742 213.211L356.029 214.937L325.897 248.577L295.621 302.488V302.632L265.346 329.084L218.999 397.946Z" fill="#FEC704"/>
<path d="M294.903 415.341C294.473 415.341 294.186 415.054 294.186 414.622V411.747C294.186 411.316 294.473 411.028 294.903 411.028C295.334 411.028 295.621 411.316 295.621 411.747V414.622C295.621 415.054 295.334 415.341 294.903 415.341ZM294.903 408.153C294.473 408.153 294.186 407.865 294.186 407.434V404.559C294.186 404.128 294.473 403.84 294.903 403.84C295.334 403.84 295.621 404.128 295.621 404.559V407.434C295.621 407.865 295.334 408.153 294.903 408.153ZM294.903 400.965C294.473 400.965 294.186 400.677 294.186 400.246V397.371C294.186 396.94 294.473 396.652 294.903 396.652C295.334 396.652 295.621 396.94 295.621 397.371V400.246C295.621 400.677 295.334 400.965 294.903 400.965ZM294.903 393.777C294.473 393.777 294.186 393.489 294.186 393.058V390.183C294.186 389.751 294.473 389.464 294.903 389.464C295.334 389.464 295.621 389.751 295.621 390.183V393.058C295.621 393.489 295.334 393.777 294.903 393.777ZM294.903 386.589C294.473 386.589 294.186 386.301 294.186 385.87V382.995C294.186 382.563 294.473 382.276 294.903 382.276C295.334 382.276 295.621 382.563 295.621 382.995V385.87C295.621 386.301 295.334 386.589 294.903 386.589ZM294.903 379.401C294.473 379.401 294.186 379.113 294.186 378.682V375.806C294.186 375.375 294.473 375.088 294.903 375.088C295.334 375.088 295.621 375.375 295.621 375.806V378.682C295.621 379.113 295.334 379.401 294.903 379.401ZM294.903 372.212C294.473 372.212 294.186 371.925 294.186 371.494V368.618C294.186 368.187 294.473 367.9 294.903 367.9C295.334 367.9 295.621 368.187 295.621 368.618V371.494C295.621 371.925 295.334 372.212 294.903 372.212ZM294.903 365.024C294.473 365.024 294.186 364.737 294.186 364.306V361.43C294.186 360.999 294.473 360.711 294.903 360.711C295.334 360.711 295.621 360.999 295.621 361.43V364.306C295.621 364.737 295.334 365.024 294.903 365.024ZM294.903 357.836C294.473 357.836 294.186 357.549 294.186 357.117V354.242C294.186 353.811 294.473 353.523 294.903 353.523C295.334 353.523 295.621 353.811 295.621 354.242V357.117C295.621 357.549 295.334 357.836 294.903 357.836ZM294.903 350.648C294.473 350.648 294.186 350.361 294.186 349.929V347.054C294.186 346.623 294.473 346.335 294.903 346.335C295.334 346.335 295.621 346.623 295.621 347.054V349.929C295.621 350.361 295.334 350.648 294.903 350.648ZM294.903 343.46C294.473 343.46 294.186 343.172 294.186 342.741V339.866C294.186 339.435 294.473 339.147 294.903 339.147C295.334 339.147 295.621 339.435 295.621 339.866V342.741C295.621 343.172 295.334 343.46 294.903 343.46ZM294.903 336.272C294.473 336.272 294.186 335.984 294.186 335.553V332.678C294.186 332.247 294.473 331.959 294.903 331.959C295.334 331.959 295.621 332.247 295.621 332.678V335.553C295.621 335.984 295.334 336.272 294.903 336.272ZM294.903 329.084C294.473 329.084 294.186 328.796 294.186 328.365V325.49C294.186 325.058 294.473 324.771 294.903 324.771C295.334 324.771 295.621 325.058 295.621 325.49V328.365C295.621 328.796 295.334 329.084 294.903 329.084ZM294.903 321.896C294.473 321.896 294.186 321.608 294.186 321.177V318.302C294.186 317.87 294.473 317.583 294.903 317.583C295.334 317.583 295.621 317.87 295.621 318.302V321.177C295.621 321.608 295.334 321.896 294.903 321.896ZM294.903 314.708C294.473 314.708 294.186 314.42 294.186 313.989V311.114C294.186 310.682 294.473 310.395 294.903 310.395C295.334 310.395 295.621 310.682 295.621 311.114V313.989C295.621 314.42 295.334 314.708 294.903 314.708Z" fill="#FFC700"/>
<path d="M233.778 450.85C233.347 450.85 233.06 450.563 233.06 450.132V447.256C233.06 446.825 233.347 446.538 233.778 446.538C234.208 446.538 234.495 446.825 234.495 447.256V450.132C234.495 450.563 234.065 450.85 233.778 450.85ZM233.778 443.662C233.347 443.662 233.06 443.375 233.06 442.943V440.068C233.06 439.637 233.347 439.349 233.778 439.349C234.208 439.349 234.495 439.637 234.495 440.068V442.943C234.495 443.375 234.065 443.662 233.778 443.662ZM233.778 436.474C233.347 436.474 233.06 436.187 233.06 435.755V432.88C233.06 432.449 233.347 432.161 233.778 432.161C234.208 432.161 234.495 432.449 234.495 432.88V435.755C234.495 436.187 234.065 436.474 233.778 436.474ZM233.778 429.286C233.347 429.286 233.06 428.999 233.06 428.567V425.692C233.06 425.261 233.347 424.973 233.778 424.973C234.208 424.973 234.495 425.261 234.495 425.692V428.567C234.495 428.999 234.065 429.286 233.778 429.286ZM233.778 422.098C233.347 422.098 233.06 421.81 233.06 421.379V418.504C233.06 418.073 233.347 417.785 233.778 417.785C234.208 417.785 234.495 418.073 234.495 418.504V421.379C234.495 421.81 234.065 422.098 233.778 422.098ZM233.778 414.91C233.347 414.91 233.06 414.622 233.06 414.191V411.316C233.06 410.885 233.347 410.597 233.778 410.597C234.208 410.597 234.495 410.885 234.495 411.316V414.191C234.495 414.622 234.065 414.91 233.778 414.91ZM233.778 407.722C233.347 407.722 233.06 407.434 233.06 407.003V404.128C233.06 403.696 233.347 403.409 233.778 403.409C234.208 403.409 234.495 403.696 234.495 404.128V407.003C234.495 407.434 234.065 407.722 233.778 407.722ZM233.778 400.534C233.347 400.534 233.06 400.246 233.06 399.815V396.94C233.06 396.508 233.347 396.221 233.778 396.221C234.208 396.221 234.495 396.508 234.495 396.94V399.815C234.495 400.246 234.065 400.534 233.778 400.534ZM233.778 393.346C233.347 393.346 233.06 393.058 233.06 392.627V389.751C233.06 389.32 233.347 389.033 233.778 389.033C234.208 389.033 234.495 389.32 234.495 389.751V392.627C234.495 393.058 234.065 393.346 233.778 393.346ZM233.778 386.157C233.347 386.157 233.06 385.87 233.06 385.439V382.563C233.06 382.132 233.347 381.845 233.778 381.845C234.208 381.845 234.495 382.132 234.495 382.563V385.439C234.495 385.87 234.065 386.157 233.778 386.157Z" fill="#FFC700"/>
<path d="M264.196 432.449C263.766 432.449 263.479 432.161 263.479 431.73V428.855C263.479 428.423 263.766 428.136 264.196 428.136C264.627 428.136 264.914 428.423 264.914 428.855V431.73C264.914 432.161 264.627 432.449 264.196 432.449ZM264.196 425.261C263.766 425.261 263.479 424.973 263.479 424.542V421.667C263.479 421.235 263.766 420.948 264.196 420.948C264.627 420.948 264.914 421.235 264.914 421.667V424.542C264.914 424.973 264.627 425.261 264.196 425.261ZM264.196 418.073C263.766 418.073 263.479 417.785 263.479 417.354V414.479C263.479 414.047 263.766 413.76 264.196 413.76C264.627 413.76 264.914 414.047 264.914 414.479V417.354C264.914 417.785 264.627 418.073 264.196 418.073ZM264.196 410.884C263.766 410.884 263.479 410.597 263.479 410.166V407.29C263.479 406.859 263.766 406.572 264.196 406.572C264.627 406.572 264.914 406.859 264.914 407.29V410.166C264.914 410.597 264.627 410.884 264.196 410.884ZM264.196 403.696C263.766 403.696 263.479 403.409 263.479 402.978V400.102C263.479 399.671 263.766 399.383 264.196 399.383C264.627 399.383 264.914 399.671 264.914 400.102V402.978C264.914 403.409 264.627 403.696 264.196 403.696ZM264.196 396.508C263.766 396.508 263.479 396.221 263.479 395.789V392.914C263.479 392.483 263.766 392.195 264.196 392.195C264.627 392.195 264.914 392.483 264.914 392.914V395.789C264.914 396.221 264.627 396.508 264.196 396.508ZM264.196 389.32C263.766 389.32 263.479 389.033 263.479 388.601V385.726C263.479 385.295 263.766 385.007 264.196 385.007C264.627 385.007 264.914 385.295 264.914 385.726V388.601C264.914 389.033 264.627 389.32 264.196 389.32ZM264.196 382.132C263.766 382.132 263.479 381.844 263.479 381.413V378.538C263.479 378.107 263.766 377.819 264.196 377.819C264.627 377.819 264.914 378.107 264.914 378.538V381.413C264.914 381.844 264.627 382.132 264.196 382.132ZM264.196 374.944C263.766 374.944 263.479 374.656 263.479 374.225V371.35C263.479 370.919 263.766 370.631 264.196 370.631C264.627 370.631 264.914 370.919 264.914 371.35V374.225C264.914 374.656 264.627 374.944 264.196 374.944ZM264.196 367.756C263.766 367.756 263.479 367.468 263.479 367.037V364.162C263.479 363.73 263.766 363.443 264.196 363.443C264.627 363.443 264.914 363.73 264.914 364.162V367.037C264.914 367.468 264.627 367.756 264.196 367.756ZM264.196 360.568C263.766 360.568 263.479 360.28 263.479 359.849V356.974C263.479 356.542 263.766 356.255 264.196 356.255C264.627 356.255 264.914 356.542 264.914 356.974V359.849C264.914 360.28 264.627 360.568 264.196 360.568ZM264.196 353.38C263.766 353.38 263.479 353.092 263.479 352.661V349.786C263.479 349.354 263.766 349.067 264.196 349.067C264.627 349.067 264.914 349.354 264.914 349.786V352.661C264.914 353.092 264.627 353.38 264.196 353.38ZM264.196 346.191C263.766 346.191 263.479 345.904 263.479 345.473V342.597C263.479 342.166 263.766 341.879 264.196 341.879C264.627 341.879 264.914 342.166 264.914 342.597V345.473C264.914 345.904 264.627 346.191 264.196 346.191ZM264.196 339.003C263.766 339.003 263.479 338.716 263.479 338.285V335.409C263.479 334.978 263.766 334.69 264.196 334.69C264.627 334.69 264.914 334.978 264.914 335.409V338.285C264.914 338.716 264.627 339.003 264.196 339.003Z" fill="#FFC700"/>
<path d="M325.467 397.946C325.036 397.946 324.749 397.658 324.749 397.227V394.352C324.749 393.921 325.036 393.633 325.467 393.633C325.897 393.633 326.184 393.921 326.184 394.352V397.227C326.184 397.658 325.897 397.946 325.467 397.946ZM325.467 390.758C325.036 390.758 324.749 390.47 324.749 390.039V387.164C324.749 386.732 325.036 386.445 325.467 386.445C325.897 386.445 326.184 386.732 326.184 387.164V390.039C326.184 390.47 325.897 390.758 325.467 390.758ZM325.467 383.57C325.036 383.57 324.749 383.282 324.749 382.851V379.976C324.749 379.544 325.036 379.257 325.467 379.257C325.897 379.257 326.184 379.544 326.184 379.976V382.851C326.184 383.282 325.897 383.57 325.467 383.57ZM325.467 376.382C325.036 376.382 324.749 376.094 324.749 375.663V372.788C324.749 372.356 325.036 372.069 325.467 372.069C325.897 372.069 326.184 372.356 326.184 372.788V375.663C326.184 376.094 325.897 376.382 325.467 376.382ZM325.467 369.193C325.036 369.193 324.749 368.906 324.749 368.475V365.599C324.749 365.168 325.036 364.881 325.467 364.881C325.897 364.881 326.184 365.168 326.184 365.599V368.475C326.184 368.906 325.897 369.193 325.467 369.193ZM325.467 362.005C325.036 362.005 324.749 361.718 324.749 361.287V358.411C324.749 357.98 325.036 357.692 325.467 357.692C325.897 357.692 326.184 357.98 326.184 358.411V361.287C326.184 361.718 325.897 362.005 325.467 362.005ZM325.467 354.817C325.036 354.817 324.749 354.53 324.749 354.098V351.223C324.749 350.792 325.036 350.504 325.467 350.504C325.897 350.504 326.184 350.792 326.184 351.223V354.098C326.184 354.53 325.897 354.817 325.467 354.817ZM325.467 347.629C325.036 347.629 324.749 347.342 324.749 346.91V344.035C324.749 343.604 325.036 343.316 325.467 343.316C325.897 343.316 326.184 343.604 326.184 344.035V346.91C326.184 347.342 325.897 347.629 325.467 347.629ZM325.467 340.441C325.036 340.441 324.749 340.153 324.749 339.722V336.847C324.749 336.416 325.036 336.128 325.467 336.128C325.897 336.128 326.184 336.416 326.184 336.847V339.722C326.184 340.153 325.897 340.441 325.467 340.441ZM325.467 333.253C325.036 333.253 324.749 332.965 324.749 332.534V329.659C324.749 329.228 325.036 328.94 325.467 328.94C325.897 328.94 326.184 329.228 326.184 329.659V332.534C326.184 332.965 325.897 333.253 325.467 333.253ZM325.467 326.065C325.036 326.065 324.749 325.777 324.749 325.346V322.471C324.749 322.039 325.036 321.752 325.467 321.752C325.897 321.752 326.184 322.039 326.184 322.471V325.346C326.184 325.777 325.897 326.065 325.467 326.065ZM325.467 318.877C325.036 318.877 324.749 318.589 324.749 318.158V315.283C324.749 314.851 325.036 314.564 325.467 314.564C325.897 314.564 326.184 314.851 326.184 315.283V318.158C326.184 318.589 325.897 318.877 325.467 318.877ZM325.467 311.689C325.036 311.689 324.749 311.401 324.749 310.97V308.095C324.749 307.663 325.036 307.376 325.467 307.376C325.897 307.376 326.184 307.663 326.184 308.095V310.97C326.184 311.401 325.897 311.689 325.467 311.689ZM325.467 304.5C325.036 304.5 324.749 304.213 324.749 303.782V300.906C324.749 300.475 325.036 300.188 325.467 300.188C325.897 300.188 326.184 300.475 326.184 300.906V303.782C326.184 304.213 325.897 304.5 325.467 304.5ZM325.467 297.312C325.036 297.312 324.749 297.025 324.749 296.594V293.718C324.749 293.287 325.036 293 325.467 293C325.897 293 326.184 293.287 326.184 293.718V296.594C326.184 297.025 325.897 297.312 325.467 297.312ZM325.467 290.124C325.036 290.124 324.749 289.837 324.749 289.405V286.53C324.749 286.099 325.036 285.811 325.467 285.811C325.897 285.811 326.184 286.099 326.184 286.53V289.405C326.184 289.837 325.897 290.124 325.467 290.124ZM325.467 282.936C325.036 282.936 324.749 282.649 324.749 282.217V279.342C324.749 278.911 325.036 278.623 325.467 278.623C325.897 278.623 326.184 278.911 326.184 279.342V282.217C326.184 282.649 325.897 282.936 325.467 282.936ZM325.467 275.748C325.036 275.748 324.749 275.461 324.749 275.029V272.154C324.749 271.723 325.036 271.435 325.467 271.435C325.897 271.435 326.184 271.723 326.184 272.154V275.029C326.184 275.461 325.897 275.748 325.467 275.748ZM325.467 268.56C325.036 268.56 324.749 268.272 324.749 267.841V264.966C324.749 264.535 325.036 264.247 325.467 264.247C325.897 264.247 326.184 264.535 326.184 264.966V267.841C326.184 268.272 325.897 268.56 325.467 268.56ZM325.467 261.372C325.036 261.372 324.749 261.084 324.749 260.653V257.778C324.749 257.346 325.036 257.059 325.467 257.059C325.897 257.059 326.184 257.346 326.184 257.778V260.653C326.184 261.084 325.897 261.372 325.467 261.372Z" fill="#FFC700"/>
<path d="M356.028 380.263C355.598 380.263 355.311 379.976 355.311 379.544V376.669C355.311 376.238 355.598 375.95 356.028 375.95C356.459 375.95 356.746 376.238 356.746 376.669V379.544C356.746 379.976 356.315 380.263 356.028 380.263ZM356.028 373.075C355.598 373.075 355.311 372.787 355.311 372.356V369.481C355.311 369.05 355.598 368.762 356.028 368.762C356.459 368.762 356.746 369.05 356.746 369.481V372.356C356.746 372.787 356.315 373.075 356.028 373.075ZM356.028 365.887C355.598 365.887 355.311 365.599 355.311 365.168V362.293C355.311 361.862 355.598 361.574 356.028 361.574C356.459 361.574 356.746 361.862 356.746 362.293V365.168C356.746 365.599 356.315 365.887 356.028 365.887ZM356.028 358.699C355.598 358.699 355.311 358.411 355.311 357.98V355.105C355.311 354.673 355.598 354.386 356.028 354.386C356.459 354.386 356.746 354.673 356.746 355.105V357.98C356.746 358.411 356.315 358.699 356.028 358.699ZM356.028 351.511C355.598 351.511 355.311 351.223 355.311 350.792V347.917C355.311 347.485 355.598 347.198 356.028 347.198C356.459 347.198 356.746 347.485 356.746 347.917V350.792C356.746 351.223 356.315 351.511 356.028 351.511ZM356.028 344.323C355.598 344.323 355.311 344.035 355.311 343.604V340.729C355.311 340.297 355.598 340.01 356.028 340.01C356.459 340.01 356.746 340.297 356.746 340.729V343.604C356.746 344.035 356.315 344.323 356.028 344.323ZM356.028 337.134C355.598 337.134 355.311 336.847 355.311 336.416V333.54C355.311 333.109 355.598 332.822 356.028 332.822C356.459 332.822 356.746 333.109 356.746 333.54V336.416C356.746 336.847 356.315 337.134 356.028 337.134ZM356.028 329.946C355.598 329.946 355.311 329.659 355.311 329.228V326.352C355.311 325.921 355.598 325.634 356.028 325.634C356.459 325.634 356.746 325.921 356.746 326.352V329.228C356.746 329.659 356.315 329.946 356.028 329.946ZM356.028 322.758C355.598 322.758 355.311 322.471 355.311 322.039V319.164C355.311 318.733 355.598 318.445 356.028 318.445C356.459 318.445 356.746 318.733 356.746 319.164V322.039C356.746 322.471 356.315 322.758 356.028 322.758ZM356.028 315.57C355.598 315.57 355.311 315.283 355.311 314.851V311.976C355.311 311.545 355.598 311.257 356.028 311.257C356.459 311.257 356.746 311.545 356.746 311.976V314.851C356.746 315.283 356.315 315.57 356.028 315.57ZM356.028 308.382C355.598 308.382 355.311 308.095 355.311 307.663V304.788C355.311 304.357 355.598 304.069 356.028 304.069C356.459 304.069 356.746 304.357 356.746 304.788V307.663C356.746 308.095 356.315 308.382 356.028 308.382ZM356.028 301.194C355.598 301.194 355.311 300.906 355.311 300.475V297.6C355.311 297.169 355.598 296.881 356.028 296.881C356.459 296.881 356.746 297.169 356.746 297.6V300.475C356.746 300.906 356.315 301.194 356.028 301.194ZM356.028 294.006C355.598 294.006 355.311 293.718 355.311 293.287V290.412C355.311 289.98 355.598 289.693 356.028 289.693C356.459 289.693 356.746 289.98 356.746 290.412V293.287C356.746 293.718 356.315 294.006 356.028 294.006ZM356.028 286.818C355.598 286.818 355.311 286.53 355.311 286.099V283.224C355.311 282.792 355.598 282.505 356.028 282.505C356.459 282.505 356.746 282.792 356.746 283.224V286.099C356.746 286.53 356.315 286.818 356.028 286.818ZM356.028 279.63C355.598 279.63 355.311 279.342 355.311 278.911V276.036C355.311 275.604 355.598 275.317 356.028 275.317C356.459 275.317 356.746 275.604 356.746 276.036V278.911C356.746 279.342 356.315 279.63 356.028 279.63ZM356.028 272.442C355.598 272.442 355.311 272.154 355.311 271.723V268.847C355.311 268.416 355.598 268.129 356.028 268.129C356.459 268.129 356.746 268.416 356.746 268.847V271.723C356.746 272.154 356.315 272.442 356.028 272.442ZM356.028 265.253C355.598 265.253 355.311 264.966 355.311 264.535V261.659C355.311 261.228 355.598 260.941 356.028 260.941C356.459 260.941 356.746 261.228 356.746 261.659V264.535C356.746 264.966 356.315 265.253 356.028 265.253ZM356.028 258.065C355.598 258.065 355.311 257.778 355.311 257.346V254.471C355.311 254.04 355.598 253.752 356.028 253.752C356.459 253.752 356.746 254.04 356.746 254.471V257.346C356.746 257.778 356.315 258.065 356.028 258.065ZM356.028 250.877C355.598 250.877 355.311 250.59 355.311 250.158V247.283C355.311 246.852 355.598 246.564 356.028 246.564C356.459 246.564 356.746 246.852 356.746 247.283V250.158C356.746 250.59 356.315 250.877 356.028 250.877ZM356.028 243.689C355.598 243.689 355.311 243.402 355.311 242.97V240.095C355.311 239.664 355.598 239.376 356.028 239.376C356.459 239.376 356.746 239.664 356.746 240.095V242.97C356.746 243.402 356.315 243.689 356.028 243.689ZM356.028 236.501C355.598 236.501 355.311 236.213 355.311 235.782V232.907C355.311 232.476 355.598 232.188 356.028 232.188C356.459 232.188 356.746 232.476 356.746 232.907V235.782C356.746 236.213 356.315 236.501 356.028 236.501ZM356.028 229.313C355.598 229.313 355.311 229.025 355.311 228.594V225.719C355.311 225.288 355.598 225 356.028 225C356.459 225 356.746 225.288 356.746 225.719V228.594C356.746 229.025 356.315 229.313 356.028 229.313ZM356.028 222.125C355.598 222.125 355.311 221.837 355.311 221.406V218.531C355.311 218.099 355.598 217.812 356.028 217.812C356.459 217.812 356.746 218.099 356.746 218.531V221.406C356.746 221.837 356.315 222.125 356.028 222.125Z" fill="#FFC700"/>
<path d="M360.139 209.473C361.567 212.927 360.806 218.22 358.525 221.341C356.19 224.329 353.121 224.043 351.638 220.456C350.209 217.002 350.971 211.709 353.251 208.588C355.587 205.599 358.656 205.886 360.139 209.473Z" fill="#FDFFBC"/>
<path d="M356.688 223.656C354.434 224.589 352.207 223.332 351.108 220.675C349.57 216.955 350.354 211.341 352.767 208.165C353.476 207.25 354.294 206.601 355.222 206.217C357.476 205.285 359.704 206.542 360.803 209.199C362.341 212.919 361.689 218.477 359.143 221.708C358.435 222.623 357.484 223.328 356.688 223.656ZM355.717 207.413C355.054 207.687 354.5 208.227 353.87 208.954C351.612 211.755 351.061 216.805 352.379 219.994C353.203 221.986 354.626 222.798 356.084 222.195C356.747 221.921 357.3 221.381 357.931 220.654C360.189 217.853 360.74 212.803 359.422 209.614C358.598 207.621 357.175 206.809 355.717 207.413Z" fill="#FFCE00"/>
<path d="M327.37 245.355C328.257 247.162 327.984 249.859 326.882 251.521C325.78 253.184 324.112 253.042 323.288 251.365C322.401 249.558 322.674 246.861 323.776 245.199C324.878 243.536 326.483 243.549 327.37 245.355Z" fill="#FFCE00"/>
<path d="M297.391 302.859C297.769 300.508 296.933 298.417 295.525 298.188C294.116 297.959 292.668 299.679 292.29 302.03C291.912 304.38 292.747 306.471 294.156 306.7C295.564 306.929 297.013 305.209 297.391 302.859Z" fill="#FFCE00"/>
<path d="M266.745 326.307C267.497 328.174 267.027 330.844 265.807 332.421C264.586 333.999 262.933 333.735 262.234 332.002C261.481 330.135 261.951 327.466 263.172 325.888C264.392 324.311 265.992 324.441 266.745 326.307Z" fill="#FFCE00"/>
<path d="M236.033 374.314C236.475 371.975 235.697 369.862 234.295 369.594C232.894 369.327 231.399 371.006 230.956 373.345C230.514 375.685 231.291 377.798 232.693 378.066C234.095 378.333 235.59 376.654 236.033 374.314Z" fill="#FFCE00"/>
<path d="M471.681 437.624C471.537 437.624 471.394 437.624 471.25 437.481L469.959 436.762C469.672 436.618 469.528 436.187 469.672 435.755C469.815 435.468 470.246 435.324 470.676 435.468L471.968 436.187C472.255 436.33 472.398 436.762 472.255 437.193C472.111 437.481 471.824 437.624 471.681 437.624Z" fill="#B9B9B9"/>
<path d="M490.621 448.838C490.478 448.838 490.334 448.838 490.191 448.694L488.899 447.975C488.612 447.831 488.469 447.4 488.612 446.969C488.756 446.681 489.186 446.538 489.617 446.681L490.908 447.4C491.195 447.544 491.339 447.975 491.195 448.406C491.052 448.694 490.908 448.838 490.621 448.838Z" fill="#B9B9B9"/>
<path d="M485.388 446.101C485.244 446.101 485.101 446.101 484.957 445.957L482.231 444.376C481.944 444.232 481.801 443.801 481.944 443.369C482.087 443.082 482.518 442.938 482.948 443.082L485.675 444.663C485.962 444.807 486.105 445.238 485.962 445.669C485.818 445.957 485.675 446.101 485.388 446.101ZM478.5 442.075C478.357 442.075 478.213 442.075 478.07 441.932L475.344 440.35C475.057 440.206 474.913 439.775 475.057 439.344C475.2 439.056 475.631 438.913 476.061 439.056L478.787 440.638C479.074 440.782 479.218 441.213 479.074 441.644C479.074 441.932 478.787 442.075 478.5 442.075Z" fill="#B9B9B9"/>
<path d="M449.009 450.707C448.865 450.707 448.722 450.707 448.578 450.563L447.287 449.844C447 449.7 446.856 449.269 447 448.838C447.143 448.55 447.574 448.406 448.004 448.55L449.296 449.269C449.583 449.413 449.726 449.844 449.583 450.275C449.439 450.563 449.296 450.707 449.009 450.707Z" fill="#B9B9B9"/>
<path d="M462.64 458.757C462.496 458.757 462.353 458.757 462.209 458.613L459.483 457.032C459.196 456.888 459.052 456.457 459.196 456.026C459.339 455.738 459.77 455.594 460.2 455.738L462.927 457.32C463.214 457.463 463.357 457.895 463.214 458.326C463.07 458.613 462.927 458.757 462.64 458.757ZM455.752 454.732C455.609 454.732 455.465 454.732 455.322 454.588L452.596 453.007C452.309 452.863 452.165 452.432 452.309 452C452.452 451.713 452.883 451.569 453.313 451.713L456.039 453.294C456.326 453.438 456.47 453.869 456.326 454.301C456.326 454.588 456.039 454.732 455.752 454.732Z" fill="#B9B9B9"/>
<path d="M467.949 461.92C467.806 461.92 467.662 461.92 467.519 461.776L466.227 461.057C465.94 460.914 465.797 460.482 465.94 460.051C466.084 459.764 466.514 459.62 466.945 459.764L468.236 460.482C468.523 460.626 468.666 461.057 468.523 461.489C468.379 461.776 468.236 461.92 467.949 461.92Z" fill="#B9B9B9"/>
<path d="M426.338 463.789C426.195 463.789 426.051 463.789 425.908 463.645L424.616 462.926C424.329 462.783 424.186 462.351 424.329 461.92C424.473 461.633 424.903 461.489 425.334 461.633L426.625 462.351C426.912 462.495 427.055 462.926 426.912 463.358C426.768 463.645 426.625 463.789 426.338 463.789Z" fill="#B9B9B9"/>
<path d="M439.969 471.84C439.825 471.84 439.682 471.84 439.538 471.696L436.812 470.114C436.525 469.971 436.381 469.539 436.525 469.108C436.668 468.821 437.099 468.677 437.529 468.821L440.256 470.402C440.543 470.546 440.686 470.977 440.543 471.408C440.543 471.696 440.256 471.84 439.969 471.84ZM433.225 467.814C433.081 467.814 432.938 467.814 432.794 467.671L430.068 466.089C429.781 465.945 429.638 465.514 429.781 465.083C429.925 464.795 430.355 464.652 430.785 464.795L433.512 466.377C433.799 466.52 433.942 466.952 433.799 467.383C433.655 467.671 433.368 467.814 433.225 467.814Z" fill="#B9B9B9"/>
<path d="M445.279 475.002C445.135 475.002 444.992 475.002 444.848 474.859L443.557 474.14C443.27 473.996 443.126 473.565 443.27 473.134C443.413 472.846 443.844 472.702 444.274 472.846L445.566 473.565C445.853 473.709 445.996 474.14 445.853 474.571C445.853 474.859 445.566 475.002 445.279 475.002Z" fill="#B9B9B9"/>
<path d="M403.668 476.871C403.524 476.871 403.381 476.871 403.237 476.727L401.946 476.009C401.659 475.865 401.516 475.434 401.659 475.002C401.803 474.715 402.233 474.571 402.663 474.715L403.955 475.434C404.242 475.577 404.385 476.009 404.242 476.44C404.242 476.871 403.955 476.871 403.668 476.871Z" fill="#B9B9B9"/>
<path d="M417.298 485.066C417.155 485.066 417.011 485.066 416.868 484.922L414.142 483.341C413.855 483.197 413.711 482.765 413.855 482.334C413.998 482.047 414.429 481.903 414.859 482.047L417.585 483.628C417.872 483.772 418.016 484.203 417.872 484.634C417.872 484.922 417.585 485.066 417.298 485.066ZM410.555 480.897C410.411 480.897 410.268 480.897 410.124 480.753L407.398 479.171C407.111 479.028 406.967 478.596 407.111 478.165C407.254 477.878 407.685 477.734 408.115 477.878L410.842 479.459C411.128 479.603 411.272 480.034 411.128 480.465C410.985 480.897 410.842 480.897 410.555 480.897Z" fill="#B9B9B9"/>
<path d="M422.607 488.085C422.464 488.085 422.32 488.085 422.177 487.941L420.886 487.222C420.599 487.078 420.455 486.647 420.599 486.216C420.742 485.928 421.173 485.785 421.603 485.928L422.894 486.647C423.181 486.791 423.325 487.222 423.181 487.653C423.181 488.085 422.894 488.085 422.607 488.085Z" fill="#B9B9B9"/>
<path d="M380.996 490.097C380.853 490.097 380.709 490.097 380.566 489.954L379.274 489.235C378.987 489.091 378.844 488.66 378.987 488.229C379.131 487.941 379.561 487.797 379.992 487.941L381.283 488.66C381.57 488.804 381.714 489.235 381.57 489.666C381.57 489.954 381.283 490.097 380.996 490.097Z" fill="#B9B9B9"/>
<path d="M394.77 498.148C394.627 498.148 394.483 498.148 394.34 498.004L391.613 496.423C391.326 496.279 391.183 495.848 391.326 495.417C391.47 495.129 391.9 494.985 392.331 495.129L395.057 496.71C395.344 496.854 395.488 497.286 395.344 497.717C395.201 498.004 394.914 498.148 394.77 498.148ZM387.883 494.123C387.739 494.123 387.596 494.123 387.452 493.979L384.726 492.398C384.439 492.254 384.296 491.823 384.439 491.391C384.583 491.104 385.013 490.96 385.443 491.104L388.17 492.685C388.457 492.829 388.6 493.26 388.457 493.691C388.313 493.979 388.17 494.123 387.883 494.123Z" fill="#B9B9B9"/>
<path d="M400.078 501.311C399.935 501.311 399.791 501.311 399.648 501.167L398.356 500.448C398.069 500.305 397.926 499.873 398.069 499.442C398.213 499.154 398.643 499.011 399.074 499.154L400.365 499.873C400.652 500.017 400.796 500.448 400.652 500.88C400.509 501.167 400.222 501.311 400.078 501.311Z" fill="#B9B9B9"/>
<path d="M499.228 454.588L498.367 454.157L497.075 454.876L496.071 454.301L497.362 453.582L494.492 452L495.21 451.569L502.097 450.85L503.102 451.425L499.084 453.726L499.945 454.157L499.228 454.588ZM498.223 453.007L499.801 452.144C500.375 451.857 500.806 451.569 501.236 451.425C500.949 451.425 500.662 451.569 500.232 451.569L496.501 452L498.223 453.007Z" fill="#B9B9B9"/>
<path d="M505.971 456.457C504.823 457.032 503.963 457.463 503.102 457.607C502.241 457.751 501.38 457.607 500.662 457.176C499.945 456.745 499.658 456.313 499.945 455.738C500.088 455.163 500.806 454.588 501.81 454.013C502.958 453.438 503.819 453.007 504.823 452.863C505.684 452.719 506.545 452.863 507.263 453.294C507.98 453.726 508.267 454.157 507.98 454.732C507.693 455.307 506.976 455.882 505.971 456.457ZM502.815 454.588C501.954 455.019 501.38 455.451 501.236 455.738C501.093 456.026 501.093 456.313 501.523 456.601C501.954 456.888 502.384 456.888 502.958 456.745C503.532 456.601 504.25 456.313 504.967 455.882C505.828 455.451 506.258 455.019 506.545 454.732C506.689 454.444 506.689 454.157 506.258 453.869C505.828 453.582 505.397 453.582 504.823 453.726C504.25 453.869 503.676 454.157 502.815 454.588Z" fill="#B9B9B9"/>
<path d="M479.283 465.658C478.852 465.945 478.422 465.945 477.991 466.089C477.561 466.089 476.987 466.089 476.556 465.802C476.987 466.089 477.274 466.377 477.274 466.664C477.274 466.952 477.13 467.239 476.7 467.383C476.126 467.67 475.408 467.814 474.691 467.814C473.974 467.814 473.113 467.527 472.395 467.095C471.678 466.664 471.247 466.233 470.96 465.945L471.821 465.37C471.965 465.658 472.108 465.802 472.395 466.089C472.682 466.233 472.826 466.52 473.113 466.664C473.543 466.952 474.117 467.095 474.404 467.095C474.834 467.095 475.265 467.095 475.552 466.808C475.839 466.664 475.982 466.377 475.839 466.089C475.695 465.802 475.408 465.514 474.834 465.227L474.261 464.939L475.121 464.508L475.695 464.795C476.7 465.37 477.561 465.514 478.278 465.083C478.565 464.939 478.709 464.795 478.565 464.508C478.565 464.364 478.422 464.076 477.991 463.933C477.704 463.789 477.561 463.645 477.274 463.645C476.987 463.501 476.556 463.501 476.126 463.358L476.269 462.639C477.274 462.783 478.135 462.926 478.852 463.358C479.426 463.789 479.857 464.076 479.857 464.508C479.857 465.083 479.713 465.37 479.283 465.658Z" fill="#B9B9B9"/>
<path d="M483.014 469.827C481.866 470.402 481.005 470.833 480.144 470.977C479.283 471.121 478.422 470.977 477.705 470.546C476.987 470.114 476.7 469.683 476.987 469.108C477.131 468.533 477.848 467.958 478.853 467.383C480.001 466.808 480.862 466.377 481.866 466.233C482.727 466.089 483.588 466.233 484.305 466.664C485.023 467.095 485.31 467.527 485.023 468.102C484.736 468.677 484.018 469.108 483.014 469.827ZM479.714 467.958C478.853 468.389 478.279 468.821 478.135 469.108C477.992 469.396 477.992 469.683 478.422 469.971C478.853 470.258 479.283 470.258 479.857 470.114C480.431 469.971 481.149 469.683 481.866 469.252C482.727 468.821 483.157 468.389 483.444 468.102C483.588 467.814 483.588 467.527 483.157 467.239C482.727 466.952 482.296 466.952 481.722 467.095C481.292 467.095 480.575 467.383 479.714 467.958Z" fill="#B9B9B9"/>
<path d="M451.734 481.903L447.429 479.459L448.147 479.028H451.303C452.308 479.028 452.882 479.028 453.312 479.028C453.599 479.028 454.029 478.884 454.173 478.884C454.46 478.884 454.603 478.74 454.89 478.596C455.177 478.453 455.321 478.309 455.321 478.021C455.321 477.878 455.177 477.59 454.89 477.446C454.603 477.303 454.316 477.159 454.029 477.159C453.743 477.015 453.312 477.015 452.738 477.015L452.882 476.296C453.456 476.296 454.029 476.44 454.46 476.584C454.89 476.728 455.321 476.871 455.751 477.015C456.325 477.303 456.612 477.734 456.756 478.021C456.756 478.453 456.612 478.74 456.038 479.028C455.751 479.172 455.464 479.315 455.034 479.459C454.747 479.603 454.316 479.603 453.742 479.603C453.312 479.603 452.595 479.603 451.59 479.603H449.438L452.451 481.328L451.734 481.903Z" fill="#B9B9B9"/>
<path d="M460.056 483.053C458.909 483.628 458.048 484.059 457.187 484.203C456.326 484.347 455.465 484.203 454.747 483.772C454.03 483.341 453.743 482.909 454.03 482.334C454.173 481.759 454.891 481.184 455.895 480.609C457.043 480.034 457.904 479.603 458.909 479.459C459.769 479.315 460.63 479.459 461.348 479.89C462.065 480.322 462.352 480.753 462.065 481.328C461.635 481.903 461.061 482.478 460.056 483.053ZM456.756 481.184C455.895 481.615 455.321 482.047 455.178 482.334C455.034 482.622 455.034 482.909 455.465 483.197C455.895 483.484 456.326 483.484 456.9 483.341C457.474 483.197 458.191 482.909 458.909 482.478C459.769 482.047 460.2 481.615 460.487 481.328C460.63 481.04 460.63 480.753 460.2 480.465C459.769 480.178 459.339 480.178 458.765 480.322C458.335 480.465 457.617 480.753 456.756 481.184Z" fill="#B9B9B9"/>
<path d="M427.483 494.41L426.479 493.835L430.496 491.535C430.927 491.247 431.357 491.104 431.644 490.96C431.501 490.96 431.357 490.96 431.214 490.96C431.07 490.96 430.496 490.96 429.492 490.816L429.635 490.097L432.936 490.385L433.797 490.816L427.483 494.41Z" fill="#B9B9B9"/>
<path d="M436.954 496.423C435.806 496.998 434.945 497.429 434.084 497.573C433.223 497.717 432.363 497.573 431.645 497.142C430.928 496.71 430.641 496.279 430.928 495.704C431.071 495.129 431.789 494.554 432.793 493.979C433.941 493.404 434.802 492.973 435.806 492.829C436.667 492.685 437.528 492.829 438.246 493.26C438.963 493.691 439.25 494.123 438.963 494.698C438.676 495.273 438.102 495.704 436.954 496.423ZM433.797 494.554C432.937 494.985 432.363 495.417 432.219 495.704C432.076 495.992 432.076 496.279 432.506 496.567C432.937 496.854 433.367 496.854 433.941 496.71C434.515 496.567 435.232 496.279 435.95 495.848C436.811 495.417 437.241 494.985 437.528 494.698C437.672 494.41 437.672 494.123 437.241 493.835C436.811 493.548 436.38 493.548 435.806 493.691C435.376 493.691 434.658 493.979 433.797 494.554Z" fill="#B9B9B9"/>
<path d="M413.997 509.649C412.849 510.224 411.988 510.655 411.127 510.799C410.266 510.943 409.405 510.799 408.688 510.368C407.97 509.937 407.683 509.505 407.97 508.93C408.114 508.355 408.831 507.78 409.836 507.205C410.983 506.63 411.844 506.199 412.849 506.055C413.71 505.911 414.571 506.055 415.288 506.486C416.005 506.918 416.292 507.349 416.005 507.924C415.718 508.499 415.145 509.074 413.997 509.649ZM410.84 507.78C409.979 508.211 409.405 508.643 409.262 508.93C409.118 509.218 409.118 509.505 409.549 509.793C409.979 510.08 410.409 510.08 410.983 509.937C411.557 509.793 412.275 509.505 412.992 509.074C413.853 508.643 414.284 508.211 414.571 507.924C414.714 507.636 414.714 507.349 414.284 507.061C413.853 506.774 413.423 506.774 412.849 506.918C412.418 507.061 411.701 507.349 410.84 507.78Z" fill="#B9B9B9"/>
<mask id="mask2_210_19" style="mask-type:alpha" maskUnits="userSpaceOnUse" x="444" y="265" width="35" height="179">
<path d="M444.416 265.541H478.422V443.231H444.416V265.541Z" fill="url(#paint17_linear_210_19)"/>
</mask>
<g mask="url(#mask2_210_19)">
<g opacity="0.95">
<path d="M461.061 269.566L473.831 277.042L461.061 284.374L448.434 277.042L461.061 269.566Z" fill="url(#paint18_linear_210_19)"/>
<path d="M473.831 429.574L461.204 436.905V284.374L473.831 277.042V429.574Z" fill="url(#paint19_linear_210_19)"/>
<path d="M473.831 429.574L461.204 436.905V284.374L473.831 277.042V429.574Z" fill="url(#paint20_linear_210_19)"/>
<path d="M461.205 436.905L448.434 429.574V277.042L461.205 284.374V436.905Z" fill="url(#paint21_linear_210_19)"/>
</g>
<path d="M448.434 277.042L461.061 283.799L473.831 277.042L461.491 284.661L461.204 436.905L460.487 284.517L448.434 277.042Z" fill="#FFF500"/>
</g>
<mask id="mask3_210_19" style="mask-type:alpha" maskUnits="userSpaceOnUse" x="414" y="296" width="46" height="156">
<path d="M414.284 296.45H459.769V451.713H414.284V296.45Z" fill="url(#paint22_linear_210_19)"/>
</mask>
<g mask="url(#mask3_210_19)">
<g opacity="0.95">
<path d="M438.821 303.782L451.591 311.113L438.821 318.445L426.05 311.113L438.821 303.782Z" fill="url(#paint23_linear_210_19)"/>
<path d="M451.591 442.081L438.82 449.413V318.445L451.591 311.114V442.081Z" fill="url(#paint24_linear_210_19)"/>
<path d="M438.821 449.413L426.051 442.081V311.114L438.821 318.445V449.413Z" fill="url(#paint25_linear_210_19)"/>
</g>
<path d="M426.05 311.114L438.82 318.014L451.591 311.114L439.251 318.733L438.82 449.413L438.246 318.733L426.05 311.114Z" fill="white"/>
</g>
<mask id="mask4_210_19" style="mask-type:alpha" maskUnits="userSpaceOnUse" x="391" y="323" width="46" height="142">
<path d="M391.47 323.19H436.955V464.939H391.47V323.19Z" fill="url(#paint26_linear_210_19)"/>
</mask>
<g mask="url(#mask4_210_19)">
<g opacity="0.95">
<path d="M415.862 356.111L428.633 363.443L415.862 370.919L403.235 363.443L415.862 356.111Z" fill="url(#paint27_linear_210_19)"/>
<path d="M428.633 455.163L415.862 462.639V370.918L428.633 363.443V455.163Z" fill="url(#paint28_linear_210_19)"/>
<path d="M416.006 462.639L403.235 455.163V363.443L416.006 370.918V462.639Z" fill="url(#paint29_linear_210_19)"/>
</g>
<path d="M403.235 363.443L415.862 370.343L428.633 363.443L416.293 371.206L416.006 462.639L415.288 371.062L403.235 363.443Z" fill="white"/>
</g>
<mask id="mask5_210_19" style="mask-type:alpha" maskUnits="userSpaceOnUse" x="368" y="336" width="46" height="142">
<path d="M368.511 336.128H413.997V477.878H368.511V336.128Z" fill="url(#paint30_linear_210_19)"/>
</mask>
<g mask="url(#mask5_210_19)">
<g opacity="0.95">
<path d="M392.905 387.164L405.675 394.496L392.905 401.827L380.278 394.496L392.905 387.164Z" fill="url(#paint31_linear_210_19)"/>
<path d="M405.675 468.102L392.905 475.577V401.827L405.675 394.496V468.102Z" fill="url(#paint32_linear_210_19)"/>
<path d="M393.048 475.577L380.278 468.102V394.496L393.048 401.827V475.577Z" fill="url(#paint33_linear_210_19)"/>
</g>
<path d="M380.278 394.496L392.905 401.396L405.675 394.496L393.336 402.115L393.049 475.577L392.331 402.115L380.278 394.496Z" fill="white"/>
</g>
<mask id="mask6_210_19" style="mask-type:alpha" maskUnits="userSpaceOnUse" x="345" y="349" width="46" height="143">
<path d="M345.409 349.354H390.75V491.104H345.409V349.354Z" fill="url(#paint34_linear_210_19)"/>
</mask>
<g mask="url(#mask6_210_19)">
<g opacity="0.95">
<path d="M369.801 435.036L382.572 442.368L369.801 449.7L357.175 442.368L369.801 435.036Z" fill="url(#paint35_linear_210_19)"/>
<path d="M382.572 481.328L369.801 488.66V449.7L382.572 442.368V481.328Z" fill="url(#paint36_linear_210_19)"/>
<path d="M369.802 488.66L357.175 481.328V442.368L369.802 449.7V488.66Z" fill="url(#paint37_linear_210_19)"/>
</g>
<path d="M357.176 442.368L369.802 449.125L382.573 442.368L370.233 449.988L369.802 488.66L369.228 449.844L357.176 442.368Z" fill="white"/>
</g>
<path d="M273.083 133.17C285.683 133.17 295.897 122.936 295.897 110.312C295.897 97.6877 285.683 87.4537 273.083 87.4537C260.483 87.4537 250.269 97.6877 250.269 110.312C250.269 122.936 260.483 133.17 273.083 133.17Z" fill="url(#paint38_radial_210_19)"/>
<defs>
<linearGradient id="paint0_linear_210_19" x1="292.299" y1="429.072" x2="85.9719" y2="429.072" gradientUnits="userSpaceOnUse">
<stop offset="0.0555556" stop-color="#200041"/>
<stop offset="0.2576" stop-color="#210243"/>
<stop offset="0.3572" stop-color="#25084B"/>
<stop offset="0.4341" stop-color="#2C1358"/>
<stop offset="0.4697" stop-color="#311B61"/>
<stop offset="0.482" stop-color="#351F65"/>
<stop offset="0.4954" stop-color="#422C73"/>
<stop offset="0.5093" stop-color="#584188"/>
<stop offset="0.5235" stop-color="#765FA7"/>
<stop offset="0.5303" stop-color="#8770B8"/>
<stop offset="0.5366" stop-color="#7E67AE"/>
<stop offset="0.5617" stop-color="#5C468D"/>
<stop offset="0.5857" stop-color="#442E75"/>
<stop offset="0.6078" stop-color="#362066"/>
<stop offset="0.6263" stop-color="#311B61"/>
<stop offset="0.6724" stop-color="#2A1155"/>
<stop offset="0.7491" stop-color="#230446"/>
<stop offset="0.8131" stop-color="#200041"/>
<stop offset="1" stop-color="#200041"/>
</linearGradient>
<linearGradient id="paint1_linear_210_19" x1="104.495" y1="397.546" x2="300.139" y2="397.546" gradientUnits="userSpaceOnUse">
<stop offset="0.0555556" stop-color="#303030"/>
<stop offset="0.2338" stop-color="#323232"/>
<stop offset="0.3217" stop-color="#3A3A3A"/>
<stop offset="0.3897" stop-color="#474747"/>
<stop offset="0.4473" stop-color="#595959"/>
<stop offset="0.4697" stop-color="#636363"/>
<stop offset="0.481" stop-color="#676767"/>
<stop offset="0.4933" stop-color="#757575"/>
<stop offset="0.506" stop-color="#8A8A8A"/>
<stop offset="0.5191" stop-color="#A9A9A9"/>
<stop offset="0.5303" stop-color="#C9C9C9"/>
<stop offset="0.5467" stop-color="#ABABAB"/>
<stop offset="0.569" stop-color="#8A8A8A"/>
<stop offset="0.5903" stop-color="#727272"/>
<stop offset="0.6099" stop-color="#636363"/>
<stop offset="0.6263" stop-color="#5E5E5E"/>
<stop offset="0.6874" stop-color="#595959"/>
<stop offset="0.8131" stop-color="#545454"/>
<stop offset="1" stop-color="#353535"/>
</linearGradient>
<linearGradient id="paint2_linear_210_19" x1="104.52" y1="389.828" x2="300.14" y2="389.828" gradientUnits="userSpaceOnUse">
<stop stop-color="#686868"/>
<stop offset="0.0177082" stop-color="#676767"/>
<stop offset="0.4949" stop-color="#565656"/>
<stop offset="1" stop-color="#353535"/>
</linearGradient>
<linearGradient id="paint3_linear_210_19" x1="187.487" y1="386.333" x2="169.074" y2="355.521" gradientUnits="userSpaceOnUse">
<stop stop-color="#494949"/>
<stop offset="1"/>
</linearGradient>
<radialGradient id="paint4_radial_210_19" cx="0" cy="0" r="1" gradientUnits="userSpaceOnUse" gradientTransform="translate(186.876 428.247) rotate(180) scale(73.4065 73.5474)">
<stop stop-color="#C5C5C5"/>
<stop offset="0.3732" stop-color="#737373"/>
<stop offset="1" stop-color="#565656"/>
</radialGradient>
<linearGradient id="paint5_linear_210_19" x1="36.0727" y1="447.247" x2="352.613" y2="10.0718" gradientUnits="userSpaceOnUse">
<stop offset="0.0555556" stop-color="#303030"/>
<stop offset="0.1873" stop-color="#323232"/>
<stop offset="0.2523" stop-color="#3A3A3A"/>
<stop offset="0.3026" stop-color="#474747"/>
<stop offset="0.3451" stop-color="#595959"/>
<stop offset="0.3617" stop-color="#636363"/>
<stop offset="0.3792" stop-color="#676767"/>
<stop offset="0.3983" stop-color="#757575"/>
<stop offset="0.4181" stop-color="#929292"/>
<stop offset="0.4384" stop-color="#9A9A9A"/>
<stop offset="0.4558" stop-color="#9C9B9B"/>
<stop offset="0.4849" stop-color="#9E9898"/>
<stop offset="0.5246" stop-color="#8A8A8A"/>
<stop offset="0.5624" stop-color="#727272"/>
<stop offset="0.5972" stop-color="#636363"/>
<stop offset="0.6263" stop-color="#5E5E5E"/>
<stop offset="0.6874" stop-color="#595959"/>
<stop offset="0.8131" stop-color="#545454"/>
<stop offset="1" stop-color="#353535"/>
</linearGradient>
<linearGradient id="paint6_linear_210_19" x1="-31.0115" y1="456.758" x2="218.201" y2="59.3141" gradientUnits="userSpaceOnUse">
<stop offset="0.0555556" stop-color="#303030"/>
<stop offset="0.2338" stop-color="#323232"/>
<stop offset="0.3217" stop-color="#3A3A3A"/>
<stop offset="0.3897" stop-color="#474747"/>
<stop offset="0.4473" stop-color="#595959"/>
<stop offset="0.4697" stop-color="#636363"/>
<stop offset="0.481" stop-color="#676767"/>
<stop offset="0.4933" stop-color="#757575"/>
<stop offset="0.506" stop-color="#8A8A8A"/>
<stop offset="0.5191" stop-color="#A9A9A9"/>
<stop offset="0.5303" stop-color="#C9C9C9"/>
<stop offset="0.5467" stop-color="#ABABAB"/>
<stop offset="0.569" stop-color="#8A8A8A"/>
<stop offset="0.5903" stop-color="#727272"/>
<stop offset="0.6099" stop-color="#636363"/>
<stop offset="0.6263" stop-color="#5E5E5E"/>
<stop offset="0.6874" stop-color="#595959"/>
<stop offset="0.8131" stop-color="#545454"/>
<stop offset="1" stop-color="#353535"/>
</linearGradient>
<radialGradient id="paint7_radial_210_19" cx="0" cy="0" r="1" gradientUnits="userSpaceOnUse" gradientTransform="translate(39.4883 230.176) rotate(180) scale(42.3032 42.3844)">
<stop stop-color="#9F9F9F"/>
<stop offset="0.3732" stop-color="#929292"/>
<stop offset="1" stop-color="#686868"/>
</radialGradient>
<radialGradient id="paint8_radial_210_19" cx="0" cy="0" r="1" gradientUnits="userSpaceOnUse" gradientTransform="translate(140.245 213.383) scale(169.23 169.555)">
<stop stop-color="#848484"/>
<stop offset="1" stop-color="#727272"/>
</radialGradient>
<radialGradient id="paint9_radial_210_19" cx="0" cy="0" r="1" gradientUnits="userSpaceOnUse" gradientTransform="translate(203.14 447.917) scale(69.6392 69.7728)">
<stop stop-color="#848484"/>
<stop offset="1" stop-color="#727272"/>
</radialGradient>
<linearGradient id="paint10_linear_210_19" x1="204.592" y1="139.958" x2="276.936" y2="304.356" gradientUnits="userSpaceOnUse">
<stop stop-color="white"/>
<stop offset="1"/>
</linearGradient>
<linearGradient id="paint11_linear_210_19" x1="182.301" y1="151.814" x2="284.44" y2="383.918" gradientUnits="userSpaceOnUse">
<stop stop-color="#E9D700"/>
<stop offset="1" stop-color="#E9D700" stop-opacity="0"/>
</linearGradient>
<linearGradient id="paint12_linear_210_19" x1="201.935" y1="130.645" x2="301.186" y2="300.535" gradientUnits="userSpaceOnUse">
<stop offset="0.5606" stop-color="white"/>
<stop offset="0.6076" stop-color="#F5F4F5"/>
<stop offset="0.689" stop-color="#D8D8D9"/>
<stop offset="0.795" stop-color="#ABAAAB"/>
<stop offset="0.9202" stop-color="#6C6C6D"/>
<stop offset="1" stop-color="#414042"/>
</linearGradient>
<linearGradient id="paint13_linear_210_19" x1="273.318" y1="34.3365" x2="270.093" y2="262.941" gradientUnits="userSpaceOnUse">
<stop stop-color="#FFCE00"/>
<stop offset="1" stop-color="#FFCE00" stop-opacity="0"/>
</linearGradient>
<linearGradient id="paint14_linear_210_19" x1="271.54" y1="120.345" x2="271.098" y2="262.585" gradientUnits="userSpaceOnUse">
<stop stop-color="#FFCE00"/>
<stop offset="1" stop-color="#FFCE00" stop-opacity="0"/>
</linearGradient>
<linearGradient id="paint15_linear_210_19" x1="218.012" y1="307.352" x2="351.142" y2="307.352" gradientUnits="userSpaceOnUse">
<stop stop-color="#E9D700"/>
<stop offset="1" stop-color="#E9D700" stop-opacity="0"/>
</linearGradient>
<linearGradient id="paint16_linear_210_19" x1="275.312" y1="251.905" x2="382.959" y2="434.554" gradientUnits="userSpaceOnUse">
<stop stop-color="#E9D700"/>
<stop offset="1" stop-color="#E9D700" stop-opacity="0"/>
</linearGradient>
<linearGradient id="paint17_linear_210_19" x1="461.438" y1="272.003" x2="461.438" y2="433.711" gradientUnits="userSpaceOnUse">
<stop offset="0.5606" stop-color="white"/>
<stop offset="0.6076" stop-color="#F5F4F5"/>
<stop offset="0.689" stop-color="#D8D8D9"/>
<stop offset="0.795" stop-color="#ABAAAB"/>
<stop offset="0.9202" stop-color="#6C6C6D"/>
<stop offset="1" stop-color="#414042"/>
</linearGradient>
<linearGradient id="paint18_linear_210_19" x1="458.017" y1="280.714" x2="509.31" y2="219.473" gradientUnits="userSpaceOnUse">
<stop offset="0.00505051" stop-color="#FFD400"/>
<stop offset="0.202" stop-color="#FFD400"/>
<stop offset="0.239" stop-color="#F4CD0F"/>
<stop offset="0.4851" stop-color="#ADA26C"/>
<stop offset="0.596" stop-color="#919191"/>
<stop offset="0.6905" stop-color="#888888"/>
<stop offset="0.8439" stop-color="#707070"/>
<stop offset="1" stop-color="#515151"/>
</linearGradient>
<linearGradient id="paint19_linear_210_19" x1="467.493" y1="249.665" x2="467.493" y2="508.444" gradientUnits="userSpaceOnUse">
<stop offset="0.00505051" stop-color="#FFE4A7"/>
<stop offset="0.099793" stop-color="#FAC098"/>
<stop offset="0.202" stop-color="#F49587"/>
<stop offset="0.4638" stop-color="#A142B5"/>
<stop offset="0.596" stop-color="#7C1DC9"/>
<stop offset="0.6916" stop-color="#741BC0"/>
<stop offset="0.8463" stop-color="#5F16A8"/>
<stop offset="1" stop-color="#45108A"/>
</linearGradient>
<linearGradient id="paint20_linear_210_19" x1="466.93" y1="286.903" x2="468.48" y2="479.011" gradientUnits="userSpaceOnUse">
<stop offset="0.00505051" stop-color="#FFD400"/>
<stop offset="0.202" stop-color="#FFD400"/>
<stop offset="0.239" stop-color="#F4CD0F"/>
<stop offset="0.4851" stop-color="#ADA26C"/>
<stop offset="0.596" stop-color="#919191"/>
<stop offset="0.6905" stop-color="#888888"/>
<stop offset="0.8439" stop-color="#707070"/>
<stop offset="1" stop-color="#515151"/>
</linearGradient>
<linearGradient id="paint21_linear_210_19" x1="454.779" y1="266.198" x2="454.779" y2="500.053" gradientUnits="userSpaceOnUse">
<stop offset="0.00505051" stop-color="#FFD400"/>
<stop offset="0.202" stop-color="#FFD400"/>
<stop offset="0.239" stop-color="#F4CD0F"/>
<stop offset="0.4851" stop-color="#ADA26C"/>
<stop offset="0.596" stop-color="#919191"/>
<stop offset="0.6905" stop-color="#888888"/>
<stop offset="0.8439" stop-color="#707070"/>
<stop offset="1" stop-color="#515151"/>
</linearGradient>
<linearGradient id="paint22_linear_210_19" x1="437.058" y1="302.088" x2="437.058" y2="443.379" gradientUnits="userSpaceOnUse">
<stop offset="0.5606" stop-color="white"/>
<stop offset="0.6076" stop-color="#F5F4F5"/>
<stop offset="0.689" stop-color="#D8D8D9"/>
<stop offset="0.795" stop-color="#ABAAAB"/>
<stop offset="0.9202" stop-color="#6C6C6D"/>
<stop offset="1" stop-color="#414042"/>
</linearGradient>
<linearGradient id="paint23_linear_210_19" x1="426.12" y1="311.126" x2="451.542" y2="311.126" gradientUnits="userSpaceOnUse">
<stop stop-color="#4C4C4C"/>
<stop offset="1" stop-color="#CCCCCC"/>
</linearGradient>
<linearGradient id="paint24_linear_210_19" x1="438.834" y1="380.254" x2="451.552" y2="380.254" gradientUnits="userSpaceOnUse">
<stop stop-color="#4C4C4C"/>
<stop offset="1" stop-color="#CCCCCC"/>
</linearGradient>
<linearGradient id="paint25_linear_210_19" x1="426.12" y1="380.254" x2="438.837" y2="380.254" gradientUnits="userSpaceOnUse">
<stop stop-color="#4C4C4C"/>
<stop offset="1" stop-color="#CCCCCC"/>
</linearGradient>
<linearGradient id="paint26_linear_210_19" x1="414.157" y1="328.396" x2="414.157" y2="457.313" gradientUnits="userSpaceOnUse">
<stop offset="0.5606" stop-color="white"/>
<stop offset="0.6076" stop-color="#F5F4F5"/>
<stop offset="0.689" stop-color="#D8D8D9"/>
<stop offset="0.795" stop-color="#ABAAAB"/>
<stop offset="0.9202" stop-color="#6C6C6D"/>
<stop offset="1" stop-color="#414042"/>
</linearGradient>
<linearGradient id="paint27_linear_210_19" x1="403.219" y1="363.501" x2="428.641" y2="363.501" gradientUnits="userSpaceOnUse">
<stop stop-color="#4C4C4C"/>
<stop offset="1" stop-color="#CCCCCC"/>
</linearGradient>
<linearGradient id="paint28_linear_210_19" x1="415.934" y1="413.043" x2="428.651" y2="413.043" gradientUnits="userSpaceOnUse">
<stop stop-color="#4C4C4C"/>
<stop offset="1" stop-color="#CCCCCC"/>
</linearGradient>
<linearGradient id="paint29_linear_210_19" x1="403.218" y1="413.043" x2="415.936" y2="413.043" gradientUnits="userSpaceOnUse">
<stop stop-color="#4C4C4C"/>
<stop offset="1" stop-color="#CCCCCC"/>
</linearGradient>
<linearGradient id="paint30_linear_210_19" x1="391.198" y1="341.334" x2="391.198" y2="470.252" gradientUnits="userSpaceOnUse">
<stop offset="0.5606" stop-color="white"/>
<stop offset="0.6076" stop-color="#F5F4F5"/>
<stop offset="0.689" stop-color="#D8D8D9"/>
<stop offset="0.795" stop-color="#ABAAAB"/>
<stop offset="0.9202" stop-color="#6C6C6D"/>
<stop offset="1" stop-color="#414042"/>
</linearGradient>
<linearGradient id="paint31_linear_210_19" x1="380.262" y1="394.508" x2="405.683" y2="394.508" gradientUnits="userSpaceOnUse">
<stop stop-color="#4C4C4C"/>
<stop offset="1" stop-color="#CCCCCC"/>
</linearGradient>
<linearGradient id="paint32_linear_210_19" x1="392.976" y1="435.016" x2="405.694" y2="435.016" gradientUnits="userSpaceOnUse">
<stop stop-color="#4C4C4C"/>
<stop offset="1" stop-color="#CCCCCC"/>
</linearGradient>
<linearGradient id="paint33_linear_210_19" x1="380.261" y1="435.016" x2="392.978" y2="435.016" gradientUnits="userSpaceOnUse">
<stop stop-color="#4C4C4C"/>
<stop offset="1" stop-color="#CCCCCC"/>
</linearGradient>
<linearGradient id="paint34_linear_210_19" x1="368.081" y1="354.538" x2="368.081" y2="483.456" gradientUnits="userSpaceOnUse">
<stop offset="0.5606" stop-color="white"/>
<stop offset="0.6076" stop-color="#F5F4F5"/>
<stop offset="0.689" stop-color="#D8D8D9"/>
<stop offset="0.795" stop-color="#ABAAAB"/>
<stop offset="0.9202" stop-color="#6C6C6D"/>
<stop offset="1" stop-color="#414042"/>
</linearGradient>
<linearGradient id="paint35_linear_210_19" x1="357.143" y1="442.328" x2="382.564" y2="442.328" gradientUnits="userSpaceOnUse">
<stop stop-color="#4C4C4C"/>
<stop offset="1" stop-color="#CCCCCC"/>
</linearGradient>
<linearGradient id="paint36_linear_210_19" x1="369.857" y1="465.528" x2="382.575" y2="465.528" gradientUnits="userSpaceOnUse">
<stop stop-color="#4C4C4C"/>
<stop offset="1" stop-color="#CCCCCC"/>
</linearGradient>
<linearGradient id="paint37_linear_210_19" x1="357.142" y1="465.528" x2="369.86" y2="465.528" gradientUnits="userSpaceOnUse">
<stop stop-color="#4C4C4C"/>
<stop offset="1" stop-color="#CCCCCC"/>
</linearGradient>
<radialGradient id="paint38_radial_210_19" cx="0" cy="0" r="1" gradientUnits="userSpaceOnUse" gradientTransform="translate(273.013 110.319) rotate(-118.165) scale(22.7916 22.7674)">
<stop stop-color="#FEC704"/>
<stop offset="1" stop-color="#FAFF00" stop-opacity="0"/>
</radialGradient>
</defs>
</svg>
