<svg width="494" height="516" viewBox="0 0 494 516" fill="none" xmlns="http://www.w3.org/2000/svg">
<path style="mix-blend-mode:color-dodge" opacity="0.5" d="M267.212 359.564C335.361 330.254 382.859 288.546 373.302 266.406C363.746 244.267 300.753 250.08 232.604 279.39C164.455 308.701 116.956 350.409 126.513 372.548C136.07 394.688 199.063 388.875 267.212 359.564Z" fill="url(#paint0_radial_231_4)"/>
<path d="M243.609 403.068L152.961 349.457L183.294 300.203L273.926 353.813L243.609 403.068Z" fill="url(#paint1_linear_231_4)"/>
<path d="M153.648 349.214L244.249 402.855L213.733 420.43L123.116 366.805L153.648 349.214Z" fill="url(#paint2_linear_231_4)"/>
<path d="M67.3945 414.216L156.989 467.522L134.621 505.902L44.0193 452.262L67.3945 414.216Z" fill="url(#paint3_linear_231_4)"/>
<path d="M67.3945 414.216L156.989 467.522L201.192 440.763L110.59 387.137L67.3945 414.216Z" fill="url(#paint4_linear_231_4)"/>
<path d="M134.728 516L44.0803 462.39V452.185L134.728 505.796V516Z" fill="url(#paint5_linear_231_4)"/>
<path d="M201.253 440.687L110.605 387.076L123.574 366.515L214.222 420.126L201.253 440.687Z" fill="url(#paint6_linear_231_4)"/>
<path d="M272.614 249.928L362.224 303.234L274.231 354.103L183.63 300.477L272.614 249.928Z" fill="url(#paint7_linear_231_4)"/>
<path d="M272.614 249.928L362.224 303.234L398.019 246.577L307.417 192.952L272.614 249.928Z" fill="url(#paint8_linear_231_4)"/>
<path d="M461.904 210.664L469.777 207.024L360.973 0L352.398 2.95466L461.904 210.664Z" fill="url(#paint9_linear_231_4)"/>
<path d="M397.729 173.685V246.973L362.606 303.234L273.926 353.813L243.593 402.23L213.749 420.415L200.78 440.824L156.806 466.959L134.713 505.796V516L405.191 361.87V171.69L397.729 173.685Z" fill="url(#paint10_linear_231_4)"/>
<path d="M307.509 121.689V195.251L397.729 247.247V173.685L461.904 210.664L352.627 2.69574L243.334 84.7105L307.509 121.689Z" fill="url(#paint11_linear_231_4)"/>
<path style="mix-blend-mode:multiply" d="M292.358 339.086C325.096 339.086 351.635 328.06 351.635 314.458C351.635 300.857 325.096 289.831 292.358 289.831C259.62 289.831 233.081 300.857 233.081 314.458C233.081 328.06 259.62 339.086 292.358 339.086Z" fill="url(#paint12_radial_231_4)"/>
<path d="M249.559 112.14C200.062 83.6139 159.949 106.459 159.949 163.146C159.949 219.833 200.062 288.902 249.559 317.428C299.056 345.955 339.169 323.109 339.169 266.422C339.169 209.735 299.056 140.666 249.559 112.14ZM249.559 285.841C215.29 266.042 187.52 218.28 187.52 179.031C187.52 139.783 215.29 123.974 249.559 143.728C283.829 163.481 311.598 211.289 311.598 250.537C311.598 289.785 283.798 305.579 249.559 285.841Z" fill="url(#paint13_linear_231_4)"/>
<path d="M241.732 116.679C192.25 88.1678 152.122 110.998 152.122 167.685C152.122 224.372 192.25 293.441 241.732 321.967C291.213 350.493 331.342 327.663 331.342 270.961C331.342 214.259 291.213 145.205 241.732 116.679Z" fill="url(#paint14_linear_231_4)"/>
<g style="mix-blend-mode:color-dodge" opacity="0.5">
<path d="M243.059 115.932C217.96 101.464 195.271 100.215 178.976 109.84C195.134 101.007 217.273 102.56 241.701 116.633C291.183 145.159 331.311 214.228 331.311 270.915C331.311 298.863 321.561 318.571 305.754 327.968C322.34 318.83 332.639 298.878 332.639 270.093C332.623 213.528 292.541 144.443 243.059 115.932Z" fill="url(#paint15_radial_231_4)"/>
</g>
<path d="M305.495 328.197C340.269 307.906 339.913 242.714 304.699 182.588C269.486 122.461 212.751 90.1687 177.977 110.46C143.203 130.751 143.559 195.943 178.772 256.069C213.985 316.196 270.721 348.488 305.495 328.197Z" fill="#231F20"/>
<path d="M300.208 323.259C333.276 304.068 333.086 242.16 299.783 184.984C266.481 127.808 212.677 97.0148 179.609 116.205C146.541 135.396 146.731 197.304 180.033 254.48C213.336 311.656 267.14 342.449 300.208 323.259Z" fill="url(#paint16_radial_231_4)"/>
<path d="M293.898 308.396C322.35 291.793 322.061 238.458 293.253 189.267C264.444 140.077 218.026 113.659 189.574 130.262C161.122 146.864 161.41 200.2 190.219 249.39C219.027 298.58 265.446 324.998 293.898 308.396Z" fill="#F1F2F2"/>
<path d="M285.204 293.551C308.913 279.716 308.671 235.271 284.664 194.279C260.657 153.287 221.976 131.271 198.267 145.106C174.558 158.941 174.8 203.386 198.807 244.378C222.814 285.37 261.495 307.386 285.204 293.551Z" fill="url(#paint17_radial_231_4)"/>
<path d="M274.361 278.882C293.254 267.918 293.144 232.547 274.117 199.879C255.089 167.211 224.349 149.617 205.456 160.581C186.563 171.546 186.672 206.917 205.7 239.585C224.727 272.252 255.468 289.847 274.361 278.882Z" fill="#F1F2F2"/>
<path d="M267.817 263.862C282.047 255.559 281.905 228.889 267.501 204.294C253.097 179.699 229.884 166.492 215.655 174.795C201.425 183.098 201.567 209.768 215.971 234.363C230.375 258.958 253.587 272.165 267.817 263.862Z" fill="url(#paint18_radial_231_4)"/>
<path d="M259.123 249.018C268.61 243.482 268.515 225.702 258.912 209.306C249.31 192.909 233.835 184.104 224.348 189.64C214.862 195.175 214.956 212.955 224.559 229.352C234.162 245.748 249.637 254.553 259.123 249.018Z" fill="#F1F2F2"/>
<path d="M250.429 234.173C255.173 231.405 255.125 222.515 250.324 214.317C245.523 206.119 237.785 201.716 233.042 204.484C228.299 207.252 228.346 216.142 233.147 224.34C237.949 232.538 245.686 236.941 250.429 234.173Z" fill="url(#paint19_radial_231_4)"/>
<path style="mix-blend-mode:color-dodge" d="M241.732 121.354C216.022 106.535 192.983 106.261 177.298 117.791C192.922 107.388 215.32 108.104 240.191 122.451C287.491 149.667 325.727 215.614 325.727 269.712C325.727 294.385 317.762 312.357 304.625 321.952C318.678 312.6 327.268 294.233 327.268 268.646C327.268 214.518 288.971 148.571 241.732 121.354Z" fill="url(#paint20_radial_231_4)"/>
<path style="mix-blend-mode:color-dodge" d="M241.732 149.348C223.194 138.686 206.639 138.565 195.394 147.048C206.547 139.692 222.492 140.24 240.191 150.444C273.942 169.893 301.223 216.985 301.223 255.639C301.223 273.048 295.669 285.75 286.468 292.71C296.584 286.039 302.764 272.91 302.764 254.543C302.825 215.888 275.467 168.797 241.732 149.348Z" fill="url(#paint21_radial_231_4)"/>
<path style="mix-blend-mode:color-dodge" d="M241.732 177.341C230.365 170.792 220.203 170.853 213.474 176.29C220.157 171.995 229.663 172.36 240.191 178.437C260.438 190.104 276.81 218.356 276.81 241.551C276.81 251.71 273.652 259.218 268.403 263.452C274.506 259.493 278.336 251.573 278.336 240.455C278.381 217.259 261.979 189.007 241.732 177.341Z" fill="url(#paint22_radial_231_4)"/>
<path style="mix-blend-mode:color-dodge" d="M241.732 205.334C237.673 202.988 234.103 203.202 231.875 205.334C234.057 204.268 236.971 204.511 240.191 206.37C246.935 210.253 252.397 219.666 252.397 227.402C252.48 228.649 252.313 229.9 251.907 231.081C251.501 232.263 250.864 233.353 250.032 234.287C252.428 233.114 253.938 230.357 253.938 226.306C253.954 218.645 248.476 209.218 241.732 205.334Z" fill="url(#paint23_radial_231_4)"/>
<g style="mix-blend-mode:color-dodge" opacity="0.8">
<path d="M59.6282 351.468V371.709L70.5834 355.275L59.6282 351.468Z" fill="#FFB000"/>
</g>
<g style="mix-blend-mode:color-dodge" opacity="0.6">
<path d="M44.7212 359.982V380.223L55.6764 363.789L44.7212 359.982Z" fill="#FFB000"/>
</g>
<g style="mix-blend-mode:color-dodge" opacity="0.4">
<path d="M29.814 368.48V388.736L40.7692 372.303L29.814 368.48Z" fill="#FFB000"/>
</g>
<g style="mix-blend-mode:color-dodge" opacity="0.25">
<path d="M14.907 376.994V397.235L25.8622 380.817L14.907 376.994Z" fill="#FFB000"/>
</g>
<g style="mix-blend-mode:color-dodge" opacity="0.15">
<path d="M0 385.507V405.748L10.94 389.33L0 385.507Z" fill="#FFB000"/>
</g>
<g style="mix-blend-mode:color-dodge" opacity="0.8">
<path d="M130.211 204.74V224.981L141.151 208.563L130.211 204.74Z" fill="#FFB000"/>
</g>
<g style="mix-blend-mode:color-dodge" opacity="0.6">
<path d="M115.304 213.254V233.495L126.244 217.061L115.304 213.254Z" fill="#FFB000"/>
</g>
<g style="mix-blend-mode:color-dodge" opacity="0.4">
<path d="M100.397 221.767V242.008L111.337 225.575L100.397 221.767Z" fill="#FFB000"/>
</g>
<g style="mix-blend-mode:color-dodge" opacity="0.25">
<path d="M85.4751 230.281V250.522L96.4303 234.089L85.4751 230.281Z" fill="#FFB000"/>
</g>
<g style="mix-blend-mode:color-dodge" opacity="0.15">
<path d="M70.5681 238.795V259.036L81.5233 242.602L70.5681 238.795Z" fill="#FFB000"/>
</g>
<g style="mix-blend-mode:color-dodge" opacity="0.8">
<path d="M68.3403 200.095V220.336L79.2955 203.902L68.3403 200.095Z" fill="#FFB000"/>
</g>
<g style="mix-blend-mode:color-dodge" opacity="0.6">
<path d="M53.4333 208.608V228.849L64.3886 212.416L53.4333 208.608Z" fill="#FFB000"/>
</g>
<g style="mix-blend-mode:color-dodge" opacity="0.4">
<path d="M38.5264 217.122V237.363L49.4816 220.93L38.5264 217.122Z" fill="#FFB000"/>
</g>
<g style="mix-blend-mode:color-dodge" opacity="0.25">
<path d="M23.6194 225.636V245.877L34.5746 229.443L23.6194 225.636Z" fill="#FFB000"/>
</g>
<g style="mix-blend-mode:color-dodge" opacity="0.15">
<path d="M8.7124 234.134V254.39L19.6524 237.957L8.7124 234.134Z" fill="#FFB000"/>
</g>
<g opacity="0.8">
<path style="mix-blend-mode:color-dodge" d="M123.574 366.515L213.932 419.364L243.303 402.52L214.603 420.705L200.78 440.824L212.971 420.415L123.574 366.515Z" fill="url(#paint24_radial_231_4)"/>
<path style="mix-blend-mode:color-dodge" d="M183.462 300.081L273.819 352.93L346.966 312.57L274.491 354.255L250.078 391.95L272.858 353.966L183.462 300.081Z" fill="url(#paint25_radial_231_4)"/>
<path style="mix-blend-mode:color-dodge" d="M68.1267 414.795L156.714 466.014L193.807 445.073L157.371 467.339L135.628 504.09L155.753 467.05L68.1267 414.795Z" fill="url(#paint26_radial_231_4)"/>
<path style="mix-blend-mode:color-dodge" d="M362.605 303.234L397.729 247.247V173.686L396.539 246.12L362.605 303.234Z" fill="url(#paint27_radial_231_4)"/>
<path style="mix-blend-mode:color-dodge" d="M461.385 210.756L352.306 2.72623L353.573 2.48254L462.408 210.116L461.385 210.756Z" fill="url(#paint28_radial_231_4)"/>
</g>
<g opacity="0.95">
<path d="M442.954 238.642L461.218 249.166L442.954 259.706L424.675 249.166L442.954 238.642Z" fill="url(#paint29_linear_231_4)"/>
<path d="M461.233 397.813L442.954 408.338V259.706L461.233 249.166V397.813Z" fill="url(#paint30_linear_231_4)"/>
<path d="M442.954 408.338L424.675 397.813V249.166L442.954 259.706V408.338Z" fill="url(#paint31_linear_231_4)"/>
</g>
<path style="mix-blend-mode:color-dodge" d="M424.675 249.166L442.862 258.944L461.233 249.166L443.503 260.102L442.954 408.338L442.084 259.965L424.675 249.166Z" fill="url(#paint32_linear_231_4)"/>
<g opacity="0.95">
<path d="M416.756 283.419L435.02 293.959L416.756 304.498L398.492 293.959L416.756 283.419Z" fill="url(#paint33_linear_231_4)"/>
<path d="M435.035 412.374L416.756 422.898V304.498L435.035 293.959V412.374Z" fill="url(#paint34_linear_231_4)"/>
<path d="M416.756 422.898L398.477 412.374V293.959L416.756 304.498V422.898Z" fill="url(#paint35_linear_231_4)"/>
</g>
<path style="mix-blend-mode:color-dodge" d="M398.477 293.959L416.665 303.736L435.035 293.959L417.305 304.894L416.756 422.898L415.886 304.757L398.477 293.959Z" fill="url(#paint36_linear_231_4)"/>
<g opacity="0.95">
<path d="M389.948 329.902L408.212 340.441L389.948 350.965L371.684 340.426L389.948 329.902Z" fill="url(#paint37_linear_231_4)"/>
<path d="M408.227 426.477L389.948 437.016V350.965L408.227 340.426V426.477Z" fill="url(#paint38_linear_231_4)"/>
<path d="M389.948 437.016L371.684 426.477V340.426L389.948 350.965V437.016Z" fill="url(#paint39_linear_231_4)"/>
</g>
<path style="mix-blend-mode:color-dodge" d="M371.684 340.426L389.856 350.204L408.227 340.426L390.512 351.361L389.948 437.016L389.093 351.224L371.684 340.426Z" fill="url(#paint40_linear_231_4)"/>
<g opacity="0.95">
<path d="M363.475 380.771L381.739 391.31L363.475 401.849L345.211 391.31L363.475 380.771Z" fill="url(#paint41_linear_231_4)"/>
<path d="M363.475 432.021L381.739 442.56L363.475 453.084L345.211 442.545L363.475 432.021Z" fill="url(#paint42_linear_231_4)"/>
<path d="M381.754 442.956L363.475 453.495V401.834L381.754 391.31V442.956Z" fill="url(#paint43_linear_231_4)"/>
<path d="M363.49 453.495L345.211 442.956V391.31L363.49 401.834V453.495Z" fill="url(#paint44_linear_231_4)"/>
</g>
<path style="mix-blend-mode:color-dodge" d="M345.211 391.31L363.384 401.073L381.754 391.31L364.04 402.245L363.49 453.495L362.621 402.108L345.211 391.31Z" fill="url(#paint45_linear_231_4)"/>
<g opacity="0.95">
<path d="M336.926 420.004L355.19 430.543L336.926 441.083L318.663 430.543L336.926 420.004Z" fill="url(#paint46_linear_231_4)"/>
<path d="M355.205 458.049L336.942 468.573V441.067L355.205 430.543V458.049Z" fill="url(#paint47_linear_231_4)"/>
<path d="M336.942 468.573L318.663 458.049V430.543L336.942 441.067V468.573Z" fill="url(#paint48_linear_231_4)"/>
</g>
<path style="mix-blend-mode:color-dodge" d="M318.663 430.543L336.85 440.321L355.205 430.543L337.491 441.479L336.942 468.573L336.072 441.341L318.663 430.543Z" fill="url(#paint49_linear_231_4)"/>
<path opacity="0.9" d="M493 337.943H463.308V427.451C463.308 427.451 463.308 427.451 463.308 427.573C463.308 432.34 469.961 436.194 478.154 436.194C486.348 436.194 493 432.34 493 427.573V427.451V337.943Z" fill="url(#paint50_linear_231_4)"/>
<path style="mix-blend-mode:screen" opacity="0.7" d="M493 337.943H463.308V427.451C463.308 427.451 463.308 427.451 463.308 427.573C463.308 432.34 469.961 436.194 478.154 436.194C486.348 436.194 493 432.34 493 427.573V427.451V337.943Z" fill="url(#paint51_linear_231_4)"/>
<path d="M478.154 346.64C486.353 346.64 493 342.774 493 338.004C493 333.235 486.353 329.369 478.154 329.369C469.955 329.369 463.308 333.235 463.308 338.004C463.308 342.774 469.955 346.64 478.154 346.64Z" fill="url(#paint52_linear_231_4)"/>
<path style="mix-blend-mode:color-dodge" d="M478.154 346.488C470.25 346.488 463.811 342.893 463.354 338.37C463.354 338.537 463.354 338.705 463.354 338.873C463.354 343.64 470.006 347.508 478.2 347.508C486.393 347.508 493.046 343.64 493.046 338.873C493.046 338.705 493.046 338.537 493.046 338.37C492.512 342.893 486.058 346.488 478.154 346.488Z" fill="url(#paint53_linear_231_4)"/>
<path opacity="0.9" d="M463.751 381.304H434.059V444.509V444.631C434.059 449.398 440.711 453.267 448.905 453.267C457.098 453.267 463.751 449.398 463.751 444.631V444.509V381.304Z" fill="url(#paint54_linear_231_4)"/>
<path style="mix-blend-mode:screen" opacity="0.7" d="M463.751 381.304H434.059V444.509V444.631C434.059 449.398 440.711 453.267 448.905 453.267C457.098 453.267 463.751 449.398 463.751 444.631V444.509V381.304Z" fill="url(#paint55_linear_231_4)"/>
<path d="M448.905 390C457.104 390 463.751 386.134 463.751 381.365C463.751 376.596 457.104 372.729 448.905 372.729C440.705 372.729 434.059 376.596 434.059 381.365C434.059 386.134 440.705 390 448.905 390Z" fill="url(#paint56_linear_231_4)"/>
<path style="mix-blend-mode:color-dodge" d="M448.904 389.894C441.001 389.894 434.562 386.299 434.104 381.776C434.104 381.944 434.104 382.111 434.104 382.279C434.104 387.046 440.757 390.914 448.95 390.914C457.144 390.914 463.796 387.046 463.796 382.279C463.811 382.111 463.811 381.943 463.796 381.776C463.247 386.254 456.808 389.894 448.904 389.894Z" fill="url(#paint57_linear_231_4)"/>
<path opacity="0.9" d="M434.196 425.715H404.504V462.633V462.74C404.504 467.507 411.141 471.375 419.35 471.375C427.559 471.375 434.196 467.507 434.196 462.74V462.633V425.715Z" fill="url(#paint58_linear_231_4)"/>
<path style="mix-blend-mode:screen" opacity="0.7" d="M434.196 425.715H404.504V462.633V462.74C404.504 467.507 411.141 471.375 419.35 471.375C427.559 471.375 434.196 467.507 434.196 462.74V462.633V425.715Z" fill="url(#paint59_linear_231_4)"/>
<path d="M419.35 434.396C427.549 434.396 434.196 430.53 434.196 425.761C434.196 420.992 427.549 417.125 419.35 417.125C411.151 417.125 404.504 420.992 404.504 425.761C404.504 430.53 411.151 434.396 419.35 434.396Z" fill="url(#paint60_linear_231_4)"/>
<path style="mix-blend-mode:color-dodge" d="M419.35 434.259C411.446 434.259 405.007 430.665 404.55 426.126C404.535 426.299 404.535 426.472 404.55 426.644C404.55 431.411 411.187 435.28 419.396 435.28C427.604 435.28 434.242 431.411 434.242 426.644C434.242 426.477 434.242 426.309 434.242 426.126C433.692 430.665 427.223 434.259 419.35 434.259Z" fill="url(#paint61_linear_231_4)"/>
<path d="M492.985 335.065H463.293V339.253C463.293 339.253 463.293 339.329 463.293 339.375C463.293 344.127 469.945 347.995 478.139 347.995C486.332 347.995 492.985 344.127 492.985 339.375V339.253V335.065Z" fill="url(#paint62_linear_231_4)"/>
<g style="mix-blend-mode:multiply">
<path d="M478.139 347.082C469.945 347.082 463.293 343.228 463.293 338.461V339.268C463.293 339.268 463.293 339.345 463.293 339.39C463.293 344.142 469.945 348.011 478.139 348.011C486.332 348.011 492.985 344.142 492.985 339.39V339.268V338.461C492.985 343.228 486.332 347.082 478.139 347.082Z" fill="url(#paint63_linear_231_4)"/>
</g>
<g style="mix-blend-mode:multiply">
<path d="M482.686 347.599L483.098 347.508V336.588H482.686V347.599Z" fill="#FDD65B"/>
<path d="M484.547 347.158L484.975 347.036V336.588H484.547V347.158Z" fill="#FDD65B"/>
<path d="M486.424 346.549L486.836 346.366V336.588H486.424V346.549Z" fill="#FDD65B"/>
<path d="M480.824 347.858H481.236V336.588H480.824V347.858Z" fill="#FDD65B"/>
<path d="M490.147 344.447C490.284 344.325 490.437 344.218 490.559 344.096V336.481H490.147V344.447Z" fill="#FDD65B"/>
<path d="M492.008 342.436C492.163 342.203 492.301 341.958 492.42 341.705V336.588H492.008V342.436Z" fill="#FDD65B"/>
<path d="M488.255 345.726L488.667 345.513V336.588H488.255V345.726Z" fill="#FDD65B"/>
<path d="M478.963 347.98H479.375V336.588H478.963V347.98Z" fill="#FDD65B"/>
<path d="M477.086 347.98H477.574V336.588H477.147L477.086 347.98Z" fill="#FDD65B"/>
<path d="M473.363 347.554L473.775 347.63V336.588H473.363V347.554Z" fill="#FDD65B"/>
<path d="M475.225 347.843H475.652V336.588H475.225V347.843Z" fill="#FDD65B"/>
<path d="M471.471 347.097L471.883 347.203V336.542H471.471V347.097Z" fill="#FDD65B"/>
<path d="M464.041 342.071C464.163 342.298 464.301 342.517 464.452 342.726V336.588H464.041V342.071Z" fill="#FDD65B"/>
<path d="M465.902 344.203L466.314 344.523V336.588H465.902V344.203Z" fill="#FDD65B"/>
<path d="M469.64 346.442L470.052 346.609V336.588H469.64V346.442Z" fill="#FDD65B"/>
<path d="M467.763 345.543L468.191 345.772V336.588H467.763V345.543Z" fill="#FDD65B"/>
</g>
<path d="M478.139 343.777C486.338 343.777 492.985 339.91 492.985 335.141C492.985 330.372 486.338 326.506 478.139 326.506C469.939 326.506 463.293 330.372 463.293 335.141C463.293 339.91 469.939 343.777 478.139 343.777Z" fill="url(#paint64_linear_231_4)"/>
<path style="mix-blend-mode:screen" d="M478.139 343.548C470.113 343.548 463.598 339.832 463.323 335.217C463.323 335.309 463.323 335.415 463.323 335.507C463.323 340.274 469.976 344.142 478.169 344.142C486.363 344.142 493.015 340.274 493.015 335.507C493.023 335.41 493.023 335.314 493.015 335.217C492.68 339.832 486.164 343.548 478.139 343.548Z" fill="url(#paint65_radial_231_4)"/>
<path d="M478.139 341.583C484.265 341.583 489.231 338.699 489.231 335.141C489.231 331.583 484.265 328.699 478.139 328.699C472.012 328.699 467.046 331.583 467.046 335.141C467.046 338.699 472.012 341.583 478.139 341.583Z" fill="url(#paint66_linear_231_4)"/>
<path style="mix-blend-mode:screen" d="M478.505 328.973C484.44 328.973 489.262 331.669 489.582 335.065C489.582 334.943 489.582 334.836 489.582 334.715C489.582 331.151 484.608 328.257 478.474 328.257C472.341 328.257 467.382 331.151 467.382 334.715C467.374 334.831 467.374 334.948 467.382 335.065C467.763 331.714 472.585 328.973 478.505 328.973Z" fill="url(#paint67_radial_231_4)"/>
<path style="mix-blend-mode:multiply" d="M478.139 329.384C484.074 329.384 488.896 332.095 489.201 335.476C489.208 335.36 489.208 335.242 489.201 335.126C489.201 331.562 484.242 328.683 478.108 328.683C471.975 328.683 467.016 331.562 467.016 335.126C467.008 335.242 467.008 335.36 467.016 335.476C467.382 332.095 472.219 329.384 478.139 329.384Z" fill="url(#paint68_linear_231_4)"/>
<path style="mix-blend-mode:color-dodge" d="M485.936 326.825C489.277 327.968 491.52 330.222 490.955 331.867C490.391 333.511 487.232 333.938 483.906 332.811C480.58 331.684 478.322 329.415 478.886 327.77C479.451 326.125 482.594 325.698 485.936 326.825Z" fill="url(#paint69_radial_231_4)"/>
<path style="mix-blend-mode:multiply" d="M481.816 333.664L485.829 334.38C486.5 334.501 486.653 335.019 486.073 335.248L482.655 336.634C482.426 336.74 482.289 336.877 482.304 337.045V339.466C482.304 339.862 481.511 340.106 480.962 339.862L477.59 338.339C477.336 338.263 477.065 338.263 476.811 338.339L472.829 339.101C472.173 339.238 471.532 338.857 471.761 338.477L473.088 336.192C473.11 336.155 473.124 336.114 473.13 336.072C473.135 336.03 473.132 335.987 473.121 335.945C473.109 335.904 473.09 335.866 473.063 335.832C473.037 335.799 473.004 335.771 472.966 335.75L470.449 333.801C470.022 333.481 470.449 333.024 471.135 333.024H475.331C475.583 333.033 475.83 332.958 476.033 332.811L478.444 330.846C478.672 330.68 478.952 330.602 479.233 330.627C479.514 330.653 479.776 330.779 479.97 330.983L481.236 333.298C481.297 333.401 481.381 333.488 481.482 333.551C481.583 333.615 481.697 333.653 481.816 333.664Z" fill="url(#paint70_linear_231_4)"/>
<path d="M481.816 333.207L485.829 333.938C486.5 334.06 486.653 334.562 486.073 334.806L482.655 336.192C482.426 336.283 482.289 336.436 482.304 336.588V339.01C482.304 339.421 481.511 339.649 480.962 339.406L477.59 337.959C477.344 337.857 477.073 337.83 476.811 337.883L472.829 338.644C472.173 338.781 471.532 338.416 471.761 338.035L473.088 335.735C473.11 335.698 473.124 335.657 473.13 335.615C473.135 335.573 473.132 335.53 473.121 335.489C473.109 335.447 473.09 335.409 473.063 335.375C473.037 335.342 473.004 335.314 472.966 335.293L470.449 333.344C470.022 333.024 470.449 332.567 471.135 332.567H475.331C475.583 332.576 475.83 332.501 476.033 332.354L478.444 330.389C478.672 330.223 478.952 330.145 479.233 330.17C479.514 330.196 479.776 330.322 479.97 330.526L481.236 332.841C481.297 332.944 481.381 333.031 481.482 333.094C481.583 333.158 481.697 333.197 481.816 333.207Z" fill="url(#paint71_linear_231_4)"/>
<path style="mix-blend-mode:color-dodge" d="M481.816 333.207L485.829 333.938C486.5 334.06 486.653 334.562 486.073 334.806L482.655 336.192C482.426 336.283 482.289 336.436 482.304 336.588V339.01C482.304 339.421 481.511 339.649 480.962 339.406L477.59 337.959C477.344 337.857 477.073 337.83 476.811 337.883L472.829 338.644C472.173 338.781 471.532 338.416 471.761 338.035L473.088 335.735C473.11 335.698 473.124 335.657 473.13 335.615C473.135 335.573 473.132 335.53 473.121 335.489C473.109 335.447 473.09 335.409 473.063 335.375C473.037 335.342 473.004 335.314 472.966 335.293L470.449 333.344C470.022 333.024 470.449 332.567 471.135 332.567H475.331C475.583 332.576 475.83 332.501 476.033 332.354L478.444 330.389C478.672 330.223 478.952 330.145 479.233 330.17C479.514 330.196 479.776 330.322 479.97 330.526L481.236 332.841C481.297 332.944 481.381 333.031 481.482 333.094C481.583 333.158 481.697 333.197 481.816 333.207Z" fill="url(#paint72_radial_231_4)"/>
<path d="M463.842 378.151H434.196V382.279C434.196 382.279 434.196 382.355 434.196 382.4C434.196 387.168 440.848 391.021 449.042 391.021C457.235 391.021 463.888 387.168 463.888 382.4V382.279L463.842 378.151Z" fill="url(#paint73_linear_231_4)"/>
<g style="mix-blend-mode:multiply">
<path d="M449.042 390.168C440.848 390.168 434.196 386.299 434.196 381.532V382.279C434.196 382.279 434.196 382.355 434.196 382.4C434.196 387.168 440.848 391.021 449.042 391.021C457.235 391.021 463.888 387.168 463.888 382.4V382.279V381.471C463.842 386.299 457.251 390.168 449.042 390.168Z" fill="url(#paint74_linear_231_4)"/>
</g>
<g style="mix-blend-mode:multiply">
<path d="M453.589 390.671L454.016 390.579V379.629H453.589V390.671Z" fill="#FDD65B"/>
<path d="M455.465 390.229L455.877 390.107V379.629H455.465V390.229Z" fill="#FDD65B"/>
<path d="M457.327 389.62L457.739 389.437V379.629H457.327V389.62Z" fill="#FDD65B"/>
<path d="M451.727 390.945H452.139V379.674H451.727V390.945Z" fill="#FDD65B"/>
<path d="M461.05 387.518C461.187 387.396 461.34 387.289 461.462 387.168V379.552H461.05V387.518Z" fill="#FDD65B"/>
<path d="M462.911 385.507C463.07 385.274 463.213 385.03 463.338 384.776V379.629H462.911V385.507Z" fill="#FDD65B"/>
<path d="M459.265 388.751L459.677 388.523V379.629H459.265V388.751Z" fill="#FDD65B"/>
<path d="M449.866 391.066H450.278V379.644H449.866V391.066Z" fill="#FDD65B"/>
<path d="M448.004 391.051H448.416V379.613H448.004V391.051Z" fill="#FDD65B"/>
<path d="M444.266 390.625H444.693V379.552H444.266V390.625Z" fill="#FDD65B"/>
<path d="M446.127 390.914H446.555V379.583H446.127V390.914Z" fill="#FDD65B"/>
<path d="M442.481 390.168L442.893 390.275V379.613H442.481V390.168Z" fill="#FDD65B"/>
<path d="M434.943 385.142C435.066 385.369 435.204 385.588 435.355 385.797V379.629H434.943V385.142Z" fill="#FDD65B"/>
<path d="M436.805 387.335L437.232 387.655V379.629H436.805V387.335Z" fill="#FDD65B"/>
<path d="M440.543 389.528L440.955 389.681V379.629H440.543V389.528Z" fill="#FDD65B"/>
<path d="M438.682 388.63L439.094 388.843V379.629H438.682V388.63Z" fill="#FDD65B"/>
</g>
<path d="M449.042 386.848C457.241 386.848 463.888 382.981 463.888 378.212C463.888 373.443 457.241 369.577 449.042 369.577C440.843 369.577 434.196 373.443 434.196 378.212C434.196 382.981 440.843 386.848 449.042 386.848Z" fill="url(#paint75_linear_231_4)"/>
<path style="mix-blend-mode:screen" d="M449.042 386.619C441.016 386.619 434.501 382.918 434.226 378.288C434.226 378.38 434.226 378.486 434.226 378.593C434.226 383.345 440.879 387.213 449.072 387.213C457.266 387.213 463.918 383.345 463.918 378.593C463.927 378.492 463.927 378.39 463.918 378.288C463.598 382.918 457.067 386.619 449.042 386.619Z" fill="url(#paint76_radial_231_4)"/>
<path d="M460.15 378.212C460.15 381.776 455.175 384.67 449.042 384.67C442.908 384.67 437.949 381.776 437.949 378.212C437.949 374.648 442.923 371.77 449.042 371.77C455.16 371.77 460.15 374.664 460.15 378.212Z" fill="url(#paint77_linear_231_4)"/>
<path style="mix-blend-mode:screen" d="M449.423 372.09C455.343 372.09 460.104 374.801 460.485 378.182C460.493 378.065 460.493 377.948 460.485 377.831C460.485 374.268 455.511 371.389 449.393 371.389C443.274 371.389 438.285 374.268 438.285 377.831C438.285 377.953 438.285 378.06 438.285 378.182C438.666 374.801 443.488 372.09 449.423 372.09Z" fill="url(#paint78_radial_231_4)"/>
<path style="mix-blend-mode:multiply" d="M449.042 372.455C454.977 372.455 459.799 375.166 460.119 378.547C460.119 378.425 460.119 378.319 460.119 378.197C460.119 374.633 455.145 371.755 449.011 371.755C442.878 371.755 437.904 374.664 437.904 378.212C437.896 378.329 437.896 378.446 437.904 378.562C438.285 375.166 443.122 372.455 449.042 372.455Z" fill="url(#paint79_linear_231_4)"/>
<path style="mix-blend-mode:color-dodge" d="M456.839 369.912C460.18 371.039 462.423 373.293 461.858 374.938C461.294 376.583 458.135 377.009 454.809 375.882C451.483 374.755 449.225 372.486 449.789 370.841C450.354 369.196 453.512 368.769 456.839 369.912Z" fill="url(#paint80_radial_231_4)"/>
<path style="mix-blend-mode:multiply" d="M452.978 376.948L456.991 377.664C457.663 377.786 457.8 378.304 457.235 378.532L453.818 379.918C453.589 380.009 453.451 380.162 453.451 380.329L453.528 382.751C453.528 383.147 452.734 383.375 452.17 383.132L448.798 381.685C448.549 381.592 448.281 381.566 448.02 381.608L444.053 382.385C443.381 382.507 442.756 382.142 442.969 381.761L444.312 379.476C444.356 379.399 444.368 379.308 444.345 379.223C444.323 379.137 444.267 379.064 444.19 379.019L441.657 377.085C441.245 376.765 441.657 376.293 442.344 376.308H446.54C446.789 376.319 447.035 376.25 447.241 376.11L449.652 374.146C449.88 373.979 450.16 373.902 450.441 373.927C450.722 373.952 450.984 374.079 451.178 374.283L452.429 376.583C452.489 376.679 452.569 376.762 452.664 376.825C452.759 376.888 452.866 376.93 452.978 376.948Z" fill="url(#paint81_linear_231_4)"/>
<path d="M452.978 376.491L456.991 377.222C457.663 377.344 457.8 377.847 457.235 378.075L453.818 379.476C453.589 379.568 453.451 379.72 453.451 379.872L453.528 382.294C453.528 382.69 452.734 382.934 452.17 382.69L448.798 381.167C448.545 381.083 448.272 381.083 448.02 381.167L444.053 381.928C443.381 382.065 442.756 381.7 442.969 381.304L444.312 379.019C444.334 378.983 444.348 378.942 444.353 378.899C444.359 378.857 444.356 378.814 444.344 378.773C444.333 378.732 444.313 378.693 444.287 378.66C444.26 378.626 444.227 378.598 444.19 378.578L441.657 376.628C441.245 376.308 441.657 375.852 442.344 375.852H446.54C446.791 375.865 447.04 375.79 447.241 375.638L449.652 373.674C449.881 373.51 450.161 373.435 450.441 373.46C450.721 373.485 450.982 373.609 451.178 373.811L452.429 376.126C452.489 376.222 452.569 376.305 452.664 376.368C452.759 376.431 452.866 376.473 452.978 376.491V376.491Z" fill="url(#paint82_linear_231_4)"/>
<path style="mix-blend-mode:color-dodge" d="M452.978 376.491L456.991 377.222C457.663 377.344 457.8 377.847 457.235 378.075L453.818 379.476C453.589 379.568 453.451 379.72 453.451 379.872L453.528 382.294C453.528 382.69 452.734 382.934 452.17 382.69L448.798 381.167C448.545 381.083 448.272 381.083 448.02 381.167L444.053 381.928C443.381 382.065 442.756 381.7 442.969 381.304L444.312 379.019C444.334 378.983 444.348 378.942 444.353 378.899C444.359 378.857 444.356 378.814 444.344 378.773C444.333 378.732 444.313 378.693 444.287 378.66C444.26 378.626 444.227 378.598 444.19 378.578L441.657 376.628C441.245 376.308 441.657 375.852 442.344 375.852H446.54C446.791 375.865 447.04 375.79 447.241 375.638L449.652 373.674C449.881 373.51 450.161 373.435 450.441 373.46C450.721 373.485 450.982 373.609 451.178 373.811L452.429 376.126C452.489 376.222 452.569 376.305 452.664 376.368C452.759 376.431 452.866 376.473 452.978 376.491V376.491Z" fill="url(#paint83_radial_231_4)"/>
<path d="M434.043 422.639H404.336V426.827V426.949C404.336 431.716 410.973 435.569 419.167 435.569C427.36 435.569 434.013 431.716 434.013 426.949V426.827L434.043 422.639Z" fill="url(#paint84_linear_231_4)"/>
<g style="mix-blend-mode:multiply">
<path d="M419.197 434.655C411.004 434.655 404.366 430.787 404.366 426.02V426.827V426.949C404.366 431.716 411.004 435.569 419.197 435.569C427.391 435.569 434.043 431.716 434.043 426.949V426.827V426.02C434.043 430.787 427.406 434.655 419.197 434.655Z" fill="url(#paint85_linear_231_4)"/>
</g>
<g style="mix-blend-mode:multiply">
<path d="M423.744 435.158L424.171 435.067V424.116H423.744V435.158Z" fill="#FDD65B"/>
<path d="M425.697 434.716L426.109 434.594V424.116H425.697V434.716Z" fill="#FDD65B"/>
<path d="M427.482 434.061L427.894 433.879V424.07H427.482V434.061Z" fill="#FDD65B"/>
<path d="M421.883 435.432H422.295V424.162H421.883V435.432Z" fill="#FDD65B"/>
<path d="M431.205 432.005L431.633 431.655V424.116H431.205V432.005Z" fill="#FDD65B"/>
<path d="M433.082 429.995C433.235 429.751 433.372 429.508 433.494 429.264V424.116H433.082V429.995Z" fill="#FDD65B"/>
<path d="M429.344 433.239L429.756 433.011V424.116H429.344V433.239Z" fill="#FDD65B"/>
<path d="M420.021 435.584H420.433V424.162H420.021V435.584Z" fill="#FDD65B"/>
<path d="M418.16 435.584H418.572V424.147H418.16V435.584Z" fill="#FDD65B"/>
<path d="M414.421 435.112L414.849 435.188V424.116H414.421V435.112Z" fill="#FDD65B"/>
<path d="M416.298 435.402H416.71V424.07H416.298V435.402Z" fill="#FDD65B"/>
<path d="M412.56 434.655L412.972 434.762V424.101H412.56V434.655Z" fill="#FDD65B"/>
<path d="M405.099 429.629C405.227 429.857 405.37 430.075 405.526 430.284V424.192H405.099V429.629Z" fill="#FDD65B"/>
<path d="M406.96 431.823L407.388 432.142V424.116H406.96V431.823Z" fill="#FDD65B"/>
<path d="M410.698 434.061L411.11 434.214V424.162H410.698V434.061Z" fill="#FDD65B"/>
<path d="M408.913 433.117L409.325 433.33V424.192H408.913V433.117Z" fill="#FDD65B"/>
</g>
<path d="M419.197 431.335C427.397 431.335 434.043 427.469 434.043 422.7C434.043 417.93 427.397 414.064 419.197 414.064C410.998 414.064 404.351 417.93 404.351 422.7C404.351 427.469 410.998 431.335 419.197 431.335Z" fill="url(#paint86_linear_231_4)"/>
<path style="mix-blend-mode:screen" d="M419.197 431.107C411.187 431.107 404.656 427.406 404.382 422.776C404.382 422.867 404.382 422.974 404.382 423.08C404.382 427.832 411.019 431.701 419.213 431.701C427.406 431.701 434.059 427.832 434.059 423.08C434.059 422.974 434.059 422.867 434.059 422.776C433.753 427.406 427.223 431.107 419.197 431.107Z" fill="url(#paint87_radial_231_4)"/>
<path d="M419.197 429.142C425.323 429.142 430.29 426.258 430.29 422.7C430.29 419.142 425.323 416.257 419.197 416.257C413.071 416.257 408.105 419.142 408.105 422.7C408.105 426.258 413.071 429.142 419.197 429.142Z" fill="url(#paint88_linear_231_4)"/>
<path style="mix-blend-mode:screen" d="M419.594 416.577C425.514 416.577 430.351 419.288 430.656 422.669C430.663 422.553 430.663 422.436 430.656 422.319C430.656 418.755 425.682 415.877 419.563 415.877C413.445 415.877 408.456 418.755 408.456 422.319C408.456 422.441 408.456 422.547 408.456 422.669C408.822 419.288 413.643 416.577 419.594 416.577Z" fill="url(#paint89_radial_231_4)"/>
<path style="mix-blend-mode:multiply" d="M419.197 416.943C425.133 416.943 429.954 419.654 430.275 423.035C430.275 422.913 430.275 422.806 430.275 422.684C430.275 419.121 425.3 416.242 419.167 416.242C413.033 416.242 408.074 419.121 408.074 422.684C408.067 422.801 408.067 422.918 408.074 423.035C408.456 419.654 413.277 416.943 419.197 416.943Z" fill="url(#paint90_linear_231_4)"/>
<path style="mix-blend-mode:multiply" d="M423.027 421.238L427.025 421.969C427.696 422.09 427.849 422.593 427.269 422.837L423.851 424.223C423.622 424.314 423.5 424.466 423.5 424.619V427.04C423.5 427.452 422.722 427.68 422.157 427.436L418.785 425.989C418.539 425.888 418.268 425.861 418.007 425.913L414.04 426.675C413.369 426.812 412.728 426.446 412.957 426.066L414.299 423.766C414.338 423.689 414.345 423.6 414.319 423.518C414.294 423.435 414.238 423.366 414.162 423.324L411.645 421.375C411.233 421.055 411.645 420.598 412.331 420.598H416.527C416.779 420.609 417.026 420.534 417.229 420.385L419.64 418.42C419.868 418.257 420.148 418.181 420.428 418.206C420.708 418.231 420.97 418.356 421.166 418.557L422.417 420.872C422.481 420.978 422.57 421.066 422.677 421.13C422.783 421.194 422.903 421.231 423.027 421.238Z" fill="url(#paint91_linear_231_4)"/>
<path d="M423.027 420.781L427.025 421.512C427.696 421.634 427.849 422.151 427.269 422.38L423.851 423.766C423.757 423.79 423.673 423.843 423.611 423.916C423.548 423.99 423.509 424.081 423.5 424.177V426.583C423.5 426.995 422.722 427.223 422.157 426.979L418.785 425.456C418.53 425.389 418.262 425.389 418.007 425.456L414.04 426.233C413.369 426.355 412.728 425.989 412.957 425.609L414.299 423.324C414.335 423.244 414.341 423.154 414.316 423.07C414.291 422.986 414.236 422.914 414.162 422.867L411.645 420.933C411.233 420.598 411.645 420.141 412.331 420.156H416.527C416.776 420.165 417.022 420.096 417.229 419.958L419.64 417.978C419.87 417.817 420.151 417.744 420.431 417.772C420.711 417.8 420.972 417.927 421.166 418.131L422.417 420.43C422.483 420.533 422.573 420.619 422.679 420.68C422.785 420.741 422.905 420.775 423.027 420.781V420.781Z" fill="url(#paint92_linear_231_4)"/>
<path style="mix-blend-mode:color-dodge" d="M423.027 420.781L427.025 421.512C427.696 421.634 427.849 422.151 427.269 422.38L423.851 423.766C423.757 423.79 423.673 423.843 423.611 423.916C423.548 423.99 423.509 424.081 423.5 424.177V426.583C423.5 426.995 422.722 427.223 422.157 426.979L418.785 425.456C418.53 425.389 418.262 425.389 418.007 425.456L414.04 426.233C413.369 426.355 412.728 425.989 412.957 425.609L414.299 423.324C414.335 423.244 414.341 423.154 414.316 423.07C414.291 422.986 414.236 422.914 414.162 422.867L411.645 420.933C411.233 420.598 411.645 420.141 412.331 420.156H416.527C416.776 420.165 417.022 420.096 417.229 419.958L419.64 417.978C419.87 417.817 420.151 417.744 420.431 417.772C420.711 417.8 420.972 417.927 421.166 418.131L422.417 420.43C422.483 420.533 422.573 420.619 422.679 420.68C422.785 420.741 422.905 420.775 423.027 420.781V420.781Z" fill="url(#paint93_radial_231_4)"/>
<g opacity="0.6">
<path style="mix-blend-mode:multiply" opacity="0.1" d="M240.557 218.889C240.547 218.91 240.542 218.934 240.542 218.957C240.542 218.981 240.547 219.004 240.557 219.026C240.557 219.026 238.65 224.448 239.504 233.921C240.13 240.683 240.877 255.152 241.472 267.93C242.068 280.708 242.51 291.811 242.51 291.811C242.497 291.845 242.497 291.883 242.51 291.918C242.564 292.095 242.658 292.257 242.785 292.392C242.912 292.526 243.069 292.63 243.242 292.694C244.685 293.125 246.159 293.441 247.652 293.639C249.077 293.98 250.555 294.031 252 293.791C252.172 293.694 252.317 293.555 252.421 293.387C252.525 293.22 252.585 293.029 252.596 292.832V292.725C252.596 292.725 251.07 281.241 249.422 268.082C247.774 254.924 245.943 240.074 245.333 233.327C244.463 223.884 241.732 218.919 241.732 218.919C241.72 218.868 241.696 218.82 241.661 218.78C241.627 218.74 241.583 218.71 241.533 218.691L240.557 218.889Z" fill="url(#paint94_linear_231_4)"/>
<path style="mix-blend-mode:multiply" opacity="0.11" d="M240.542 218.995C240.209 220.268 239.954 221.56 239.779 222.864V222.864C239.349 226.321 239.303 229.814 239.641 233.281C240.221 239.678 240.969 253.705 241.579 266.163V267.245C242.144 278.942 242.556 288.948 242.586 289.252C242.573 289.287 242.573 289.325 242.586 289.359C242.702 289.694 242.942 289.972 243.258 290.136C244.525 290.643 245.845 291.006 247.194 291.217H247.286L248.308 291.385C249.312 291.617 250.356 291.617 251.36 291.385C251.579 291.25 251.753 291.054 251.863 290.821V290.821C251.878 290.72 251.878 290.618 251.863 290.517C251.871 290.481 251.871 290.445 251.863 290.41C251.863 290.303 250.337 279.155 248.811 266.422C247.286 253.69 245.485 239.297 244.89 232.916C244.89 232.672 244.89 232.413 244.89 232.17C244.555 228.564 243.792 225.01 242.617 221.585C242.601 221.515 242.575 221.449 242.54 221.387C242.255 220.577 241.923 219.783 241.549 219.011C241.541 218.96 241.52 218.912 241.488 218.872C241.456 218.831 241.414 218.801 241.366 218.782L240.481 218.904C240.492 218.94 240.513 218.971 240.542 218.995V218.995Z" fill="url(#paint95_linear_231_4)"/>
<path style="mix-blend-mode:multiply" opacity="0.12" d="M240.572 218.965C240.572 218.965 240.191 220.579 239.886 222.712C239.483 226.038 239.442 229.398 239.764 232.733C240.313 238.825 241.076 252.365 241.686 264.488C241.686 264.838 241.686 265.189 241.686 265.539C242.235 276.627 242.647 286.161 242.693 286.861C242.689 286.902 242.689 286.943 242.693 286.983C242.734 287.144 242.81 287.295 242.916 287.424C243.021 287.553 243.153 287.657 243.303 287.729C244.399 288.377 245.613 288.802 246.874 288.978C247.179 288.978 247.499 289.115 247.835 289.161C248.792 289.396 249.792 289.396 250.749 289.161C250.957 289.032 251.117 288.84 251.207 288.613C251.207 288.613 251.207 288.613 251.207 288.613C251.223 288.512 251.223 288.409 251.207 288.308V288.308C251.207 288.064 249.803 277.251 248.293 264.96C246.782 252.669 245.119 238.719 244.555 232.596C244.555 232.352 244.555 232.109 244.555 231.88C244.245 228.402 243.528 224.972 242.418 221.661C242.4 221.597 242.374 221.536 242.342 221.478C241.854 220.138 241.411 219.178 241.411 219.178C241.404 219.129 241.385 219.083 241.356 219.043C241.326 219.003 241.288 218.971 241.244 218.95H240.42C240.467 218.973 240.521 218.979 240.572 218.965Z" fill="url(#paint96_linear_231_4)"/>
<path style="mix-blend-mode:multiply" opacity="0.13" d="M240.587 218.919C240.587 218.919 240.282 220.655 240.008 222.544C239.671 225.744 239.671 228.97 240.008 232.17C240.526 237.85 241.274 251.009 241.915 262.798V263.803C242.449 274.296 242.861 283.374 242.937 284.303C242.941 284.343 242.941 284.384 242.937 284.424C243.015 284.736 243.212 285.004 243.486 285.171C243.868 285.795 245.333 286.161 246.691 286.587C246.982 286.669 247.277 286.735 247.576 286.785C248.475 287.03 249.423 287.03 250.322 286.785C250.528 286.659 250.685 286.465 250.765 286.237C250.765 286.237 250.765 286.237 250.765 286.237C250.774 286.141 250.774 286.044 250.765 285.947C250.765 285.597 249.422 275.119 247.988 263.239C246.553 251.36 244.936 237.911 244.432 232.078C244.432 231.834 244.432 231.606 244.432 231.393C244.141 228.047 243.465 224.746 242.418 221.554C242.424 221.493 242.424 221.432 242.418 221.371C241.991 220.199 241.564 219.163 241.564 219.163C241.539 219.073 241.485 218.993 241.411 218.934H240.648C240.648 218.934 240.587 218.889 240.587 218.919Z" fill="url(#paint97_linear_231_4)"/>
<path style="mix-blend-mode:multiply" opacity="0.18" d="M240.74 218.706C240.74 218.706 240.74 221.097 240.74 221.569C240.565 223.969 240.596 226.379 240.832 228.773C241.167 232.307 241.93 242.846 242.632 252.654C242.632 252.913 242.632 253.172 242.632 253.446C243.105 260.315 243.517 266.636 243.746 269.407C243.746 269.407 243.746 269.499 243.746 269.529C243.789 269.772 243.85 270.011 243.929 270.245C244.295 271.646 244.524 272.575 244.875 272.636C244.995 272.78 245.154 272.886 245.333 272.941C245.615 273.042 245.914 273.084 246.213 273.066C246.512 273.047 246.805 272.969 247.072 272.834C247.154 272.79 247.225 272.727 247.278 272.65C247.331 272.573 247.365 272.485 247.377 272.393V272.393C247.395 272.328 247.395 272.259 247.377 272.195C247.286 271.144 246.37 262.66 245.379 253.37C244.372 243.805 243.288 233.388 242.922 229.398C242.922 229.2 242.922 229.032 242.922 228.865C242.729 226.297 242.321 223.749 241.701 221.249C241.7 221.224 241.692 221.2 241.679 221.179C241.665 221.158 241.647 221.14 241.625 221.128C241.518 220.838 241.137 219.391 241.137 219.391C241.144 219.32 241.144 219.249 241.137 219.178L240.832 218.645L240.74 218.706Z" fill="url(#paint98_linear_231_4)"/>
</g>
<path d="M94.3706 305.564L88.5726 304.772C87.9066 304.678 87.2932 304.359 86.8353 303.867C86.3775 303.375 86.1032 302.741 86.0585 302.071C86.0138 301.401 86.2013 300.736 86.5897 300.188C86.978 299.64 87.5435 299.242 88.1911 299.061L120.66 290.197L94.3706 305.564Z" fill="url(#paint99_linear_231_4)"/>
<path style="mix-blend-mode:color-dodge" d="M94.5994 305L88.8014 304.209C88.3809 304.158 87.9765 304.016 87.6169 303.792C87.2573 303.569 86.951 303.27 86.7198 302.915C86.4885 302.561 86.3378 302.161 86.2783 301.742C86.2188 301.323 86.252 300.897 86.3754 300.492C86.1485 300.91 86.0267 301.376 86.0207 301.851C86.0147 302.325 86.1247 302.794 86.341 303.217C86.5573 303.64 86.8735 304.004 87.2623 304.278C87.6512 304.551 88.1008 304.726 88.5725 304.787L94.3706 305.564L120.66 290.197L119.272 290.577L94.5994 305Z" fill="url(#paint100_radial_231_4)"/>
<path d="M241.762 219.772C241.766 219.828 241.755 219.884 241.731 219.934C241.707 219.985 241.67 220.029 241.625 220.062C241.625 220.062 237.918 225.103 228.854 230.342C215.9 237.835 213.825 238.338 213.825 238.338C213.474 238.536 213.703 238.094 213.169 237.79C212.619 237.433 212.161 236.952 211.832 236.386C211.503 235.82 211.313 235.184 211.277 234.53C211.277 233.936 210.728 233.936 211.063 233.738C211.063 233.738 212.589 232.215 225.528 224.783C234.683 219.528 240.954 218.904 240.954 218.904C241.005 218.876 241.063 218.861 241.122 218.861C241.18 218.861 241.238 218.876 241.29 218.904C241.434 218.999 241.552 219.128 241.635 219.279C241.717 219.431 241.761 219.6 241.762 219.772Z" fill="url(#paint101_linear_231_4)"/>
<path d="M214.298 237.15C214.298 238.353 213.459 238.84 212.406 238.231C211.855 237.872 211.396 237.389 211.067 236.82C210.739 236.251 210.549 235.613 210.514 234.957C210.514 233.769 211.353 233.281 212.406 233.891C212.958 234.245 213.417 234.725 213.746 235.292C214.075 235.859 214.264 236.496 214.298 237.15V237.15Z" fill="url(#paint102_linear_231_4)"/>
<path d="M213.932 237.196C213.956 237.415 213.92 237.636 213.829 237.837C213.737 238.038 213.594 238.211 213.413 238.338L93.4092 308.869C93.0735 309.052 93.2871 308.641 92.7836 308.351C92.2572 308.009 91.8187 307.548 91.5034 307.006C91.188 306.464 91.0046 305.855 90.9679 305.229C90.9679 304.665 90.4491 304.665 90.7695 304.467L210.85 233.936C211.055 233.848 211.279 233.815 211.501 233.839C211.723 233.863 211.935 233.944 212.116 234.073C212.642 234.416 213.079 234.877 213.395 235.42C213.71 235.962 213.894 236.57 213.932 237.196V237.196Z" fill="url(#paint103_linear_231_4)"/>
<path d="M93.867 307.742C93.867 308.884 93.0583 309.341 92.0513 308.762C91.5332 308.429 91.0996 307.981 90.7845 307.453C90.4694 306.924 90.2815 306.33 90.2356 305.716C90.2356 304.559 91.0595 304.102 92.0513 304.681C92.5722 305.014 93.0077 305.465 93.3229 305.996C93.6382 306.528 93.8245 307.126 93.867 307.742V307.742Z" fill="url(#paint104_linear_231_4)"/>
<path d="M93.3939 303.432L120.248 287.988L99.2988 286.328C97.5474 286.184 95.7917 286.551 94.2456 287.385C92.6995 288.219 91.4296 289.483 90.5905 291.025C89.7513 292.566 89.3792 294.317 89.5194 296.066C89.6595 297.814 90.3059 299.485 91.3799 300.873L93.3939 303.432Z" fill="url(#paint105_linear_231_4)"/>
<path d="M93.8211 303.356L120.675 287.851L99.7259 286.13C97.9719 285.983 96.213 286.349 94.664 287.184C93.115 288.018 91.8429 289.285 91.0031 290.829C90.1633 292.373 89.7921 294.128 89.9349 295.879C90.0777 297.63 90.7282 299.302 91.8071 300.69L93.8211 303.356Z" fill="url(#paint106_linear_231_4)"/>
<path style="mix-blend-mode:color-dodge" d="M92.2039 300.919C91.1152 299.531 90.4563 297.856 90.3083 296.099C90.1603 294.343 90.5295 292.582 91.3707 291.032C92.2118 289.482 93.4883 288.211 95.0431 287.376C96.598 286.54 98.3635 286.176 100.123 286.328L120.538 288.034L120.752 287.912L99.8024 286.191C98.0483 286.044 96.2894 286.41 94.7404 287.245C93.1914 288.079 91.9193 289.346 91.0795 290.89C90.2397 292.434 89.8685 294.189 90.0113 295.94C90.1541 297.691 90.8046 299.363 91.8835 300.751L93.8975 303.356L94.0806 303.249L92.2039 300.919Z" fill="url(#paint107_radial_231_4)"/>
<path d="M95.1028 306.584L95.7589 308.945C96.1632 310.349 96.9634 311.607 98.0643 312.57C99.1651 313.532 100.52 314.158 101.967 314.373C103.415 314.589 104.894 314.384 106.228 313.783C107.562 313.182 108.695 312.211 109.491 310.986L121.987 291.385L95.1028 306.584Z" fill="url(#paint108_linear_231_4)"/>
<path d="M95.5149 306.249L96.171 308.61C96.5763 310.006 97.3731 311.256 98.4673 312.214C99.5615 313.172 100.908 313.798 102.346 314.017C103.785 314.237 105.257 314.041 106.588 313.452C107.919 312.864 109.053 311.908 109.857 310.697L122.354 291.095L95.5149 306.249Z" fill="url(#paint109_linear_231_4)"/>
<path style="mix-blend-mode:color-dodge" d="M110.102 310.24C109.306 311.465 108.175 312.437 106.842 313.039C105.509 313.64 104.03 313.847 102.583 313.633C101.136 313.42 99.7806 312.795 98.6789 311.834C97.5772 310.874 96.7755 309.617 96.3693 308.214L95.7743 306.082L95.4844 306.249L96.1405 308.61C96.5413 310.013 97.3375 311.272 98.4344 312.236C99.5313 313.201 100.883 313.83 102.328 314.05C103.773 314.27 105.251 314.071 106.585 313.476C107.92 312.882 109.056 311.917 109.857 310.697L122.354 291.095L110.102 310.24Z" fill="url(#paint110_radial_231_4)"/>
<path style="mix-blend-mode:color-dodge" d="M234.118 222.118C234.82 223.336 226.382 229.626 215.275 236.175C204.167 242.724 194.554 247.065 193.913 245.846C193.273 244.628 201.634 238.353 212.757 231.804C223.88 225.255 233.447 220.914 234.118 222.118Z" fill="url(#paint111_radial_231_4)"/>
<defs>
<radialGradient id="paint0_radial_231_4" cx="0" cy="0" r="1" gradientUnits="userSpaceOnUse" gradientTransform="translate(249.913 319.476) scale(99.9244 99.7427)">
<stop stop-color="#B2B2B2"/>
<stop offset="0.19" stop-color="#7E7E7E" stop-opacity="0.71"/>
<stop offset="0.37" stop-color="#515151" stop-opacity="0.46"/>
<stop offset="0.55" stop-color="#2E2E2E" stop-opacity="0.26"/>
<stop offset="0.72" stop-color="#151515" stop-opacity="0.12"/>
<stop offset="0.88" stop-color="#050505" stop-opacity="0.03"/>
<stop offset="1" stop-opacity="0"/>
</radialGradient>
<linearGradient id="paint1_linear_231_4" x1="152.961" y1="351.635" x2="273.926" y2="351.635" gradientUnits="userSpaceOnUse">
<stop stop-color="#565656"/>
<stop offset="1" stop-color="#9B9B9B"/>
</linearGradient>
<linearGradient id="paint2_linear_231_4" x1="123.132" y1="384.822" x2="244.249" y2="384.822" gradientUnits="userSpaceOnUse">
<stop stop-color="#565656"/>
<stop offset="1" stop-color="#9B9B9B"/>
</linearGradient>
<linearGradient id="paint3_linear_231_4" x1="44.0193" y1="460.059" x2="157.005" y2="460.059" gradientUnits="userSpaceOnUse">
<stop stop-color="#565656"/>
<stop offset="1" stop-color="#9B9B9B"/>
</linearGradient>
<linearGradient id="paint4_linear_231_4" x1="67.3945" y1="427.33" x2="201.192" y2="427.33" gradientUnits="userSpaceOnUse">
<stop stop-color="#565656"/>
<stop offset="1" stop-color="#9B9B9B"/>
</linearGradient>
<linearGradient id="paint5_linear_231_4" x1="44.0956" y1="484.093" x2="134.728" y2="484.093" gradientUnits="userSpaceOnUse">
<stop stop-color="#565656"/>
<stop offset="1" stop-color="#9B9B9B"/>
</linearGradient>
<linearGradient id="paint6_linear_231_4" x1="110.605" y1="403.601" x2="214.222" y2="403.601" gradientUnits="userSpaceOnUse">
<stop stop-color="#565656"/>
<stop offset="1" stop-color="#9B9B9B"/>
</linearGradient>
<linearGradient id="paint7_linear_231_4" x1="183.63" y1="302.015" x2="362.224" y2="302.015" gradientUnits="userSpaceOnUse">
<stop stop-color="#565656"/>
<stop offset="1" stop-color="#9B9B9B"/>
</linearGradient>
<linearGradient id="paint8_linear_231_4" x1="272.614" y1="248.085" x2="398.019" y2="248.085" gradientUnits="userSpaceOnUse">
<stop stop-color="#565656"/>
<stop offset="1" stop-color="#9B9B9B"/>
</linearGradient>
<linearGradient id="paint9_linear_231_4" x1="352.398" y1="105.332" x2="469.777" y2="105.332" gradientUnits="userSpaceOnUse">
<stop stop-color="#565656"/>
<stop offset="1" stop-color="#9B9B9B"/>
</linearGradient>
<linearGradient id="paint10_linear_231_4" x1="134.713" y1="343.838" x2="405.191" y2="343.838" gradientUnits="userSpaceOnUse">
<stop stop-color="#565656"/>
<stop offset="1" stop-color="#9B9B9B"/>
</linearGradient>
<linearGradient id="paint11_linear_231_4" x1="243.334" y1="124.964" x2="461.904" y2="124.964" gradientUnits="userSpaceOnUse">
<stop stop-color="#565656"/>
<stop offset="1" stop-color="#9B9B9B"/>
</linearGradient>
<radialGradient id="paint12_radial_231_4" cx="0" cy="0" r="1" gradientUnits="userSpaceOnUse" gradientTransform="translate(290.979 323.849) scale(59.2345 24.5526)">
<stop offset="0.19" stop-color="#5F5C5D"/>
<stop offset="1" stop-color="white" stop-opacity="0"/>
</radialGradient>
<linearGradient id="paint13_linear_231_4" x1="159.949" y1="214.777" x2="339.169" y2="214.777" gradientUnits="userSpaceOnUse">
<stop offset="0.06" stop-color="#4F4F4F"/>
<stop offset="0.22" stop-color="#515151"/>
<stop offset="0.31" stop-color="#595959"/>
<stop offset="0.37" stop-color="#666666"/>
<stop offset="0.43" stop-color="#7A7A7A"/>
<stop offset="0.46" stop-color="#838383"/>
<stop offset="0.54" stop-color="#9B9B9B"/>
<stop offset="0.62" stop-color="#AAAAAA"/>
<stop offset="0.69" stop-color="#AFAFAF"/>
<stop offset="0.7" stop-color="#A6A6A6"/>
<stop offset="0.74" stop-color="#8E8E8E"/>
<stop offset="0.78" stop-color="#7F7F7F"/>
<stop offset="0.81" stop-color="#7A7A7A"/>
<stop offset="0.88" stop-color="#636363"/>
<stop offset="0.95" stop-color="#545454"/>
<stop offset="1" stop-color="#4F4F4F"/>
</linearGradient>
<linearGradient id="paint14_linear_231_4" x1="150.829" y1="155.311" x2="330.883" y2="155.311" gradientUnits="userSpaceOnUse">
<stop stop-color="#311B61"/>
<stop offset="0.2" stop-color="#290F52"/>
<stop offset="0.49" stop-color="#200041"/>
<stop offset="1" stop-color="#0F001F"/>
</linearGradient>
<radialGradient id="paint15_radial_231_4" cx="0" cy="0" r="1" gradientUnits="userSpaceOnUse" gradientTransform="translate(278.946 161.06) scale(49.6647 49.5744)">
<stop stop-color="white"/>
<stop offset="1"/>
</radialGradient>
<radialGradient id="paint16_radial_231_4" cx="0" cy="0" r="1" gradientUnits="userSpaceOnUse" gradientTransform="translate(239.84 219.728) rotate(0.136238) scale(97.9615 146.675)">
<stop stop-color="#FFCC00"/>
<stop offset="0.41" stop-color="#E7D700"/>
<stop offset="0.54" stop-color="#EDC800"/>
<stop offset="0.79" stop-color="#FD9F00"/>
<stop offset="0.82" stop-color="#FF9A00"/>
<stop offset="0.95" stop-color="#FA8B00"/>
<stop offset="1" stop-color="#F88400"/>
</radialGradient>
<radialGradient id="paint17_radial_231_4" cx="0" cy="0" r="1" gradientUnits="userSpaceOnUse" gradientTransform="translate(260.071 229.49) rotate(-0.136232) scale(69.9725 105.121)">
<stop stop-color="#FFCC00"/>
<stop offset="0.41" stop-color="#E7D700"/>
<stop offset="0.54" stop-color="#EDC800"/>
<stop offset="0.79" stop-color="#FD9F00"/>
<stop offset="0.82" stop-color="#FF9A00"/>
<stop offset="0.95" stop-color="#FA8B00"/>
<stop offset="1" stop-color="#F88400"/>
</radialGradient>
<radialGradient id="paint18_radial_231_4" cx="0" cy="0" r="1" gradientUnits="userSpaceOnUse" gradientTransform="translate(241.667 219.325) scale(42.2035 63.1902)">
<stop stop-color="#FFCC00"/>
<stop offset="0.41" stop-color="#E7D700"/>
<stop offset="0.54" stop-color="#EDC800"/>
<stop offset="0.79" stop-color="#FD9F00"/>
<stop offset="0.82" stop-color="#FF9A00"/>
<stop offset="0.95" stop-color="#FA8B00"/>
<stop offset="1" stop-color="#F88400"/>
</radialGradient>
<radialGradient id="paint19_radial_231_4" cx="0" cy="0" r="1" gradientUnits="userSpaceOnUse" gradientTransform="translate(241.743 219.326) scale(14.0678 14.0423)">
<stop stop-color="#FFCC00"/>
<stop offset="0.41" stop-color="#E7D700"/>
<stop offset="0.54" stop-color="#EDC800"/>
<stop offset="0.79" stop-color="#FD9F00"/>
<stop offset="0.82" stop-color="#FF9A00"/>
<stop offset="0.95" stop-color="#FA8B00"/>
<stop offset="1" stop-color="#F88400"/>
</radialGradient>
<radialGradient id="paint20_radial_231_4" cx="0" cy="0" r="1" gradientUnits="userSpaceOnUse" gradientTransform="translate(252.275 215.812) scale(92.0208 137.78)">
<stop stop-color="white"/>
<stop offset="0.07" stop-color="#D8D8D8"/>
<stop offset="0.16" stop-color="#A6A6A6"/>
<stop offset="0.26" stop-color="#797979"/>
<stop offset="0.37" stop-color="#545454"/>
<stop offset="0.47" stop-color="#353535"/>
<stop offset="0.59" stop-color="#1E1E1E"/>
<stop offset="0.7" stop-color="#0D0D0D"/>
<stop offset="0.84" stop-color="#030303"/>
<stop offset="1"/>
</radialGradient>
<radialGradient id="paint21_radial_231_4" cx="0" cy="0" r="1" gradientUnits="userSpaceOnUse" gradientTransform="translate(249.102 216.84) scale(65.8076 98.5319)">
<stop stop-color="white"/>
<stop offset="0.07" stop-color="#D8D8D8"/>
<stop offset="0.16" stop-color="#A6A6A6"/>
<stop offset="0.26" stop-color="#797979"/>
<stop offset="0.37" stop-color="#545454"/>
<stop offset="0.47" stop-color="#353535"/>
<stop offset="0.59" stop-color="#1E1E1E"/>
<stop offset="0.7" stop-color="#0D0D0D"/>
<stop offset="0.84" stop-color="#030303"/>
<stop offset="1"/>
</radialGradient>
<radialGradient id="paint22_radial_231_4" cx="0" cy="0" r="1" gradientUnits="userSpaceOnUse" gradientTransform="translate(245.928 217.891) scale(39.6097 59.3065)">
<stop stop-color="white"/>
<stop offset="0.07" stop-color="#D8D8D8"/>
<stop offset="0.16" stop-color="#A6A6A6"/>
<stop offset="0.26" stop-color="#797979"/>
<stop offset="0.37" stop-color="#545454"/>
<stop offset="0.47" stop-color="#353535"/>
<stop offset="0.59" stop-color="#1E1E1E"/>
<stop offset="0.7" stop-color="#0D0D0D"/>
<stop offset="0.84" stop-color="#030303"/>
<stop offset="1"/>
</radialGradient>
<radialGradient id="paint23_radial_231_4" cx="0" cy="0" r="1" gradientUnits="userSpaceOnUse" gradientTransform="translate(242.907 219.011) scale(13.3812 13.3569)">
<stop stop-color="white"/>
<stop offset="0.07" stop-color="#D8D8D8"/>
<stop offset="0.16" stop-color="#A6A6A6"/>
<stop offset="0.26" stop-color="#797979"/>
<stop offset="0.37" stop-color="#545454"/>
<stop offset="0.47" stop-color="#353535"/>
<stop offset="0.59" stop-color="#1E1E1E"/>
<stop offset="0.7" stop-color="#0D0D0D"/>
<stop offset="0.84" stop-color="#030303"/>
<stop offset="1"/>
</radialGradient>
<radialGradient id="paint24_radial_231_4" cx="0" cy="0" r="1" gradientUnits="userSpaceOnUse" gradientTransform="translate(231.051 427.467) scale(31.3551 31.2981)">
<stop stop-color="white"/>
<stop offset="1"/>
</radialGradient>
<radialGradient id="paint25_radial_231_4" cx="0" cy="0" r="1" gradientUnits="userSpaceOnUse" gradientTransform="translate(293.868 361.307) scale(40.7845 40.7104)">
<stop stop-color="white"/>
<stop offset="1"/>
</radialGradient>
<radialGradient id="paint26_radial_231_4" cx="0" cy="0" r="1" gradientUnits="userSpaceOnUse" gradientTransform="translate(174.017 480.712) scale(35.4595 35.395)">
<stop stop-color="white"/>
<stop offset="1"/>
</radialGradient>
<radialGradient id="paint27_radial_231_4" cx="0" cy="0" r="1" gradientUnits="userSpaceOnUse" gradientTransform="translate(400.842 270.854) scale(39.8081 39.7357)">
<stop stop-color="white"/>
<stop offset="1"/>
</radialGradient>
<radialGradient id="paint28_radial_231_4" cx="0" cy="0" r="1" gradientUnits="userSpaceOnUse" gradientTransform="translate(429.481 93.6659) scale(83.4153 83.2636)">
<stop stop-color="white"/>
<stop offset="1"/>
</radialGradient>
<linearGradient id="paint29_linear_231_4" x1="453.024" y1="231.743" x2="437.808" y2="258.161" gradientUnits="userSpaceOnUse">
<stop stop-color="#565656"/>
<stop offset="1" stop-color="#9B9B9B"/>
</linearGradient>
<linearGradient id="paint30_linear_231_4" x1="443.564" y1="329.415" x2="578.732" y2="319.02" gradientUnits="userSpaceOnUse">
<stop stop-color="#565656"/>
<stop offset="1" stop-color="#9B9B9B"/>
</linearGradient>
<linearGradient id="paint31_linear_231_4" x1="391.153" y1="321.617" x2="473.156" y2="335.388" gradientUnits="userSpaceOnUse">
<stop stop-color="#565656"/>
<stop offset="1" stop-color="#9B9B9B"/>
</linearGradient>
<linearGradient id="paint32_linear_231_4" x1="424.675" y1="328.76" x2="461.233" y2="328.76" gradientUnits="userSpaceOnUse">
<stop stop-color="#565656"/>
<stop offset="1" stop-color="#9B9B9B"/>
</linearGradient>
<linearGradient id="paint33_linear_231_4" x1="426.826" y1="276.535" x2="411.61" y2="302.953" gradientUnits="userSpaceOnUse">
<stop stop-color="#565656"/>
<stop offset="1" stop-color="#9B9B9B"/>
</linearGradient>
<linearGradient id="paint34_linear_231_4" x1="418.023" y1="359.037" x2="542.891" y2="349.438" gradientUnits="userSpaceOnUse">
<stop stop-color="#565656"/>
<stop offset="1" stop-color="#9B9B9B"/>
</linearGradient>
<linearGradient id="paint35_linear_231_4" x1="369.762" y1="352.092" x2="442.52" y2="364.304" gradientUnits="userSpaceOnUse">
<stop stop-color="#565656"/>
<stop offset="1" stop-color="#9B9B9B"/>
</linearGradient>
<linearGradient id="paint36_linear_231_4" x1="398.492" y1="358.428" x2="435.035" y2="358.428" gradientUnits="userSpaceOnUse">
<stop stop-color="#565656"/>
<stop offset="1" stop-color="#9B9B9B"/>
</linearGradient>
<linearGradient id="paint37_linear_231_4" x1="400.033" y1="323.003" x2="384.802" y2="349.421" gradientUnits="userSpaceOnUse">
<stop stop-color="#565656"/>
<stop offset="1" stop-color="#9B9B9B"/>
</linearGradient>
<linearGradient id="paint38_linear_231_4" x1="391.916" y1="389.269" x2="505.769" y2="380.526" gradientUnits="userSpaceOnUse">
<stop stop-color="#565656"/>
<stop offset="1" stop-color="#9B9B9B"/>
</linearGradient>
<linearGradient id="paint39_linear_231_4" x1="348.111" y1="383.253" x2="410.967" y2="393.8" gradientUnits="userSpaceOnUse">
<stop stop-color="#565656"/>
<stop offset="1" stop-color="#9B9B9B"/>
</linearGradient>
<linearGradient id="paint40_linear_231_4" x1="371.684" y1="388.721" x2="408.227" y2="388.721" gradientUnits="userSpaceOnUse">
<stop stop-color="#565656"/>
<stop offset="1" stop-color="#9B9B9B"/>
</linearGradient>
<linearGradient id="paint41_linear_231_4" x1="373.561" y1="373.887" x2="358.329" y2="400.305" gradientUnits="userSpaceOnUse">
<stop stop-color="#565656"/>
<stop offset="1" stop-color="#9B9B9B"/>
</linearGradient>
<linearGradient id="paint42_linear_231_4" x1="373.561" y1="425.137" x2="358.329" y2="451.539" gradientUnits="userSpaceOnUse">
<stop stop-color="#565656"/>
<stop offset="1" stop-color="#9B9B9B"/>
</linearGradient>
<linearGradient id="paint43_linear_231_4" x1="366.176" y1="422.898" x2="468.326" y2="415.041" gradientUnits="userSpaceOnUse">
<stop stop-color="#565656"/>
<stop offset="1" stop-color="#9B9B9B"/>
</linearGradient>
<linearGradient id="paint44_linear_231_4" x1="327.115" y1="417.841" x2="379.445" y2="426.63" gradientUnits="userSpaceOnUse">
<stop stop-color="#565656"/>
<stop offset="1" stop-color="#9B9B9B"/>
</linearGradient>
<linearGradient id="paint45_linear_231_4" x1="345.211" y1="422.395" x2="381.754" y2="422.395" gradientUnits="userSpaceOnUse">
<stop stop-color="#565656"/>
<stop offset="1" stop-color="#9B9B9B"/>
</linearGradient>
<linearGradient id="paint46_linear_231_4" x1="347.012" y1="413.12" x2="331.78" y2="439.538" gradientUnits="userSpaceOnUse">
<stop stop-color="#565656"/>
<stop offset="1" stop-color="#9B9B9B"/>
</linearGradient>
<linearGradient id="paint47_linear_231_4" x1="340.146" y1="450.007" x2="434.087" y2="442.793" gradientUnits="userSpaceOnUse">
<stop stop-color="#565656"/>
<stop offset="1" stop-color="#9B9B9B"/>
</linearGradient>
<linearGradient id="paint48_linear_231_4" x1="304.412" y1="445.652" x2="349.357" y2="453.187" gradientUnits="userSpaceOnUse">
<stop stop-color="#565656"/>
<stop offset="1" stop-color="#9B9B9B"/>
</linearGradient>
<linearGradient id="paint49_linear_231_4" x1="318.663" y1="449.551" x2="355.221" y2="449.551" gradientUnits="userSpaceOnUse">
<stop stop-color="#565656"/>
<stop offset="1" stop-color="#9B9B9B"/>
</linearGradient>
<linearGradient id="paint50_linear_231_4" x1="463.461" y1="387.076" x2="492.68" y2="387.076" gradientUnits="userSpaceOnUse">
<stop stop-color="#565656"/>
<stop offset="1" stop-color="#9B9B9B"/>
</linearGradient>
<linearGradient id="paint51_linear_231_4" x1="478.154" y1="346.945" x2="478.154" y2="402.154" gradientUnits="userSpaceOnUse">
<stop stop-color="#565656"/>
<stop offset="1" stop-color="#9B9B9B"/>
</linearGradient>
<linearGradient id="paint52_linear_231_4" x1="486.531" y1="324.267" x2="472.957" y2="346.631" gradientUnits="userSpaceOnUse">
<stop stop-color="#565656"/>
<stop offset="1" stop-color="#9B9B9B"/>
</linearGradient>
<linearGradient id="paint53_linear_231_4" x1="463.308" y1="342.939" x2="493" y2="342.939" gradientUnits="userSpaceOnUse">
<stop stop-color="#565656"/>
<stop offset="1" stop-color="#9B9B9B"/>
</linearGradient>
<linearGradient id="paint54_linear_231_4" x1="434.196" y1="417.278" x2="463.43" y2="417.278" gradientUnits="userSpaceOnUse">
<stop stop-color="#565656"/>
<stop offset="1" stop-color="#9B9B9B"/>
</linearGradient>
<linearGradient id="paint55_linear_231_4" x1="448.905" y1="389.422" x2="448.905" y2="438.676" gradientUnits="userSpaceOnUse">
<stop stop-color="#565656"/>
<stop offset="1" stop-color="#9B9B9B"/>
</linearGradient>
<linearGradient id="paint56_linear_231_4" x1="457.281" y1="367.627" x2="443.707" y2="389.992" gradientUnits="userSpaceOnUse">
<stop stop-color="#565656"/>
<stop offset="1" stop-color="#9B9B9B"/>
</linearGradient>
<linearGradient id="paint57_linear_231_4" x1="434.058" y1="386.299" x2="463.75" y2="386.299" gradientUnits="userSpaceOnUse">
<stop stop-color="#565656"/>
<stop offset="1" stop-color="#9B9B9B"/>
</linearGradient>
<linearGradient id="paint58_linear_231_4" x1="404.641" y1="448.545" x2="433.86" y2="448.545" gradientUnits="userSpaceOnUse">
<stop stop-color="#565656"/>
<stop offset="1" stop-color="#9B9B9B"/>
</linearGradient>
<linearGradient id="paint59_linear_231_4" x1="419.35" y1="433.589" x2="419.35" y2="467.568" gradientUnits="userSpaceOnUse">
<stop stop-color="#565656"/>
<stop offset="1" stop-color="#9B9B9B"/>
</linearGradient>
<linearGradient id="paint60_linear_231_4" x1="427.711" y1="412.023" x2="414.137" y2="434.403" gradientUnits="userSpaceOnUse">
<stop stop-color="#565656"/>
<stop offset="1" stop-color="#9B9B9B"/>
</linearGradient>
<linearGradient id="paint61_linear_231_4" x1="404.504" y1="430.711" x2="434.196" y2="430.711" gradientUnits="userSpaceOnUse">
<stop stop-color="#565656"/>
<stop offset="1" stop-color="#9B9B9B"/>
</linearGradient>
<linearGradient id="paint62_linear_231_4" x1="463.445" y1="341.553" x2="492.649" y2="341.553" gradientUnits="userSpaceOnUse">
<stop stop-color="#FFBB96"/>
<stop offset="0.23" stop-color="#FFFBC9"/>
<stop offset="0.54" stop-color="#F9B673"/>
<stop offset="0.64" stop-color="#F9B876"/>
<stop offset="0.72" stop-color="#FABE81"/>
<stop offset="0.81" stop-color="#FCC993"/>
<stop offset="0.86" stop-color="#FED2A3"/>
<stop offset="0.97" stop-color="#FFC28C"/>
</linearGradient>
<linearGradient id="paint63_linear_231_4" x1="463.445" y1="343.244" x2="492.649" y2="343.244" gradientUnits="userSpaceOnUse">
<stop stop-color="#FFBB96"/>
<stop offset="0.23" stop-color="#FFFBC9"/>
<stop offset="0.54" stop-color="#F9B673"/>
<stop offset="0.64" stop-color="#F9B876"/>
<stop offset="0.72" stop-color="#FABE81"/>
<stop offset="0.81" stop-color="#FCC993"/>
<stop offset="0.86" stop-color="#FED2A3"/>
<stop offset="0.97" stop-color="#FFC28C"/>
</linearGradient>
<linearGradient id="paint64_linear_231_4" x1="505.573" y1="307.59" x2="476.59" y2="336.808" gradientUnits="userSpaceOnUse">
<stop offset="0.04" stop-color="#FFBA78"/>
<stop offset="0.4" stop-color="#FFC987"/>
<stop offset="1" stop-color="#FEECA8"/>
</linearGradient>
<radialGradient id="paint65_radial_231_4" cx="0" cy="0" r="1" gradientUnits="userSpaceOnUse" gradientTransform="translate(471.761 341.492) scale(18.6605 18.6266)">
<stop stop-color="white"/>
<stop offset="1"/>
</radialGradient>
<linearGradient id="paint66_linear_231_4" x1="490.07" y1="323.155" x2="468.398" y2="345.004" gradientUnits="userSpaceOnUse">
<stop offset="0.04" stop-color="#FFBA78"/>
<stop offset="0.4" stop-color="#FFC987"/>
<stop offset="1" stop-color="#FEECA8"/>
</linearGradient>
<radialGradient id="paint67_radial_231_4" cx="0" cy="0" r="1" gradientUnits="userSpaceOnUse" gradientTransform="translate(483.372 328.074) scale(8.20878 8.19386)">
<stop stop-color="white"/>
<stop offset="1"/>
</radialGradient>
<linearGradient id="paint68_linear_231_4" x1="494.068" y1="318.434" x2="473.614" y2="339.047" gradientUnits="userSpaceOnUse">
<stop stop-color="#FFBB96"/>
<stop offset="0.23" stop-color="#FFFBC9"/>
<stop offset="0.54" stop-color="#F9B673"/>
<stop offset="0.64" stop-color="#F9B876"/>
<stop offset="0.72" stop-color="#FABE81"/>
<stop offset="0.81" stop-color="#FCC993"/>
<stop offset="0.86" stop-color="#FED2A3"/>
<stop offset="0.97" stop-color="#FFC28C"/>
</linearGradient>
<radialGradient id="paint69_radial_231_4" cx="0" cy="0" r="1" gradientUnits="userSpaceOnUse" gradientTransform="translate(490.725 354.286) rotate(-70.3131) scale(3.12742 6.46204)">
<stop stop-color="#F49587"/>
<stop offset="0.12" stop-color="#BD7368"/>
<stop offset="0.24" stop-color="#8B554D"/>
<stop offset="0.36" stop-color="#603B35"/>
<stop offset="0.48" stop-color="#3E2622"/>
<stop offset="0.61" stop-color="#231513"/>
<stop offset="0.74" stop-color="#0F0908"/>
<stop offset="0.86" stop-color="#040202"/>
<stop offset="1"/>
</radialGradient>
<linearGradient id="paint70_linear_231_4" x1="470.342" y1="335.324" x2="486.424" y2="335.324" gradientUnits="userSpaceOnUse">
<stop stop-color="#FFBB96"/>
<stop offset="0.23" stop-color="#FFFBC9"/>
<stop offset="0.54" stop-color="#F9B673"/>
<stop offset="0.64" stop-color="#F9B876"/>
<stop offset="0.72" stop-color="#FABE81"/>
<stop offset="0.81" stop-color="#FCC993"/>
<stop offset="0.86" stop-color="#FED2A3"/>
<stop offset="0.97" stop-color="#FFC28C"/>
</linearGradient>
<linearGradient id="paint71_linear_231_4" x1="462.118" y1="348.285" x2="480.81" y2="332.153" gradientUnits="userSpaceOnUse">
<stop offset="0.04" stop-color="#FFBA78"/>
<stop offset="0.4" stop-color="#FFC987"/>
<stop offset="1" stop-color="#FEECA8"/>
</linearGradient>
<radialGradient id="paint72_radial_231_4" cx="0" cy="0" r="1" gradientUnits="userSpaceOnUse" gradientTransform="translate(481.328 332.217) scale(6.57619 6.56422)">
<stop stop-color="#F49587"/>
<stop offset="0.12" stop-color="#BD7368"/>
<stop offset="0.24" stop-color="#8B554D"/>
<stop offset="0.36" stop-color="#603B35"/>
<stop offset="0.48" stop-color="#3E2622"/>
<stop offset="0.61" stop-color="#231513"/>
<stop offset="0.74" stop-color="#0F0908"/>
<stop offset="0.86" stop-color="#040202"/>
<stop offset="1"/>
</radialGradient>
<linearGradient id="paint73_linear_231_4" x1="434.348" y1="384.624" x2="463.567" y2="384.624" gradientUnits="userSpaceOnUse">
<stop stop-color="#FFBB96"/>
<stop offset="0.23" stop-color="#FFFBC9"/>
<stop offset="0.54" stop-color="#F9B673"/>
<stop offset="0.64" stop-color="#F9B876"/>
<stop offset="0.72" stop-color="#FABE81"/>
<stop offset="0.81" stop-color="#FCC993"/>
<stop offset="0.86" stop-color="#FED2A3"/>
<stop offset="0.97" stop-color="#FFC28C"/>
</linearGradient>
<linearGradient id="paint74_linear_231_4" x1="434.348" y1="386.315" x2="463.567" y2="386.315" gradientUnits="userSpaceOnUse">
<stop stop-color="#FFBB96"/>
<stop offset="0.23" stop-color="#FFFBC9"/>
<stop offset="0.54" stop-color="#F9B673"/>
<stop offset="0.64" stop-color="#F9B876"/>
<stop offset="0.72" stop-color="#FABE81"/>
<stop offset="0.81" stop-color="#FCC993"/>
<stop offset="0.86" stop-color="#FED2A3"/>
<stop offset="0.97" stop-color="#FFC28C"/>
</linearGradient>
<linearGradient id="paint75_linear_231_4" x1="476.476" y1="350.661" x2="447.493" y2="379.879" gradientUnits="userSpaceOnUse">
<stop offset="0.04" stop-color="#FFBA78"/>
<stop offset="0.4" stop-color="#FFC987"/>
<stop offset="1" stop-color="#FEECA8"/>
</linearGradient>
<radialGradient id="paint76_radial_231_4" cx="0" cy="0" r="1" gradientUnits="userSpaceOnUse" gradientTransform="translate(442.664 384.563) scale(18.6605 18.6266)">
<stop stop-color="white"/>
<stop offset="1"/>
</radialGradient>
<linearGradient id="paint77_linear_231_4" x1="460.973" y1="366.241" x2="439.316" y2="388.075" gradientUnits="userSpaceOnUse">
<stop offset="0.04" stop-color="#FFBA78"/>
<stop offset="0.4" stop-color="#FFC987"/>
<stop offset="1" stop-color="#FEECA8"/>
</linearGradient>
<radialGradient id="paint78_radial_231_4" cx="0" cy="0" r="1" gradientUnits="userSpaceOnUse" gradientTransform="translate(454.275 371.145) scale(8.20878 8.19385)">
<stop stop-color="white"/>
<stop offset="1"/>
</radialGradient>
<linearGradient id="paint79_linear_231_4" x1="464.971" y1="361.52" x2="444.532" y2="382.118" gradientUnits="userSpaceOnUse">
<stop stop-color="#FFBB96"/>
<stop offset="0.23" stop-color="#FFFBC9"/>
<stop offset="0.54" stop-color="#F9B673"/>
<stop offset="0.64" stop-color="#F9B876"/>
<stop offset="0.72" stop-color="#FABE81"/>
<stop offset="0.81" stop-color="#FCC993"/>
<stop offset="0.86" stop-color="#FED2A3"/>
<stop offset="0.97" stop-color="#FFC28C"/>
</linearGradient>
<radialGradient id="paint80_radial_231_4" cx="0" cy="0" r="1" gradientUnits="userSpaceOnUse" gradientTransform="translate(460.907 396.581) rotate(-70.3131) scale(3.12741 6.46204)">
<stop stop-color="#F49587"/>
<stop offset="0.12" stop-color="#BD7368"/>
<stop offset="0.24" stop-color="#8B554D"/>
<stop offset="0.36" stop-color="#603B35"/>
<stop offset="0.48" stop-color="#3E2622"/>
<stop offset="0.61" stop-color="#231513"/>
<stop offset="0.74" stop-color="#0F0908"/>
<stop offset="0.86" stop-color="#040202"/>
<stop offset="1"/>
</radialGradient>
<linearGradient id="paint81_linear_231_4" x1="441.489" y1="378.608" x2="457.586" y2="378.608" gradientUnits="userSpaceOnUse">
<stop stop-color="#FFBB96"/>
<stop offset="0.23" stop-color="#FFFBC9"/>
<stop offset="0.54" stop-color="#F9B673"/>
<stop offset="0.64" stop-color="#F9B876"/>
<stop offset="0.72" stop-color="#FABE81"/>
<stop offset="0.81" stop-color="#FCC993"/>
<stop offset="0.86" stop-color="#FED2A3"/>
<stop offset="0.97" stop-color="#FFC28C"/>
</linearGradient>
<linearGradient id="paint82_linear_231_4" x1="433.265" y1="391.554" x2="451.973" y2="375.437" gradientUnits="userSpaceOnUse">
<stop offset="0.04" stop-color="#FFBA78"/>
<stop offset="0.4" stop-color="#FFC987"/>
<stop offset="1" stop-color="#FEECA8"/>
</linearGradient>
<radialGradient id="paint83_radial_231_4" cx="0" cy="0" r="1" gradientUnits="userSpaceOnUse" gradientTransform="translate(452.475 375.501) scale(6.57619 6.56423)">
<stop stop-color="#F49587"/>
<stop offset="0.12" stop-color="#BD7368"/>
<stop offset="0.24" stop-color="#8B554D"/>
<stop offset="0.36" stop-color="#603B35"/>
<stop offset="0.48" stop-color="#3E2622"/>
<stop offset="0.61" stop-color="#231513"/>
<stop offset="0.74" stop-color="#0F0908"/>
<stop offset="0.86" stop-color="#040202"/>
<stop offset="1"/>
</radialGradient>
<linearGradient id="paint84_linear_231_4" x1="404.504" y1="429.112" x2="433.723" y2="429.112" gradientUnits="userSpaceOnUse">
<stop stop-color="#FFBB96"/>
<stop offset="0.23" stop-color="#FFFBC9"/>
<stop offset="0.54" stop-color="#F9B673"/>
<stop offset="0.64" stop-color="#F9B876"/>
<stop offset="0.72" stop-color="#FABE81"/>
<stop offset="0.81" stop-color="#FCC993"/>
<stop offset="0.86" stop-color="#FED2A3"/>
<stop offset="0.97" stop-color="#FFC28C"/>
</linearGradient>
<linearGradient id="paint85_linear_231_4" x1="404.504" y1="430.802" x2="433.723" y2="430.802" gradientUnits="userSpaceOnUse">
<stop stop-color="#FFBB96"/>
<stop offset="0.23" stop-color="#FFFBC9"/>
<stop offset="0.54" stop-color="#F9B673"/>
<stop offset="0.64" stop-color="#F9B876"/>
<stop offset="0.72" stop-color="#FABE81"/>
<stop offset="0.81" stop-color="#FCC993"/>
<stop offset="0.86" stop-color="#FED2A3"/>
<stop offset="0.97" stop-color="#FFC28C"/>
</linearGradient>
<linearGradient id="paint86_linear_231_4" x1="446.631" y1="395.148" x2="417.648" y2="424.367" gradientUnits="userSpaceOnUse">
<stop offset="0.04" stop-color="#FFBA78"/>
<stop offset="0.4" stop-color="#FFC987"/>
<stop offset="1" stop-color="#FEECA8"/>
</linearGradient>
<radialGradient id="paint87_radial_231_4" cx="0" cy="0" r="1" gradientUnits="userSpaceOnUse" gradientTransform="translate(412.819 429.051) scale(18.6605 18.6266)">
<stop stop-color="white"/>
<stop offset="1"/>
</radialGradient>
<linearGradient id="paint88_linear_231_4" x1="431.129" y1="410.729" x2="409.472" y2="432.563" gradientUnits="userSpaceOnUse">
<stop offset="0.04" stop-color="#FFBA78"/>
<stop offset="0.4" stop-color="#FFC987"/>
<stop offset="1" stop-color="#FEECA8"/>
</linearGradient>
<radialGradient id="paint89_radial_231_4" cx="0" cy="0" r="1" gradientUnits="userSpaceOnUse" gradientTransform="translate(424.431 415.633) scale(8.20878 8.19385)">
<stop stop-color="white"/>
<stop offset="1"/>
</radialGradient>
<linearGradient id="paint90_linear_231_4" x1="435.127" y1="406.007" x2="414.688" y2="426.62" gradientUnits="userSpaceOnUse">
<stop stop-color="#FFBB96"/>
<stop offset="0.23" stop-color="#FFFBC9"/>
<stop offset="0.54" stop-color="#F9B673"/>
<stop offset="0.64" stop-color="#F9B876"/>
<stop offset="0.72" stop-color="#FABE81"/>
<stop offset="0.81" stop-color="#FCC993"/>
<stop offset="0.86" stop-color="#FED2A3"/>
<stop offset="0.97" stop-color="#FFC28C"/>
</linearGradient>
<linearGradient id="paint91_linear_231_4" x1="411.538" y1="422.898" x2="427.635" y2="422.898" gradientUnits="userSpaceOnUse">
<stop stop-color="#FFBB96"/>
<stop offset="0.23" stop-color="#FFFBC9"/>
<stop offset="0.54" stop-color="#F9B673"/>
<stop offset="0.64" stop-color="#F9B876"/>
<stop offset="0.72" stop-color="#FABE81"/>
<stop offset="0.81" stop-color="#FCC993"/>
<stop offset="0.86" stop-color="#FED2A3"/>
<stop offset="0.97" stop-color="#FFC28C"/>
</linearGradient>
<linearGradient id="paint92_linear_231_4" x1="403.314" y1="435.859" x2="422.006" y2="419.727" gradientUnits="userSpaceOnUse">
<stop offset="0.04" stop-color="#FFBA78"/>
<stop offset="0.4" stop-color="#FFC987"/>
<stop offset="1" stop-color="#FEECA8"/>
</linearGradient>
<radialGradient id="paint93_radial_231_4" cx="0" cy="0" r="1" gradientUnits="userSpaceOnUse" gradientTransform="translate(422.524 419.791) scale(6.57618 6.56424)">
<stop stop-color="#F49587"/>
<stop offset="0.12" stop-color="#BD7368"/>
<stop offset="0.24" stop-color="#8B554D"/>
<stop offset="0.36" stop-color="#603B35"/>
<stop offset="0.48" stop-color="#3E2622"/>
<stop offset="0.61" stop-color="#231513"/>
<stop offset="0.74" stop-color="#0F0908"/>
<stop offset="0.86" stop-color="#040202"/>
<stop offset="1"/>
</radialGradient>
<linearGradient id="paint94_linear_231_4" x1="240.599" y1="252.322" x2="206.603" y2="175.154" gradientUnits="userSpaceOnUse">
<stop stop-color="white"/>
<stop offset="1" stop-color="#8969C3"/>
</linearGradient>
<linearGradient id="paint95_linear_231_4" x1="243.776" y1="291.526" x2="216.654" y2="213.304" gradientUnits="userSpaceOnUse">
<stop stop-color="#EBE8EF"/>
<stop offset="1" stop-color="#8060B8"/>
</linearGradient>
<linearGradient id="paint96_linear_231_4" x1="237.207" y1="283.225" x2="217.054" y2="204.644" gradientUnits="userSpaceOnUse">
<stop stop-color="#D7D2DF"/>
<stop offset="1" stop-color="#7757AE"/>
</linearGradient>
<linearGradient id="paint97_linear_231_4" x1="245.297" y1="280.859" x2="232.643" y2="202.94" gradientUnits="userSpaceOnUse">
<stop stop-color="#C4BBCE"/>
<stop offset="1" stop-color="#6E4EA3"/>
</linearGradient>
<linearGradient id="paint98_linear_231_4" x1="237.742" y1="257.351" x2="259.254" y2="206.322" gradientUnits="userSpaceOnUse">
<stop stop-color="#4D326D"/>
<stop offset="1" stop-color="#371762"/>
</linearGradient>
<linearGradient id="paint99_linear_231_4" x1="112.9" y1="305.626" x2="95.8723" y2="289.474" gradientUnits="userSpaceOnUse">
<stop offset="0.04" stop-color="#FFA98C"/>
<stop offset="0.32" stop-color="#FFB892"/>
<stop offset="0.86" stop-color="#FEE1A3"/>
<stop offset="1" stop-color="#FEECA8"/>
</linearGradient>
<radialGradient id="paint100_radial_231_4" cx="0" cy="0" r="1" gradientUnits="userSpaceOnUse" gradientTransform="translate(94.9582 300.252) rotate(-44.9479) scale(13.3081 13.3081)">
<stop stop-color="white"/>
<stop offset="0.07" stop-color="#D8D8D8"/>
<stop offset="0.16" stop-color="#A6A6A6"/>
<stop offset="0.26" stop-color="#797979"/>
<stop offset="0.37" stop-color="#545454"/>
<stop offset="0.47" stop-color="#353535"/>
<stop offset="0.59" stop-color="#1E1E1E"/>
<stop offset="0.7" stop-color="#0D0D0D"/>
<stop offset="0.84" stop-color="#030303"/>
<stop offset="1"/>
</radialGradient>
<linearGradient id="paint101_linear_231_4" x1="228.366" y1="230.662" x2="225.079" y2="224.976" gradientUnits="userSpaceOnUse">
<stop offset="0.01" stop-color="#F9B595"/>
<stop offset="0.13" stop-color="#FBC59C"/>
<stop offset="0.18" stop-color="#F9BA97"/>
<stop offset="0.25" stop-color="#F8AE92"/>
<stop offset="0.33" stop-color="#F7AA90"/>
<stop offset="0.43" stop-color="#F8B394"/>
<stop offset="0.59" stop-color="#FCCB9D"/>
<stop offset="0.73" stop-color="#FFE4A7"/>
<stop offset="0.97" stop-color="#F7AA90"/>
</linearGradient>
<linearGradient id="paint102_linear_231_4" x1="210.514" y1="236.053" x2="214.313" y2="236.053" gradientUnits="userSpaceOnUse">
<stop offset="0.04" stop-color="#FFA98C"/>
<stop offset="0.32" stop-color="#FFB892"/>
<stop offset="0.86" stop-color="#FEE1A3"/>
<stop offset="1" stop-color="#FEECA8"/>
</linearGradient>
<linearGradient id="paint103_linear_231_4" x1="154.044" y1="273.961" x2="150.864" y2="268.443" gradientUnits="userSpaceOnUse">
<stop offset="0.04" stop-color="#1E1F21"/>
<stop offset="0.12" stop-color="#2D2E30"/>
<stop offset="0.14" stop-color="#323336"/>
<stop offset="0.27" stop-color="#0E0E0F"/>
<stop offset="0.35" stop-color="#131415"/>
<stop offset="0.46" stop-color="#232326"/>
<stop offset="0.59" stop-color="#3C3D41"/>
<stop offset="0.73" stop-color="#5E6167"/>
<stop offset="0.77" stop-color="#696C73"/>
<stop offset="1" stop-color="#37383C"/>
</linearGradient>
<linearGradient id="paint104_linear_231_4" x1="91.8401" y1="311.248" x2="92.2271" y2="304.205" gradientUnits="userSpaceOnUse">
<stop offset="0.04" stop-color="#1E1F21"/>
<stop offset="0.31" stop-color="#2C2E30"/>
<stop offset="0.84" stop-color="#515359"/>
<stop offset="1" stop-color="#5D6066"/>
</linearGradient>
<linearGradient id="paint105_linear_231_4" x1="98.8314" y1="293.522" x2="90.2454" y2="291.231" gradientUnits="userSpaceOnUse">
<stop offset="0.04" stop-color="#FFA98C"/>
<stop offset="0.32" stop-color="#FFB892"/>
<stop offset="0.86" stop-color="#FEE1A3"/>
<stop offset="1" stop-color="#FEECA8"/>
</linearGradient>
<linearGradient id="paint106_linear_231_4" x1="96.5065" y1="294.522" x2="155.263" y2="276.888" gradientUnits="userSpaceOnUse">
<stop offset="0.04" stop-color="#FFA98C"/>
<stop offset="0.32" stop-color="#FFB892"/>
<stop offset="0.86" stop-color="#FEE1A3"/>
<stop offset="1" stop-color="#FEECA8"/>
</linearGradient>
<radialGradient id="paint107_radial_231_4" cx="0" cy="0" r="1" gradientUnits="userSpaceOnUse" gradientTransform="translate(93.5556 293.92) rotate(-44.9478) scale(9.60378 9.60376)">
<stop stop-color="white"/>
<stop offset="0.07" stop-color="#D8D8D8"/>
<stop offset="0.16" stop-color="#A6A6A6"/>
<stop offset="0.26" stop-color="#797979"/>
<stop offset="0.37" stop-color="#545454"/>
<stop offset="0.47" stop-color="#353535"/>
<stop offset="0.59" stop-color="#1E1E1E"/>
<stop offset="0.7" stop-color="#0D0D0D"/>
<stop offset="0.84" stop-color="#030303"/>
<stop offset="1"/>
</radialGradient>
<linearGradient id="paint108_linear_231_4" x1="110.904" y1="311.539" x2="109.646" y2="304.786" gradientUnits="userSpaceOnUse">
<stop offset="0.04" stop-color="#FFA98C"/>
<stop offset="0.32" stop-color="#FFB892"/>
<stop offset="0.86" stop-color="#FEE1A3"/>
<stop offset="1" stop-color="#FEECA8"/>
</linearGradient>
<linearGradient id="paint109_linear_231_4" x1="106.686" y1="294.405" x2="115.023" y2="311.981" gradientUnits="userSpaceOnUse">
<stop offset="0.04" stop-color="#FFA98C"/>
<stop offset="0.32" stop-color="#FFB892"/>
<stop offset="0.86" stop-color="#FEE1A3"/>
<stop offset="1" stop-color="#FEECA8"/>
</linearGradient>
<radialGradient id="paint110_radial_231_4" cx="0" cy="0" r="1" gradientUnits="userSpaceOnUse" gradientTransform="translate(98.4323 314.296) rotate(-44.9479) scale(8.36901 8.369)">
<stop stop-color="white"/>
<stop offset="0.07" stop-color="#D8D8D8"/>
<stop offset="0.16" stop-color="#A6A6A6"/>
<stop offset="0.26" stop-color="#797979"/>
<stop offset="0.37" stop-color="#545454"/>
<stop offset="0.47" stop-color="#353535"/>
<stop offset="0.59" stop-color="#1E1E1E"/>
<stop offset="0.7" stop-color="#0D0D0D"/>
<stop offset="0.84" stop-color="#030303"/>
<stop offset="1"/>
</radialGradient>
<radialGradient id="paint111_radial_231_4" cx="0" cy="0" r="1" gradientUnits="userSpaceOnUse" gradientTransform="translate(242.674 355.958) rotate(-30.5607) scale(23.375 2.47616)">
<stop stop-color="#972A74"/>
<stop offset="0.04" stop-color="#8A266A"/>
<stop offset="0.19" stop-color="#601B4A"/>
<stop offset="0.35" stop-color="#3D112F"/>
<stop offset="0.51" stop-color="#230A1B"/>
<stop offset="0.67" stop-color="#0F040C"/>
<stop offset="0.83" stop-color="#040103"/>
<stop offset="1"/>
</radialGradient>
</defs>
</svg>
