<svg width="83" height="76" viewBox="0 0 83 76" fill="none" xmlns="http://www.w3.org/2000/svg">
<path fill-rule="evenodd" clip-rule="evenodd" d="M2.94795 0.264511C2.08159 0.575942 0.875543 1.65205 0.415856 2.52399L0.0578351 3.20312L0.0116232 29.9372C-0.0219413 49.329 0.0153525 56.8564 0.147502 57.3456C0.438232 58.4228 1.39182 59.5568 2.48307 60.1231L3.43974 60.6196L18.4095 60.6649L33.3791 60.7101V64.8719C33.3791 69.4395 33.2914 70.0073 32.4188 71.0813C31.2668 72.4992 29.107 73.1468 24.9854 73.31C22.2945 73.4164 22.1011 73.4459 21.7518 73.8002C21.5474 74.0077 21.3802 74.3325 21.3802 74.522C21.3802 74.9943 21.798 75.7756 22.1171 75.8998C22.4603 76.0334 60.5126 76.0334 60.8557 75.8998C61.1748 75.7756 61.5927 74.9943 61.5927 74.522C61.5927 74.3325 61.4255 74.0077 61.221 73.8002C60.8718 73.4459 60.6783 73.4164 57.9875 73.31C54.8258 73.1848 53.2231 72.8706 51.8347 72.1037C50.1274 71.1611 49.5938 69.9834 49.5938 67.1583C49.5938 65.3051 49.5883 65.2774 49.1198 64.8021C48.5048 64.1781 47.9263 64.1781 47.3112 64.8021C46.855 65.2651 46.8373 65.3401 46.8386 66.8175C46.8407 69.6218 47.3461 71.483 48.4526 72.7616L48.9788 73.3697H41.4864H33.9941L34.5203 72.7616C35.2068 71.9682 35.7617 70.6741 35.9678 69.3856C36.0587 68.817 36.1336 66.6319 36.1343 64.5299L36.1356 60.7076L57.8228 60.6637L79.5099 60.6196L80.4348 60.1588C81.493 59.6315 82.0745 59.0046 82.6186 57.8037L83 56.9622L82.9575 30.0826L82.915 3.20312L82.557 2.52399C82.36 2.15037 81.8635 1.54528 81.4534 1.17906C80.0074 -0.112398 83.6286 -0.00644878 41.417 0.00802873C8.49095 0.0193804 3.53784 0.0522839 2.94795 0.264511ZM79.0893 2.84217C79.3932 2.95025 79.7945 3.24803 79.9811 3.50402L80.3207 3.96944L80.2683 23.7396C80.2352 36.2559 80.1563 43.7448 80.0531 44.1501C79.8355 45.0061 78.409 46.4599 77.5488 46.7023C77.1027 46.8278 66.4051 46.8808 41.3596 46.8814C9.80045 46.8823 5.73688 46.8541 5.20957 46.6306C4.25858 46.2275 3.65118 45.6688 3.13442 44.7223L2.65219 43.8389V23.9032V3.96763L2.99173 3.50303C3.17836 3.2477 3.57967 2.95025 3.88354 2.84217C4.68422 2.55755 78.2887 2.55755 79.0893 2.84217ZM27.666 6.72642L27.1364 7.20615L27.0816 9.02966L27.0266 10.8532L22.9469 10.8568C19.3261 10.8601 18.828 10.8925 18.521 11.1447C17.9607 11.6053 17.813 12.0742 17.813 13.3923V14.6371H13.848C11.1192 14.6371 9.75051 14.6983 9.45783 14.8337C8.59975 15.2303 8.57056 15.4539 8.57056 21.6335V27.3302L9.04452 27.8111L9.51847 28.292H23.7162H37.914L38.4436 27.8119L38.9732 27.3319V17.2693V7.20681L38.4436 6.72675L37.914 6.24669H33.0548H28.1956L27.666 6.72642ZM46.5501 8.65999C46.2774 8.77137 45.8644 9.59642 45.8644 10.0299C45.8644 10.2194 46.0436 10.5562 46.2625 10.7783L46.6604 11.1822H60.1366C68.6171 11.1822 73.7229 11.1225 73.9095 11.0211C74.3178 10.7994 74.5885 9.95161 74.4062 9.46514C74.0462 8.50468 74.7422 8.54877 60.1377 8.56292C52.7779 8.57 46.6635 8.61376 46.5501 8.65999ZM36.2977 17.2693V25.6597H33.0548H29.8118V17.2693V8.87896H33.0548H36.2977V17.2693ZM27.0553 19.5726V25.6597H23.8317H20.6082L20.5411 24.1022C20.4824 22.7407 20.4253 22.4923 20.088 22.128C19.5713 21.57 18.7537 21.5644 18.211 22.1152C17.8439 22.4875 17.813 22.6413 17.813 24.0894V25.6597H14.4862H11.1594L11.2027 21.5057L11.246 17.3516L14.5295 17.307L17.813 17.2626V18.313C17.813 19.6451 18.1912 20.2306 19.0514 20.2306C20.3749 20.2306 20.5673 19.704 20.5685 16.0766L20.5695 13.4854H23.8124H27.0553V19.5726ZM46.2625 15.8635C46.0115 16.118 45.8644 16.4553 45.8644 16.7758C45.8644 17.0963 46.0115 17.4335 46.2625 17.688L46.6604 18.0919H60.1788H73.6971L74.0767 17.6819C74.3016 17.4391 74.4563 17.0696 74.4563 16.7758C74.4563 16.482 74.3016 16.1125 74.0767 15.8696L73.6971 15.4596H60.1788H46.6604L46.2625 15.8635ZM46.8811 22.3205C46.4467 22.4056 45.8644 23.1122 45.8644 23.5541C45.8644 23.9504 46.1602 24.5268 46.4989 24.7907C46.8542 25.0675 65.1131 25.0911 65.7088 24.8157C65.93 24.7136 66.2004 24.4105 66.31 24.1424C66.5884 23.46 66.3413 22.8471 65.6446 22.4931C65.1249 22.2287 64.3537 22.2072 56.1608 22.2276C51.2558 22.2397 47.0799 22.2815 46.8811 22.3205ZM46.3479 30.244C45.7585 30.8418 45.7293 31.4045 46.2553 32.0255L46.6464 32.4872L49.6074 32.539C51.236 32.5675 52.7401 32.5471 52.9499 32.4938C53.9132 32.2483 54.2962 31.0386 53.6621 30.2433C53.3579 29.8618 53.2946 29.8541 50.0919 29.8042L46.8313 29.7534L46.3479 30.244ZM57.4579 29.9627C56.9519 30.2435 56.7278 30.6143 56.7335 31.1613C56.7393 31.7284 56.9678 32.0971 57.4878 32.3781C57.9447 32.625 73.0348 32.651 73.6699 32.4059C74.2167 32.195 74.622 31.2638 74.4116 30.702C74.0564 29.7545 74.2235 29.7722 65.6507 29.7776C60.2694 29.781 57.6797 29.8396 57.4579 29.9627ZM17.5973 31.2607C17.3654 31.4458 16.5351 32.7784 15.7519 34.222L14.3281 36.8469H12.4952C10.0513 36.8469 9.54344 37.1052 9.54344 38.3484C9.54344 38.6469 9.69797 38.9928 9.94152 39.2398C10.3289 39.633 10.4046 39.6437 12.787 39.6437C14.5724 39.6437 15.354 39.5812 15.6754 39.4125C15.9779 39.2536 16.4696 38.5333 17.2443 37.1134C17.8648 35.9761 18.4165 35.0992 18.4701 35.1649C18.5238 35.2303 19.4278 37.2657 20.4791 39.6878C22.5032 44.3513 22.7563 44.7437 23.7407 44.7437C24.6922 44.7437 25.0911 44.1932 26.8911 40.3965C27.8166 38.4442 28.6204 36.8469 28.6775 36.8469C28.7344 36.8469 29.1334 37.4841 29.5644 38.2629C30.7118 40.3371 30.673 40.3213 34.488 40.2654L37.6236 40.2195L38.0147 39.7579C38.4919 39.1944 38.5165 38.5105 38.0768 38.0316C37.6319 37.5469 37.3974 37.5086 34.597 37.4625L32.1664 37.4227L31.0771 35.4485C29.9023 33.3193 29.3911 32.7336 28.7083 32.7346C27.6911 32.7359 27.3832 33.1479 25.592 36.9031C24.6578 38.8619 23.8567 40.4648 23.8117 40.4653C23.7668 40.4658 22.8614 38.4636 21.7998 36.0159C20.5004 33.0194 19.7384 31.4606 19.468 31.2449C18.9473 30.8292 18.1293 30.8361 17.5973 31.2607ZM46.3384 37.1632C45.585 37.9278 45.7681 38.8241 46.764 39.2464C47.2221 39.4405 49.4526 39.4792 60.1851 39.4792C73.4727 39.4792 73.9039 39.4588 74.2436 38.8147C74.5568 38.2208 74.432 37.388 73.9751 37.0234C73.5507 36.6847 73.4583 36.6824 60.1801 36.6824H46.8123L46.3384 37.1632ZM80.3221 56.1941C80.2581 56.6478 80.0664 57.0247 79.7363 57.3457L79.2455 57.8228L41.5557 57.8649L3.8657 57.9072L3.25894 57.3433L2.65219 56.7793L2.6016 52.5711C2.57371 50.2567 2.58279 48.3631 2.62171 48.3631C2.66062 48.3631 3.01216 48.5444 3.40293 48.766C5.11083 49.7345 2.80493 49.6792 41.4864 49.6792C80.3397 49.6792 77.9535 49.7393 79.591 48.7204L80.3207 48.2665L80.369 51.893C80.3954 53.8876 80.3744 55.8231 80.3221 56.1941ZM38.4635 52.4693C37.717 52.7863 37.3565 53.8747 37.8028 54.4645C38.2294 55.0282 38.6875 55.1083 41.4864 55.1083C44.2854 55.1083 44.7435 55.0282 45.1701 54.4645C45.4873 54.0453 45.4085 53.3531 44.987 52.8554L44.5959 52.3938L41.7035 52.3577C40.1126 52.338 38.6547 52.3882 38.4635 52.4693Z" fill="#FFC700"/>
</svg>
