<svg width="86" height="73" viewBox="0 0 86 73" fill="none" xmlns="http://www.w3.org/2000/svg">
<path fill-rule="evenodd" clip-rule="evenodd" d="M52.4072 0.272515C43.4044 2.19513 38.01 11.1661 40.7538 19.6524C42.4196 24.8046 46.7188 28.6837 52.1598 29.9435C53.9125 30.3492 56.9731 30.3876 58.737 30.026C60.8919 29.584 63.2706 28.5486 64.9211 27.3341L65.593 26.8397L66.374 27.5864L67.1551 28.3329L66.8396 29.0102C66.3728 30.0124 66.4162 31.4338 66.9476 32.5532C67.3012 33.2976 68.3133 34.3669 72.7831 38.718C76.299 42.1404 78.4552 44.1159 78.9467 44.3645C80.0167 44.906 82.0727 44.9111 83.1109 44.3746C84.8072 43.4984 85.997 41.7272 85.9998 40.074C86.0034 38.089 86.0022 38.0872 79.89 32.0979C75.9687 28.2553 74.1058 26.5428 73.5723 26.2905C72.5697 25.8164 70.9833 25.7198 69.9323 26.0689L69.1298 26.3355L68.3914 25.6156L67.653 24.8958L68.3447 23.9026C70.4354 20.9012 71.3897 17.6219 71.161 14.2226C70.7255 7.74355 66.3013 2.38803 59.8453 0.524857C57.8172 -0.0603939 54.4944 -0.173219 52.4072 0.272515ZM58.9223 3.09151C61.4328 3.71377 64.1837 5.49621 65.7562 7.51937C66.7793 8.83562 67.7458 10.8368 68.0947 12.362C68.4253 13.8062 68.4394 16.3797 68.125 17.8258C67.3345 21.4609 64.7214 24.689 61.2386 26.3324C57.1717 28.2517 52.852 28.0705 48.9201 25.8156C47.6885 25.1093 45.4293 22.9069 44.7048 21.7062C41.3217 16.0995 42.6332 9.11792 47.788 5.29398C51.058 2.86815 54.9304 2.10212 58.9223 3.09151ZM52.215 5.03803C49.7932 5.75167 47.0643 8.08039 45.8768 10.4466C43.8808 14.424 44.558 19.1222 47.584 22.2898C48.4553 23.2021 49.1348 23.3131 49.8112 22.6535C50.4585 22.0226 50.3658 21.3391 49.4917 20.3002C48.1476 18.703 47.5414 17.09 47.538 15.1024C47.5321 11.7211 49.6459 8.86526 53.0461 7.6602C54.2488 7.23395 54.6921 6.68375 54.5041 5.84976C54.3132 5.00152 53.417 4.68384 52.215 5.03803ZM3.24723 8.63748C1.92781 8.9468 0.665336 10.0489 0.177378 11.317C0.0559346 11.6323 0 18.9015 0 34.3358V56.8935L0.461922 57.7815C0.976756 58.7709 1.99752 59.6247 2.9857 59.8923C3.39152 60.0022 8.11707 60.0621 16.428 60.0626L29.2447 60.0636L29.1938 63.8163L29.1431 67.569L28.6326 68.2764C28.0353 69.1045 26.7498 69.805 25.3637 70.0579C24.8556 70.1506 23.3469 70.273 22.011 70.3302C19.7787 70.4255 19.5509 70.4643 19.1975 70.8088C18.68 71.3134 18.6917 72.0781 19.2252 72.598L19.6374 73H36.6178H53.5983L54.0105 72.598C54.5439 72.0781 54.5557 71.3134 54.0382 70.8088C53.6822 70.4618 53.4637 70.4261 51.1214 70.3323C47.0996 70.1715 45.2536 69.5194 44.3657 67.9463C44.0279 67.3476 43.949 66.9309 43.8786 65.3745C43.8025 63.6954 43.7566 63.4826 43.4014 63.1572C42.8892 62.6882 42.082 62.709 41.5384 63.2053C41.1316 63.5769 41.1245 63.626 41.1823 65.713C41.2354 67.6312 41.2874 67.9386 41.7089 68.8199C41.9662 69.3578 42.2981 69.9288 42.4468 70.089C42.7051 70.3674 42.4527 70.38 36.6508 70.38H30.5848L31.0895 69.5882C31.9386 68.2566 32.0784 67.4046 32.0806 63.5433L32.0826 60.0636L50.9374 60.0564C66.2492 60.0505 69.9107 60.0081 70.4225 59.8299C71.3515 59.5066 72.16 58.8425 72.6861 57.9702L73.1517 57.1979L73.1999 49.3773L73.2481 41.5568L72.8295 41.1487C72.2893 40.6221 71.5082 40.6086 70.9867 41.1171C70.639 41.4562 70.5913 41.6919 70.506 43.4959C70.3924 45.9011 70.0526 46.7536 68.896 47.5354L68.1676 48.0278L36.8973 48.0726C1.99752 48.1229 4.79223 48.2161 3.63104 46.9631C3.30686 46.6133 2.96084 46.0347 2.86224 45.6774C2.73911 45.232 2.69679 39.8487 2.72719 28.5419L2.77153 12.0558L3.24286 11.6605L3.71419 11.2654H20.3469H36.9796L37.4706 10.7867C38.0711 10.2013 38.0985 9.63751 37.5563 9.02295L37.151 8.56346L20.4652 8.53808C11.288 8.52416 3.53984 8.56886 3.24723 8.63748ZM8.56639 15.0726C7.45542 15.812 7.39076 16.1159 7.39076 20.5993C7.39076 25.0826 7.45542 25.3866 8.56639 26.1259C9.10592 26.4848 9.23324 26.4943 13.5217 26.4943C17.8181 26.4943 17.9369 26.4855 18.494 26.1226C19.584 25.4128 19.6522 25.0879 19.6522 20.5993C19.6522 16.1106 19.584 15.7858 18.494 15.0759C17.9369 14.713 17.8181 14.7042 13.5217 14.7042C9.23324 14.7042 9.10592 14.7137 8.56639 15.0726ZM16.7972 20.5993V23.8743H13.5217H10.2463V20.5993V17.3242H13.5217H16.7972V20.5993ZM72.3009 28.7109C72.6001 28.8493 75.1534 31.2258 77.975 33.9919C83.4697 39.3789 83.5703 39.5086 83.0933 40.6009C82.6177 41.6897 81.533 42.2953 80.5434 42.0246C79.8588 41.8373 69.6085 31.8587 69.3666 31.1442C69.0848 30.3117 69.5665 29.4057 70.6321 28.7641C71.246 28.3944 71.5927 28.3834 72.3009 28.7109ZM7.86208 30.1034C7.43292 30.522 7.36858 30.6849 7.45912 31.1264C7.51841 31.4151 7.7183 31.7991 7.90324 31.9795C8.23011 32.2982 8.49181 32.3089 17.0957 32.3544C21.9665 32.3801 26.1196 32.3608 26.3249 32.3115C27.1392 32.1158 27.5976 31.1693 27.2751 30.3499C26.9902 29.6263 26.7129 29.6056 17.2966 29.6056H8.37272L7.86208 30.1034ZM7.9454 35.7465C7.25167 36.2201 7.30559 37.3552 8.04803 37.9108C8.24993 38.0618 10.5303 38.1116 17.4346 38.1155L26.5548 38.1208L26.967 37.7187C27.4771 37.2216 27.5025 36.5161 27.0312 35.9322L26.6831 35.5007H17.4943C9.59488 35.5007 8.2548 35.5353 7.9454 35.7465ZM7.88174 41.7107C7.35162 42.2275 7.29988 42.4515 7.55772 43.1124C7.89349 43.9736 8.39355 44.0373 14.3913 43.9833L19.8502 43.934L20.2554 43.4745C20.7017 42.9685 20.7621 42.5429 20.4652 41.9991C20.0533 41.2455 20.0305 41.2427 14.0547 41.2373L8.37272 41.232L7.88174 41.7107ZM3.52018 50.2348C3.87847 50.413 4.68792 50.6362 5.31916 50.7307C6.09805 50.8474 16.3994 50.888 37.3737 50.8571L68.2805 50.8116L69.1204 50.4641C69.5823 50.273 70.0983 50.0603 70.2671 49.9913C70.5592 49.8723 70.5713 50.0226 70.5191 53.1508C70.4653 56.3669 70.4556 56.4441 70.057 56.8576L69.6496 57.2798H36.6862C18.5563 57.2798 3.60047 57.2339 3.45098 57.1781C2.80966 56.9382 2.68755 56.2748 2.68755 53.0304C2.68755 51.3146 2.72836 49.9109 2.77825 49.9109C2.82814 49.9109 3.1619 50.0567 3.52018 50.2348ZM33.5518 53.0196C32.6814 53.6872 32.9006 54.9403 33.9503 55.2971C34.6494 55.5345 38.5955 55.5314 39.298 55.2928C40.2956 54.9537 40.5148 53.6568 39.6823 53.0185C39.3024 52.7271 38.9956 52.6947 36.6178 52.6947C34.237 52.6947 33.9336 52.7268 33.5518 53.0196Z" fill="#FFC700"/>
</svg>
