<svg width="83" height="84" viewBox="0 0 83 84" fill="none" xmlns="http://www.w3.org/2000/svg">
<path fill-rule="evenodd" clip-rule="evenodd" d="M15.3201 0.187332C13.438 0.801721 11.9653 2.10956 11.1366 3.90174L10.619 5.02139L10.5762 27.5945C10.5292 52.3748 10.4674 50.7953 11.4932 51.0261C12.0368 51.1484 12.8706 50.7861 13.031 50.3581C13.0862 50.2103 13.1316 41.911 13.1316 31.9153V13.7414H41.5H69.8684V31.9806C69.8684 50.0732 69.871 50.2227 70.1971 50.5813C70.3779 50.7802 70.6982 50.9873 70.9091 51.0414C71.4171 51.1721 72.2721 50.7062 72.3834 50.238C72.4319 50.034 72.4512 39.777 72.4262 27.4443L72.381 5.02139L71.8634 3.90174C71.1934 2.45271 70.0248 1.25533 68.6106 0.568855L67.5178 0.0385105L41.7432 0.00711843C21.2374 -0.0179621 15.8359 0.0189112 15.3201 0.187332ZM67.5199 3.05299C68.3511 3.50908 68.9998 4.17613 69.4326 5.01923C69.7283 5.59542 69.7834 6.04039 69.8385 8.30178L69.9024 10.9178H41.5H13.0976L13.1615 8.30178C13.2166 6.04039 13.2717 5.59542 13.5674 5.01923C14.1372 3.90921 15.0492 3.13221 16.2107 2.76713C16.434 2.69688 27.9237 2.6522 41.7432 2.66781L66.8694 2.69605L67.5199 3.05299ZM18.219 5.19745C17.2901 5.67415 17.0851 6.75393 17.7661 7.58309C18.3498 8.29398 19.2731 8.30477 19.9525 7.60866C20.5724 6.97351 20.5821 6.27923 19.9806 5.61119C19.4237 4.99299 18.8705 4.86293 18.219 5.19745ZM22.7587 5.09763C22.241 5.31737 21.7232 6.08573 21.7232 6.63451C21.7232 7.35587 22.5021 8.09416 23.2632 8.09416C24.0353 8.09416 24.8032 7.35653 24.8032 6.61475C24.8032 5.63893 23.5952 4.74251 22.7587 5.09763ZM27.1356 5.10111C26.6199 5.31471 26.1 6.08424 26.1 6.63451C26.1 7.38228 26.8775 8.09416 27.6942 8.09416C28.2171 8.09416 28.4209 7.9965 28.7603 7.58309C29.4499 6.74347 29.2324 5.65754 28.282 5.19546C27.689 4.90711 27.6181 4.9013 27.1356 5.10111ZM49.7114 5.74042C49.3423 6.15831 49.371 7.02367 49.7673 7.42978C50.0828 7.753 50.3076 7.76197 58.0875 7.76197H66.0834L66.436 7.37763C66.8764 6.89711 66.8885 6.20366 66.4642 5.76882C66.1485 5.44543 65.9239 5.43663 58.0598 5.43663C50.4378 5.43663 49.9645 5.4539 49.7114 5.74042ZM3.40534 7.41898C2.52916 7.69304 1.63061 8.28036 1.08108 8.93826C-0.0778101 10.3255 0.00113504 8.20644 0.00113504 37.9084C0.00113504 67.5259 -0.0721363 65.4981 1.0459 66.8365C1.34353 67.1926 1.97784 67.7058 2.45557 67.9771L3.32429 68.47L18.3691 68.5157L33.4137 68.5614L33.3638 73.0833C33.3163 77.3665 33.2949 77.6412 32.9585 78.2855C31.8792 80.3519 29.808 81.1432 25.0757 81.297C21.8381 81.4021 21.6211 81.4762 21.4559 82.5345C21.3763 83.0433 21.4301 83.2164 21.7777 83.5726L22.1948 84H41.5H60.8052L61.203 83.5922C61.4219 83.368 61.601 83.028 61.601 82.8367C61.601 82.3598 61.1833 81.571 60.8642 81.4456C60.72 81.389 59.7488 81.3425 58.7061 81.3425C53.9145 81.3425 51.414 80.4947 50.1817 78.4522C49.7208 77.6885 49.6931 77.5384 49.6101 75.3476C49.5307 73.2546 49.49 73.0119 49.1624 72.6761C48.6772 72.1791 47.7773 72.1793 47.2917 72.6766C46.979 72.9968 46.9229 73.2582 46.8741 74.6249C46.7775 77.3344 47.3106 79.3824 48.4632 80.7272L48.9904 81.3425H41.5H34.0096L34.5117 80.7565C35.8785 79.1615 36.1441 77.8349 36.1478 72.5839L36.1505 68.5589L57.9131 68.5145L79.6757 68.47L80.5444 67.9771C81.0222 67.7058 81.6565 67.1926 81.9541 66.8365C83.0721 65.4981 82.9989 67.5259 82.9989 37.9084C82.9989 8.20462 83.078 10.3257 81.9183 8.93743C81.601 8.55757 80.9667 8.04799 80.5086 7.80466C79.7864 7.42098 79.4347 7.35338 77.8619 7.29541C76.0914 7.23013 76.0381 7.2386 75.633 7.65384C75.1948 8.10263 75.0849 8.85804 75.3765 9.41645C75.6098 9.86292 76.4078 10.0873 77.7627 10.0873C78.4799 10.0873 79.1408 10.1818 79.4058 10.3223C80.3791 10.8381 80.3295 9.61643 80.2667 31.4987C80.2201 47.7937 80.1687 51.6289 79.9913 52.0681C79.6034 53.0284 78.9341 53.7521 77.9979 54.2232L77.082 54.6841H41.4189H5.75586L4.87012 54.1858C3.77818 53.5716 3.00591 52.5625 2.77183 51.4442C2.5303 50.2898 2.52462 12.2633 2.76583 11.3731C3.02455 10.4185 3.51379 10.1848 5.46213 10.0848C7.32179 9.98948 7.68475 9.79731 7.8783 8.80622C7.96567 8.35842 7.90359 8.19316 7.48941 7.76862C7.00488 7.27215 6.97003 7.26385 5.40361 7.27797C4.52743 7.28577 3.62823 7.34922 3.40534 7.41898ZM17.8272 17.5317C17.3154 17.7643 16.8939 18.1604 16.5585 18.7243C16.2212 19.2915 16.2128 19.4639 16.2123 25.8003C16.2116 32.2626 16.2134 32.2978 16.5764 32.8441C16.7769 33.1461 17.147 33.5495 17.3987 33.7407L17.8565 34.0882H41.5H65.1435L65.6013 33.7407C65.853 33.5495 66.2229 33.1461 66.4236 32.8441C66.7864 32.2978 66.7884 32.2613 66.7884 25.8229C66.7884 19.5385 66.7785 19.3327 66.445 18.725C66.2562 18.3806 65.8269 17.9408 65.4909 17.7473L64.8801 17.3955L41.478 17.4072C28.6068 17.4136 17.964 17.4696 17.8272 17.5317ZM64.4805 25.7419L64.5229 31.6798H41.5021H18.4811V25.8111C18.4811 22.5832 18.5301 19.8923 18.5897 19.831C18.6495 19.7699 28.9897 19.7387 41.5681 19.7619L64.4378 19.8039L64.4805 25.7419ZM17.5013 38.033C17.1976 38.2429 16.7829 38.6668 16.5803 38.975C16.216 39.5288 16.2116 39.5981 16.2116 44.8259C16.2116 49.895 16.2252 50.1304 16.5358 50.4486C16.9484 50.8713 17.8499 50.8881 18.2104 50.4798C18.4424 50.2171 18.4817 49.5356 18.5192 45.1233L18.5622 40.0676H27.2348H35.9074L35.9884 45.1887C36.0648 50.014 36.0876 50.3232 36.3841 50.5453C36.833 50.8813 37.5553 50.8363 37.9337 50.4486C38.2443 50.1304 38.2579 49.895 38.2579 44.868C38.2579 39.0709 38.2331 38.9071 37.2386 38.1426L36.7179 37.7423L27.386 37.6969L18.054 37.6514L17.5013 38.033ZM46.0864 37.9499C45.8034 38.1099 45.4033 38.4628 45.1974 38.7345C44.8262 39.2245 44.8228 39.2732 44.7763 44.6937C44.7338 49.6387 44.7556 50.1885 45.0041 50.4699C45.3312 50.8403 46.1694 50.8795 46.6159 50.5453C46.9124 50.3232 46.9352 50.014 47.0116 45.1887L47.0926 40.0676H55.7652H64.4378L64.5189 45.1887C64.5952 50.014 64.6181 50.3232 64.9146 50.5453C65.3635 50.8813 66.0858 50.8363 66.4642 50.4486C66.7747 50.1304 66.7884 49.895 66.7884 44.8259C66.7884 39.5981 66.784 39.5288 66.4197 38.975C66.2171 38.6668 65.805 38.2446 65.5042 38.0369L64.9572 37.6592H55.7793C47.3424 37.6592 46.5596 37.6827 46.0864 37.9499ZM80.3752 61.0788C80.3197 64.7804 80.2415 65.1177 79.3416 65.5378C78.7506 65.8137 4.24942 65.8137 3.65838 65.5378C2.72839 65.1036 2.68041 64.8593 2.62513 60.2725C2.59725 57.9563 2.63372 56.0911 2.70618 56.1274C2.77864 56.164 3.3486 56.4522 3.97271 56.7677L5.10744 57.3416H41.5H77.8926L78.9033 56.8632C79.4593 56.6002 80.0064 56.2703 80.1191 56.1301C80.3945 55.7879 80.4412 56.69 80.3752 61.0788ZM38.0074 60.656C37.7565 60.913 37.6095 61.2535 37.6095 61.577C37.6095 61.9006 37.7565 62.2411 38.0074 62.4981C38.402 62.9025 38.4304 62.9058 41.5 62.9058C44.5696 62.9058 44.598 62.9025 44.9925 62.4981C45.2435 62.2411 45.3905 61.9006 45.3905 61.577C45.3905 61.2535 45.2435 60.913 44.9925 60.656C44.598 60.2516 44.5696 60.2483 41.5 60.2483C38.4304 60.2483 38.402 60.2516 38.0074 60.656Z" fill="#FFC700"/>
</svg>
