<svg width="87" height="73" viewBox="0 0 87 73" fill="none" xmlns="http://www.w3.org/2000/svg">
<path fill-rule="evenodd" clip-rule="evenodd" d="M61.5289 0.224301C59.7225 0.62461 58.4176 1.65604 57.5886 3.33846C57.0629 4.40555 57.0298 4.58558 56.9693 6.6858C56.9341 7.90642 56.99 9.36092 57.0937 9.91799C57.6107 12.6981 59.4696 14.8076 62.185 15.6954C63.601 16.1584 65.7161 16.0043 67.1403 15.3346C68.7268 14.5885 69.8954 13.464 70.6321 11.9744C71.4067 10.4078 71.5434 9.36262 71.5505 4.95107C71.557 1.02288 71.4452 0.500627 70.5293 0.181501C69.7701 -0.0829372 62.7655 -0.0496484 61.5289 0.224301ZM68.6392 6.40013L68.582 9.92427L68.0578 10.8584C66.2693 14.0459 61.6941 13.8486 60.1836 10.5187C59.8916 9.87519 59.8362 9.40083 59.8332 7.51512C59.8291 5.10053 59.9433 4.58422 60.6476 3.83184C61.4574 2.96651 61.8425 2.88991 65.4101 2.88261L68.6967 2.87599L68.6392 6.40013ZM41.9844 10.6685C40.0877 11.2803 40.0568 11.3025 34.3872 16.1614C29.8376 20.0606 29.4375 20.5368 29.2834 22.2364C29.0514 24.7928 30.9814 26.8656 33.5932 26.8656C35.1007 26.8656 35.68 26.4878 40.3624 22.4498C42.5558 20.5584 44.4203 19.0106 44.5058 19.0106C44.6659 19.0106 45.9941 19.5782 47.5312 20.3034C48.471 20.747 48.9028 21.4002 48.7229 22.1069C48.6059 22.5662 37.2728 46.885 37.091 47.0667C37.0218 47.1358 33.0424 45.8571 28.2478 44.2252C22.3326 42.2119 19.4011 41.2905 19.1282 41.359C18.9069 41.4145 18.6056 41.5928 18.4582 41.7554C18.0964 42.155 14.6221 51.8286 14.6221 52.4365C14.6221 53.1381 15.2392 53.6191 16.7703 54.1108C19.1547 54.8766 21.1042 54.4574 22.8551 52.8027L23.7798 51.9287L30.0354 54.0106C35.4538 55.8137 36.473 56.1021 37.6506 56.1661C40.6496 56.329 43.5617 54.9002 45.1865 52.4688C45.5721 51.8917 46.5007 50.2084 47.2499 48.7281L48.6119 46.0368L51.204 47.1046C52.6297 47.6919 55.4095 48.8388 57.3814 49.6534L60.9669 51.1342L63.3722 58.8138L65.7778 66.4932V69.3019C65.7778 72.1014 65.7793 72.1121 66.2161 72.5226L66.6544 72.9343L71.9836 72.9835C78.2057 73.0411 78.3734 73.0116 78.7059 71.8008C78.9999 70.7296 78.6799 68.5107 78.0699 67.3906C77.4656 66.281 76.1625 65.1173 75.1035 64.7414L74.267 64.4446L73.5201 62.0658C73.1093 60.7574 71.8447 56.7062 70.7099 53.0632C69.5752 49.4202 68.4464 46.0968 68.2013 45.6778C67.6372 44.7129 66.4147 43.4018 65.4795 42.7584C65.0818 42.4848 63.2883 41.6509 61.4939 40.9052C59.6997 40.1596 58.206 39.524 58.1748 39.4928C58.0828 39.4009 63.0619 28.8037 63.3451 28.4888C63.9095 27.8609 64.4535 27.9388 66.9158 29.0002C70.0852 30.3663 70.4011 30.4552 72.066 30.4482C74.8923 30.4365 76.4333 29.6671 79.7676 26.6027C86.8383 20.1049 86.8296 20.1149 86.9802 18.2399C87.0881 16.8961 86.7594 15.9206 85.9008 15.0371C84.9681 14.0773 84.0614 13.6852 82.7635 13.6801C81.1549 13.6738 80.5252 14.1014 76.0391 18.2463C73.9161 20.208 72.0962 21.7883 71.9951 21.7581C71.8938 21.728 70.3604 21.0517 68.5872 20.2554C66.8143 19.459 65.1119 18.7666 64.8043 18.7166C63.8649 18.5643 62.8357 19.0842 61.8694 20.1988C60.0617 22.2841 57.9287 22.4611 57.0152 20.6017C56.7511 20.0641 56.6918 19.5582 56.6889 17.818C56.6856 15.8627 56.654 15.6516 56.2966 15.1972C56.083 14.9253 55.7652 14.603 55.5905 14.4807C54.973 14.0485 47.6647 10.8353 46.7499 10.5938C45.4742 10.2572 43.1472 10.2937 41.9844 10.6685ZM46.7431 13.5581C48.3048 14.1578 48.2687 14.0702 47.55 15.5218C47.2013 16.2263 46.8471 16.8027 46.763 16.8027C46.679 16.8027 46.2769 16.6516 45.8694 16.4668C45.0208 16.0819 44.3185 16.0385 43.5092 16.3202C43.1984 16.4286 41.0973 18.0994 38.84 20.0334C36.5826 21.9673 34.5317 23.6832 34.282 23.8468C33.7064 24.2236 32.754 24.0754 32.387 23.5518C32.0499 23.0708 32.0561 22.3215 32.4022 21.7542C32.7302 21.2165 40.5255 14.5204 41.5167 13.9248C43.0442 13.0073 44.9591 12.8728 46.7431 13.5581ZM52.4926 16.0982L53.9081 16.7316L53.9372 18.7628C53.9705 21.1008 54.2242 21.8658 55.3841 23.1233C56.4355 24.263 57.4402 24.7017 58.9797 24.6931C60.688 24.6836 61.8447 24.1493 63.3954 22.6531L64.5563 21.5332L65.8468 22.129C66.5566 22.4568 67.1374 22.7574 67.1374 22.797C67.1374 22.8366 66.8656 23.4568 66.5334 24.1754C65.9989 25.3315 65.8877 25.4684 65.5653 25.3661C64.8809 25.1489 63.4292 25.2653 62.6782 25.5971C61.2636 26.2225 60.9061 26.7836 58.136 32.7256C56.7099 35.7845 55.5223 38.3102 55.4968 38.3382C55.4713 38.3661 54.2475 37.8885 52.7774 37.2767C51.3072 36.6648 49.8692 36.1643 49.5818 36.1643C48.456 36.1643 47.7917 37.7147 48.603 38.4484C48.7846 38.6127 51.3275 39.7401 54.254 40.9537C57.1802 42.1674 59.5968 43.1817 59.6241 43.2077C59.6746 43.2559 58.3216 46.7267 58.2071 46.8427C58.1727 46.8775 55.8923 45.9796 53.1396 44.8471C50.3869 43.7146 48.0232 42.788 47.8867 42.788C47.3384 42.788 46.6819 43.5949 45.799 45.3541C45.2885 46.3714 44.8141 47.2056 44.7448 47.2079C44.6754 47.2101 43.7941 46.8852 42.7863 46.486C41.4365 45.9514 40.973 45.6931 41.0269 45.5054C41.0672 45.3653 43.4076 40.3211 46.228 34.2961C49.0483 28.2711 51.4207 22.9976 51.5 22.5772C51.7737 21.1265 51.2237 19.5507 50.112 18.5996L49.446 18.03L50.0862 16.737C50.4384 16.0259 50.8053 15.4488 50.9016 15.4544C50.998 15.4602 51.7138 15.7499 52.4926 16.0982ZM83.8138 16.9067C84.1833 17.2409 84.2446 18.4257 83.9147 18.8562C83.8009 19.0047 81.9105 20.7919 79.7139 22.8276C76.5119 25.795 75.5029 26.6316 74.6253 27.0469C72.877 27.8741 71.3801 27.8509 69.318 26.9645L68.5201 26.6214L69.1093 25.3293C69.4334 24.6187 69.7242 24.0117 69.7555 23.9804C69.7868 23.949 70.2076 24.0791 70.6906 24.2693C71.7385 24.6822 72.5813 24.7092 73.3303 24.3541C73.6331 24.2104 75.645 22.4604 77.801 20.4653C79.9571 18.47 81.8622 16.7518 82.0346 16.647C82.4424 16.399 83.4083 16.54 83.8138 16.9067ZM19.8056 19.2068C18.9839 19.6558 18.7613 20.7693 19.3712 21.3788C19.8354 21.8427 20.532 21.934 23.1088 21.8695C25.334 21.8136 25.3639 21.8075 25.7691 21.3364C26.3174 20.6988 26.2895 20.1142 25.6821 19.5071L25.1853 19.0106L22.6654 19.0157C21.1719 19.0188 20.007 19.0966 19.8056 19.2068ZM3.80104 25.0327C2.81464 25.4616 2.60135 26.483 3.34336 27.2247C3.77436 27.6552 3.8646 27.6724 5.69992 27.6724C7.34574 27.6724 7.66712 27.626 8.03693 27.3354C8.91763 26.643 8.69584 25.3434 7.63381 24.9733C6.8799 24.7107 4.45536 24.7483 3.80104 25.0327ZM12.8376 24.9067C11.758 25.1678 11.3739 26.4798 12.1501 27.2554L12.5672 27.6724H18.9161C25.059 27.6724 25.2771 27.6612 25.6348 27.3279C26.4513 26.5679 26.2643 25.455 25.2492 25.031C24.771 24.8313 23.5799 24.7889 18.9188 24.8048C15.7611 24.8157 13.0245 24.8616 12.8376 24.9067ZM0.423405 31.1464C-0.149164 31.7184 -0.139987 32.5712 0.444649 33.1201L0.883296 33.5318L20.0728 33.5771C40.9302 33.6264 40.2115 33.6568 40.646 32.704C40.8877 32.1736 40.7291 31.5192 40.2507 31.0739C39.8836 30.732 39.7348 30.7295 20.3607 30.7295H0.840468L0.423405 31.1464ZM12.4807 36.7465C11.7873 37.0481 11.5267 37.8078 11.8384 38.6193C12.1333 39.3871 12.2011 39.3912 24.8728 39.3912C36.5509 39.3912 36.8503 39.3831 37.2687 39.0543C38.102 38.3992 38.0028 37.248 37.0716 36.7669C36.6263 36.5367 35.0925 36.5048 24.7852 36.5106C15.2842 36.516 12.9057 36.5615 12.4807 36.7465ZM63.2399 44.7469C64.2805 45.2739 65.2995 46.2673 65.7964 47.2393C66.0809 47.7957 71.2162 63.9478 71.2162 64.2863C71.2162 64.3253 70.5087 64.3571 69.6442 64.3566L68.0721 64.3556L66.4673 59.219C65.5845 56.3937 64.5685 53.1488 64.2094 52.0078C63.4712 49.6617 63.0864 49.0922 61.8043 48.4489C61.3257 48.2085 60.9125 47.9934 60.886 47.9703C60.8242 47.9166 62.2446 44.3165 62.3275 44.3165C62.3619 44.3165 62.7725 44.5101 63.2399 44.7469ZM23.0645 45.5635C23.1811 45.6798 21.5546 49.9236 21.188 50.4599C20.9885 50.7519 20.5589 51.1321 20.2332 51.305C19.6224 51.6294 18.1148 51.7385 17.9489 51.4705C17.8981 51.3883 18.4081 49.7906 19.0823 47.9196L20.308 44.5181L21.6547 45.0093C22.3955 45.2795 23.03 45.5288 23.0645 45.5635ZM31.463 48.3689C34.3226 49.3161 36.8464 50.0893 37.0714 50.0873C37.7336 50.0813 38.8615 49.4842 39.2803 48.918C39.4941 48.6291 39.7424 48.3926 39.8321 48.3926C39.9219 48.3926 40.7818 48.7116 41.7431 49.1014L43.4909 49.8101L43.171 50.4368C42.7093 51.3414 41.2667 52.5647 40.1853 52.9691C39.5646 53.2013 38.8469 53.318 38.0405 53.318C36.9491 53.318 36.2351 53.1215 30.8663 51.3431C27.5871 50.2568 24.8848 49.3522 24.8612 49.3329C24.8191 49.2981 25.2815 47.9212 25.6534 46.9742C25.7582 46.7075 25.938 46.5251 26.0538 46.5684C26.1693 46.6116 28.6036 47.4218 31.463 48.3689ZM74.5648 67.6156C74.9798 67.8901 75.3972 68.3675 75.6144 68.8157C76.2842 70.1985 76.4552 70.132 72.2359 70.132H68.497V68.5856V67.0392L71.1863 67.0995C73.7706 67.1574 73.9025 67.1776 74.5648 67.6156Z" fill="#FFC700"/>
</svg>
