<svg width="99" height="35" viewBox="0 0 99 35" fill="none" xmlns="http://www.w3.org/2000/svg">
<path fill-rule="evenodd" clip-rule="evenodd" d="M0.405458 0.476978C-0.0189759 0.931402 -0.0369588 1.0681 0.0283983 3.35053C0.0908549 5.53359 0.147704 5.85054 0.665533 6.91106C1.4065 8.42911 2.66124 9.65958 4.39939 10.5731L5.80128 11.3099V18.3627V25.4155L6.24873 25.8384C6.66253 26.2292 6.89302 26.2611 9.29731 26.2611H11.8982L12.2542 27.282C13.393 30.5458 16.1252 33.2387 19.5301 34.4532C20.5865 34.8299 21.1726 34.9014 23.2041 34.9014C25.2355 34.9014 25.8216 34.8299 26.878 34.4532C30.2779 33.2404 33.0155 30.545 34.1496 27.2937L34.5017 26.2845L42.34 26.2149C52.4631 26.1252 51.657 26.3325 60.7821 21.4694C62.8919 20.3449 64.6474 19.4543 64.6832 19.4905C64.7189 19.5264 64.6257 20.0802 64.4759 20.7209C63.9269 23.0679 64.2365 26.1287 65.2352 28.2272L65.6877 29.1779H51.2473H36.807L36.3865 29.6278C35.828 30.2257 35.84 31.1299 36.4135 31.6718L36.8612 32.0946H52.4612H68.0612L68.9236 32.7565C72.8207 35.7478 78.7775 35.7478 82.6745 32.7565L83.5369 32.0946H90.8494H98.1618L98.5996 31.6259C99.0229 31.1731 99.0353 31.0549 98.9717 28.0722C98.9077 25.0556 98.8924 24.9591 98.2881 23.7283C97.2173 21.5473 96.7431 21.2154 88.2842 16.7256C84.0459 14.4759 80.0467 12.4417 79.3972 12.2051C78.2397 11.7833 78.0038 11.7736 67.5413 11.7199L56.8666 11.6651L56.8096 6.2093L56.7527 0.753678L56.2755 0.365171C55.8209 -0.00466854 55.5732 -0.0192513 51.0547 0.0585278C44.1729 0.176946 44.8115 -0.0474459 32.0721 6.72809C28.1604 8.80868 24.9233 10.5109 24.8788 10.5109C24.8341 10.5109 24.7568 9.43907 24.7067 8.12889C24.6367 6.29349 24.5172 5.49043 24.1863 4.62941C23.5894 3.07655 22.1489 1.54391 20.5345 0.744539L19.249 0.107917L10.0501 0.0538606L0.851356 0L0.405458 0.476978ZM18.6971 3.21928C19.8643 3.56792 21.1281 4.82599 21.4613 5.9709C21.5893 6.41074 21.6546 7.75496 21.6196 9.23179L21.5605 11.7446L20.4438 11.9994C17.996 12.5578 15.4763 14.2176 13.9701 16.2642L13.0524 17.511H10.8771H8.70175L8.69556 13.6706C8.6913 10.9593 8.62015 9.7393 8.45385 9.52094C8.3243 9.35079 7.52223 8.83259 6.67142 8.36922C5.82062 7.90585 4.88551 7.3612 4.59353 7.15898C3.80345 6.61141 3.12512 5.3022 2.97759 4.03984L2.84765 2.92741H10.2837C16.3332 2.92741 17.902 2.98186 18.6971 3.21928ZM53.7556 7.30248V11.6776H52.402H51.0485V7.30248V2.92741H52.402H53.7556V7.30248ZM47.9943 8.46256C48.0457 13.2835 48.085 13.8369 48.3965 14.1502C48.7152 14.4704 49.4463 14.5044 57.9419 14.5943L67.142 14.6915L60.2919 18.3265C56.5244 20.3256 52.7946 22.1785 52.0035 22.4441C49.7533 23.199 48.0046 23.3444 41.173 23.3444H34.8059V22.546C34.8059 22.107 34.6675 21.2102 34.4983 20.5529C33.6478 17.2493 31.5344 14.5499 28.56 12.9691L27.6317 12.4756L28.27 12.1458C28.6212 11.9646 31.9538 10.1978 35.676 8.22008C39.3983 6.24216 42.8354 4.45304 43.3139 4.24401C44.3844 3.77676 46.7073 3.14694 47.4142 3.13255L47.9373 3.12186L47.9943 8.46256ZM24.9985 14.8803C28.4792 15.6221 31.1231 18.4329 31.7254 22.0319C32.67 27.675 27.5105 32.8634 21.8988 31.9135C18.1694 31.2824 15.3104 28.4073 14.6827 24.6569C13.9495 20.2762 16.963 15.8407 21.3189 14.8891C22.8931 14.5453 23.4198 14.5439 24.9985 14.8803ZM77.5935 14.8803C82.0332 15.8265 85.0618 20.228 84.3205 24.6569C83.5273 29.3972 79.0706 32.6882 74.4939 31.9135C70.7645 31.2824 67.9054 28.4073 67.2777 24.6569C66.5445 20.2762 69.5581 15.8407 73.914 14.8891C75.4882 14.5453 76.0149 14.5439 77.5935 14.8803ZM21.078 17.8501C19.865 18.2804 18.1489 20.0415 17.7272 21.2887C17.3136 22.512 17.3136 24.1768 17.7272 25.4001C18.1679 26.7033 19.8639 28.4088 21.1598 28.852C23.416 29.6235 25.6134 29.1172 27.279 27.4422C28.9447 25.7672 29.4482 23.5575 28.6809 21.2887C28.2402 19.9855 26.5442 18.28 25.2483 17.8369C24.0721 17.4346 22.2324 17.4404 21.078 17.8501ZM73.6731 17.8501C72.4601 18.2804 70.744 20.0415 70.3223 21.2887C69.555 23.5575 70.0585 25.7672 71.7241 27.4422C72.9646 28.6896 74.1108 29.1779 75.7991 29.1779C77.4874 29.1779 78.6336 28.6896 79.8741 27.4422C81.1145 26.1948 81.6 25.0421 81.6 23.3444C81.6 21.6467 81.1145 20.494 79.8741 19.2466C79.1406 18.5091 78.4917 18.0586 77.8433 17.8369C76.6671 17.4346 74.8274 17.4404 73.6731 17.8501ZM90.5595 21.3177C95.4609 23.9165 96.1023 24.6785 96.1023 27.9029V29.1779H91.0064H85.9105L86.363 28.2272C87.5028 25.8322 87.7136 22.5052 86.8972 19.7957C86.841 19.6087 86.8516 19.4555 86.921 19.4555C86.9904 19.4555 88.6276 20.2935 90.5595 21.3177ZM11.7263 21.1569C11.6604 21.558 11.6055 22.2143 11.6043 22.6152L11.6022 23.3444H10.152H8.70175V21.8861V20.4277H10.274H11.8462L11.7263 21.1569ZM23.9642 20.6183C24.8596 20.8765 25.6822 21.712 25.9216 22.6059C26.645 25.3068 23.4431 27.2901 21.3472 25.4396C19.4754 23.7872 20.5776 20.6618 23.1087 20.4444C23.2157 20.4353 23.6006 20.5135 23.9642 20.6183ZM76.5592 20.6183C77.4547 20.8765 78.2773 21.712 78.5166 22.6059C79.24 25.3068 76.0381 27.2901 73.9422 25.4396C72.0705 23.7872 73.1726 20.6618 75.7038 20.4444C75.8107 20.4353 76.1957 20.5135 76.5592 20.6183Z" fill="#FFC700"/>
</svg>
