<svg width="55" height="54" viewBox="0 0 55 54" fill="none" xmlns="http://www.w3.org/2000/svg">
<path fill-rule="evenodd" clip-rule="evenodd" d="M45.2278 0.0558822C44.0305 0.144069 41.7198 0.443018 40.3929 0.681417C32.2753 2.13956 25.9816 5.42863 20.0327 11.3216C19.2645 12.0826 18.3232 13.0707 17.9409 13.5174C17.4128 14.1344 17.1805 14.3298 16.9739 14.3306C16.8244 14.3312 14.8856 14.471 12.6654 14.6415C8.21376 14.9832 7.92485 15.0406 6.92489 15.7804C6.47891 16.1105 5.89002 16.9118 3.45561 20.5017C1.84292 22.8798 0.422326 25.014 0.298661 25.2444C-0.227802 26.225 -0.0344077 27.6209 0.748733 28.4944C1.39478 29.215 1.83325 29.3455 5.42619 29.8863C7.19597 30.1527 8.76483 30.394 8.91256 30.4225C9.17676 30.4735 9.18116 30.4911 9.18406 31.5001C9.18664 32.3998 9.22521 32.6103 9.49801 33.2117C9.78574 33.8462 10.1983 34.2813 15.0283 39.0453C19.9326 43.8825 20.2959 44.2166 21.0477 44.5833C21.8065 44.9532 21.9025 44.9734 22.9012 44.9734H23.9546L24.0109 45.2899C24.0418 45.4639 24.2854 47.004 24.5522 48.7124C25.1551 52.5734 25.3043 52.9458 26.533 53.6591C26.9549 53.904 27.1327 53.9397 27.9297 53.9388C28.5897 53.9382 28.9373 53.8875 29.1833 53.756C29.3705 53.656 31.5339 52.2661 33.9909 50.6676C37.8597 48.1502 38.5166 47.6846 38.8959 47.1915C39.6783 46.1741 39.7249 45.9516 40.0749 41.5565C40.2486 39.3746 40.3913 37.4692 40.3918 37.3225C40.3927 37.1196 40.5917 36.8916 41.2201 36.3731C41.6751 35.9977 42.6815 35.0735 43.4566 34.3193C50.0374 27.9157 53.4154 21.1612 54.6926 11.8525C54.9717 9.81781 55.1047 4.56121 54.9025 3.55213C54.5516 1.80095 53.228 0.46633 51.481 0.102085C50.9618 -0.00614384 46.5156 -0.0389501 45.2278 0.0558822ZM51.1245 3.35244C51.2495 3.41816 51.4366 3.59875 51.5399 3.75371C51.7065 4.00329 51.7267 4.31944 51.7166 6.51904C51.6867 13.0012 50.3349 18.6909 47.6304 23.7179C44.5764 29.3942 38.4894 35.2947 32.2972 38.5811L31.0246 39.2566L23.0144 31.3919L15.004 23.5274L15.6919 22.278C18.5682 17.0541 23.4178 11.8732 28.5206 8.57318C33.3557 5.44624 39.5179 3.59981 46.4096 3.21288C47.7512 3.13757 50.8925 3.2305 51.1245 3.35244ZM36.0481 9.22203C32.2155 10.0661 29.6456 13.1673 29.6302 16.9667C29.6244 18.3754 29.8359 19.2703 30.4781 20.5533C30.9058 21.4079 31.1306 21.7037 32.0063 22.5635C32.8884 23.4296 33.177 23.6402 34.0539 24.0582C35.388 24.6942 36.2374 24.8881 37.6792 24.886C39.5634 24.8834 41.1991 24.3378 42.6838 23.2168C43.9529 22.2586 45.0879 20.56 45.521 18.971C45.8112 17.9061 45.7798 15.8797 45.4573 14.857C45.005 13.4232 44.4259 12.479 43.3518 11.4245C42.2897 10.3816 41.3198 9.80421 39.9094 9.37477C38.8994 9.06728 37.0779 8.99523 36.0481 9.22203ZM39.7661 12.7723C40.767 13.258 41.5617 14.0534 42.0327 15.0407C42.494 16.0081 42.572 17.3275 42.2327 18.4241C41.98 19.2412 41.3082 20.2219 40.6794 20.6917C38.7855 22.1066 36.1817 22.0059 34.4568 20.4513C32.2373 18.4509 32.3943 15.0418 34.7884 13.2516C35.7348 12.544 36.5113 12.3184 37.8778 12.3539C38.8826 12.3801 39.0209 12.4108 39.7661 12.7723ZM14.607 17.7568C14.607 17.7852 14.3991 18.1294 14.145 18.5216C12.5994 20.9073 11.3332 23.4746 10.4637 25.9858C10.2427 26.624 10.0276 27.1847 9.98558 27.2317C9.94368 27.2789 8.49698 27.1008 6.77082 26.8362C5.04467 26.5716 3.58991 26.355 3.53813 26.355C3.36117 26.355 8.79362 18.4026 9.06642 18.2623C9.21834 18.1842 10.3956 18.0422 11.8345 17.9285C13.2116 17.8196 14.3988 17.7249 14.4727 17.7179C14.5466 17.7108 14.607 17.7284 14.607 17.7568ZM27.6317 40.6081C27.3596 40.8547 23.6363 41.7536 22.8812 41.7551L22.399 41.7561L17.4286 36.8761L12.4581 31.996L12.4591 31.5226C12.4605 30.8359 13.1152 28.1184 13.5493 26.9973C13.6456 26.7488 14.0098 27.088 20.6803 33.6365C24.5465 37.432 27.6746 40.5692 27.6317 40.6081ZM6.1728 36.329C5.70812 36.5632 0.449294 41.7347 0.202393 42.2002C-0.0690038 42.7122 -0.0575076 43.1897 0.238386 43.6966C0.653217 44.4068 1.63749 44.7121 2.33715 44.3475C2.68977 44.1636 8.1955 38.7406 8.3673 38.4079C8.51481 38.1221 8.54479 37.5794 8.43283 37.2201C8.16595 36.3636 7.00934 35.9075 6.1728 36.329ZM36.9036 40.1474C36.8715 40.423 36.7719 41.5912 36.6823 42.7433C36.5915 43.9124 36.4592 44.9513 36.3831 45.0941C36.2419 45.3584 28.1446 50.6854 28.1446 50.5138C28.1446 50.4629 27.924 49.0346 27.6545 47.3399C27.385 45.6451 27.2036 44.2248 27.2516 44.1836C27.2995 44.1424 27.8706 43.9312 28.5206 43.7142C30.0471 43.2046 31.4389 42.6239 32.9794 41.8536C34.1643 41.2612 36.4677 39.9485 36.6808 39.7442C36.893 39.5407 36.9602 39.6625 36.9036 40.1474ZM11.0077 41.0331C10.673 41.2114 0.32262 51.3724 0.149102 51.6929C-0.0717973 52.101 -0.0435402 52.8216 0.209269 53.2287C0.637316 53.9179 1.63792 54.2059 2.33715 53.8411C2.68751 53.6583 13.0304 43.4883 13.199 43.1607C13.5326 42.5127 13.2134 41.5259 12.5397 41.1226C12.1534 40.8913 11.3606 40.845 11.0077 41.0331ZM16.0638 45.7151C15.7411 45.8248 14.9663 46.519 12.8066 48.6336C11.248 50.1595 9.90339 51.5363 9.81872 51.6929C9.43075 52.4103 9.76027 53.3687 10.5281 53.7552C11.1053 54.0458 11.4851 54.0546 12.0058 53.7895C12.5179 53.5288 17.8878 48.2339 18.0385 47.8411C18.2255 47.354 18.1743 46.7767 17.9108 46.3964C17.4288 45.7011 16.794 45.467 16.0638 45.7151Z" fill="#FFC700"/>
</svg>
